<svg xmlns="http://www.w3.org/2000/svg" viewBox="0 0 285.04 173.98"><defs><style>.cls-1{fill:#49194f;}.cls-2{fill:#fff;}.cls-3{fill:#f0a74d;}.cls-4{fill:#c7a6cc;}.cls-5{opacity:0.49;}</style></defs><g id="Layer_2" data-name="Layer 2"><g id="_1" data-name="1"><rect class="cls-1" y="159.46" width="284.68" height="14.52"/><path class="cls-1" d="M54.39,172a.76.76,0,0,1-.65-.36A105.88,105.88,0,0,1,48,160.17c-1-2.12-2-4.52-3.45-7.54-2.35-5-4.81-10-7.31-14.79a.75.75,0,1,1,1.33-.69c2.51,4.83,5,9.83,7.33,14.84,1.42,3,2.51,5.44,3.47,7.56A102.22,102.22,0,0,0,55,170.83a.74.74,0,0,1-.64,1.13Z"/><path class="cls-2" d="M20.59,126.9c5.13,9,13.59,13.77,17.79,11.37s4.77-12.67-.37-21.66S17.44,103.8,17.44,103.8,15.46,117.91,20.59,126.9Z"/><path class="cls-2" d="M27.41,162.92c9,2.57,17.49.3,18.69-3.9s-4.93-11.2-13.93-13.78S10.76,150,10.76,150,18.4,160.35,27.41,162.92Z"/><path class="cls-2" d="M62.45,147.39c-3,8.15-9.38,13.26-13.18,11.85s-5.68-9.84-2.66-18S61.9,127.82,61.9,127.82,65.47,139.24,62.45,147.39Z"/><path class="cls-3" d="M19.43,129.79c5,8.82,13.76,13.25,18.29,10.66s5.58-12.93.55-21.75-21.17-12-21.17-12S14.4,121,19.43,129.79Z"/><path class="cls-3" d="M26.44,164.72c9,2.57,17.5.3,18.7-3.9s-4.93-11.2-13.94-13.77-21.4,4.73-21.4,4.73S17.44,162.15,26.44,164.72Z"/><path class="cls-1" d="M35.85,139.64a12.73,12.73,0,0,1-6.41-2.14,28.72,28.72,0,0,1-9.5-10.23c-5.2-9.11-3.33-23-3.24-23.57a.75.75,0,0,1,.92-.63c.64.16,15.82,4,21,13.17a27.76,27.76,0,0,1,3.78,13.68c0,4.4-1.37,7.68-3.69,9A5.72,5.72,0,0,1,35.85,139.64ZM18.08,104.76c-.31,3.15-1.07,14.35,3.16,21.77h0a27.17,27.17,0,0,0,9,9.69c3.08,1.9,6,2.42,7.78,1.4s2.91-3.92,2.94-7.71A26.71,26.71,0,0,0,37.36,117C33.12,109.54,21.31,105.69,18.08,104.76Z"/><path class="cls-1" d="M35,164.76a28.81,28.81,0,0,1-7.83-1.12c-9.14-2.61-16.72-12.79-17-13.22a.79.79,0,0,1-.13-.6.76.76,0,0,1,.35-.49c.52-.31,12.79-7.44,22-4.81A25.21,25.21,0,0,1,43.5,151c2.78,2.88,4,5.88,3.33,8.23C45.83,162.71,41,164.76,35,164.76ZM11.9,150.2c1.85,2.32,8.38,9.9,15.72,12,8.75,2.5,16.73.23,17.76-3.39.52-1.79-.59-4.32-3-6.77A24.13,24.13,0,0,0,32,146C24.61,143.86,14.68,148.72,11.9,150.2Z"/><path class="cls-1" d="M50.66,160.23a4.86,4.86,0,0,1-1.65-.29c-4.57-1.69-6.08-10.91-3.1-19,3.1-8.35,15.18-13.63,15.7-13.85a.76.76,0,0,1,.61,0,.79.79,0,0,1,.4.46c.15.48,3.61,11.75.53,20.05h0C60.47,154.9,55,160.23,50.66,160.23Zm10.76-31.36c-2.71,1.31-11.66,6-14.11,12.63-2.84,7.68-1.15,15.78,2.22,17s9.3-3.51,12.22-11.4h0C64.19,140.55,62.15,131.61,61.42,128.87Z"/><path class="cls-1" d="M38.38,139a.75.75,0,0,1-.64-.36L16.8,104.19a.75.75,0,0,1,.25-1,.76.76,0,0,1,1,.25L39,137.88a.75.75,0,0,1-.25,1A.7.7,0,0,1,38.38,139Z"/><path class="cls-1" d="M34.87,133.24a.83.83,0,0,1-.22,0l-8.85-2.72a.75.75,0,1,1,.44-1.43l8.85,2.72a.75.75,0,0,1-.22,1.46Z"/><path class="cls-1" d="M30.37,125.84l-.16,0a.75.75,0,0,1-.57-.9L32,114.25a.75.75,0,1,1,1.46.33L31.1,125.25A.76.76,0,0,1,30.37,125.84Z"/><path class="cls-1" d="M25.29,117.48a.84.84,0,0,1-.34-.08l-6-3.05a.74.74,0,0,1-.33-1,.75.75,0,0,1,1-.33l6,3a.75.75,0,0,1-.34,1.42Z"/><path class="cls-1" d="M46.14,157.58l-.15,0-35.37-6.85a.75.75,0,1,1,.29-1.47l35.37,6.85a.75.75,0,0,1-.14,1.49Z"/><path class="cls-1" d="M47.91,159.11a.67.67,0,0,1-.31-.07.73.73,0,0,1-.37-1l14-30.54a.75.75,0,0,1,1-.37.75.75,0,0,1,.37,1l-14,30.53A.75.75,0,0,1,47.91,159.11Z"/><path class="cls-1" d="M29.7,164.22a.76.76,0,0,1-.64-.35.75.75,0,0,1,.23-1L41,155.36a.74.74,0,0,1,1,.22.76.76,0,0,1-.22,1L30.1,164.1A.77.77,0,0,1,29.7,164.22Z"/><path class="cls-1" d="M35.65,155.55a.75.75,0,0,1-.68-.44l-3.83-8.35a.75.75,0,0,1,1.36-.62l3.83,8.34a.76.76,0,0,1-.37,1A.87.87,0,0,1,35.65,155.55Z"/><path class="cls-1" d="M20.8,157.1a.75.75,0,0,1-.69-.45.76.76,0,0,1,.39-1L26.9,153a.75.75,0,0,1,1,.39.76.76,0,0,1-.4,1L21.09,157A.75.75,0,0,1,20.8,157.1Z"/><path class="cls-1" d="M50,154.56a.74.74,0,0,1-.68-.45.75.75,0,0,1,.39-1L61.65,148a.75.75,0,0,1,1,.39.74.74,0,0,1-.39,1l-12,5.16A.8.8,0,0,1,50,154.56Z"/><path class="cls-1" d="M52.81,148.42a.75.75,0,0,1-.74-.61L49.78,135.6a.77.77,0,0,1,.6-.88.76.76,0,0,1,.88.6l2.28,12.22a.75.75,0,0,1-.6.87Z"/><path class="cls-1" d="M56.47,140.42a.75.75,0,0,1-.22-1.46L63,136.83a.75.75,0,0,1,.94.49.76.76,0,0,1-.49.94l-6.78,2.13A.91.91,0,0,1,56.47,140.42Z"/><path class="cls-1" d="M170.48,158.31a.77.77,0,0,1-.36-.09.76.76,0,0,1-.29-1A176.14,176.14,0,0,0,183,127.86,206.37,206.37,0,0,0,189.11,105c1-4.25,2.07-9.07,3.54-15.14,2.45-10.07,5.1-20.12,7.87-29.9a.75.75,0,1,1,1.44.41c-2.77,9.76-5.41,19.8-7.85,29.84-1.48,6.07-2.57,10.88-3.54,15.13a207,207,0,0,1-6.15,23,178.68,178.68,0,0,1-13.28,29.58A.77.77,0,0,1,170.48,158.31Z"/><path class="cls-2" d="M225.57,38.27C220.11,54,208.12,64.09,200.76,61.54s-11.3-18.65-5.84-34.41S223.72.75,223.72.75,231,22.5,225.57,38.27Z"/><path class="cls-2" d="M225.44,97.32c-13.5,6.75-27.62,5.67-30.76-.63s4.48-19.21,18-25.95S248,71.89,248,71.89,238.94,90.58,225.44,97.32Z"/><path class="cls-2" d="M212.94,137c-12.54,6.14-25.59,5-28.45-.81s4.29-17.74,16.83-23.88S234,113.62,234,113.62,225.48,130.85,212.94,137Z"/><path class="cls-2" d="M165.34,83.11c7.2,12,18.78,18.22,24.39,14.86s6.07-17.27-1.12-29.28S160.42,52,160.42,52,158.14,71.09,165.34,83.11Z"/><path class="cls-2" d="M156.57,120.56c7.53,11.54,18.84,17.4,23.92,14.09s4.65-16.78-2.88-28.32S150,90.49,150,90.49,149,109,156.57,120.56Z"/><path class="cls-4" d="M228.26,42.49C222.91,58,210.4,67.55,202.45,64.8S189.79,46,195.15,30.51s30-25.25,30-25.25S233.62,27,228.26,42.49Z"/><path class="cls-4" d="M227.5,99.89c-13.5,6.74-27.61,5.66-30.76-.64s4.49-19.2,18-25.94S250,74.46,250,74.46,241,93.15,227.5,99.89Z"/><path class="cls-4" d="M214,139.28c-12.54,6.14-25.6,5.05-28.46-.81s4.29-17.73,16.83-23.87S235,115.92,235,115.92,226.55,133.14,214,139.28Z"/><path class="cls-4" d="M162.27,85c7.2,12,18.78,18.22,24.39,14.86s6.08-17.27-1.12-29.28-28.19-16.73-28.19-16.73S155.08,73,162.27,85Z"/><path class="cls-4" d="M153.41,121.71c7.54,11.54,18.84,17.4,23.92,14.09S182,119,174.45,107.48s-27.62-15.84-27.62-15.84S145.88,110.17,153.41,121.71Z"/><path class="cls-1" d="M203.2,62.69a8,8,0,0,1-2.68-.44c-3.85-1.33-6.92-6.12-8.22-12.82a44.4,44.4,0,0,1,1.92-22.55c2.88-8.33,10.68-15.18,16.71-19.46A84,84,0,0,1,223.41.07a.74.74,0,0,1,.6,0,.77.77,0,0,1,.42.45c.3.9,7.33,22.18,1.85,38h0C221.54,52.18,211.19,62.69,203.2,62.69ZM223.26,1.8c-4,2-22.89,11.89-27.63,25.57a43.52,43.52,0,0,0-1.86,21.78c1.19,6.16,3.9,10.53,7.24,11.69,6.72,2.33,18.35-6.94,23.85-22.82C229.59,24.38,224.49,5.87,223.26,1.8Zm2.31,36.47h0Z"/><path class="cls-1" d="M207.23,102.62c-6.3,0-11.37-1.89-13.22-5.6-1.66-3.32-.62-8.38,2.79-13.55a40.31,40.31,0,0,1,15.53-13.4c5.74-2.86,13.53-3.55,23.16-2a77.78,77.78,0,0,1,12.73,3.14.73.73,0,0,1,.44.42.76.76,0,0,1,0,.61c-.38.77-9.3,19-22.87,25.78h0A42.84,42.84,0,0,1,207.23,102.62Zm18.94-33.84A29.66,29.66,0,0,0,213,71.41a39.42,39.42,0,0,0-14.95,12.88c-3.11,4.72-4.12,9.23-2.7,12.06,3.41,6.84,18.79,5.78,29.75.3,11.58-5.78,20-20.78,21.8-24.32A72.31,72.31,0,0,0,226.17,68.78Zm-.73,28.54Z"/><path class="cls-1" d="M196.37,141.86c-.45,0-.88,0-1.32,0-5.61-.26-9.71-2.2-11.24-5.32s-.51-7.8,2.69-12.58A37.3,37.3,0,0,1,201,111.63c5.34-2.62,12.57-3.19,21.47-1.71a70,70,0,0,1,11.76,3,.75.75,0,0,1,.42,1c-.36.71-8.75,17.53-21.37,23.71A39.26,39.26,0,0,1,196.37,141.86Zm17.12-31.22A27.09,27.09,0,0,0,201.64,113a36.2,36.2,0,0,0-13.89,11.79c-2.9,4.32-3.87,8.47-2.59,11.08s5,4.25,10,4.48a36.87,36.87,0,0,0,17.49-4h0c10.68-5.23,18.49-18.91,20.29-22.28A67.05,67.05,0,0,0,213.49,110.64Z"/><path class="cls-1" d="M186.13,99.62A17.12,17.12,0,0,1,177.75,97,38.53,38.53,0,0,1,164.7,83.49h0c-7.25-12.09-5.12-30.82-5-31.62a.77.77,0,0,1,.31-.52.8.8,0,0,1,.6-.12,71.24,71.24,0,0,1,11.53,3.9c8.31,3.62,14.07,8,17.14,13.17,7.65,12.78,6.75,26.79.86,30.31A7.62,7.62,0,0,1,186.13,99.62Zm-25-46.72c-.33,3.81-1.23,19.59,4.9,29.82h0a37.1,37.1,0,0,0,12.53,12.94c4.31,2.52,8.36,3.15,10.83,1.67,5.18-3.11,5.73-16.4-1.38-28.26C181.82,58.81,165,53.92,161.08,52.9Z"/><path class="cls-1" d="M177,136.35c-6.22,0-15-6.14-21-15.38h0c-7.58-11.61-6.74-29.75-6.7-30.52a.75.75,0,0,1,.9-.69,67.63,67.63,0,0,1,11.12,3.64c8.06,3.4,13.77,7.61,17,12.52,8,12.28,8,25.86,2.67,29.36A7.07,7.07,0,0,1,177,136.35ZM150.71,91.43c-.07,3.83.11,19,6.48,28.72h0c6.1,9.34,17.43,17.44,22.89,13.87,2.24-1.47,3.35-5.35,2.95-10.39A37.59,37.59,0,0,0,177,106.74C170.59,97,154.63,92.42,150.71,91.43Z"/><path class="cls-1" d="M200.76,62.29a.58.58,0,0,1-.26,0,.74.74,0,0,1-.44-1L223,.48a.75.75,0,0,1,1.41.53l-23,60.8A.74.74,0,0,1,200.76,62.29Z"/><path class="cls-1" d="M204.61,52.1a.74.74,0,0,1-.66-.41.76.76,0,0,1,.31-1l13.21-6.92a.75.75,0,0,1,1,.32.75.75,0,0,1-.31,1L205,52A.73.73,0,0,1,204.61,52.1Z"/><path class="cls-1" d="M209.54,39a.75.75,0,0,1-.69-.45l-6.94-16.2a.75.75,0,0,1,1.38-.59L210.23,38a.75.75,0,0,1-.39,1A.8.8,0,0,1,209.54,39Z"/><path class="cls-1" d="M215.11,24.3a.77.77,0,0,1-.6-.3.75.75,0,0,1,.14-1.05l8.61-6.59a.75.75,0,1,1,.91,1.19l-8.61,6.59A.69.69,0,0,1,215.11,24.3Z"/><path class="cls-1" d="M194,94a.74.74,0,0,1-.7-.48.75.75,0,0,1,.42-1l54-21.33a.74.74,0,0,1,1,.42.75.75,0,0,1-.42,1l-54,21.33A.66.66,0,0,1,194,94Z"/><path class="cls-1" d="M191.63,96.93a.75.75,0,0,1-.62-.32L159.8,52.39a.76.76,0,0,1,.18-1,.75.75,0,0,1,1.05.18l31.21,44.22a.75.75,0,0,1-.18,1A.78.78,0,0,1,191.63,96.93Z"/><path class="cls-1" d="M181.8,134.17a.74.74,0,0,1-.6-.31L149.38,90.94a.76.76,0,0,1,.16-1,.75.75,0,0,1,1.05.15L182.4,133a.74.74,0,0,1-.16,1.05A.73.73,0,0,1,181.8,134.17Z"/><path class="cls-1" d="M184.49,136.93a.75.75,0,0,1-.31-1.43l49.47-22.56a.76.76,0,0,1,1,.37.75.75,0,0,1-.38,1L184.8,136.86A.7.7,0,0,1,184.49,136.93Z"/><path class="cls-1" d="M194,132.6h-.14a.74.74,0,0,1-.6-.87l3.1-17.13a.75.75,0,1,1,1.47.26L194.71,132A.74.74,0,0,1,194,132.6Z"/><path class="cls-1" d="M221,132h-.16l-16.35-3.48a.75.75,0,1,1,.31-1.46l16.35,3.47A.75.75,0,0,1,221,132Z"/><path class="cls-1" d="M216.21,122.46a.65.65,0,0,1-.27,0,.74.74,0,0,1-.42-1l3-7.54a.75.75,0,0,1,1-.42.74.74,0,0,1,.42,1l-3,7.54A.76.76,0,0,1,216.21,122.46Z"/><path class="cls-1" d="M222,99.62a.69.69,0,0,1-.28-.05L201,91.18a.74.74,0,1,1,.56-1.38l20.74,8.38a.75.75,0,0,1-.28,1.44Z"/><path class="cls-1" d="M210,87.65l-.18,0a.75.75,0,0,1-.54-.91l3.59-14.36a.75.75,0,0,1,1.45.37l-3.59,14.35A.75.75,0,0,1,210,87.65Z"/><path class="cls-1" d="M234,85.72l-.16,0-10.93-2.41a.75.75,0,1,1,.32-1.46l10.93,2.41a.75.75,0,0,1-.16,1.48Z"/><path class="cls-1" d="M187,90.34a.5.5,0,0,1-.17,0L166.36,85.7a.75.75,0,1,1,.33-1.46l20.45,4.62a.76.76,0,0,1,.57.9A.75.75,0,0,1,187,90.34Z"/><path class="cls-1" d="M180.7,81.45a.75.75,0,0,1-.75-.74v-20a.75.75,0,0,1,1.5,0v20A.74.74,0,0,1,180.7,81.45Z"/><path class="cls-1" d="M172.52,69.87h-.09L161.07,68.5a.75.75,0,0,1,.18-1.49l11.36,1.36a.75.75,0,0,1-.09,1.5Z"/><path class="cls-1" d="M177.63,128.54h-.11L160,126a.75.75,0,0,1,.21-1.49l17.55,2.56a.75.75,0,0,1-.1,1.49Z"/><path class="cls-1" d="M172.52,121.05h-.11a.76.76,0,0,1-.63-.86l1.93-12.82a.75.75,0,0,1,1.48.22l-1.92,12.83A.75.75,0,0,1,172.52,121.05Z"/><path class="cls-1" d="M163.75,109.81h-.14L155,108.22a.75.75,0,0,1-.6-.87.74.74,0,0,1,.87-.6l8.58,1.57a.75.75,0,0,1,.6.88A.74.74,0,0,1,163.75,109.81Z"/><path class="cls-2" d="M66.17,152.49h0c-.43-1.49-.8-2.67-.8-2.67a5,5,0,0,1-2.57-1.46,3.09,3.09,0,0,1-.66-1.73,11.46,11.46,0,0,0-3.58,1.64c-.68.61-.7,1-.62,1.17h0l-.7.59,8.24,9.76.54-.45s1.68.28,1.66-.89A46.14,46.14,0,0,0,66.17,152.49Z"/><path class="cls-4" d="M64.28,152.46h0c-.1-.91-.21-1.82-.31-2.72l-3.72-3.14h0a11.22,11.22,0,0,0-3.58,1.64c-.68.61-.7,1-.62,1.17h0l-.7.59,8.24,9.76.53-.45s1.68.28,1.67-.9A46.61,46.61,0,0,0,64.28,152.46Z"/><path class="cls-1" d="M65.47,160.53h-.06a.77.77,0,0,1-.51-.26l-8.24-9.76a.75.75,0,0,1,.09-1.06l.41-.35a2.39,2.39,0,0,1,.89-1.4,11.61,11.61,0,0,1,3.89-1.8.74.74,0,0,1,.94.77h0a2.48,2.48,0,0,0,.53,1.26,4.19,4.19,0,0,0,2.12,1.15.75.75,0,0,1,.55.51s.36,1.18.8,2.68h0c1.52,5.2,1.53,5.91,1.53,6.15a1.5,1.5,0,0,1-.53,1.22,2.4,2.4,0,0,1-1.64.46l-.3.24A.7.7,0,0,1,65.47,160.53Zm-7.18-10.42,7.27,8.62a.77.77,0,0,1,.57-.14,1.31,1.31,0,0,0,.79-.08h0a.12.12,0,0,0,0-.07,36.42,36.42,0,0,0-1.47-5.73h0l-.68-2.28a5.08,5.08,0,0,1-2.6-1.64,5,5,0,0,1-.61-1.2,8.29,8.29,0,0,0-2.51,1.24,2,2,0,0,0-.39.44.75.75,0,0,1-.3.79Zm.34-1Z"/><path class="cls-2" d="M108.37,152.22h0c-1.3-.88-2.35-1.57-2.35-1.57a4.78,4.78,0,0,1-2.9.6,3,3,0,0,1-1.62-.93,12.18,12.18,0,0,0-1.65,3.75c-.12,1,.11,1.26.29,1.36h0l-.15,1,12.61,2.11.11-.73s1.46-.92.69-1.85A48.49,48.49,0,0,0,108.37,152.22Z"/><path class="cls-4" d="M106.92,153.48h0l-2-1.94-4.87.05h0a12.25,12.25,0,0,0-1.64,3.75c-.12.95.11,1.25.29,1.35h0l-.15.95,12.61,2.11.11-.73s1.46-.92.69-1.85A48.49,48.49,0,0,0,106.92,153.48Z"/><path class="cls-1" d="M112.59,159.23h-.12L99.86,157.1a.75.75,0,0,1-.62-.85l.09-.58a2.56,2.56,0,0,1-.24-1.7,12.42,12.42,0,0,1,1.77-4.06.75.75,0,0,1,.61-.35.8.8,0,0,1,.62.32,2.63,2.63,0,0,0,1.22.64,4,4,0,0,0,2.34-.54.78.78,0,0,1,.78,0l2.35,1.58h0c4.54,3.08,5,3.64,5.17,3.82a1.59,1.59,0,0,1,.38,1.3,2.44,2.44,0,0,1-.94,1.45l-.07.42a.74.74,0,0,1-.74.64Zm-11.75-3.48L112,157.61a.77.77,0,0,1,.33-.49c.25-.16.54-.46.56-.63,0,0,0,0,0-.1s-.8-.8-4.86-3.55h0l-2-1.32a4.84,4.84,0,0,1-3,.46,4.63,4.63,0,0,1-1.23-.52,9.15,9.15,0,0,0-1.1,2.72,1.83,1.83,0,0,0,0,.66.74.74,0,0,1,.28.77Zm-.36-1Z"/><path class="cls-2" d="M82.13,88s16.33,28.86,17.13,31.16.4,32.13.4,32.13l7.23.13s5-29.53,4.58-30.58S99.8,88.3,99.8,88.3Z"/><path class="cls-3" d="M83.69,87.41s16.33,28.86,17.13,31.17.4,32.12.4,32.12l7.23.13s5-29.53,4.58-30.58-11.67-32.53-11.67-32.53Z"/><path class="cls-1" d="M106.89,152.15h0L99.64,152a.75.75,0,0,1-.73-.76c.15-11.48.2-30.28-.36-31.87-.64-1.84-12.54-23-17.07-31a.76.76,0,0,1,0-.76.77.77,0,0,1,.66-.36l17.67.31a.73.73,0,0,1,.69.49c3.89,10.89,11.33,31.69,11.66,32.51.42,1-2.23,17.41-4.53,31A.74.74,0,0,1,106.89,152.15Zm-6.47-1.61,5.84.11c1.85-10.93,4.59-28,4.49-29.62-.7-1.83-10-27.93-11.48-32l-15.84-.28c3.08,5.45,15.81,28,16.54,30.15S100.48,145.24,100.42,150.54Z"/><path class="cls-2" d="M128.36,62l1.69-.78a12.52,12.52,0,0,1,.28-1.74c.14-.42.65-1,.73-1.33a19,19,0,0,1,1.2-3c.23-.13.64.14.68.39s-.6,2.78-.6,2.78,4.18-5.07,4.46-5,.71.4.5.73-3.17,3.55-3,3.88,4.35-3,4.63-3a.61.61,0,0,1,.33.79c-.16.22-4,3.16-3.92,3.38s4.14-2,4.44-1.79a.67.67,0,0,1,.19.88c-.16.22-4.12,1.81-4.13,2.13s3.38-.45,3.53-.34a.53.53,0,0,1-.16.75c-.31.15-3.13.69-3.41.93a12.79,12.79,0,0,1-2.39,1.46c-.6.19-1.72,0-1.91.19l-2.12,1.83Z"/><path class="cls-1" d="M129.4,65.46h-.1a.39.39,0,0,1-.26-.24l-1-3.14a.36.36,0,0,1,.19-.45l1.5-.7a11.61,11.61,0,0,1,.27-1.6,4.07,4.07,0,0,1,.46-.83,2.87,2.87,0,0,0,.27-.48s1-2.95,1.38-3.2a.73.73,0,0,1,.69,0,1,1,0,0,1,.54.65,4.76,4.76,0,0,1-.23,1.36c3.33-4,3.54-3.95,3.78-3.92a1.12,1.12,0,0,1,.8.61.68.68,0,0,1,0,.69c-.07.11-.28.36-.72.87s-1,1.22-1.56,1.86c.52-.36,1.13-.8,1.58-1.13,1.72-1.26,1.87-1.33,2.1-1.3a1,1,0,0,1,.57,1.37A9.55,9.55,0,0,1,138.25,57c-.31.26-.74.6-1.14.94a.31.31,0,0,1,.1-.05c2.13-1,2.5-1.13,2.78-1a1,1,0,0,1,.44.63,1.07,1.07,0,0,1-.13.8c-.11.15-.32.26-1.7.89-.37.17-.85.38-1.28.59l.76-.12c1.21-.21,1.35-.22,1.52-.1a.7.7,0,0,1,.25.66.84.84,0,0,1-.46.73,8.79,8.79,0,0,1-1.37.37,14.3,14.3,0,0,0-2,.53,12.76,12.76,0,0,1-2.5,1.52,5,5,0,0,1-1.24.12,3,3,0,0,0-.59,0c-.13.13-2.07,1.79-2.07,1.79A.36.36,0,0,1,129.4,65.46Zm-.58-3.3.76,2.28c.58-.49,1.55-1.34,1.69-1.46s.53-.18,1-.18a4.45,4.45,0,0,0,1-.09,11.79,11.79,0,0,0,2.26-1.39,7.86,7.86,0,0,1,2.28-.67c.49-.12,1.1-.26,1.21-.31s0,0,0,0l-.88.14c-1.91.33-2.32.35-2.57.14a.52.52,0,0,1-.14-.33c0-.36.24-.53,2.8-1.69.58-.27,1.3-.6,1.44-.69,0,0,0-.08,0-.17a.19.19,0,0,0,0-.07c-.38.11-1.43.6-2.15.94-1.8.84-2,.93-2.28.83a.37.37,0,0,1-.22-.22c-.14-.34-.16-.4,2.76-2.76.53-.43,1.12-.91,1.21-1a.75.75,0,0,1-.07-.12c-.31.18-1,.69-1.57,1.1-2.24,1.65-2.73,1.94-3.07,1.87a.45.45,0,0,1-.28-.2c-.21-.36-.07-.71,2.32-3.49.3-.35.61-.71.66-.78a.52.52,0,0,0-.13-.12c-.57.51-2.75,3.07-4.22,4.86a.38.38,0,0,1-.46.1.38.38,0,0,1-.2-.43c.29-1.14.59-2.45.6-2.66l-.11-.06c-.26.5-.93,2.37-1,2.72a3,3,0,0,1-.36.67,3.67,3.67,0,0,0-.38.67,11.4,11.4,0,0,0-.25,1.65.38.38,0,0,1-.22.3Z"/><path class="cls-2" d="M96.09,59.17a16.4,16.4,0,0,0,4.45,9.88c5.33,5.46,12.72,4.74,13.89,4.61,3.53-.4,6.17-2,11.45-5.06a67.19,67.19,0,0,0,6.28-4.19l-2.33-4.51-14.5,7.39c-.54-.37-1.35-.94-2.33-1.67-2.27-1.68-2.61-2.12-4.07-3.21a23.84,23.84,0,0,0-6.25-3.63,18.54,18.54,0,0,0-3.84-1Z"/><path class="cls-4" d="M96.05,61.65a16.37,16.37,0,0,0,4.44,9.88c5.34,5.46,12.72,4.74,13.89,4.61,3.54-.4,6.18-2,11.45-5.06a66.25,66.25,0,0,0,6.29-4.19l-2.34-4.51-14.5,7.39c-.53-.37-1.35-1-2.32-1.67-2.27-1.68-2.61-2.12-4.07-3.21a24.18,24.18,0,0,0-6.25-3.63,18.86,18.86,0,0,0-3.84-1Z"/><path class="cls-1" d="M112.49,74.51A16.45,16.45,0,0,1,95.35,59.24a.74.74,0,0,1,.41-.74l2.75-1.37a.74.74,0,0,1,.44-.07,19.57,19.57,0,0,1,4,1,25,25,0,0,1,6.43,3.73c.65.48,1.08.84,1.55,1.23s1.25,1,2.52,2c.76.57,1.43,1,1.94,1.39l14.09-7.18a.76.76,0,0,1,1,.32l2.34,4.51a.76.76,0,0,1-.21,1,69.58,69.58,0,0,1-6.36,4.24c-5.36,3.15-8.05,4.74-11.75,5.16A18.84,18.84,0,0,1,112.49,74.51Zm-15.6-14.9a15.56,15.56,0,0,0,4.18,8.92c4.81,4.92,11.37,4.6,13.27,4.39,3.38-.39,6-1.92,11.16-5a67.84,67.84,0,0,0,5.71-3.77L129.5,60.9,115.67,68a.74.74,0,0,1-.77,0c-.54-.37-1.36-1-2.34-1.68-1.3-1-2-1.52-2.59-2-.45-.38-.87-.72-1.49-1.19a23.33,23.33,0,0,0-6.06-3.53A18.35,18.35,0,0,0,99,58.57Z"/><polygon class="cls-2" points="95.71 47.1 89.63 57.28 97.15 59.48 100.36 51.17 95.71 47.1"/><path class="cls-1" d="M97.15,60.23l-.21,0L89.42,58a.78.78,0,0,1-.49-.45.77.77,0,0,1,.06-.66l6.07-10.17a.76.76,0,0,1,.53-.36.72.72,0,0,1,.61.18l4.65,4.07a.75.75,0,0,1,.21.83l-3.21,8.31A.75.75,0,0,1,97.15,60.23Zm-6.38-3.4,5.93,1.74,2.77-7.18-3.58-3.13Z"/><path class="cls-2" d="M82.08,90.78l-9.71,29.38L60,146.92l6,2.75s15.56-23.74,17-26.37S98.55,94.09,98.55,94.09Z"/><path class="cls-3" d="M79.89,90.68l-9.47,28.86L58.3,145.79l6,2.76S79.6,125.28,81,122.7,96.33,94.05,96.33,94.05Z"/><path class="cls-1" d="M66,150.42a.7.7,0,0,1-.31-.07l-6-2.75a.71.71,0,0,1-.38-.42.71.71,0,0,1,0-.57l12.33-26.72,9.7-29.34a.75.75,0,0,1,.86-.5l16.47,3.3a.77.77,0,0,1,.53.42.75.75,0,0,1,0,.67c-.14.27-14.16,26.62-15.58,29.22s-16.38,25.45-17,26.42A.74.74,0,0,1,66,150.42Zm-5-3.87,4.7,2.17C68,145.17,81,125.3,82.32,122.94S94.94,99.27,97.41,94.62l-14.83-3-9.5,28.75,0,.08Zm11.36-26.39Z"/><path class="cls-2" d="M91.61,53.9a16.19,16.19,0,0,0-9,3.63c-4.94,4.27-5.35,10.86-5.77,19.55a84.27,84.27,0,0,0,2,22.65l17.48,1.82,8.4-1.57a39.47,39.47,0,0,1-2.26-11.37A60.28,60.28,0,0,1,103.79,75c1.63-9.49,3.64-12.17,1.42-14.44a62.79,62.79,0,0,0-6.65-4.84,4.09,4.09,0,0,1-4.27,1.2A4,4,0,0,1,91.61,53.9Z"/><path class="cls-4" d="M89.52,53a16.34,16.34,0,0,0-9,3.63c-4.93,4.27-5.34,10.87-5.76,19.56a84.33,84.33,0,0,0,2,22.65l17.48,1.82,8.4-1.58a39.34,39.34,0,0,1-2.27-11.36,61,61,0,0,1,1.28-13.62c1.64-9.48,3.65-12.17,1.42-14.43a63.4,63.4,0,0,0-6.64-4.85,4,4,0,0,1-7-1.82Z"/><path class="cls-1" d="M96.37,102.3h-.08l-17.48-1.82a.74.74,0,0,1-.65-.58,85.36,85.36,0,0,1-2-22.85c.39-8.33.74-15.52,6-20.09a16.7,16.7,0,0,1,9.4-3.81.75.75,0,0,1,.81.59A3.25,3.25,0,0,0,98,55.22a.74.74,0,0,1,1-.13A60.36,60.36,0,0,1,105.74,60c1.79,1.82,1.31,3.8.35,7.76-.46,1.89-1,4.24-1.56,7.33a59.5,59.5,0,0,0-1.27,13.45,38.35,38.35,0,0,0,2.22,11.15.75.75,0,0,1-.06.62.73.73,0,0,1-.51.36l-8.4,1.58ZM79.51,99l16.83,1.76,7.44-1.4a40,40,0,0,1-2-10.75,61.35,61.35,0,0,1,1.29-13.78c.54-3.14,1.12-5.51,1.58-7.42,1-4,1.19-5.19,0-6.36a53.11,53.11,0,0,0-6-4.42,4.73,4.73,0,0,1-7.59-2,14.88,14.88,0,0,0-8,3.38C78.54,62,78,67.89,77.6,77.12A83.69,83.69,0,0,0,79.51,99Z"/><path class="cls-1" d="M105.5,44c.57-.85,1-.77,1.43-1.36.62-.91.22-2.18,0-3a7.47,7.47,0,0,0-2.5-3.62c-2.44-1.85-6.61-1.58-10.33.8a5.75,5.75,0,0,0-4.2,2.43,4.89,4.89,0,0,0-.69,2.55,8.44,8.44,0,0,0,6.37,7.81,9,9,0,0,0,4.7-.41,16.9,16.9,0,0,0,2.88-1.47A2,2,0,0,0,104,47c.27-.46.53-.92.76-1.39C105.25,44.63,105.42,44.12,105.5,44Z"/><path class="cls-2" d="M94.49,49.3a6.16,6.16,0,1,0,.62-8.69A6.16,6.16,0,0,0,94.49,49.3Z"/><path class="cls-1" d="M99.15,52.16a6.91,6.91,0,0,1-5.23-2.37h0a6.94,6.94,0,1,1,5.23,2.37Zm-4.09-3.35a5.41,5.41,0,1,0,.54-7.63,5.42,5.42,0,0,0-.54,7.63Z"/><path class="cls-1" d="M93.76,45.28c.63-.1.37-2,1.64-3.42a2.31,2.31,0,0,1,.89-.7c.73-.3,1.15.11,2.43.26a8.88,8.88,0,0,0,3.55-.31,2.18,2.18,0,0,0,.81-.39.87.87,0,0,0,.31-.8,1,1,0,0,0-.2-.39,3.4,3.4,0,0,0-1.69-1.16,7.53,7.53,0,0,0-2-.35,13.35,13.35,0,0,0-3.94.23,7.22,7.22,0,0,0-3.46,1.8,2.75,2.75,0,0,0-.82,1.28,3.54,3.54,0,0,0-.08.92,4.56,4.56,0,0,0,.32,2,.75.75,0,0,0,.46.43,6.88,6.88,0,0,0,.77.13C93.37,45,93.47,45.33,93.76,45.28Z"/><path class="cls-2" d="M91.34,44.82a2,2,0,1,0,1.79-2.15A2,2,0,0,0,91.34,44.82Z"/><path class="cls-1" d="M101.27,43.24a.62.62,0,1,0,.61-.63A.61.61,0,0,0,101.27,43.24Z"/><path class="cls-1" d="M96.59,43.65a.63.63,0,0,0,1.25,0,.63.63,0,0,0-1.25,0Z"/><path class="cls-1" d="M99.88,46.75a.38.38,0,0,1-.12-.73,2.79,2.79,0,0,0,.8-.36l0,0a10.46,10.46,0,0,0-.77-1.25.38.38,0,1,1,.6-.45,10,10,0,0,1,.85,1.39.81.81,0,0,1,.08.2.75.75,0,0,1-.35.74,3.41,3.41,0,0,1-1,.47Zm.74-1.08h0Z"/><path class="cls-1" d="M97.27,47.14a.39.39,0,0,1,.52-.15,3.86,3.86,0,0,0,.57.3,5.34,5.34,0,0,0,.53.16.38.38,0,1,1-.19.74,4.23,4.23,0,0,1-1.28-.53A.39.39,0,0,1,97.27,47.14Z"/><g class="cls-5"><path class="cls-4" d="M98.16,45.34c0-.34-.85-.79-1.62-.55-.36.12-.82.43-.81.68s.69.48,1.21.45S98.14,45.63,98.16,45.34Z"/></g><g class="cls-5"><path class="cls-4" d="M104.13,44.63c0-.34-.85-.79-1.62-.54-.36.11-.82.42-.81.68s.69.47,1.21.44S104.11,44.92,104.13,44.63Z"/></g><path class="cls-2" d="M73.38,122.52a5.84,5.84,0,1,1-7.25-9.13l67.78-50.94,4.45,5.61Z"/><path class="cls-3" d="M71.08,121.32a5.84,5.84,0,1,1-7.25-9.13l67.78-50.95,4.45,5.62Z"/><path class="cls-1" d="M69.51,124.65a7.42,7.42,0,0,1-.94-.06,6.51,6.51,0,0,1-4.47-2.68,6.75,6.75,0,0,1,1.58-9.11l67.78-50.95a.74.74,0,0,1,1,.14L139,67.6a.75.75,0,0,1-.11,1l-65,54.46h0A6.87,6.87,0,0,1,69.51,124.65Zm64.26-61.16L66.58,114a5.24,5.24,0,0,0-1.25,7.06,5,5,0,0,0,3.45,2.06A5.37,5.37,0,0,0,72.9,122l64.42-54Zm-60.39,59h0Z"/><circle class="cls-2" cx="163.19" cy="43.78" r="37.96" transform="translate(-1.27 5.03) rotate(-1.76)"/><circle class="cls-3" cx="164.35" cy="45.67" r="37.96" transform="translate(7.27 112.16) rotate(-38.47)"/><path class="cls-1" d="M163.23,82.47a38.69,38.69,0,1,1,24-8.38h0A38.5,38.5,0,0,1,163.23,82.47Zm-.12-75.9a37.21,37.21,0,1,0,23.21,66.35h0A37.21,37.21,0,0,0,167.43,6.81,39.09,39.09,0,0,0,163.11,6.57Zm23.68,66.94h0Z"/><path class="cls-2" d="M190.89,61.92a31.89,31.89,0,0,1-4.21,5.19,33,33,0,0,1-2.91,2.6l-.63.49c-.76.58-1.54,1.12-2.33,1.62a33.07,33.07,0,0,1-8.53,3.8q-1.35.39-2.73.66a33.51,33.51,0,0,1-3.6.5,32.49,32.49,0,0,1-6.16-.07,33.11,33.11,0,0,1-25.57-49A33.28,33.28,0,0,1,140.16,20c.67-.64,1.37-1.26,2.1-1.85l.34-.28a33.14,33.14,0,0,1,7.65-4.56c.88-.37,1.77-.7,2.66-1a33.12,33.12,0,0,1,38,49.62Z"/><path class="cls-1" d="M163.2,77.64a33.86,33.86,0,0,1-26.09-55.47,32.94,32.94,0,0,1,2.54-2.73c.67-.66,1.39-1.29,2.13-1.89l.27-.22.08-.07A33.84,33.84,0,0,1,150,12.6c.87-.37,1.79-.71,2.72-1a35.65,35.65,0,0,1,4.66-1.16,33.85,33.85,0,0,1,29.87,57.22,34.14,34.14,0,0,1-3,2.66l-.65.5c-.76.57-1.56,1.13-2.39,1.65a33.79,33.79,0,0,1-8.72,3.9c-.91.26-1.85.48-2.78.66a34.39,34.39,0,0,1-3.69.51C165.08,77.6,164.14,77.64,163.2,77.64Zm0-66.22a32.07,32.07,0,0,0-5.55.48A31.6,31.6,0,0,0,153.14,13c-.88.29-1.76.62-2.59,1a32.49,32.49,0,0,0-7.49,4.45l-.08.07-.24.2c-.72.58-1.4,1.19-2.05,1.82a30,30,0,0,0-2.42,2.61,31.79,31.79,0,0,0-3.4,5,32.37,32.37,0,0,0,25,47.88,32,32,0,0,0,6,.06,31,31,0,0,0,3.52-.49c.9-.17,1.79-.39,2.66-.64a32,32,0,0,0,8.34-3.72c.78-.49,1.55-1,2.28-1.58l.62-.48a32.47,32.47,0,0,0,2.84-2.53,32.07,32.07,0,0,0,4.11-5.08h0a32.37,32.37,0,0,0-26.14-50.08Z"/><path class="cls-3" d="M162.36,28.1a4.78,4.78,0,0,1,4.55.53,10.75,10.75,0,0,1,2.57,2.88L172,35.17a4.62,4.62,0,0,1,1,2.39,4.57,4.57,0,0,1-1.19,2.69,5,5,0,0,1-2.72,2.24,11.71,11.71,0,0,1-1.78,0,13.89,13.89,0,0,0-3.36.88,4.07,4.07,0,0,1-3.37-.14,3.83,3.83,0,0,1-1.27-1.54,9.25,9.25,0,0,1-.88-5.9,9,9,0,0,1,1-2.89c.22-.4.51-.69.48-1.15a3.63,3.63,0,0,1,.23-1.39A4.1,4.1,0,0,1,162.36,28.1Z"/><path class="cls-1" d="M161,33a1,1,0,0,1,.32-.32c.43-.2.88.27,1,.73a4.19,4.19,0,0,0,.29,1.38,3.08,3.08,0,0,0,1,.79,4.68,4.68,0,0,1,1.11,1.11,4.06,4.06,0,0,1,.94,2.32,1.91,1.91,0,0,1-1.36,1.91,2.46,2.46,0,0,1-1.84-.6,5.5,5.5,0,0,1-1.71-1.88,3.52,3.52,0,0,1-.39-1.45,9.46,9.46,0,0,0,0-1.19A4,4,0,0,1,161,33Z"/><path class="cls-1" d="M164.17,30.17c.68-.39,1.49.22,2.05.79l2.12,2.16c1,1,2.1,2.32,1.83,3.74a1.39,1.39,0,0,0-.06.57c.07.37.47.57.68.89a1.2,1.2,0,0,1-.19,1.47,2.1,2.1,0,0,1-1.44.58,1.76,1.76,0,0,1-.85-.15c-.81-.41-.84-1.54-1.28-2.34s-1.32-1.25-1.93-1.94A6.93,6.93,0,0,1,164,34a4.82,4.82,0,0,1-.46-2C163.54,31.34,163.58,30.51,164.17,30.17Z"/><path class="cls-3" d="M142.4,38.7a6.8,6.8,0,0,1,5.17,6.7,13.33,13.33,0,0,1-1.58,5,4.59,4.59,0,0,1-1.33,1.92,3.28,3.28,0,0,1-3.59-.27,18.76,18.76,0,0,1-2.72-2.7,23.67,23.67,0,0,1-2.81-2.95,4.42,4.42,0,0,1-.8-2.67,4.65,4.65,0,0,1,.89-2.25,6.9,6.9,0,0,1,4-2.74A6.23,6.23,0,0,1,142.4,38.7Z"/><path class="cls-1" d="M139.07,43.86a1.77,1.77,0,0,1,2,0,4,4,0,0,1,.67.64A18.57,18.57,0,0,1,144,47.85a2,2,0,0,1,.31,1.71c-.31.67-1.18.81-1.91.79a3.8,3.8,0,0,1-1.76-.38,3.25,3.25,0,0,1-1.11-1.16,6.08,6.08,0,0,1-.83-2.14,5.32,5.32,0,0,0-.18-1.07,1.51,1.51,0,0,1,.52-1.74Z"/><path class="cls-3" d="M158.8,62.1a14.71,14.71,0,0,1-2.28,1.23,15.33,15.33,0,0,1-5.58,1.27,1.36,1.36,0,0,0-.24-.24c-.2-.17-.42-.31-.63-.47L150,63.8a4,4,0,0,1-1.13-1.1,2.87,2.87,0,0,1,.89-3.54,6.75,6.75,0,0,1,2.58-1.06,4.67,4.67,0,0,1,1.38-.21,4.52,4.52,0,0,1,.82.13l1.62.33a5.37,5.37,0,0,1,1.31.4A3.1,3.1,0,0,1,158.8,62.1Z"/><path class="cls-1" d="M156.51,61.46a13.5,13.5,0,0,1-5,1.14,1,1,0,0,0-.21-.21c-.18-.15-.37-.28-.56-.42l-.11-.08a1.66,1.66,0,0,1,.14-1,2.09,2.09,0,0,1,1.83-1c.72,0,1.44.16,2.16.2a2.27,2.27,0,0,1,1.42.34A1.11,1.11,0,0,1,156.51,61.46Z"/><path class="cls-4" d="M154.58,48.77a1.23,1.23,0,0,1,.57.76A3.08,3.08,0,0,1,155,52.2a1,1,0,0,1-.6.48.83.83,0,0,1-.8-.39,2.2,2.2,0,0,1-.31-.88c0-.31-.07-.62-.11-.94s-.06-.39-.07-.59a1.2,1.2,0,0,1,.65-1A.92.92,0,0,1,154.58,48.77Z"/><path class="cls-4" d="M143.05,62a.55.55,0,0,1,.74-.11,1.1,1.1,0,0,1,.44.68c.07.26.09.54.16.81a8.53,8.53,0,0,0,.36.88,1.75,1.75,0,0,1,.18.92.82.82,0,0,1-.54.71.84.84,0,0,1-.68-.15,2,2,0,0,1-.46-.55,6.23,6.23,0,0,1-.49-.92,1.28,1.28,0,0,1-.1-1c.1-.22.26-.35.27-.61A1.48,1.48,0,0,1,143.05,62Z"/><path class="cls-4" d="M176.43,44.15a1.62,1.62,0,0,0-.42.68,2.42,2.42,0,0,0,.09,1.22,2.51,2.51,0,0,0,.28.72,2.09,2.09,0,0,0,1.22.72,2.33,2.33,0,0,0,1.56,0,2.2,2.2,0,0,0,.83-.75,2.6,2.6,0,0,0,.51-1,1.92,1.92,0,0,0-.89-1.82,2.93,2.93,0,0,0-1.47-.43,1.73,1.73,0,0,0-1,.11A2.94,2.94,0,0,0,176.43,44.15Z"/><path class="cls-4" d="M182.42,61.36a.77.77,0,0,1,.71-.5.94.94,0,0,1,.47.25,1.13,1.13,0,0,1,.45.79.88.88,0,0,1-.42.7.94.94,0,0,1-.54.15.91.91,0,0,1-.5-.17.58.58,0,0,1-.21-.23,1,1,0,0,1-.06-.34A1.31,1.31,0,0,1,182.42,61.36Z"/><path class="cls-4" d="M180.62,33.6a17.79,17.79,0,0,0,1.89,1.09,5.25,5.25,0,0,1,1,.57,1.34,1.34,0,0,1,.51,1,1.22,1.22,0,0,1-1,1.13,2.22,2.22,0,0,1-1.56-.32c-1.1-.62-2.29-1.93-1.88-3.3C179.72,33.17,180.25,33.35,180.62,33.6Z"/><path class="cls-4" d="M183.54,27a1.44,1.44,0,0,1,.37.82,2.17,2.17,0,0,1-.27,1.46.92.92,0,0,1-.7.47,1.3,1.3,0,0,1-.87-.43,1.39,1.39,0,0,1-.53-.77,3.38,3.38,0,0,1,0-.45c0-.11,0-.23,0-.34a.83.83,0,0,1,.21-.49,1.77,1.77,0,0,1,.71-.44,1.15,1.15,0,0,1,1,.1Z"/><path class="cls-4" d="M188.52,33.11a5.84,5.84,0,0,1,1,1.74.9.9,0,0,1,.08.42.34.34,0,0,1-.26.31.49.49,0,0,1-.37-.14,3.07,3.07,0,0,1-1.05-1.07,2.26,2.26,0,0,1-.21-.77.76.76,0,0,1,.13-.62.34.34,0,0,1,.41-.11A.78.78,0,0,1,188.52,33.11Z"/><path class="cls-4" d="M188.51,39.16a1.61,1.61,0,0,1,1,1,1.05,1.05,0,0,1,0,.43,1,1,0,0,1-.43.63,1.88,1.88,0,0,1-1.76.24.91.91,0,0,1-.41-.28,1.15,1.15,0,0,1-.15-.73c0-.2,0-.41,0-.61,0-.43.55-.68.91-.75A1.6,1.6,0,0,1,188.51,39.16Z"/><path class="cls-4" d="M144.24,24.39a1,1,0,0,1,.49-.92,1.15,1.15,0,0,1,.61-.08,4.63,4.63,0,0,1,3,1.53,10.78,10.78,0,0,1,1.83,2.9,2.09,2.09,0,0,1,.24,1.77,1.44,1.44,0,0,1-1.77.55,4.14,4.14,0,0,1-1.56-1.27c-.5-.56-1-1.13-1.46-1.72a5.08,5.08,0,0,1-1.13-1.68A6,6,0,0,1,144.24,24.39Z"/><path class="cls-4" d="M137.63,32.4a1.74,1.74,0,0,0,2.33.13,2,2,0,0,0,.43-.72,2.33,2.33,0,0,0-1.27-3.07,1.83,1.83,0,0,0-2.18,1.66A2.32,2.32,0,0,0,137.63,32.4Z"/><path class="cls-4" d="M150.67,37.38a.69.69,0,0,1,.4-.08.62.62,0,0,1,.4.25,1.91,1.91,0,0,1,.23.45,6.62,6.62,0,0,1,.47,2,.72.72,0,0,1-.17.61.59.59,0,0,1-.37.13,1.47,1.47,0,0,1-1.24-.83,4.24,4.24,0,0,1-.38-1.27,1.12,1.12,0,0,1,0-.41.72.72,0,0,1,.17-.39A1.41,1.41,0,0,1,150.67,37.38Z"/><path class="cls-4" d="M159.74,14.23a1,1,0,0,1,.59.72,1.24,1.24,0,0,1-.49,1,3,3,0,0,1-1.47.74,2.52,2.52,0,0,1-.82.05.55.55,0,0,1-.4-.13,1.36,1.36,0,0,1-.21-.35,1.57,1.57,0,0,1-.12-1.2,1.45,1.45,0,0,1,.91-.8,3,3,0,0,1,1.82-.15Z"/><path class="cls-4" d="M154.2,20.45c.31,0,.57.23.81.42s.58.38.86.57a1.8,1.8,0,0,1,.68.77.88.88,0,0,1-.15,1,.93.93,0,0,1-1,.12,2.76,2.76,0,0,1-.8-.6,6.76,6.76,0,0,1-.94-1,.74.74,0,0,1,0-.9A.68.68,0,0,1,154.2,20.45Z"/><path class="cls-4" d="M163.59,19.67a1.62,1.62,0,0,1,.9,0c.16.06.33.2.32.38a.5.5,0,0,1-.1.24,1.66,1.66,0,0,1-1.39.85.46.46,0,0,1-.38-.26,3.38,3.38,0,0,1-.24-.41c-.11-.29.08-.52.33-.66A1.82,1.82,0,0,1,163.59,19.67Z"/><path class="cls-4" d="M170.8,15.27a2.3,2.3,0,0,1,.88,2.36,1.75,1.75,0,0,1-.41.8,2.33,2.33,0,0,1-2.05.38,3,3,0,0,1-1.57-.65,1.27,1.27,0,0,1-.28-1.57c.19-.27.49-.41.68-.67a5.91,5.91,0,0,1,.35-.52,1.89,1.89,0,0,1,1.5-.45A2,2,0,0,1,170.8,15.27Z"/><path class="cls-4" d="M171.14,27.44c0,.32-.13.7-.44.75a.61.61,0,0,1-.3,0,3.08,3.08,0,0,1-2.11-3.49,2.08,2.08,0,0,1,.54-1.11c.26-.24.64-.44.93-.14a2.33,2.33,0,0,1,.36.56c.12.2.23.41.34.62a7.48,7.48,0,0,1,.5,1.32A5.19,5.19,0,0,1,171.14,27.44Z"/><path class="cls-4" d="M156.62,29.79a1,1,0,0,1,.11.46,3.51,3.51,0,0,1-.41,1.71c0,.06-.07.13-.13.16-.42.21-.8-1-.85-1.26a1.4,1.4,0,0,1,.59-1.25A.58.58,0,0,1,156.62,29.79Z"/><path class="cls-4" d="M177,22.7a.62.62,0,0,1,.78.06.91.91,0,0,1,.17.42,2.27,2.27,0,0,1-.1,1.74,1,1,0,0,1-.46.38c-.52.19-.83-.33-1-.76a2.1,2.1,0,0,1,.13-1.16A1.15,1.15,0,0,1,177,22.7Z"/><path class="cls-4" d="M176.31,30a1.16,1.16,0,0,1,1.42.34,1.49,1.49,0,0,1,0,1.24,2.59,2.59,0,0,1-1.26,1.56.81.81,0,0,1-.59.07c-.26-.1-.4-.39-.53-.62a3.16,3.16,0,0,1-.36-.71c-.13-.49.27-1,.57-1.33A2,2,0,0,1,176.31,30Z"/><path class="cls-4" d="M186.1,49.18a1,1,0,0,1,1,.08,1.33,1.33,0,0,1,.33,1.13,4.52,4.52,0,0,1-.12.75,1.16,1.16,0,0,1-.41.72.94.94,0,0,1-.49.12,1.17,1.17,0,0,1-.65-.21,1.87,1.87,0,0,1-.55-1.12,1.18,1.18,0,0,1,.28-1A1.41,1.41,0,0,1,186.1,49.18Z"/><path class="cls-2" d="M104.27,83l1.87,0a11.67,11.67,0,0,1,.94-1.48c.3-.33,1-.69,1.2-.93a18.5,18.5,0,0,1,2.29-2.24c.26,0,.52.38.46.62a28,28,0,0,1-1.66,2.32s5.86-3,6.1-2.84.5.65.16.87-4.32,2-4.27,2.37,5.21-1.06,5.45-.91a.61.61,0,0,1,0,.85c-.23.14-4.93,1.3-4.94,1.54s4.58-.14,4.79.13a.7.7,0,0,1-.18.89c-.24.14-4.5,0-4.64.3s3.28.93,3.37,1.09-.1.6-.45.62-3.14-.61-3.49-.5a12.2,12.2,0,0,1-2.78.38c-.63-.06-1.58-.67-1.82-.58l-2.68.83Z"/><path class="cls-1" d="M104,86.75a.47.47,0,0,1-.31-.12.5.5,0,0,1-.19-.43l.3-3.28a.51.51,0,0,1,.49-.46l1.58,0a9.87,9.87,0,0,1,.87-1.33,4.37,4.37,0,0,1,.77-.6,3.27,3.27,0,0,0,.42-.31s2-2.36,2.62-2.42a.86.86,0,0,1,.73.32,1.07,1.07,0,0,1,.27.92,2.77,2.77,0,0,1-.47.79c4.25-2.13,4.43-2,4.69-1.85a1.24,1.24,0,0,1,.55,1,.85.85,0,0,1-.38.73c-.11.07-.39.21-1,.51l-1.36.66,1-.22c2.1-.47,2.29-.49,2.54-.33a1,1,0,0,1,.41.85,1,1,0,0,1-.43.85,11.27,11.27,0,0,1-1.71.52l-.46.12c1.68,0,2,0,2.16.3a1.07,1.07,0,0,1,.17.85,1.14,1.14,0,0,1-.5.77c-.18.11-.39.12-2,.15h-.49c1.06.26,1.23.31,1.37.54a.88.88,0,0,1,0,.83,1,1,0,0,1-.82.55,9,9,0,0,1-1.43-.21,17.67,17.67,0,0,0-2-.3,13.25,13.25,0,0,1-2.93.39,4.26,4.26,0,0,1-1.22-.4l-.47-.18-2.61.8A.4.4,0,0,1,104,86.75Zm2.84-.86Zm7.91-.27h0Zm-10-2.17-.19,2.1,1.95-.61c.3-.1.62,0,1.1.24a4,4,0,0,0,.93.33,13.8,13.8,0,0,0,2.58-.37,3.08,3.08,0,0,1,1.17.06c-.61-.19-.8-.32-.9-.54a.64.64,0,0,1,0-.47c.19-.4.57-.46,3.36-.5.55,0,1.22,0,1.48,0v0c-.46,0-1.48,0-2.2,0-2.06.06-2.29,0-2.52-.18a.61.61,0,0,1-.15-.38c0-.48.12-.55,3.73-1.55l.3-.08-.63.14c-2.78.62-3.33.7-3.66.46a.59.59,0,0,1-.23-.38c-.06-.49.24-.77,3.2-2.21-1.18.55-2.88,1.39-4.46,2.19a.5.5,0,0,1-.62-.75c.48-.62,1-1.33,1.32-1.78-.57.56-1.45,1.5-1.63,1.72a3.64,3.64,0,0,1-.63.49,3.2,3.2,0,0,0-.59.45,11.2,11.2,0,0,0-.88,1.38.48.48,0,0,1-.42.26Z"/><path class="cls-2" d="M84,56.5c-1.69-.27-3.48,1.93-3.62,2.1a6.28,6.28,0,0,0-1,1.87A14.68,14.68,0,0,0,78,66c-.07,2,.3,4.38,3.23,10.52,2.37,4.93,3.55,7.4,4.39,8.12,5.23,4.46,27.42.83,20.57,1.34h0c0-1.4.07-2.81.1-4.22L91.11,80c-.6-4-2.22-14-4.44-20.07C86.21,58.66,85.41,56.73,84,56.5Z"/><path class="cls-4" d="M82.59,58.17c-1.69-.28-3.48,1.93-3.62,2.1a6.28,6.28,0,0,0-1,1.87,14.68,14.68,0,0,0-1.31,5.53c-.07,2,.3,4.38,3.23,10.51,3.06,6.39,3.38,7.37,4.39,8.13s2.49,1.51,7.42,1.87a58.42,58.42,0,0,0,13.15-.53c0-1.41.07-2.81.1-4.22l-15.2-1.77c-.6-4-2.22-14-4.44-20.07C84.82,60.32,84,58.4,82.59,58.17Z"/><path class="cls-1" d="M97.24,87.42c-1.4,0-2.78,0-4.16-.15-5.29-.39-6.85-1.25-7.89-2s-1.32-1.48-3.34-5.74c-.37-.76-.79-1.64-1.27-2.66-2.87-6-3.39-8.53-3.31-10.86a15.39,15.39,0,0,1,1.38-5.81,6.75,6.75,0,0,1,1.12-2c.37-.46,2.28-2.71,4.33-2.38h0c2,.31,2.88,2.83,3.27,3.9,2,5.52,3.6,14.45,4.4,19.65L106.4,81a.74.74,0,0,1,.66.76L107,86a.76.76,0,0,1-.64.73A60.75,60.75,0,0,1,97.24,87.42ZM83.68,57.22c-1,0-2.31,1.31-2.73,1.85A5.53,5.53,0,0,0,80,60.72,14.12,14.12,0,0,0,78.77,66c-.06,1.75.13,3.84,3.16,10.16.49,1,.91,1.9,1.27,2.67,1.91,4,2.24,4.7,2.88,5.18.94.7,2.45,1.39,7.11,1.74a58.43,58.43,0,0,0,12.29-.44l.07-2.91L91,80.74a.75.75,0,0,1-.65-.64c-.76-5-2.34-14.32-4.4-19.92-.28-.76-1-2.77-2.11-2.94h0Z"/><path class="cls-2" d="M222.08,86.37c-5,12.24-12,21-15.63,19.49S204,93.25,209,81s12-21,15.64-19.49S227.11,74.12,222.08,86.37Z"/><path class="cls-2" d="M235.91,91.71c-8.47,10.18-17.76,16.4-20.76,13.9s1.43-12.76,9.9-22.94,17.77-16.4,20.76-13.9S244.38,81.54,235.91,91.71Z"/><path class="cls-3" d="M219.74,85.4c-5,12.25-12,21-15.64,19.5S201.64,92.29,206.67,80s12-21,15.64-19.49S224.77,73.16,219.74,85.4Z"/><ellipse class="cls-3" cx="227.96" cy="85.09" rx="23.97" ry="7.06" transform="translate(16.72 205.86) rotate(-50.23)"/><path class="cls-1" d="M207.31,106.77a3,3,0,0,1-1.15-.22c-2.11-.87-2.94-4-2.41-9.16a63,63,0,0,1,4.57-16.67,63.16,63.16,0,0,1,8.46-15.08c3.22-4,6-5.69,8.15-4.82,4.7,1.92,2.4,14.74-2.15,25.83h0a63.36,63.36,0,0,1-8.46,15.08C211.65,105.06,209.25,106.77,207.31,106.77Zm16.47-44.68c-1.41,0-3.53,1.61-5.83,4.49a61.6,61.6,0,0,0-8.24,14.7,61.41,61.41,0,0,0-4.47,16.26c-.44,4.21.12,7.06,1.49,7.62s3.77-1.07,6.42-4.37a61.68,61.68,0,0,0,8.24-14.71c5.2-12.66,5.74-22.74,3-23.88A1.54,1.54,0,0,0,223.78,62.09Zm-1.7,24.28h0Z"/><path class="cls-1" d="M216.88,106.92a3.31,3.31,0,0,1-2.21-.73c-3.9-3.25,2.14-14.79,9.8-24s17.92-17.24,21.82-14-2.14,14.79-9.8,24h0A63.64,63.64,0,0,1,223.89,104C221,106,218.67,106.92,216.88,106.92Zm27.17-38c-3.38,0-10.87,5.11-18.42,14.19-8.76,10.52-12.3,20-10,21.89,1.13.95,3.91.11,7.43-2.25a61.88,61.88,0,0,0,12.27-11.56h0c8.76-10.52,12.3-20,10-21.89A2,2,0,0,0,244.05,69Z"/><circle class="cls-2" cx="275.19" cy="124.4" r="9.1"/><circle class="cls-3" cx="275.19" cy="120.63" r="9.1"/><path class="cls-1" d="M275.19,134.25A9.85,9.85,0,1,1,285,124.4,9.86,9.86,0,0,1,275.19,134.25Zm0-18.2a8.35,8.35,0,1,0,8.35,8.35A8.36,8.36,0,0,0,275.19,116.05Z"/><path class="cls-2" d="M275,139.31c.73,8.87-3.39,15.88-5.45,18.89l-49.83-.89c-2.42-2.78-7.4-9.35-7.24-18,.25-14.54,14.92-28.11,31.26-28.1S273.83,124.74,275,139.31Z"/><path class="cls-3" d="M272.65,143c.72,8.87-3.4,15.87-5.45,18.89L217.37,161c-2.42-2.78-7.4-9.35-7.25-18,.26-14.54,14.93-28.11,31.26-28.11S271.46,128.43,272.65,143Z"/><path class="cls-1" d="M269.57,159h0l-49.83-.89a.71.71,0,0,1-.55-.26c-3.47-4-7.58-10.43-7.43-18.5.26-15.1,15.51-28.84,32-28.84h0c16.08,0,30.74,13.19,32,28.79h0c.68,8.26-2.66,15.1-5.58,19.37A.74.74,0,0,1,269.57,159Zm-49.48-2.38,49.09.87c2.72-4.09,5.72-10.45,5.1-18.06C273.06,124.52,259.09,112,243.76,112h0c-15.71,0-30.24,13-30.5,27.37C213.11,146.76,216.84,152.77,220.09,156.57Z"/><circle class="cls-2" cx="212.5" cy="117.23" r="18.97"/><circle class="cls-3" cx="208.31" cy="117.23" r="18.97"/><path class="cls-1" d="M212.5,137a19.72,19.72,0,1,1,19.72-19.72A19.75,19.75,0,0,1,212.5,137Zm0-37.94a18.22,18.22,0,1,0,18.22,18.22A18.24,18.24,0,0,0,212.5,99Z"/><path class="cls-1" d="M198.93,114.53l.51.12a24.13,24.13,0,0,1,7.95,1.66l.63.1a.68.68,0,0,1,.47.84.69.69,0,0,1-.84.48l-1.41-.24h0a5.91,5.91,0,0,0-2.18.1,2.07,2.07,0,0,0-1,.69,7.89,7.89,0,0,0,1.42,5.64.71.71,0,0,1,0,1,.69.69,0,0,1-1,0,8.4,8.4,0,0,1-1.76-4,13.32,13.32,0,0,1,0-3,1.49,1.49,0,0,0,0-.18,1.43,1.43,0,0,0-.12-.31,2.32,2.32,0,0,0-.43-.56,4.28,4.28,0,0,0-.86-.6c-.56-.13-1.12-.25-1.67-.4A.68.68,0,0,1,198.93,114.53Z"/><path class="cls-1" d="M207.36,109.08l.7-1.83a.69.69,0,0,1,.31-.4.68.68,0,0,1,1,.77l-.7,1.82a.68.68,0,0,1-.31.41.7.7,0,0,1-.53.07.65.65,0,0,1-.4-.31A.63.63,0,0,1,207.36,109.08Z"/><path class="cls-1" d="M202.29,107.9l.7-1.83a.69.69,0,0,1,.31-.4.66.66,0,0,1,.53-.07.68.68,0,0,1,.48.84c-.24.61-.47,1.21-.7,1.82a.73.73,0,0,1-.32.41.68.68,0,0,1-.93-.24A.71.71,0,0,1,202.29,107.9Z"/><path class="cls-2" d="M225.57,38.27C220.11,54,208.12,64.09,200.76,61.54s-11.3-18.65-5.84-34.41S223.72.75,223.72.75,231,22.5,225.57,38.27Z"/><path class="cls-2" d="M165.34,83.11c7.2,12,18.78,18.22,24.39,14.86s6.07-17.27-1.12-29.28S160.42,52,160.42,52,158.14,71.09,165.34,83.11Z"/><path class="cls-4" d="M228.26,42.49C222.91,58,210.4,67.55,202.45,64.8S189.79,46,195.15,30.51s30-25.25,30-25.25S233.62,27,228.26,42.49Z"/><path class="cls-4" d="M162.27,85c7.2,12,18.78,18.22,24.39,14.86s6.08-17.27-1.12-29.28-28.19-16.73-28.19-16.73S155.08,73,162.27,85Z"/><path class="cls-1" d="M203.2,62.69a8,8,0,0,1-2.68-.44c-3.85-1.33-6.92-6.12-8.22-12.82a44.4,44.4,0,0,1,1.92-22.55c2.88-8.33,10.68-15.18,16.71-19.46A84,84,0,0,1,223.41.07a.74.74,0,0,1,.6,0,.77.77,0,0,1,.42.45c.3.9,7.33,22.18,1.85,38h0C221.54,52.18,211.19,62.69,203.2,62.69ZM223.26,1.8c-4,2-22.89,11.89-27.63,25.57a43.52,43.52,0,0,0-1.86,21.78c1.19,6.16,3.9,10.53,7.24,11.69,6.72,2.33,18.35-6.94,23.85-22.82C229.59,24.38,224.49,5.87,223.26,1.8Zm2.31,36.47h0Z"/><path class="cls-1" d="M186.13,99.62A17.12,17.12,0,0,1,177.75,97,38.53,38.53,0,0,1,164.7,83.49h0c-7.25-12.09-5.12-30.82-5-31.62a.77.77,0,0,1,.31-.52.8.8,0,0,1,.6-.12,71.24,71.24,0,0,1,11.53,3.9c8.31,3.62,14.07,8,17.14,13.17,7.65,12.78,6.75,26.79.86,30.31A7.62,7.62,0,0,1,186.13,99.62Zm-25-46.72c-.33,3.81-1.23,19.59,4.9,29.82h0a37.1,37.1,0,0,0,12.53,12.94c4.31,2.52,8.36,3.15,10.83,1.67,5.18-3.11,5.73-16.4-1.38-28.26C181.82,58.81,165,53.92,161.08,52.9Z"/><path class="cls-1" d="M200.76,62.29a.58.58,0,0,1-.26,0,.74.74,0,0,1-.44-1L223,.48a.75.75,0,0,1,1.41.53l-23,60.8A.74.74,0,0,1,200.76,62.29Z"/><path class="cls-1" d="M204.61,52.1a.74.74,0,0,1-.66-.41.76.76,0,0,1,.31-1l13.21-6.92a.75.75,0,0,1,1,.32.75.75,0,0,1-.31,1L205,52A.73.73,0,0,1,204.61,52.1Z"/><path class="cls-1" d="M209.54,39a.75.75,0,0,1-.69-.45l-6.94-16.2a.75.75,0,0,1,1.38-.59L210.23,38a.75.75,0,0,1-.39,1A.8.8,0,0,1,209.54,39Z"/><path class="cls-1" d="M215.11,24.3a.77.77,0,0,1-.6-.3.75.75,0,0,1,.14-1.05l8.61-6.59a.75.75,0,1,1,.91,1.19l-8.61,6.59A.69.69,0,0,1,215.11,24.3Z"/><path class="cls-1" d="M191.63,96.93a.75.75,0,0,1-.62-.32L159.8,52.39a.76.76,0,0,1,.18-1,.75.75,0,0,1,1.05.18l31.21,44.22a.75.75,0,0,1-.18,1A.78.78,0,0,1,191.63,96.93Z"/><path class="cls-1" d="M187,90.34a.5.5,0,0,1-.17,0L166.36,85.7a.75.75,0,1,1,.33-1.46l20.45,4.62a.76.76,0,0,1,.57.9A.75.75,0,0,1,187,90.34Z"/><path class="cls-1" d="M180.7,81.45a.75.75,0,0,1-.75-.74v-20a.75.75,0,0,1,1.5,0v20A.74.74,0,0,1,180.7,81.45Z"/><path class="cls-1" d="M172.52,69.87h-.09L161.07,68.5a.75.75,0,0,1,.18-1.49l11.36,1.36a.75.75,0,0,1-.09,1.5Z"/><path class="cls-2" d="M114.81,137.66c3-1.11,9.19,3.34,11.76,5.19a42.69,42.69,0,0,1,13,14.86,79.57,79.57,0,0,1-5.3-17.47c-.75-4.22-.83-9.08,3.53-12a4.25,4.25,0,0,1,2.19-.82c2-.06,3,1.61,3.36,3a79.35,79.35,0,0,1,3.23,26.87c.18-6,3-12,8-16.85a4.65,4.65,0,0,1,3.68-1.63,3.3,3.3,0,0,1,2.64,2.34c2,5.61-.84,11.45-3.69,16.88,1.07-4.95,6.66-9.27,13.57-10.48a4.31,4.31,0,0,1,2.26.05,2.28,2.28,0,0,1,1.12,1.16c.85,2-4.89,13-5.35,13.89H129.49a37.49,37.49,0,0,1-8.13-5.4c-5.44-4.81-6.94-9.41-7.27-10.52C113.64,145.19,111.73,138.81,114.81,137.66Z"/><path class="cls-3" d="M119.09,138.15c3-1.17,9.19,3.49,11.76,5.42a44.12,44.12,0,0,1,13,15.56,85.65,85.65,0,0,1-5.3-18.29c-.75-4.42-.83-9.51,3.53-12.59a4,4,0,0,1,2.19-.86c2-.06,3,1.68,3.35,3.09a86.45,86.45,0,0,1,3.24,28.13c.18-6.29,3-12.53,8-17.65a4.59,4.59,0,0,1,3.68-1.7,3.37,3.37,0,0,1,2.64,2.46c2,5.86-.84,12-3.69,17.66,1.06-5.18,6.65-9.7,13.57-11a4,4,0,0,1,2.26.06,2.31,2.31,0,0,1,1.11,1.21c.85,2.09-4.88,13.63-5.34,14.54H133.76a37.44,37.44,0,0,1-8.12-5.66c-5.44-5-6.94-9.84-7.28-11C117.92,146,116,139.34,119.09,138.15Z"/><path class="cls-1" d="M168.84,163.32H129.49a.68.68,0,0,1-.34-.08,38.57,38.57,0,0,1-8.29-5.51c-5.2-4.6-7-9.13-7.49-10.86-2.12-7-.53-9.28,1.18-9.91h0c3-1.1,8,2,12.46,5.28a44.69,44.69,0,0,1,9.3,8.94,76.15,76.15,0,0,1-2.75-10.81c-.7-3.9-1.06-9.47,3.84-12.78a4.79,4.79,0,0,1,2.59-.94c1.92-.08,3.43,1.24,4.09,3.48a80.27,80.27,0,0,1,3.31,19.62,28.39,28.39,0,0,1,6.69-9.93,5.3,5.3,0,0,1,4.3-1.83,4,4,0,0,1,3.25,2.83,14.78,14.78,0,0,1-.27,9.91,21.33,21.33,0,0,1,9.32-4,4.86,4.86,0,0,1,2.67.1,3,3,0,0,1,1.53,1.56c.87,2.05-3,10-5.37,14.53A.75.75,0,0,1,168.84,163.32Zm-39.18-1.5h38.73c3.27-6.3,5.5-11.9,5.11-12.85a1.58,1.58,0,0,0-.72-.76,3.69,3.69,0,0,0-1.84,0A18.33,18.33,0,0,0,160,154c-.68,1.49-1.43,2.91-2.13,4.25a.75.75,0,0,1-1.4-.5,11,11,0,0,1,2.17-4.44c1.92-4.24,2.94-8.19,1.54-12a2.56,2.56,0,0,0-2-1.86,3.88,3.88,0,0,0-3.07,1.42c-4.64,4.54-7.37,10.05-7.75,15.6l0,.76a.75.75,0,0,1-1.5-.06c0-.26,0-.52,0-.78a78.29,78.29,0,0,0-3.24-25.85c-.22-.74-.9-2.42-2.54-2.42H140a3.46,3.46,0,0,0-1.79.69c-4.13,2.79-3.89,7.49-3.21,11.28a78.74,78.74,0,0,0,5.25,17.3.75.75,0,0,1-1.35.65,41.61,41.61,0,0,0-12.8-14.6c-2.08-1.5-8.43-6.07-11-5.09h0c-1.55.57-1.65,3.51-.28,8.07.49,1.61,2.14,5.82,7,10.17A37,37,0,0,0,129.66,161.82Z"/><path class="cls-2" d="M277.09,145.24c-2.46-.74-7.51,2.23-9.61,3.46a31.28,31.28,0,0,0-10.63,9.91A45.86,45.86,0,0,0,261.17,147c.62-2.82.69-6.06-2.88-8a4,4,0,0,0-1.79-.54,2.78,2.78,0,0,0-2.74,2,43.83,43.83,0,0,0-2.64,17.92c-.15-4-2.46-8-6.54-11.24a4.22,4.22,0,0,0-3-1.09,2.53,2.53,0,0,0-2.15,1.57c-1.68,3.73.68,7.63,3,11.25-.87-3.3-5.44-6.18-11.09-7a4.06,4.06,0,0,0-1.84,0,1.71,1.71,0,0,0-.91.77c-.7,1.33,4,8.68,4.36,9.27H265.1a32.7,32.7,0,0,0,6.64-3.61c4.44-3.21,5.67-6.27,5.94-7C278,150.26,279.61,146,277.09,145.24Z"/><path class="cls-4" d="M273.59,145.73c-2.46-.8-7.5,2.38-9.6,3.7a32.29,32.29,0,0,0-10.64,10.62,52,52,0,0,0,4.33-12.48c.62-3,.68-6.49-2.88-8.6a3.8,3.8,0,0,0-1.79-.58,2.82,2.82,0,0,0-2.74,2.11,49.64,49.64,0,0,0-2.64,19.19c-.15-4.29-2.46-8.55-6.55-12a4.08,4.08,0,0,0-3-1.16,2.6,2.6,0,0,0-2.16,1.67c-1.67,4,.69,8.18,3,12.06-.87-3.54-5.43-6.62-11.08-7.49a4,4,0,0,0-1.85,0,1.76,1.76,0,0,0-.91.83c-.69,1.42,4,9.3,4.37,9.92h32.15a31.82,31.82,0,0,0,6.64-3.86c4.44-3.43,5.66-6.72,5.94-7.51C274.55,151.1,276.11,146.55,273.59,145.73Z"/><path class="cls-1" d="M265.1,162.6H233a.75.75,0,0,1-.63-.34c-3.52-5.49-5-8.86-4.4-10a2.48,2.48,0,0,1,1.34-1.13,4.78,4.78,0,0,1,2.19-.07,19.86,19.86,0,0,1,7.3,2.48,8.26,8.26,0,0,1,0-6.31,3.28,3.28,0,0,1,2.77-2,4.89,4.89,0,0,1,3.55,1.24,19.84,19.84,0,0,1,5.32,6.28,45.08,45.08,0,0,1,2.69-12.63,3.5,3.5,0,0,1,3.46-2.46,4.65,4.65,0,0,1,2.13.64c4.15,2.29,3.85,6.14,3.25,8.84a43.7,43.7,0,0,1-1.92,6.4,35.14,35.14,0,0,1,7.12-5.47c3.67-2.16,7.76-4.27,10.2-3.53h0a2.58,2.58,0,0,1,1.58,1.32c.61,1.23.45,3.08-.49,5.65-.55,1.47-2.07,4.38-6.21,7.37a32.92,32.92,0,0,1-6.8,3.69A.66.66,0,0,1,265.1,162.6Zm-31.74-1.49H265a31.29,31.29,0,0,0,6.35-3.47c4-2.86,5.29-5.61,5.68-6.66,1-2.8.79-4,.56-4.47a1,1,0,0,0-.67-.55h0c-2.15-.65-7.31,2.39-9,3.39A30.16,30.16,0,0,0,257.48,159a.75.75,0,0,1-1.3-.76,45.31,45.31,0,0,0,4.26-11.46c.8-3.64.05-5.8-2.51-7.21a3,3,0,0,0-1.45-.45,2,2,0,0,0-2,1.47,43,43,0,0,0-2.63,17.11l0,.53a.75.75,0,0,1-.71.78.78.78,0,0,1-.79-.7l0-.5c-.3-3.62-2.5-7.23-6.23-10.21a3.4,3.4,0,0,0-2.47-.92,1.79,1.79,0,0,0-1.54,1.12c-1.09,2.43-.27,5,1.25,7.72a7.14,7.14,0,0,1,1.8,3,.75.75,0,0,1-.42.87.73.73,0,0,1-.93-.28c-.55-.85-1.15-1.78-1.7-2.76a16.22,16.22,0,0,0-8.86-3.89,3.59,3.59,0,0,0-1.5,0,1,1,0,0,0-.49.4C229.11,153.64,230.89,157.21,233.36,161.11Z"/></g></g></svg>