<svg xmlns="http://www.w3.org/2000/svg" viewBox="0 0 287.07 172.49"><defs><style>.cls-1{fill:#49194f;}.cls-2{fill:#fff;}.cls-3{fill:#c7a6cc;}.cls-4{fill:#d0ecfe;}.cls-5{fill:#f0a74d;}.cls-6{opacity:0.49;}.cls-7{fill:#174172;}</style></defs><g id="Layer_2" data-name="Layer 2"><g id="_1" data-name="1"><rect class="cls-1" y="159.33" width="287.07" height="13.17"/><path class="cls-2" d="M182.43,66.68s1-.79,1.15-1.24a9.22,9.22,0,0,1,1.11-2.35c.36-.31,1.16-3.15,1.6-3.11s-.31,2.8,0,2.84,3.8-4.51,4.39-3.9S187.84,62.73,188,63s4-2.48,4.3-2-3.41,2.89-3.37,3.2,4.13-1,4.13-.36-3.77,1.69-3.77,2,3.19.29,3.1.84-3.46.23-3.63.54a10.57,10.57,0,0,1-2.8,1.33c-.53.13-2.75.62-2.75.62Z"/><path class="cls-1" d="M183.23,69.92a.75.75,0,0,1-.71-.52l-.8-2.49a.74.74,0,0,1,.25-.82,4.76,4.76,0,0,0,.91-.89h0a9.21,9.21,0,0,1,1.27-2.63,10.2,10.2,0,0,0,.46-1.06c.58-1.47.93-2.35,1.75-2.27a.83.83,0,0,1,.59.32,1.76,1.76,0,0,1,.21,1.33c1.84-2,2.64-2.76,3.36-2.78a.87.87,0,0,1,.7.29c.56.57.25,1.34-.44,2.28,1.06-.55,1.73-.7,2.15-.11.55.76-.15,1.51-1.35,2.46,1-.18,1.56-.17,1.92.13a.88.88,0,0,1,.33.68c0,.73-.73,1.16-2.06,1.71a1.84,1.84,0,0,1,1.21.57.88.88,0,0,1,.17.68c-.17,1-1.57,1-3.05,1-.31,0-.72,0-.92,0a12.52,12.52,0,0,1-3,1.41c-.54.14-2.77.63-2.77.63Zm.07-3,.43,1.35c.7-.15,1.73-.38,2.07-.47a12.23,12.23,0,0,0,2.38-1.07,1,1,0,0,1,.6-.34.71.71,0,0,1-.22-.57c0-.39.18-.61.63-.85a.94.94,0,0,1-.65-.15.84.84,0,0,1-.33-.53.78.78,0,0,1,.14-.59.72.72,0,0,1-.95-.3.74.74,0,0,1-.15-.42c-.49.5-.72.61-1.07.57a.74.74,0,0,1-.62-.46,1.63,1.63,0,0,1-.37.54,9.64,9.64,0,0,0-.89,2A3.45,3.45,0,0,1,183.3,66.94Zm6.13.65a.94.94,0,0,1-.09.12Zm-5.23-5.06Z"/><path class="cls-2" d="M138,93l-7.53,30.69a14,14,0,0,0-1.83,1.89c-2.22,2.8-2.54,5.56-3.69,10.39-.52,2.15-1.16,4.27-1.73,6.41-.74,2.75-1.86,6.78-3.41,11.74-.77,2.55-1.41,5.1-.9,5.32a.25.25,0,0,0,.17,0c1.1-.35,9.28,0,9.28,0s-4.32-3.53-4.14-4.7,14.34-28.61,15.25-31.07S154.4,87,154.4,87H139.51Z"/><path class="cls-2" d="M142.27,91.18s14,30.91,13.78,32v.1a22.85,22.85,0,0,1-1.09,3.86s-.16.49-.62,2.72c-.49,2.39-1.39,11.86-2,24.83,0,0-1.12,3.42,0,4s8.46.73,8.46.73l-4.23-5.34s9-29.94,7.9-32.33-9.37-33.47-9.37-33.47L148,87.36Z"/><polygon class="cls-2" points="152.37 56.41 145.05 57.05 145.05 47.27 149.94 46.37 152.37 56.41"/><path class="cls-2" d="M151.83,62.09c1.57-.74,3.59.62,7.58,3.35,4.16,2.85,7.5,5.17,9.69,6.69l13.84-6.46c.31,1.33.62,2.67.92,4a61.22,61.22,0,0,1-7.61,4.88c-3.86,2.1-5.79,3.15-8,3.23-.84,0-2.41,0-10.61-4.81-6.41-3.74-7.53-4.92-7.75-6.51S150.44,62.74,151.83,62.09Z"/><path class="cls-3" d="M151.83,64.21c1.57-.73,3.59.62,7.58,3.36,4.16,2.85,7.5,5.16,9.69,6.69l13.84-6.46c.31,1.33.62,2.66.92,4a63.64,63.64,0,0,1-7.61,4.88c-3.86,2.1-5.79,3.15-8,3.23-.84,0-2.41,0-10.61-4.81-6.41-3.74-7.53-4.92-7.75-6.52S150.44,64.87,151.83,64.21Z"/><path class="cls-1" d="M168.06,78.54c-1,0-2.93-.35-10.76-4.92-6.63-3.87-7.84-5.16-8.11-7.06s.53-4.31,2.32-5.15h0c2-.93,4.24.61,8.32,3.41s7.15,4.93,9.34,6.45L182.62,65a.78.78,0,0,1,.65,0,.75.75,0,0,1,.4.5l.92,4a.74.74,0,0,1-.28.77,63.78,63.78,0,0,1-7.7,4.94c-4,2.15-5.94,3.23-8.29,3.32Zm-15.31-15.9a1.32,1.32,0,0,0-.6.13h0c-1,.46-1.68,2.14-1.48,3.58.18,1.28,1.25,2.39,7.39,6,8.19,4.78,9.6,4.72,10.2,4.7,2-.07,3.88-1.09,7.63-3.13A62.8,62.8,0,0,0,183,69.36l-.6-2.62-13,6.07a.75.75,0,0,1-.75-.07c-2.19-1.52-5.53-3.83-9.68-6.68C155.78,63.86,153.94,62.64,152.75,62.64Zm-.92-.55h0Z"/><path class="cls-4" d="M145.05,52.91l-3,3.33c2.2,2,5,4.2,7.22,6.25V65l4.28,3.19Z"/><path class="cls-4" d="M151.58,52.54l3.5,1.55q-.37,3.7-.74,7.42l1.89,1.56-2,5.05Q152.9,60.33,151.58,52.54Z"/><path class="cls-1" d="M119,160.16a.94.94,0,0,1-.38-.08c-.85-.37-1-1.36.49-6.23,1.23-3.94,2.37-7.88,3.4-11.71.2-.76.41-1.51.62-2.26.38-1.35.77-2.75,1.1-4.14.18-.77.34-1.49.5-2.16.82-3.63,1.36-6,3.33-8.52a14.41,14.41,0,0,1,1.75-1.83l7.48-30.46h0l1.47-6a.74.74,0,0,1,.72-.57H154.4a.74.74,0,0,1,.62.33.76.76,0,0,1,.07.7c-.14.34-14,34.21-14.87,36.63-.45,1.18-3.74,7.73-7.22,14.66-3.4,6.76-7.62,15.14-8,16.24.15.58,1.92,2.43,3.87,4a.75.75,0,0,1-.51,1.33,71.5,71.5,0,0,0-9,0A1.24,1.24,0,0,1,119,160.16Zm.5-1.17h0Zm-.64-.31Zm3.17-.19c1.37,0,2.94,0,4.23.09-1.58-1.45-2.92-3-2.77-4,.1-.63,2.12-4.72,8.14-16.7,3.31-6.59,6.74-13.4,7.15-14.51.84-2.22,12.09-29.8,14.47-35.63H140.1l-1.33,5.38-7.53,30.69a.8.8,0,0,1-.25.4,12.67,12.67,0,0,0-1.73,1.78c-1.75,2.21-2.24,4.35-3,7.91-.16.68-.32,1.4-.51,2.18-.33,1.41-.73,2.83-1.11,4.2-.21.74-.42,1.49-.62,2.23-1,3.86-2.18,7.82-3.41,11.77a24,24,0,0,0-1,4.28C120.14,158.51,121.05,158.49,122.06,158.49Zm8.45-34.85h0Z"/><path class="cls-1" d="M160.83,160.16h0c-1.76,0-7.61-.23-8.78-.81-1.48-.74-.81-3.51-.41-4.78.54-12.16,1.43-22.18,2-24.85.45-2.19.62-2.73.64-2.79.07-.23.16-.47.24-.72a17.89,17.89,0,0,0,.82-3h0c-.37-1.8-8.37-19.85-13.71-31.68a.75.75,0,0,1,.26-.93l5.7-3.83a.76.76,0,0,1,.51-.12l7.17.91a.76.76,0,0,1,.63.55c2.85,10.73,8.47,31.52,9.32,33.36,1.12,2.41-5.5,25-7.75,32.48l4,5a.76.76,0,0,1-.59,1.22ZM143.21,91.45c6.36,14.08,13.76,30.79,13.58,31.88l0,.09a18.43,18.43,0,0,1-.87,3.28l-.24.69s-.16.53-.59,2.64-1.37,11.34-2,24.71a.69.69,0,0,1,0,.2c-.42,1.3-.6,2.8-.35,3.08a37.63,37.63,0,0,0,6.51.59L156,154.53a.75.75,0,0,1-.13-.68c4.26-14.16,8.49-30.12,7.94-31.81-1-2.27-8.19-29-9.28-33.09l-6.39-.82Zm12.1,31.77Z"/><path class="cls-1" d="M145.05,57.8a.78.78,0,0,1-.51-.19.8.8,0,0,1-.24-.56V47.27a.74.74,0,0,1,.61-.73l4.89-.9a.75.75,0,0,1,.87.56l2.42,10a.76.76,0,0,1-.11.62.79.79,0,0,1-.55.31l-7.32.64Zm.75-9.9v8.33l5.63-.49-2.05-8.5Z"/><circle class="cls-2" cx="141.5" cy="46.09" r="1.9"/><path class="cls-2" d="M156.82,154.35a10.38,10.38,0,0,0,5,2.54c.64.11,1.66.21,2.13,1a2.39,2.39,0,0,1,0,2l-12.43-.31a6.07,6.07,0,0,1,.89-5.13,2.92,2.92,0,0,0,2.85,1A2.77,2.77,0,0,0,156.82,154.35Z"/><path class="cls-2" d="M124.26,154.71a13.81,13.81,0,0,0,5.36,2.18,2.85,2.85,0,0,1,2.13,1,2.39,2.39,0,0,1,0,2l-13.21-.36a9.94,9.94,0,0,1,.35-3.19,9.78,9.78,0,0,1,.93-2.23,4.34,4.34,0,0,0,.67.58,3.2,3.2,0,0,0,2.57.78A2.36,2.36,0,0,0,124.26,154.71Z"/><path class="cls-5" d="M156.1,155.62a10.33,10.33,0,0,0,5,2.54c.64.12,1.66.21,2.13,1a2.36,2.36,0,0,1,0,2l-12.43-.3a6.27,6.27,0,0,1,0-3.3,6.11,6.11,0,0,1,.88-1.83,2.92,2.92,0,0,0,2.85,1A2.77,2.77,0,0,0,156.1,155.62Z"/><path class="cls-5" d="M123.54,156a13.5,13.5,0,0,0,5.36,2.18,2.91,2.91,0,0,1,2.14,1,2.43,2.43,0,0,1,0,2l-13.21-.36a9.94,9.94,0,0,1,1.28-5.42,4.84,4.84,0,0,0,.67.59,3.23,3.23,0,0,0,2.57.78A2.4,2.4,0,0,0,123.54,156Z"/><path class="cls-1" d="M163.94,160.6h0l-12.43-.31a.75.75,0,0,1-.71-.55,7,7,0,0,1,0-3.7,6.76,6.76,0,0,1,1-2.06.76.76,0,0,1,.57-.32.75.75,0,0,1,.61.26,2.14,2.14,0,0,0,2.11.78,2,2,0,0,0,1.13-.79.81.81,0,0,1,.52-.31.76.76,0,0,1,.58.18,9.88,9.88,0,0,0,4.6,2.37l.19,0a3.27,3.27,0,0,1,2.45,1.26,3,3,0,0,1,.1,2.65A.75.75,0,0,1,163.94,160.6Zm-11.83-1.79,11.26.28a1.14,1.14,0,0,0-.09-.85c-.24-.39-.9-.5-1.42-.58l-.2,0a10.72,10.72,0,0,1-4.76-2.24,3.42,3.42,0,0,1-1.47.78,3.55,3.55,0,0,1-2.85-.58,5.41,5.41,0,0,0-.34.87A5.58,5.58,0,0,0,152.11,158.81Z"/><path class="cls-1" d="M131.78,160.6h0l-13.21-.36a.74.74,0,0,1-.72-.71,10.43,10.43,0,0,1,.37-3.43,10.32,10.32,0,0,1,1-2.4.76.76,0,0,1,.57-.38.73.73,0,0,1,.63.24,4.37,4.37,0,0,0,.56.49,2.55,2.55,0,0,0,2,.65,1.52,1.52,0,0,0,.8-.5.75.75,0,0,1,1-.12,13.19,13.19,0,0,0,5.07,2.07h.12a3.39,3.39,0,0,1,2.53,1.28,3,3,0,0,1,.1,2.65A.75.75,0,0,1,131.78,160.6Zm-12.47-1.84,11.9.32a1.23,1.23,0,0,0-.09-.84c-.26-.41-1-.52-1.48-.59l-.13,0a14.35,14.35,0,0,1-5.17-2,2.88,2.88,0,0,1-1.07.52,4,4,0,0,1-3.19-.89,10.58,10.58,0,0,0-.44,1.23A8.64,8.64,0,0,0,119.31,158.76Z"/><path class="cls-1" d="M155.82,42.88a9.59,9.59,0,0,1-1.34,4.72l-14.25,2.8c-.38-.2-4.57-2.49-4.95-7a8.15,8.15,0,0,1,3.56-7.4,9.69,9.69,0,0,1,6.45-1.25,9.45,9.45,0,0,1,6.77.66C155.85,37.55,155.82,42,155.82,42.88Z"/><circle class="cls-2" cx="146.92" cy="43.53" r="6.52"/><path class="cls-1" d="M146.92,50.79a7.27,7.27,0,1,1,7.26-7.26A7.27,7.27,0,0,1,146.92,50.79Zm0-13a5.77,5.77,0,1,0,5.76,5.77A5.78,5.78,0,0,0,146.92,37.76Z"/><path class="cls-1" d="M138.42,43.86c.05-.8.39-5.33,3.84-7.47,1.88-1.16,4.74-1.66,5.44-.65s-1.13,3.66-2.48,5A11.82,11.82,0,0,1,138.42,43.86Z"/><path class="cls-2" d="M138.33,83.66l-8.13,37.45a66.4,66.4,0,0,0,9.31,2.53,54.45,54.45,0,0,0,16.22,1.09,51.08,51.08,0,0,0,9.74-1.85q-2.17-13.57-4.36-27.14L156.7,83.66Z"/><path class="cls-5" d="M135.64,85.58,127.51,123a68.42,68.42,0,0,0,9.32,2.53A54.79,54.79,0,0,0,153,126.64a50.17,50.17,0,0,0,9.74-1.85l-4.35-27.14L154,85.58Z"/><path class="cls-1" d="M151.29,125.68a59,59,0,0,1-11.92-1.3,67.91,67.91,0,0,1-9.42-2.56.74.74,0,0,1-.49-.86l8.13-37.45a.76.76,0,0,1,.74-.6H156.7a.76.76,0,0,1,.71.5l4.41,12.07a.58.58,0,0,1,0,.14l4.36,27.14a.76.76,0,0,1-.53.84,51.72,51.72,0,0,1-9.88,1.88C154.22,125.62,152.71,125.68,151.29,125.68Zm-20.22-5.06a67.12,67.12,0,0,0,8.59,2.29,54.18,54.18,0,0,0,16,1.08,50.35,50.35,0,0,0,9-1.65l-4.25-26.42-4.2-11.51H138.93Z"/><path class="cls-2" d="M147.1,56.62S142.57,55.56,140,61s-1.61,13-3.27,20.57c-.45,2-3,7.07-8.17,17.09-2.76,5.36-5.09,9.78-6.74,12.86,2.23,3.77,4.61,4.87,6,5.26,1.64.46,2.77.18,7.23-.24,2.85-.27,5.16-.41,6.62-.49q5.33-13.33,10.67-26.66.72,13.14,1.45,26.29a13,13,0,0,1,4.29,1c3.25,1.37,4.25,3.41,6.25,3.31.86,0,2.16-.5,3.67-2.7A206.51,206.51,0,0,1,162.59,95c-1.13-6.07-1.92-11.83-2.46-17.19C158.78,72.91,162.51,68,156.6,61,153,56.78,148.85,57,147.1,56.62Z"/><path class="cls-3" d="M145.31,55.36s-4.54-1.06-7.07,4.38-1.61,13-3.28,20.57c-.44,2-3,7.07-8.16,17.09-2.76,5.36-5.1,9.79-6.74,12.86,2.23,3.78,4.6,4.88,6,5.27,1.64.46,2.77.17,7.23-.25,2.85-.26,5.16-.41,6.61-.49q5.34-13.32,10.67-26.66.74,13.16,1.46,26.3a12.82,12.82,0,0,1,4.29,1c3.25,1.36,4.24,3.4,6.24,3.3.87,0,2.16-.5,3.68-2.69a203.81,203.81,0,0,1-5.44-22.27c-1.14-6.07-1.92-11.82-2.46-17.19-1.36-4.91,2.38-9.83-3.53-16.82C151.24,55.52,147.05,55.75,145.31,55.36Z"/><path class="cls-1" d="M164.21,120.72a5.4,5.4,0,0,1-3.24-1.46,13.74,13.74,0,0,0-3.15-1.91,12.15,12.15,0,0,0-4-.92.75.75,0,0,1-.7-.71l-1.27-22.91-9.42,23.52a.75.75,0,0,1-.65.47c-2.16.11-4.38.28-6.59.49-.93.08-1.72.17-2.4.24-2.59.26-3.67.38-5.1,0-2.48-.7-4.65-2.59-6.44-5.61a.73.73,0,0,1,0-.73c2.27-4.25,4.53-8.58,6.73-12.86,4.79-9.31,7.67-14.93,8.11-16.9a67,67,0,0,0,1.13-9.12c.31-4.23.61-8.22,2.19-11.61,2.71-5.81,7.69-4.84,7.91-4.79h0c.29.06.63.1,1,.16a12.64,12.64,0,0,1,8.88,4.47c4.09,4.83,3.79,8.76,3.52,12.24a13.81,13.81,0,0,0,.17,4.86.5.5,0,0,1,0,.12c.57,5.72,1.39,11.49,2.45,17.13a203.88,203.88,0,0,0,5.42,22.19.73.73,0,0,1-.1.64c-1.33,1.93-2.76,2.94-4.25,3ZM154.54,115a13.61,13.61,0,0,1,3.86,1,15.62,15.62,0,0,1,3.47,2.09c1.06.79,1.66,1.21,2.45,1.16.94,0,1.91-.75,2.89-2.08a207.84,207.84,0,0,1-5.36-22c-1-5.67-1.88-11.46-2.45-17.2a15.28,15.28,0,0,1-.21-5.31c.26-3.34.53-6.79-3.16-11.16a11.22,11.22,0,0,0-7.93-3.95c-.45-.06-.83-.11-1.16-.18h0c-.18,0-4-.82-6.23,4-1.47,3.13-1.75,7-2.06,11.08a66.21,66.21,0,0,1-1.16,9.33c-.46,2.07-2.85,6.79-8.23,17.27-2.14,4.16-4.34,8.36-6.55,12.49,1.54,2.48,3.34,4,5.35,4.57,1.15.33,2.07.23,4.54,0l2.41-.25c2.07-.19,4.14-.35,6.17-.46l10.49-26.22a.75.75,0,0,1,1.44.24Z"/><path class="cls-1" d="M148.39,41.13a.61.61,0,1,0,.38-.78A.61.61,0,0,0,148.39,41.13Z"/><path class="cls-1" d="M144.14,42.92a.61.61,0,0,0,1.16-.39.61.61,0,1,0-1.16.39Z"/><path class="cls-1" d="M148,44.86a.37.37,0,0,1-.3-.16.37.37,0,0,1,.08-.52,3,3,0,0,0,.64-.58l0,0a9.76,9.76,0,0,0-1.1-.94.37.37,0,0,1-.08-.52.36.36,0,0,1,.52-.08,9.31,9.31,0,0,1,1.22,1,1.32,1.32,0,0,1,.12.16.73.73,0,0,1-.09.8,3.33,3.33,0,0,1-.81.75A.37.37,0,0,1,148,44.86Zm.48-1.26Z"/><path class="cls-1" d="M145.82,46a.38.38,0,0,1,.44-.29,4.58,4.58,0,0,0,.63.1h.54a.37.37,0,0,1,.4.35.39.39,0,0,1-.35.4,3.89,3.89,0,0,1-1.36-.12A.38.38,0,0,1,145.82,46Z"/><g class="cls-6"><path class="cls-3" d="M146.11,44c-.08-.32-1-.49-1.68,0-.3.21-.64.64-.55.88s.78.24,1.26,0S146.18,44.31,146.11,44Z"/></g><g class="cls-6"><path class="cls-3" d="M151.49,41.57c-.08-.32-1-.49-1.68,0-.3.21-.64.64-.55.88s.78.24,1.26,0S151.57,41.85,151.49,41.57Z"/></g><path class="cls-1" d="M154.18,69.41h-.09a.75.75,0,0,1-.65-.61l-2.95-16.46a.76.76,0,0,1,.26-.72.75.75,0,0,1,.75-.11l4.23,1.67a.75.75,0,0,1,.47.77L155.49,61l1.64,1.35a.76.76,0,0,1,.21.88L154.87,69A.76.76,0,0,1,154.18,69.41Zm-.07-7.17L154.6,65l.76-1.75Zm-1.5-8.36,1.14,6.37.57-5.69Z"/><path class="cls-1" d="M154.67,70.16a.73.73,0,0,1-.44-.15l-5.75-4.28a.74.74,0,0,1-.3-.6V63L141,57.08a.8.8,0,0,1-.27-.52A.76.76,0,0,1,141,56l3.58-3.86a.75.75,0,0,1,.63-.23.78.78,0,0,1,.57.37L155.32,69a.75.75,0,0,1-.65,1.12ZM150,64.6l1.23.92L150,63.37Zm-7-8.19,5.63,4.65-3.8-6.63Z"/><path class="cls-2" d="M169.29,44.9s2.56-4.8,3-5.37a20.2,20.2,0,0,1,3.86-2.89c.46-.07,1.25,0,1.2.36s-3.22,2.23-3.32,2.51a9.2,9.2,0,0,0-.9,2.12c0,.49,1.54-1,1.87-1s1,.46.77.74-2.51,1.79-2.46,2.17a6.84,6.84,0,0,1-2.37,3.2C170,47.2,169.29,44.9,169.29,44.9Z"/><path class="cls-7" d="M173.42,43.56l-.18-.07a3,3,0,0,0-.18-1.82l.18-.08A3.16,3.16,0,0,1,173.42,43.56Z"/><path class="cls-1" d="M170.68,47.53a1.3,1.3,0,0,1-.55-.12c-.95-.42-1.43-1.87-1.56-2.3a.77.77,0,0,1,.06-.56c.43-.81,2.62-4.9,3.1-5.49s3.52-3,4.32-3.15a2.32,2.32,0,0,1,1.77.35,1,1,0,0,1,.3.84c-.07.51-.47.81-2.27,2-.42.28-1,.65-1.17.81h0l.17,0a1.53,1.53,0,0,1,1.52.72,1,1,0,0,1,0,1.19,5,5,0,0,1-1,.81,13.33,13.33,0,0,0-1.37,1.13,7.47,7.47,0,0,1-2.78,3.66A1.29,1.29,0,0,1,170.68,47.53ZM170.11,45a2.73,2.73,0,0,0,.58,1,7.07,7.07,0,0,0,1.89-2.51c0-.33.19-.62.61-1a.84.84,0,0,1-.3-.08.82.82,0,0,1-.48-.73,4.18,4.18,0,0,1,.63-1.82l-.15.16C172.64,40.31,171.31,42.72,170.11,45Zm4-1.54v0Zm.67-3.67v0Z"/><path class="cls-2" d="M138.5,59.69s1-2.44,2.6-3,16.24-1.53,16.24-1.53L169.42,44l2.42,2.93S160.25,61,159.7,61.19s-17.2,5.16-19.67,3A4.12,4.12,0,0,1,138.5,59.69Z"/><path class="cls-3" d="M139.65,60.66s1-2.43,2.6-3,16.24-1.52,16.24-1.52l12.07-11.16L173,47.88S161.4,62,160.84,62.17s-17.19,5.15-19.66,3A4.12,4.12,0,0,1,139.65,60.66Z"/><path class="cls-1" d="M142.63,65.46a5,5,0,0,1-3.09-.69,4.87,4.87,0,0,1-1.74-5.36v0c.12-.28,1.22-2.74,3-3.44,1.54-.6,13.22-1.37,16.2-1.56l11.88-11a.78.78,0,0,1,.56-.2.76.76,0,0,1,.53.27l2.42,2.94a.74.74,0,0,1,0,1c-11.73,14.27-12.24,14.44-12.48,14.53S148.54,65.46,142.63,65.46ZM139.19,60a3.43,3.43,0,0,0,1.33,3.66c1.76,1.53,15.4-2,18.83-3.11.94-.86,7.35-8.54,11.52-13.61l-1.53-1.86L157.85,55.67a.72.72,0,0,1-.46.2c-5.63.35-14.95,1.06-16,1.47S139.46,59.36,139.19,60Z"/><path class="cls-1" d="M152.37,90.14l-.17,0a.74.74,0,0,1-.56-.89c0-.15,3.24-14.62,2.3-19.68a.74.74,0,0,1,.6-.87.75.75,0,0,1,.87.59c1,5.36-2.18,19.68-2.31,20.29A.76.76,0,0,1,152.37,90.14Z"/><path class="cls-1" d="M144.38,93.87a.59.59,0,0,1-.23,0l-7.35-2.38a.73.73,0,0,1-.46-.43.7.7,0,0,1,0-.63l1.29-2.48a.75.75,0,0,1,1-.32.76.76,0,0,1,.32,1l-.89,1.7,5.83,1.89,1.18-3.07a.77.77,0,0,1,1-.43.75.75,0,0,1,.43,1l-1.43,3.73A.75.75,0,0,1,144.38,93.87Z"/><path class="cls-1" d="M151.62,72.81a.75.75,0,0,0,0,1.5A.75.75,0,0,0,151.62,72.81Z"/><path class="cls-1" d="M151.21,81.43a.82.82,0,0,0-.2-.33l-.15-.11a.84.84,0,0,0-.38-.11h-.1a.59.59,0,0,0-.29.07.61.61,0,0,0-.24.15.72.72,0,0,0-.16.25.64.64,0,0,0-.06.28l0,.2a.69.69,0,0,0,.19.33l.15.12a.72.72,0,0,0,.38.1h.1a.48.48,0,0,0,.29-.06.54.54,0,0,0,.24-.16.45.45,0,0,0,.16-.24.56.56,0,0,0,.06-.29Z"/><path class="cls-1" d="M46.24,153.27a.63.63,0,0,1-.19,0,.74.74,0,0,1-.53-.91,7.65,7.65,0,0,1,.38-1.06,2.31,2.31,0,0,0,.27-1.74,6.47,6.47,0,0,0-.66-1.28,3.73,3.73,0,0,1-.67-3.53.76.76,0,0,1,1-.47.74.74,0,0,1,.46.95c-.31.92,0,1.45.52,2.26a7.71,7.71,0,0,1,.81,1.6,3.71,3.71,0,0,1-.31,2.78,8.41,8.41,0,0,0-.32.87A.74.74,0,0,1,46.24,153.27Z"/><path class="cls-2" d="M41.56,146.47c2.16.25,4.35-.78,6.48-.24a19.78,19.78,0,0,0,2.86.91,4.56,4.56,0,0,0,3.71-1.81,11.24,11.24,0,0,0,2.58-4.75.86.86,0,0,0,0-.39c-.27-.95-3.29,2.9-3.79,3.17-2,1-4.12-5.36-4.84-7.1-1.09.94-.25,3.61-1.31,4.6a1.56,1.56,0,0,1-.9.35c-3.12.36-5.48-3.29-6.8-6.48-.83,1-.74,2.47-.46,3.73a9.57,9.57,0,0,1,.47,3.91c-.09.46-3.75-2.16-4-2.32.2.11,1,2.74,1.29,3.2A7.9,7.9,0,0,0,39,145.47,5.68,5.68,0,0,0,41.56,146.47Z"/><rect class="cls-2" x="34.94" y="152.4" width="22.71" height="6.93"/><path class="cls-2" d="M118.15,98.38h0a6.29,6.29,0,0,1-6.29-6.29v-56h12.59v56A6.3,6.3,0,0,1,118.15,98.38Z"/><path class="cls-3" d="M116.11,97.55h0a6.29,6.29,0,0,1-6.29-6.29v-24H122.4v24A6.29,6.29,0,0,1,116.11,97.55Z"/><path class="cls-1" d="M118.46,99.13h-.61a6.74,6.74,0,0,1-6.74-6.73V36.06a.75.75,0,0,1,.75-.75h12.59a.75.75,0,0,1,.75.75V92.4A6.74,6.74,0,0,1,118.46,99.13Zm-5.85-62.32V92.4a5.24,5.24,0,0,0,5.24,5.23h.61a5.24,5.24,0,0,0,5.24-5.23V36.81Z"/><rect class="cls-2" x="109.76" y="34.28" width="16.79" height="4.76"/><path class="cls-1" d="M125.59,39.79H110.72A1.72,1.72,0,0,1,109,38.08V35.25a1.71,1.71,0,0,1,1.71-1.71h14.87a1.71,1.71,0,0,1,1.71,1.71v2.83A1.72,1.72,0,0,1,125.59,39.79ZM110.72,35a.21.21,0,0,0-.21.22v2.83a.21.21,0,0,0,.21.21h14.87a.21.21,0,0,0,.21-.21V35.25a.22.22,0,0,0-.21-.22Z"/><path class="cls-2" d="M120,73.49a1.72,1.72,0,1,1-1.72-1.73A1.72,1.72,0,0,1,120,73.49Z"/><path class="cls-1" d="M119.21,74.89a2.47,2.47,0,1,1,2.47-2.47A2.47,2.47,0,0,1,119.21,74.89Zm0-3.44a1,1,0,1,0,1,1A1,1,0,0,0,119.21,71.45Z"/><path class="cls-1" d="M116.55,65.1a3.21,3.21,0,1,1,3.2-3.2A3.21,3.21,0,0,1,116.55,65.1Zm0-4.91a1.71,1.71,0,1,0,1.7,1.71A1.7,1.7,0,0,0,116.55,60.19Z"/><path class="cls-2" d="M38.71,60.33A2.35,2.35,0,0,0,38,59a2.44,2.44,0,0,0-2-.09,25.43,25.43,0,0,1-7.7.91,10,10,0,0,1-6.9-3.15A7.87,7.87,0,0,1,22.19,46a7.86,7.86,0,0,1,10.63.71c-1.11-3-2.25-6.18-1.72-9.34a13,13,0,0,1,4.32-7.18,15.08,15.08,0,0,1,7.15-3.82,9.73,9.73,0,0,1,7.79,1.67,10.79,10.79,0,0,1,3.08,4.24A16,16,0,0,1,54.58,41c4-5.11,10.39-9.08,16.71-7.7,4.71,1,8.49,5,10,9.57A20.64,20.64,0,0,1,80.3,57a12.54,12.54,0,0,1-3.94,5.51,11.08,11.08,0,0,1-5,1.82,17.64,17.64,0,0,1-16.53-7.37,66.77,66.77,0,0,0-3.45,21.39,18,18,0,0,1-2.53.37,14.67,14.67,0,0,1-2.65,0,7.78,7.78,0,0,1-4.3-1.57c-1.13-.9-.84-2.62-.92-3.9a60.78,60.78,0,0,0-.7-6.16A60.65,60.65,0,0,0,38.71,60.33Z"/><path class="cls-3" d="M35.71,57.53A2.32,2.32,0,0,0,35,56.2a2.46,2.46,0,0,0-2-.1A25.54,25.54,0,0,1,25.3,57a10,10,0,0,1-6.9-3.16,7.86,7.86,0,0,1,.79-10.62A7.85,7.85,0,0,1,29.82,44c-1.11-3-2.25-6.18-1.72-9.34a12.93,12.93,0,0,1,4.32-7.18,15.1,15.1,0,0,1,7.15-3.83,9.7,9.7,0,0,1,7.79,1.68,10.74,10.74,0,0,1,3.09,4.24,15.93,15.93,0,0,1,1.13,8.65c4-5.1,10.39-9.07,16.72-7.69,4.71,1,8.48,5,10,9.57a20.58,20.58,0,0,1-1,14.13,12.52,12.52,0,0,1-3.94,5.51,11.08,11.08,0,0,1-5,1.82,17.64,17.64,0,0,1-16.53-7.37,66.72,66.72,0,0,0-3.44,21.39,18.14,18.14,0,0,1-2.54.37,15.64,15.64,0,0,1-2.65,0,7.8,7.8,0,0,1-4.3-1.58c-1.13-.9-.83-2.61-.91-3.89a60.81,60.81,0,0,0-.71-6.16A58.51,58.51,0,0,0,35.71,57.53Z"/><path class="cls-1" d="M47.15,79.54c-.36,0-.7,0-1,0a8.52,8.52,0,0,1-4.71-1.74c-1.17-.94-1.18-2.43-1.18-3.63,0-.28,0-.55,0-.8-.13-2-.37-4.08-.7-6.08A58.73,58.73,0,0,0,38,60.54h0a1.85,1.85,0,0,0-.46-.93c-.28-.2-.85-.09-1.35,0a26.47,26.47,0,0,1-7.94.93,10.61,10.61,0,0,1-7.41-3.42,8.65,8.65,0,0,1,.87-11.67,8.74,8.74,0,0,1,9.56-.89,15.38,15.38,0,0,1-.9-7.3,13.8,13.8,0,0,1,4.56-7.61,15.78,15.78,0,0,1,7.51-4,10.48,10.48,0,0,1,8.39,1.82A11.46,11.46,0,0,1,54.13,32a16.83,16.83,0,0,1,1.37,6.72c5.46-5.89,11.7-7.12,16-6.19A14.92,14.92,0,0,1,82,42.62a21.3,21.3,0,0,1-1,14.65,13,13,0,0,1-4.2,5.83,11.64,11.64,0,0,1-5.35,1.95,18.41,18.41,0,0,1-16.36-6.5,65.59,65.59,0,0,0-3,19.78c0,.81-.61.87-3.21,1.12C48.28,79.51,47.69,79.54,47.15,79.54Zm3.46-1.21h0ZM39.43,60.12A61.75,61.75,0,0,1,41,67a62.37,62.37,0,0,1,.71,6.24c0,.28,0,.58,0,.89,0,1,0,2,.61,2.46A7.09,7.09,0,0,0,46.24,78,15.52,15.52,0,0,0,48.76,78l1.85-.22a67.21,67.21,0,0,1,3.49-21,.75.75,0,0,1,1.33-.18,16.87,16.87,0,0,0,15.81,7,10.21,10.21,0,0,0,4.68-1.69,11.56,11.56,0,0,0,3.69-5.19,19.82,19.82,0,0,0,1-13.61A13.38,13.38,0,0,0,71.13,34c-6.4-1.4-12.61,3.12-16,7.42a.74.74,0,0,1-.89.22.75.75,0,0,1-.45-.8,15.2,15.2,0,0,0-1.07-8.24,9.93,9.93,0,0,0-2.87-3.95,8.94,8.94,0,0,0-7.18-1.53,14.39,14.39,0,0,0-6.78,3.64,12.33,12.33,0,0,0-4.09,6.75c-.51,3,.65,6.19,1.68,9a.73.73,0,0,1-.31.9.75.75,0,0,1-1-.14,7.09,7.09,0,0,0-9.58-.64A7.09,7.09,0,0,0,22,56.18a9.27,9.27,0,0,0,6.39,2.89,25,25,0,0,0,7.47-.89,3.12,3.12,0,0,1,2.57.21,3.08,3.08,0,0,1,1,1.73Z"/><path class="cls-2" d="M68.56,121,53.28,96.37V69H37.93V96.37L22.65,121A6.29,6.29,0,0,0,28,130.57H63.21A6.3,6.3,0,0,0,68.56,121Z"/><path class="cls-5" d="M70.17,123.43l-6.62-10.66a3.65,3.65,0,0,1-1.3,1.32c-3.6,1.8-4.74-2.53-7.37-3.68-4-1.77-2.32,4.67-4.91,5.35-4.16,1.08-4.07-8.43-6.74-10.1a2.09,2.09,0,0,0-2.1-.15,3,3,0,0,0-1,1.21c-2.61,4.77-2.43,5.89-3.17,6.13-1.13.37-2.87-.95-3.57-2.25-.37-.69-.25-1-.48-1.1-1.55-.59-8.66,13.93-8.66,13.93h0a6.29,6.29,0,0,0,5.35,9.62H64.82A6.29,6.29,0,0,0,70.17,123.43Z"/><path class="cls-1" d="M63.21,131.32H28a7.05,7.05,0,0,1-6-10.77L37.18,96.16V69a.75.75,0,0,1,.75-.75H53.28A.76.76,0,0,1,54,69V96.16l15.16,24.39a7,7,0,0,1-6,10.77ZM38.68,69.78V96.37a.72.72,0,0,1-.12.4L23.28,121.35A5.56,5.56,0,0,0,28,129.83H63.21a5.55,5.55,0,0,0,4.71-8.48L52.64,96.77a.8.8,0,0,1-.11-.4V69.78Z"/><rect class="cls-2" x="35.41" y="66.03" width="20.38" height="6.28" rx="2.07"/><path class="cls-1" d="M54.24,73.07H37a2.3,2.3,0,0,1-2.3-2.3V67.58A2.3,2.3,0,0,1,37,65.29H54.24a2.3,2.3,0,0,1,2.3,2.29v3.19A2.3,2.3,0,0,1,54.24,73.07ZM37,66.78a.8.8,0,0,0-.8.8v3.19a.8.8,0,0,0,.8.8H54.24a.8.8,0,0,0,.8-.8V67.58a.8.8,0,0,0-.8-.8Z"/><path class="cls-1" d="M47.9,102.9A3.05,3.05,0,1,1,51,99.85,3.06,3.06,0,0,1,47.9,102.9Zm0-4.6a1.55,1.55,0,1,0,1.56,1.55A1.55,1.55,0,0,0,47.9,98.3Z"/><path class="cls-1" d="M41.45,121.7a3,3,0,1,1,3-3A3,3,0,0,1,41.45,121.7Zm0-4.58A1.54,1.54,0,1,0,43,118.66,1.54,1.54,0,0,0,41.45,117.12Z"/><path class="cls-1" d="M55.79,118.34a2.61,2.61,0,1,1,2.61-2.61A2.61,2.61,0,0,1,55.79,118.34Zm0-3.71a1.11,1.11,0,0,0,0,2.21,1.11,1.11,0,1,0,0-2.21Z"/><path class="cls-1" d="M43.73,90.8a2.6,2.6,0,1,1,2.61-2.6A2.6,2.6,0,0,1,43.73,90.8Zm0-3.7a1.11,1.11,0,0,0,0,2.21,1.11,1.11,0,1,0,0-2.21Z"/><circle class="cls-2" cx="59.5" cy="21.11" r="2.3"/><path class="cls-1" d="M59.5,24.16a3.06,3.06,0,1,1,3-3.05A3.06,3.06,0,0,1,59.5,24.16Zm0-4.61a1.56,1.56,0,1,0,1.55,1.56A1.55,1.55,0,0,0,59.5,19.55Z"/><circle class="cls-2" cx="63.31" cy="42.79" r="1.85"/><path class="cls-1" d="M63.9,46.49a2.6,2.6,0,1,1,2.6-2.6A2.6,2.6,0,0,1,63.9,46.49Zm0-3.7a1.11,1.11,0,1,0,1.1,1.1A1.11,1.11,0,0,0,63.9,42.79Z"/><circle class="cls-2" cx="41.73" cy="42.25" r="2.96"/><path class="cls-1" d="M40.77,44.64a3.71,3.71,0,1,1,3.71-3.71A3.72,3.72,0,0,1,40.77,44.64Zm0-5.92A2.21,2.21,0,1,0,43,40.93,2.21,2.21,0,0,0,40.77,38.72Z"/><rect class="cls-1" x="87.63" y="11.31" width="5.99" height="149.29"/><rect class="cls-1" x="90.62" y="46.03" width="27.53" height="3"/><rect class="cls-1" x="41.45" y="79.16" width="49.18" height="3"/><path class="cls-1" d="M56,83.66H34.94a3,3,0,1,1,0-6H56a3,3,0,0,1,0,6Z"/><path class="cls-1" d="M125.17,50.52H109.23a3,3,0,1,1,0-6h15.94a3,3,0,0,1,0,6Z"/><rect class="cls-5" x="36.55" y="154.49" width="22.71" height="6.93"/><path class="cls-1" d="M57.65,160.08H34.94a.76.76,0,0,1-.75-.75V152.4a.75.75,0,0,1,.75-.75H57.65a.75.75,0,0,1,.75.75v6.93A.76.76,0,0,1,57.65,160.08Zm-22-1.5H56.9v-5.44H35.69Z"/><path class="cls-3" d="M41.56,149.1c2.16.25,4.35-.78,6.48-.24a19.78,19.78,0,0,0,2.86.91A4.56,4.56,0,0,0,54.61,148a11.24,11.24,0,0,0,2.58-4.75.86.86,0,0,0,0-.39c-.27-.94-3.29,2.9-3.79,3.17-2,1-4.12-5.36-4.84-7.1-1.09.94-.25,3.61-1.31,4.6a1.49,1.49,0,0,1-.9.35c-3.12.36-5.48-3.29-6.8-6.48-.83,1-.74,2.47-.46,3.73a9.6,9.6,0,0,1,.47,3.92c-.09.45-3.75-2.17-4-2.33.2.12,1,2.74,1.29,3.2A8.07,8.07,0,0,0,39,148.11,5.78,5.78,0,0,0,41.56,149.1Z"/><path class="cls-1" d="M51.19,147.9h-.37a7,7,0,0,1-1.9-.56,10.5,10.5,0,0,0-1.07-.37,8.37,8.37,0,0,0-3.26.07,11.55,11.55,0,0,1-3.12.19h0a6.65,6.65,0,0,1-2.91-1.13,9,9,0,0,1-2.37-2.42,10.44,10.44,0,0,1-.74-1.85c-.16-.43-.39-1.08-.49-1.28a.77.77,0,0,1-.08-.87.75.75,0,0,1,1-.27h0l.05,0,.47.32c1.1.75,1.92,1.28,2.46,1.6a11.29,11.29,0,0,0-.37-2c-.05-.23-.11-.46-.16-.68-.43-1.94-.22-3.42.63-4.39a.74.74,0,0,1,.68-.25.75.75,0,0,1,.58.45c.62,1.5,2.87,6.39,6,6a.88.88,0,0,0,.47-.16c.31-.29.36-1.09.4-1.8a3.89,3.89,0,0,1,.93-2.82.78.78,0,0,1,.66-.16.74.74,0,0,1,.52.45c.1.22.21.52.35.87.57,1.49,2.09,5.42,3.25,5.85a.2.2,0,0,0,.2,0c.09-.07.53-.54.88-.93,1.75-1.88,2.53-2.63,3.31-2.44a.9.9,0,0,1,.67.66,1.51,1.51,0,0,1,0,.73,11.94,11.94,0,0,1-2.75,5.12A5.5,5.5,0,0,1,51.19,147.9Zm-4.52-2.58a5.93,5.93,0,0,1,1.55.19,9.82,9.82,0,0,1,1.26.43,5.76,5.76,0,0,0,1.49.46,3.87,3.87,0,0,0,3.08-1.56,12.84,12.84,0,0,0,2-3.14c-.38.38-.77.8-1,1.08A6.6,6.6,0,0,1,53.75,144a1.76,1.76,0,0,1-1.42.09c-1.45-.54-2.62-2.94-3.68-5.59a.28.28,0,0,0,0,.09,4,4,0,0,1-.89,2.8,2.22,2.22,0,0,1-1.32.55c-3.23.37-5.52-2.82-6.79-5.27a7.13,7.13,0,0,0,.18,1.61c0,.22.1.44.16.66a8.06,8.06,0,0,1,.31,3.56.84.84,0,0,1-.49.59c-.41.18-.8.12-2.7-1.11.14.38.28.73.34.84a7.56,7.56,0,0,0,2,2,5.16,5.16,0,0,0,2.24.87,10.72,10.72,0,0,0,2.73-.18A15.86,15.86,0,0,1,46.67,145.32Z"/><polygon class="cls-2" points="199.47 65.22 181.74 41.77 185.01 39.3 200.29 59.5 226.07 40.34 256.37 57.03 254.39 60.62 226.4 45.21 199.47 65.22"/><rect class="cls-2" x="216.99" y="10.62" width="4.1" height="33.77" transform="translate(9.18 96.02) rotate(-25.24)"/><rect class="cls-2" x="226.55" y="34.27" width="16.32" height="4.1" transform="translate(35.37 165.45) rotate(-41.73)"/><path class="cls-1" d="M199.47,66a.77.77,0,0,1-.6-.3L181.14,42.23a.75.75,0,0,1,.15-1l3.27-2.48a.74.74,0,0,1,.56-.14.72.72,0,0,1,.49.29l14.83,19.6,25.18-18.71a.75.75,0,0,1,.81-.06l30.31,16.69a.75.75,0,0,1,.29,1l-2,3.59a.73.73,0,0,1-.45.36.76.76,0,0,1-.57-.06L226.46,46.1,199.91,65.82A.73.73,0,0,1,199.47,66Zm-16.68-24,16.83,22.25L226,44.61a.75.75,0,0,1,.81-.06L254.1,59.61l1.26-2.29L226.13,41.23,200.73,60.1a.76.76,0,0,1-1-.15l-14.82-19.6Z"/><path class="cls-1" d="M224.38,44.4a.74.74,0,0,1-.25,0,.73.73,0,0,1-.43-.38L209.3,13.42a.75.75,0,0,1,.36-1l3.71-1.75a.73.73,0,0,1,.58,0,.75.75,0,0,1,.42.38l14.4,30.55a.75.75,0,0,1-.36,1l-3.71,1.75A.88.88,0,0,1,224.38,44.4ZM211,13.46l13.76,29.19,2.36-1.11L213.34,12.35Z"/><path class="cls-1" d="M230,44a.77.77,0,0,1-.56-.25l-2.73-3.07a.75.75,0,0,1-.19-.54.72.72,0,0,1,.25-.51l12.17-10.86a.74.74,0,0,1,.55-.19.74.74,0,0,1,.51.25l2.73,3.06a.75.75,0,0,1-.06,1.06L230.49,43.85A.8.8,0,0,1,230,44Zm-1.68-3.75,1.74,1.94,11.06-9.86-1.74-1.95Z"/><circle class="cls-2" cx="211.84" cy="12.23" r="11.48"/><path class="cls-2" d="M266.43,61.94a11.48,11.48,0,1,1-7.93-14.16A11.48,11.48,0,0,1,266.43,61.94Z"/><circle class="cls-2" cx="242.41" cy="29.74" r="6.62" transform="translate(93.04 222.97) rotate(-59.29)"/><circle class="cls-2" cx="199.88" cy="62.36" r="10.59" transform="matrix(0.29, -0.96, 0.96, 0.29, 82.71, 235.88)"/><path class="cls-2" d="M191.31,42.77a8.24,8.24,0,1,1-5.7-10.17A8.25,8.25,0,0,1,191.31,42.77Z"/><path class="cls-2" d="M235.35,45.34a9.47,9.47,0,1,1-6.55-11.68A9.46,9.46,0,0,1,235.35,45.34Z"/><path class="cls-3" d="M221.52,17.14A11.48,11.48,0,1,1,213.58,3,11.48,11.48,0,0,1,221.52,17.14Z"/><circle class="cls-5" cx="253.04" cy="58.83" r="11.48" transform="translate(-4.15 22.19) rotate(-4.98)"/><circle class="cls-5" cx="243.9" cy="27.5" r="6.62" transform="translate(148.9 253.82) rotate(-73.66)"/><path class="cls-3" d="M210.07,67.47a10.59,10.59,0,1,1-7.32-13.07A10.59,10.59,0,0,1,210.07,67.47Z"/><circle class="cls-5" cx="181.78" cy="40.22" r="8.24" transform="translate(35.23 155.04) rotate(-50.55)"/><path class="cls-5" d="M235.35,47.88A9.47,9.47,0,1,1,228.8,36.2,9.47,9.47,0,0,1,235.35,47.88Z"/><path class="cls-1" d="M211.86,24.46a12.24,12.24,0,0,1-10.69-6.25,12.23,12.23,0,1,1,22.44-2.67h0a12.25,12.25,0,0,1-11.75,8.92Zm0-23a10.72,10.72,0,0,0-9.36,16,10.72,10.72,0,0,0,19.68-2.33h0A10.74,10.74,0,0,0,214.75,1.9,10.86,10.86,0,0,0,211.84,1.5Z"/><path class="cls-1" d="M255.38,71.05a11.8,11.8,0,0,1-3.31-.46,12.22,12.22,0,1,1,6.63-23.53,12.23,12.23,0,0,1,8.45,15.08h0A12.23,12.23,0,0,1,255.38,71.05Zm0-23a10.76,10.76,0,1,0,2.92.41A10.83,10.83,0,0,0,255.37,48.09Zm11.06,13.85h0Z"/><path class="cls-1" d="M242.42,37.11a7.72,7.72,0,0,1-2-.27,7.38,7.38,0,0,1-4.43-3.5,7.29,7.29,0,0,1-.66-5.6,7.37,7.37,0,0,1,14.19,4h0a7.35,7.35,0,0,1-3.5,4.43A7.24,7.24,0,0,1,242.42,37.11Zm0-13.24a5.87,5.87,0,0,0-5.12,8.74,5.87,5.87,0,0,0,10.77-1.28h0a5.87,5.87,0,0,0-5.65-7.46Z"/><path class="cls-1" d="M199.87,73.7a11.35,11.35,0,1,1,10.92-8.27h0A11.35,11.35,0,0,1,199.87,73.7Zm0-21.19A9.84,9.84,0,1,0,209.35,65h0a9.84,9.84,0,0,0-9.47-12.52Z"/><path class="cls-1" d="M183.37,49.53a8.91,8.91,0,0,1-2.43-.34A9,9,0,1,1,192,43h0A9,9,0,0,1,183.37,49.53Zm0-16.49a7.52,7.52,0,1,0,2,.29A7.17,7.17,0,0,0,183.38,33Zm7.93,9.73h0Z"/><path class="cls-1" d="M226.25,53a10.23,10.23,0,1,1,9.82-7.46h0A10.23,10.23,0,0,1,226.25,53Zm0-19a8.73,8.73,0,1,0,2.36.33A8.75,8.75,0,0,0,226.24,34.05Zm9.11,11.29h0Z"/><path class="cls-2" d="M182.77,36.74a1.8,1.8,0,1,1-1.8-1.8A1.81,1.81,0,0,1,182.77,36.74Z"/><circle class="cls-2" cx="197.09" cy="58.28" r="1.8"/><path class="cls-2" d="M250.83,56.48a1.8,1.8,0,1,1-1.8-1.8A1.8,1.8,0,0,1,250.83,56.48Z"/><path class="cls-2" d="M224.33,39.4a1.54,1.54,0,1,1-1.54-1.53A1.53,1.53,0,0,1,224.33,39.4Z"/><path class="cls-2" d="M209.1,7.11a1.8,1.8,0,1,1-1.79-1.8A1.8,1.8,0,0,1,209.1,7.11Z"/><path class="cls-2" d="M242.81,27.22A1.25,1.25,0,1,1,241.56,26,1.25,1.25,0,0,1,242.81,27.22Z"/><path class="cls-1" d="M181,39.29a2.55,2.55,0,1,1,2.55-2.55A2.55,2.55,0,0,1,181,39.29Zm0-3.6A1,1,0,1,0,182,36.74,1,1,0,0,0,181,35.69Z"/><path class="cls-1" d="M197.09,60.82a2.55,2.55,0,1,1,2.55-2.54A2.54,2.54,0,0,1,197.09,60.82Zm0-3.59a1,1,0,1,0,1,1.05A1,1,0,0,0,197.09,57.23Z"/><path class="cls-1" d="M249,59a2.55,2.55,0,1,1,2.55-2.55A2.55,2.55,0,0,1,249,59Zm0-3.6a1.05,1.05,0,1,0,1.05,1A1,1,0,0,0,249,55.43Z"/><path class="cls-1" d="M222.79,41.68a2.28,2.28,0,1,1,2.28-2.28A2.28,2.28,0,0,1,222.79,41.68Zm0-3.06a.78.78,0,0,0,0,1.56.78.78,0,1,0,0-1.56Z"/><path class="cls-1" d="M207.31,9.65a2.55,2.55,0,1,1,2.54-2.54A2.55,2.55,0,0,1,207.31,9.65Zm0-3.59a1.05,1.05,0,1,0,1,1.05A1,1,0,0,0,207.31,6.06Z"/><path class="cls-1" d="M241.56,29.22a2,2,0,1,1,2-2A2,2,0,0,1,241.56,29.22Zm0-2.5a.5.5,0,0,0-.5.5.5.5,0,0,0,.5.5.51.51,0,0,0,.5-.5A.5.5,0,0,0,241.56,26.72Z"/><path class="cls-2" d="M192.5,128.54h27a0,0,0,0,1,0,0V153a6.49,6.49,0,0,1-6.49,6.49H199A6.49,6.49,0,0,1,192.5,153V128.54A0,0,0,0,1,192.5,128.54Z"/><path class="cls-5" d="M218.08,161.75h-20c-1.76,0-3.18-3.26-3.18-7.27v-8.8h26.35c.07,3,.06,5.54,0,7.57,0,2.81.61,4.62-.53,6.36A6.09,6.09,0,0,1,218.08,161.75Z"/><path class="cls-2" d="M219.45,128.54H192.5l-.83-2.87c-.19-.66.15-1.39.65-1.39h27.3c.5,0,.84.73.65,1.39Z"/><path class="cls-1" d="M214.59,160.22H197.36a5.61,5.61,0,0,1-5.61-5.61V128.54a.74.74,0,0,1,.75-.75h26.95a.75.75,0,0,1,.75.75v26.07A5.61,5.61,0,0,1,214.59,160.22Zm-21.34-30.93v25.32a4.11,4.11,0,0,0,4.11,4.11h17.23a4.12,4.12,0,0,0,4.11-4.11V129.29Z"/><path class="cls-1" d="M219.45,129.29H192.5a.74.74,0,0,1-.72-.55l-.83-2.86a2.05,2.05,0,0,1,.3-1.78,1.35,1.35,0,0,1,1.07-.57h27.3a1.35,1.35,0,0,1,1.07.57,2.06,2.06,0,0,1,.3,1.78l-.82,2.86A.76.76,0,0,1,219.45,129.29Zm-26.39-1.5h25.82l.67-2.32a.67.67,0,0,0,0-.44h-27.1a.67.67,0,0,0,0,.44Z"/><rect class="cls-1" x="200.06" y="132.04" width="1.77" height="22.1" rx="0.75"/><path class="cls-1" d="M214.2,136H200.94a.75.75,0,0,1,0-1.5H214.2a.75.75,0,0,1,0,1.5Z"/><path class="cls-1" d="M208.22,139.1h-7.14a.75.75,0,1,1,0-1.49h7.14a.75.75,0,1,1,0,1.49Z"/><path class="cls-1" d="M214.33,142.28H201.08a.75.75,0,0,1,0-1.5h13.25a.75.75,0,0,1,0,1.5Z"/><path class="cls-1" d="M208.36,145.41h-7.15a.75.75,0,0,1,0-1.5h7.15a.75.75,0,0,1,0,1.5Z"/><path class="cls-1" d="M214.47,148.58H201.21a.75.75,0,0,1,0-1.5h13.26a.75.75,0,0,1,0,1.5Z"/><path class="cls-1" d="M208.5,151.71h-7.15a.75.75,0,0,1,0-1.5h7.15a.75.75,0,0,1,0,1.5Z"/><rect class="cls-2" x="220.29" y="99.07" width="16.44" height="5.11" rx="2.17"/><path class="cls-2" d="M247.2,154.83l-12.83-36.37V104.17H222.64v14.29l-12.83,36.37c-.86,2.45.61,5.17,2.8,5.17h31.8C246.59,160,248.06,157.28,247.2,154.83Z"/><path class="cls-3" d="M244.22,137.82H218.75l-6.68,20.27a3.42,3.42,0,0,0,2.89,4.79h32.87a3.42,3.42,0,0,0,2.88-4.79Z"/><path class="cls-1" d="M244.41,160.75h-31.8a3.57,3.57,0,0,1-2.92-1.6,5.08,5.08,0,0,1-.58-4.57l12.78-36.25V104.17a.75.75,0,0,1,.75-.74h11.73a.75.75,0,0,1,.75.74v14.16l12.79,36.25h0a5.12,5.12,0,0,1-.59,4.57A3.57,3.57,0,0,1,244.41,160.75Zm-21-55.83v13.54a.73.73,0,0,1,0,.25l-12.83,36.37a3.59,3.59,0,0,0,.4,3.21,2.1,2.1,0,0,0,1.69,1h31.8a2.09,2.09,0,0,0,1.68-1,3.56,3.56,0,0,0,.4-3.21l-12.83-36.37a.73.73,0,0,1,0-.25V104.92Z"/><path class="cls-1" d="M235.1,104.92H221.92a2.37,2.37,0,0,1-2.38-2.37V100.7a2.37,2.37,0,0,1,2.38-2.38H235.1a2.37,2.37,0,0,1,2.37,2.38v1.85A2.37,2.37,0,0,1,235.1,104.92Zm-13.18-5.1a.87.87,0,0,0-.88.88v1.85a.88.88,0,0,0,.88.88H235.1a.89.89,0,0,0,.88-.88V100.7a.88.88,0,0,0-.88-.88Z"/></g></g></svg>