<svg xmlns="http://www.w3.org/2000/svg" viewBox="0 0 284.68 158.82"><defs><style>.cls-1{fill:#fff;}.cls-2{fill:#c7a6cc;}.cls-3{fill:#f0a74d;}.cls-4{fill:#49194f;}.cls-5{opacity:0.49;}</style></defs><g id="Layer_2" data-name="Layer 2"><g id="_1" data-name="1"><rect class="cls-1" x="198.54" y="0.75" width="39.53" height="15.31"/><rect class="cls-2" x="197.19" y="2.37" width="39.53" height="15.31"/><rect class="cls-1" x="206" y="33.49" width="24.61" height="13.72"/><rect class="cls-3" x="207.86" y="31.1" width="24.51" height="13.43"/><rect class="cls-1" x="168.11" y="33.49" width="24.61" height="13.72"/><rect class="cls-3" x="169.74" y="32.76" width="24.61" height="13.14"/><rect class="cls-1" x="243.89" y="33.49" width="24.61" height="13.72"/><rect class="cls-3" x="245.45" y="32.18" width="24.61" height="13.72"/><rect class="cls-1" x="250.49" y="67.05" width="11.4" height="9.01"/><rect class="cls-1" x="267.48" y="67.05" width="11.4" height="9.01"/><rect class="cls-1" x="232.37" y="67.05" width="11.4" height="9.01"/><rect class="cls-3" x="252.05" y="65.63" width="11.4" height="9.01"/><rect class="cls-2" x="265.78" y="68.33" width="11.4" height="9.01"/><rect class="cls-2" x="231.02" y="68.33" width="11.4" height="9.01"/><path class="cls-4" d="M238.07,16.81H198.54a.76.76,0,0,1-.75-.75V.75a.75.75,0,0,1,.75-.75h39.53a.75.75,0,0,1,.75.75V16.06A.76.76,0,0,1,238.07,16.81Zm-38.78-1.5h38V1.5h-38Z"/><path class="cls-4" d="M230.61,48H206a.75.75,0,0,1-.75-.75V33.49a.75.75,0,0,1,.75-.75h24.61a.75.75,0,0,1,.75.75V47.2A.75.75,0,0,1,230.61,48Zm-23.86-1.5h23.11V34.24H206.75Z"/><path class="cls-4" d="M192.72,48H168.11a.74.74,0,0,1-.74-.75V33.49a.74.74,0,0,1,.74-.75h24.61a.74.74,0,0,1,.75.75V47.2A.74.74,0,0,1,192.72,48Zm-23.86-1.5H192V34.24H168.86Z"/><path class="cls-4" d="M268.5,48H243.89a.74.74,0,0,1-.75-.75V33.49a.74.74,0,0,1,.75-.75H268.5a.74.74,0,0,1,.74.75V47.2A.74.74,0,0,1,268.5,48Zm-23.86-1.5h23.11V34.24H244.64Z"/><path class="cls-4" d="M261.89,76.81h-11.4a.75.75,0,0,1-.75-.75v-9a.76.76,0,0,1,.75-.75h11.4a.75.75,0,0,1,.75.75v9A.74.74,0,0,1,261.89,76.81Zm-10.65-1.49h9.91V67.8h-9.91Z"/><path class="cls-4" d="M278.89,76.81H267.48a.75.75,0,0,1-.75-.75v-9a.76.76,0,0,1,.75-.75h11.41a.76.76,0,0,1,.75.75v9A.75.75,0,0,1,278.89,76.81Zm-10.66-1.49h9.91V67.8h-9.91Z"/><path class="cls-4" d="M243.77,76.81h-11.4a.74.74,0,0,1-.75-.75v-9a.75.75,0,0,1,.75-.75h11.4a.75.75,0,0,1,.75.75v9A.74.74,0,0,1,243.77,76.81Zm-10.65-1.49H243V67.8h-9.9Z"/><path class="cls-4" d="M218.3,25a.75.75,0,0,1-.74-.75V16.06a.75.75,0,1,1,1.49,0v8.19A.75.75,0,0,1,218.3,25Z"/><path class="cls-4" d="M218.3,34.24a.75.75,0,0,1-.74-.75V24.25a.75.75,0,1,1,1.49,0v9.24A.75.75,0,0,1,218.3,34.24Z"/><path class="cls-4" d="M256.19,34.24a.76.76,0,0,1-.75-.75V25H181.17v8.49a.75.75,0,1,1-1.5,0V24.25a.74.74,0,0,1,.75-.75h75.77a.74.74,0,0,1,.75.75v9.24A.75.75,0,0,1,256.19,34.24Z"/><path class="cls-4" d="M256.19,67.35a.75.75,0,0,1-.75-.75V47.65a.75.75,0,1,1,1.5,0V66.6A.74.74,0,0,1,256.19,67.35Z"/><path class="cls-4" d="M273.18,67.35a.74.74,0,0,1-.74-.75V60.41H238.82V66.6a.75.75,0,0,1-1.5,0V59.66a.76.76,0,0,1,.75-.75h35.11a.75.75,0,0,1,.75.75V66.6A.74.74,0,0,1,273.18,67.35Z"/><path class="cls-4" d="M234.44,6.7H210.52a.75.75,0,0,1,0-1.5h23.92a.75.75,0,0,1,0,1.5Z"/><path class="cls-4" d="M229.25,10.78H220a.75.75,0,0,1,0-1.5h9.24a.75.75,0,0,1,0,1.5Z"/><path class="cls-4" d="M227.28,38.57H217a.75.75,0,0,1,0-1.5h10.33a.75.75,0,1,1,0,1.5Z"/><path class="cls-4" d="M189.37,37.91H170.09a.75.75,0,1,1,0-1.49h19.28a.75.75,0,1,1,0,1.49Z"/><path class="cls-4" d="M255.63,37.91h-8a.75.75,0,1,1,0-1.49h8a.75.75,0,1,1,0,1.49Z"/><path class="cls-4" d="M266.3,37.91h-6.41a.75.75,0,1,1,0-1.49h6.41a.75.75,0,1,1,0,1.49Z"/><path class="cls-4" d="M266.69,42.92h-16.2a.75.75,0,0,1,0-1.5h16.2a.75.75,0,0,1,0,1.5Z"/><path class="cls-4" d="M239.89,70.89h-5a.75.75,0,0,1,0-1.5h5a.75.75,0,0,1,0,1.5Z"/><path class="cls-4" d="M259.89,70.89H252.7a.75.75,0,0,1,0-1.5h7.19a.75.75,0,0,1,0,1.5Z"/><path class="cls-4" d="M259.37,73.58h-3.74a.75.75,0,1,1,0-1.49h3.74a.75.75,0,1,1,0,1.49Z"/><path class="cls-4" d="M275.71,70.89h-5.65a.75.75,0,0,1,0-1.5h5.65a.75.75,0,0,1,0,1.5Z"/><path class="cls-4" d="M274.28,74.39h-2a.75.75,0,0,1,0-1.5h2a.75.75,0,0,1,0,1.5Z"/><rect class="cls-4" y="144.3" width="284.68" height="14.52"/><path class="cls-4" d="M103.5,34.54a1.44,1.44,0,0,1-.57-.11,1.5,1.5,0,0,1-.82-2,15.64,15.64,0,0,1,20.37-8.59,1.5,1.5,0,0,1-1.13,2.78,12.63,12.63,0,0,0-16.46,6.94A1.5,1.5,0,0,1,103.5,34.54Z"/><path class="cls-4" d="M95.38,31.24a1.4,1.4,0,0,1-.56-.11A1.49,1.49,0,0,1,94,29.18a24.39,24.39,0,0,1,31.78-13.4,1.5,1.5,0,0,1-1.13,2.77A21.41,21.41,0,0,0,96.77,30.31,1.48,1.48,0,0,1,95.38,31.24Z"/><path class="cls-4" d="M86.6,27.67a1.55,1.55,0,0,1-.56-.11,1.51,1.51,0,0,1-.83-2A33.91,33.91,0,0,1,129.36,7a1.5,1.5,0,1,1-1.13,2.77A30.91,30.91,0,0,0,88,26.73,1.51,1.51,0,0,1,86.6,27.67Z"/><rect class="cls-1" x="87.65" y="44" width="147.73" height="85.53"/><rect class="cls-2" x="84.82" y="41.41" width="147.73" height="88.12"/><rect class="cls-1" x="92.99" y="51.65" width="135.52" height="77.89"/><rect class="cls-1" x="72.63" y="129.53" width="177.76" height="14.91"/><rect class="cls-2" x="72.63" y="132.05" width="177.76" height="14.91"/><path class="cls-4" d="M235.37,130.28H87.65a.75.75,0,0,1-.75-.75V44a.74.74,0,0,1,.75-.74H235.37a.74.74,0,0,1,.75.74v85.53A.75.75,0,0,1,235.37,130.28Zm-147-1.5H234.62v-84H88.39Z"/><path class="cls-4" d="M228.5,130.28h-134a.76.76,0,0,1-.75-.75V53.92a.76.76,0,0,1,.75-.75h134a.75.75,0,0,1,.75.75v75.61A.75.75,0,0,1,228.5,130.28Zm-133.24-1.5h132.5V54.67H95.26Z"/><path class="cls-4" d="M250.39,145.19H72.63a.74.74,0,0,1-.75-.75V129.53a.75.75,0,0,1,.75-.75H250.39a.76.76,0,0,1,.75.75v14.91A.75.75,0,0,1,250.39,145.19Zm-177-1.5H249.64V130.28H73.38Z"/><path class="cls-1" d="M165.57,48.23a2.83,2.83,0,1,1-2.83-2.82A2.83,2.83,0,0,1,165.57,48.23Z"/><path class="cls-4" d="M161.51,52.39a3.57,3.57,0,1,1,3.57-3.57A3.58,3.58,0,0,1,161.51,52.39Zm0-5.64a2.08,2.08,0,1,0,2.07,2.07A2.08,2.08,0,0,0,161.51,46.75Z"/><rect class="cls-4" x="100.48" y="64.34" width="5.13" height="5.13"/><rect class="cls-3" x="110.17" y="62.82" width="21.74" height="5.13" transform="translate(242.08 130.76) rotate(180)"/><path class="cls-4" d="M130.9,70.21H109.16a.74.74,0,0,1-.75-.75V64.34a.74.74,0,0,1,.75-.75H130.9a.75.75,0,0,1,.75.75v5.12A.75.75,0,0,1,130.9,70.21Zm-21-1.5h20.25V65.08H109.9Z"/><rect class="cls-2" x="135.45" y="65.38" width="12.89" height="5.13"/><path class="cls-4" d="M147,70.21H134.13a.74.74,0,0,1-.74-.75V64.34a.74.74,0,0,1,.74-.75H147a.75.75,0,0,1,.75.75v5.12A.75.75,0,0,1,147,70.21Zm-12.14-1.5h11.39V65.08H134.88Z"/><rect class="cls-4" x="100.48" y="82.91" width="5.13" height="5.13"/><rect class="cls-3" x="107.7" y="81.1" width="33.78" height="5.13" transform="translate(249.17 167.32) rotate(180)"/><rect class="cls-2" x="145.89" y="84.2" width="66.96" height="5.13" transform="translate(358.74 173.54) rotate(180)"/><rect class="cls-2" x="110.17" y="72.61" width="28.83" height="5.13" transform="translate(249.17 150.35) rotate(180)"/><rect class="cls-2" x="143.48" y="75.18" width="18.03" height="5.13"/><rect class="cls-3" x="165.34" y="72.61" width="24.12" height="5.13" transform="translate(354.81 150.35) rotate(180)"/><path class="cls-4" d="M142.93,88.78H109.16a.74.74,0,0,1-.75-.75V82.91a.74.74,0,0,1,.75-.75h33.77a.74.74,0,0,1,.75.75V88A.74.74,0,0,1,142.93,88.78Zm-33-1.5h32.28V83.66H109.9Z"/><path class="cls-4" d="M214,88.78H147a.75.75,0,0,1-.75-.75V82.91a.75.75,0,0,1,.75-.75h67a.74.74,0,0,1,.75.75V88A.74.74,0,0,1,214,88.78Zm-66.21-1.5h65.46V83.66H147.77Z"/><path class="cls-4" d="M138,80H109.16a.75.75,0,0,1-.75-.75V74.08a.75.75,0,0,1,.75-.75H138a.76.76,0,0,1,.75.75v5.13A.76.76,0,0,1,138,80Zm-28.09-1.5h27.34V74.83H109.9Z"/><path class="cls-4" d="M159.92,80h-18a.76.76,0,0,1-.75-.75V74.08a.76.76,0,0,1,.75-.75h18a.76.76,0,0,1,.75.75v5.13A.76.76,0,0,1,159.92,80Zm-17.28-1.5h16.53V74.83H142.64Z"/><path class="cls-4" d="M188.45,80H164.33a.76.76,0,0,1-.75-.75V74.08a.76.76,0,0,1,.75-.75h24.12a.75.75,0,0,1,.75.75v5.13A.75.75,0,0,1,188.45,80Zm-23.37-1.5H187.7V74.83H165.08Z"/><path class="cls-4" d="M223,99.7H109.16a.75.75,0,0,1,0-1.5H223a.75.75,0,0,1,0,1.5Z"/><path class="cls-4" d="M223,110.65H188.45a.75.75,0,1,1,0-1.49H223a.75.75,0,1,1,0,1.49Z"/><path class="cls-4" d="M155.92,122.6H109.16a.75.75,0,0,1,0-1.5h46.76a.75.75,0,0,1,0,1.5Z"/><path class="cls-1" d="M68,140.66s9.68,3.42,10,4.68a3.23,3.23,0,0,1,0,1.85l-16-.44s-.06-3.65.54-4.35a6.77,6.77,0,0,0,1-1.74Z"/><path class="cls-2" d="M68,142.61s9.68,3.43,10,4.68a3.23,3.23,0,0,1,0,1.85l-16-.43s-.06-3.65.54-4.36a6.6,6.6,0,0,0,1-1.74Z"/><path class="cls-4" d="M77.92,147.94h0L62,147.5a.76.76,0,0,1-.73-.74c0-1.46,0-4,.72-4.85a5.77,5.77,0,0,0,.85-1.51.74.74,0,0,1,.7-.49H68a.73.73,0,0,1,.25,0c6.68,2.37,10.2,4.13,10.44,5.23a3.86,3.86,0,0,1-.05,2.32A.76.76,0,0,1,77.92,147.94ZM62.72,146l14.57.4a4.45,4.45,0,0,0-.09-.85c-.62-.74-5.28-2.71-9.37-4.17H64a7,7,0,0,1-.9,1.48A10,10,0,0,0,62.72,146Z"/><path class="cls-1" d="M55.11,82.33S68,104.86,68.32,106.11s1.11,34.08,1.11,34.08-1.8,2.08-3.89,1.81a10.27,10.27,0,0,1-3.79-1.39L58.86,110,37.73,83.86Z"/><path class="cls-3" d="M56.19,84.84c1.37,2.59,3.28,6.25,5.46,10.72,3.61,7.39,4.24,9.35,4.5,10.2,1.22,4,1.35,7.08,1.44,14.28.08,6,.09,12.8,0,20.2A4.2,4.2,0,0,1,63.92,142a9.45,9.45,0,0,1-3.56-1.35L57.64,111,37.73,85.68Z"/><path class="cls-4" d="M65.93,142.77l-.49,0a11,11,0,0,1-4.1-1.51.73.73,0,0,1-.33-.55L58.14,110.3l-21-26a.75.75,0,0,1-.1-.76.71.71,0,0,1,.62-.45L55,81.59a.74.74,0,0,1,.72.37c3.05,5.31,13,22.73,13.29,24s1,28.73,1.13,34.22a.73.73,0,0,1-.18.51A6.19,6.19,0,0,1,65.93,142.77Zm-3.47-2.62a9.23,9.23,0,0,0,3.18,1.1,4.11,4.11,0,0,0,3-1.36c-.33-13-.89-32.53-1.09-33.62S59.79,92,54.7,83.12L39.19,84.48l20.26,25.06a.71.71,0,0,1,.16.4Z"/><polygon class="cls-1" points="49.66 30.87 49 43.08 57.36 42.68 54.9 31.27 49.66 30.87"/><path class="cls-4" d="M49,43.82a.75.75,0,0,1-.75-.79l.66-12.2a.77.77,0,0,1,.26-.53.72.72,0,0,1,.55-.18l5.24.4a.76.76,0,0,1,.67.59l2.46,11.41a.76.76,0,0,1-.13.62.77.77,0,0,1-.56.29L49,43.82Zm1.37-12.15-.58,10.62L56.44,42,54.29,32Z"/><path class="cls-1" d="M23.73,137.45s4.1,9.42,3.37,10.47a3.21,3.21,0,0,1-1.35,1.27l-10.56-12s2.63-2.53,3.55-2.57a6.91,6.91,0,0,0,1.94-.47Z"/><path class="cls-2" d="M22.44,138.57s4.11,9.42,3.38,10.48a3.2,3.2,0,0,1-1.36,1.26L13.9,138.36s2.63-2.53,3.56-2.58a6.65,6.65,0,0,0,1.94-.47Z"/><path class="cls-4" d="M25.75,149.94a.73.73,0,0,1-.56-.26l-10.56-12a.75.75,0,0,1,0-1c1.06-1,3-2.73,4-2.78a6,6,0,0,0,1.69-.41.74.74,0,0,1,.84.18l3.05,3.26a1.1,1.1,0,0,1,.14.21c2.83,6.5,3.94,10.27,3.3,11.2A3.87,3.87,0,0,1,26,149.9,1,1,0,0,1,25.75,149.94Zm-9.52-12.66,9.65,10.93a4,4,0,0,0,.56-.65c.12-.95-1.62-5.71-3.35-9.69l-2.62-2.81a6.69,6.69,0,0,1-1.69.35A10.22,10.22,0,0,0,16.23,137.28Z"/><path class="cls-1" d="M52.93,83.72s-3.14,29.76-4.16,32.55-23.7,22-23.7,22-4.73-.42-5.84-4.31l20.58-21.75L37.73,85.11Z"/><path class="cls-3" d="M51.16,83.72s-3,28.59-4,31.27S24.31,136.1,24.31,136.1s-4.55-.41-5.62-4.15l19.82-20.89-2-26Z"/><path class="cls-4" d="M25.07,139H25c-.21,0-5.25-.52-6.49-4.85a.75.75,0,0,1,.17-.73L39,111.9,37,85.17a.74.74,0,0,1,.68-.8L52.87,83a.72.72,0,0,1,.6.22.75.75,0,0,1,.21.6c-.13,1.22-3.16,29.89-4.21,32.73s-21.58,20.3-23.92,22.28A.72.72,0,0,1,25.07,139Zm-5-4.87c1,2.49,3.83,3.17,4.76,3.33,8.72-7.39,22.53-19.57,23.22-21.44.79-2.14,3.09-22.62,4-31.46L38.53,85.79l2,26.33a.78.78,0,0,1-.2.57Z"/><path class="cls-4" d="M62.93,28.79a2.13,2.13,0,0,0-.17-2.26.77.77,0,0,1-.22-.29c-.06-.25.16-.47.34-.64a2.81,2.81,0,0,0,.7-2.58,2.52,2.52,0,0,0-1.8-1.85c-.69-.16-1.46,0-2.09-.35s-.94-1.2-1.44-1.79a4.26,4.26,0,0,0-1.34-1,3,3,0,0,0-1.11-.38,2.48,2.48,0,0,0-1.39.46,14.68,14.68,0,0,1-2,1.36c-.63.27-.7.07-2.78.15A6.35,6.35,0,0,0,47,20a3.42,3.42,0,0,0-1.68,1.63c-.47,1.1.19,1.61.1,3.36-.1,1.94-.93,2-.92,3.93a5.62,5.62,0,0,0,.81,3,3.89,3.89,0,0,0,1.52,1.49,5.84,5.84,0,0,0,3,.12,23.24,23.24,0,0,1,4.24.33,7.59,7.59,0,0,0,4.19-.49,7.66,7.66,0,0,0,2.09-1.69c.29-.32.56-.66.85-1s.52-.47.78-.72A4.31,4.31,0,0,0,62.93,28.79Z"/><path class="cls-1" d="M48.88,40c-.2.19-.5.47-.85.82-5.34,5.43-7.05,11.92-8.36,18a209.4,209.4,0,0,0-3.89,27.4s13.63,3.89,20.86-2.51c.9-4.7,1.67-9,2.31-12.69,1.13-6.61,1.86-11.52,1.6-17.15a28.77,28.77,0,0,0-.66-5.18,27.16,27.16,0,0,0-2.36-6.41,10.77,10.77,0,0,1-1.68.19A11.09,11.09,0,0,1,48.88,40Z"/><path class="cls-3" d="M50.06,41.24c-.22.18-.53.45-.91.79-5.69,5.24-7.52,11.51-8.91,17.4a184.82,184.82,0,0,0-4.16,26.46s14.54,3.75,22.26-2.42c1-4.54,1.78-8.65,2.46-12.25,1.21-6.38,2-11.13,1.71-16.56a24.68,24.68,0,0,0-.7-5,24.16,24.16,0,0,0-2.53-6.19,10.73,10.73,0,0,1-1.79.18A12.52,12.52,0,0,1,50.06,41.24Z"/><path class="cls-4" d="M44.79,88.17A37.29,37.29,0,0,1,35.57,87a.76.76,0,0,1-.54-.78,208.31,208.31,0,0,1,3.91-27.5C40.28,52.4,42,45.82,47.5,40.28c.35-.37.66-.66.87-.85a.76.76,0,0,1,1,0,10.16,10.16,0,0,0,6.49,2.34,8.28,8.28,0,0,0,1.55-.18.77.77,0,0,1,.81.39,27.5,27.5,0,0,1,2.43,6.59,28.34,28.34,0,0,1,.68,5.32c.27,5.75-.5,10.8-1.62,17.31-.72,4.23-1.5,8.51-2.3,12.7a.8.8,0,0,1-.24.42C53.69,87.33,49,88.17,44.79,88.17Zm-8.22-2.51c2.63.62,13.34,2.77,19.38-2.33.79-4.11,1.55-8.29,2.26-12.43,1.1-6.41,1.86-11.38,1.59-17a26.66,26.66,0,0,0-.64-5.05,26,26,0,0,0-2-5.75,10.38,10.38,0,0,1-1.24.11A11.79,11.79,0,0,1,48.94,41l-.37.37C43.39,46.58,41.7,52.93,40.4,59A208.65,208.65,0,0,0,36.57,85.66Z"/><circle class="cls-1" cx="54.76" cy="28.68" r="6.84" transform="translate(14.75 75.79) rotate(-77.3)"/><path class="cls-4" d="M54.76,36.27h-.19a7.6,7.6,0,0,1-7.4-7.78h0a7.59,7.59,0,1,1,7.59,7.78Zm-6.09-7.74a6.1,6.1,0,0,0,5.94,6.24,6.1,6.1,0,0,0,6.24-5.94,6.09,6.09,0,1,0-12.18-.3Z"/><path class="cls-4" d="M50.79,25.87A4,4,0,0,1,51.44,24a.58.58,0,0,1,.27-.22.59.59,0,0,1,.37,0c.8.33,4.71,2.78,6.33,2.05.72-.33.72-1.17,1.2-1.11s.72.49,1.55,2.44a2,2,0,0,0,.39.71,4,4,0,0,0-.86-4.06,7.68,7.68,0,0,0-1.92-1.31,10.92,10.92,0,0,0-3.21-1.31,9,9,0,0,0-2.48,0,9.53,9.53,0,0,0-1.76.3,5.46,5.46,0,0,0-3.77,4.58,2.66,2.66,0,0,1,2.19,2.34,4.7,4.7,0,0,0,.09.92c.05.16.26.6.49.49s.16-.59.17-.79q0-1,.15-2.07Q50.7,26.44,50.79,25.87Z"/><path class="cls-1" d="M46.82,28.77a2,2,0,1,0,2.09-2A2,2,0,0,0,46.82,28.77Z"/><path class="cls-4" d="M57.17,26.92a.62.62,0,1,0,.62-.61A.61.61,0,0,0,57.17,26.92Z"/><path class="cls-4" d="M52.57,27.22a.6.6,0,0,0,.6.61.61.61,0,0,0,.62-.61.61.61,0,0,0-.61-.61A.6.6,0,0,0,52.57,27.22Z"/><path class="cls-4" d="M55.74,30.35a.38.38,0,0,1-.11-.74,2.68,2.68,0,0,0,.79-.33l0,0A8.92,8.92,0,0,0,55.73,28a.37.37,0,1,1,.61-.43,8.77,8.77,0,0,1,.8,1.39.44.44,0,0,1,.07.19.75.75,0,0,1-.35.73,3.69,3.69,0,0,1-1,.44Zm.74-1.05Z"/><path class="cls-4" d="M53.15,30.66a.38.38,0,0,1,.51-.13,3.37,3.37,0,0,0,.56.3,4.56,4.56,0,0,0,.52.18.37.37,0,0,1,.26.46.39.39,0,0,1-.47.26,3.9,3.9,0,0,1-1.25-.56A.38.38,0,0,1,53.15,30.66Z"/><g class="cls-5"><path class="cls-2" d="M54.07,28.91c0-.33-.82-.8-1.58-.57-.36.1-.82.39-.82.65s.67.48,1.18.46S54,29.2,54.07,28.91Z"/></g><g class="cls-5"><path class="cls-2" d="M60,28.35c0-.33-.82-.79-1.58-.57-.36.11-.82.4-.82.65s.67.49,1.18.47S59.93,28.65,60,28.35Z"/></g><path class="cls-1" d="M48,40.6l6.32,4.31c.11,1.5.22,3.72.2,6.41-.07,8.09-1.33,13.56-2.1,18.24a103.36,103.36,0,0,0-1.31,19.85,20,20,0,0,1-16.21-1.33,184.45,184.45,0,0,1,1.94-19.33A102.62,102.62,0,0,1,40.57,53a30.85,30.85,0,0,1,3.79-8A29.11,29.11,0,0,1,48,40.6Z"/><path class="cls-2" d="M46.8,40l5.74,4.31c.1,1.51.2,3.73.18,6.41A110.2,110.2,0,0,1,50.81,69a114.38,114.38,0,0,0-1.18,19.84,16.66,16.66,0,0,1-7.78,1,17,17,0,0,1-6.93-2.35c.34-8,1.09-14.53,1.76-19.33a109.85,109.85,0,0,1,3.37-15.72,32.45,32.45,0,0,1,3.43-8A29,29,0,0,1,46.8,40Z"/><path class="cls-4" d="M44.49,91.28q-1,0-2-.09a20.72,20.72,0,0,1-7.92-2.45.76.76,0,0,1-.39-.69,184.87,184.87,0,0,1,1.95-19.41A101.45,101.45,0,0,1,39.86,52.8a31.56,31.56,0,0,1,3.88-8.2,29.49,29.49,0,0,1,3.75-4.53.74.74,0,0,1,.95-.09l6.32,4.31a.75.75,0,0,1,.33.56c.15,2.14.22,4.32.2,6.48A89.08,89.08,0,0,1,53.61,67.2c-.15.86-.3,1.68-.44,2.49a104.08,104.08,0,0,0-1.29,19.7.74.74,0,0,1-.5.73A20.94,20.94,0,0,1,44.49,91.28Zm-8.8-3.63a19.3,19.3,0,0,0,14.68,1.22A104.69,104.69,0,0,1,51.7,69.44c.13-.81.28-1.64.43-2.51a85.42,85.42,0,0,0,1.66-15.62c0-2,0-4-.17-6l-5.51-3.75A28.19,28.19,0,0,0,45,45.44a29.54,29.54,0,0,0-3.69,7.83,99.31,99.31,0,0,0-3.69,15.6A184,184,0,0,0,35.69,87.65Z"/><path class="cls-1" d="M49.51,45.8H70.24a0,0,0,0,1,0,0V81.28A6.27,6.27,0,0,1,64,87.55H55.77a6.27,6.27,0,0,1-6.27-6.27V45.8a0,0,0,0,1,0,0Z" transform="translate(102.54 -12.13) rotate(70.36)"/><rect class="cls-1" x="66.93" y="58.08" width="20.73" height="4.76" transform="translate(108.25 -32.66) rotate(70.36)"/><rect class="cls-1" x="80.13" y="48.97" width="13.88" height="15.99" transform="translate(111.45 -44.18) rotate(70.36)"/><rect class="cls-1" x="66.93" y="58.08" width="20.73" height="4.76" transform="translate(108.25 -32.66) rotate(70.36)"/><path class="cls-3" d="M51.46,48.91H68.4a0,0,0,0,1,0,0V80.22a6.27,6.27,0,0,1-6.27,6.27h-4.4a6.27,6.27,0,0,1-6.27-6.27V48.91a0,0,0,0,1,0,0Z" transform="translate(103.54 -11.5) rotate(70.36)"/><path class="cls-4" d="M46.53,82.9a5.44,5.44,0,0,1-5.12-3.61h0L37.6,68.61a5.45,5.45,0,0,1,3.3-7L75.8,49.19a.75.75,0,0,1,1,.45l7,19.53a.73.73,0,0,1-.45,1L48.37,82.58A5.32,5.32,0,0,1,46.53,82.9Zm-3.71-4.12a3.95,3.95,0,0,0,5,2.39L82.06,69,75.6,50.85,41.4,63.06a4,4,0,0,0-2.39,5Z"/><path class="cls-4" d="M78.54,71.77a.71.71,0,0,1-.32-.07.78.78,0,0,1-.39-.43l-7-19.52a.73.73,0,0,1,0-.58.75.75,0,0,1,.42-.38l4.49-1.6a.73.73,0,0,1,1,.45l7,19.53a.73.73,0,0,1-.45,1l-4.48,1.61A1.09,1.09,0,0,1,78.54,71.77ZM72.52,52,79,70.06,82.06,69,75.6,50.85Z"/><path class="cls-4" d="M81.87,66.94a.78.78,0,0,1-.33-.07.8.8,0,0,1-.38-.43L76.5,53.37a.74.74,0,0,1,.45-.95L92,47a.75.75,0,0,1,1,.46l4.66,13.06a.73.73,0,0,1,0,.58.72.72,0,0,1-.42.38L82.12,66.9A.73.73,0,0,1,81.87,66.94ZM78.16,53.58l4.16,11.65L96,60.36,91.81,48.7Z"/><rect class="cls-4" x="86.22" y="51.71" width="3.25" height="3.74" transform="translate(108.77 -47.16) rotate(70.36)"/><rect class="cls-4" x="88.24" y="57.38" width="3.25" height="3.74" transform="translate(115.45 -45.3) rotate(70.36)"/><path class="cls-1" d="M71.62,70.13a18.07,18.07,0,0,0,3.21.27c.38-.16,2.28-2.25,2.68-2.46s1.61-1.31,1.93-1.16.7.46.48.73-2.51,2.09-2,2.68,3.39-.27,4-.86,1.56-3.11,1.88-3.11,1,0,.8.56a19.1,19.1,0,0,1-1.28,2.87s2-1.57,2.25-1.32.42.63.26.84-1.55,1.27-1.55,1.27a49.43,49.43,0,0,1-4.34,2.42c-.75.22-4.93.81-5.41.81s-2.89-.37-2.89-.37Z"/><path class="cls-4" d="M74.51,74.42c-.51,0-2.59-.32-3-.39a.74.74,0,0,1-.63-.74V70.14a.76.76,0,0,1,.86-.75,22.74,22.74,0,0,0,2.84.3c.17-.14.73-.7,1.11-1.08a8.41,8.41,0,0,1,1.48-1.33,4.4,4.4,0,0,0,.49-.36c.83-.62,1.48-1.11,2.1-.83a1.68,1.68,0,0,1,1,1,1,1,0,0,1-.19.88c-.06.07-.22.22-.44.43a12.75,12.75,0,0,0-1.23,1.22,6.25,6.25,0,0,0,2.53-.83,9.08,9.08,0,0,0,.88-1.53c.62-1.23.9-1.79,1.53-1.79a1.67,1.67,0,0,1,1.37.51,1.11,1.11,0,0,1,.15,1l-.24.64a.81.81,0,0,1,1,.2c.55.64.66,1.3.3,1.78A9.49,9.49,0,0,1,84.71,71a41.3,41.3,0,0,1-4.57,2.53A53.32,53.32,0,0,1,74.51,74.42Zm-2.14-1.77c1,.15,1.92.27,2.14.27.45,0,4.51-.57,5.2-.78A31.88,31.88,0,0,0,83,70.33a.72.72,0,0,1-.25-.18.83.83,0,0,1-.18-.42l-.12.13a7,7,0,0,1-3.94,1.27,1.52,1.52,0,0,1-1.14-.45c-.46-.53-.27-1.15.16-1.77l-.77.76a7.66,7.66,0,0,1-1.61,1.42c-.16.07-.49.21-2.76-.09Z"/><path class="cls-1" d="M72.22,69.81l-14.86-4s.11-18.36-1.83-20-5.57-2.92-7.93,1,0,22.67,1.17,24.48,23.45,3.47,23.45,3.47S73.33,73.57,72.22,69.81Z"/><path class="cls-2" d="M70.42,69.81l-12.88-4s.1-18.36-1.59-20-4.83-2.92-6.88,1,0,22.67,1,24.48,20.33,3.47,20.33,3.47S71.39,73.57,70.42,69.81Z"/><path class="cls-4" d="M72.22,75.43h-.06c-6.8-.51-22.75-1.9-24-3.81C46.71,69.47,44.53,50.34,47,46.34a5.53,5.53,0,0,1,3.87-2.87A6.58,6.58,0,0,1,56,45.19c.52.43,2.17,3.18,2.1,20l14.3,3.88a.74.74,0,0,1,.52.51c1.18,4,0,5.37-.18,5.61A.79.79,0,0,1,72.22,75.43ZM51.63,44.9a2.75,2.75,0,0,0-.57.05,4.11,4.11,0,0,0-2.82,2.17c-2.23,3.68.13,22.13,1.15,23.67,1,.94,12.12,2.32,22.41,3.11a6.12,6.12,0,0,0-.19-3.47L57.17,66.5a.75.75,0,0,1-.56-.72c0-8.63-.53-18.52-1.57-19.46A5.76,5.76,0,0,0,51.63,44.9Z"/></g></g></svg>