<svg xmlns="http://www.w3.org/2000/svg" viewBox="0 0 284.68 152.13"><defs><style>.cls-1{fill:#fff;}.cls-2{fill:#c7a6cc;}.cls-3{fill:#49194f;}.cls-4{fill:#f0a74d;}.cls-5{opacity:0.49;}</style></defs><g id="Layer_2" data-name="Layer 2"><g id="_1" data-name="1"><path class="cls-1" d="M196.31,39.4l-15.6-4.18L188,21.68l-4.6-1.76s-11.49,14.87-11.35,16.41a4.79,4.79,0,0,0,3,3.77c1.65.71,21.26,7.91,21.26,7.91Z"/><path class="cls-2" d="M198.45,39.4l-15.6-4.18,7.32-13.54-4.6-1.76s-11.49,14.87-11.35,16.41a4.79,4.79,0,0,0,3,3.77c1.65.71,21.26,7.91,21.26,7.91Z"/><path class="cls-3" d="M196.31,48.76a.6.6,0,0,1-.26,0c-.8-.29-19.65-7.21-21.3-7.92a5.57,5.57,0,0,1-3.42-4.4c-.14-1.58,7.15-11.29,11.5-16.93a.75.75,0,0,1,.86-.24L188.3,21a.76.76,0,0,1,.39,1.06l-6.87,12.7,14.69,3.93a.76.76,0,0,1,.55.73V48a.75.75,0,0,1-.32.62A.83.83,0,0,1,196.31,48.76ZM183.68,20.82C178.43,27.64,173,35.2,172.82,36.34a4.16,4.16,0,0,0,2.52,3.08c1.4.6,16.19,6,20.22,7.52V40l-15-4a.75.75,0,0,1-.5-.42.76.76,0,0,1,0-.66L187,22.07Z"/><path class="cls-1" d="M183.27,20.8s1.54-2.4,1.68-2.72-.25-3.42,0-3.67,5.59.12,5.59.12,1.08,2.55.64,3.25a10.47,10.47,0,0,1-2.64,2.48c-.42.1-1.47,2-1.47,2Z"/><path class="cls-1" d="M190.21,16.34a.63.63,0,0,1-.54.51c-.44,0-1.78-4-1.62-4.14s.81-.44,1.08-.16A30.25,30.25,0,0,1,190.21,16.34Z"/><path class="cls-1" d="M187.57,16.87a.63.63,0,0,1-.49.55c-.44.07-2.12-3.81-2-4s.77-.51,1-.25A29,29,0,0,1,187.57,16.87Z"/><path class="cls-1" d="M186.5,17.08a.55.55,0,0,1-.43.47c-.39.06-1.84-3.22-1.72-3.37s.68-.44.93-.21A24.33,24.33,0,0,1,186.5,17.08Z"/><path class="cls-1" d="M189.13,16.4s0,.51-.32.67-.61,0-.77,0a18,18,0,0,1-1.68-4.29,2.69,2.69,0,0,1,1.37-.35A37.11,37.11,0,0,1,189.13,16.4Z"/><path class="cls-1" d="M183.27,20.8s1.54-2.4,1.68-2.72-.25-3.42,0-3.67,5.59.12,5.59.12,1.08,2.55.64,3.25a10.47,10.47,0,0,1-2.64,2.48c-.42.1-1.47,2-1.47,2Z"/><path class="cls-1" d="M190.21,16.34a.63.63,0,0,1-.54.51c-.44,0-1.78-4-1.62-4.14s.81-.44,1.08-.16A30.25,30.25,0,0,1,190.21,16.34Z"/><path class="cls-1" d="M187.57,16.87a.63.63,0,0,1-.49.55c-.44.07-2.12-3.81-2-4s.77-.51,1-.25A29,29,0,0,1,187.57,16.87Z"/><path class="cls-1" d="M186.5,17.08a.55.55,0,0,1-.43.47c-.39.06-1.84-3.22-1.72-3.37s.68-.44.93-.21A24.33,24.33,0,0,1,186.5,17.08Z"/><path class="cls-1" d="M189.13,16.4s0,.51-.32.67-.61,0-.77,0a18,18,0,0,1-1.68-4.29,2.69,2.69,0,0,1,1.37-.35A37.11,37.11,0,0,1,189.13,16.4Z"/><path class="cls-3" d="M187.07,23a.63.63,0,0,1-.26-.05L183,21.5a.73.73,0,0,1-.45-.46.76.76,0,0,1,.08-.64c.67-1,1.4-2.22,1.59-2.56,0-.23,0-.82,0-1.26-.11-1.88-.11-2.35.23-2.7s.49-.5,6.19-.09a.73.73,0,0,1,.63.45c.46,1.09,1.15,3,.58,3.94a11.15,11.15,0,0,1-3,2.77,9.16,9.16,0,0,0-1.11,1.65A.76.76,0,0,1,187.07,23Zm-2.67-2.55,2.34.88c.91-1.51,1.35-1.71,1.58-1.77a11.76,11.76,0,0,0,2.23-2.16,6.3,6.3,0,0,0-.53-2.13c-1.71-.12-3.56-.19-4.41-.18,0,.4,0,1,.06,1.42.08,1.28.09,1.61,0,1.88S184.91,19.62,184.4,20.43Zm4-.9Z"/><path class="cls-3" d="M189.66,17.6c-.6,0-.94-.62-1.23-1.26-.48-1.05-1.53-3.54-.91-4.16a2.1,2.1,0,0,1,1.31-.5,1.15,1.15,0,0,1,.85.37c.13.14.39.43,1.26,4.12a.69.69,0,0,1,0,.32,1.36,1.36,0,0,1-1.22,1.1ZM188.51,13Z"/><path class="cls-3" d="M187.05,18.17c-.56,0-.92-.55-1.26-1.16-.57-1-1.82-3.39-1.26-4.05a2,2,0,0,1,1.27-.61,1.12,1.12,0,0,1,.87.29c.14.13.43.4,1.61,4a.67.67,0,0,1,0,.31,1.38,1.38,0,0,1-1.13,1.21Z"/><path class="cls-3" d="M186,18.3c-.56,0-.92-.57-1.28-1.21-1.53-2.76-1.15-3.19-1-3.4a1.87,1.87,0,0,1,1.16-.55,1,1,0,0,1,.83.27c.14.12.39.35,1.43,3.43a.75.75,0,0,1,0,.33,1.3,1.3,0,0,1-1.07,1.12Z"/><path class="cls-3" d="M188.52,17.89a2.36,2.36,0,0,1-.47-.06c-.55,0-.73-.26-1.56-2.27-1.12-2.71-1-3-.66-3.31a3.06,3.06,0,0,1,2.12-.54c.43.14.57.18,1.89,4.47a.63.63,0,0,1,0,.27,1.62,1.62,0,0,1-.7,1.27A1.31,1.31,0,0,1,188.52,17.89Zm-1.31-4.65c.16.49.46,1.27.75,1.95-.26-.8-.51-1.54-.67-2Z"/><path class="cls-3" d="M187.07,23a.63.63,0,0,1-.26-.05L183,21.5a.73.73,0,0,1-.45-.46.76.76,0,0,1,.08-.64c.67-1,1.4-2.22,1.59-2.56,0-.23,0-.82,0-1.26-.11-1.88-.11-2.35.23-2.7s.49-.5,6.19-.09a.73.73,0,0,1,.63.45c.46,1.09,1.15,3,.58,3.94a11.15,11.15,0,0,1-3,2.77,9.16,9.16,0,0,0-1.11,1.65A.76.76,0,0,1,187.07,23Zm-2.67-2.55,2.34.88c.91-1.51,1.35-1.71,1.58-1.77a11.76,11.76,0,0,0,2.23-2.16,6.3,6.3,0,0,0-.53-2.13c-1.71-.12-3.56-.19-4.41-.18,0,.4,0,1,.06,1.42.08,1.28.09,1.61,0,1.88S184.91,19.62,184.4,20.43Zm4-.9Z"/><path class="cls-3" d="M189.66,17.6c-.6,0-.94-.62-1.23-1.26-.48-1.05-1.53-3.54-.91-4.16a2.1,2.1,0,0,1,1.31-.5,1.15,1.15,0,0,1,.85.37c.13.14.39.43,1.26,4.12a.69.69,0,0,1,0,.32,1.36,1.36,0,0,1-1.22,1.1ZM188.51,13Z"/><path class="cls-3" d="M187.05,18.17c-.56,0-.92-.55-1.26-1.16-.57-1-1.82-3.39-1.26-4.05a2,2,0,0,1,1.27-.61,1.12,1.12,0,0,1,.87.29c.14.13.43.4,1.61,4a.67.67,0,0,1,0,.31,1.38,1.38,0,0,1-1.13,1.21Z"/><path class="cls-3" d="M186,18.3c-.56,0-.92-.57-1.28-1.21-1.53-2.76-1.15-3.19-1-3.4a1.87,1.87,0,0,1,1.16-.55,1,1,0,0,1,.83.27c.14.12.39.35,1.43,3.43a.75.75,0,0,1,0,.33,1.3,1.3,0,0,1-1.07,1.12Z"/><path class="cls-3" d="M188.52,17.89a2.36,2.36,0,0,1-.47-.06c-.55,0-.73-.26-1.56-2.27-1.12-2.71-1-3-.66-3.31a3.06,3.06,0,0,1,2.12-.54c.43.14.57.18,1.89,4.47a.63.63,0,0,1,0,.27,1.62,1.62,0,0,1-.7,1.27A1.31,1.31,0,0,1,188.52,17.89Zm-1.31-4.65c.16.49.46,1.27.75,1.95-.26-.8-.51-1.54-.67-2Z"/><path class="cls-1" d="M45.89,100.77s10.28,18.14,3.34,31.38H151.84V111.81c-8.6-5.86-24.66-13.37-46.88-17A116.78,116.78,0,0,0,45.89,100.77Z"/><path class="cls-2" d="M50.75,101.89S61,120,54.1,133.27H156.71V112.93c-8.61-5.86-24.67-13.37-46.89-17A116.71,116.71,0,0,0,50.75,101.89Z"/><path class="cls-3" d="M151.84,112.56a.75.75,0,0,1-.56-.25A119.94,119.94,0,0,0,120.56,89c-16.84-8.74-42.41-15.71-68.63.73a.75.75,0,1,1-.79-1.27c26.83-16.82,53-9.7,70.15-.77a121.63,121.63,0,0,1,31.11,23.58.75.75,0,0,1-.06,1.06A.73.73,0,0,1,151.84,112.56Z"/><path class="cls-3" d="M151.84,132.9H49.23a.74.74,0,0,1-.64-.36.76.76,0,0,1,0-.73c6.66-12.72-3.23-30.5-3.33-30.68a.75.75,0,0,1-.06-.62.77.77,0,0,1,.45-.45,117.43,117.43,0,0,1,59.44-5.94c26.15,4.21,41.72,13.34,47.19,17.07a.75.75,0,0,1,.33.62v20.34A.74.74,0,0,1,151.84,132.9ZM50.43,131.4H151.09V112.21c-5.67-3.8-20.91-12.53-46.25-16.61A115.91,115.91,0,0,0,47,101.17a54.18,54.18,0,0,1,3.93,10.13C53,119.05,52.85,126,50.43,131.4Z"/><path class="cls-3" d="M48,105.94a.75.75,0,0,1-.32-1.43c.2-.09,20.24-9.14,46.9-4.82a.74.74,0,0,1,.62.86.76.76,0,0,1-.86.62c-26.21-4.25-45.83,4.61-46,4.7A.87.87,0,0,1,48,105.94Z"/><path class="cls-3" d="M131.71,128.08h0L51.5,124.63a.74.74,0,0,1-.71-.78.75.75,0,0,1,.78-.71l80.17,3.44a.75.75,0,0,1,0,1.5Z"/><path class="cls-3" d="M116.4,114.65a.63.63,0,0,1-.19,0c-20.65-5.39-64.92,0-65.37,0A.74.74,0,0,1,50,114a.75.75,0,0,1,.65-.84c.45-.05,45-5.44,65.93,0a.75.75,0,0,1-.19,1.48Z"/><rect class="cls-1" x="44.33" y="132.85" width="215.01" height="4.76"/><path class="cls-1" d="M257.8,100.77s-10.28,18.14-3.35,31.38H151.84V111.81c8.61-5.86,24.67-13.37,46.89-17A116.82,116.82,0,0,1,257.8,100.77Z"/><path class="cls-2" d="M252.15,102.39s-9.73,17.21-3.17,29.76H151.84V112.87c8.15-5.56,23.35-12.69,44.39-16.08A110.53,110.53,0,0,1,252.15,102.39Z"/><path class="cls-3" d="M151.84,112.56a.76.76,0,0,1-.54-.23.75.75,0,0,1,0-1.06,120.23,120.23,0,0,1,31.11-19.93c17.17-7.54,43.27-13.55,70.06.65a.75.75,0,0,1-.7,1.32c-26.27-13.92-51.89-8-68.76-.6a118.63,118.63,0,0,0-30.68,19.65A.79.79,0,0,1,151.84,112.56Z"/><path class="cls-3" d="M254.45,132.9H151.84a.75.75,0,0,1-.75-.75V111.81a.78.78,0,0,1,.33-.62c5.48-3.73,21-12.86,47.19-17.07a117.46,117.46,0,0,1,59.45,5.94.75.75,0,0,1,.44.45.71.71,0,0,1-.05.62c-.1.18-10,18-3.33,30.68a.75.75,0,0,1-.67,1.09Zm-101.86-1.5H253.26c-2.43-5.43-2.59-12.35-.46-20.1a54.91,54.91,0,0,1,3.93-10.13,115.87,115.87,0,0,0-57.88-5.57c-25.35,4.08-40.59,12.81-46.26,16.61Z"/><path class="cls-3" d="M255.71,105.94a.88.88,0,0,1-.32-.07c-.19-.09-19.83-8.94-46-4.7a.75.75,0,0,1-.24-1.48c26.67-4.32,46.7,4.73,46.9,4.82a.75.75,0,0,1,.37,1A.77.77,0,0,1,255.71,105.94Z"/><path class="cls-3" d="M172,128.08a.75.75,0,0,1,0-1.5l80.17-3.44a.75.75,0,1,1,.06,1.49L172,128.08Z"/><path class="cls-3" d="M187.29,114.65a.75.75,0,0,1-.19-1.48c20.92-5.46,65.48-.07,65.92,0a.75.75,0,0,1,.65.84.73.73,0,0,1-.83.65c-.44,0-44.72-5.41-65.36,0Z"/><rect class="cls-3" y="137.61" width="284.68" height="14.52"/><rect class="cls-4" x="41.94" y="134.93" width="215.49" height="5.06"/><path class="cls-3" d="M259.34,138.36h-215a.74.74,0,0,1-.74-.75v-5.46a.75.75,0,0,1,.74-.75h215a.75.75,0,0,1,.75.75v5.46A.74.74,0,0,1,259.34,138.36Zm-214.26-1.5H258.59v-4H45.08Z"/><path class="cls-3" d="M159.22,116.22a.74.74,0,0,1-.62-.33.75.75,0,0,1,.2-1c.53-.35,13.08-8.73,23.07-10.4a.74.74,0,0,1,.86.61.76.76,0,0,1-.61.87c-9.67,1.62-22.35,10.08-22.48,10.17A.79.79,0,0,1,159.22,116.22Z"/><path class="cls-3" d="M140.24,122.9h-.13c-.19,0-18.78-3.4-28-2.66a.75.75,0,0,1-.12-1.49c9.38-.76,27.6,2.53,28.37,2.68a.75.75,0,0,1-.14,1.48Z"/><path class="cls-3" d="M145.22,115.53a.8.8,0,0,1-.3-.06c-.17-.07-17.13-7.53-26.34-9.55a.75.75,0,1,1,.32-1.46c9.36,2.05,25.93,9.33,26.63,9.64a.75.75,0,0,1-.31,1.43Z"/><path class="cls-1" d="M118,81.89l18.28-12.08,58-54.09-2.47-2.66,3.37,3.61,4.38-4.08-.89-1,3.5-3.27a1.17,1.17,0,0,0,.06-1.66l-3.35-3.59a1.17,1.17,0,0,0-1.66-.06l-3.5,3.27-.9-1L188.4,9.45l.89,1-58,54.09Z"/><path class="cls-2" d="M194.23,1.67h7.26a0,0,0,0,1,0,0v4.4a1.57,1.57,0,0,1-1.57,1.57H195.8a1.57,1.57,0,0,1-1.57-1.57V1.67a0,0,0,0,1,0,0Z" transform="translate(329.4 152.53) rotate(-133)"/><rect class="cls-4" x="159.09" y="-2.23" width="7.26" height="79.32" transform="translate(246.33 181.96) rotate(-133)"/><path class="cls-3" d="M136.2,70.87l-6-6.4,59.1-55.12,6,6.4Zm-3.85-6.33,3.92,4.21,56.91-53.07-3.92-4.21Z"/><path class="cls-3" d="M195.1,17.73l-7.76-8.32,5.48-5.11,7.76,8.32Zm-5.64-8.24,5.71,6.13,3.29-3.07-5.71-6.13Z"/><path class="cls-3" d="M198.59,12.69l-6-6.41,4-3.78A1.92,1.92,0,0,1,198.05,2a1.87,1.87,0,0,1,1.34.61l3.35,3.59a1.93,1.93,0,0,1-.1,2.72Zm-3.85-6.33,3.92,4.21,3-2.76a.47.47,0,0,0,.14-.3.42.42,0,0,0-.12-.3l-3.35-3.59a.44.44,0,0,0-.29-.14.57.57,0,0,0-.31.12Z"/><polygon class="cls-3" points="114.65 84.98 130.69 64.05 131.88 64.96 121.27 78.81 135.82 69.19 136.65 70.44 114.65 84.98"/><path class="cls-3" d="M128.67,75.57,127.3,75c.29-.65.54-1.77.24-2.09s-.8-.24-2,.19l-.5-1.41c.64-.23,2.58-.92,3.62.2S128.85,75.16,128.67,75.57Z"/><path class="cls-3" d="M165,131.16a27.32,27.32,0,0,1-.26,3.77H138.92a27.32,27.32,0,0,1-.26-3.77c0-10.46,5.9-18.93,13.18-18.93S165,120.7,165,131.16Z"/><path class="cls-1" d="M87.33,36.08l1.85,33.63,6.18-2.61-.77-8,5.83-2.47,5.23,6.09,7.68-3.24Zm5.58,18.27-1-8.09,6.33,5.32Z"/><path class="cls-4" d="M86,38.4,87.89,72l6.18-2.61-.77-8L99.13,59l5.23,6.08L112,61.83Zm5.58,18.28-1-8.1L97,53.9Z"/><path class="cls-3" d="M89.18,70.46a.72.72,0,0,1-.4-.12.77.77,0,0,1-.35-.59L86.58,36.12A.76.76,0,0,1,87,35.4a.75.75,0,0,1,.82.12l26,23.43a.78.78,0,0,1,.24.69.74.74,0,0,1-.45.56l-7.68,3.24a.75.75,0,0,1-.86-.2l-4.87-5.67-4.82,2L96.11,67a.75.75,0,0,1-.46.76L89.47,70.4A.72.72,0,0,1,89.18,70.46Zm-1-32.61L89.87,68.6l4.69-2-.71-7.42a.74.74,0,0,1,.45-.76L100.13,56a.76.76,0,0,1,.86.21l4.88,5.67L112,59.28ZM92.91,55.1a.85.85,0,0,1-.35-.08.78.78,0,0,1-.39-.58l-1-8.09a.75.75,0,0,1,1.23-.66L98.76,51a.78.78,0,0,1,.26.66.75.75,0,0,1-.4.58L93.26,55A.72.72,0,0,1,92.91,55.1Zm0-7.05.62,5.14,3.4-1.76Z"/><path class="cls-1" d="M118.9,20.07c-1.26-5.21-7.82-7.84-7.82-7.84s7.36-2.3,5.51-5.39-6.79-5.49-6.79-5.49l-5.56,19.91S120.16,25.29,118.9,20.07ZM111,7.43a1.25,1.25,0,1,1,2.41.68A1.25,1.25,0,0,1,111,7.43Zm.73,11.49a2.28,2.28,0,0,1-1.93-2.54c.28-1,1.61-1.55,3-1.17s2.22,1.52,1.93,2.54S113.07,19.3,111.72,18.92Z"/><path class="cls-2" d="M117.45,18.72c-1.26-5.22-7.82-7.84-7.82-7.84s7.37-2.3,5.51-5.4S108.36,0,108.36,0l-5.57,19.9S118.71,23.94,117.45,18.72ZM109.54,6.08a1.25,1.25,0,1,1,2.41.67,1.24,1.24,0,0,1-1.54.87A1.26,1.26,0,0,1,109.54,6.08Zm.73,11.49c-1.35-.38-2.22-1.52-1.93-2.54s1.62-1.55,3-1.18a2.31,2.31,0,0,1,1.93,2.55A2.31,2.31,0,0,1,110.27,17.57Z"/><path class="cls-3" d="M114.32,23.48A48.55,48.55,0,0,1,104.05,22a.73.73,0,0,1-.46-.35.71.71,0,0,1-.07-.57l5.56-19.91a.74.74,0,0,1,.42-.48.73.73,0,0,1,.63,0c.21.1,5.16,2.53,7.1,5.77a2.56,2.56,0,0,1,.23,2.32c-.62,1.64-2.88,2.87-4.49,3.56,2.13,1.17,5.72,3.67,6.66,7.57h0a2.38,2.38,0,0,1-.6,2.39C118.14,23.18,116.36,23.48,114.32,23.48Zm-9.15-2.77c4.45,1.05,11.29,2,12.81.52a.92.92,0,0,0,.19-1h0c-1.15-4.77-7.31-7.29-7.37-7.32a.75.75,0,0,1,0-1.41c1.74-.55,4.69-1.92,5.21-3.29a1.06,1.06,0,0,0-.11-1c-1.28-2.14-4.25-4-5.67-4.77Zm7.42-.91a4.07,4.07,0,0,1-1.08-.15h0a3.73,3.73,0,0,1-2-1.3,2.37,2.37,0,0,1,1.06-3.78,3.72,3.72,0,0,1,2.36-.08,3.66,3.66,0,0,1,2,1.29,2.37,2.37,0,0,1-1.06,3.78A3.39,3.39,0,0,1,112.59,19.8Zm-.67-1.6a2.22,2.22,0,0,0,1.4,0,1,1,0,0,0,.64-.62,1,1,0,0,0-.22-.86,2.26,2.26,0,0,0-1.19-.76,2.22,2.22,0,0,0-1.4,0,1,1,0,0,0-.64.62,1,1,0,0,0,.22.86,2.24,2.24,0,0,0,1.19.76Zm.28-8.43a2,2,0,0,1-1.93-2.54h0a2,2,0,0,1,2.46-1.39,2,2,0,0,1,1.39,2.47,2,2,0,0,1-.94,1.2A2,2,0,0,1,112.2,9.77Zm-.49-2.14a.51.51,0,0,0,.73.58.53.53,0,0,0,.24-.31.46.46,0,0,0-.05-.38.48.48,0,0,0-.3-.24.51.51,0,0,0-.62.35Z"/><path class="cls-1" d="M139.66,34.5c-.29-.22-4.64-3.37-9.64-1.49a10.29,10.29,0,0,0-6,6.49,8.1,8.1,0,0,0,.13,5c1.39,3.47,5.91,5.67,11.17,5.18l.67-4h0c-3.49-.2-6.05-2.19-6.35-4.44a3.88,3.88,0,0,1,1-3.09c1.43-1.51,4.22-1.72,6.7-.19Z"/><path class="cls-4" d="M140.28,36.94c-.3-.22-4.64-3.37-9.65-1.49-.33.13-4.76,1.88-6,6.49a8.1,8.1,0,0,0,.13,5c1.39,3.47,5.91,5.67,11.17,5.17l.67-4h0c-3.49-.2-6.05-2.19-6.36-4.44a3.85,3.85,0,0,1,1-3.09c1.43-1.51,4.22-1.72,6.7-.19Z"/><path class="cls-3" d="M133.89,50.52c-4.86,0-9-2.23-10.42-5.71a8.6,8.6,0,0,1-.16-5.5c1.33-5,6.24-6.92,6.44-7,5.43-2,10.16,1.44,10.36,1.59a.74.74,0,0,1,.17,1L138,38.43a.75.75,0,0,1-1,.23c-2.09-1.29-4.51-1.26-5.76.06a3.12,3.12,0,0,0-.79,2.48c.26,2,2.7,3.62,5.66,3.79a.75.75,0,0,1,.7.75c0,.06,0,.06-.68,4.09a.75.75,0,0,1-.67.62C134.89,50.5,134.38,50.52,133.89,50.52Zm-.58-17.35a8.43,8.43,0,0,0-3,.55,9.44,9.44,0,0,0-5.52,6,7.1,7.1,0,0,0,.1,4.56c1.24,3.1,5.23,5,9.83,4.75.12-.68.31-1.83.44-2.59-3.33-.47-5.89-2.49-6.23-5a4.65,4.65,0,0,1,1.19-3.71c1.6-1.69,4.45-1.93,7-.66l1.53-2.32A10.56,10.56,0,0,0,133.31,33.17Z"/><path class="cls-1" d="M210.88,32.3l-3.15,8.18s-3.79.71-5.32,0a12.26,12.26,0,0,1-3.08-2.41l6.75-8.43Z"/><path class="cls-1" d="M210.88,32.3l-3.15,8.18s-3.79.71-5.32,0a12.26,12.26,0,0,1-3.08-2.41l6.75-8.43Z"/><path class="cls-3" d="M204.51,41.54a6,6,0,0,1-2.41-.38,12.93,12.93,0,0,1-3.32-2.58.74.74,0,0,1,0-1l6.75-8.44a.75.75,0,0,1,.95-.18l4.79,2.65a.75.75,0,0,1,.34.92l-3.15,8.19a.76.76,0,0,1-.56.47A20.46,20.46,0,0,1,204.51,41.54ZM200.33,38a9.92,9.92,0,0,0,2.4,1.78c.86.4,3,.24,4.46,0L210,32.64l-3.68-2Z"/><path class="cls-1" d="M194,118.26l3.63,2.87s.28,2.31-.35,3.08a7.91,7.91,0,0,1-1.43,1.32l-5.06-3.63Z"/><path class="cls-1" d="M194,118.26l3.63,2.87s.28,2.31-.35,3.08a7.91,7.91,0,0,1-1.43,1.32l-5.06-3.63Z"/><path class="cls-3" d="M195.83,126.28a.72.72,0,0,1-.44-.14l-5.06-3.63a.76.76,0,0,1-.13-1.11l3.22-3.63a.74.74,0,0,1,1-.09l3.64,2.86a.79.79,0,0,1,.28.5c.07.62.26,2.7-.52,3.64a8.57,8.57,0,0,1-1.59,1.47A.7.7,0,0,1,195.83,126.28Zm-4-4.51,3.93,2.83a5.93,5.93,0,0,0,.87-.87,4.46,4.46,0,0,0,.22-2.21l-2.83-2.23Z"/><path class="cls-1" d="M210,72l-10.69-1.33c-14.48,12.67-24.86,22.23-26.65,24.5A5.28,5.28,0,0,0,171.46,98a5.73,5.73,0,0,0,1.22,3.65c4,5.63,18.37,21.34,18.37,21.34h0l4-4.17L183.51,99.64s24-14.83,25-16.17S210,72,210,72Z"/><path class="cls-4" d="M207.38,72l-10.69-1.33C182.21,83.31,171.83,92.87,170,95.14A5.13,5.13,0,0,0,168.82,98a5.67,5.67,0,0,0,1.22,3.65c4,5.63,18.37,21.34,18.37,21.34h0l4-4.17-11.5-19.17s24-14.83,25-16.17S207.38,72,207.38,72Z"/><path class="cls-3" d="M191.05,123.73h0a.71.71,0,0,1-.54-.25c-.59-.64-14.48-15.8-18.43-21.41a6.46,6.46,0,0,1-1.36-4.14,6,6,0,0,1,1.38-3.25c1.85-2.35,12.35-12,26.75-24.61a.78.78,0,0,1,.59-.18l10.68,1.34a.75.75,0,0,1,.66.78c-.12,2.44-.6,10.51-1.65,11.91s-19.43,12.78-24.58,16l11.12,18.54a.76.76,0,0,1-.1.9l-4,4.17A.78.78,0,0,1,191.05,123.73Zm8.52-52.31c-14,12.25-24.54,22-26.3,24.19A4.44,4.44,0,0,0,172.21,98a5.05,5.05,0,0,0,1.08,3.17c3.46,4.91,15.11,17.76,17.77,20.67l3-3.17L182.87,100a.76.76,0,0,1,.25-1c9.11-5.62,23.89-14.94,24.81-16,.5-.67,1-5.78,1.3-10.38Z"/><path class="cls-1" d="M222.15,135.53l1.54,5.59a11.83,11.83,0,0,1-3.15,1.54c-.91.07-3.29-6.43-3.29-6.43Z"/><path class="cls-1" d="M222.15,135.53l1.54,5.59a11.83,11.83,0,0,1-3.15,1.54c-.91.07-3.29-6.43-3.29-6.43Z"/><path class="cls-3" d="M220.47,143.41c-.52,0-1.55-.44-3.92-6.93a.73.73,0,0,1,.06-.64.79.79,0,0,1,.54-.36l4.89-.69a.75.75,0,0,1,.83.54l1.54,5.59a.74.74,0,0,1-.31.82,11,11,0,0,1-3.5,1.66Zm-2.19-6.57a25.89,25.89,0,0,0,2.38,5,11.1,11.1,0,0,0,2.16-1.09l-1.22-4.42Z"/><path class="cls-3" d="M219.33,29.62a7.93,7.93,0,0,0,.87-1.5,10.78,10.78,0,0,0-1.12-3,23,23,0,0,0-1.93-2.62c-1.7-2.39-1.2-3.56-2.23-4.59-.83-.82-2.58-1.5-6.79-.31l.42.63a6.07,6.07,0,0,0-6.37,2.65l.67,0a14,14,0,0,0-2.2,3.79,11.62,11.62,0,0,1,2.82,2.82q1.38,1.76,2.78,3.5c.45.58.88,1.19,1.37,1.74a1.62,1.62,0,0,0,1,.59,4.05,4.05,0,0,0,1.23-.23,3.8,3.8,0,0,1,.77-.19,1.73,1.73,0,0,1,1,.48c.81.58,2.36-.16,3.74-.81A9.54,9.54,0,0,0,219.33,29.62Z"/><path class="cls-1" d="M216.85,70.64s-1.5,33.84-1.16,35.17,8,30.34,8,30.34l-6.84,2.16s-11.32-28-11.74-30-7.43-36.08-7.43-36.08Z"/><path class="cls-4" d="M218.27,71.42s-1.5,33.08-1.17,34.39,8,29.66,8,29.66l-6.83,2.12S207,110.21,206.52,108.25,199.09,73,199.09,73Z"/><path class="cls-3" d="M216.85,139.06a.75.75,0,0,1-.69-.47c-1.16-2.87-11.36-28.12-11.79-30.13S197,72.72,196.94,72.38a.76.76,0,0,1,.14-.6.74.74,0,0,1,.53-.3l19.18-1.59a.72.72,0,0,1,.58.21.73.73,0,0,1,.23.57c-.59,13.36-1.4,33.69-1.18,35s7.91,30,8,30.31a.75.75,0,0,1-.5.9L217.08,139A.91.91,0,0,1,216.85,139.06ZM198.58,72.91c1.08,5.22,6.88,33.44,7.26,35.25.29,1.39,6.91,18,11.45,29.23l5.49-1.74c-1.19-4.51-7.52-28.43-7.82-29.66s.79-27.34,1.11-34.53Z"/><path class="cls-1" d="M194.33,67.5c1.66-9.06-2.85-20.6-1.13-25.17a27,27,0,0,0,.94-3.42L200,37.14A8.47,8.47,0,0,0,204,39a8.37,8.37,0,0,0,3.87-.22l.51.11s5.43,3.4,6.45,5.78c2.4,5.59,2.53,10.35,2.6,17.7a99.86,99.86,0,0,0,2.2,19.79,84.72,84.72,0,0,1-14.9-1.9,83.57,83.57,0,0,1-13.83-4.34A22.59,22.59,0,0,0,194.33,67.5Z"/><path class="cls-2" d="M196,66.83c1.65-8.86-2.85-20.15-1.14-24.62a24.81,24.81,0,0,0,1-3.34l5.83-1.73a8.51,8.51,0,0,0,4,1.84,8.71,8.71,0,0,0,3.87-.21l.5.1s5.43,3.33,6.45,5.65C218.85,50,219,54.65,219,61.84a95.48,95.48,0,0,0,2.2,19.34,85.35,85.35,0,0,1-14.9-1.85,86.15,86.15,0,0,1-13.83-4.24A22.08,22.08,0,0,0,196,66.83Z"/><path class="cls-3" d="M219.59,82.93h0a84.33,84.33,0,0,1-15-1.91,85.26,85.26,0,0,1-14-4.37.75.75,0,0,1-.34-1.11,22.13,22.13,0,0,0,3.37-8.16h0c.85-4.67,0-10.07-.72-14.82-.68-4.37-1.26-8.15-.38-10.49a25.69,25.69,0,0,0,.91-3.29.74.74,0,0,1,.52-.57l5.83-1.78a.74.74,0,0,1,.7.15,7.82,7.82,0,0,0,3.63,1.71,7.58,7.58,0,0,0,3.53-.2.77.77,0,0,1,.37,0l.51.11a.67.67,0,0,1,.23.1c.58.36,5.66,3.59,6.75,6.11,2.43,5.66,2.59,10.29,2.65,18A100.54,100.54,0,0,0,220.32,82a.75.75,0,0,1-.73.91ZM192,75.59a84.05,84.05,0,0,0,12.88,4,84.4,84.4,0,0,0,13.81,1.84,100.61,100.61,0,0,1-2-19c-.07-7.51-.22-12-2.54-17.42-.74-1.73-4.52-4.39-6-5.36l-.2,0a9.12,9.12,0,0,1-8-1.6l-5,1.53a24.9,24.9,0,0,1-.88,3.09c-.74,2-.18,5.57.46,9.73.75,4.87,1.61,10.4.71,15.32h0A23.56,23.56,0,0,1,192,75.59Z"/><path class="cls-1" d="M182.93,33.85l-2-2.23a13.57,13.57,0,0,0,.38-1.88c0-.5-.27-1.31-.24-1.65a20.21,20.21,0,0,0-.1-3.51c-.18-.22-.7-.1-.84.14a31.17,31.17,0,0,0-.45,3.09S177.34,21,177,20.93s-.89.14-.8.56,1.89,4.86,1.57,5.12-3.3-4.8-3.6-4.86-.71.4-.64.68,2.9,4.78,2.73,5-3.5-3.6-3.87-3.54a.75.75,0,0,0-.54.84c.08.29,3.54,3.43,3.42,3.76s-3.29-1.75-3.48-1.7a.57.57,0,0,0-.12.83c.26.28,2.94,1.91,3.14,2.27a14.31,14.31,0,0,0,1.89,2.41c.54.43,1.76.67,1.88.93s1.12,2.95,1.12,2.95Z"/><path class="cls-1" d="M211.48,32.93a6.41,6.41,0,1,1,2.15-8.8A6.4,6.4,0,0,1,211.48,32.93Z"/><path class="cls-3" d="M208.17,34.61a7.15,7.15,0,0,1-3.73-13.27,7.17,7.17,0,0,1,9.83,2.4,7.16,7.16,0,0,1-2.4,9.83h0A7.15,7.15,0,0,1,208.17,34.61Zm0-12.81a5.66,5.66,0,1,0,2.94,10.49h0A5.66,5.66,0,0,0,209.5,22,5.72,5.72,0,0,0,208.15,21.8Zm3.33,11.13h0Z"/><path class="cls-1" d="M182.93,33.85l-2-2.23a13.57,13.57,0,0,0,.38-1.88c0-.5-.27-1.31-.24-1.65a20.21,20.21,0,0,0-.1-3.51c-.18-.22-.7-.1-.84.14a31.17,31.17,0,0,0-.45,3.09S177.34,21,177,20.93s-.89.14-.8.56,1.89,4.86,1.57,5.12-3.3-4.8-3.6-4.86-.71.4-.64.68,2.9,4.78,2.73,5-3.5-3.6-3.87-3.54a.75.75,0,0,0-.54.84c.08.29,3.54,3.43,3.42,3.76s-3.29-1.75-3.48-1.7a.57.57,0,0,0-.12.83c.26.28,2.94,1.91,3.14,2.27a14.31,14.31,0,0,0,1.89,2.41c.54.43,1.76.67,1.88.93s1.12,2.95,1.12,2.95Z"/><path class="cls-3" d="M179.74,36.89a.83.83,0,0,1-.22,0,.76.76,0,0,1-.48-.46c-.4-1.09-.85-2.3-1-2.73l-.41-.16a5.07,5.07,0,0,1-1.32-.65,13.67,13.67,0,0,1-2.05-2.58c-.23-.22-1.21-.87-1.75-1.23a9.25,9.25,0,0,1-1.32-.95,1.3,1.3,0,0,1-.27-1.25,1.1,1.1,0,0,1,.75-.81.66.66,0,0,1,.46,0c-.73-.74-.87-.92-.93-1.16a1.45,1.45,0,0,1,.22-1.14,1.37,1.37,0,0,1,.92-.63c.3,0,.54,0,1,.46a5.29,5.29,0,0,1-.5-.95,1.29,1.29,0,0,1,.36-1.19,1.25,1.25,0,0,1,1.15-.42c.38.07.54.26,1.56,1.8-.28-.75-.37-1-.41-1.17a1.12,1.12,0,0,1,.31-1,1.58,1.58,0,0,1,1.36-.41c.42.08.65.13,2.19,4.45a1.52,1.52,0,0,1,.11-.3,1.4,1.4,0,0,1,1.07-.63,1.14,1.14,0,0,1,1,.38c.48.58.27,4,.26,4a4,4,0,0,0,.1.51,5.38,5.38,0,0,1,.15,1.11,10.37,10.37,0,0,1-.31,1.66l1.74,1.93a.77.77,0,0,1,.19.58.81.81,0,0,1-.31.53l-3.19,2.29A.7.7,0,0,1,179.74,36.89Zm-4.42-7.64a1.15,1.15,0,0,1,.18.24,14,14,0,0,0,1.7,2.19,4.53,4.53,0,0,0,.93.43c.56.21,1,.37,1.16.75.1.18.49,1.22.81,2.1l1.71-1.23-1.44-1.61a.76.76,0,0,1-.17-.69,11,11,0,0,0,.36-1.71,3.48,3.48,0,0,0-.12-.75,5.11,5.11,0,0,1-.12-.76.76.76,0,0,1-1.35-.16l-.42-1.22a.74.74,0,0,1-.27.36.77.77,0,0,1-.62.17,1.15,1.15,0,0,1-.72-.45c.23.55.14.75-.09,1a.79.79,0,0,1-.56.25.92.92,0,0,1-.29,0,.7.7,0,0,1,0,.58.83.83,0,0,1-.47.5Zm-1.13,1Z"/><path class="cls-1" d="M211.64,43.21s2.81.67,2.73,4.47-1.4,4.46-2.47,5-24.27-.9-24.27-.9l-9.37-16.58,4.46-2.92,9,12.25S210.45,42.57,211.64,43.21Z"/><path class="cls-2" d="M211.64,44.75s2.81.67,2.73,4.46-1.4,4.46-2.47,5-24.27-.89-24.27-.89l-9.37-16.59,4.46-2.92,9,12.26S210.45,44.11,211.64,44.75Z"/><path class="cls-3" d="M209.38,53.55c-5,0-15.15-.58-21.8-1a.76.76,0,0,1-.61-.38L177.6,35.59a.76.76,0,0,1,.24-1l4.47-2.92a.74.74,0,0,1,1,.18l8.78,11.91C199,43,209.93,42,211.82,42.49h0c1.17.28,3.37,1.72,3.3,5.2-.09,3.9-1.4,4.9-2.86,5.66A10.74,10.74,0,0,1,209.38,53.55Zm-21.3-2.47c8.57.53,22.13,1.23,23.52.93,1-.51,2-1.07,2-4.35.06-3.11-2.07-3.7-2.16-3.72l-.13,0c-1.13-.32-10.87.48-19.5,1.4a.76.76,0,0,1-.68-.3l-8.61-11.69-3.29,2.15Zm23.21-7.21,0,0Z"/><path class="cls-3" d="M211.62,30.55c.58-1.24,1.15-2.48,1.73-3.71a1.4,1.4,0,0,0,.14-1.26,1.51,1.51,0,0,0-1-.55,26,26,0,0,1-4.69-1.54,6.21,6.21,0,0,1-3.3-3.35c2.52-.24,5.28-.42,7.38.92a8.41,8.41,0,0,1,2.06,2,9.69,9.69,0,0,1,2,4.19,5.24,5.24,0,0,1-.08,2.23c-.1.39-.35.28-.7.22a4.59,4.59,0,0,0-3.55.83Z"/><path class="cls-3" d="M206.26,25.42a.61.61,0,0,1-.78.38.6.6,0,0,1-.38-.77.63.63,0,0,1,.78-.39A.61.61,0,0,1,206.26,25.42Z"/><path class="cls-3" d="M210.52,27.22a.61.61,0,0,1-1.16-.4.6.6,0,0,1,.77-.38A.62.62,0,0,1,210.52,27.22Z"/><path class="cls-3" d="M206.61,29.15a.38.38,0,0,1-.22-.07,3.54,3.54,0,0,1-.81-.75.74.74,0,0,1-.09-.81.53.53,0,0,1,.13-.16,11,11,0,0,1,1.21-1,.37.37,0,0,1,.52.08.38.38,0,0,1-.08.53,8.11,8.11,0,0,0-1.09.93s0,0,0,0a2.53,2.53,0,0,0,.64.57.38.38,0,0,1,.07.53A.36.36,0,0,1,206.61,29.15Z"/><path class="cls-3" d="M208.83,30.28a.39.39,0,0,0-.44-.3,3.47,3.47,0,0,1-.63.11,3.25,3.25,0,0,1-.54,0,.38.38,0,0,0-.4.35.39.39,0,0,0,.35.4,4.22,4.22,0,0,0,1.37-.11A.38.38,0,0,0,208.83,30.28Z"/><g class="cls-5"><path class="cls-2" d="M208.54,28.32c.09-.32,1-.48,1.68,0,.3.22.64.64.56.88s-.79.24-1.27.05S208.47,28.6,208.54,28.32Z"/></g><g class="cls-5"><path class="cls-2" d="M203.16,25.86c.09-.32,1-.48,1.68,0,.3.22.64.64.55.88s-.78.24-1.26.05S203.09,26.14,203.16,25.86Z"/></g><path class="cls-1" d="M214.86,30.66a1.75,1.75,0,1,1-.93-2.3A1.76,1.76,0,0,1,214.86,30.66Z"/><path class="cls-1" d="M196.79,120.48a4.51,4.51,0,0,1,2.71,0,9.81,9.81,0,0,1,2,1.42l-5.73,14s-2-.56-2-1.82,0-10,0-10a5.29,5.29,0,0,0,2.24-1.6A10.75,10.75,0,0,0,196.79,120.48Z"/><path class="cls-1" d="M223.06,138.83a12.16,12.16,0,0,1,1.95,3.83,6.05,6.05,0,0,1,0,2.23l-15,.7s-.81-1.4,0-2.23,8.69-3.56,8.69-3.56,2.25,1,3,.46A5.72,5.72,0,0,0,223.06,138.83Z"/><path class="cls-2" d="M198.25,121.43a4.51,4.51,0,0,1,2.71,0,9.81,9.81,0,0,1,2,1.42l-5.73,14s-2-.56-2-1.82,0-10,0-10a5.29,5.29,0,0,0,2.24-1.6A10.75,10.75,0,0,0,198.25,121.43Z"/><path class="cls-2" d="M223.41,140.34a12.12,12.12,0,0,1,2,3.83,6.05,6.05,0,0,1,0,2.23l-15,.7s-.81-1.4,0-2.24,8.68-3.55,8.68-3.55,2.26,1,3,.46A5.72,5.72,0,0,0,223.41,140.34Z"/><path class="cls-3" d="M195.8,136.63a.76.76,0,0,1-.21,0c-.25-.07-2.47-.76-2.57-2.5-.07-1.27,0-9.69,0-10a.75.75,0,0,1,.47-.69,4.4,4.4,0,0,0,1.86-1.26,10.1,10.1,0,0,0,.72-1.82.77.77,0,0,1,.5-.52,5.15,5.15,0,0,1,3.26,0,10.89,10.89,0,0,1,2.21,1.54.74.74,0,0,1,.18.83l-5.73,14A.76.76,0,0,1,195.8,136.63Zm-1.28-12.08c0,1.85-.06,8.42,0,9.47,0,.35.44.67.87.88l5.24-12.78a8.2,8.2,0,0,0-1.46-1,3.29,3.29,0,0,0-1.79,0,11,11,0,0,1-.71,1.7A5,5,0,0,1,194.52,124.55Z"/><path class="cls-3" d="M210,146.34a.74.74,0,0,1-.65-.37,2.68,2.68,0,0,1,.11-3.13c.84-.88,6.56-2.91,9-3.74a.75.75,0,0,1,.55,0,4.74,4.74,0,0,0,2.3.52,4.84,4.84,0,0,0,1.11-1.21.75.75,0,0,1,.61-.35.85.85,0,0,1,.63.31,12.19,12.19,0,0,1,2.09,4.16,6.46,6.46,0,0,1,0,2.54.74.74,0,0,1-.68.55l-15,.7Zm8.66-5.73c-3.65,1.26-7.62,2.8-8.13,3.27a1,1,0,0,0-.05.94l13.85-.65a7.83,7.83,0,0,0-.08-1.41A8.57,8.57,0,0,0,223,140.1a5.88,5.88,0,0,1-.86.77C221.25,141.5,219.58,141,218.68,140.61Z"/></g></g></svg>