<svg xmlns="http://www.w3.org/2000/svg" viewBox="0 0 284.68 166.71"><defs><style>.cls-1{fill:#fff;}.cls-2{fill:#49194f;}.cls-3{fill:#f0a74d;}.cls-4{fill:#c7a6cc;}.cls-5{opacity:0.49;}</style></defs><g id="Layer_2" data-name="Layer 2"><g id="_1" data-name="1"><path class="cls-1" d="M228,129.89h46.7V116.2H227.8S231.23,121.94,228,129.89Z"/><path class="cls-2" d="M275.43,130.64H226.87l.42-1c3.05-7.48-.1-13-.14-13l-.66-1.13h48.94Zm-46.36-1.5h44.86V117H229A17.16,17.16,0,0,1,229.07,129.14Z"/><path class="cls-3" d="M274.46,116.2c-3.89,3.91-4.28,6.41-4,8,0,0,.22,1,4,5.74h0Z"/><path class="cls-2" d="M274.68,131.38H226.49a1.5,1.5,0,1,1,0-3h46.69V117.7H226.49a1.5,1.5,0,0,1,0-3h48.19a1.5,1.5,0,0,1,1.5,1.5v13.69A1.5,1.5,0,0,1,274.68,131.38Z"/><rect class="cls-2" x="229.28" y="120.73" width="39.55" height="1.5"/><rect class="cls-2" x="229.28" y="124.21" width="33.29" height="1.5"/><path class="cls-2" d="M22.56,55.94a1.48,1.48,0,0,1-1.17-.56L17.8,50.91A1.5,1.5,0,0,1,20.14,49l3.59,4.47a1.49,1.49,0,0,1-.24,2.1A1.41,1.41,0,0,1,22.56,55.94Z"/><path class="cls-2" d="M15.72,54.08a1.49,1.49,0,0,1-.94-2.66l6.54-5.25a1.5,1.5,0,0,1,1.87,2.34l-6.53,5.24A1.52,1.52,0,0,1,15.72,54.08Z"/><circle class="cls-1" cx="35.42" cy="70.47" r="22.31" transform="translate(-36.34 103.18) rotate(-87.82)"/><ellipse class="cls-3" cx="34.36" cy="72.2" rx="22.31" ry="22.99" transform="translate(-37.63 37.41) rotate(-38.76)"/><path class="cls-2" d="M35.45,93.52A23.05,23.05,0,1,1,53.4,56h0A23,23,0,0,1,35.45,93.52Zm-.07-44.61A21.56,21.56,0,1,0,52.23,57h0a21.59,21.59,0,0,0-16.85-8.06Z"/><circle class="cls-1" cx="35.42" cy="70.47" r="17.24" transform="matrix(0.58, -0.81, 0.81, 0.58, -42.46, 57.99)"/><path class="cls-2" d="M35.46,88.46a16.59,16.59,0,0,1-2-.11,18,18,0,0,1-9.31-31.91,18,18,0,0,1,25.29,2.77h0a18,18,0,0,1-14,29.25ZM35.41,54a16.48,16.48,0,1,0,12.87,6.15h0A16.45,16.45,0,0,0,35.41,54Z"/><path class="cls-2" d="M35.44,80a9.56,9.56,0,1,1,6-2.1A9.51,9.51,0,0,1,35.44,80Zm0-17.65a8.12,8.12,0,1,0,.89,0C36,62.41,35.7,62.39,35.41,62.39Z"/><path class="cls-2" d="M29.9,64.34a.77.77,0,0,1-.59-.28l-3.46-4.32A.75.75,0,1,1,27,58.8l3.47,4.32a.75.75,0,0,1-.11,1.05A.78.78,0,0,1,29.9,64.34Z"/><path class="cls-2" d="M44.63,82.68a.71.71,0,0,1-.58-.28l-3.47-4.32a.75.75,0,0,1,.11-1,.74.74,0,0,1,1.05.12l3.47,4.32a.75.75,0,0,1-.11,1A.76.76,0,0,1,44.63,82.68Z"/><path class="cls-2" d="M42.54,65.72a.75.75,0,0,1-.58-.28.75.75,0,0,1,.11-1l4.32-3.47a.75.75,0,1,1,.94,1.17L43,65.55A.7.7,0,0,1,42.54,65.72Z"/><path class="cls-2" d="M24.2,80.45a.75.75,0,0,1-.47-1.33l4.32-3.47A.75.75,0,1,1,29,76.82l-4.32,3.47A.72.72,0,0,1,24.2,80.45Z"/><polygon class="cls-1" points="39.15 84.94 38.19 69.54 32.98 70.65 39.15 84.94"/><polygon class="cls-1" points="32.98 70.65 38.19 69.54 32.29 55.19 32.98 70.65"/><polygon class="cls-3" points="38.07 85.06 37.1 69.65 31.9 70.76 38.07 85.06"/><polygon class="cls-4" points="31.9 70.76 37.1 69.65 31.21 55.3 31.9 70.76"/><path class="cls-2" d="M39.15,85.69a.75.75,0,0,1-.69-.45l-6.17-14.3a.76.76,0,0,1,.54-1l5.2-1.1a.74.74,0,0,1,.61.13.78.78,0,0,1,.3.55l1,15.41a.74.74,0,0,1-.58.77ZM34,71.19l4.1,9.51-.64-10.25Z"/><path class="cls-2" d="M33,71.4a.8.8,0,0,1-.46-.16.76.76,0,0,1-.29-.56l-.68-15.46A.75.75,0,0,1,33,54.9l5.89,14.35a.75.75,0,0,1,0,.64.71.71,0,0,1-.51.38l-5.2,1.11Zm.25-12,.46,10.28L37.15,69Z"/><path class="cls-2" d="M22.44,54.37a.88.88,0,0,0,1.1,1.38A.88.88,0,0,0,22.44,54.37Z"/><path class="cls-2" d="M19.57,82.41a.88.88,0,0,0,1.1,1.38A.88.88,0,0,0,19.57,82.41Z"/><path class="cls-2" d="M50.58,57.51a.88.88,0,0,0,1.1,1.38A.88.88,0,0,0,50.58,57.51Z"/><path class="cls-2" d="M47.42,85.2a.89.89,0,0,0,1.11,1.38A.89.89,0,0,0,47.42,85.2Z"/><polygon class="cls-1" points="27.27 155.7 50.28 104.02 82.96 155.38 27.27 155.7"/><path class="cls-3" d="M25.16,155.55l55.7-.33Q70.1,137.93,59.37,120.63l-3.9,9.85-4.55-17.3-4.67,27.26L43.5,125.37l-7.06,14.16-2.11-5.67Z"/><path class="cls-2" d="M26.11,156.46l24.06-54,34.15,53.68ZM50.4,105.6,28.42,155l53.18-.31Z"/><polygon class="cls-1" points="49.26 155.35 79.23 89.56 112.22 155.66 49.26 155.35"/><path class="cls-4" d="M118.58,153.62l-71.24-.3,27.93-46.85c.73-1.25,1.45-2.51,2.17-3.77l4.33,9.72,2-7.48,9,14.65,2.64-5.42Z"/><path class="cls-2" d="M113.43,156.41l-65.33-.32L79.2,87.82Zm-63-1.8,60.58.29L79.27,91.3Z"/><polygon class="cls-1" points="152.48 155.66 118.55 114.17 70.39 155.4 152.48 155.66"/><path class="cls-3" d="M155.58,155.54l-82.09-.27,31.67-27.77q2.88,4,5.75,7.91l6.71-13.89,6.88,21.89,4.05-12.1L139,142.67l3.12-4.55Z"/><path class="cls-2" d="M154.06,156.41l-85.69-.27,50.28-43Zm-81.65-1.75,78.48.24-32.43-39.66Z"/><rect class="cls-2" y="152.19" width="284.68" height="14.52"/><path class="cls-1" d="M264.49,151.64h-54.8V132.53h55S260.68,140.54,264.49,151.64Z"/><path class="cls-4" d="M260.52,151.64H209.69V132.53h51S257,140.54,260.52,151.64Z"/><path class="cls-2" d="M265.54,152.39h-56.6V131.78h57l-.54,1.09c0,.07-3.82,7.89-.17,18.53Zm-55.1-1.5h53a27.45,27.45,0,0,1,.12-17.61H210.44Z"/><path class="cls-2" d="M210,132.53s2.43,5.23,2.37,9.56-2.37,9.55-2.37,9.55Z"/><path class="cls-2" d="M266.24,153.14H209.69a1.5,1.5,0,0,1-1.5-1.5V132.53a1.5,1.5,0,0,1,1.5-1.5h56.55a1.5,1.5,0,0,1,0,3H211.18v16.11h55.06a1.5,1.5,0,0,1,0,3Z"/><rect class="cls-2" x="216.55" y="139.16" width="46.42" height="1.5"/><rect class="cls-2" x="223.9" y="144.02" width="39.07" height="1.5"/><path class="cls-2" d="M175.42,153h0a2.45,2.45,0,0,1-2.62-2.25V131.42a2.45,2.45,0,0,1,2.62-2.24h0a2.45,2.45,0,0,1,2.62,2.24v19.36A2.45,2.45,0,0,1,175.42,153Z"/><path class="cls-2" d="M175.42,153.77a3.2,3.2,0,0,1-3.37-3V131.42a3.39,3.39,0,0,1,6.74,0v19.36A3.2,3.2,0,0,1,175.42,153.77Zm0-23.85a1.72,1.72,0,0,0-1.87,1.5v19.35a1.92,1.92,0,0,0,3.74,0V131.42A1.73,1.73,0,0,0,175.42,129.92Z"/><path class="cls-2" d="M175.42,132.86a70.43,70.43,0,0,1-36.24-10,2.62,2.62,0,1,1,2.7-4.49A65.26,65.26,0,1,0,206.41,4.93a2.62,2.62,0,1,1,2.5-4.61,70.5,70.5,0,0,1-33.49,132.54Z"/><rect class="cls-2" x="107.98" y="60.7" width="134.89" height="1.5" transform="translate(37.24 185.76) rotate(-61.28)"/><path class="cls-1" d="M233.47,62.36a58.08,58.08,0,0,1-78.8,54.23h0A58.06,58.06,0,0,1,175.42,4.31c.86,0,1.71,0,2.56.06a57.7,57.7,0,0,1,26.76,7.88h0A55.55,55.55,0,0,1,211.58,17h0a58,58,0,0,1,20.62,33.3,56.65,56.65,0,0,1,1,6.54Q233.47,59.56,233.47,62.36Z"/><ellipse class="cls-4" cx="180.02" cy="64.58" rx="57.03" ry="58.05"/><path class="cls-1" d="M232.21,50.27a33.06,33.06,0,0,0-3.21.89c-3.13,1.05-5.92-5.93-7-9.4a9.12,9.12,0,0,0-9-6.27c-4.17.35-8.7-.34-11.47-2.78s-.35-3.82,2.09-3.2,4.86,1.81,5.73-2.08-5.39-4.81-3.65-7.94c1.17-2.12,4.12-2.5,5.89-2.52h0A58,58,0,0,1,232.21,50.27Z"/><path class="cls-1" d="M233.47,62.36a57.89,57.89,0,0,1-3.38,19.57,52.06,52.06,0,0,0-6.31,4c-2.78,2.43-3.13,8.7-5.75,11.46s-6.78,2.8-10.95,6.88-18.43,2.88-19.48,0,6.61-6.17,8-9.94S193.16,87,197,86.28s8-3.47,5.57-7.41,1.05-7.19-2.29-11.63-6.06-4.61-10.93-5.72-6.61-9-6.61-11.92,6.26-5.07,9.39-7.84,13.92-1.4,19.13,0S222,54.63,226.57,56.7a8.85,8.85,0,0,0,6.63.11Q233.47,59.56,233.47,62.36Z"/><path class="cls-3" d="M235.06,49.21a32.18,32.18,0,0,0-3.21.88c-3.14,1-5.92-5.92-7-9.4a9.12,9.12,0,0,0-9-6.26c-4.18.34-8.7-.35-11.48-2.78s-.34-3.83,2.09-3.2,4.87,1.81,5.74-2.08-5.4-4.81-3.66-7.94c1.18-2.12,4.12-2.5,5.89-2.53h0A58,58,0,0,1,235.06,49.21Z"/><path class="cls-3" d="M235.06,66.77a57.7,57.7,0,0,1-3.39,19.57,53.2,53.2,0,0,0-6.3,4c-2.78,2.44-3.14,8.7-5.76,11.47s-6.77,2.8-10.94,6.87-18.44,2.89-19.49,0,6.62-6.16,8-9.93-2.44-7.36,1.39-8.06,8-3.48,5.56-7.42,1.05-7.19-2.28-11.62S195.8,67,190.93,65.92s-6.62-9-6.62-11.91,6.27-5.07,9.4-7.85,13.92-1.39,19.13,0,10.79,12.87,15.31,15a8.88,8.88,0,0,0,6.64.11Q235.06,64,235.06,66.77Z"/><path class="cls-2" d="M228.36,52a3,3,0,0,1-1.4-.36c-3.08-1.6-5.24-8.34-5.64-9.68a8.34,8.34,0,0,0-8.27-5.73c-5,.41-9.41-.67-12-3-1.83-1.61-1.59-2.81-1.28-3.39.57-1.1,2.28-1.56,4-1.1l.81.22c1.17.33,2.27.64,3,.23a3,3,0,0,0,1.05-2c.32-1.41-.51-2.27-1.91-3.53s-2.83-2.52-1.67-4.61c1.3-2.35,4.34-2.84,6.23-2.91l.32-.31.51.49A58.94,58.94,0,0,1,233,50.12l.15.72-.72.16a31.57,31.57,0,0,0-3.14.87A3,3,0,0,1,228.36,52ZM213.63,34.72a10,10,0,0,1,9.13,6.82c1.1,3.68,3,7.82,4.89,8.78a1.35,1.35,0,0,0,1.11.13c.76-.26,1.61-.5,2.56-.74a57.37,57.37,0,0,0-20-32c-1.55.05-4,.41-5,2.13-.53,1-.05,1.52,1.35,2.78s2.91,2.6,2.38,5a4.19,4.19,0,0,1-1.74,2.92c-1.24.74-2.72.33-4.14-.07l-.77-.21a2.36,2.36,0,0,0-2.36.35c-.13.25.11.83.95,1.56,2.32,2,6.3,3,10.92,2.6C213.16,34.73,213.4,34.72,213.63,34.72Z"/><path class="cls-2" d="M197.21,107.65a27.69,27.69,0,0,1-5.94-.61c-2.51-.57-4-1.41-4.38-2.51-.74-2.06,1.49-3.93,3.86-5.91,1.76-1.48,3.59-3,4.15-4.54a7.08,7.08,0,0,0-.1-4.11c-.29-1.23-.55-2.39,0-3.3a2.83,2.83,0,0,1,2-1.12c2.15-.4,4.66-1.57,5.44-3.31a3.09,3.09,0,0,0-.38-3,8.42,8.42,0,0,1-.95-5.68c.16-1.92.32-3.74-1.3-5.89-2.82-3.76-5-4.25-9.09-5.13l-1.4-.31C183.68,61,182,52.54,182,49.6c0-2.32,2.74-4,5.64-5.7a26.54,26.54,0,0,0,4-2.71c3.57-3.17,14.9-1.48,19.83-.16,3.08.82,6.09,4.65,9,8.36,2.23,2.83,4.53,5.76,6.43,6.63a8.18,8.18,0,0,0,6.08.08l.9-.3.09.94c.18,1.85.27,3.74.27,5.62a58.31,58.31,0,0,1-3.43,19.82l-.09.26-1.1.64a45.13,45.13,0,0,0-5.33,3.42c-1.29,1.13-2.06,3.37-2.8,5.54s-1.53,4.43-2.9,5.88a14,14,0,0,1-4.67,2.9,20.26,20.26,0,0,0-6.3,4C205.51,106.86,201.25,107.65,197.21,107.65Zm2-66.75c-2.94,0-5.45.4-6.59,1.41a29,29,0,0,1-4.23,2.88c-2.42,1.45-4.91,2.94-4.91,4.41,0,2.88,1.73,10.2,6,11.19l1.39.3c4.1.9,6.81,1.49,10,5.7,2,2.61,1.77,4.9,1.59,6.92-.14,1.69-.26,3.15.73,4.76a4.5,4.5,0,0,1,.48,4.37c-1.07,2.4-4.19,3.75-6.54,4.18a1.59,1.59,0,0,0-1,.47c-.25.38,0,1.24.16,2.14a8.44,8.44,0,0,1,.05,5c-.71,1.9-2.68,3.56-4.6,5.16s-3.8,3.19-3.41,4.26c.12.33.95,1,3.3,1.56,5,1.14,12.4.67,15-1.84a21.46,21.46,0,0,1,6.72-4.28,12.71,12.71,0,0,0,4.2-2.58c1.15-1.21,1.87-3.3,2.57-5.33.81-2.35,1.64-4.78,3.24-6.17a41.59,41.59,0,0,1,5.55-3.59l.63-.37a56.93,56.93,0,0,0,3.25-19.06c0-1.53-.06-3.06-.18-4.57a9.28,9.28,0,0,1-6.29-.41c-2.22-1-4.53-4-7-7.07-2.76-3.51-5.61-7.14-8.21-7.83A50,50,0,0,0,199.21,40.9Z"/><path class="cls-1" d="M159.77,61.52c-2.78,4.24-20.18,4.24-20.87,9.11s-8,8.39-9.74,12a11.49,11.49,0,0,0-.74,6.67,11.9,11.9,0,0,0,3.86,7,11.67,11.67,0,0,0,1.4,1.06c2.26,1.47,2.42,2.55,1.6,3.17a4.87,4.87,0,0,1-3.06.58,58.25,58.25,0,0,1-9.63-14.7c-1.64-6.06-2.46-12.83-.74-17.27l1.16-3c2.48-6.47,3-8.81,1-12.69l-.1-.21c-2.19-4.09,1.79-21,10.42-23.46a7.82,7.82,0,0,1,3.14-.23s6.27,4.52,6.62,7.31,3.82,5,4.17,7.21-1.74,4.63,2.78,7.06S162.55,57.27,159.77,61.52Z"/><path class="cls-3" d="M155.57,60.76C152.79,65,135.39,65,134.7,69.87s-8,8.4-9.74,12a11.45,11.45,0,0,0-.73,6.68,11.86,11.86,0,0,0,3.85,7,12.77,12.77,0,0,0,1.4,1c2.26,1.47,2.42,2.56,1.6,3.17a4.85,4.85,0,0,1-3.06.58,58.25,58.25,0,0,1-9.63-14.7c-1.63-6.06-2.46-12.83-.74-17.27.43-1.09.81-2.1,1.16-3,2.48-6.47,3-8.81,1-12.69l-.1-.21c-2.19-4.09,1.8-21,10.43-23.46a7.75,7.75,0,0,1,3.13-.23s6.27,4.52,6.62,7.31,3.82,5,4.17,7.21-1.74,4.63,2.78,7.06S158.36,56.51,155.57,60.76Z"/><path class="cls-2" d="M132.85,101.92l-.69,0-.3,0-.2-.22a58.64,58.64,0,0,1-9.75-14.89l0-.12c-1.16-4.31-2.8-12.35-.71-17.73.42-1.09.81-2.09,1.16-3,2.48-6.49,2.91-8.52,1.07-12.08l-.12-.22c-1.36-2.55-.55-9.17,1.83-14.73,2.26-5.3,5.48-8.78,9.07-9.79a8.67,8.67,0,0,1,3.44-.24l.19,0,.15.11c.67.49,6.54,4.8,6.92,7.82A8.28,8.28,0,0,0,147,40.5,8.12,8.12,0,0,1,149,44a6.74,6.74,0,0,1-.07,2c-.22,1.66-.39,3,2.46,4.51l.11.06c3.65,1.95,8.65,4.63,9.5,8a4.13,4.13,0,0,1-.64,3.39c-1.46,2.22-5.94,3.28-10.69,4.4-4.58,1.08-9.76,2.31-10.06,4.4-.45,3.14-3.32,5.7-5.86,8-1.7,1.5-3.3,2.93-3.95,4.28a10.81,10.81,0,0,0-.67,6.23,11.06,11.06,0,0,0,4.93,7.57c1.58,1,2.36,2,2.39,2.93a1.75,1.75,0,0,1-.75,1.47A4.89,4.89,0,0,1,132.85,101.92Zm-.28-1.5a3.91,3.91,0,0,0,2.25-.45c.17-.12.16-.19.16-.22s-.06-.65-1.71-1.72a13.33,13.33,0,0,1-1.48-1.12,12.62,12.62,0,0,1-4.11-7.46,12.35,12.35,0,0,1,.8-7.13c.78-1.62,2.49-3.14,4.3-4.75,2.46-2.19,5-4.45,5.37-7,.45-3.11,5.67-4.34,11.21-5.64,4-1,8.65-2,9.78-3.77h0a2.71,2.71,0,0,0,.44-2.2c-.69-2.71-5.54-5.31-8.75-7l-.11-.06c-3.78-2-3.48-4.25-3.24-6a5.67,5.67,0,0,0,.07-1.57,7.21,7.21,0,0,0-1.72-2.77c-1.05-1.3-2.24-2.77-2.46-4.47s-3.82-5-6.15-6.68a7.16,7.16,0,0,0-2.65.23c-4.25,1.19-6.9,6.1-8.1,8.92C124.1,45,123.58,51,124.6,52.92l0,.08.09.17c2.14,4.13,1.46,6.78-1,13.27-.35.91-.74,1.92-1.17,3-1.91,5-.36,12.59.76,16.74A57.24,57.24,0,0,0,132.57,100.42Z"/><path class="cls-2" d="M175.42,121.16a58.48,58.48,0,0,1-20.89-3.82h-.16l-.12-.11a58.82,58.82,0,0,1-32.34-30.47A58.8,58.8,0,0,1,175.42,3.57c1,0,1.82,0,2.6.06a58.58,58.58,0,0,1,26.92,7.88h.11l.16.15A56.34,56.34,0,0,1,211.52,16l.06-.06.51.49A58.35,58.35,0,0,1,234,56.74c.18,1.85.27,3.74.27,5.62a58.31,58.31,0,0,1-3.43,19.82A58.91,58.91,0,0,1,175.42,121.16Zm-20.36-5.22a57.28,57.28,0,0,0,77.66-53.58c0-1.83-.09-3.68-.26-5.47a55.73,55.73,0,0,0-1-6.46A57.35,57.35,0,0,0,211.64,18h0l-.52-.42A56.74,56.74,0,0,0,204.54,13h0l-.17-.1A57.21,57.21,0,0,0,178,5.12c-.76,0-1.56-.06-2.53-.06a57.31,57.31,0,0,0-20.63,110.78H155Z"/><path class="cls-1" d="M214,153H136.88a2.62,2.62,0,0,1,0-5.24H214a2.62,2.62,0,1,1,0,5.24Z"/><path class="cls-3" d="M215.4,154.81H138.31a2.62,2.62,0,0,1,0-5.24H215.4a2.62,2.62,0,1,1,0,5.24Z"/><path class="cls-2" d="M214,153.77H136.88a3.37,3.37,0,0,1,0-6.74H214a3.37,3.37,0,0,1,0,6.74Zm-77.08-5.24a1.87,1.87,0,1,0,0,3.74H214a1.87,1.87,0,1,0,0-3.74Z"/><path class="cls-1" d="M148.29,112.63a.75.75,0,0,1,0-1.49h.43c20-.39,36.64-7.87,48.22-21.65,17.53-20.88,19.59-50,5.36-76a.75.75,0,0,1,1.31-.72C218.12,39.3,216,69.08,198.06,90.44c-11.85,14.12-28.91,21.79-49.33,22.19h-.44Z"/><path class="cls-1" d="M178,4.37c-.17.71-.36,1.46-.55,2.23a59.33,59.33,0,0,1-1.92,6.63c-1,2.09-8.78,1.74-11.56-1.39-1.49-1.68-6-.47-10.24,1.23-3.71,1.48-7.26,3.32-8.55,3.95a2.8,2.8,0,0,0-1.49,2.84c0,1.8.5,4.15.1,6.59s-2.45-.4-3.92-3.06c-.93-1.66-1.65-3.2-1.65-3.2a8.87,8.87,0,0,1-.76-1.73,57.84,57.84,0,0,1,38-14.15C176.28,4.31,177.13,4.33,178,4.37Z"/><path class="cls-3" d="M177,1.83c-.17.71-.36,1.46-.55,2.23a61.62,61.62,0,0,1-1.92,6.63c-1,2.09-8.78,1.73-11.56-1.4-1.49-1.68-6-.46-10.24,1.24-3.71,1.47-7.26,3.32-8.55,4a2.79,2.79,0,0,0-1.49,2.84c0,1.79.5,4.15.09,6.59s-2.44-.4-3.91-3.07c-.93-1.65-1.65-3.19-1.65-3.19a8.54,8.54,0,0,1-.76-1.73,57.82,57.82,0,0,1,38-14.15C175.29,1.77,176.14,1.79,177,1.83Z"/><path class="cls-2" d="M143.08,28.19c-.77,0-1.83-.72-3.89-4.44-.93-1.66-1.64-3.18-1.67-3.25a9,9,0,0,1-.79-1.82l-.15-.47.37-.32A58.8,58.8,0,0,1,175.42,3.57c1,0,1.82,0,2.6.06l.9,0-.76,3.11a54.52,54.52,0,0,1-2,6.76c-.39.84-1.41,1.41-3,1.64-3.11.46-7.75-.49-9.84-2.85-.46-.51-2.29-1.4-9.41,1.44-3.08,1.23-6.09,2.72-7.7,3.53l-.79.39c-.76.37-1.06,1-1.07,2.18a16.92,16.92,0,0,0,.11,2.05,18.6,18.6,0,0,1,0,4.65c-.15.95-.55,1.49-1.18,1.6Zm-4.76-9.49a8.1,8.1,0,0,0,.53,1.12c0,.07.75,1.59,1.65,3.2A12.76,12.76,0,0,0,143,26.58c0-.07,0-.15.06-.25A17.58,17.58,0,0,0,143,22c-.06-.78-.12-1.52-.11-2.2a3.57,3.57,0,0,1,1.91-3.49l.78-.39c1.63-.82,4.68-2.33,7.82-3.58,6-2.38,9.59-2.72,11.08-1,1.7,1.92,5.77,2.77,8.49,2.36,1.16-.17,1.71-.53,1.82-.78a54.4,54.4,0,0,0,1.88-6.5L177,5.08l-1.61,0A57.26,57.26,0,0,0,138.32,18.7Z"/><path class="cls-1" d="M147.37,112.42a.75.75,0,0,1-.6-.3l-.08-.1c-5-6.7-20.64-30.74-10.39-59.3A59.71,59.71,0,0,1,161.41,22a70.54,70.54,0,0,1,40.7-10.1.75.75,0,0,1-.07,1.5,69.08,69.08,0,0,0-39.84,9.87,58.21,58.21,0,0,0-24.49,30c-10,27.85,5.26,51.35,10.18,57.89l.08.1a.76.76,0,0,1-.15,1A.78.78,0,0,1,147.37,112.42Z"/><path class="cls-1" d="M223.14,92.66h0c-35.68-1.65-60.78-16.12-75.55-28-16-12.85-23.71-25.51-23.78-25.63a.75.75,0,1,1,1.28-.77c.08.12,7.66,12.58,23.49,25.27,14.59,11.69,39.39,26,74.63,27.61a.75.75,0,0,1,0,1.49Z"/><path class="cls-1" d="M147.69,112.63a.71.71,0,0,1-.32-.07.73.73,0,0,1-.36-1c6.3-13.4,12.66-26.09,20-39.92,10.78-20.3,21.72-39.12,34.42-59.24a.75.75,0,0,1,1.27.8C190,33.3,179.1,52.09,168.34,72.35c-7.34,13.81-13.68,26.47-20,39.85A.74.74,0,0,1,147.69,112.63Z"/><path class="cls-1" d="M113.6,141.87l1.74,4.08s1.86,2.16,2.89,1.81,1-3.08,1-3.08l-1.76-4.23Z"/><path class="cls-2" d="M118,148.55c-1.31,0-2.77-1.58-3.23-2.11a.82.82,0,0,1-.12-.2l-1.74-4.08a.76.76,0,0,1,0-.59.73.73,0,0,1,.43-.41l3.83-1.41a.74.74,0,0,1,.95.41l1.76,4.23a.67.67,0,0,1,.06.28c0,.77,0,3.31-1.48,3.8A1.5,1.5,0,0,1,118,148.55Zm-2-3c.73.81,1.69,1.56,2,1.5a4,4,0,0,0,.46-2.22L117,141.4l-2.43.9Z"/><path class="cls-1" d="M119.1,143.75s9.58-.41,10.46.9.47,1.64.47,1.64l-12.53,5s-1.82-.92-2.06-2a11.38,11.38,0,0,1,0-2.95S119.71,147,119.1,143.75Z"/><path class="cls-4" d="M120.17,144.83s9.59-.41,10.46.9.47,1.64.47,1.64l-12.52,5s-1.83-.91-2.07-2a11.38,11.38,0,0,1,0-3S120.78,148.11,120.17,144.83Z"/><path class="cls-2" d="M117.5,152.07a.64.64,0,0,1-.33-.08c-.36-.17-2.16-1.14-2.46-2.51a11.85,11.85,0,0,1,0-3.2.78.78,0,0,1,.3-.51.74.74,0,0,1,.56-.14c.48.08,2,.14,2.59-.48.1-.1.39-.4.23-1.27a.74.74,0,0,1,.71-.88c3.73-.16,10.15-.21,11.11,1.24,1.13,1.69.6,2.4.32,2.63a.76.76,0,0,1-.19.12l-12.53,5A.66.66,0,0,1,117.5,152.07Zm-1.39-4.89a8.06,8.06,0,0,0,.06,2c.09.43.8,1,1.38,1.34l11.77-4.73a3.6,3.6,0,0,0-.39-.7c-.59-.52-5-.73-9-.6a2.53,2.53,0,0,1-.7,1.73A4.27,4.27,0,0,1,116.11,147.18Z"/><path class="cls-1" d="M87,83.19s-1.19,7.06,7.23,22.66c4.4,8.14,7,15,11.07,22.38,3.32,6.06,6.29,11,8.43,14.48l4.34-1.6s-4.38-18.37-4.9-20.15-11.35-42.25-11.35-42.25Z"/><path class="cls-3" d="M88.29,82.23s-1.2,7.06,7.23,22.67c4.39,8.13,7,15,11.06,22.37,3.33,6.06,6.29,11,8.44,14.48l4.33-1.6S115,121.79,114.46,120,103.1,77.76,103.1,77.76Z"/><path class="cls-2" d="M113.68,143.46a.74.74,0,0,1-.63-.36c-2.92-4.71-5.76-9.6-8.46-14.51-2-3.71-3.68-7.23-5.43-11s-3.46-7.37-5.64-11.41c-8.45-15.66-7.36-22.85-7.31-23.14a.77.77,0,0,1,.53-.6L101.55,78a.73.73,0,0,1,.58.06.72.72,0,0,1,.36.46c.11.4,10.85,40.48,11.35,42.23s4.73,19.43,4.91,20.19a.76.76,0,0,1-.47.87l-4.34,1.6A.75.75,0,0,1,113.68,143.46Zm-26-59.7c-.08,1.76.18,8.77,7.18,21.74,2.2,4.07,4,7.84,5.68,11.49s3.38,7.22,5.38,10.88c2.59,4.71,5.31,9.39,8.1,13.92l3.14-1.15c-.79-3.28-4.29-17.91-4.74-19.47s-9.63-35.82-11.16-41.52Z"/><path class="cls-1" d="M131.36,50.77a11.35,11.35,0,0,1,2.63-.32,15.2,15.2,0,0,0,3,.38,12.22,12.22,0,0,0,2.75-1c.21-.24.12-.83-.09-.87s-3.09.85-3.26,0,.88-1.19,1.29-1.32,4.74-.37,5.32-.51-.3-1-.94-1a44.81,44.81,0,0,0-5.22.05c-.38.13-3.53,1.46-3.79,1.54s-2,.09-2,.09Z"/><path class="cls-1" d="M86.8,143l.22,4.43s1,2.67,2.08,2.7,2-2.56,2-2.56L90.89,143Z"/><path class="cls-2" d="M89.12,150.87h0c-1.48,0-2.49-2.45-2.76-3.19a.59.59,0,0,1,0-.23L86.06,143a.75.75,0,0,1,.2-.55.74.74,0,0,1,.54-.23h4.09a.74.74,0,0,1,.75.72l.19,4.57a.86.86,0,0,1,0,.28C91.54,148.53,90.61,150.87,89.12,150.87Zm-1.36-3.61c.4,1,1.06,2.05,1.36,2.11a4,4,0,0,0,1.2-1.92l-.15-3.71H87.59Z"/><path class="cls-1" d="M91.19,146.29s9,3.32,9.3,4.87-.2,1.7-.2,1.7l-13.5-.2s-1.33-1.55-1.13-2.65a11.29,11.29,0,0,1,1.13-2.72S90.48,149.55,91.19,146.29Z"/><path class="cls-4" d="M92.35,147.8s9,3.33,9.3,4.87-.2,1.7-.2,1.7l-13.5-.2s-1.33-1.55-1.13-2.64A11.44,11.44,0,0,1,88,148.8S91.64,151.07,92.35,147.8Z"/><path class="cls-2" d="M100.29,153.61h0l-13.49-.2a.78.78,0,0,1-.56-.26c-.26-.31-1.55-1.89-1.3-3.27a11.93,11.93,0,0,1,1.22-3,.75.75,0,0,1,.46-.36.74.74,0,0,1,.58.09c.41.25,1.78.9,2.57.56.13-.06.52-.22.71-1.08a.74.74,0,0,1,1-.54c3.51,1.29,9.44,3.72,9.77,5.43.39,2-.37,2.45-.72,2.56Zm-13.14-1.7,12.68.19a3.63,3.63,0,0,0-.08-.8c-.35-.7-4.33-2.6-8.1-4a2.54,2.54,0,0,1-1.31,1.33,4.2,4.2,0,0,1-3.23-.3,7.94,7.94,0,0,0-.71,1.86A3.1,3.1,0,0,0,87.15,151.91Z"/><path class="cls-1" d="M82.1,78.71c-2.52,10.59-2,18.43-1.06,23.77a104.8,104.8,0,0,1,2.35,15.13c.3,4.45,0,5.71.29,9.69a75.42,75.42,0,0,0,2.91,16.5h4.62c.73-8.75,1.67-15.82,2.37-20.59,1.93-13.06,4.08-22.06,4.91-37.19.1-1.79.16-3.25.19-4.18Z"/><path class="cls-3" d="M80.18,85.19c-2.52,9.57-2,16.66-1.05,21.48a86.91,86.91,0,0,1,2.34,13.68c.31,4,.06,5.17.3,8.76A62.67,62.67,0,0,0,84.67,144h4.62c.74-7.92,1.68-14.31,2.38-18.62,1.93-11.8,4.07-19.94,4.91-33.61.1-1.62.15-2.94.19-3.78Z"/><path class="cls-2" d="M91.21,144.55H86.59a.74.74,0,0,1-.72-.54,77.46,77.46,0,0,1-2.94-16.66c-.11-1.9-.12-3.21-.12-4.47,0-1.42,0-2.89-.17-5.22a85.53,85.53,0,0,0-1.84-12.59c-.19-.88-.36-1.7-.5-2.46a58.31,58.31,0,0,1,1.07-24.07.74.74,0,0,1,.87-.56l16.58,3.13a.75.75,0,0,1,.61.76c0,.93-.09,2.4-.19,4.2a225.93,225.93,0,0,1-3.3,27.12c-.53,3.2-1.08,6.51-1.62,10.13-1,6.7-1.78,13.62-2.37,20.55A.74.74,0,0,1,91.21,144.55Zm-4.06-1.5h3.37c.58-6.73,1.36-13.44,2.32-20,.54-3.63,1.09-6.94,1.63-10.15a226.7,226.7,0,0,0,3.27-27c.08-1.41.14-2.62.17-3.52L82.66,79.58a56.45,56.45,0,0,0-.88,22.76c.14.75.3,1.55.48,2.42a86.93,86.93,0,0,1,1.88,12.8c.16,2.38.16,3.87.17,5.31s0,2.54.12,4.38A75.5,75.5,0,0,0,87.15,143.05Z"/><path class="cls-1" d="M131.51,47l-4,.33L114.59,48.4A48.93,48.93,0,0,0,103,47.09a39.59,39.59,0,0,1-6.54-.22c-2.46-.31-3.11-.65-4.92-.82a19.54,19.54,0,0,0-7.45.82,34.73,34.73,0,0,0-5.14,5,31.22,31.22,0,0,0-2.63,3.62c-3.12,5.36,1.81,12.21,3.35,22.9a46.35,46.35,0,0,1,.13,12c1.32.06,2.43-.07,4.81,0,5.54.06,8.31.1,10.19-.4a28.44,28.44,0,0,0,9.92-5.5,94.6,94.6,0,0,1-3.27-16.25c-.47-4.23-.57-7.67-.69-10.5,2.88,0,5.9-1.18,10.27-2.36a97.85,97.85,0,0,1,16.15-2.94c2.91-.6,5-1.06,5-1.06Z"/><path class="cls-4" d="M129.5,48.09l-4,.31-12.93,1A50.92,50.92,0,0,0,101,48.16,43,43,0,0,1,94.48,48c-2.46-.29-3.1-.62-4.92-.78a20.63,20.63,0,0,0-7.45.78A33.79,33.79,0,0,0,77,52.67a29.18,29.18,0,0,0-2.63,3.43c-3.12,5.09,1.81,11.58,3.35,21.72a41.77,41.77,0,0,1,.13,11.38c1.32.06,2.43-.06,4.81,0,5.54.06,8.31.1,10.19-.38a28.75,28.75,0,0,0,9.92-5.21,85.67,85.67,0,0,1-3.27-15.42c-.47-4-.57-7.28-.69-10,2.88,0,5.9-1.11,10.27-2.24a103.22,103.22,0,0,1,16.15-2.78c2.91-.57,5-1,5-1Z"/><path class="cls-2" d="M80.64,91.12l-.85,0a.72.72,0,0,1-.53-.26.74.74,0,0,1-.18-.57A46,46,0,0,0,79,78.47,68.46,68.46,0,0,0,76.42,68c-1.58-5.21-2.83-9.33-.72-13a31.64,31.64,0,0,1,2.71-3.72,34.56,34.56,0,0,1,5.25-5.08.58.58,0,0,1,.25-.12,20.19,20.19,0,0,1,7.73-.85,18.38,18.38,0,0,1,2.31.37c.68.14,1.44.3,2.64.45a36.23,36.23,0,0,0,5.74.23l.68,0a49.79,49.79,0,0,1,11.64,1.31l16.8-1.38a.75.75,0,0,1,.8.62l.73,4.29a.74.74,0,0,1-.58.85l-5,1.07h-.08a96.93,96.93,0,0,0-16,2.91c-1.08.29-2.08.58-3,.86a32.83,32.83,0,0,1-6.68,1.5l0,.54c.11,2.61.23,5.58.63,9.16a94.17,94.17,0,0,0,3.25,16.12.74.74,0,0,1-.22.77A28.69,28.69,0,0,1,95,90.63c-2,.53-4.78.49-10.38.43-1.15,0-2,0-2.72,0Zm3.83-43.57a33.11,33.11,0,0,0-4.91,4.78A29.55,29.55,0,0,0,77,55.83c-1.79,3.07-.68,6.72.86,11.78a69.53,69.53,0,0,1,2.58,10.64,47.34,47.34,0,0,1,.22,11.37l1.21,0c.72,0,1.61,0,2.78,0,5.47.06,8.21.1,10-.38a27.16,27.16,0,0,0,9.26-5,94.35,94.35,0,0,1-3.17-15.91c-.4-3.63-.53-6.62-.64-9.26l0-1.29a.74.74,0,0,1,.74-.78,27.15,27.15,0,0,0,7-1.47c.94-.28,2-.57,3-.87a99.56,99.56,0,0,1,16.22-3l4.29-.9-.49-2.9-16.24,1.33a.55.55,0,0,1-.22,0A48.23,48.23,0,0,0,103,47.84l-.68,0a38.42,38.42,0,0,1-6-.24c-1.25-.16-2.05-.33-2.75-.47a16.1,16.1,0,0,0-2.15-.35A18.73,18.73,0,0,0,84.47,47.55Z"/><path class="cls-1" d="M86.32,39,83.49,49.14s5.2,4.24,7.8-1.26l1.22-8.08Z"/><path class="cls-1" d="M101,68.1s1.45-1.26,1.53-1.81a6.43,6.43,0,0,1,1.19-2.64,16.92,16.92,0,0,1,2.71-1.95.52.52,0,0,1,.38.7c-.1.33-1.58,1.75-1.48,2l.1.24s5.12-4.55,5.36-4.57.77.47.67.73-3.53,3-3.48,3.13,4.29-3.24,4.46-3.13a1.06,1.06,0,0,1,.28,1c-.14.34-4.11,2.88-4,3.08s3.88-2.09,4.15-2a.48.48,0,0,1,.32.69c-.19.28-4.15,2.29-4.1,2.49s3.12-1.41,3.31-1.06.23.34,0,.59-3.5,1.75-3.6,2A10.08,10.08,0,0,1,104.74,69l-2.28,1.56Z"/><path class="cls-2" d="M136.91,51.58a16.67,16.67,0,0,1-3.15-.41,14.42,14.42,0,0,0-2.25.33.73.73,0,0,1-.59-.12.81.81,0,0,1-.31-.53l-.34-2.93a.76.76,0,0,1,.19-.58.74.74,0,0,1,.55-.26c.75,0,1.67,0,1.85-.07l1.94-.8c.82-.33,1.6-.66,1.78-.72a41.61,41.61,0,0,1,5.54-.08,2.06,2.06,0,0,1,1.8,1.52.92.92,0,0,1-.77,1c-.32.08-1.26.15-2.76.27-1,.08-2.29.19-2.52.24a2.41,2.41,0,0,0-.53.21,12.31,12.31,0,0,0,1.6-.26,2.1,2.1,0,0,1,.84-.1,1,1,0,0,1,.74.72,1.42,1.42,0,0,1-.24,1.39,10.29,10.29,0,0,1-3.23,1.2Zm-3.2-1.91a1.19,1.19,0,0,1,.58.1,18.23,18.23,0,0,0,2.44.31,1.46,1.46,0,0,1-.59-.23,1.09,1.09,0,0,1-.49-.71c-.11-.57,0-1.62,1.8-2.17a3.68,3.68,0,0,1,.68-.11,9.2,9.2,0,0,0-1.11.06l-1.65.68c-1.48.61-2,.81-2.12.85a5.55,5.55,0,0,1-1.39.12l.15,1.31A9.74,9.74,0,0,1,133.71,49.67Z"/><path class="cls-2" d="M102.46,71.31h-.17a.81.81,0,0,1-.48-.35l-1.45-2.47a.75.75,0,0,1,.15-.94,6.51,6.51,0,0,0,1.3-1.41,6.75,6.75,0,0,1,1.45-3.06l.09-.07c2.46-2,2.77-2.07,3.14-2a1.11,1.11,0,0,1,.86.5,1.09,1.09,0,0,1,.17.34c2.81-2.45,3-2.46,3.23-2.48A1.55,1.55,0,0,1,112,60l.08.13a.63.63,0,0,1,.79,0,1.75,1.75,0,0,1,.57,1.92.55.55,0,0,1-.08.15,1.27,1.27,0,0,1,.57.64,1.13,1.13,0,0,1-.1,1.07c-.1.16-.24.29-.78.61l0,0,0,.1a1,1,0,0,1-.16,1.35,8,8,0,0,1-1.94,1.1c-.61.31-1.53.78-1.7.91a1.08,1.08,0,0,0,.15-.2c-.34.65-3.15,1.75-4.47,1.88l-2.11,1.44A.72.72,0,0,1,102.46,71.31Zm-.5-3.06.74,1.25,1.62-1.11a.89.89,0,0,1,.43-.13h0A10.27,10.27,0,0,0,108.23,67a1.63,1.63,0,0,1,.47-.35.77.77,0,0,1-.33-.44.65.65,0,0,1,.09-.65.76.76,0,0,1-.41-.38.7.7,0,0,1-.1-.51l-.18,0a.72.72,0,0,1-.49-.5.26.26,0,0,1,0-.11l-1.32,1.16a.75.75,0,0,1-.66.17.78.78,0,0,1-.53-.44l-.09-.24a.9.9,0,0,1,.13-.91l-.49.39-.09.08a6.31,6.31,0,0,0-.92,2.16A4.13,4.13,0,0,1,102,68.25Zm6.17-1.08h0Z"/><path class="cls-1" d="M79.86,54.78s-3.25,1.29-3.15,3.75,6.72,22.39,8.76,23S103.3,70.49,103.3,70.49l-2.15-3.11L88.56,72.87S85.81,57.05,84.31,56,82.41,54.67,79.86,54.78Z"/><path class="cls-4" d="M78.6,56.39s-3.26,1.28-3.15,3.75,6.71,22.39,8.75,23S102,72.09,102,72.09L99.89,69,87.3,74.48s-2.76-15.82-4.25-16.91S81.14,56.28,78.6,56.39Z"/><path class="cls-2" d="M85.54,82.32a1.36,1.36,0,0,1-.3,0c-2.68-.85-9.18-21.55-9.27-23.72-.13-3,3.46-4.41,3.62-4.47a.64.64,0,0,1,.24-.05c2.67-.12,3.28.12,4.92,1.32,1.48,1.07,3.45,11.21,4.39,16.45l11.71-5.12a.77.77,0,0,1,.92.26l2.15,3.11a.76.76,0,0,1-.17,1C99.1,74.54,88.31,82.32,85.54,82.32ZM80,55.53c-.51.22-2.64,1.29-2.57,3,0,1,1.49,6,3.5,11.67,2.72,7.64,4.26,10.29,4.74,10.67,1.48,0,9.43-5.26,16.57-10.52l-1.38-2-12,5.25a.75.75,0,0,1-1-.56c-1.3-7.43-3.14-15.62-4-16.45C82.56,55.62,82.31,55.43,80,55.53Z"/><path class="cls-2" d="M87.49,51.45A8.05,8.05,0,0,1,83,49.72a.75.75,0,0,1-.25-.78L85.6,38.75a.75.75,0,0,1,.82-.54l6.19.84a.73.73,0,0,1,.5.3.74.74,0,0,1,.14.56L92,48a.65.65,0,0,1-.06.21,5.18,5.18,0,0,1-3.47,3.14A4.4,4.4,0,0,1,87.49,51.45Zm-3.14-2.61a5.41,5.41,0,0,0,3.82,1,3.72,3.72,0,0,0,2.4-2.22l1.08-7.22-4.78-.65Z"/><path class="cls-1" d="M96.92,34.92a6.64,6.64,0,1,1-7.65-5.46A6.64,6.64,0,0,1,96.92,34.92Z"/><path class="cls-2" d="M90.36,43.4a7.39,7.39,0,1,1,7.29-8.61h0a7.39,7.39,0,0,1-6.07,8.51A7.26,7.26,0,0,1,90.36,43.4Zm0-13.28a6.35,6.35,0,0,0-1,.08,5.84,5.84,0,0,0-3.83,2.39A5.89,5.89,0,1,0,96.18,35h0A5.9,5.9,0,0,0,90.37,30.12Z"/><path class="cls-2" d="M84.75,38.25a2.22,2.22,0,0,1-.63,0A2.31,2.31,0,0,1,84,33.7a1.36,1.36,0,0,1,.7,0c.65.23,1,1.24.93,2.54l.32-4.34c2.86,1.14,4.69.88,5.84.39s1.73-1.15,2.66-1c1.15.22,1.85,1.6,2.27,2.74a3.37,3.37,0,0,0,2-1.95A3.17,3.17,0,0,0,98.63,30,3.84,3.84,0,0,0,96,27.69c-.93-.22-1.39.1-2-.34s-.48-.93-.83-1.42c-1-1.33-4.12-.95-6.14-.1a8.89,8.89,0,0,0-3.86,3.26,7.31,7.31,0,0,0-2.62,1.78,6.29,6.29,0,0,0-1.89,4.51c.19,3.28,3.59,4.94,4,5.12a7.48,7.48,0,0,0,3.55.67C85.71,40.2,85.23,39.22,84.75,38.25Z"/><path class="cls-2" d="M92.82,34.21a.61.61,0,0,0,.65.57.62.62,0,0,0,.57-.66.61.61,0,0,0-.66-.56A.6.6,0,0,0,92.82,34.21Z"/><path class="cls-2" d="M88.25,34.88a.61.61,0,1,0,.56-.66A.62.62,0,0,0,88.25,34.88Z"/><path class="cls-2" d="M91.63,37.74a.36.36,0,0,1-.34-.23.37.37,0,0,1,.2-.49,2.67,2.67,0,0,0,.77-.4l0,0a10.87,10.87,0,0,0-.83-1.18.37.37,0,0,1,.05-.52.38.38,0,0,1,.53,0A9,9,0,0,1,93,36.25a.67.67,0,0,1,.09.19.75.75,0,0,1-.3.76,3.62,3.62,0,0,1-1,.52A.39.39,0,0,1,91.63,37.74Zm.69-1.1Z"/><path class="cls-2" d="M89.11,38.27a.38.38,0,0,1,.5-.18,3.33,3.33,0,0,0,.58.26,3.41,3.41,0,0,0,.53.13.39.39,0,0,1,.3.44.4.4,0,0,1-.44.3,4.12,4.12,0,0,1-1.29-.45A.38.38,0,0,1,89.11,38.27Z"/><g class="cls-5"><path class="cls-4" d="M89.88,36.45c0-.34-.87-.73-1.62-.44-.34.13-.78.46-.76.71s.71.43,1.22.37S89.88,36.74,89.88,36.45Z"/></g><g class="cls-5"><path class="cls-4" d="M95.71,35.42c0-.34-.88-.73-1.62-.45-.35.14-.79.46-.76.72s.7.43,1.21.36S95.71,35.71,95.71,35.42Z"/></g><path class="cls-1" d="M86.65,35.6A2.31,2.31,0,1,1,84,33.7,2.31,2.31,0,0,1,86.65,35.6Z"/></g></g></svg>