<svg xmlns="http://www.w3.org/2000/svg" viewBox="0 0 284.68 144.85"><defs><style>.cls-1{fill:#fff;}.cls-2{fill:#f0a74d;}.cls-3{fill:#49194f;}.cls-4{fill:#c7a6cc;}.cls-5{opacity:0.49;}</style></defs><g id="Layer_2" data-name="Layer 2"><g id="_1" data-name="1"><polygon class="cls-1" points="208.92 15.41 154.75 15.41 162.76 27.16 200.91 27.16 208.92 15.41"/><polygon class="cls-2" points="206.14 13.58 151.97 13.58 159.98 25.33 198.13 25.33 206.14 13.58"/><rect class="cls-1" x="154.75" y="27.16" width="54.17" height="10.12"/><rect class="cls-1" x="166.46" y="37.28" width="32.12" height="94.65"/><rect class="cls-2" x="163.46" y="35.71" width="32.12" height="94.65"/><path class="cls-3" d="M199.34,132.67H165.71V36.53h33.63Zm-32.13-1.5h30.63V38H167.21Z"/><rect class="cls-3" x="171.53" y="37.28" width="1.5" height="94.65"/><rect class="cls-3" x="178.31" y="37.28" width="1.5" height="94.65"/><rect class="cls-3" x="185.09" y="37.28" width="1.5" height="94.65"/><rect class="cls-3" x="191.87" y="37.28" width="1.5" height="94.65"/><path class="cls-3" d="M199.34,132.67H165.71V36.53h33.63Zm-32.13-1.5h30.63V38H167.21Z"/><rect class="cls-2" x="154.75" y="27.16" width="54.17" height="6.77"/><path class="cls-3" d="M209.67,38H154V26.41h55.67ZM155.5,36.53h52.67V27.91H155.5Z"/><path class="cls-3" d="M201.31,27.91H162.37l-9-13.25h57Zm-38.15-1.5h37.35l7-10.25H156.17Z"/><ellipse class="cls-1" cx="154.75" cy="37.28" rx="15.3" ry="14.87"/><ellipse class="cls-2" cx="151.97" cy="35.71" rx="15.3" ry="14.87"/><path class="cls-3" d="M154.75,52.9A15.86,15.86,0,0,1,138.7,37.28a16.06,16.06,0,0,1,32.1,0A15.86,15.86,0,0,1,154.75,52.9Zm0-29.75A14.36,14.36,0,0,0,140.2,37.28a14.56,14.56,0,0,0,29.1,0A14.36,14.36,0,0,0,154.75,23.15Z"/><path class="cls-3" d="M154.75,45.87a8.6,8.6,0,1,1,8.82-8.59A8.72,8.72,0,0,1,154.75,45.87Zm0-15.69a7.1,7.1,0,1,0,7.32,7.1A7.22,7.22,0,0,0,154.75,30.18Z"/><path class="cls-3" d="M154.75,41.37a4.1,4.1,0,1,1,4.19-4.09A4.15,4.15,0,0,1,154.75,41.37Zm0-6.7a2.61,2.61,0,1,0,2.7,2.61A2.66,2.66,0,0,0,154.75,34.67Z"/><ellipse class="cls-1" cx="208.92" cy="37.28" rx="15.3" ry="14.87"/><ellipse class="cls-2" cx="210.88" cy="35.71" rx="15.3" ry="14.87"/><path class="cls-3" d="M208.92,52.9a15.86,15.86,0,0,1-16-15.62,16.05,16.05,0,0,1,32.09,0A15.86,15.86,0,0,1,208.92,52.9Zm0-29.75a14.36,14.36,0,0,0-14.55,14.13,14.56,14.56,0,0,0,29.1,0A14.36,14.36,0,0,0,208.92,23.15Z"/><path class="cls-3" d="M208.92,45.87a8.6,8.6,0,1,1,8.82-8.59A8.71,8.71,0,0,1,208.92,45.87Zm0-15.69a7.1,7.1,0,1,0,7.32,7.1A7.22,7.22,0,0,0,208.92,30.18Z"/><path class="cls-3" d="M208.92,41.37a4.1,4.1,0,1,1,4.2-4.09A4.14,4.14,0,0,1,208.92,41.37Zm0-6.7a2.61,2.61,0,1,0,2.7,2.61A2.66,2.66,0,0,0,208.92,34.67Z"/><rect class="cls-3" y="130.33" width="284.68" height="14.52"/><path class="cls-1" d="M58.17,45.88C67.94,41.23,77.28,26.25,78.06,8.1c0-1.07.07-2.14.07-3.23s0-2.17-.07-3.23H29.44c-.05,1.06-.07,2.14-.07,3.23s0,2.16.07,3.23c.78,18.15,10.21,33.19,20,37.84-10.34,5-20,21.5-20,41.25,0,2.22.1,4.39.28,6.52H77.86q.27-3.19.27-6.52C78.13,67.44,68.51,50.84,58.17,45.88Z"/><rect class="cls-3" x="25.68" width="56.15" height="6.26"/><rect class="cls-3" x="25.68" y="89.09" width="56.15" height="6.26"/><path class="cls-3" d="M78.54,94.46H29l-.06-.68c-.19-2.14-.29-4.36-.29-6.59a58.15,58.15,0,0,1,6.23-26.51c3.48-6.76,8-11.94,12.95-14.74C38.7,40.76,29.49,26.55,28.7,8.13c-.05-1-.08-2.13-.08-3.26s0-2.23.08-3.27l0-.71H78.78l0,.71c0,1,.07,2.14.07,3.27s0,2.23-.07,3.26c-.79,18.4-10,32.58-19,37.75,4.91,2.81,9.45,8,12.92,14.77a58.63,58.63,0,0,1,6.18,26.54c0,2.23-.09,4.45-.28,6.59ZM30.34,93H77.17c.14-1.88.22-3.82.22-5.77,0-20.3-10.07-36.09-19.54-40.63l-1.42-.68,1.42-.67c9.06-4.32,18.66-18.46,19.47-37.14,0-1,.07-2.09.07-3.2,0-.85,0-1.68,0-2.48H30.16c0,.8,0,1.63,0,2.48,0,1.11,0,2.18.07,3.19.6,13.81,7.65,31.54,19.55,37.2l1.42.68-1.42.67C40.23,51.18,30.12,67,30.12,87.19,30.12,89.14,30.2,91.08,30.34,93Z"/><path class="cls-2" d="M34.76,22.58a39.91,39.91,0,0,0,8.45,14.61c3.23,3.51,5.5,6,8.83,6.22,7.13.51,13-9.71,15.23-13.66A43.92,43.92,0,0,0,71.5,19.47c-3.17-1.39-7.81-2.76-12.42-1.08s-5.84,5.33-10.24,6.9C46,26.29,41.58,26.56,34.76,22.58Z"/><path class="cls-2" d="M32,89.09c-2-9,8.67-16.31,19.57-16.75,11.59-.46,24.38,6.85,22.81,16.5Z"/><path class="cls-3" d="M53.79,45.35l-.55,0c-3.62-.24-6-2.71-9.32-6.11A37.88,37.88,0,0,1,35.3,25.11a.75.75,0,0,1,.22-.81.76.76,0,0,1,.85-.09c5.26,2.91,9.79,3.75,13.48,2.51a13.19,13.19,0,0,0,4.69-3,15.82,15.82,0,0,1,5.54-3.51c3.79-1.31,8.15-1,13,1a.75.75,0,0,1,.43.9A40.48,40.48,0,0,1,69.16,32C66.94,35.72,61.12,45.35,53.79,45.35ZM37.39,26.43A36,36,0,0,0,45,38.17c3.2,3.29,5.31,5.46,8.35,5.66,6.67.44,12.39-9,14.54-12.56a39.65,39.65,0,0,0,4-8.9c-4.2-1.64-8-1.89-11.26-.76a14.3,14.3,0,0,0-5,3.22,14.69,14.69,0,0,1-5.21,3.31C46.65,29.38,42.31,28.8,37.39,26.43Z"/><path class="cls-3" d="M32.91,91.8a.76.76,0,0,1-.73-.59,11.16,11.16,0,0,1,2.33-9.41c3.65-4.72,10.69-8,17.94-8.25,7.87-.31,16.1,2.81,20.5,7.78A11.42,11.42,0,0,1,76,90.92a.74.74,0,0,1-.73.63l-42.38.25ZM53.56,75c-.35,0-.7,0-1.05,0-6.82.27-13.42,3.28-16.81,7.66a9.81,9.81,0,0,0-2.17,7.58l41.11-.23a10.14,10.14,0,0,0-2.81-7.74C67.9,77.89,60.67,75,53.56,75Z"/><path class="cls-2" d="M48.29,64.91c.6-.13,1.72.93,1.4,1.79a1.42,1.42,0,0,1-1.92.64C47.14,66.84,47.6,65.06,48.29,64.91Z"/><path class="cls-2" d="M56.1,51c.47-.16,1.62.67,1.4,1.66-.17.78-1.11,1.24-1.53,1C55.3,53.31,55.46,51.16,56.1,51Z"/><path class="cls-2" d="M50.46,50.32c-.37-.68,1-2.54,1.92-2.31a1.58,1.58,0,0,1,.77,2.05A1.84,1.84,0,0,1,50.46,50.32Z"/><path class="cls-2" d="M51.23,57.23a1.16,1.16,0,0,1,1.41-.51,1.53,1.53,0,0,1,.51,2.17C52.67,59.19,51,58,51.23,57.23Z"/><path class="cls-2" d="M55.2,69.26a1.49,1.49,0,0,1,2,0,1.57,1.57,0,0,1-.9,2.18,1.35,1.35,0,0,1-1.53-.77A1.33,1.33,0,0,1,55.2,69.26Z"/><path class="cls-3" d="M49.64,67.77a1.64,1.64,0,0,1-1-.33,2,2,0,0,1-.51-2.11,2,2,0,0,1,1.33-1.64h0a2,2,0,0,1,1.77.77,2,2,0,0,1,.5,2,2.07,2.07,0,0,1-1.4,1.21A2.48,2.48,0,0,1,49.64,67.77Zm.1-2.58a1.49,1.49,0,0,0-.19,1.1A1.57,1.57,0,0,0,50,66.2a.55.55,0,0,0,.3-.24.52.52,0,0,0-.09-.34A1.12,1.12,0,0,0,49.74,65.19Z"/><path class="cls-3" d="M57.5,54a1.24,1.24,0,0,1-.58-.13c-.89-.45-.86-1.78-.83-2.18s.21-1.62,1.06-1.89h0a1.81,1.81,0,0,1,1.66.52,2.12,2.12,0,0,1,.71,2,2.17,2.17,0,0,1-1.21,1.46A1.89,1.89,0,0,1,57.5,54Zm.17-2.68a2.66,2.66,0,0,0-.05,1.15.72.72,0,0,0,.44-.46.49.49,0,0,0-.11-.4A1,1,0,0,0,57.67,51.28Z"/><path class="cls-3" d="M53,51.05a2.15,2.15,0,0,1-1.89-.86c-.48-.88.27-2,.51-2.28a2.31,2.31,0,0,1,2.25-1.11,1.92,1.92,0,0,1,1.23,1.13,2.11,2.11,0,0,1-2,3.12Zm-.53-1.59a1.52,1.52,0,0,0,.83.06.71.71,0,0,0,.49-.28.79.79,0,0,0,0-.6.76.76,0,0,0-.27-.39,1.37,1.37,0,0,0-.53.39A2.06,2.06,0,0,0,52.45,49.46Z"/><path class="cls-3" d="M54.25,59.2a2.51,2.51,0,0,1-1.37-.57c-.33-.24-1.35-1.1-1.09-2.08a1.49,1.49,0,0,1,.78-.9,2.06,2.06,0,0,1,1.61-.12,2,2,0,0,1,1.25,1.83,1.78,1.78,0,0,1-.6,1.69A1.12,1.12,0,0,1,54.25,59.2ZM53.3,57a2.38,2.38,0,0,0,.65.6,1.38,1.38,0,0,0-.09-.39.44.44,0,0,0-.19-.24A.59.59,0,0,0,53.3,57Zm-.78-.22Z"/><path class="cls-3" d="M57.36,71.73A2,2,0,0,1,56,68.23h0a2.4,2.4,0,0,1,1.8-.6,1.9,1.9,0,0,1,1.36.69,2,2,0,0,1,.2,1.89,2.25,2.25,0,0,1-1.52,1.47A2.14,2.14,0,0,1,57.36,71.73ZM57,69.32a.63.63,0,0,0-.2.6.61.61,0,0,0,.66.3.79.79,0,0,0,.46-.51.7.7,0,0,0,0-.48.48.48,0,0,0-.3-.11A.87.87,0,0,0,57,69.32Z"/><path class="cls-1" d="M184.34,96.79V131.7H13.86a34.62,34.62,0,0,1,0-34.91Z"/><path class="cls-4" d="M184.34,94.24V131.7H18.47a40.42,40.42,0,0,1,0-37.46Z"/><path class="cls-3" d="M184.34,132.45H13.43l-.22-.38a35.36,35.36,0,0,1,0-35.65l.22-.38H184.34v1.5H14.3a33.83,33.83,0,0,0,0,33.41h170Z"/><path class="cls-1" d="M184.34,99.92v28.65H128.29c-9,0-16.35-6.41-16.35-14.32a13.47,13.47,0,0,1,4.78-10.13,17.56,17.56,0,0,1,11.57-4.2Z"/><path class="cls-3" d="M125.54,128.46a17.92,17.92,0,0,1-7.73-3.22c-.35-.26-5.83-4.48-5.87-11a12.53,12.53,0,0,1,.73-4.27,14.4,14.4,0,0,1,4-5.86,17.14,17.14,0,0,1,6.69-3.55,20.28,20.28,0,0,0-4.82,13.52C118.87,122.12,124.21,127.25,125.54,128.46Z"/><path class="cls-3" d="M184.34,129.32H128.29c-9.43,0-17.1-6.76-17.1-15.07a14.13,14.13,0,0,1,5-10.69,18.23,18.23,0,0,1,12.06-4.39h56.05v1.5H128.29a16.75,16.75,0,0,0-11.07,4,12.65,12.65,0,0,0-4.54,9.57c0,7.48,7,13.57,15.61,13.57h56.05Z"/><rect class="cls-3" x="131.54" y="104.49" width="52.8" height="1.5"/><rect class="cls-3" x="155.2" y="109.25" width="29.14" height="1.5"/><rect class="cls-3" x="139.76" y="120.88" width="44.39" height="1.5"/><path class="cls-3" d="M36.84,132.45a.73.73,0,0,1-.53-.22c-17.57-17.54-.18-35.52,0-35.7a.75.75,0,0,1,1.06,1.06,30.2,30.2,0,0,0-6.3,10.62c-2.74,8.32-.62,16.05,6.3,23a.75.75,0,0,1,0,1.06A.74.74,0,0,1,36.84,132.45Z"/><path class="cls-3" d="M44.07,132.45a.77.77,0,0,1-.59-.28c-13.55-17.24-.15-35.38,0-35.56a.75.75,0,0,1,1.05-.15.76.76,0,0,1,.15,1.05c-.53.7-12.84,17.42,0,33.73a.75.75,0,0,1-.13,1A.74.74,0,0,1,44.07,132.45Z"/><path class="cls-1" d="M224.77,85.78,211.85,72.5l5.35-5.17,4.8,7.75-2-9.78s9-6.42,22.42-3.58,23.34,13.91,23.34,13.91l-7.93,9.23,10.7-5.72s9,11.26,8.86,20.11a84.59,84.59,0,0,1-3,18.48l-14.57-8.14S257.61,92,251.89,89.36,224.77,85.78,224.77,85.78Z"/><path class="cls-1" d="M226.24,95.38,222,84.31s17.9-6.28,29,2.21,11.81,26,11.81,26h-8.67Z"/><path class="cls-1" d="M256.8,130.25s-4.72-5.35-4.54-7.93,4.29-10.89,4.54-12.73,1-12.89-9.34-17.7S225.69,93,222.37,96.3l-3.32,3.32s19.93,11.63,22,11.44l-3,7.38S251.94,133.94,256.8,130.25Z"/><path class="cls-2" d="M222.55,87.33,209.64,74.05,215,68.88l4.79,7.75-2-9.78s9-6.42,22.41-3.58,23.35,13.92,23.35,13.92l-7.94,9.22,10.7-5.72s9,11.26,8.86,20.11a84.89,84.89,0,0,1-2.95,18.48l-14.58-8.14s-2.21-17.57-7.93-20.22S222.55,87.33,222.55,87.33Z"/><path class="cls-3" d="M274.86,118.84l-15.73-8.79-.05-.37c-.6-4.77-3.12-17.6-7.5-19.64-5.52-2.56-26.63-3.5-26.84-3.51h-.3l-13.65-14,6.56-6.33,3.06,4.93L219.14,65l.4-.28c.38-.27,9.46-6.57,23-3.7s23.33,13.68,23.75,14.14l.44.49L261,82.31l7.71-4.12.39.48c.38.47,9.21,11.57,9,20.6a85.65,85.65,0,0,1-3,18.67Zm-14.34-9.73,13.41,7.5a82.5,82.5,0,0,0,2.68-17.37c.15-7.47-6.62-16.9-8.32-19.14l-13.67,7.31,10.1-11.75c-2.08-2.13-11.08-10.78-22.49-13.2a29.87,29.87,0,0,0-21.42,3.19l2.79,13.43-6.55-10.56-4.14,4L225.1,85.05c2.72.12,21.62,1.09,27.11,3.63S260.15,106.44,260.52,109.11Z"/><path class="cls-3" d="M263.56,113.29h-9.67L225.64,95.88l-4.61-12,.72-.25a46.75,46.75,0,0,1,10.52-2.12c7.86-.68,14.48.86,19.16,4.45,5.88,4.5,8.85,11.5,10.32,16.57a47.33,47.33,0,0,1,1.78,10Zm-9.24-1.5H262c-.3-3.46-2.11-17.51-11.46-24.67S226.42,83.74,223,84.78l3.87,10.09Z"/><path class="cls-3" d="M226.24,95.38,222,84.31s17.9-6.28,29,2.21,11.81,26,11.81,26h-8.67Z"/><path class="cls-4" d="M256.8,128.7s-4.72-5.35-4.54-7.94,4.29-10.88,4.54-12.73,1-12.88-9.34-17.7-21.77,1.1-25.09,4.42l-3.32,3.32s19.93,11.62,22,11.44l-3,7.38S251.94,132.39,256.8,128.7Z"/><path class="cls-3" d="M255,131.55c-6.05,0-16.3-11.17-17.59-12.61l-.32-.35,2.87-7c-4.18-1.41-17.08-8.85-21.31-11.31l-.84-.49,4-4c3-3,14.81-9.75,25.94-4.56,11.44,5.32,9.84,17.94,9.77,18.48a31.35,31.35,0,0,1-1.91,5.2c-1.13,2.73-2.54,6.13-2.63,7.48-.12,1.65,2.61,5.41,4.36,7.38l.53.61-.64.49A3.64,3.64,0,0,1,255,131.55Zm-16.16-13.26c4.9,5.36,13.13,12.59,16.75,11.71-1.36-1.64-4.26-5.45-4.1-7.74.12-1.59,1.45-4.82,2.75-7.94a35.4,35.4,0,0,0,1.8-4.84c.07-.49,1.53-12-8.91-16.91-9.52-4.43-20.66.67-24.25,4.26l-2.63,2.63c9.18,5.33,19.33,10.83,20.69,10.85l1.22-.11-.48,1.15Z"/><path class="cls-1" d="M242.11,109.4s-21.77-10.89-24.17-16.05c0,0-3.5,20.29-3.69,22.14s-.92,6.83,0,6.27.37-5.53,1.48-6.45,8.48-3.88,8.48-3.88l.93,5.72-9,3.32s-4.37,20.67-3.3,21.59,22.3-11.24,22.3-11.24-2.95-6.1-1.48-8.5,6.28-4.59,6.28-4.59Z"/><path class="cls-4" d="M239.59,109.4s-21.78-10.89-24.18-16.05c0,0-3.5,20.29-3.69,22.14s-.92,6.83,0,6.27.37-5.53,1.48-6.45,8.49-3.88,8.49-3.88l.92,5.72-9,3.32s-4.37,20.67-3.29,21.59,22.29-11.24,22.29-11.24-2.95-6.1-1.47-8.5,6.27-4.59,6.27-4.59Z"/><path class="cls-3" d="M212.93,142.87a.77.77,0,0,1-.61-.24c-.38-.32-1.36-1.16,2.67-20.55a1.37,1.37,0,0,1-.35.33,1,1,0,0,1-1,0c-.71-.45-.75-1.56-.24-5.94,0-.4.09-.77.12-1.06.18-1.85,3.55-21.36,3.69-22.19l.41-2.36,1,2.17c1.88,4,17.84,12.7,23.83,15.7l.54.27-2.46,9.26-.32.15c-.05,0-4.61,2.12-6,4.3-.92,1.49.44,5.57,1.52,7.78l.3.63-.61.35c-.05,0-5.37,3.08-10.76,6C216.36,141.93,213.87,142.87,212.93,142.87Zm.49-1.2ZM216.74,121c-1.81,8.65-3.46,18.05-3.37,20.27,2.48-.68,13.15-6.45,20.76-10.79-.76-1.75-2.54-6.32-1.14-8.59s5.13-4.16,6.27-4.72l2-7.4c-3.14-1.6-18.23-9.42-22.86-14.56-.78,4.54-2.81,16.44-3.28,19.65a1.21,1.21,0,0,1,.16-.16c1.16-1,7.92-3.69,8.69-4l.87-.34,1.16,7.25Zm6.88-8.55a58.34,58.34,0,0,0-7.41,3.4c-.34.28-.48,2.07-.56,3,0,.34-.05.66-.08,1l8.73-3.21Z"/><path class="cls-3" d="M230.15,73.64a.73.73,0,0,1-.7-.48c-1.28-3.41-1.71-11-1.73-11.31a.75.75,0,0,1,1.5-.08c0,.08.43,7.67,1.63,10.86a.74.74,0,0,1-.44,1A.63.63,0,0,1,230.15,73.64Z"/><path class="cls-3" d="M239.59,68.1a.74.74,0,0,1-.75-.75V61.54a.75.75,0,1,1,1.49,0v5.81A.74.74,0,0,1,239.59,68.1Z"/><path class="cls-3" d="M249.34,79.69a.73.73,0,0,1-.35-.09.75.75,0,0,1-.31-1L255,67a.75.75,0,1,1,1.32.71L250,79.3A.74.74,0,0,1,249.34,79.69Z"/><path class="cls-3" d="M265.41,94.1a.75.75,0,0,1-.06-1.5l10.85-.84a.75.75,0,1,1,.12,1.49l-10.85.84Z"/><path class="cls-3" d="M276.7,107.41a.6.6,0,0,1-.22,0l-11.29-3.51a.75.75,0,1,1,.44-1.43l11.3,3.51a.75.75,0,0,1-.23,1.47Z"/><path class="cls-3" d="M277.36,100h-.1l-5.27-.7a.77.77,0,0,1-.65-.85.75.75,0,0,1,.84-.64l5.27.71a.75.75,0,0,1,.65.84A.74.74,0,0,1,277.36,100Z"/><path class="cls-1" d="M79.78,91a1.87,1.87,0,0,0-.3.14c-2.75,1.6-1.77,10.15-1.65,11.06.86,7,1.93,15.37,3.31,24.87a2.49,2.49,0,0,0,1.48.55,2.8,2.8,0,0,0,2.49-1.84L87,95.63C85.62,94,82.06,90.13,79.78,91Z"/><path class="cls-1" d="M85.15,125.23A6.75,6.75,0,0,1,87.61,131l-13.13,2.58a3.68,3.68,0,0,1-.21-.88,1.87,1.87,0,0,1,.45-1.31c.76-1.12,2.28-1.73,3.21-2.25A9.24,9.24,0,0,0,81,126.27a2.55,2.55,0,0,0,1.84.76A2.6,2.6,0,0,0,85.15,125.23Z"/><path class="cls-2" d="M85.79,126.32a6.68,6.68,0,0,1,2,2.67,6.57,6.57,0,0,1,.48,3.14l-13.12,2.58a3.85,3.85,0,0,1-.21-.88,1.92,1.92,0,0,1,.45-1.32c.76-1.11,2.28-1.72,3.21-2.24a9.24,9.24,0,0,0,3.09-2.91,2.55,2.55,0,0,0,1.84.76A2.6,2.6,0,0,0,85.79,126.32Z"/><path class="cls-3" d="M82.64,128.4h0a3.17,3.17,0,0,1-1.94-.72l-.23-.18,0-.3c-1.17-8-2.25-16.18-3.32-24.88-.28-2.33-1-10,2-11.8a3.42,3.42,0,0,1,.4-.19h0c2-.77,4.67.85,8.06,4.81l.2.24L85.85,126l0,.12A3.54,3.54,0,0,1,82.64,128.4Zm-.81-1.73a1.61,1.61,0,0,0,.8.23h0a2,2,0,0,0,1.73-1.28l1.87-29.73c-2.69-3.08-5-4.64-6.18-4.16l-.2.09c-1.75,1-1.73,6.73-1.29,10.32C79.62,110.71,80.69,118.74,81.83,126.67Z"/><path class="cls-3" d="M100.33,39.85a3.66,3.66,0,0,0,1-2.22,2.27,2.27,0,0,0-.07-.53,5.6,5.6,0,0,1,1.07-4,6.58,6.58,0,0,1,2.36-2,10.25,10.25,0,0,1,3-.93,13.71,13.71,0,0,1,6.8.56,7.53,7.53,0,0,1,4.51,4c.73,1.89.22,3.91.14,5.88s.49,4.2,2.59,5.26a18.09,18.09,0,0,1-10.7,3.3,18.94,18.94,0,0,1-6-1,16.55,16.55,0,0,1-2.71-1.21,4.62,4.62,0,0,1-1.54-1.24C99.65,44.22,99.21,41.46,100.33,39.85Z"/><path class="cls-1" d="M121.07,53.94s-3.45.79-3.55,5.5-.83,18.11,1.11,18.94,4.34,3.15,12.84-16.53c0,0,1.85.64,2.31.09s1.85-4.44,1.39-4.62-1.48-.37-1.11-.83,1-2.23.74-2.55-.55-.79-1,0-4.52,5.6-4.8,6.06-4.49,5.73-4.49,5.73,2-8.6,1.07-9.61S124.16,53.89,121.07,53.94Z"/><path class="cls-1" d="M104.05,53.23s3.45.79,3.55,5.5.83,18.11-1.11,18.94-4.35,3.15-12.85-16.53c0,0-1.84.64-2.31.09S89.49,56.79,90,56.61s1.48-.37,1.11-.83-1-2.23-.74-2.55.55-.79,1,0,4.53,5.6,4.81,6.06S100.63,65,100.63,65s-2-8.6-1.07-9.61S101,53.18,104.05,53.23Z"/><path class="cls-3" d="M120.35,79.67a3.93,3.93,0,0,1-1.74-.48l-.27-.12c-1.81-.77-2-6.39-1.63-17.19,0-1,.05-1.79.06-2.45.09-4.19,2.74-5.9,4.13-6.22l.16,0c3,0,3.91,1,4.7,2,.12.14.23.28.36.41.74.82.39,3.92-.23,7.16,1.2-1.52,2.31-2.93,2.45-3.16s.62-.83,1.89-2.38c1.13-1.38,2.67-3.26,2.91-3.67a1.46,1.46,0,0,1,1-.8,1.33,1.33,0,0,1,1.12.61l.07.08c.58.67,0,2.19-.43,3l.14,0,.37.13a.88.88,0,0,1,.52.63c.26,1-1.15,4.62-1.61,5.17s-1.6.55-2.46.34c-5.88,13.49-8.68,16-10.46,16.7A3,3,0,0,1,120.35,79.67Zm.83-25c-.45.13-2.83,1-2.91,4.77,0,.67,0,1.51-.07,2.47-.12,4-.45,14.78.76,15.78l.27.12a1.9,1.9,0,0,0,1.68.23c2.18-.84,5.51-6.39,9.88-16.51l.27-.64.66.23a3.88,3.88,0,0,0,1.53.26,16.74,16.74,0,0,0,1.24-3.52,1.65,1.65,0,0,1-1.22-.93,1,1,0,0,1,.21-.93,4.28,4.28,0,0,0,.45-1c-.54.7-1.43,1.8-2.54,3.15-.77,1-1.65,2-1.77,2.21-.29.47-3.84,4.92-4.54,5.81L123,68.77l.74-3.21c.87-3.76,1.57-8.26,1.21-9-.1-.1-.23-.26-.36-.42C123.92,55.32,123.41,54.69,121.18,54.69Z"/><path class="cls-3" d="M104.77,79a3,3,0,0,1-1.09-.21C101.9,78.07,99.1,75.54,93.22,62c-.86.22-1.92.31-2.46-.33s-1.88-4.14-1.61-5.17a.88.88,0,0,1,.52-.63l.37-.13.14,0c-.42-.81-1-2.33-.43-3l.07-.08a1.4,1.4,0,0,1,1.12-.61,1.46,1.46,0,0,1,1,.8c.24.41,1.78,2.29,2.91,3.67,1.27,1.55,1.76,2.16,1.89,2.38s1.25,1.64,2.45,3.16c-.62-3.24-1-6.34-.23-7.16.13-.13.24-.27.36-.41.79-1,1.69-2,4.7-2l.15,0c1.4.32,4.05,2,4.14,6.22,0,.66,0,1.5.06,2.46.34,10.79.18,16.41-1.63,17.18l-.27.12A3.93,3.93,0,0,1,104.77,79ZM94.06,60.2l.27.64C98.7,71,102,76.51,104.21,77.35a1.93,1.93,0,0,0,1.68-.23l.3-.13c1.18-1,.85-11.72.73-15.77,0-1-.06-1.8-.07-2.47-.08-3.74-2.48-4.64-2.91-4.77-2.2,0-2.75.63-3.43,1.46-.13.16-.26.32-.4.47-.32.68.38,5.18,1.25,8.94l.74,3.21L100,65.48c-.71-.88-4.25-5.33-4.54-5.81-.12-.18-1-1.26-1.77-2.2-1.11-1.35-2-2.45-2.54-3.15a4.28,4.28,0,0,0,.45,1,1,1,0,0,1,.21.93,1.67,1.67,0,0,1-1.22.93,16.39,16.39,0,0,0,1.24,3.52,4.26,4.26,0,0,0,1.53-.26Z"/><path class="cls-1" d="M103.13,89S86.33,97.17,86,99s.48,3.63,1.57,5.32,16.31,20.9,16.31,20.9,1.33,1.57,2.42,1.57,1.81-2.78,1.45-3.14S95.63,103,95.63,103l7.25-2.3Z"/><path class="cls-3" d="M106.27,127.52c-1.37,0-2.73-1.53-3-1.84-.64-.8-15.28-19.27-16.37-21s-2.12-3.66-1.68-5.87c.38-1.89,11.17-7.42,17.57-10.55l1.1-.54-.28,13.48-6.87,2.18c4.53,7.85,11,19,11.54,19.74s0,2.34-.14,2.67C107.7,126.91,107,127.52,106.27,127.52Zm-3.92-37.35c-7.45,3.69-15.1,7.93-15.67,9-.24,1.25.21,2.72,1.49,4.7.84,1.31,11,14.21,16.27,20.84.43.51,1.33,1.29,1.83,1.29a3.23,3.23,0,0,0,.79-2c-1-1.48-7-11.89-12.07-20.65l-.47-.81,7.63-2.41ZM107.09,124a.76.76,0,0,0,.1.13Z"/><path class="cls-1" d="M107.72,123.63a8.88,8.88,0,0,1,1.7,3.14,19.27,19.27,0,0,1,0,3.18l-13.36.56s-.4-1.69.56-2.13,7-3.52,7-3.52S106.37,126.32,107.72,123.63Z"/><path class="cls-2" d="M108.59,124.8a8.88,8.88,0,0,1,1.7,3.14,19.27,19.27,0,0,1,0,3.18l-13.36.56s-.4-1.69.56-2.13,7-3.52,7-3.52S107.24,127.49,108.59,124.8Z"/><path class="cls-1" d="M116.22,50.51,123,54.26S119.48,74,120.13,75.71c2.92,7.59,7.52,11.16,5.91,15.82-1.3,3.78-6.07,5.36-13.49,7.81A67.91,67.91,0,0,1,97,102.53a49.9,49.9,0,0,1-8.64-3.21A26.56,26.56,0,0,0,82.59,97a12.73,12.73,0,0,0-6.14.08,10.36,10.36,0,0,1,1.4-5.89c2-3.22,5.48-4.05,14-6.42,2.69-.75,7-2,12.54-3.61,0,0,1.27-3,.71-4.92s-4.21-10.59-3.58-14.89a25.1,25.1,0,0,0,0-7.63l5.74-2.87Z"/><path class="cls-2" d="M114.24,49.35,121,53.09s-3.47,19.78-2.83,21.45c2.92,7.59,7.53,11.16,5.92,15.82-1.3,3.78-6.07,5.36-13.49,7.82a67.79,67.79,0,0,1-15.52,3.18,49.9,49.9,0,0,1-8.64-3.21,27.28,27.28,0,0,0-5.8-2.33,12.86,12.86,0,0,0-6.14.08A10.24,10.24,0,0,1,75.87,90c2-3.23,5.48-4,14-6.43,2.69-.75,7-2,12.54-3.61,0,0,1.27-3,.71-4.92s-4.22-10.59-3.58-14.89a25.1,25.1,0,0,0,0-7.63l5.73-2.87Z"/><path class="cls-3" d="M97,103.28l-.13,0A51.84,51.84,0,0,1,88.07,100l-.72-.35a23.09,23.09,0,0,0-4.93-1.94,12.41,12.41,0,0,0-5.8.09l-.89.21,0-.91a11,11,0,0,1,1.51-6.31c2.06-3.31,5.54-4.28,13.18-6.41L91.63,84c4-1.11,8.06-2.28,12.18-3.5a7.94,7.94,0,0,0,.55-4.09c-.1-.36-.33-1-.63-1.82-1.22-3.42-3.51-9.76-3-13.39a25,25,0,0,0,0-7.38l-.11-.56,6.39-3.2,9.35-.33,7.39,4.11-.1.52c-1.63,9.33-3.19,19.88-2.86,21.07a46.65,46.65,0,0,0,3.48,6.91c2,3.43,3.57,6.14,2.44,9.41-1.42,4.12-6.41,5.78-14,8.27a67.84,67.84,0,0,1-15.69,3.22ZM79.8,95.91a12.58,12.58,0,0,1,3,.35,24.33,24.33,0,0,1,5.23,2l.72.35a49.42,49.42,0,0,0,8.38,3.12,66.88,66.88,0,0,0,15.21-3.14c7.13-2.36,11.84-3.92,13-7.34.9-2.62-.46-5-2.33-8.17A48.28,48.28,0,0,1,119.43,76c-.65-1.67,1.79-16.11,2.7-21.32L116,51.27l-8.61.31-5.1,2.55a26.89,26.89,0,0,1-.09,7.32c-.48,3.25,1.72,9.37,2.9,12.66.31.84.55,1.51.66,1.91.63,2.16-.69,5.29-.74,5.42l-.14.33-.34.1c-4.23,1.25-8.46,2.46-12.55,3.61l-1.24.35c-7.47,2.08-10.56,2.94-12.31,5.75a9.12,9.12,0,0,0-1.29,4.57A14.82,14.82,0,0,1,79.8,95.91Z"/><path class="cls-1" d="M107.91,42.84c-.2.29-.77,9.5-.77,9.5a9.91,9.91,0,0,0,5.28,1.92,5.26,5.26,0,0,0,4.22-2.4l-3-9.59Z"/><path class="cls-3" d="M112.42,55a10.67,10.67,0,0,1-5.74-2.07l-.31-.25,0-.39c.59-9.42.76-9.67.89-9.87l.2-.3,6.72-.67L117.45,52l-.17.29A6,6,0,0,1,112.42,55Zm-4.51-3a8.93,8.93,0,0,0,4.51,1.54,4.4,4.4,0,0,0,3.4-1.77l-2.69-8.67-4.58.46C108.4,44.84,108.13,48.53,107.91,52Z"/><path class="cls-1" d="M115.82,38.88a6.56,6.56,0,1,1-6.56-6.56A6.56,6.56,0,0,1,115.82,38.88Z"/><path class="cls-3" d="M109.26,46.19a7.31,7.31,0,1,1,7.31-7.31A7.31,7.31,0,0,1,109.26,46.19Zm0-13.12a5.81,5.81,0,1,0,5.81,5.81A5.82,5.82,0,0,0,109.26,33.07Z"/><path class="cls-3" d="M74,134.47l-.23-.57a4.32,4.32,0,0,1-.27-1.08,2.58,2.58,0,0,1,.55-1.77A7.49,7.49,0,0,1,77,128.83l.59-.31a8.61,8.61,0,0,0,2.83-2.67l.51-.75.64.64a1.8,1.8,0,0,0,1.28.55A1.87,1.87,0,0,0,84.44,125l.36-1,.82.68a7.5,7.5,0,0,1,2.73,6.46l0,.56Zm7.15-7.14a9.79,9.79,0,0,1-2.87,2.5q-.28.16-.63.33a6.34,6.34,0,0,0-2.33,1.69,1.23,1.23,0,0,0-.33.81.28.28,0,0,1,0,.09l11.86-2.33a6.09,6.09,0,0,0-1.54-4,3.21,3.21,0,0,1-2.45,1.34A3,3,0,0,1,81.17,127.33Z"/><path class="cls-3" d="M95.47,131.29l-.14-.61c-.2-.85-.22-2.43,1-3,.94-.43,6.87-3.48,6.93-3.51l.34-.18.35.18a2.88,2.88,0,0,0,1.95.22,2,2,0,0,0,1.17-1.12l.51-1,.74.9a9.38,9.38,0,0,1,1.86,3.52,19.52,19.52,0,0,1,0,3.34l-.06.66Zm8.14-5.6c-1.26.64-5.82,3-6.67,3.37-.15.07-.21.36-.21.67l12-.5a15.65,15.65,0,0,0,0-2.36,5.69,5.69,0,0,0-.94-1.94,3.22,3.22,0,0,1-1.41.91A4.23,4.23,0,0,1,103.61,125.69Z"/><path class="cls-3" d="M106.8,37.91a.61.61,0,1,1-.69-.53A.62.62,0,0,1,106.8,37.91Z"/><path class="cls-3" d="M111.41,37.6a.62.62,0,1,1-.69-.53A.62.62,0,0,1,111.41,37.6Z"/><path class="cls-3" d="M108.62,41.12h-.06a3.61,3.61,0,0,1-1.06-.3.75.75,0,0,1-.45-.68,1.49,1.49,0,0,1,0-.19,11.41,11.41,0,0,1,.62-1.49.38.38,0,1,1,.67.35,8.69,8.69,0,0,0-.56,1.33h0a2.79,2.79,0,0,0,.83.24.36.36,0,0,1,.3.43A.38.38,0,0,1,108.62,41.12Z"/><path class="cls-3" d="M111.28,41.09a.38.38,0,0,0-.53-.06,3.68,3.68,0,0,1-.51.37,4.44,4.44,0,0,1-.49.24.38.38,0,0,0-.2.49.4.4,0,0,0,.5.2,4.07,4.07,0,0,0,1.16-.71A.39.39,0,0,0,111.28,41.09Z"/><g class="cls-5"><path class="cls-4" d="M110.14,39.47c-.07-.32.7-.89,1.49-.77.37.06.87.29.89.54s-.59.57-1.1.61S110.2,39.76,110.14,39.47Z"/></g><g class="cls-5"><path class="cls-4" d="M104.23,39.69c-.07-.32.7-.89,1.49-.77.37,0,.86.28.89.54s-.59.56-1.11.61S104.29,40,104.23,39.69Z"/></g><path class="cls-3" d="M115.51,37.08a5.83,5.83,0,0,0-2-4.72c-3.26-2.58-8.76-1.43-10.24,1.49-.54,1-.72,2.65-.09,3.21s1.15-.06,2.6-.4,3.41-.17,7.36.18C114.17,36.93,115,37,115.51,37.08Z"/><path class="cls-1" d="M132,77.72l-19.4,4.75-1.89-.09L89,77.72V50.28a52.53,52.53,0,0,1,8.86,2.09,53.42,53.42,0,0,1,12.29,5.92l2.39-.08A53.91,53.91,0,0,0,126,53.05a55.83,55.83,0,0,0,6.11-3.89c.12.69.24,1.38.35,2.09A79.33,79.33,0,0,1,132,77.72Z"/><path class="cls-3" d="M112.7,83.22l-2.12-.11L88.22,78.32V49.41l.85.13a52.22,52.22,0,0,1,9,2.12,54.23,54.23,0,0,1,12.27,5.87l2.09-.07a53.21,53.21,0,0,0,13.25-5.07,55.18,55.18,0,0,0,6-3.84l1-.7.21,1.17c.13.7.25,1.4.36,2.12a80.31,80.31,0,0,1-.46,26.71l-.09.48Zm-1.86-1.58,1.72.07,18.82-4.61a78.68,78.68,0,0,0,.37-25.73c-.05-.31-.09-.61-.14-.91a55.74,55.74,0,0,1-5.22,3.24,54.71,54.71,0,0,1-13.7,5.24l-.15,0-2.63.08-.2-.13a51.9,51.9,0,0,0-20-7.76v26Z"/><path class="cls-1" d="M135,78.05l-22.11,4.42-2.16-.08L86,78.05V52.53l24.15,5.22,2.4.07L135,52.53Z"/><path class="cls-4" d="M135,78.23,113.4,82.38l-2.11-.07L87,78.23v-24l23.64,4.91,2.35.06,22-5Z"/><path class="cls-3" d="M113,83.22l-2.35-.09L85.21,78.68V51.6l25,5.41,2.23.06,23.36-5.49V78.66Zm-2.14-1.58,2,.07,21.42-4.28v-24l-21.71,5.1L110,58.49l-23.24-5v24Z"/><rect class="cls-3" x="110.2" y="61.18" width="2.38" height="0.99"/><rect class="cls-3" x="110.2" y="62.89" width="2.38" height="0.99"/><rect class="cls-3" x="110.48" y="76.77" width="2.38" height="0.99"/><rect class="cls-3" x="110.48" y="78.48" width="2.38" height="0.99"/><path class="cls-3" d="M104.71,61.93a.47.47,0,0,1-.16,0L88.81,58.56a.75.75,0,0,1,.31-1.47l15.75,3.36a.75.75,0,0,1-.16,1.48Z"/><path class="cls-3" d="M101.41,65h-.17L91.6,62.81a.75.75,0,1,1,.32-1.46l9.65,2.14a.76.76,0,0,1,.57.9A.75.75,0,0,1,101.41,65Z"/><path class="cls-3" d="M104.23,76.1h-.16l-14.37-3A.75.75,0,0,1,90,71.64l14.37,3a.75.75,0,0,1-.15,1.48Z"/><path class="cls-3" d="M110.2,83a.75.75,0,0,1-.75-.74L108.94,58a.75.75,0,0,1,.73-.76h0a.75.75,0,0,1,.75.73L111,82.25a.76.76,0,0,1-.73.77Z"/><path class="cls-3" d="M113.45,83a.75.75,0,0,1-.75-.74l-.59-24.14a.75.75,0,0,1,1.5,0l.59,24.14a.76.76,0,0,1-.73.77Z"/><path class="cls-3" d="M124.81,68.25c-2,0-3.55-2-3.55-4.56s1.6-4.56,3.55-4.56,3.56,2,3.56,4.56S126.77,68.25,124.81,68.25Zm0-7.62c-1.11,0-2,1.4-2,3.06s.94,3.06,2,3.06,2.06-1.4,2.06-3.06S125.93,60.63,124.81,60.63Z"/><path class="cls-3" d="M120,72.67a.75.75,0,0,1-.11-1.5l11.9-1.72a.75.75,0,0,1,.22,1.49l-11.9,1.72Z"/><path class="cls-3" d="M124.22,75a.75.75,0,0,1-.11-1.49l7.69-1.13a.75.75,0,0,1,.22,1.48L124.33,75Z"/><path class="cls-1" d="M88.57,60.66a1.25,1.25,0,0,0,0-.9.46.46,0,0,0-.32-.24h-.14l0-.06a1.18,1.18,0,0,0,.06-.9.49.49,0,0,0-.35-.25h-.12a.86.86,0,0,0,.1-.16,1.26,1.26,0,0,0,.07-.9.44.44,0,0,0-.3-.25,15.82,15.82,0,0,0-3.59,1.11.27.27,0,0,0-.14.17,1,1,0,0,0,.5,1.06,3.41,3.41,0,0,0-.46.22.23.23,0,0,0-.12.17,1,1,0,0,0,.7,1.1h.13a.18.18,0,0,0,0,.09,1,1,0,0,0,.63,1.1l.11,0a.93.93,0,0,0,.49.92.52.52,0,0,0,.21,0,1.18,1.18,0,0,0,.52-.17l-.06-.17h0l.07.17h0l.85-.4c.68-.3.84-.38,1-.67a1.21,1.21,0,0,0,0-.8l0,0A.6.6,0,0,0,88.57,60.66Z"/><path class="cls-3" d="M86.06,63.77a1.27,1.27,0,0,1-.47-.09,1.56,1.56,0,0,1-.93-1.1,1.8,1.8,0,0,1-.78-1.22,1.81,1.81,0,0,1-.79-1.74,1,1,0,0,1,.2-.46,1.8,1.8,0,0,1-.12-1,1,1,0,0,1,.47-.67c.3-.19,3.49-1.38,4.19-1.2a1.21,1.21,0,0,1,.79.64,1.66,1.66,0,0,1,.09,1,1.35,1.35,0,0,1,.2.27,1.58,1.58,0,0,1,.14.89,1,1,0,0,1,.22.3,1.91,1.91,0,0,1,0,1.53h0a.61.61,0,0,1-.05.12,2.17,2.17,0,0,1-.11,1c-.2.6-.58.77-1.34,1.11l-.09,0-.76.35h0A1.94,1.94,0,0,1,86.06,63.77Zm-.59-2.46h0a.76.76,0,0,1,.61.74.24.24,0,0,1,.11-.06.72.72,0,0,1,.5,0l.33-.15.09,0c.24-.1.46-.21.56-.26a.75.75,0,0,0,0-.2.75.75,0,0,1,.14-.93.66.66,0,0,0,0-.15.72.72,0,0,1-.37-.27.73.73,0,0,1-.06-.79.75.75,0,0,0,.05-.16.71.71,0,0,1-.4-.34.74.74,0,0,1,0-.81v0c-.68.17-1.91.57-2.48.79l.06.07a.72.72,0,0,1,.39.7.74.74,0,0,1-.47.65h0l.06,0h0a.74.74,0,0,1,.58.44.73.73,0,0,1,0,.56A.3.3,0,0,0,85.47,61.31Zm2.91-.38Zm.19-.27h0Z"/><path class="cls-1" d="M137.16,60.21a2.91,2.91,0,0,0-.47-.21,1.06,1.06,0,0,0,.51-1.06.3.3,0,0,0-.14-.18,15.82,15.82,0,0,0-3.59-1.11.46.46,0,0,0-.31.25,1.25,1.25,0,0,0,.08.9.83.83,0,0,0,.09.16h-.11a.49.49,0,0,0-.35.25,1.18,1.18,0,0,0,.06.9l0,.06h-.15a.42.42,0,0,0-.31.24,1.25,1.25,0,0,0,0,.9.53.53,0,0,0,.19.27l0,0a1.19,1.19,0,0,0,0,.8c.1.29.26.37.95.68.22.09.49.22.85.39h0a1.22,1.22,0,0,0,.53.17.48.48,0,0,0,.2,0,.93.93,0,0,0,.5-.92l.1,0a1,1,0,0,0,.64-1.1.12.12,0,0,0,0-.08l.13,0a1.06,1.06,0,0,0,.7-1.1A.25.25,0,0,0,137.16,60.21Z"/><path class="cls-3" d="M135.05,64.41a1.85,1.85,0,0,1-.84-.24l-.86-.39c-.76-.34-1.14-.51-1.35-1.11a2.18,2.18,0,0,1-.11-1,.61.61,0,0,0,0-.12,1.94,1.94,0,0,1,0-1.53,1,1,0,0,1,.22-.3,1.55,1.55,0,0,1,.14-.88,1.38,1.38,0,0,1,.19-.28,1.6,1.6,0,0,1,.1-1,1.21,1.21,0,0,1,.79-.64c.7-.19,3.89,1,4.18,1.2a1,1,0,0,1,.47.67,1.63,1.63,0,0,1-.12,1,1,1,0,0,1,.21.46,1.84,1.84,0,0,1-.8,1.74,1.76,1.76,0,0,1-.78,1.22,1.57,1.57,0,0,1-.92,1.1A1.27,1.27,0,0,1,135.05,64.41Zm-1.64-2.26c.1.06.32.16.55.26l.87.4.16.07a.24.24,0,0,0,0-.12.75.75,0,0,1,.62-.8h0a.35.35,0,0,0,.11-.2.75.75,0,0,1,0-.55.78.78,0,0,1,.58-.44h0l.06,0h0a.75.75,0,0,1-.08-1.35l.07-.07c-.57-.22-1.8-.62-2.49-.79v0a.75.75,0,0,1-.36,1.17s0,.09.05.13a.74.74,0,0,1-.42,1.08.88.88,0,0,0,.05.15.71.71,0,0,1,.12.94Zm2.43-.22Zm.52-1.17Z"/></g></g></svg>