<svg xmlns="http://www.w3.org/2000/svg" viewBox="0 0 284.68 148.97"><defs><style>.cls-1{fill:#49194f;}.cls-2{fill:#fff;}.cls-3{fill:#c7a6cc;}.cls-4{fill:#f0a74d;}</style></defs><g id="Layer_2" data-name="Layer 2"><g id="_1" data-name="1"><rect class="cls-1" y="134.44" width="284.68" height="14.52"/><path class="cls-1" d="M33.53,35.9A102.38,102.38,0,0,1,68.14,21.78a105.47,105.47,0,0,1,58.2,4.92A99.1,99.1,0,0,1,150.7,12.1c28.89-12,55.81-6.87,67.21-3.94l49.3,127.64H80.73Z"/><path class="cls-2" d="M39.65,31.76A77.83,77.83,0,0,1,71.36,17.51c7-1.39,21.31-4,37.53,2.2A61.85,61.85,0,0,1,129.68,33Q150.76,81,171.84,129a227.16,227.16,0,0,1-52.65,5.47A226.75,226.75,0,0,1,78,130.09Q70.27,108.55,61.7,86.33,50.83,58.19,39.65,31.76Z"/><path class="cls-1" d="M122.18,135.19c-1,0-2,0-3,0a227.33,227.33,0,0,1-41.35-4.35.73.73,0,0,1-.55-.48C72.05,115.76,66.58,101,61,86.6,54,68.39,46.55,50,39,32.05a.74.74,0,0,1,.24-.89,79,79,0,0,1,32-14.39c6.34-1.25,21.2-4.17,37.94,2.24a62.05,62.05,0,0,1,21,13.48.63.63,0,0,1,.16.24l42.17,95.91a.75.75,0,0,1,0,.64.77.77,0,0,1-.5.4A228.58,228.58,0,0,1,122.18,135.19Zm-43.64-5.75a227.87,227.87,0,0,0,40.66,4.24,227.39,227.39,0,0,0,51.59-5.27L129.05,33.46a60.69,60.69,0,0,0-20.43-13C92.27,14.15,77.72,17,71.5,18.24A77.48,77.48,0,0,0,40.56,32C48.09,49.84,55.43,68,62.4,86.06,67.93,100.38,73.36,115,78.54,129.44Z"/><path class="cls-2" d="M129.68,33c3.85-5.23,16.75-21.31,39.54-26.56a66.21,66.21,0,0,1,27.6-.37L254.3,133.73A262,262,0,0,0,171.84,129Q150.76,81,129.68,33Z"/><path class="cls-1" d="M254.3,134.47h-.16a261.9,261.9,0,0,0-82.22-4.77.74.74,0,0,1-.76-.44L129,33.33a.78.78,0,0,1,.09-.75c5.85-7.93,18.82-22,40-26.84A66.38,66.38,0,0,1,197,5.37a.73.73,0,0,1,.54.42L255,133.42a.76.76,0,0,1-.11.78A.72.72,0,0,1,254.3,134.47Zm-56.19-7.58c8.7,0,17.39.43,26,1.28A264.38,264.38,0,0,1,253,132.68L196.29,6.76a65,65,0,0,0-26.9.44c-20.37,4.7-33,18.1-38.85,25.92l41.77,95C180.88,127.31,189.5,126.89,198.11,126.89Z"/><path class="cls-2" d="M129.68,33C133.91,27.2,148.29,9,174,2.79a75.26,75.26,0,0,1,32.81-.42q25,63.32,50,126.61a116.67,116.67,0,0,0-27.23-7,120.16,120.16,0,0,0-57.72,7Z"/><path class="cls-1" d="M256.79,129.73a.65.65,0,0,1-.27,0,115.83,115.83,0,0,0-27-6.94,119.74,119.74,0,0,0-57.37,6.91.75.75,0,0,1-.94-.4L129,33.33a.78.78,0,0,1,.08-.74c6.5-9,21-24.81,44.76-30.53A75.28,75.28,0,0,1,207,1.64a.74.74,0,0,1,.55.46l50,126.61a.76.76,0,0,1-.17.8A.73.73,0,0,1,256.79,129.73ZM130.54,33.12,172.24,128a121.1,121.1,0,0,1,57.42-6.75,117.24,117.24,0,0,1,25.81,6.43L206.27,3a73.55,73.55,0,0,0-32.09.49C151.15,9.05,137,24.29,130.54,33.12Z"/><path class="cls-2" d="M32.18,51.34c1.9-4,11.87-20.11,42.6-28.09,31.25-8.12,51.66,7.13,54.9,9.78Q150.76,81,171.84,129c-59.5-13.65-71,1-101.11,1.84C52,106.76,50.92,75.36,32.18,51.34Z"/><path class="cls-1" d="M70.73,131.54a.75.75,0,0,1-.59-.29C60.69,119.14,55.64,105,50.75,91.31S40.88,63.72,31.59,51.8A.74.74,0,0,1,31.5,51c.7-1.5,3.56-6.83,10.69-12.82,8.3-7,19.2-12.25,32.4-15.68,31.32-8.14,51.78,6.84,55.56,9.93a.65.65,0,0,1,.21.28l42.17,95.91a.76.76,0,0,1-.11.78.74.74,0,0,1-.75.25c-40.55-9.3-58.44-5.46-75.74-1.75-8,1.72-15.61,3.35-25.18,3.62ZM33.06,51.25c9.26,12,14.26,26,19.1,39.56S61.94,118.17,71.09,130c9.26-.3,16.68-1.89,24.53-3.58,17.25-3.69,35.08-7.52,74.94,1.44l-41.49-94.4C125,30.26,105.21,16.11,75,24c-13,3.38-23.69,8.55-31.82,15.38C36.81,44.68,34,49.42,33.06,51.25Z"/><path class="cls-2" d="M129.68,33S146.91,11.79,176.5,9.6s41.28,8.21,41.28,8.21l49.43,109.67S213.73,99.66,173.44,129Z"/><path class="cls-1" d="M173.44,129.69a.58.58,0,0,1-.19,0,.75.75,0,0,1-.49-.41L129,33.34a.76.76,0,0,1,.1-.79c.17-.21,17.78-21.51,47.34-23.7s41.35,8,41.84,8.4a.81.81,0,0,1,.18.26l49.43,109.66a.75.75,0,0,1-.17.86.77.77,0,0,1-.86.12A123,123,0,0,0,235.26,118c-16.64-3-40.8-3.37-61.38,11.59A.77.77,0,0,1,173.44,129.69ZM130.56,33.15l43.18,94.66c20.86-14.75,45.08-14.31,61.82-11.32a128.76,128.76,0,0,1,30.12,9.42L217.17,18.28c-1.28-1-13.27-10-40.62-7.94C149.72,12.33,133,30.4,130.56,33.15Z"/><path class="cls-3" d="M121.78,33.91a85.54,85.54,0,0,0-70.59,4.34q3.64,11.2,7.3,22.41c14.49-7.38,26.4-9.14,34.59-9.39,0,0,6.25-.2,35.73,3.94h0Z"/><path class="cls-1" d="M61.76,65.82,54,42l.55-.29a86.08,86.08,0,0,1,33.74-9.8,87.11,87.11,0,0,1,37.47,5.41l.34.13,7.51,22.78-1.19-.16c-29-4.07-35.54-3.95-35.6-3.94-11.29.35-22.82,3.48-34.27,9.31Zm-6-23.1,6.84,21C74,58,85.51,55,96.76,54.61c.25,0,6.47-.14,34.67,3.79l-6.54-19.82a85.58,85.58,0,0,0-36.5-5.19A84.53,84.53,0,0,0,55.8,42.72Z"/><path class="cls-4" d="M142.59,33.52A82.5,82.5,0,0,1,213.75,19.2l7.7,16.11a124.25,124.25,0,0,0-70,15.9Z"/><path class="cls-1" d="M150.89,56.4l-9.5-18.95.49-.37a83.15,83.15,0,0,1,71.81-14.45l.33.09,8.41,17.57-1.28-.08A123.52,123.52,0,0,0,151.57,56Zm-7.6-18.51,8.23,16.43A124.88,124.88,0,0,1,220,38.63L213,24a81.71,81.71,0,0,0-69.68,13.9Z"/><path class="cls-1" d="M154.76,63.4l-.66-1.35a112.33,112.33,0,0,1,69.07-9.91l-.26,1.48a110.74,110.74,0,0,0-68.15,9.78Z"/><path class="cls-1" d="M158,69.38l-.6-1.38a114,114,0,0,1,69.36-6.9l-.31,1.46A112.47,112.47,0,0,0,158,69.38Z"/><path class="cls-1" d="M163.21,80.35l-.85-1.24a55.39,55.39,0,0,1,13.91-7,56.79,56.79,0,0,1,25.09-2.42l-.19,1.49a55.32,55.32,0,0,0-24.43,2.35A54.25,54.25,0,0,0,163.21,80.35Z"/><path class="cls-1" d="M166.12,87.55l-.71-1.32A64.37,64.37,0,0,1,201.93,79l-.14,1.49a62.89,62.89,0,0,0-35.67,7.08Z"/><path class="cls-1" d="M170.05,96.46l-.82-1.25a49.83,49.83,0,0,1,36.34-7.27l-.27,1.47a48.46,48.46,0,0,0-35.25,7Z"/><path class="cls-3" d="M205.57,76.33l5.69,16.8a137.88,137.88,0,0,1,15.51-1.19c4.36-.09,8.46,0,12.23.3L232.4,74a39.41,39.41,0,0,0-26.83,2.36Z"/><path class="cls-1" d="M212.38,90.1l-6.1-18,.61-.28a40.14,40.14,0,0,1,27.34-2.41l.38.1,7.12,19.72-1.15-.08c-4-.28-8.12-.38-12.16-.3A134.77,134.77,0,0,0,213,90Zm-4.24-17.22,5.27,15.57a139,139,0,0,1,15-1.12c3.7-.07,7.45,0,11.15.23l-6.07-16.82a38.43,38.43,0,0,0-25.33,2.14Z"/><rect class="cls-2" x="32.55" y="48" width="109.31" height="33.5"/><rect class="cls-4" x="32.55" y="44.47" width="106.45" height="34.58"/><path class="cls-1" d="M142.61,82.25H31.8v-35H142.61ZM33.3,80.76H141.12v-32H33.3Z"/><path class="cls-1" d="M32.55,48s6.79,10.06,6.77,16.75c0,6-6.77,16.76-6.77,16.76Z"/><path class="cls-2" d="M14.33,134.42H154.92V109.29H13.78S24.1,119.83,14.33,134.42Z"/><path class="cls-3" d="M18.77,130.79H154.92v-21.5H18.24S28.24,118.3,18.77,130.79Z"/><path class="cls-1" d="M154.24,109.29s-6.23,6.87-6.07,12.57,6.07,12.56,6.07,12.56Z"/><rect class="cls-1" x="17.26" y="113.05" width="82.11" height="1.5"/><rect class="cls-1" x="18.24" y="116.74" width="119.07" height="1.5"/><rect class="cls-1" x="18.24" y="124.63" width="29.23" height="1.5"/><path class="cls-1" d="M155.67,135.17H12.93l.78-1.16c9.3-13.9-.06-23.79-.47-24.2L12,108.54H155.67Zm-140-1.49H154.17V110H15.35C17.68,113.25,22.65,122.23,15.7,133.68Z"/><path class="cls-4" d="M154.92,135.92H9.83a1.5,1.5,0,1,1,0-3H153.42V110.79H9.83a1.5,1.5,0,1,1,0-3H154.92a1.5,1.5,0,0,1,1.49,1.5v25.13A1.5,1.5,0,0,1,154.92,135.92Z"/><path class="cls-2" d="M147.44,106.64H20.87V81.51H147.94S138.64,92.05,147.44,106.64Z"/><path class="cls-1" d="M148.77,107.39H20.12V80.76H149.59L148.5,82c-.36.42-8.81,10.33-.42,24.26Zm-127.15-1.5H146.15c-6.29-11.46-1.78-20.45.32-23.64H21.62Z"/><path class="cls-1" d="M21.47,81.51s5.62,6.87,5.47,12.56-5.47,12.57-5.47,12.57Z"/><path class="cls-1" d="M151.49,108.14H20.87a1.5,1.5,0,0,1-1.5-1.5V81.51a1.5,1.5,0,0,1,1.5-1.5H151.49a1.5,1.5,0,1,1,0,3H22.36v22.14H151.49a1.5,1.5,0,0,1,0,3Z"/><rect class="cls-1" x="70.88" y="86.77" width="73.93" height="1.5"/><rect class="cls-1" x="36.72" y="90.46" width="107.2" height="1.5"/><rect class="cls-1" x="53.68" y="96.85" width="90.24" height="1.5"/><path class="cls-1" d="M143.92,83H32.55a1.5,1.5,0,0,1-1.5-1.49V48a1.5,1.5,0,0,1,1.5-1.5H143.92a1.5,1.5,0,0,1,0,3H34.05V80H143.92a1.5,1.5,0,1,1,0,3Z"/><path class="cls-2" d="M139,61.26H54.9a.75.75,0,0,1,0-1.5H139a.75.75,0,0,1,0,1.5Z"/><path class="cls-2" d="M139,73.15H86a.75.75,0,0,1,0-1.5h53a.75.75,0,0,1,0,1.5Z"/><path class="cls-2" d="M139,76.77H75.41a.75.75,0,1,1,0-1.49H139a.75.75,0,1,1,0,1.49Z"/><path class="cls-2" d="M75,104.34l-7.67,13-8.17-13v-49H75Z"/><path class="cls-3" d="M72.61,104.34,65,117.3l-8.17-13v-49H72.61Z"/><path class="cls-1" d="M67.31,118.73l-8.94-14.17V54.61H75.71v49.94Zm-7.44-14.6,7.4,11.73,6.94-11.72v-48H59.87Z"/><path class="cls-2" d="M139,56.11H47.47a.75.75,0,0,1,0-1.5H139a.75.75,0,0,1,0,1.5Z"/><circle class="cls-2" cx="74.61" cy="133.25" r="11.39" transform="translate(-71.8 176.69) rotate(-77.28)"/><path class="cls-1" d="M73.46,143.75A12.14,12.14,0,1,1,85.6,131.61,12.15,12.15,0,0,1,73.46,143.75Zm0-22.79a10.65,10.65,0,1,0,10.65,10.65A10.66,10.66,0,0,0,73.46,121Z"/><circle class="cls-2" cx="105.74" cy="133.25" r="11.39" transform="matrix(0.16, -0.99, 0.99, 0.16, -42.77, 216.2)"/><path class="cls-1" d="M104.81,143.75A12.14,12.14,0,1,1,117,131.61,12.16,12.16,0,0,1,104.81,143.75Zm0-22.79a10.65,10.65,0,1,0,10.65,10.65A10.66,10.66,0,0,0,104.81,121Z"/><path class="cls-1" d="M85.53,131.94l-1.35-.67c.08-.15,1.93-3.79,5.23-3.79s4.66,3.73,4.72,3.89l-1.42.48s-1-2.87-3.3-2.87S85.54,131.91,85.53,131.94Z"/><path class="cls-1" d="M115.79,136.56l-.88-1.21c.06,0,6.42-4.67,13-9.1,13.64-9.17,14.92-8.62,15.6-8.32,1.7.73,3,3.29,3.1,5.95a5.12,5.12,0,0,1-2.62,5l-.67-1.34a3.76,3.76,0,0,0,1.79-3.64c-.05-2-1.06-4.12-2.19-4.62C141.11,119,127.72,127.87,115.79,136.56Z"/><path class="cls-1" d="M67,137.31h-.15a.76.76,0,0,1-.59-.89c.06-.27.14-.64,11.53-12.32a.75.75,0,0,1,1.06,0,.75.75,0,0,1,0,1.06c-4.05,4.16-10.61,11-11.19,11.77A.76.76,0,0,1,67,137.31Z"/><path class="cls-1" d="M73.46,136.55a.78.78,0,0,1-.51-.2.76.76,0,0,1,0-1.06l6.33-6.81a.75.75,0,0,1,1.1,1L74,136.31A.75.75,0,0,1,73.46,136.55Z"/><path class="cls-1" d="M97.62,137.51h-.16a.76.76,0,0,1-.58-.89c.06-.27.13-.64,11.53-12.32a.75.75,0,0,1,1.06,0,.75.75,0,0,1,0,1.06c-4,4.16-10.61,11-11.19,11.77A.76.76,0,0,1,97.62,137.51Z"/><path class="cls-1" d="M104,136.75a.75.75,0,0,1-.55-1.26l6.33-6.82a.75.75,0,0,1,1.06,0,.74.74,0,0,1,0,1.05l-6.33,6.82A.75.75,0,0,1,104,136.75Z"/></g></g></svg>