<svg xmlns="http://www.w3.org/2000/svg" viewBox="0 0 293.14 156.84"><defs><style>.cls-1{fill:#49194f;}.cls-2{fill:#fff;}.cls-3{fill:#c7a6cc;}.cls-4{fill:#f0a74d;}.cls-5{opacity:0.49;}</style></defs><g id="Layer_2" data-name="Layer 2"><g id="_1" data-name="1"><rect class="cls-1" y="136.63" width="287.07" height="13.17"/><path class="cls-2" d="M31,16.48l6.72,20.85,36.51,70.42,3.22-1.67-4.38,2.27,2.76,5.32,1.16-.6,2.21,4.26a1.17,1.17,0,0,0,1.58.5l4.36-2.26a1.18,1.18,0,0,0,.5-1.59l-2.2-4.25,1.16-.6-2.76-5.33-1.16.61L44.19,34Z"/><path class="cls-3" d="M80.3,111.22h7.26a0,0,0,0,1,0,0v4.4A1.57,1.57,0,0,1,86,117.19H81.87a1.57,1.57,0,0,1-1.57-1.57v-4.4a0,0,0,0,1,0,0Z" transform="translate(-43.15 51.45) rotate(-27.41)"/><rect class="cls-4" x="58.18" y="31.89" width="7.26" height="79.32" transform="translate(-26 36.48) rotate(-27.41)"/><path class="cls-1" d="M73.93,108.76,36.73,37l7.78-4,37.2,71.75ZM38.75,37.65l35.82,69.09,5.12-2.65L43.87,35Z"/><path class="cls-1" d="M75.53,114.68,72.08,108l10.1-5.24,3.45,6.66Zm-1.43-6,2.07,4,7.44-3.86-2.07-4Z"/><path class="cls-1" d="M80.26,118.71a1.93,1.93,0,0,1-1.71-1L76,112.75l7.78-4,2.55,4.92a1.93,1.93,0,0,1-.83,2.59l-4.36,2.26A1.8,1.8,0,0,1,80.26,118.71ZM78,113.39,79.88,117a.4.4,0,0,0,.25.21.44.44,0,0,0,.32,0l4.37-2.26a.44.44,0,0,0,.18-.57l-1.87-3.59Z"/><polygon class="cls-1" points="37.03 37.56 28.94 12.47 44.78 33.54 43.59 34.44 33.1 20.5 38.46 37.1 37.03 37.56"/><path class="cls-1" d="M36.93,29.67a4.94,4.94,0,0,1-2.7-1.17l1-1.16c.56.45,1.56,1,2,.8.22-.12.44-.71.35-2L39,26c0,.68.19,2.74-1.17,3.44A2,2,0,0,1,36.93,29.67Z"/><path class="cls-1" d="M228.71,138.57H55.15V23.73a137.37,137.37,0,0,1,87.56,13.13,109.34,109.34,0,0,1,86-13.13Z"/><path class="cls-2" d="M224.05,138.57H59.33V27.08a117.36,117.36,0,0,1,47.22.13,104.37,104.37,0,0,1,36.32,15,82.41,82.41,0,0,1,36.25-17,94.83,94.83,0,0,1,44.93,1.8Z"/><rect class="cls-3" x="175.18" y="92.17" width="29.95" height="20.9"/><rect class="cls-4" x="163.95" y="102.62" width="29.95" height="20.9"/><path class="cls-1" d="M225,139.32H58.82V26.47l.6-.12a118,118,0,0,1,47.52.13,106.48,106.48,0,0,1,36.12,14.83,83.25,83.25,0,0,1,36.15-16.77,96.22,96.22,0,0,1,45.29,1.82l.54.16Zm-164.72-1.5H223.54V27.64a94.72,94.72,0,0,0-44-1.63,81.63,81.63,0,0,0-35.92,16.8l-.43.36-.47-.31A104.67,104.67,0,0,0,106.63,28a116.62,116.62,0,0,0-46.31-.26Z"/><rect class="cls-1" x="142.36" y="42.24" width="1.5" height="96.33"/><polygon class="cls-1" points="202.92 76.46 157.91 76.46 157.91 47.06 159.41 47.06 159.41 74.96 202.92 74.96 202.92 76.46"/><path class="cls-1" d="M205.48,70.77c-3.66-4.16-7.34-6.28-10.94-6.28h-.11c-2.9,0-4.9,1.42-7,2.88s-4.49,3.11-7.79,2.93-5.17-2-7-3.65c-1.71-1.57-3.33-3.06-6-3.36-3.87-.44-8.35,1.91-13.33,6.95l-1.07-1c5.32-5.39,10.22-7.87,14.56-7.39,3.15.36,5,2.08,6.84,3.74s3.39,3.11,6.1,3.26,4.76-1.21,6.85-2.66,4.49-3.1,7.85-3.14h.13c4.05,0,8.11,2.28,12.07,6.78Z"/><polygon class="cls-1" points="155.72 50.03 158.82 44.09 161.59 49.54 155.72 50.03"/><polygon class="cls-1" points="198.81 72.08 207.02 76.08 199.41 79.35 198.81 72.08"/><path class="cls-1" d="M192.54,122.18H161.09V99.78h31.45Zm-29.95-1.5H191v-19.4H162.59Z"/><path class="cls-1" d="M202.16,116.43H170.71V94h31.45Zm-29.95-1.5h28.45V95.53H172.21Z"/><rect class="cls-1" x="161.04" y="96.91" width="11.21" height="1.5" transform="translate(-26.5 99.27) rotate(-30.85)"/><rect class="cls-1" x="190.99" y="96.91" width="11.21" height="1.5" transform="matrix(0.86, -0.51, 0.51, 0.86, -22.26, 114.62)"/><rect class="cls-1" x="161.04" y="117.8" width="11.21" height="1.5" transform="translate(-37.21 102.23) rotate(-30.85)"/><rect class="cls-1" x="190.99" y="117.8" width="11.21" height="1.5" transform="matrix(0.86, -0.51, 0.51, 0.86, -32.98, 117.57)"/><path class="cls-1" d="M132.33,55.62c-.08-.06-7.62-5.28-27.65-10.54S69,45,68.86,45.06l-.48-1.41c.16-.06,16.25-5.39,36.68,0s27.83,10.55,28.13,10.76Z"/><path class="cls-1" d="M132.33,64.13c-.08,0-7.62-5.28-27.65-10.54s-35.66-.07-35.82,0l-.48-1.42c.16-.06,16.25-5.38,36.68,0s27.83,10.55,28.13,10.77Z"/><path class="cls-1" d="M132.33,72.64c-.08,0-7.62-5.28-27.65-10.54S69,62,68.86,62.09l-.48-1.42c.16-.05,16.25-5.38,36.68,0s27.83,10.55,28.13,10.77Z"/><polygon class="cls-1" points="118.44 102.73 73.43 102.73 73.43 73.32 74.93 73.32 74.93 101.23 118.44 101.23 118.44 102.73"/><polygon class="cls-1" points="70.64 75.94 74.18 70 77.36 75.46 70.64 75.94"/><path class="cls-1" d="M78.33,98.7c-2.64,0-5.76-1.36-9.32-4.06l.91-1.19c4.26,3.24,7.71,4.39,10.28,3.43,4.29-1.62,5.82-9,6.93-14.32.83-4,1.33-6.41,2.87-6.41h0c1.36,0,1.72,1.75,2.31,4.6.82,3.92,2,9.84,6.37,13.09,2.85,2.14,6.76,2.93,11.63,2.34l.18,1.49c-5.26.63-9.54-.25-12.71-2.63-4.77-3.59-6.07-9.84-6.93-14A16.71,16.71,0,0,0,90,77.75c-.46.64-1,3.1-1.39,5.12-1.19,5.7-2.81,13.51-7.88,15.41A6.71,6.71,0,0,1,78.33,98.7Z"/><path class="cls-2" d="M252.56,131.82a23,23,0,1,0-46.07,0h-6v10.31h58V131.82Zm-8.65-.16H215.09s-.59-15.06,14.23-15S243.91,131.66,243.91,131.66Z"/><path class="cls-4" d="M254.72,130a23,23,0,0,0-46.07,0h-6v10.31h58V130Zm-8.64-.16H217.26s-.6-15.06,14.23-15S246.08,129.86,246.08,129.86Z"/><path class="cls-1" d="M259.28,142.88H199.77V131.07h6a23.79,23.79,0,0,1,47.55,0h6Zm-58-1.5h56.51v-8.81h-6v-.75a22.29,22.29,0,1,0-44.57,0v.75h-6Zm43.38-9H214.37l0-.72c0-.29-.23-7.14,4.23-11.78,2.58-2.68,6.19-4,10.72-4h0c4.54,0,8.19,1.38,10.84,4.07,4.55,4.63,4.5,11.45,4.49,11.74Zm-28.8-1.5h27.29c-.13-1.82-.76-6.6-4-9.93-2.36-2.4-5.64-3.61-9.77-3.62h0c-4.1,0-7.34,1.21-9.64,3.58C216.44,124.29,215.93,129.1,215.85,130.91Z"/><rect class="cls-1" x="203.58" y="135.86" width="1.5" height="6.27"/><rect class="cls-1" x="208.18" y="135.86" width="1.5" height="6.27"/><rect class="cls-1" x="213.09" y="135.86" width="1.5" height="6.27"/><rect class="cls-1" x="217.99" y="135.86" width="1.5" height="6.27"/><rect class="cls-1" x="222.9" y="135.86" width="1.5" height="6.27"/><rect class="cls-1" x="227.81" y="135.86" width="1.5" height="6.27"/><rect class="cls-1" x="232.72" y="135.86" width="1.5" height="6.27"/><rect class="cls-1" x="237.63" y="135.86" width="1.5" height="6.27"/><rect class="cls-1" x="242.53" y="135.86" width="1.5" height="6.27"/><rect class="cls-1" x="247.44" y="135.86" width="1.5" height="6.27"/><rect class="cls-1" x="252.35" y="135.87" width="1.5" height="6.27"/><rect class="cls-2" x="98.55" y="75.36" width="50.33" height="63.79" transform="translate(16.63 -16.61) rotate(8.23)"/><rect class="cls-3" x="104.44" y="94.51" width="9.31" height="6.38" transform="translate(15.11 -14.61) rotate(8.23)"/><rect class="cls-4" x="117.75" y="96.47" width="6.38" height="6.38" transform="translate(15.51 -16.29) rotate(8.23)"/><rect class="cls-4" x="128.48" y="98.02" width="6.38" height="6.38" transform="translate(15.85 -17.81) rotate(8.23)"/><rect class="cls-4" x="139.22" y="99.58" width="6.38" height="6.38" transform="translate(16.18 -19.33) rotate(8.23)"/><rect class="cls-4" x="115.89" y="106.71" width="6.38" height="6.38" transform="matrix(0.99, 0.14, -0.14, 0.99, 16.96, -15.92)"/><rect class="cls-4" x="126.62" y="108.26" width="6.38" height="6.38" transform="translate(17.29 -17.44) rotate(8.23)"/><rect class="cls-4" x="137.36" y="109.82" width="6.38" height="6.38" transform="translate(17.63 -18.96) rotate(8.23)"/><rect class="cls-4" x="104.96" y="105.13" width="6.38" height="6.38" transform="translate(16.62 -14.37) rotate(8.23)"/><rect class="cls-4" x="114.22" y="117.01" width="6.38" height="6.38" transform="translate(18.42 -15.57) rotate(8.23)"/><rect class="cls-4" x="124.95" y="118.57" width="6.38" height="6.38" transform="matrix(0.99, 0.14, -0.14, 0.99, 18.75, -17.09)"/><rect class="cls-4" x="135.69" y="120.12" width="6.38" height="6.38" transform="translate(19.08 -18.61) rotate(8.23)"/><rect class="cls-4" x="103.29" y="115.43" width="6.38" height="6.38" transform="translate(18.08 -14.02) rotate(8.23)"/><rect class="cls-4" x="112.55" y="127.32" width="6.38" height="6.38" transform="translate(19.88 -15.23) rotate(8.23)"/><rect class="cls-4" x="123.28" y="128.87" width="6.38" height="6.38" transform="translate(20.21 -16.75) rotate(8.23)"/><rect class="cls-4" x="134.02" y="130.42" width="6.38" height="6.38" transform="translate(20.54 -18.27) rotate(8.23)"/><rect class="cls-4" x="101.63" y="125.74" width="6.38" height="6.38" transform="translate(19.54 -13.68) rotate(8.23)"/><rect class="cls-3" x="107.66" y="80.43" width="40.95" height="12.92" transform="translate(13.76 -17.45) rotate(8.23)"/><path class="cls-1" d="M144.69,143.27,93.4,135.85l9.34-64.62L154,78.65Zm-49.6-8.69,48.33,7,8.92-61.65-48.33-7Z"/><path class="cls-1" d="M146.92,95.06l-42-6.08L107,74.71l42,6.08Zm-40.31-7.34,39,5.64,1.64-11.3-39-5.65Z"/><path class="cls-1" d="M112.83,100.67l-10.7-1.54,1.13-7.8L114,92.87Zm-9-2.81L111.56,99l.7-4.84L104.53,93Z"/><path class="cls-1" d="M123.41,102.24l-7.8-1.13,1.13-7.8,7.8,1.13Zm-6.1-2.4,4.83.7.7-4.83L118,95Z"/><path class="cls-1" d="M134.14,103.79l-7.8-1.13,1.13-7.8,7.8,1.13ZM128,101.4l4.83.7.7-4.84-4.83-.7Z"/><path class="cls-1" d="M144.88,105.35l-7.8-1.13,1.13-7.8,7.8,1.13Zm-6.1-2.4,4.83.7.7-4.84-4.83-.7Z"/><path class="cls-1" d="M121.54,112.48l-7.8-1.13,1.13-7.8,7.8,1.13Zm-6.1-2.4,4.84.7L121,106l-4.84-.7Z"/><path class="cls-1" d="M132.27,114l-7.8-1.13,1.13-7.8,7.8,1.13Zm-6.1-2.4,4.84.7.69-4.83-4.83-.7Z"/><path class="cls-1" d="M143,115.59l-7.8-1.13,1.13-7.8,7.8,1.12Zm-6.1-2.4,4.84.7.7-4.84-4.84-.7Z"/><path class="cls-1" d="M110.62,110.9l-7.8-1.13,1.12-7.8,7.81,1.13Zm-6.11-2.4,4.84.7.7-4.83-4.84-.7Z"/><path class="cls-1" d="M119.88,122.78l-7.8-1.13,1.12-7.8L121,115Zm-6.11-2.39,4.84.7.7-4.84-4.84-.7Z"/><path class="cls-1" d="M130.61,124.33l-7.8-1.12,1.12-7.8,7.81,1.12Zm-6.11-2.39,4.84.7.7-4.84-4.84-.7Z"/><path class="cls-1" d="M141.35,125.89l-7.8-1.13,1.12-7.8,7.81,1.13Zm-6.11-2.4,4.84.7.7-4.83-4.84-.7Z"/><path class="cls-1" d="M109,121.2l-7.8-1.13,1.13-7.8,7.8,1.13Zm-6.1-2.39,4.83.69.7-4.83-4.83-.7Z"/><path class="cls-1" d="M118.21,133.09l-7.8-1.13,1.13-7.8,7.8,1.12Zm-6.1-2.4,4.83.7.7-4.84-4.83-.7Z"/><path class="cls-1" d="M128.94,134.64l-7.8-1.13,1.13-7.8,7.8,1.13Zm-6.1-2.4,4.83.7.7-4.83-4.83-.7Z"/><path class="cls-1" d="M139.68,136.19l-7.8-1.13,1.13-7.8,7.8,1.13Zm-6.1-2.39,4.83.7.7-4.84-4.83-.7Z"/><path class="cls-1" d="M107.29,131.51l-7.81-1.13,1.13-7.8,7.8,1.12Zm-6.11-2.4,4.84.7.7-4.84-4.84-.7Z"/><path class="cls-1" d="M130.92,82a.57.57,0,0,0-.9-.38,7.05,7.05,0,0,0-2.23,2.47c-.35.63.69,1.08,1,.45a5.4,5.4,0,0,1,1-1.29,31.5,31.5,0,0,1-.77,7c-.16.71,1,.87,1.12.16A32.83,32.83,0,0,0,130.92,82Z"/><path class="cls-1" d="M137.64,90.77l-3.18-.64A5.44,5.44,0,0,1,136,87.75a4.93,4.93,0,0,0,1.9-2.7,2.06,2.06,0,0,0-3.95-1.12c-.26.67.77,1.13,1,.45a.94.94,0,0,1,1.54-.39c.62.6.09,1.53-.37,2.05s-1.3,1.16-1.82,1.88a6.37,6.37,0,0,0-1.11,2.56.57.57,0,0,0,.47.64l3.8.77C138.2,92,138.36,90.91,137.64,90.77Z"/><path class="cls-1" d="M144.58,89.63a2.17,2.17,0,0,0-1.52-2.17,2.68,2.68,0,0,0,1-1.81,2.09,2.09,0,0,0-2.72-2.27c-.68.25-.25,1.3.43,1a.86.86,0,0,1,.91.26,1.12,1.12,0,0,1,.21,1.1,2.5,2.5,0,0,1-2.13,1.51c-.69.16-.58,1.25.14,1.12s2.54-.12,2.56,1.08a1.51,1.51,0,0,1-1,1.34,3,3,0,0,1-2.12-.07c-.68-.23-1.14.8-.45,1a4.18,4.18,0,0,0,3.11,0A2.64,2.64,0,0,0,144.58,89.63Z"/><path class="cls-4" d="M157.91,77.46a.72.72,0,0,1-.32-.08.75.75,0,0,1-.35-1c2.67-5.53,5.29-11,7.77-16.3l.25-.53c3.16-6.73,4.6-9.8,7.11-9.82h0c2.09,0,3.42,2.09,6.95,8.49,2.41,4.36,4.75,8.79,7,13.17a.76.76,0,0,1-.34,1,.74.74,0,0,1-1-.33c-2.19-4.37-4.52-8.78-6.92-13.13-3.19-5.78-4.46-7.71-5.65-7.71h0c-1.57,0-3.06,3.19-5.77,9l-.25.53C163.88,66,161.27,71.5,158.59,77A.77.77,0,0,1,157.91,77.46Z"/><path class="cls-2" d="M32.51,63.87v78.5h104Zm12.42,23,59.58,45H44.93Z"/><path class="cls-4" d="M35.08,62.44v77.65h104ZM47.49,85.21l59.59,44.49H47.49Z"/><path class="cls-1" d="M138.74,143.12h-107V62.37Zm-105.48-1.5h101l-101-76.24Zm73.49-9H44.18V85.39Zm-61.08-1.5h56.61L45.67,88.4Z"/><rect class="cls-1" x="32.51" y="138.01" width="8.05" height="1.5"/><rect class="cls-1" x="32.51" y="133.17" width="5.13" height="1.5"/><rect class="cls-1" x="32.51" y="128.32" width="5.13" height="1.5"/><rect class="cls-1" x="32.51" y="123.48" width="8.05" height="1.5"/><rect class="cls-1" x="32.51" y="118.63" width="5.13" height="1.5"/><rect class="cls-1" x="32.51" y="113.79" width="5.13" height="1.5"/><rect class="cls-1" x="32.51" y="108.94" width="8.05" height="1.5"/><rect class="cls-1" x="32.51" y="104.1" width="5.13" height="1.5"/><rect class="cls-1" x="32.51" y="99.25" width="5.13" height="1.5"/><rect class="cls-1" x="32.51" y="94.41" width="8.32" height="1.5"/><rect class="cls-1" x="32.51" y="89.56" width="5.13" height="1.5"/><rect class="cls-1" x="32.51" y="84.72" width="5.13" height="1.5"/><rect class="cls-1" x="32.51" y="79.88" width="8.32" height="1.5"/><rect class="cls-1" x="32.51" y="75.03" width="5.13" height="1.5"/><path class="cls-2" d="M115.77,155.86l-20.32-8.21L18,130.53l-.79,3.55,1.07-4.83L12.44,128l-.29,1.28-4.68-1a1.18,1.18,0,0,0-1.4.89L5,133.89a1.18,1.18,0,0,0,.9,1.4l4.68,1-.29,1.28,5.86,1.3.28-1.28,77.45,17.12Z"/><path class="cls-3" d="M3.21,130.83h7.26a0,0,0,0,1,0,0v4.4a1.57,1.57,0,0,1-1.57,1.57H4.78a1.57,1.57,0,0,1-1.57-1.57v-4.4A0,0,0,0,1,3.21,130.83Z" transform="translate(138.98 156.03) rotate(102.47)"/><rect class="cls-3" x="50.13" y="104.53" width="7.26" height="79.32" transform="translate(206.16 122.83) rotate(102.47)"/><path class="cls-1" d="M94.46,155.63,15.55,138.19l1.89-8.55,78.91,17.44ZM17.33,137.05l76,16.8,1.24-5.63-76-16.8Z"/><path class="cls-1" d="M16.73,139.79l-7.32-1.62,2.46-11.11,7.31,1.62ZM11.2,137l4.39,1,1.81-8.18-4.39-1Z"/><path class="cls-1" d="M11.16,137.22,5.74,136a1.93,1.93,0,0,1-1.46-2.29l1.06-4.8a1.92,1.92,0,0,1,2.29-1.46l5.42,1.2Zm-3.94-8.3a.44.44,0,0,0-.42.34l-1.06,4.79a.44.44,0,0,0,.06.32.44.44,0,0,0,.27.19l3.95.87,1.24-5.62-3.95-.88Z"/><polygon class="cls-1" points="120.18 156.84 93.85 155.49 93.92 153.99 111.35 154.89 95.17 148.35 95.73 146.96 120.18 156.84"/><path class="cls-1" d="M103.33,155.85c-.55-.39-2.23-1.6-1.89-3.09s2.6-2,3-2.14l.27,1.48c-.7.13-1.76.56-1.86,1-.05.24.26.79,1.3,1.55Z"/><path class="cls-1" d="M260.12,29.58a2.09,2.09,0,0,1-2.27-.13c-.53-.59-.13-1.63.08-2.19a8.09,8.09,0,0,1,5.24-4.66c3.18-.88,6.83.5,9.41,3.43.28,0,4.12.74,5.16,3.76a5,5,0,0,1,.16,2.41c-.71,3.84-6,6.08-6.42,5.55-.11-.12,0-.48.81-1.55Z"/><path class="cls-2" d="M270.72,136.12s2.84,5.87,2.55,7.95H257.85s-1-1.42,1.33-2.74,8-4.45,8-4.45Z"/><path class="cls-4" d="M272.53,137.63s3.06,5.86,2.76,8H258.67s-1.12-1.42,1.43-2.75,8.66-4.44,8.66-4.44Z"/><path class="cls-1" d="M273.93,144.82H257.47l-.22-.31a2.11,2.11,0,0,1-.32-1.68,3.44,3.44,0,0,1,1.88-2.16l8.05-4.45.2-.07,4.08-.88.25.53c.3.62,2.93,6.13,2.63,8.37Zm-15.56-1.5h14.15A28.26,28.26,0,0,0,270.3,137l-2.82.61L259.54,142a2.23,2.23,0,0,0-1.15,1.14A1.5,1.5,0,0,0,258.37,143.32Z"/><path class="cls-2" d="M241.7,130.73s4.23,1.51,5.46,4.73L237,146.91s-2.27-1.14-1.61-4.45,2.46-10.69,2.46-10.69Z"/><path class="cls-4" d="M243.6,130.73s4.23,1.51,5.46,4.73l-10.12,11.45s-2.27-1.14-1.61-4.45,2.46-10.69,2.46-10.69Z"/><path class="cls-1" d="M237.22,147.84l-.52-.26c-.11-.06-2.77-1.44-2-5.27.65-3.28,2.44-10.64,2.46-10.72l.11-.42,4.46-1.22.22.08c.19.06,4.57,1.66,5.91,5.16l.16.43Zm1.29-15.46c-.39,1.62-1.78,7.43-2.35,10.23a3.42,3.42,0,0,0,.77,3.29l9.35-10.58c-1.1-2.22-3.84-3.48-4.62-3.8Z"/><path class="cls-2" d="M243.13,76.5S225.44,98.84,225,101.84s10.95,31.49,10.95,31.49,6,.6,7.19-1.8l-7.79-27.29L258.43,83Z"/><path class="cls-3" d="M244.56,77.74S227.46,99.62,227,102.62s10.49,30.77,10.49,30.77,5.82-.26,7-2.66L237.33,105l22.53-20.77Z"/><path class="cls-1" d="M237.57,134.15c-.86,0-1.51-.06-1.71-.08l-.45,0-.17-.43c-1.92-4.78-11.45-28.82-11-31.87S240.72,78.34,242.54,76l.36-.45,16.89,7.12-23.61,21.77,7.75,27.12-.13.26C242.82,133.82,239.61,134.15,237.57,134.15Zm-1.11-1.53c2,.13,5-.09,5.86-1.21L234.49,104l22.57-20.81-13.69-5.77C236.56,86,226,100,225.73,102S232.08,121.64,236.46,132.62Z"/><path class="cls-2" d="M230,31.29a15.19,15.19,0,0,1-4.51-3.38c-2-2.25,2.26-3.5,3.26-3.88s3.75,6.26,3.75,6.26Z"/><path class="cls-1" d="M230,32.1l-.29-.13A15.81,15.81,0,0,1,225,28.41a2.28,2.28,0,0,1-.65-2.14c.41-1.6,2.7-2.41,3.92-2.84l.28-.1c.55-.21,1.68-.63,4.71,6.67l.29.7Zm-1.2-7.29-.08,0c-.68.24-2.76,1-3,1.8-.06.21,0,.47.32.77a14.39,14.39,0,0,0,4,3.06l1.48-.59A23.34,23.34,0,0,0,228.82,24.81Zm.23-.08h0Z"/><path class="cls-2" d="M279.72,21s-.25-6.14-1-7.51a3,3,0,0,0-4.13-1.38c-1.75.88-3.68,4.13-1.09,6a45.22,45.22,0,0,1,4.72,4Z"/><path class="cls-1" d="M278.15,23.14l-.46-.46a43.37,43.37,0,0,0-4.63-3.92,3.57,3.57,0,0,1-1.56-3.24,5.4,5.4,0,0,1,2.75-4,3.79,3.79,0,0,1,5.12,1.69c.8,1.46,1.05,6.78,1.1,7.84v.39ZM276,12.54a2.43,2.43,0,0,0-1.09.27A3.87,3.87,0,0,0,273,15.64a2,2,0,0,0,.94,1.9,46,46,0,0,1,4.34,3.63l.67-.5c-.11-2.34-.43-6-.89-6.79A2.4,2.4,0,0,0,276,12.54Z"/><path class="cls-2" d="M227.84,30.63l4.8-2.1s6.89,13.57,7.64,14,18.15,7.31,18.15,7.31l-6,7.79s-16-8.67-17.54-9.88S227.84,30.63,227.84,30.63Z"/><path class="cls-4" d="M229.18,30l4.91-2.24s6.38,12.56,7.13,13,18.14,7.31,18.14,7.31l-6,7.79s-16-8.67-17.54-9.88S229.18,30,229.18,30Z"/><path class="cls-1" d="M252.63,58.57l-.56-.3c-1.65-.89-16.15-8.74-17.65-10s-6-13.66-7.29-17.44l-.23-.65L233,27.56l.33.63c3.08,6.07,6.68,12.85,7.4,13.69,1.08.51,11.25,4.57,18,7.24l.92.37ZM228.78,31c2.62,7.47,5.74,15.39,6.58,16.12,1.14.92,12.06,6.9,16.86,9.5l5-6.5c-3.85-1.53-16.62-6.61-17.31-7-.23-.12-.93-.51-7.63-13.66Zm12,10.89Z"/><path class="cls-2" d="M266.6,82.2l1.87,25.94,3.75,29.24s-4.5,1.64-6.82,0c0,0-8-29.69-8.62-31.49s-5.25-24.44-5.25-24.44Z"/><path class="cls-3" d="M268.45,82.2l1.87,25.94,3.75,29.24s-4.5,1.64-6.83,0c0,0-8-29.69-8.62-31.49s-5.24-24.44-5.24-24.44Z"/><path class="cls-1" d="M268.21,138.85A5.61,5.61,0,0,1,265,138l-.22-.16-.07-.26c-.08-.3-8-29.68-8.6-31.44S251,82.53,250.79,81.6l-.19-.94,16.7.83,1.92,26.6L273,137.87l-.56.21A13.92,13.92,0,0,1,268.21,138.85ZM266,136.9c1.47.82,4,.36,5.36,0l-3.67-28.63L265.9,82.92l-13.44-.67c1.65,8,4.58,22.07,5,23.4C258.06,107.38,265.18,133.69,266,136.9Z"/><path class="cls-2" d="M262,44.84s-7.91-.42-13,12.92S241,77.85,241,77.85s12.6,8.85,19.49,7.65l6.9-1.2s6.3-26.84,7.8-27.89,14.54-18,14.54-19.12-9.6-18.51-9.6-18.51l-4,2.1L281.81,36s-8.84,9.9-9.44,10a11.92,11.92,0,0,1-2.65-.19Z"/><path class="cls-4" d="M263.68,46s-8.1-.43-13.31,12.92S242.24,79,242.24,79s12.88,8.84,19.94,7.64l7.05-1.19s6.45-26.84,8-27.89,14.88-18,14.88-19.13S282.27,20,282.27,20l-4.14,2.1L284,37.2s-9,9.89-9.67,10a12.38,12.38,0,0,1-2.7-.19Z"/><path class="cls-1" d="M259.16,86.36c-7.23,0-18.07-7.55-18.56-7.89l-.49-.35.23-.56c0-.07,2.91-6.89,7.94-20.06,5.23-13.71,13.41-13.41,13.75-13.4h.06l7.73,1a11.7,11.7,0,0,0,2.28.22c.82-.65,5-5.24,8.85-9.49l-5.77-15.34,5.29-2.74.35.64c3.62,6.56,9.69,17.73,9.69,18.87,0,1.71-13.9,19.06-14.86,19.74-.93,1.08-4.57,15-7.5,27.44L268,85l-7.39,1.29A8.9,8.9,0,0,1,259.16,86.36ZM242,77.58c2.37,1.59,12.67,8.18,18.44,7.18l6.4-1.11c2-8.4,6.45-26.78,8-27.85,1.37-1,13.4-16.7,14.21-18.57-.37-1.27-5.62-11.06-9.14-17.45l-2.81,1.46,5.63,14.94-.31.34c-9,10.07-9.55,10.21-9.82,10.27a10.42,10.42,0,0,1-2.95-.18l-7.67-1h-.05c-.84,0-7.6.39-12.2,12.44C245.45,69.09,242.75,75.69,242,77.58Z"/><path class="cls-2" d="M264.76,37.29,262,44.84s3.88,4.8,7.56,2l1.66-9.58Z"/><path class="cls-1" d="M267.11,48.47c-2.41,0-4.63-1.83-5.7-3.16l-.27-.33,3.1-8.44h7.86l-1.86,10.75-.24.18A4.69,4.69,0,0,1,267.11,48.47Zm-4.26-3.79c.85.92,3.49,3.38,6,1.76L270.32,38h-5Z"/><circle class="cls-2" cx="266.6" cy="32.87" r="6.9"/><path class="cls-1" d="M266.6,40.51A7.64,7.64,0,1,1,272,38.28,7.6,7.6,0,0,1,266.6,40.51Zm0-13.78a6.15,6.15,0,1,0,4.35,1.8A6.1,6.1,0,0,0,266.6,26.73Z"/><path class="cls-1" d="M272.48,28c-.07,1.31-2.68,2.21-4,2.51-4.22,1-9.35-1-9.41-2.77-.05-1.46,3.35-3,6.27-3.11C268.8,24.49,272.56,26.37,272.48,28Z"/><circle class="cls-2" cx="273.55" cy="33.62" r="2.1"/><circle class="cls-1" cx="263.44" cy="32.18" r="0.61"/><path class="cls-1" d="M268.65,32.5a.61.61,0,1,1-.61-.61A.61.61,0,0,1,268.65,32.5Z"/><path class="cls-1" d="M265.47,35.61h-.12a3.68,3.68,0,0,1-1-.45.72.72,0,0,1-.35-.73.54.54,0,0,1,.06-.18,9.07,9.07,0,0,1,.82-1.39.37.37,0,1,1,.61.43,9,9,0,0,0-.73,1.24l0,0a2.82,2.82,0,0,0,.79.34.37.37,0,0,1-.11.73Z"/><path class="cls-1" d="M271.71,27.52c-.83.4-.83,2.72.23,5.68L275.3,30C273.93,28.3,272.44,27.16,271.71,27.52Z"/><path class="cls-1" d="M268.05,35.94a.38.38,0,0,0-.51-.13,6,6,0,0,1-.56.3,3.16,3.16,0,0,1-.52.17.38.38,0,0,0-.26.46.38.38,0,0,0,.46.26,4,4,0,0,0,1.26-.55A.38.38,0,0,0,268.05,35.94Z"/><g class="cls-5"><path class="cls-3" d="M267.14,34.19c0-.34.82-.8,1.59-.57.35.11.81.4.81.66s-.67.48-1.18.45S267.17,34.48,267.14,34.19Z"/></g><g class="cls-5"><path class="cls-3" d="M261.26,33.6c0-.33.82-.79,1.58-.57.35.11.82.4.81.66s-.67.48-1.18.46S261.28,33.89,261.26,33.6Z"/></g><path class="cls-2" d="M174,46.9l23.79-4.08L280.27,14,279,10.2l1.8,5.14L287,13.16l-.48-1.36,5-1.74a1.3,1.3,0,0,0,.79-1.65L290.5,3.3a1.3,1.3,0,0,0-1.65-.79l-5,1.74-.47-1.36-6.24,2.18.48,1.36L195.16,35.27Z"/><path class="cls-3" d="M284.83,1.14h8a0,0,0,0,1,0,0v5a1.57,1.57,0,0,1-1.57,1.57h-4.86a1.57,1.57,0,0,1-1.57-1.57v-5A0,0,0,0,1,284.83,1.14Z" transform="translate(379.98 278.53) rotate(-109.27)"/><rect class="cls-4" x="234.86" y="-21.78" width="8" height="87.37" transform="matrix(-0.33, -0.94, 0.94, -0.33, 297.03, 254.6)"/><path class="cls-1" d="M197.34,43.77l-3.14-9L278.09,5.48l3.13,9Zm-1.23-8,2.15,6.13,81.06-28.34-2.15-6.13Z"/><path class="cls-1" d="M280.29,16.3,276.2,4.61l7.65-2.68,4.08,11.69ZM278.11,5.53l3.1,8.86L286,12.7l-3.1-8.86Z"/><path class="cls-1" d="M286,12.75l-3.13-9,5.81-2a1.9,1.9,0,0,1,1.46.08,1.93,1.93,0,0,1,1,1.1L293,8.27a1.93,1.93,0,0,1-1.18,2.45Zm-1.22-8L287,10.84l4.39-1.53a.42.42,0,0,0,.26-.54l-1.86-5.33a.42.42,0,0,0-.22-.25.44.44,0,0,0-.32,0Z"/><polygon class="cls-1" points="169.74 48.39 194.8 34.61 195.52 35.93 178.28 45.41 197.67 42.08 197.92 43.55 169.74 48.39"/><path class="cls-1" d="M187.56,45.21l-1-1.1c.61-.56,1.36-1.6,1.19-2.09-.1-.29-.73-.65-2.19-.75l.11-1.5c2,.15,3.14.72,3.5,1.76C189.73,43.18,187.78,45,187.56,45.21Z"/></g></g></svg>