<svg xmlns="http://www.w3.org/2000/svg" viewBox="0 0 284.68 172.5"><defs><style>.cls-1{fill:#49194f;}.cls-2{fill:#fff;}.cls-3{fill:#f0a74d;}.cls-4{fill:#c7a6cc;}.cls-5{opacity:0.49;}</style></defs><g id="Layer_2" data-name="Layer 2"><g id="_1" data-name="1"><rect class="cls-1" y="157.98" width="284.68" height="14.52"/><polygon class="cls-2" points="244.59 30.72 220.79 60.95 231.03 56.98 219.1 76.7 245.05 47.42 233.62 50.19 244.59 30.72"/><polygon class="cls-3" points="244.74 32.4 220.94 62.63 231.18 58.66 219.25 78.38 245.2 49.1 233.77 51.86 244.74 32.4"/><rect class="cls-2" x="258.85" y="44.86" width="11.2" height="13.04" transform="translate(137.12 288.79) rotate(-72.79)"/><path class="cls-2" d="M256.57,54.8l-9.92,32c-4.17,13.47-17.55,21.34-29.81,17.54L213,116.81c19.13,5.93,39.82-5.8,46.12-26.14l9.92-32Z"/><path class="cls-3" d="M254,54l-9.92,32c-4.17,13.47-17.55,21.34-29.81,17.54L210.44,116c19.13,5.93,39.82-5.8,46.12-26.13l9.92-32Z"/><path class="cls-2" d="M216.84,104.36C204.58,100.56,198,86.51,202.17,73l9.92-32-12.46-3.86-9.92,32c-6.3,20.34,4.14,41.7,23.27,47.63h0l3.86-12.45Z"/><path class="cls-4" d="M214.3,103.57c-12.27-3.8-18.85-17.85-14.68-31.32l9.92-32-12.45-3.86-9.92,32c-6.3,20.34,4.14,41.71,23.27,47.63h0l3.86-12.45Z"/><rect class="cls-2" x="201.92" y="27.22" width="11.2" height="13.04" transform="translate(113.88 221.98) rotate(-72.79)"/><path class="cls-1" d="M212.58,42l-13.88-4.3,3.75-12.12,13.89,4.3Zm-12-5.28,11,3.41,2.87-9.26-11-3.42Z"/><path class="cls-1" d="M269.51,59.59l-13.88-4.3,3.76-12.12,13.88,4.3Zm-12-5.29,11,3.42,2.87-9.27-11-3.41Z"/><path class="cls-1" d="M223.17,119.11a35.34,35.34,0,0,1-10.41-1.58l-.71-.23,4.3-13.88.71.22c11.87,3.68,24.82-4,28.87-17l10.15-32.74L270,58.16,259.82,90.9a40.37,40.37,0,0,1-18.6,23.34A36.49,36.49,0,0,1,223.17,119.11Zm-9.25-2.8a34.31,34.31,0,0,0,26.56-3.37,38.84,38.84,0,0,0,17.91-22.49l9.69-31.3-11-3.42L247.37,87c-4.22,13.6-17.57,21.64-30,18.24Z"/><path class="cls-1" d="M213.48,117.75l-.72-.22a35.79,35.79,0,0,1-21.62-18.8A40.39,40.39,0,0,1,189,69l10.14-32.74L213,40.52,202.88,73.26c-4,13.08,2.31,26.71,14.18,30.38l.72.22ZM200.13,38.1l-9.7,31.3a38.85,38.85,0,0,0,2.06,28.67,34.33,34.33,0,0,0,20,17.8l3.42-11c-12.2-4.24-18.67-18.42-14.46-32l9.7-31.31Z"/><path class="cls-1" d="M219.66,77.2l-1.2-.88,10.79-17.85-10.74,4.17L244,30.25l1.24.84-10.12,18,12.08-2.92Zm13.15-21.71L224,70l18.9-21.33-10.79,2.61,7-12.5L223.07,59.26Z"/><path class="cls-2" d="M110.29,23.05l-17.41,5.1L98,53.67l18.18-4.27c-.51-1.8-1-3.6-1.52-5.4l-12.53,3.63c-.47-2.43-1-4.87-1.43-7.3l6.41-1.27c-.28-1.3-.55-2.61-.83-3.92L100,36.9c-.31-2.11-.63-4.22-.94-6.33l12.09-3.39Z"/><polygon class="cls-2" points="115.2 32.68 128.21 29.16 128.75 31.8 115.56 35.1 115.2 32.68"/><polygon class="cls-2" points="116.08 37.3 129.09 33.78 129.63 36.42 116.44 39.72 116.08 37.3"/><path class="cls-2" d="M135.78,42.9,134,17.26l3.32-1.52,5.87,6.66.93-9,2.92-1.27,14.59,22.43-5.22,2.14L148.8,22.83l-3.5,7L139.73,26q1.22,7.44,2.44,14.88Z"/><path class="cls-2" d="M169,7.13c-.74.07-6.46.75-9.24,5.59a10.93,10.93,0,0,0-1.36,6,12.82,12.82,0,0,0,6.47,10.69,12.55,12.55,0,0,0,12.88-.55L176.09,25a9.79,9.79,0,0,1-6,.81c-.82-.16-4.56-.89-6.17-4.34-1.15-2.46-1-5.91.89-7.69s5-1.86,5.25-1.87h0Z"/><path class="cls-2" d="M172.13,4l-1.19.34s-.67-2.75,1.4-3.41,3.51,1.11,3.95,2.35S174.65,9,174.65,9l3.48-1,.5,1.74-5.27,1.5-.58-1.6a16.6,16.6,0,0,1,.74-2.44c.78-2,1.48-2.66,1.2-3.61-.23-.76-1-1.54-1.7-1.35A1.65,1.65,0,0,0,172.13,4Z"/><path class="cls-3" d="M108.91,24.55,91.5,29.65l5.13,25.52,18.18-4.27-1.53-5.4-12.52,3.63c-.48-2.44-1-4.87-1.43-7.3l6.41-1.27c-.28-1.31-.55-2.62-.83-3.92L98.57,38.4c-.31-2.11-.63-4.22-.94-6.33l12.09-3.39Z"/><polygon class="cls-3" points="115.08 34.14 128.09 30.62 128.63 33.25 115.44 36.56 115.08 34.14"/><polygon class="cls-3" points="115.96 38.76 128.97 35.24 129.51 37.87 116.32 41.18 115.96 38.76"/><path class="cls-3" d="M135,44.93l-1.77-25.64,3.32-1.52,5.87,6.66.93-9,2.92-1.27L160.81,36.6l-5.21,2.14Q151.78,31.8,148,24.86c-1.17,2.31-2.33,4.63-3.49,6.94L138.89,28q1.23,7.44,2.44,14.89Z"/><path class="cls-3" d="M168,8.87c-.73.07-6.46.75-9.24,5.59a10.8,10.8,0,0,0-1.35,6,12.78,12.78,0,0,0,6.46,10.69,12.55,12.55,0,0,0,12.88-.55l-1.62-3.89a9.71,9.71,0,0,1-6,.81c-.82-.16-4.56-.89-6.17-4.34-1.15-2.46-1-5.91.89-7.69s5-1.85,5.25-1.86h0Z"/><path class="cls-3" d="M171.39,4.78l-1.19.34s-.68-2.76,1.39-3.41,3.51,1.11,3.95,2.35-1.63,5.78-1.63,5.78l3.48-1,.49,1.74-5.26,1.5-.59-1.6a16.52,16.52,0,0,1,.75-2.44c.77-2,1.47-2.66,1.19-3.61-.22-.76-1-1.54-1.69-1.35A1.62,1.62,0,0,0,171.39,4.78Z"/><path class="cls-1" d="M97.43,54.58,92,27.62l18.86-5.52,1.1,5.61-12.12,3.4.72,4.84,6.29-1.75L108,39.65l-6.42,1.27,1.13,5.76,12.46-3.61L117.13,50Zm-3.68-25.9L98.6,52.76l16.66-3.91-1.11-3.92-12.58,3.64-1.74-8.83,6.4-1.26-.51-2.41-6.38,1.78L98.17,30l12.06-3.39L109.71,24Z"/><path class="cls-1" d="M114.94,36l-.58-3.9,14.43-3.9.84,4.12Zm1.1-2.8.14.94,11.69-2.93-.23-1.15Z"/><path class="cls-1" d="M115.82,40.65l-.58-3.9,14.43-3.9.84,4.12Zm1.1-2.8.14.94,11.69-2.93-.23-1.15Z"/><path class="cls-1" d="M135.1,43.9l-1.86-27.1,4.29-2,5.11,5.8.8-7.72,3.9-1.7,15.43,23.72-6.67,2.74-7.27-13.23-3.24,6.44-4.84-3.27L143,41.43Zm-.3-26.17,1.67,24.17,4.85-1.52-2.61-16L145,28.68l3.75-7.46,8,14.55,3.76-1.54L146.77,13.09l-1.93.84-1.06,10.25-6.64-7.53Z"/><path class="cls-1" d="M170.79,31.7a13.11,13.11,0,0,1-6.32-1.61,13.52,13.52,0,0,1-6.85-11.32,11.53,11.53,0,0,1,1.45-6.42c2.88-5,8.68-5.85,9.81-6l.67-.06,1.39,6.29-.88,0s-3.19.18-4.78,1.67-1.7,4.72-.72,6.83,2.89,3.38,5.63,3.92a9.07,9.07,0,0,0,5.57-.75l.71-.34,2.17,5.18-.52.34A13.38,13.38,0,0,1,170.79,31.7ZM168.38,8c-1.76.3-5.85,1.37-8,5.13a10.25,10.25,0,0,0-1.26,5.62,12.06,12.06,0,0,0,6.08,10.07,11.77,11.77,0,0,0,11.58-.2L175.69,26a10.47,10.47,0,0,1-5.78.56,8.9,8.9,0,0,1-6.71-4.76c-1.19-2.55-1.22-6.42,1.05-8.56a9.31,9.31,0,0,1,4.85-2Z"/><path class="cls-1" d="M172.9,12.18,172,9.72l0-.22A19.08,19.08,0,0,1,172.82,7c.27-.69.54-1.23.75-1.67.4-.82.53-1.12.43-1.46-.15-.5-.65-.87-.78-.84s-.35.36-.34,1v.57l-2.49.71-.18-.75c-.3-1.19-.28-3.62,1.89-4.3,2.54-.81,4.34,1.3,4.88,2.81.37,1-.38,3.27-1,4.88l2.69-.77.91,3.18Zm.82-2.12.11.3,3.87-1.11-.08-.3Zm.09-8.47a2.85,2.85,0,0,1,1.63,1.82A3.35,3.35,0,0,1,174.91,6c-.2.43-.44.92-.69,1.55a16.08,16.08,0,0,0-.66,2.11l.41-.9c1-2.27,1.79-4.71,1.61-5.22A3.23,3.23,0,0,0,173.81,1.59Zm-.9-.07-.35.09a1.31,1.31,0,0,0-.89,1,1.9,1.9,0,0,1,1.15-1.06Z"/><path class="cls-1" d="M35,134.21a.74.74,0,0,1-.75-.75V78.34a.75.75,0,0,1,1.5,0v55.12A.75.75,0,0,1,35,134.21Z"/><path class="cls-1" d="M51.26,134.21a.74.74,0,0,1-.75-.75V78.34a.75.75,0,0,1,1.5,0v55.12A.75.75,0,0,1,51.26,134.21Z"/><path class="cls-1" d="M67.53,134.21a.75.75,0,0,1-.75-.75V78.34a.75.75,0,0,1,1.5,0v55.12A.74.74,0,0,1,67.53,134.21Z"/><path class="cls-1" d="M83.81,134.21a.75.75,0,0,1-.75-.75V78.34a.75.75,0,0,1,1.5,0v55.12A.75.75,0,0,1,83.81,134.21Z"/><path class="cls-1" d="M121.25,123.5a.74.74,0,0,1-.67-.43L99.41,78.67a.75.75,0,0,1,1.35-.65l21.17,44.41a.75.75,0,0,1-.35,1A1,1,0,0,1,121.25,123.5Z"/><circle class="cls-2" cx="34.98" cy="133.46" r="7.56" transform="translate(-84.13 63.82) rotate(-45)"/><circle class="cls-2" cx="51.47" cy="133.46" r="7.56" transform="translate(-79.3 75.49) rotate(-45)"/><circle class="cls-2" cx="67.53" cy="133.46" r="7.56" transform="translate(-77.78 168.91) rotate(-76.87)"/><circle class="cls-2" cx="83.87" cy="133.46" r="7.56" transform="translate(-69.81 98.4) rotate(-45)"/><circle class="cls-2" cx="121.25" cy="122.75" r="7.56" transform="translate(-27.17 210.73) rotate(-76.01)"/><circle class="cls-4" cx="34" cy="135.67" r="7.56" transform="translate(-85.97 63.78) rotate(-45)"/><circle class="cls-4" cx="50.49" cy="135.67" r="7.56" transform="translate(-81.14 75.44) rotate(-45)"/><circle class="cls-4" cx="66.55" cy="135.67" r="7.56" transform="translate(-80.68 169.66) rotate(-76.87)"/><circle class="cls-4" cx="82.89" cy="135.67" r="7.56" transform="translate(-71.65 98.35) rotate(-45)"/><circle class="cls-4" cx="120.28" cy="124.95" r="7.56" transform="translate(-53.13 121.65) rotate(-45)"/><rect class="cls-1" x="107.58" y="75.17" width="3.09" height="79.67"/><rect class="cls-1" x="22" y="75.17" width="3.09" height="79.67" transform="translate(47.09 230) rotate(180)"/><rect class="cls-1" x="63.05" y="30.88" width="6.35" height="94.93" transform="translate(-12.12 144.57) rotate(-90)"/><rect class="cls-2" x="14.99" y="147.33" width="101.44" height="10.66"/><rect class="cls-3" x="12.25" y="149.51" width="101.44" height="10.66"/><path class="cls-1" d="M116.43,158.73H15a.76.76,0,0,1-.75-.75V147.33a.75.75,0,0,1,.75-.75H116.43a.75.75,0,0,1,.75.75V158A.76.76,0,0,1,116.43,158.73Zm-100.69-1.5h99.94v-9.16H15.74Z"/><path class="cls-1" d="M35,141.77a8.31,8.31,0,1,1,8.31-8.31A8.32,8.32,0,0,1,35,141.77Zm0-15.12a6.81,6.81,0,1,0,6.81,6.81A6.82,6.82,0,0,0,35,126.65Z"/><path class="cls-1" d="M51.47,141.77a8.31,8.31,0,1,1,8.31-8.31A8.32,8.32,0,0,1,51.47,141.77Zm0-15.12a6.81,6.81,0,1,0,6.81,6.81A6.82,6.82,0,0,0,51.47,126.65Z"/><path class="cls-1" d="M67.53,141.77a8.31,8.31,0,1,1,8.31-8.31A8.32,8.32,0,0,1,67.53,141.77Zm0-15.12a6.81,6.81,0,1,0,6.81,6.81A6.82,6.82,0,0,0,67.53,126.65Z"/><path class="cls-1" d="M83.87,141.77a8.31,8.31,0,1,1,8.31-8.31A8.32,8.32,0,0,1,83.87,141.77Zm0-15.12a6.81,6.81,0,1,0,6.81,6.81A6.82,6.82,0,0,0,83.87,126.65Z"/><path class="cls-1" d="M121.25,131.06a8.31,8.31,0,1,1,8.31-8.31A8.32,8.32,0,0,1,121.25,131.06Zm0-15.12a6.81,6.81,0,1,0,6.82,6.81A6.82,6.82,0,0,0,121.25,115.94Z"/><rect class="cls-2" x="169.38" y="119.62" width="104.96" height="16.35"/><rect class="cls-3" x="166.62" y="122.04" width="104.96" height="16.35"/><path class="cls-1" d="M275.09,136.73H168.63V118.88H275.09Zm-105-1.5H273.59V120.37H170.13Z"/><rect class="cls-1" x="185.46" y="119.62" width="1.5" height="16.35"/><rect class="cls-1" x="191.09" y="119.62" width="1.5" height="16.35"/><rect class="cls-1" x="256.75" y="119.62" width="1.5" height="16.35"/><rect class="cls-1" x="251.13" y="119.62" width="1.5" height="16.35"/><rect class="cls-2" x="159.42" y="135.98" width="111.28" height="22.6"/><rect class="cls-4" x="156.49" y="137.76" width="111.47" height="24.16"/><rect class="cls-3" x="246.88" y="135.98" width="5.96" height="22.6"/><rect class="cls-3" x="177.26" y="135.99" width="5.96" height="22.6"/><path class="cls-1" d="M271.45,159.33H158.67v-24.1H271.45Zm-111.28-1.5H270v-21.1H160.17Z"/><rect class="cls-1" x="176.51" y="135.98" width="1.5" height="22.6"/><rect class="cls-1" x="182.48" y="135.98" width="1.5" height="22.6"/><rect class="cls-1" x="252.09" y="135.98" width="1.5" height="22.6"/><rect class="cls-1" x="246.13" y="135.98" width="1.5" height="22.6"/><rect class="cls-2" x="184.9" y="141.64" width="27.33" height="14.87"/><path class="cls-1" d="M215.05,155.32H185.46V139h29.59ZM187,153.82h26.59V140.45H187Z"/><path class="cls-4" d="M143.62,85.92c1.14,0,2.2-.94,3.1-2.58a1.58,1.58,0,0,1-.51-.28c-.67,1.09-1.43,1.7-2.24,1.7-2.71,0-4.91-7-4.91-15.56s2.2-15.56,4.91-15.56,4.91,7,4.91,15.56a38.69,38.69,0,0,1-1.35,10.72,1.75,1.75,0,0,1,.51.14,39.56,39.56,0,0,0,1.39-10.86c0-9.24-2.6-16.72-5.81-16.72S137.81,60,137.81,69.2,140.41,85.92,143.62,85.92Z"/><path class="cls-1" d="M146.06,81.68a1.25,1.25,0,0,1,1.25-1.26h.06a1.1,1.1,0,0,1,.51.13,1.25,1.25,0,0,1-.57,2.37,1.23,1.23,0,0,1-.84-.33A1.25,1.25,0,0,1,146.06,81.68Z"/><path class="cls-4" d="M158.1,60.84c-.57-1-1.92-1.43-3.78-1.4a1.68,1.68,0,0,1,0,.59,2.93,2.93,0,0,1,2.6,1.09c1.35,2.35-3.58,7.74-11,12S131.33,79,130,76.68s3.58-7.74,11-12a38.91,38.91,0,0,1,10-4.18,1.91,1.91,0,0,1-.13-.51,39.29,39.29,0,0,0-10.1,4.22c-8,4.62-13.19,10.61-11.58,13.39s9.39,1.29,17.39-3.33S159.71,63.62,158.1,60.84Z"/><path class="cls-1" d="M153.21,60.85a1.26,1.26,0,0,1-1.72-.46l0,0a1.18,1.18,0,0,1-.14-.51,1.25,1.25,0,0,1,2.33-.69,1,1,0,0,1,.13.33,1.18,1.18,0,0,1,0,.56A1.26,1.26,0,0,1,153.21,60.85Z"/><path class="cls-4" d="M129.14,60.84c-.57,1-.28,2.38.68,4a1.76,1.76,0,0,1,.51-.3c-.61-1.13-.77-2.09-.36-2.79,1.35-2.35,8.49-.77,15.93,3.53s12.38,9.68,11,12-8.49.77-15.94-3.52a38.87,38.87,0,0,1-8.61-6.53,1.58,1.58,0,0,1-.37.36,38.84,38.84,0,0,0,8.71,6.64c8,4.62,15.78,6.11,17.38,3.33s-3.58-8.77-11.58-13.39S130.74,58.06,129.14,60.84Z"/><path class="cls-4" d="M143.62,85.92c1.14,0,2.2-.94,3.1-2.58a1.58,1.58,0,0,1-.51-.28c-.67,1.09-1.43,1.7-2.24,1.7-2.71,0-4.91-7-4.91-15.56s2.2-15.56,4.91-15.56,4.91,7,4.91,15.56a38.69,38.69,0,0,1-1.35,10.72,1.75,1.75,0,0,1,.51.14,39.56,39.56,0,0,0,1.39-10.86c0-9.24-2.6-16.72-5.81-16.72S137.81,60,137.81,69.2,140.41,85.92,143.62,85.92Z"/><path class="cls-4" d="M158.1,60.84c-.57-1-1.92-1.43-3.78-1.4a1.68,1.68,0,0,1,0,.59,2.93,2.93,0,0,1,2.6,1.09c1.35,2.35-3.58,7.74-11,12S131.33,79,130,76.68s3.58-7.74,11-12a38.91,38.91,0,0,1,10-4.18,1.91,1.91,0,0,1-.13-.51,39.29,39.29,0,0,0-10.1,4.22c-8,4.62-13.19,10.61-11.58,13.39s9.39,1.29,17.39-3.33S159.71,63.62,158.1,60.84Z"/><path class="cls-4" d="M129.14,60.84c-.57,1-.28,2.38.68,4a1.76,1.76,0,0,1,.51-.3c-.61-1.13-.77-2.09-.36-2.79,1.35-2.35,8.49-.77,15.93,3.53s12.38,9.68,11,12-8.49.77-15.94-3.52a38.87,38.87,0,0,1-8.61-6.53,1.58,1.58,0,0,1-.37.36,38.84,38.84,0,0,0,8.71,6.64c8,4.62,15.78,6.11,17.38,3.33s-3.58-8.77-11.58-13.39S130.74,58.06,129.14,60.84Z"/><path class="cls-1" d="M131.6,65.08a1.24,1.24,0,0,1,.45,1.71.09.09,0,0,1,0,0,1.09,1.09,0,0,1-.37.37,1.24,1.24,0,0,1-1.76-1.67,1,1,0,0,1,.22-.28,1.09,1.09,0,0,1,.48-.29A1.21,1.21,0,0,1,131.6,65.08Z"/><path class="cls-1" d="M146.33,69.33a2.65,2.65,0,1,1-2.65-2.65A2.65,2.65,0,0,1,146.33,69.33Z"/><path class="cls-2" d="M176.54,154.84v4.63s-.08,3.62,2.11,3.7,3.62-8.33,3.62-8.33Z"/><path class="cls-2" d="M135.06,146.69l-3,3.64a2.37,2.37,0,0,0-.72,3.43,2.33,2.33,0,0,0,2.88.31l4-3.63Z"/><path class="cls-1" d="M178.68,163.92h-.06c-2.31-.09-2.86-2.85-2.82-4.47v-4.61a.75.75,0,0,1,.74-.75h5.73a.74.74,0,0,1,.57.27.79.79,0,0,1,.17.61C182.55,157.67,181.21,163.92,178.68,163.92Zm-1.39-8.33v3.88c0,.05,0,2.9,1.39,2.95h0c.66,0,1.91-2.91,2.68-6.83Z"/><path class="cls-1" d="M133,155.17a2.83,2.83,0,0,1-2.14-.92,2.8,2.8,0,0,1-.62-2.26,3.25,3.25,0,0,1,1.39-2.22l2.9-3.55a.79.79,0,0,1,.57-.28.74.74,0,0,1,.58.27l3.19,3.75a.75.75,0,0,1-.07,1l-4,3.63-.13.09A3.35,3.35,0,0,1,133,155.17Zm2.12-7.31-2.4,2.94a.55.55,0,0,1-.18.16,1.78,1.78,0,0,0-.81,1.24,1.33,1.33,0,0,0,.26,1.07,1.57,1.57,0,0,0,1.87.19l3.4-3.08Zm-3,2.47Z"/><path class="cls-2" d="M176.55,159.68a11.5,11.5,0,0,0-1.09,3.91c0,1.49.72,1.28.72,1.28l13,.21s1.35-1.13.41-1.91-8.34-3.92-8.34-3.92a5.15,5.15,0,0,1-2.86,1.06A3.07,3.07,0,0,1,176.55,159.68Z"/><path class="cls-2" d="M180.13,100.64s8.75,26.39,9,28.44-6.6,26.95-6.6,26.95h-6.72l3.53-26.4-14.68-29Z"/><path class="cls-3" d="M178.49,100.64s8.76,26.39,9,28.44S180.91,156,180.91,156h-6.72l3.53-26.4-14.68-29Z"/><path class="cls-1" d="M182.54,156.77h-6.72a.74.74,0,0,1-.74-.84l3.5-26.17L164,101a.76.76,0,0,1,0-.73.74.74,0,0,1,.64-.36h15.46a.76.76,0,0,1,.71.51c.9,2.71,8.79,26.52,9,28.58s-5.47,23.06-6.62,27.24A.74.74,0,0,1,182.54,156.77Zm-5.86-1.49H182c2.62-9.58,6.57-24.68,6.42-26.11s-5.3-17.2-8.81-27.78H165.89L180,129.29a.75.75,0,0,1,.08.44Z"/><polygon class="cls-2" points="183.63 60.68 173.46 68.48 181.03 72.02 186.79 64.58 183.63 60.68"/><path class="cls-1" d="M181,72.76a.71.71,0,0,1-.32-.07l-7.56-3.53a.74.74,0,0,1-.43-.59.75.75,0,0,1,.29-.68l10.16-7.81a.76.76,0,0,1,1,.13l3.16,3.9a.75.75,0,0,1,0,.93l-5.76,7.43A.75.75,0,0,1,181,72.76Zm-6.13-4.43,5.9,2.75,5-6.49-2.32-2.87Z"/><path class="cls-2" d="M132.14,150.05a11.71,11.71,0,0,0-4,.67c-1.33.67-.85,1.19-.85,1.19l5.3,11.84s1.6.73,1.9-.44,0-9.22,0-9.22-1.75-.93-2.17-2.14A3.1,3.1,0,0,1,132.14,150.05Z"/><path class="cls-3" d="M176.55,161.12a11.5,11.5,0,0,0-1.09,3.92c0,1.49.72,1.27.72,1.27l13,.22s1.35-1.14.41-1.91-8.34-3.92-8.34-3.92a5.23,5.23,0,0,1-2.86,1.06A3.11,3.11,0,0,1,176.55,161.12Z"/><path class="cls-3" d="M131.18,151.49a11.71,11.71,0,0,0-4,.67c-1.33.67-.85,1.2-.85,1.2l5.3,11.83s1.59.73,1.9-.44,0-9.21,0-9.21a5.19,5.19,0,0,1-2.18-2.15A3.13,3.13,0,0,1,131.18,151.49Z"/><path class="cls-1" d="M189.14,165.83h0l-12.89-.21a1.18,1.18,0,0,1-.83-.21,2.12,2.12,0,0,1-.7-1.8,11.71,11.71,0,0,1,1.16-4.25.73.73,0,0,1,.54-.42.75.75,0,0,1,.64.19,2.74,2.74,0,0,0,1.38.44,4.36,4.36,0,0,0,2.33-.92.76.76,0,0,1,.74-.08c1.26.53,7.55,3.22,8.53,4a1.53,1.53,0,0,1,.6,1.21,2.69,2.69,0,0,1-1,1.84A.74.74,0,0,1,189.14,165.83Zm-12.86-1.71,12.56.21c.18-.21.31-.43.29-.52h0a.23.23,0,0,0-.06-.06,79.58,79.58,0,0,0-7.77-3.65,5.24,5.24,0,0,1-3,1,5,5,0,0,1-1.37-.32,8.51,8.51,0,0,0-.7,2.83A1.75,1.75,0,0,0,176.28,164.12Zm0,.1h0Zm-.36-.07Zm.59-4.47Z"/><path class="cls-1" d="M133.56,164.72a3.41,3.41,0,0,1-1.29-.29.72.72,0,0,1-.37-.38l-5.27-11.76a1.14,1.14,0,0,1-.16-.84c.1-.55.53-1,1.32-1.4a12,12,0,0,1,4.35-.75h0a.74.74,0,0,1,.61.31.71.71,0,0,1,.1.66,2.64,2.64,0,0,0,.18,1.43,4.36,4.36,0,0,0,1.82,1.73.76.76,0,0,1,.4.64c.05,1.36.27,8.2,0,9.42a1.59,1.59,0,0,1-.85,1.07A1.91,1.91,0,0,1,133.56,164.72Zm-.43-1.57a1,1,0,0,0,.59,0h0a.15.15,0,0,0,0-.08,75.43,75.43,0,0,0,0-8.59,5.28,5.28,0,0,1-2.14-2.33,5,5,0,0,1-.29-1.37,8.32,8.32,0,0,0-2.86.56,1.88,1.88,0,0,0-.47.3Zm-1-13.1h0Z"/><path class="cls-2" d="M177.31,100.82s-16,29.18-17.1,30.67-22.86,20.07-22.86,20.07l-4.28-4.46L152.22,128l8.36-28.62Z"/><path class="cls-3" d="M175.15,100.82c-3.91,7.05-6.89,12.8-8.86,16.69-3.58,7.09-4.86,10.07-8.24,14-1.43,1.65-1.75,1.75-9.19,8.15s-13.68,11.92-13.67,11.92l1.18-1-4.71-5L150.05,128l11.25-26.1Z"/><path class="cls-1" d="M137.35,152.31a.7.7,0,0,1-.54-.23l-4.28-4.46a.76.76,0,0,1,0-1.05l19-19,8.31-28.44a.75.75,0,0,1,.79-.54l16.72,1.49a.75.75,0,0,1,.6,1.1c-.66,1.2-16,29.25-17.16,30.76s-20.74,18.29-23,20.19A.74.74,0,0,1,137.35,152.31Zm-3.23-5.2,3.28,3.43c8.71-7.46,21.44-18.48,22.21-19.5s11.71-20.85,16.49-29.57l-15-1.33-8.19,28a.8.8,0,0,1-.19.32Z"/><path class="cls-1" d="M180.41,63.59c-1.72-.26-2.59-.39-3-.88-.55-.69,0-1.2-.62-2.28s-1.17-.89-1.44-1.69c-.43-1.25.7-2.65.89-2.89a4.48,4.48,0,0,1,2.38-1.5c.13-.51,1.15-4.11,3.87-5.14a5.53,5.53,0,0,1,1.44-.36c1.33-.15,1.89.34,3.82.74,1.72.36,1.68.07,2.64.43A4.37,4.37,0,0,1,193,52c.52,1.09-.06,1.83.7,2.8.32.41.72.65.66,1s-.71.62-.79.64c-1.34.41-2.21-1.4-4-1.85-2.2-.55-5.14,1-5.81,2.92a9.5,9.5,0,0,0-.29,3.44c0,.58.05,1.17,0,1.75a1,1,0,0,1-.2.64,1,1,0,0,1-.72.26C181.29,63.6,180.66,63.62,180.41,63.59Z"/><path class="cls-2" d="M176.65,66a13.86,13.86,0,0,0-3.71,1.09c-1.33.61-4.71,2.41-7.58,7.66-4.93,9-1.13,15-6.14,26.78a43.75,43.75,0,0,1-1.94,4,36.71,36.71,0,0,0,18.26,2.09,35.53,35.53,0,0,0,7.15-1.83A101.79,101.79,0,0,1,184.38,91a51.24,51.24,0,0,0,1.34-12.22,40.85,40.85,0,0,0-.5-5.34l-2.68-3.36a3,3,0,0,1-2,.83C178.86,70.87,177.08,69,176.65,66Z"/><path class="cls-4" d="M174.71,66.35A13.86,13.86,0,0,0,171,67.44c-1.33.61-4.71,2.41-7.58,7.66-4.93,9-1.14,15-6.15,26.78a41.61,41.61,0,0,1-1.93,4,36.82,36.82,0,0,0,18.26,2.09,35,35,0,0,0,7.15-1.84,100.4,100.4,0,0,1,1.69-14.8,50.8,50.8,0,0,0,1.33-12.22,41.15,41.15,0,0,0-.49-5.34l-2.68-3.36a2.92,2.92,0,0,1-2,.82C176.91,71.18,175.14,69.26,174.71,66.35Z"/><path class="cls-1" d="M170.52,108.73a38.25,38.25,0,0,1-13.5-2.5.69.69,0,0,1-.44-.44.71.71,0,0,1,0-.62c.69-1.26,1.33-2.57,1.9-3.9a39.77,39.77,0,0,0,3-14.1c.29-4.15.57-8.06,3.13-12.74a17.85,17.85,0,0,1,7.93-8,14.46,14.46,0,0,1,3.91-1.15.74.74,0,0,1,.85.63c.39,2.62,1.93,4.19,3.18,4.21a2.22,2.22,0,0,0,1.48-.65.76.76,0,0,1,.56-.17.73.73,0,0,1,.51.28L185.81,73a.78.78,0,0,1,.15.35,41.21,41.21,0,0,1,.51,5.44,48.47,48.47,0,0,1-1.16,11.38l-.19,1a101.15,101.15,0,0,0-1.68,14.7.74.74,0,0,1-.49.67,35.91,35.91,0,0,1-7.3,1.87A35,35,0,0,1,170.52,108.73Zm-12.17-3.6a36.06,36.06,0,0,0,17.08,1.75,34.77,34.77,0,0,0,6.54-1.63,103.33,103.33,0,0,1,1.67-14.41l.2-1a46,46,0,0,0,1.13-11,40.85,40.85,0,0,0-.46-5l-2.11-2.64a3.46,3.46,0,0,1-1.84.54c-2,0-3.86-2-4.51-4.73a14.1,14.1,0,0,0-2.8.91A16.38,16.38,0,0,0,166,75.15c-2.41,4.39-2.66,8-3,12.12a41.25,41.25,0,0,1-3.16,14.59C159.43,103,158.91,104.06,158.35,105.13Z"/><path class="cls-2" d="M182,63.56a6.6,6.6,0,1,0-.26-9.33A6.59,6.59,0,0,0,182,63.56Z"/><path class="cls-1" d="M186.52,66.11a7.31,7.31,0,0,1-5.05-2h0a7.35,7.35,0,0,1,4.85-12.68,7.22,7.22,0,0,1,5.25,2,7.34,7.34,0,0,1-4.85,12.68Zm-4-3.1a5.86,5.86,0,0,0,8.27-.22,5.85,5.85,0,0,0,1.6-4.18,5.86,5.86,0,0,0-6-5.69A5.84,5.84,0,0,0,182.5,63Z"/><path class="cls-2" d="M179,61.12A1.81,1.81,0,1,0,180.39,59,1.81,1.81,0,0,0,179,61.12Z"/><path class="cls-1" d="M181.71,60.16a3.61,3.61,0,0,1-.11-1.57,20.8,20.8,0,0,0,0-3.53,18.36,18.36,0,0,0,4.32,0,9.21,9.21,0,0,1,3.18-.11,11.25,11.25,0,0,1,2.13.88,3.66,3.66,0,0,0,2.24.38,9.07,9.07,0,0,0-5.07-4.59,5.93,5.93,0,0,0-1.77-.36,6.29,6.29,0,0,0-2.26.46A11.17,11.17,0,0,0,178.91,56a3.88,3.88,0,0,0-.69,1.73,1.92,1.92,0,0,0,.17,1c.1.2.34.61.6.59a4,4,0,0,1,.92,0,3.27,3.27,0,0,1,.92.28A3,3,0,0,1,181.71,60.16Z"/><path class="cls-2" d="M190.09,79.71l1.6-1.07a13.17,13.17,0,0,1,0-1.81c.08-.46.5-1.16.54-1.47a18.4,18.4,0,0,1,.75-3.23c.21-.16.66,0,.75.29s-.17,2.94-.17,2.94,3.45-5.85,3.74-5.85.79.29.62.67-2.66,4.12-2.41,4.43,4-3.81,4.24-3.81a.62.62,0,0,1,.46.75c-.12.25-3.57,3.87-3.45,4.08S200.67,73,201,73.09a.69.69,0,0,1,.33.87c-.12.25-3.9,2.5-3.86,2.83s3.36-1,3.53-.92a.54.54,0,0,1,0,.79c-.29.21-3.08,1.21-3.33,1.5a13,13,0,0,1-2.2,1.87c-.58.29-1.75.29-1.91.5l-1.87,2.2Z"/><path class="cls-1" d="M191.65,83.48h-.09a.76.76,0,0,1-.58-.4l-1.56-3a.77.77,0,0,1,.25-1l1.25-.83a9.75,9.75,0,0,1,0-1.55,4.88,4.88,0,0,1,.36-1c.06-.14.16-.37.18-.44s.45-3.24,1-3.7a1.13,1.13,0,0,1,1-.17,1.33,1.33,0,0,1,.9.81s0,.08,0,.18c2.18-3.61,2.41-3.61,2.82-3.61a1.52,1.52,0,0,1,1.22.66,1.09,1.09,0,0,1,.09,1.06c-.05.11-.15.28-.4.69,1-1,1.19-1.12,1.54-1.12a1.35,1.35,0,0,1,1.13,1.84,2.86,2.86,0,0,1-.49.61,1,1,0,0,1,.87-.11,1.31,1.31,0,0,1,.76.77,1.41,1.41,0,0,1,0,1.14c-.1.21-.24.33-1,.82a.55.55,0,0,1,.3.09,1.11,1.11,0,0,1,.56.92,1.25,1.25,0,0,1-.51,1.14,7.47,7.47,0,0,1-1.41.63c-.55.23-1.57.64-1.83.8a13.27,13.27,0,0,1-2.38,2,5.15,5.15,0,0,1-1.36.36l-.42.07-1.77,2.09A.76.76,0,0,1,191.65,83.48ZM191.06,80l.74,1.44c.48-.57,1-1.22,1.13-1.34a1.87,1.87,0,0,1,1.24-.48,4.11,4.11,0,0,0,.93-.22,12.49,12.49,0,0,0,2-1.69l.16-.14-.13-.07a.85.85,0,0,1-.37-.58.77.77,0,0,1,.09-.49l-.2,0a.78.78,0,0,1-.49-.36.68.68,0,0,1,0-.82,1,1,0,0,1-.6.19.87.87,0,0,1-.58-.3.83.83,0,0,1-.16-.29l-.57.95a.74.74,0,0,1-.87.33.75.75,0,0,1-.42-.34c-.06.17-.14.36-.23.57a4.43,4.43,0,0,0-.25.66,11.21,11.21,0,0,0,0,1.64.75.75,0,0,1-.33.66Z"/><path class="cls-2" d="M167.58,76.12a16.21,16.21,0,0,0,.61,2.28c2.48,6.74,5.05,13.73,9.85,14.61,2.07.37,3.74-.52,6.46-2a24.06,24.06,0,0,0,8.85-8.39l-2.54-4.17-10.3,7.6c0-.32-5.46-17.91-10.71-16.45a3.67,3.67,0,0,0-1.87,1.16C166.82,72.16,167.24,74.31,167.58,76.12Z"/><path class="cls-4" d="M167.22,78.63a16.3,16.3,0,0,0,.61,2.27c2.48,6.74,5,13.73,9.86,14.61,2.06.37,3.73-.52,6.45-2A24.06,24.06,0,0,0,193,85.12L190.46,81l-10.31,7.6c0-.32-5.46-17.91-10.71-16.45a3.65,3.65,0,0,0-1.86,1.16C166.47,74.66,166.88,76.81,167.22,78.63Z"/><path class="cls-1" d="M179,93.84a5.79,5.79,0,0,1-1.08-.1c-5.22-.95-7.87-8.13-10.42-15.08a15.53,15.53,0,0,1-.64-2.4h0c-.37-1.91-.83-4.3.5-6a4.27,4.27,0,0,1,2.25-1.41,3.66,3.66,0,0,1,3.29.83c3.76,2.86,7,11.8,8,15.1l9.45-7a.77.77,0,0,1,.59-.13.71.71,0,0,1,.49.35L194,82.23a.75.75,0,0,1,0,.79,24.94,24.94,0,0,1-9.13,8.65C182.52,92.94,180.85,93.84,179,93.84Zm-8.56-23.58a1.54,1.54,0,0,0-.43.06,2.92,2.92,0,0,0-1.48.9c-.9,1.13-.53,3.06-.2,4.76h0a14.41,14.41,0,0,0,.57,2.16c2.41,6.56,4.91,13.33,9.29,14.13,1.82.33,3.38-.52,6-1.92a23.48,23.48,0,0,0,8.32-7.74l-1.87-3.08L181,86.65a.74.74,0,0,1-1.18-.5c-.22-1-4.13-13.05-8.16-15.5A2.26,2.26,0,0,0,170.43,70.26Z"/><path class="cls-1" d="M188.66,57a.61.61,0,0,0,.74.45.6.6,0,0,0,.46-.73.62.62,0,0,0-.74-.46A.62.62,0,0,0,188.66,57Z"/><path class="cls-1" d="M184.25,58.33a.62.62,0,0,0,.74.45.61.61,0,0,0,.46-.73.62.62,0,0,0-.74-.46A.62.62,0,0,0,184.25,58.33Z"/><path class="cls-1" d="M188,60.64a.36.36,0,0,1-.32-.18.38.38,0,0,1,.13-.52,2.58,2.58,0,0,0,.69-.51l0,0a9.83,9.83,0,0,0-1-1,.38.38,0,1,1,.5-.56,10,10,0,0,1,1.1,1.16.56.56,0,0,1,.11.17.71.71,0,0,1-.17.79,3.61,3.61,0,0,1-.88.67A.41.41,0,0,1,188,60.64Zm.56-1.2h0Z"/><path class="cls-1" d="M185.63,61.54a.38.38,0,0,1,.46-.25,3.35,3.35,0,0,0,.62.17l.54,0a.38.38,0,0,1,.36.38.38.38,0,0,1-.39.36,3.88,3.88,0,0,1-1.35-.24A.37.37,0,0,1,185.63,61.54Z"/><g class="cls-5"><path class="cls-4" d="M186.11,59.62c-.06-.33-1-.58-1.67-.19-.32.19-.71.58-.64.83s.76.31,1.25.17S186.15,59.91,186.11,59.62Z"/></g><g class="cls-5"><path class="cls-4" d="M191.71,57.71c-.06-.33-1-.58-1.67-.19-.32.19-.71.58-.64.82s.76.32,1.25.18S191.75,58,191.71,57.71Z"/></g></g></g></svg>