<svg width="294" height="285" viewBox="0 0 294 285" fill="none" xmlns="http://www.w3.org/2000/svg">
<path d="M35.4563 30.6308H111.656M73.4286 52.8781H214.243M60.7712 73.2714H234.811M108.237 91.8108H166.777M127.969 30.6308H166.777M184.156 30.6308H273.875M35.4563 52.8781H59.0937M222.219 52.8781H266.625M35.4563 73.2714H52.75M243.969 73.2714H272.062M35.4563 91.8108H100.781M177.812 91.8108H268.437M149.373 141.867L177.562 192.282C178.065 193.181 179.435 192.824 179.435 191.794V125.474C179.435 123.265 181.226 121.474 183.435 121.474H275.235C278.33 121.474 280.917 119.12 281.209 116.039L291.586 6.37683C291.808 4.02932 289.962 2 287.604 2H14.7698C12.6784 2 10.94 3.61121 10.7814 5.69666L2.32653 116.865C2.15021 119.183 3.98075 121.162 6.30574 121.168L135.925 121.468C137.388 121.472 138.732 122.274 139.431 123.559L149.373 141.867Z" stroke="white" stroke-width="3"/>
<ellipse cx="209.531" cy="237.124" rx="40.7812" ry="47.8759" fill="white"/>
</svg>
