<svg width="292" height="287" viewBox="0 0 292 287" fill="none" xmlns="http://www.w3.org/2000/svg">
<path d="M5.43073 242.55V2H290V242.55M5.43073 242.55H290M5.43073 242.55V285H290V242.55M244.925 264.297V255.983C244.925 253.774 243.134 251.983 240.925 251.983L18.6104 251.983C16.4012 251.983 14.6104 253.774 14.6104 255.983V271.545C14.6104 273.763 16.4142 275.557 18.6316 275.545L240.946 274.364C243.147 274.352 244.925 272.565 244.925 270.364V264.297Z" stroke="#CAF0F8" stroke-width="3"/>
<path d="M27.9415 131.067L27.3175 128.187C28.9175 127.931 30.2295 127.307 31.2535 126.315C32.3095 125.355 32.9975 123.995 33.3175 122.235C33.2215 122.267 33.1255 122.283 33.0295 122.283C32.9335 122.283 32.8375 122.283 32.7415 122.283C31.6535 122.283 30.7415 121.899 30.0055 121.131C29.2695 120.363 28.9015 119.403 28.9015 118.251C28.9015 117.067 29.2695 116.075 30.0055 115.275C30.7735 114.443 31.7495 114.027 32.9335 114.027C34.3415 114.027 35.4295 114.507 36.1975 115.467C36.9655 116.427 37.3495 117.755 37.3495 119.451C37.3495 121.467 36.9335 123.291 36.1015 124.923C35.3015 126.587 34.1815 127.947 32.7415 129.003C31.3335 130.091 29.7335 130.779 27.9415 131.067Z" fill="white"/>
<ellipse cx="32.9698" cy="49.1664" rx="9.17966" ry="9.43333" fill="white"/>
<path d="M253.281 181.233C255.716 181.233 258.051 182.227 259.772 183.996C261.494 185.765 262.461 188.165 262.461 190.667C262.461 193.169 261.494 195.568 259.772 197.337C258.051 199.106 255.716 200.1 253.281 200.1C250.847 200.1 248.512 199.106 246.79 197.337C245.069 195.568 244.102 193.169 244.102 190.667C244.102 188.165 245.069 185.765 246.79 183.996C248.512 182.227 250.847 181.233 253.281 181.233V181.233ZM253.281 204.817C263.425 204.817 271.641 209.038 271.641 214.25V218.967H234.922V214.25C234.922 209.038 243.138 204.817 253.281 204.817Z" fill="white"/>
<path d="M78.8678 35.0168H101.817M106.407 35.0168H115.586M120.176 35.0168H166.074M78.8678 49.1668H110.997M120.176 49.1668H163.78M78.8678 63.3168H88.0474M92.6372 63.3168H133.946M138.536 63.3168H163.78M65.5983 20.8668H174.754C175.03 20.8668 175.254 21.0906 175.254 21.3668V76.9668C175.254 77.2429 175.03 77.4668 174.754 77.4668H65.5983C65.3221 77.4668 65.0983 77.2429 65.0983 76.9668V59.1272C65.0983 58.7973 64.9356 58.4886 64.6635 58.3022L53.7371 50.8167C52.5776 50.0223 52.5776 48.3112 53.7371 47.5168L64.6635 40.0313C64.9356 39.8449 65.0983 39.5362 65.0983 39.2064V21.3668C65.0983 21.0906 65.3221 20.8668 65.5983 20.8668Z" stroke="#CAF0F8" stroke-width="3"/>
<path d="M198.203 214.25L175.254 214.25M170.665 214.25L161.485 214.25M156.895 214.25L110.997 214.25M198.203 200.1L166.075 200.1M156.895 200.1L113.292 200.1M198.203 185.95L189.024 185.95M184.434 185.95L143.126 185.95M138.536 185.95L113.292 185.95M211.473 228.4L102.317 228.4C102.041 228.4 101.817 228.176 101.817 227.9L101.817 172.3C101.817 172.024 102.041 171.8 102.317 171.8L211.473 171.8C211.749 171.8 211.973 172.024 211.973 172.3L211.973 190.139C211.973 190.469 212.136 190.778 212.408 190.964L223.334 198.45C224.494 199.244 224.494 200.955 223.334 201.75L212.408 209.235C212.136 209.422 211.973 209.73 211.973 210.06L211.973 227.9C211.973 228.176 211.749 228.4 211.473 228.4Z" stroke="#CAF0F8" stroke-width="3"/>
<path d="M78.8678 110.483H101.817M106.407 110.483L115.586 110.483M120.176 110.483H147.715M78.8678 124.633H110.997M120.176 124.633L147.715 124.633M78.8678 138.783H88.0474M92.6372 138.783H133.946M138.536 138.783H147.715M65.5983 96.3335L156.395 96.3335C156.671 96.3335 156.895 96.5574 156.895 96.8335V152.433C156.895 152.71 156.671 152.933 156.395 152.933H65.5983C65.3221 152.933 65.0983 152.71 65.0983 152.433V134.594C65.0983 134.264 64.9356 133.955 64.6635 133.769L53.7371 126.283C52.5776 125.489 52.5776 123.778 53.7371 122.984L64.6635 115.498C64.9356 115.312 65.0983 115.003 65.0983 114.673V96.8335C65.0983 96.5574 65.3221 96.3335 65.5983 96.3335Z" stroke="#CAF0F8" stroke-width="3"/>
<mask id="path-8-inside-1_247_397" fill="white">
<path d="M271.886 269.48C268.942 269.48 266.549 266.953 266.549 263.845V257.319C266.549 254.21 268.942 251.683 271.886 251.683C274.829 251.683 277.223 254.21 277.223 257.319V263.845C277.223 266.953 274.829 269.48 271.886 269.48ZM271.886 253.463C269.875 253.463 268.234 255.195 268.234 257.319V263.845C268.234 265.969 269.875 267.701 271.886 267.701C273.897 267.701 275.537 265.969 275.537 263.845V257.319C275.537 255.195 273.897 253.463 271.886 253.463Z"/>
</mask>
<path d="M271.886 269.48C268.942 269.48 266.549 266.953 266.549 263.845V257.319C266.549 254.21 268.942 251.683 271.886 251.683C274.829 251.683 277.223 254.21 277.223 257.319V263.845C277.223 266.953 274.829 269.48 271.886 269.48ZM271.886 253.463C269.875 253.463 268.234 255.195 268.234 257.319V263.845C268.234 265.969 269.875 267.701 271.886 267.701C273.897 267.701 275.537 265.969 275.537 263.845V257.319C275.537 255.195 273.897 253.463 271.886 253.463Z" fill="#CAF0F8"/>
<path d="M271.886 266.48C270.751 266.48 269.549 265.453 269.549 263.845H263.549C263.549 268.454 267.133 272.48 271.886 272.48V266.48ZM269.549 263.845V257.319H263.549V263.845H269.549ZM269.549 257.319C269.549 255.711 270.751 254.683 271.886 254.683V248.683C267.133 248.683 263.549 252.71 263.549 257.319H269.549ZM271.886 254.683C273.021 254.683 274.223 255.711 274.223 257.319H280.223C280.223 252.71 276.638 248.683 271.886 248.683V254.683ZM274.223 257.319V263.845H280.223V257.319H274.223ZM274.223 263.845C274.223 265.453 273.021 266.48 271.886 266.48V272.48C276.638 272.48 280.223 268.454 280.223 263.845H274.223ZM271.886 250.463C268.066 250.463 265.234 253.695 265.234 257.319H271.234C271.234 257.037 271.342 256.808 271.484 256.657C271.624 256.509 271.768 256.463 271.886 256.463V250.463ZM265.234 257.319V263.845H271.234V257.319H265.234ZM265.234 263.845C265.234 267.469 268.066 270.701 271.886 270.701V264.701C271.768 264.701 271.624 264.654 271.484 264.506C271.342 264.356 271.234 264.127 271.234 263.845H265.234ZM271.886 270.701C275.706 270.701 278.537 267.469 278.537 263.845H272.537C272.537 264.127 272.43 264.356 272.287 264.506C272.147 264.654 272.004 264.701 271.886 264.701V270.701ZM278.537 263.845V257.319H272.537V263.845H278.537ZM278.537 257.319C278.537 253.695 275.706 250.463 271.886 250.463V256.463C272.004 256.463 272.147 256.509 272.287 256.657C272.43 256.808 272.537 257.037 272.537 257.319H278.537Z" fill="#CAF0F8" mask="url(#path-8-inside-1_247_397)"/>
<mask id="path-10-inside-2_247_397" fill="white">
<path d="M271.885 273.633C266.683 273.633 262.448 269.16 262.448 263.667V261.65C262.448 261.163 262.83 260.76 263.29 260.76C263.751 260.76 264.133 261.163 264.133 261.65V263.667C264.133 268.175 267.616 271.853 271.885 271.853C276.155 271.853 279.638 268.175 279.638 263.667V261.65C279.638 261.163 280.02 260.76 280.48 260.76C280.941 260.76 281.323 261.163 281.323 261.65V263.667C281.323 269.16 277.087 273.633 271.885 273.633Z"/>
</mask>
<path d="M271.885 273.633C266.683 273.633 262.448 269.16 262.448 263.667V261.65C262.448 261.163 262.83 260.76 263.29 260.76C263.751 260.76 264.133 261.163 264.133 261.65V263.667C264.133 268.175 267.616 271.853 271.885 271.853C276.155 271.853 279.638 268.175 279.638 263.667V261.65C279.638 261.163 280.02 260.76 280.48 260.76C280.941 260.76 281.323 261.163 281.323 261.65V263.667C281.323 269.16 277.087 273.633 271.885 273.633Z" fill="#CAF0F8"/>
<path d="M271.885 270.633C268.492 270.633 265.448 267.659 265.448 263.667H259.448C259.448 270.661 264.875 276.633 271.885 276.633V270.633ZM265.448 263.667V261.65H259.448V263.667H265.448ZM265.448 261.65C265.448 262.664 264.639 263.76 263.29 263.76V257.76C261.021 257.76 259.448 259.662 259.448 261.65H265.448ZM263.29 263.76C261.942 263.76 261.133 262.664 261.133 261.65H267.133C267.133 259.662 265.56 257.76 263.29 257.76V263.76ZM261.133 261.65V263.667H267.133V261.65H261.133ZM261.133 263.667C261.133 269.676 265.807 274.853 271.885 274.853V268.853C269.425 268.853 267.133 266.675 267.133 263.667H261.133ZM271.885 274.853C277.964 274.853 282.638 269.676 282.638 263.667H276.638C276.638 266.675 274.346 268.853 271.885 268.853V274.853ZM282.638 263.667V261.65H276.638V263.667H282.638ZM282.638 261.65C282.638 262.664 281.829 263.76 280.48 263.76V257.76C278.211 257.76 276.638 259.662 276.638 261.65H282.638ZM280.48 263.76C279.132 263.76 278.323 262.664 278.323 261.65H284.323C284.323 259.662 282.75 257.76 280.48 257.76V263.76ZM278.323 261.65V263.667H284.323V261.65H278.323ZM278.323 263.667C278.323 267.659 275.278 270.633 271.885 270.633V276.633C278.896 276.633 284.323 270.661 284.323 263.667H278.323Z" fill="#CAF0F8" mask="url(#path-10-inside-2_247_397)"/>
<mask id="path-12-inside-3_247_397" fill="white">
<path d="M273.448 258.719C273.358 258.719 273.257 258.707 273.156 258.672C272.336 258.351 271.437 258.351 270.617 258.672C270.179 258.838 269.696 258.6 269.538 258.138C269.381 257.675 269.606 257.165 270.044 256.999C271.235 256.548 272.549 256.548 273.74 256.999C274.178 257.165 274.403 257.675 274.246 258.138C274.111 258.494 273.785 258.719 273.448 258.719Z"/>
</mask>
<path d="M273.448 258.719C273.358 258.719 273.257 258.707 273.156 258.672C272.336 258.351 271.437 258.351 270.617 258.672C270.179 258.838 269.696 258.6 269.538 258.138C269.381 257.675 269.606 257.165 270.044 256.999C271.235 256.548 272.549 256.548 273.74 256.999C274.178 257.165 274.403 257.675 274.246 258.138C274.111 258.494 273.785 258.719 273.448 258.719Z" fill="#CAF0F8"/>
<path d="M273.156 258.672L272.065 261.466L272.112 261.485L272.16 261.501L273.156 258.672ZM270.617 258.672L271.68 261.477L271.694 261.471L271.708 261.466L270.617 258.672ZM269.538 258.138L266.698 259.103L266.698 259.103L269.538 258.138ZM270.044 256.999L268.982 254.193L268.98 254.193L270.044 256.999ZM273.74 256.999L274.804 254.193L274.802 254.193L273.74 256.999ZM274.246 258.138L277.051 259.2L277.07 259.152L277.086 259.103L274.246 258.138ZM273.448 255.719C273.614 255.719 273.863 255.74 274.152 255.842L272.16 261.501C272.651 261.674 273.103 261.719 273.448 261.719V255.719ZM274.247 255.877C272.725 255.283 271.047 255.283 269.525 255.877L271.708 261.466C271.827 261.42 271.946 261.42 272.065 261.466L274.247 255.877ZM269.553 255.866C270.8 255.394 272.024 256.128 272.379 257.172L266.698 259.103C267.367 261.073 269.557 262.282 271.68 261.477L269.553 255.866ZM272.379 257.172C272.699 258.114 272.301 259.351 271.107 259.804L268.98 254.193C266.91 254.978 266.063 257.235 266.698 259.103L272.379 257.172ZM271.106 259.804C271.613 259.613 272.172 259.613 272.678 259.804L274.802 254.193C272.927 253.483 270.857 253.483 268.982 254.193L271.106 259.804ZM272.677 259.804C271.483 259.351 271.085 258.114 271.405 257.172L277.086 259.103C277.721 257.235 276.874 254.978 274.804 254.193L272.677 259.804ZM271.44 257.075C271.715 256.35 272.45 255.719 273.448 255.719V261.719C275.12 261.719 276.507 260.638 277.051 259.2L271.44 257.075Z" fill="#CAF0F8" mask="url(#path-12-inside-3_247_397)"/>
<mask id="path-14-inside-4_247_397" fill="white">
<path d="M272.784 261.234C272.706 261.234 272.638 261.222 272.56 261.199C272.11 261.068 271.65 261.068 271.2 261.199C270.751 261.329 270.29 261.044 270.167 260.57C270.043 260.107 270.313 259.621 270.762 259.49C271.492 259.277 272.279 259.277 273.009 259.49C273.459 259.621 273.728 260.107 273.605 260.582C273.503 260.973 273.155 261.234 272.784 261.234Z"/>
</mask>
<path d="M272.784 261.234C272.706 261.234 272.638 261.222 272.56 261.199C272.11 261.068 271.65 261.068 271.2 261.199C270.751 261.329 270.29 261.044 270.167 260.57C270.043 260.107 270.313 259.621 270.762 259.49C271.492 259.277 272.279 259.277 273.009 259.49C273.459 259.621 273.728 260.107 273.605 260.582C273.503 260.973 273.155 261.234 272.784 261.234Z" fill="#CAF0F8"/>
<path d="M272.56 261.199L273.426 258.327L273.411 258.322L273.396 258.318L272.56 261.199ZM270.167 260.57L273.07 259.814L273.067 259.805L273.065 259.796L270.167 260.57ZM270.762 259.49L271.599 262.371L271.604 262.37L270.762 259.49ZM273.009 259.49L272.167 262.37L272.172 262.371L273.009 259.49ZM273.605 260.582L270.701 259.826L270.7 259.832L273.605 260.582ZM272.784 258.234C272.902 258.234 273.027 258.244 273.153 258.264C273.275 258.284 273.37 258.31 273.426 258.327L271.693 264.071C271.994 264.161 272.356 264.234 272.784 264.234V258.234ZM273.396 258.318C272.4 258.028 271.359 258.028 270.364 258.318L272.037 264.08C271.996 264.092 271.942 264.101 271.88 264.101C271.818 264.101 271.764 264.092 271.723 264.08L273.396 258.318ZM270.364 258.318C271.711 257.927 272.815 258.834 273.07 259.814L267.263 261.326C267.766 263.255 269.791 264.732 272.037 264.08L270.364 258.318ZM273.065 259.796C273.35 260.861 272.764 262.033 271.599 262.371L269.925 256.609C267.861 257.209 266.737 259.353 267.268 261.344L273.065 259.796ZM271.604 262.37C271.785 262.317 271.987 262.317 272.167 262.37L273.851 256.611C272.571 256.236 271.2 256.236 269.92 256.611L271.604 262.37ZM272.172 262.371C270.981 262.025 270.437 260.84 270.701 259.826L276.508 261.338C277.019 259.374 275.936 257.216 273.846 256.609L272.172 262.371ZM270.7 259.832C270.935 258.921 271.764 258.234 272.784 258.234V264.234C274.546 264.234 276.072 263.025 276.509 261.332L270.7 259.832Z" fill="#CAF0F8" mask="url(#path-14-inside-4_247_397)"/>
<mask id="path-16-inside-5_247_397" fill="white">
<path d="M271.886 277.193C271.425 277.193 271.043 276.789 271.043 276.303V272.744C271.043 272.257 271.425 271.854 271.886 271.854C272.347 271.854 272.729 272.257 272.729 272.744V276.303C272.729 276.789 272.347 277.193 271.886 277.193Z"/>
</mask>
<path d="M271.886 277.193C271.425 277.193 271.043 276.789 271.043 276.303V272.744C271.043 272.257 271.425 271.854 271.886 271.854C272.347 271.854 272.729 272.257 272.729 272.744V276.303C272.729 276.789 272.347 277.193 271.886 277.193Z" fill="#CAF0F8"/>
<path d="M271.886 274.193C273.234 274.193 274.043 275.289 274.043 276.303H268.043C268.043 278.29 269.616 280.193 271.886 280.193V274.193ZM274.043 276.303V272.744H268.043V276.303H274.043ZM274.043 272.744C274.043 273.758 273.234 274.854 271.886 274.854V268.854C269.616 268.854 268.043 270.756 268.043 272.744H274.043ZM271.886 274.854C270.538 274.854 269.729 273.758 269.729 272.744H275.729C275.729 270.756 274.155 268.854 271.886 268.854V274.854ZM269.729 272.744V276.303H275.729V272.744H269.729ZM269.729 276.303C269.729 275.289 270.538 274.193 271.886 274.193V280.193C274.155 280.193 275.729 278.29 275.729 276.303H269.729Z" fill="#CAF0F8" mask="url(#path-16-inside-5_247_397)"/>
</svg>
