<svg width="290" height="283" viewBox="0 0 290 283" fill="none" xmlns="http://www.w3.org/2000/svg">
<path d="M58.5 19.5C63.6717 19.5 68.6316 21.5545 72.2886 25.2114C75.9455 28.8684 78 33.8283 78 39C78 44.1717 75.9455 49.1316 72.2886 52.7886C68.6316 56.4455 63.6717 58.5 58.5 58.5C53.3283 58.5 48.3684 56.4455 44.7114 52.7886C41.0545 49.1316 39 44.1717 39 39C39 33.8283 41.0545 28.8684 44.7114 25.2114C48.3684 21.5545 53.3283 19.5 58.5 19.5V19.5ZM58.5 68.25C80.0475 68.25 97.5 76.9762 97.5 87.75V97.5H19.5V87.75C19.5 76.9762 36.9525 68.25 58.5 68.25Z" fill="white"/>
<path fill-rule="evenodd" clip-rule="evenodd" d="M231.488 20.2773L287.495 42.1175H287.471C288.23 42.4123 288.878 42.9279 289.33 43.5953C289.782 44.2627 290.016 45.0499 289.999 45.8513C289.983 46.6527 289.717 47.43 289.238 48.0788C288.759 48.7277 288.089 49.2171 287.319 49.4814L231.312 68.8931C230.886 69.0437 230.437 69.1208 229.984 69.1211C229.531 69.1194 229.082 69.0424 228.656 68.8931L182.002 52.7114V76.5242C182.002 78.0875 181.37 79.5867 180.245 80.6921C179.119 81.7975 177.593 82.4185 176.002 82.4185C174.41 82.4185 172.884 81.7975 171.758 80.6921C170.633 79.5867 170.001 78.0875 170.001 76.5242V47.7367C170.039 47.3359 170.122 46.9405 170.249 46.5578C170.226 46.4568 170.179 46.3624 170.132 46.2682C170.067 46.1352 170.001 46.0023 170.001 45.8505C169.984 45.0493 170.218 44.2623 170.67 43.5951C171.122 42.9278 171.77 42.4123 172.529 42.1175L228.536 20.2773C229.484 19.9076 230.54 19.9076 231.488 20.2773ZM230.008 77.7035L260.659 67.0546H260.651C261.255 66.8459 261.9 66.7825 262.534 66.8696C263.168 66.9567 263.771 67.1918 264.293 67.5552C264.815 67.9186 265.24 68.3996 265.534 68.9579C265.827 69.5163 265.98 70.1356 265.98 70.764V90.4116C265.979 91.2243 265.721 92.0166 265.243 92.6796C264.764 93.3425 264.088 93.8433 263.308 94.1132L239.305 102.444C233.276 104.519 226.708 104.519 220.679 102.444L196.676 94.1132C195.895 93.8433 195.219 93.3425 194.741 92.6796C194.262 92.0166 194.005 91.2243 194.004 90.4116V70.764C194.003 70.1356 194.156 69.5163 194.45 68.9579C194.743 68.3996 195.169 67.9186 195.691 67.5552C196.213 67.1918 196.816 66.9567 197.449 66.8696C198.083 66.7825 198.729 66.8459 199.332 67.0546L230.008 77.7035Z" fill="white"/>
<path d="M163.14 255.374L128.64 243.242V174.874L163.14 187.007V255.374ZM194.765 163.374C194.42 163.374 194.133 163.374 193.845 163.374L163.14 175.449L128.64 163.374L96.21 174.299C95.0025 174.702 94.14 175.737 94.14 177.059V263.999C94.14 264.762 94.4429 265.493 94.9821 266.032C95.5213 266.572 96.2525 266.874 97.015 266.874C97.3025 266.874 97.6475 266.874 97.935 266.702L128.64 254.799L163.14 266.874L195.57 255.949C196.778 255.374 197.64 254.512 197.64 253.189V166.249C197.64 165.487 197.337 164.756 196.798 164.217C196.259 163.677 195.528 163.374 194.765 163.374Z" fill="white"/>
<path d="M142.507 83.6732C142.023 83.6732 141.538 83.4945 141.155 83.1118C140.415 82.3718 140.415 81.147 141.155 80.407L153.939 67.6232C154.679 66.8832 155.904 66.8832 156.644 67.6232C157.384 68.3632 157.384 69.588 156.644 70.328L143.86 83.1118C143.477 83.469 142.992 83.6732 142.507 83.6732Z" fill="white"/>
<path d="M155.292 70.8646H111.914C110.868 70.8646 110 69.997 110 68.9509C110 67.9047 110.868 67.0371 111.914 67.0371H155.292C156.338 67.0371 157.206 67.9047 157.206 68.9509C157.206 69.997 156.338 70.8646 155.292 70.8646Z" fill="white"/>
<path d="M111.912 55.6049C111.428 55.6049 110.943 55.4263 110.56 55.0436C109.82 54.3036 109.82 53.0788 110.56 52.3388L123.344 39.555C124.084 38.815 125.309 38.815 126.049 39.555C126.789 40.295 126.789 41.5198 126.049 42.2597L113.265 55.0436C112.908 55.4008 112.397 55.6049 111.912 55.6049Z" fill="white"/>
<path d="M155.292 55.6045H111.914C110.868 55.6045 110 54.7369 110 53.6907C110 52.6445 110.868 51.777 111.914 51.777H155.292C156.338 51.777 157.206 52.6445 157.206 53.6907C157.206 54.7369 156.338 55.6045 155.292 55.6045Z" fill="white"/>
<path d="M70.5924 155.364C70.35 154.944 70.2623 154.435 70.4024 153.912C70.6733 152.901 71.734 152.289 72.7448 152.56L90.2078 157.239C91.2186 157.51 91.831 158.57 91.5602 159.581C91.2893 160.592 90.2286 161.204 89.2178 160.933L71.7548 156.254C71.254 156.101 70.8349 155.784 70.5924 155.364Z" fill="white"/>
<path d="M88.0772 160.031L66.3881 122.465C65.8651 121.559 66.1826 120.374 67.0886 119.85C67.9946 119.327 69.1798 119.645 69.7028 120.551L91.3919 158.118C91.915 159.024 91.5975 160.209 90.6915 160.732C89.7854 161.255 88.6003 160.937 88.0772 160.031Z" fill="white"/>
<path d="M79.6027 114.834C79.3603 114.414 79.2726 113.905 79.4127 113.382C79.6835 112.371 80.7442 111.759 81.7551 112.029L99.2181 116.709C100.229 116.979 100.841 118.04 100.57 119.051C100.3 120.062 99.2389 120.674 98.2281 120.403L80.765 115.724C80.2771 115.593 79.8451 115.253 79.6027 114.834Z" fill="white"/>
<path d="M101.293 152.401L79.6038 114.835C79.0807 113.929 79.3983 112.743 80.3043 112.22C81.2103 111.697 82.3955 112.015 82.9185 112.921L104.608 150.487C105.131 151.393 104.813 152.579 103.907 153.102C103.001 153.625 101.816 153.307 101.293 152.401Z" fill="white"/>
<path d="M183.349 132.152C183.592 131.732 183.989 131.402 184.512 131.262C185.522 130.991 186.583 131.603 186.854 132.614L191.533 150.077C191.804 151.088 191.192 152.148 190.181 152.419C189.17 152.69 188.109 152.078 187.838 151.067L183.159 133.604C183.041 133.094 183.107 132.572 183.349 132.152Z" fill="white"/>
<path d="M188.049 149.628L209.739 112.061C210.262 111.155 211.447 110.838 212.353 111.361C213.259 111.884 213.576 113.069 213.053 113.975L191.364 151.542C190.841 152.448 189.656 152.765 188.75 152.242C187.844 151.719 187.526 150.534 188.049 149.628Z" fill="white"/>
<path d="M222.955 119.69C223.197 119.27 223.594 118.94 224.117 118.8C225.128 118.529 226.188 119.141 226.459 120.152L231.139 137.615C231.409 138.626 230.797 139.687 229.786 139.957C228.775 140.228 227.715 139.616 227.444 138.605L222.765 121.142C222.634 120.654 222.712 120.11 222.955 119.69Z" fill="white"/>
<path d="M201.265 157.258L222.954 119.692C223.477 118.786 224.662 118.468 225.568 118.991C226.474 119.514 226.792 120.699 226.269 121.605L204.58 159.172C204.057 160.078 202.872 160.395 201.966 159.872C201.06 159.349 200.742 158.164 201.265 157.258Z" fill="white"/>
</svg>
