<svg width="38" height="38" viewBox="0 0 38 38" fill="none" xmlns="http://www.w3.org/2000/svg">
<path d="M19.0001 32.2003C14.4167 32.2003 10.3651 29.8537 8.00008 26.3337C8.05508 22.667 15.3334 20.6503 19.0001 20.6503C22.6667 20.6503 29.9451 22.667 30.0001 26.3337C27.6351 29.8537 23.5834 32.2003 19.0001 32.2003ZM19.0001 6.16699C20.4588 6.16699 21.8577 6.74646 22.8892 7.7779C23.9206 8.80936 24.5001 10.2083 24.5001 11.667C24.5001 13.1257 23.9206 14.5246 22.8892 15.5561C21.8577 16.5875 20.4588 17.167 19.0001 17.167C17.5414 17.167 16.1424 16.5875 15.111 15.5561C14.0795 14.5246 13.5001 13.1257 13.5001 11.667C13.5001 10.2083 14.0795 8.80936 15.111 7.7779C16.1424 6.74646 17.5414 6.16699 19.0001 6.16699ZM19.0001 0.666992C16.5925 0.666992 14.2085 1.1412 11.9842 2.06253C9.75992 2.98387 7.73886 4.33429 6.03646 6.0367C2.59829 9.47487 0.666748 14.138 0.666748 19.0003C0.666748 23.8626 2.59829 28.5258 6.03646 31.964C7.73886 33.6664 9.75992 35.0168 11.9842 35.9381C14.2085 36.8595 16.5925 37.3337 19.0001 37.3337C23.8624 37.3337 28.5255 35.4021 31.9637 31.964C35.4019 28.5258 37.3334 23.8626 37.3334 19.0003C37.3334 8.86199 29.0834 0.666992 19.0001 0.666992Z" fill="#03045E"/>
</svg>
