<svg xmlns="http://www.w3.org/2000/svg" viewBox="0 0 172.63 169.73"><defs><style>.cls-1{fill:#2d1b0e;}.cls-2{fill:#8c500a;}.cls-3{fill:#4c2613;}.cls-4{fill:#b77023;}.cls-5{fill:#96520f;}.cls-6{fill:#412815;}.cls-7{fill:#9e600f;}.cls-8{fill:#cc9113;}.cls-9{fill:#6b2613;}.cls-10{fill:#8e4a00;}.cls-10,.cls-26{opacity:0.3;}.cls-11{opacity:0.2;}.cls-12{fill:#f0a41d;}.cls-13{fill:#a8621d;}.cls-14{fill:#fac413;}.cls-15{fill:#f0b71d;}.cls-16{fill:#bc731f;}.cls-17{fill:#8e4d13;}.cls-18{fill:#cc7b2b;}.cls-19{fill:#a8621b;}.cls-20{fill:#cbbeac;}.cls-21{fill:#665a4d;}.cls-22{fill:#b4a98f;}.cls-23{fill:#5b4c38;}.cls-24{fill:#470800;}.cls-25{fill:#44382a;}.cls-27{fill:#fff;}.cls-28{fill:#fcbc56;}.cls-29{fill:#fff4ab;}.cls-30{fill:#d68732;}.cls-31{fill:#e89449;}.cls-32{fill:#452a15;}.cls-33{fill:#2d1a0e;}.cls-34{fill:#3f362d;}.cls-35{fill:#603f29;}.cls-36{fill:#7c6c59;}</style></defs><g id="Layer_2" data-name="Layer 2"><g id="Layer_1-2" data-name="Layer 1"><path class="cls-1" d="M79.85,61.72c1.2.17,63.74,17.86,63.17,19.81s-2.52,8.51-7.9,12.16S98.3,114.06,94.23,113.94,60.94,103.2,57.76,100.51,43.14,85,47.24,81,79.85,61.72,79.85,61.72Z"/><path class="cls-2" d="M134.54,133.13c-8,7.26-20.31,15-35.36,22.94l-2.54-24.68V118l43.42-21.77Z"/><path class="cls-3" d="M105.53,153a176.11,176.11,0,0,0,29.76-19.74v-.62a240.7,240.7,0,0,1-29.91,19.85Z"/><path class="cls-4" d="M135.23,118.57l.11-2.14s-3.83,2.59-4.64,2.94-2,1.54-2.84,1.71a6.25,6.25,0,0,0-3.16,1.17c-1.13,1-1,1.7-3.08,2.62a28.56,28.56,0,0,0-4.3,2.22c-1.45.89-1.62.93-3.48,2a16.8,16.8,0,0,1-3.33,1.69c-2,.81-7,2.75-7.29,3.16a40.38,40.38,0,0,1-4.46,2.35l.07,2.77s3.33-.9,5-1.55,2.92-1.34,4.37-1.81,5.68-2.08,6.65-2.57,2.31-2.41,3.47-3,2.69-1.23,3.83-2,3.65-1.94,4.7-2.59,1.3-1.33,2.35-2.08,2.35-1.65,2.92-2S135.23,118.57,135.23,118.57Z"/><path class="cls-2" d="M98.76,137.47s-.49-.08,3.49-1.3,6.89-2.84,10.13-4a40.57,40.57,0,0,0,8.67-4.4c1.38-1.12,4.46-4.28,6.25-4.6s8-5.67,8-5.67l.73-14.68L98.43,122.85Z"/><path class="cls-3" d="M98.76,137.22a1.72,1.72,0,0,0,0,.43c.06.33-.06.12,1.11-.21s1.85-.47,3.19-.93,1.72-.51,3-1a17.15,17.15,0,0,0,2.5-1.15,16.47,16.47,0,0,1,2.71-1.24c1-.37,2.5-.91,2.83-1.07s2.4-1.45,3-1.61.8-1,2.18-1.5a19.23,19.23,0,0,0,4.08-2.51,20.14,20.14,0,0,1,2.37-1.46,7.15,7.15,0,0,0,1.68-1.15,12.66,12.66,0,0,1,2.52-1.8,18.67,18.67,0,0,0,2.28-1.73c.52-.39,2.75-2,2.75-2.1s.36-.47.36-.47l.08-1.44a7.61,7.61,0,0,0-.76,1.06,1.18,1.18,0,0,1-.67.7c-.42.21-.64.79-1,1.1a4.61,4.61,0,0,1-1.55.51c-.09,0-.46-.39-.46-.39l-.27,1c-.12.46.33.24-.37.82s-1.61.79-1.88,1.17-.88.53-2.07,1a4.67,4.67,0,0,0-2,1.16c-.52.51-.58.51-1,.94a3.35,3.35,0,0,1-1.27.94,10.12,10.12,0,0,1-1.43.46,2.31,2.31,0,0,0-1.38,1,5,5,0,0,1-.87.9c-.18.09-1.31.64-1.7.79a4.6,4.6,0,0,1-1.59-.12s.2-.14,0,.38a2.13,2.13,0,0,1-.76.87,9.82,9.82,0,0,1-2.13,1.49c-.76.27-1.89.48-2.65.79a8,8,0,0,0-2.19,1.21,9.44,9.44,0,0,1-2.16.88,17.17,17.17,0,0,1-2.21.73c-.34.12-3.08.7-3.17.79a7.09,7.09,0,0,1-1,.37Z"/><path class="cls-5" d="M98.87,140.57c2-.67,4.53-1.52,6.42-2.07a30.85,30.85,0,0,0,4.43-1.76c2.44-1,4.08-1.77,5.78-2.43s1-.73,2.86-2.25,1.15-1.46,3.4-2.31,3.16-1.07,4.38-2a29.31,29.31,0,0,1,4.07-2.85c1.22-.6,5.15-5.32,5.19-4.75a15.87,15.87,0,0,1-.32,2.15c-.06.49-1.52.91-1.89,1.88a5.14,5.14,0,0,1-1.46,2.62c-1,.85-1.52.6-2.18,1.46s0,1.76-2.19,2.73-.92.06-3.53,1.1-2.13.66-3.59,2.25a7,7,0,0,1-3.89,2.43c-1.46.36-3.1.21-4.68,1.08s-2.13,1.71-3.34,2.38-2.68.49-3.71.91a11.72,11.72,0,0,0-3.65,2.07c-1,1-2.8,1.28-2.92,1A27.12,27.12,0,0,1,98.87,140.57Z"/><path class="cls-5" d="M98.35,147.92a20.16,20.16,0,0,0,2.68-2.85c.91-1.16.91-1.52,3-1.83s4.13-.18,6-.85,1.15-1.28,3.59-2a22.07,22.07,0,0,0,5.61-2.13,33.8,33.8,0,0,0,4.66-3.1,36,36,0,0,0,3.53-2.56c1.15-1,3.22-2.92,2.79-1.82s-2.12,2.11-3,3.12a8.44,8.44,0,0,1-2.55,2.47,49.35,49.35,0,0,1-4.56,2.65c-1.34.76-3.16,1.79-4.32,2.58s-3.16,1.34-4.19,2-1.5,1.4-2.64,1.58-3.44-.73-4.41.18-1.89,3.28-3.83,4.2S98.35,147.92,98.35,147.92Z"/><path class="cls-5" d="M101.88,151.61c.85-.71,1.7-3.21,3-3.69a43.2,43.2,0,0,0,4.86-1.58,32.39,32.39,0,0,0,4.59-2.43c2.41-1.4,3.25-1.4,5.41-2.8a30.68,30.68,0,0,0,4.11-2.85c1.09-1,.55-1.22,2.61-2.43a11.58,11.58,0,0,0,3.35-2.56,26.68,26.68,0,0,0,2.19-2.43c.67-.91,1.17-3,2-3.51s1.41-.83,1.47-.24.19,2.46-.46,3-2.47,2.2-3.38,3.23-.79.79-3.1,2.62-3,2.52-4,3.23-1.89.9-3.83,2.24-2.12,1.5-4,2.88a34.62,34.62,0,0,1-4.32,3.14c-1.58.85-4.62,1.46-5.47,1.94s-1.83.82-2.07,1.32S101.88,151.61,101.88,151.61Z"/><path class="cls-5" d="M97.71,126.76c1.08-.91,2.5-2.55,4.27-4a16.27,16.27,0,0,1,5.54-3c2.73-1,4.11-1.09,7.7-2.43s3.58-1.15,5.76-2.67a32.44,32.44,0,0,0,5.38-4.8c1.61-1.71,5.41-3,6-3.3s3.52-.9,3.68-.6a8.52,8.52,0,0,1-.21,2.43c-.09.37-1.83,1.46-3.22,2.74a18.11,18.11,0,0,1-6.08,2.92,19.34,19.34,0,0,0-4.32,1.58c-1.22.67-.31.3-2.47,1.64s-2.4,2-4.52,2.49-3.71.67-5.35,1.1a10.14,10.14,0,0,0-4.08,1.7c-1.27,1-1.36,1-3.19,2.3a23.47,23.47,0,0,1-4.87,2.46Z"/><path class="cls-5" d="M98.35,132.6c.32-.11,3.84-.79,5.11-1.67s4.52-2.42,5.51-3.84.94-2.09,3.19-3.36,2.84-1.16,5.06-2.31a21.52,21.52,0,0,0,5.15-3.41,8.84,8.84,0,0,1,4.5-2.25c1.88-.49,5.59-1.76,6.38-2.43s2.81-3,2.81-3a6.85,6.85,0,0,1,0,2.61c-.31.73-1.29.73-3.84,2.25a81.57,81.57,0,0,1-7.66,3.77c-1.22.55-1.58.25-3.16,1.52s-2.91,2.74-4.68,3.41-2.13.18-3.35,1.52a41,41,0,0,1-4.4,4.07,13.92,13.92,0,0,1-3.38,2.43,20.22,20.22,0,0,1-4.24,1.46c-1.29.37-3.31,1-3.31,1Z"/><path class="cls-5" d="M114.31,126.77c.46-.31,2.63-1.46,4.92-2.56s2.78-1.48,3.69-2.47.12-1,3.83-2.51a44.34,44.34,0,0,0,6.63-3.19c.91-.52,2.64-1.71,2.64-1.71s.33.76,0,.94l-2,1.16c-.6.36-2.06,1.58-3,2.19s-2.85.81-4.74,1.93-2.67,1.41-3.28,2.14a8.87,8.87,0,0,1-3.26,2.68A23.19,23.19,0,0,1,114.31,126.77Z"/><polygon class="cls-6" points="69.41 74.56 70.14 113.82 16.63 99.27 8.45 82.03 30.13 72.78 69.41 74.56"/><polygon class="cls-6" points="70.14 66.45 69.41 74.56 20.88 86.66 12.67 82.83 13.8 77.96 68.31 65.78 70.14 66.45"/><path class="cls-7" d="M13.15,122.21c16.92,12.06,42.46,22.65,69.54,33l5.85-20.44-1.81-18.66L6.44,85.2v17.73Z"/><path class="cls-7" d="M85,135a364,364,0,0,1-78.56-32.1l6.72,19.28c17.66,12,41.82,22.82,69.55,33Z"/><polygon class="cls-8" points="6.44 101.27 86.45 134.55 83.64 137.47 54.91 127.13 19.24 111.61 6.44 105.53 6.44 101.27"/><path class="cls-7" d="M6.18,86l.06,15.8s2.09,1.06,2.66,1.47,2.15,1.25,2.92,1.7a31.16,31.16,0,0,0,2.71,1.66,20.43,20.43,0,0,0,2.35.93A6,6,0,0,1,19.07,109c.61.45,6.61,3,7,3.12l9.61,4s6.12,2.24,6.24,2.4,3.47,2.07,3.47,2.07,3.3,1,3.46,1.12l5.07,2.63,4.62,1.54,4.66,1.22,7.14,2.27,10.9,4.38,4.34,1.74a51.8,51.8,0,0,1,.28-6.69c.37-2.07.45-12.78.45-12.78Z"/><path class="cls-9" d="M6.42,101.27s3.9,2.64,5.48,3.49a32.4,32.4,0,0,0,4.69,2.43c1,.24,2.63-.6,2.85-.51s-1,1.12,0,2,3.89,1.82,5.59,2.67,2.8,1,5.47,2.07,2.31.73,6.2,2.43,4.54,1.4,6.16,2.65,3.45,2.56,4.54,1.72.53-1.69,1.49-.72,1,2.19,2.53,3.16a33.16,33.16,0,0,0,8.75,3.28,84,84,0,0,1,9.24,2.56c3.53,1.21,7.18,3.16,10.1,4.13s6.22,2.46,6.22,2.46l2-.75-.94,1.35a19.91,19.91,0,0,1-2.77-.25c-.58-.18-6.31-2.64-7.6-3.21s-4.87-1.79-6.57-2.6-4.86-1.37-6.89-2-5.35-1.46-6.81-2a49.72,49.72,0,0,1-5.92-2.51c-.73-.49-2.94-1.7-2.94-1.7s-4.31-2-5.89-2.62-6.69-2.55-8.64-3.34-4.8-1.77-6.2-2.56-5.41-2.19-6.63-3-1.33-1.09-2.73-1.88-3.95-1.4-4.44-1.7-4.5-2.74-4.87-3-1.92-1-1.92-1Z"/><path class="cls-10" d="M8.85,109.9s1.34.09,9.13,3.25,11.18,4.35,15.56,7a74,74,0,0,0,12.16,5.48c1.1.37,7.78,3.38,7.78,3.38s-.6.15,2.8,2.09,7.66,2.19,9.49,3,15.62,6,17.14,5.84,3.69,1.34,3.41,2.32-.87,2.46-2.44,2.38-4.62-1.17-8-2.75-6.81-2.68-11-4.5-11.91-2.68-14-4.62-6.44-6-9.61-7.18-8.87-3.06-14.22-5.48-7.06-4-8.64-4.73a14.85,14.85,0,0,0-5.1-1.34c-2.19-.24-3.94-2.58-3.94-2.58Z"/><path class="cls-10" d="M10.76,115.36c2-.15,2.84-.39,6.49,1.31s6,2.9,6.2,3.52-.61,0-2.92-.82a46.49,46.49,0,0,0-6.93-1.52,18.42,18.42,0,0,0-2.12,0Z"/><path class="cls-10" d="M79.39,145.25c-2.19-1.22-5-1-7.67-1.7s-3.4-1.46-6.44-3.16-3.77-2.19-7.3-2.92-5.47-.61-8-1.22-2.19-2.31-3.06-3.4a18.24,18.24,0,0,0-5.21-3.8c-1.7-.75-5.59-2.89-8.76-4.47s-3.52-.85-7.54-1.46-3.89-1.34-6.32-2.67-6.68-.41-6.77-.26l.84,2s5.44,1,6.17,1.88a19.59,19.59,0,0,0,4.18,2.8,57.52,57.52,0,0,1,5.67,3.77,15.63,15.63,0,0,0,6.57,2.19A14.2,14.2,0,0,1,43,135.6a10,10,0,0,0,4.57,2.72c2.26.73,4.3.85,8.07,1.94a58.61,58.61,0,0,1,9.85,3.89A46.56,46.56,0,0,1,72,147.92c1.7,1.22,11.14,3.54,11.14,3.54l1.37-2.74A52.29,52.29,0,0,0,79.39,145.25Zm-41.71-15.2c-1.22.49-4,1.22-5.48,0s-4.37-4.38-4.37-4.38c.36,0,3,1.1,4.62,1.64S38.89,129.56,37.68,130.05Z"/><path class="cls-10" d="M6.23,98.92s6.14,3.53,8.4,4.62,6.75,1.58,7.36,2.07-1,1.08,1.5,2.85,8.59,2.38,11.27,3.47,3.16,1.46,6.2,2.55,6.69.49,10,2.19,5.35,4.87,5.84,5.11,0-3.53-2.07-5-4.86-1.82-8.45-3a58,58,0,0,1-9.79-3.85c-2.92-1.62-5-2.1-7.78-3.56s-3.41-2.19-5.84-3.41-6.45-.73-8.21-2.19S6,96,6,96Z"/><path class="cls-10" d="M87.78,132.12c-2.12-1.2-.61-2.74-8.64-3.93s-13.13-2.88-15.2-4.46-4.62-2.38-5.35-4-1.09-3.67-4.74-5-10.09-2.56-12.28-4-5.72-3.16-7.66-4.74-10.42-5-10.42-5,7.57,1.7,9.36,2.79,2.64,1.46,7.38,2.92,8.88,3.77,12.4,5.11,6.2.24,8.64,4,3.89,6.08,6.68,7.3,6.45,1.46,11,2.55,8.39,1.64,8.39,1.64Z"/><path class="cls-10" d="M6.42,91.87c1,.24,11.19,4.13,14.23,5.47s5.47,2.19,13.26,4.5S43.39,104.27,49,107s8.51,2.55,11.79,4.37,1.58,1.83,6.57,5.23,6.68,6.57,11.43,7.18a71.84,71.84,0,0,0,8.14.6s-3-3.67-3.28-4.14-8.75-2.34-12.28-4.93S63.94,111,58,108.1s-15.2-5.78-18.24-7.11-5-1.95-13.86-4.38-11.25-4.54-11.25-4.54L8.05,90.65Z"/><path class="cls-11" d="M11.81,98.8l15.26,6.9,4.84,4.4,3.35,3.05,11.58,4.7,4.67-1.54s10.83,3.29,12.3,4.14,16.66,6.44,19.7,6.86,7.4-7.57,7.4-7.57S25.05,93.63,23.06,93.3s-11.25-1.65-11.25-1.65Z"/><path class="cls-9" d="M15.13,123.6c-.91.32,21,12.63,26.79,14.78,4.89,1.81,13.19,6.18,17,7.8s23.77,9,23.77,9,.8-1.18.15-1.3-21.21-6.88-24-8.78-12.77-5.19-16.65-7.62a68.88,68.88,0,0,0-11-5.35,124.63,124.63,0,0,1-12.83-7.06c-1.09-.92-3.26-2.44-3.26-2.44Z"/><path class="cls-11" d="M15.75,99.77l1.37,24.08-2-.25s-2.46-6.32-2.46-7S12.5,98.8,12.5,98.8Z"/><polygon class="cls-12" points="83.52 122.39 84.65 156.6 93.9 160.49 92.6 121.74 83.52 122.39"/><polygon class="cls-13" points="99.25 156.11 93.9 160.49 92.6 121.74 98.43 122.85 99.25 156.11"/><polygon class="cls-14" points="84.37 147.92 80.28 150.52 93.72 155.3 93.57 150.67 84.37 147.92"/><polygon class="cls-15" points="99.05 147.92 103.46 149.95 93.72 155.3 93.57 150.67 99.05 147.92"/><polygon class="cls-16" points="108.97 159.84 103.46 149.95 93.72 155.3 93.92 169.73 108.97 159.84"/><polygon class="cls-15" points="80.28 150.52 78.17 162.11 93.92 169.73 93.72 155.3 80.28 150.52"/><polygon class="cls-17" points="143.35 96.24 141.83 128.47 137.02 131.39 138.6 98.19 143.35 96.24"/><polygon class="cls-13" points="136.23 98.43 134.5 133.22 136.6 133.9 138.6 98.19 136.23 98.43"/><polygon class="cls-18" points="145.16 121.08 142.22 120.08 137.18 123.47 140.56 124.42 145.16 121.08"/><polygon class="cls-19" points="146.67 130.74 145.16 121.08 140.67 124.42 139.38 136.74 146.67 130.74"/><polygon class="cls-16" points="135.4 135.52 137.18 123.47 140.67 124.42 139.38 136.74 135.4 135.52"/><polygon class="cls-12" points="4.24 89.07 7.15 120.28 12.67 124.33 11.21 92.25 4.24 89.07"/><polygon class="cls-19" points="13.64 94.42 15.13 123.6 12.51 124.58 11.21 92.25 13.64 94.42"/><polygon class="cls-14" points="3.42 112.9 6.41 112.33 12.26 115.33 8.45 116.31 3.42 112.9"/><polygon class="cls-16" points="14.13 127.09 12.26 115.33 8.45 116.31 11.21 127.74 14.13 127.09"/><polygon class="cls-15" points="3.42 112.9 2.78 122.63 11.21 127.74 8.45 116.31 3.42 112.9"/><path class="cls-20" d="M66.82,65.24.59,78.86c22,12.43,53.58,23.61,90.71,34L148,87.12l-9.73-.73c-13.26,6.75-28.95,12.84-46,19.7a15.25,15.25,0,0,1-8.75-.48A509.21,509.21,0,0,1,16.15,81.77c-1.49-.59-1.26-1.3,1.22-2.18,10-3.1,31.83-8.19,52.77-13.14Z"/><polygon class="cls-21" points="146.91 96.93 147.97 87.12 91.3 112.9 90.49 127.09 146.91 96.93"/><path class="cls-22" d="M0,79.1V90.77c21.48,12.57,54,24.53,90.2,36.32l.66-14.19C54.87,103,23.62,91.74,0,79.1Z"/><polygon class="cls-23" points="53.08 96.23 49.99 93.17 41.31 97.04 41.88 112.9 46.53 115.33 50.27 113.38 45.1 111.59 45.1 98.56 53.08 96.23"/><polygon class="cls-20" points="33.02 87.45 50.17 93.17 41.41 97.04 25.82 90.96 33.02 87.45"/><polygon class="cls-24" points="41.92 112.9 27.5 107.31 32.12 110.1 46.55 115.33 41.92 112.9"/><polygon class="cls-22" points="25.82 90.96 27.5 107.31 41.92 112.9 41.41 97.04 25.82 90.96"/><path class="cls-23" d="M32,107l3.43,1.21v-3.32c2.15-.37,2.32-3.34,1.75-4.42C36.25,97.83,33.71,96,31.47,97c-2.11,1.35-1.28,4.24.53,6Z"/><path class="cls-25" d="M34.92,101.43l-3,1.66L32,107l3.43-1.67v-.44c2.15-.24,2.6-2.41,1.75-4.42Z"/><polygon points="25.34 85.58 69.79 74.56 69.79 76.18 26.39 85.99 25.34 85.58"/><polygon class="cls-11" points="83.61 124.87 90.3 127.11 92.34 125.96 92.34 129.68 85.66 127.09 83.61 124.87"/><polygon class="cls-26" points="92.64 129.75 98.45 126.19 100.03 124.19 135.4 104.45 138 104.45 143.02 101.75 143.22 98.8 92.76 125.91 92.64 129.75"/><path class="cls-27" d="M27.18,73.39.59,78.86l-.25.24s-.36.14.39.61A22.26,22.26,0,0,0,3.57,81c1.23.53,1.82,1,2.77,1.4s7.87,4.66,10.3,5.43,4.5,2.37,5.71,2.56a23.45,23.45,0,0,1,3.47,1l.64-.73a14.75,14.75,0,0,0-2.34-1.09c-1.21-.43-5.05-2.57-6.14-2.9s-5-2.94-6.08-3.37-2.62-1-3.83-1.53-4.33-1.1-4.57-1.49A7.86,7.86,0,0,0,2.11,79.1a27.17,27.17,0,0,0,2.79-.31c.31-.12,2.62-.66,4.75-1.15S27.18,73.39,27.18,73.39Z"/><path class="cls-27" d="M47.62,97.88l4.1,1.61s-.78-.63,4.69,1.76,7.05,2.25,9,3a49.22,49.22,0,0,0,6.2,2.09c1.71.37,5.72.49,6.57,1.16s7.17,2.37,8.75,3.22,4,1,4.75,1.34,11.18-4.86,12.52-5.59S114.87,101,118.36,100a124,124,0,0,0,12.26-5l8-3.63-9.93,5.39c-.89.49-6.93,2.6-10.31,4.62s-7.2,3.16-9.63,4.3-6.65,3.46-8,3.8-8.19,3.74-8.52,3.82-.24,1.78-.4,3.08a42.33,42.33,0,0,0-.67,4.74c.1.74-.21,5.87-.21,5.87H89.84s.89-6.36.65-7.9a49.49,49.49,0,0,1-.32-5.23c0-.58.73-.66-1.46-1.61s-5.06-1.43-8.15-2.34-8.15-2.08-9.36-2.42-6.89-1.71-9.14-2.68-9-2.43-9.85-2.89a21.36,21.36,0,0,1-3.41-1.85,15,15,0,0,0-3.22-1.52Z"/><path class="cls-28" d="M92.72,127.33a20.61,20.61,0,0,0-.32,2.35c-.08,1.18.2,1.5.16,3.41s0,2.88,0,5.35a32.81,32.81,0,0,0,.21,5.27,35.26,35.26,0,0,1,.37,5.8c-.17.72-.07,1.13,0,1s0,.16.16.18,1.29-.38,1.26-.75c-.07-.63.12-3.16-.17-6.08s-.28-4.17-.52-7-.65-5.31-.57-6.24a23.75,23.75,0,0,0-.08-2.84Z"/><path class="cls-29" d="M80.91,150.11l2.18.73a6.27,6.27,0,0,1,1.89.77,4.78,4.78,0,0,0,2,.73c1.1.29.86.25,2.36.73a24.4,24.4,0,0,1,4.15,1.54,1.45,1.45,0,0,1,.21.69s-.07.28-.92,0-1.82-.69-3.2-1.09-1.49-.49-3.26-.94a30.33,30.33,0,0,1-4.24-1.33,8.5,8.5,0,0,1-1.91-.92l.09-.5Z"/><path class="cls-29" d="M93.16,154.73c.24-.45.56-.66.32-1.24a10.48,10.48,0,0,1,.09-2.82s.21,2.15.35,2.94a3.59,3.59,0,0,1-.2,1.69Z"/><path class="cls-29" d="M92.8,155.3a19.2,19.2,0,0,1,.36,2.64c0,1.17-.14,1.46,0,3.32s.2,2.63.32,3.69.44,4.58.44,4.58.38-4.91.3-5.88-.32-2.19-.32-3.16.46-3.24.33-3.69-.13-1.45-.27-1.63-.8-.23-.8-.23Z"/><path class="cls-29" d="M80.28,150.52a2.41,2.41,0,0,0-.41,1.09c-.12.73-.07,1.55-.19,2.2s-.94,3.07-1.07,3.72-.36,1.26-.44,2-.57,2.71,0,2.55.77-.77.77-2a10.17,10.17,0,0,1,.61-3.33,21.82,21.82,0,0,0,.64-3.08c.13-.81.65-2.59.69-2.71S80.28,150.52,80.28,150.52Z"/><path class="cls-27" d="M33,87.45s-6.75,2.89-7,3.2a1.43,1.43,0,0,0-.22.73s1.11,10.41,1.1,10.29-.23-6.16-.23-7.29-.69-2.16.12-2.13.53.77,2.35.92a10.52,10.52,0,0,1,3.53.93,32.64,32.64,0,0,1,3.93,1.54c1.06.52,3.93,1.5,4.14,1.62S41.83,110,41.83,109.9s-.43-11.91,0-12.4,1.85-.89,2.9-1.5,5.44-2.83,5.44-2.83S43.27,95.84,42.5,96s-.69.49-2,0-7.82-2.92-8.55-3.24-3.12-1.05-3.53-1.38-1-.45-.89-.73S33,87.45,33,87.45Z"/><path class="cls-27" d="M34.88,108.2s-.27-3.35,0-3.32,1.57-.34,1.7-.63a5.76,5.76,0,0,0,.54-1,6.57,6.57,0,0,0,.16-1.29,5.35,5.35,0,0,0-.49-1.78,14,14,0,0,0-.93-1.6c-.22-.27-.86-.78-.75-.8a1.54,1.54,0,0,1,.91.56,4.12,4.12,0,0,1,1,1.31,7.2,7.2,0,0,1,.52,1.65,10.25,10.25,0,0,1,0,2c0,.54,0,1.24-.52,1.54a7.11,7.11,0,0,1-1.73.8c-.09-.06,0,.85-.12,1.27S34.88,108.2,34.88,108.2Z"/><path class="cls-12" d="M58.32,69.24s-3.5.45-5.77.7a72.25,72.25,0,0,0-7.7,1.86c-2,.49-5.24.9-7.24,1.59s-4.42,1.41-6.13,1.82-5.52,1.7-8,2.27-4.66,1.46-5.63,1.62a8.25,8.25,0,0,0-2.73,1.17.88.88,0,0,0,0,.94c.17.32,1.37.72,1.37.72s-.71-.8-.51-1.17.61-.61,2.07-1.26a45.89,45.89,0,0,1,4.74-1.29c1.54-.49,5.31-1.5,6.12-1.66a38.66,38.66,0,0,0,4.3-1c1-.37,3.68-1.21,4.78-1.46s6.77-1.05,7.58-1.34,3-.94,4.09-1.22,3.57-1,4-1.18S58.32,69.24,58.32,69.24Z"/><path class="cls-14" d="M10.76,96.51s.93,2.65.53,3.63a5.66,5.66,0,0,0-.22,2.79,25.42,25.42,0,0,0,.14,2.58c.12.62,0,1.26.08,2.42s.24,2.74.32,3.39,0,3.68,0,3.68l.65.33s.33.13.24-.72a12.85,12.85,0,0,1-.2-2.6,11.13,11.13,0,0,0,.2-2.52c0-1-.52-3.15-.6-4a35.57,35.57,0,0,1-.26-4.18c.09-.65-.47-2-.13-2.47A3.55,3.55,0,0,0,11.7,97Z"/><polygon class="cls-11" points="4.51 93.18 11.7 97.01 13.96 98.05 13.96 99.09 11.51 98.8 4.83 95.26 4.51 93.18"/><path class="cls-29" d="M2.78,122.63s0-2.61,0-3.13.41-3,.44-3.53-.41-1.39-.23-2.15.3-1,.64-1.16,2.77-.49,2.77-.49l-.28-3s.52,2.62.61,2.8a4.68,4.68,0,0,0,2,1.22,20,20,0,0,1,3.22,1.92s-2.4-1.16-3.07-1.34-1.76-.83-2-.92-.79,0-1.31,0a2.72,2.72,0,0,0-1.09.16s1.64,1.24,2.13,1.58,1.9,1.67,1.9,1.67.89,3.17,1.17,4.14.21,1.42.48,2.18a19.36,19.36,0,0,1,.54,2.73c0-.1-1-2.85-1.27-3.82s-.37-3.13-.52-3.26a5.91,5.91,0,0,1-.66-1.39c0-.19,1,.39-.55-.58S5.76,115,5.06,114.48a3.8,3.8,0,0,0-1.28-.66c-.18,0-.27.57-.09,1A4.46,4.46,0,0,1,3.57,117a23.59,23.59,0,0,0-.37,3.34A18.14,18.14,0,0,1,2.78,122.63Z"/><path class="cls-5" d="M97.63,129.68c.85-.54,3.64-1.35,4.56-2.59s1.27-2.21,3.46-3.3,8.66-2.05,8.66-2.05-5.8,1.78-6.65,3.13A24.29,24.29,0,0,1,103,129.2c-.67.42-4.15,1.64-4.28,1.7a2.84,2.84,0,0,1-.72,0Z"/><path class="cls-30" d="M136.81,124.43a9.09,9.09,0,0,0,.21-2.65c-.06-1.58.6-6.07.66-7.14s.12-2.09.22-4a33.94,33.94,0,0,0-.39-4.79,11.08,11.08,0,0,1,.82-2.44,18.38,18.38,0,0,0-.17,2c0,.85,0,.41,0,1.92a19.67,19.67,0,0,1,.16,3c-.15,1.24-.21,4-.24,4.78a10.72,10.72,0,0,1-.08,1.58,58.86,58.86,0,0,0-.5,6.15,2.07,2.07,0,0,1,.08,1.09A7.05,7.05,0,0,0,136.81,124.43Z"/><path class="cls-31" d="M137.42,123.16a6.25,6.25,0,0,1,1.75.31c.61.26.85.46,1.5.26s1.26-1.14,1.7-1.4,2.79-1.25,2.79-1.25l.37,2.39c.11.64.38,2.41.38,2.41a8.27,8.27,0,0,0-.75-3c-.56-.68-1-.52-1.41-.08a13.26,13.26,0,0,1-1.82,1.42,9.39,9.39,0,0,1-.93.61s-.13,2.68-.33,3.89a8.8,8.8,0,0,0-.28,2.43,17.82,17.82,0,0,1-.69,4.26c-.23.4-.09,1.41-.33,1.34s-.36.2-.36-.53a29.69,29.69,0,0,1,.36-3.08c.17-1.18.26-2.07.36-3.38s.09-3.07.09-3.59a2.27,2.27,0,0,0-.45-1.38c-.24-.28-.93-.3-1.13-.35s-.77-.66-.85-.3a5.43,5.43,0,0,0-.21,2,15.57,15.57,0,0,1-.37,3.94c-.19.56-.73,1.17-.75,1.73s-.66,3.69-.66,3.69a11.28,11.28,0,0,1,.1-2.92,17.54,17.54,0,0,0,.56-2.5c.11-.62,0-1.71.15-2.24a5.9,5.9,0,0,0,.34-1.7,9.48,9.48,0,0,1,.19-2.07A3.86,3.86,0,0,1,137.42,123.16Z"/><path class="cls-32" d="M94.65,5l72.53,10.19L142.45,83.48S73,64.82,72.82,64.79s-2.68-4.05-2.68-4.05,11.64-29.65,12.16-33S94.65,5,94.65,5Z"/><polygon class="cls-33" points="97.62 25.36 155.62 36.33 154.87 38.47 96.5 27.54 97.62 25.36"/><polygon class="cls-33" points="94.59 42.29 148.47 53.35 147.47 54.98 93.04 44.42 94.59 42.29"/><polygon class="cls-33" points="86.32 58.13 142.45 69.65 141.03 71.45 86.02 59.6 86.32 58.13"/><path class="cls-21" d="M165.78,67.68c6.42-16.23,8.59-34.64,5.39-55.81A681,681,0,0,1,143.8,87.64C150.89,94.16,158.17,90.2,165.78,67.68Z"/><path class="cls-33" d="M168.47,31.52A80.55,80.55,0,0,1,163.16,65c-4.64,11.44-8.68,17.31-12,16A257.37,257.37,0,0,0,168.47,31.52Z"/><path class="cls-34" d="M168.47,31.52c-.73,3.12-1.54,6.27-2.42,9.43A80.29,80.29,0,0,1,161,62.71c-3,7.32-5.68,12.34-8.12,14.7-.54,1.21-1.09,2.42-1.66,3.64,3.31,1.26,7.35-4.61,12-16A80.55,80.55,0,0,0,168.47,31.52Z"/><path class="cls-20" d="M90.57,0C80,20.24,72,42.43,65.68,65.88l79.1,21.75a682.61,682.61,0,0,0,27.36-75.77C145,4.7,117.83-.15,90.57,0Zm49.49,77.31L72.82,60.74C78.34,43,87.35,19.93,94.28,6.62c21.71,0,46.88,5.16,68,10.27C157.87,34.49,147.72,60.37,140.06,77.31Z"/><path class="cls-35" d="M94,49.25c4.7-14.36,3.79-35.18.28-42.63L87.36,29.3,75.6,61.43l9.3,2.29C87.84,61.55,91.7,54.85,94,49.25Z"/><path class="cls-36" d="M95.11,13.91l-.83-7.29c18.51.14,45.41,4.09,68,10.27l-1.95,7C138.74,18,112.65,14,95.11,13.91Z"/><path class="cls-21" d="M78,62c5-16.7,11-36.7,17.12-48.11l-.83-7.29C87,21.31,77.83,43.83,72.82,60.74Z"/><path class="cls-26" d="M78,62c6-20.23,11.88-38.6,17.12-48.11,19.8.23,40.82,3.92,62.42,9.24-22.82-4-44.09-6.88-60.88-6.75C91.3,25.17,86.11,43.07,81,62.75Z"/><path class="cls-27" d="M72.82,60.74s-.81.26,0-2.61S76.14,47.64,77,45.21s4.38-10,5-11.67,2.43-6.16,2.92-7.46,2.27-6.57,3-7.86,2.51-5,3.08-6.49,2.35-5,2.59-5.43,2.27-.73,2.27-.73a8.17,8.17,0,0,0,4.46,1,57.56,57.56,0,0,1,8.59.17c1.71.24,6.49,1,8.68,1.38s4.78.32,8.1.81,7.38,1.21,8.27,1.29,7,.41,8.15,1.26,4.18.77,5.84,1.22,3,1.21,4.9,1.5,4.78.72,5.15.85l4.34,1.37-.21.45a10.33,10.33,0,0,0-3.89-1c-2,0-5.42-.1-7.05-.64a31.86,31.86,0,0,0-5.55-1.75,33,33,0,0,1-4.18-.94,33.43,33.43,0,0,0-5.06-1.25c-2-.25-4.06-.08-7.22-.65a78.86,78.86,0,0,0-8.4-.89c-1.33-.08-6.68-1.22-8.87-1.62a37.66,37.66,0,0,0-5.83-.9c-1.54,0-5.11-.16-6.41-.16s-3.73-.4-4.05-.4-.38-.27-1.11.19-.73,1.09-1,1.67S93,10,92.85,10.24a6.93,6.93,0,0,0-.82,1.4l-.55,1.49s-1.27,2.19-1.88,3.41-.06,1.21-1,2.73a26.2,26.2,0,0,0-2.24,4.65,48.43,48.43,0,0,0-1.72,4.59A23.89,23.89,0,0,1,83,32.46c-.67,1.52-1.52,3.65-1.82,4.63s-.61,1-1.1,2.67S80,40.92,79.39,43a16.55,16.55,0,0,1-1.65,4.32c-.79,1.4-1.21,4.56-1.39,5a7.59,7.59,0,0,1-1.1,3c-1.09,1.82-1.34,2.73-1.34,3.46a7.6,7.6,0,0,1-.52,2Z"/><path class="cls-27" d="M117.76,71.81l6.55,1.62a36.52,36.52,0,0,0,5.38,1.32c2,.21,4.17.34,4.81.7a19.94,19.94,0,0,0,4.1,1.1c.92.12.86,1,1.59-.43s3.4-6.82,4-8.29,3.15-7.61,3.15-7.61a34.15,34.15,0,0,1-1.64,5.26c-.91,2-1.34,4-2.37,6s-2.13,5.22-2.56,5.86-.73.15-2.19,0-4.62-1.13-7.66-1.68-8.2-1.76-8.93-2S117.76,71.81,117.76,71.81Z"/><path class="cls-27" d="M172.14,11.86a2.21,2.21,0,0,1,0,2.05c-.5,1.37-1.43,2.7-1.69,3.54a45.47,45.47,0,0,1-1.08,6c-.85,2.67-2.92,8.39-3.53,10.82s-3.46,9.3-3.89,10.7-2.49,6.75-2.92,8-4.92,13.14-5.29,14.29-.54,3.53-1.58,4.93-2.25,6.14-3.28,8-3.41,7-3.53,7.5-.54.9-1,.46,0-.84.19-1.88a48.81,48.81,0,0,1,2.56-6.87c1-2.31,3.3-6.32,4.11-8.63s1.54-4.08,2.21-6.39a44.75,44.75,0,0,1,2.92-6.81c.67-1.27,3.89-8.51,4.25-11.24s2.19-5.9,2.62-7S167.55,26.2,167.91,25A23.94,23.94,0,0,0,169,20.55c.25-1.95,1.77-4.81,1.89-5.66A16.23,16.23,0,0,1,172.14,11.86Z"/><polygon points="68.41 66.75 140.4 86.48 137.9 86.39 68.41 67.71 68.41 66.75"/><polygon class="cls-1" points="69.41 74.56 69.14 67.71 138.45 86.39 127.79 91.38 69.41 74.56"/><polygon class="cls-1" points="69.58 83.48 69.41 74.56 127.79 91.38 115.81 96.56 69.58 83.48"/><polygon points="69.79 76.18 126.21 92.07 127.79 91.38 69.41 74.56 69.14 76.22 69.79 76.18"/><polygon points="69.6 84.7 112.12 98.08 114.24 97.21 69.58 83.48 69.6 84.7"/><polygon points="69.58 93.3 99.74 103.09 101.17 102.52 69.79 92.07 69.58 93.3"/><polygon points="69.58 83.48 41.31 90.22 42.61 90.65 69.6 84.7 69.58 83.48"/><polygon points="69.79 92.07 54.81 96.74 56.94 97.46 69.58 93.3 69.79 92.07"/></g></g></svg>