<svg xmlns="http://www.w3.org/2000/svg" xmlns:xlink="http://www.w3.org/1999/xlink" viewBox="0 0 143.61 134.01"><defs><style>.cls-1{fill:#8e4d13;}.cls-2{fill:#a8621d;}.cls-3{fill:#cc7b2b;}.cls-4{fill:#a8621b;}.cls-5{fill:#bc731f;}.cls-6{fill:#d68732;}.cls-7{fill:#e89449;}.cls-8{fill:#8c500a;}.cls-25,.cls-9{fill:#858585;}.cls-10{fill:#b77023;}.cls-11{fill:#6b2613;}.cls-12{fill:#96520f;}.cls-13{fill:#9e600f;}.cls-14{fill:#cc9113;}.cls-15{fill:#8e4a00;}.cls-15,.cls-26{opacity:0.3;}.cls-16,.cls-25{opacity:0.2;}.cls-17{fill:#f0b71d;}.cls-18{fill:#f0a41d;}.cls-19{fill:#fac413;}.cls-20{fill:url(#linear-gradient);}.cls-21{fill:url(#linear-gradient-2);}.cls-22{fill:#5b4c38;}.cls-23{fill:#cbbeac;}.cls-24{fill:#b4a98f;}.cls-27{fill:#fff4ab;}.cls-28{fill:#fcbc56;}.cls-29{fill:#fff;}.cls-30{fill:url(#linear-gradient-3);}.cls-31{fill:#c48802;}.cls-32{fill:url(#linear-gradient-4);}.cls-33{fill:url(#linear-gradient-5);}.cls-34{fill:url(#linear-gradient-6);}.cls-35{fill:url(#linear-gradient-7);}.cls-36{fill:#703908;}.cls-37{fill:#422208;}</style><linearGradient id="linear-gradient" x1="0.32" y1="55.78" x2="143.24" y2="55.78" gradientUnits="userSpaceOnUse"><stop offset="0.08" stop-color="#ffe52c"/><stop offset="0.14" stop-color="#ffe530"/><stop offset="0.2" stop-color="#ffe73c"/><stop offset="0.26" stop-color="#ffe950"/><stop offset="0.32" stop-color="#ffed6c"/><stop offset="0.34" stop-color="#ffee79"/><stop offset="0.37" stop-color="#ffed71"/><stop offset="0.43" stop-color="#ffe95b"/><stop offset="0.49" stop-color="#ffe338"/><stop offset="0.57" stop-color="#ffda07"/><stop offset="0.58" stop-color="#ffd900"/><stop offset="0.83" stop-color="#ffd422"/><stop offset="1" stop-color="#ffd03b"/></linearGradient><linearGradient id="linear-gradient-2" x1="43.86" y1="59.74" x2="47" y2="109.11" gradientUnits="userSpaceOnUse"><stop offset="0" stop-color="#dbad00"/><stop offset="1" stop-color="#dbad00"/></linearGradient><linearGradient id="linear-gradient-3" x1="12.04" y1="102.95" x2="79.76" y2="102.95" xlink:href="#linear-gradient-2"/><linearGradient id="linear-gradient-4" x1="0.32" y1="55.45" x2="89.06" y2="55.45" xlink:href="#linear-gradient-2"/><linearGradient id="linear-gradient-5" x1="75.91" y1="41.76" x2="119.97" y2="41.76" xlink:href="#linear-gradient-2"/><linearGradient id="linear-gradient-6" x1="0.32" y1="20.3" x2="48.7" y2="20.3" xlink:href="#linear-gradient-2"/><linearGradient id="linear-gradient-7" x1="7.95" y1="50" x2="76.69" y2="50" xlink:href="#linear-gradient"/></defs><g id="Layer_2" data-name="Layer 2"><g id="Layer_1-2" data-name="Layer 1"><polygon class="cls-1" points="139.37 51.14 137.44 94.68 131.32 98.62 133.33 53.77 139.37 51.14"/><polygon class="cls-2" points="130.31 54.09 128.1 101.09 130.77 102.01 133.33 53.77 130.31 54.09"/><polygon class="cls-3" points="141.69 84.69 137.94 83.34 131.52 87.92 135.82 89.21 141.69 84.69"/><polygon class="cls-4" points="143.61 97.74 141.69 84.69 135.97 89.21 134.31 105.85 143.61 97.74"/><polygon class="cls-5" points="129.25 104.2 131.52 87.92 135.97 89.21 134.31 105.85 129.25 104.2"/><path class="cls-6" d="M131.05,89.21a13.36,13.36,0,0,0,.27-3.57c-.08-2.14.76-8.2.83-9.64s.15-2.83.29-5.36a50.32,50.32,0,0,0-.5-6.47,16,16,0,0,1,1-3.3,27.26,27.26,0,0,0-.21,2.73c0,1.15,0,.56,0,2.59s.41,2.42.21,4.11-.27,5.36-.31,6.47a17.34,17.34,0,0,1-.09,2.13c-.14,1.17-.84,7.7-.64,8.3a2.94,2.94,0,0,1,.1,1.48A7.59,7.59,0,0,0,131.05,89.21Z"/><path class="cls-7" d="M131.82,87.5a8,8,0,0,1,2.23.42c.78.35,1.09.62,1.91.35s1.61-1.54,2.17-1.89,3.56-1.69,3.56-1.69.34,2.36.47,3.23.48,3.26.48,3.26-.24-3.13-.95-4.06-1.33-.71-1.8-.11a18.69,18.69,0,0,1-2.32,1.92,13.6,13.6,0,0,1-1.19.82s-.16,3.61-.42,5.25a13,13,0,0,0-.36,3.29,24.91,24.91,0,0,1-.87,5.75c-.29.54-.12,1.9-.42,1.81s-.46.27-.46-.71.26-2.58.46-4.17.33-2.79.45-4.57.12-4.13.12-4.85a3.29,3.29,0,0,0-.57-1.86c-.31-.38-1.19-.41-1.44-.48s-1-.89-1.09-.39a7.84,7.84,0,0,0-.26,2.73,22.6,22.6,0,0,1-.47,5.33c-.25.75-.94,1.57-1,2.34s-.84,5-.84,5a16.22,16.22,0,0,1,.12-3.94,25.89,25.89,0,0,0,.72-3.38c.14-.84,0-2.31.18-3a8.77,8.77,0,0,0,.45-2.3,13.3,13.3,0,0,1,.23-2.79A5.19,5.19,0,0,1,131.82,87.5Z"/><path class="cls-8" d="M130.22,98.51c-7.76,7-20.1,14.5-34.7,22.25L92.64,96.82v-13l42.52-21.11Z"/><path class="cls-9" d="M102,117.73a201.28,201.28,0,0,0,28.76-19.14V98a217.09,217.09,0,0,1-28.95,19.25Z"/><path class="cls-10" d="M130.89,84.39l.1-2.07s-3.71,2.51-4.49,2.84-2,1.5-2.75,1.66A6,6,0,0,0,120.68,88c-1.1.92-.94,1.64-3,2.54a27.65,27.65,0,0,0-4.16,2.15c-1.42.87-1.58.9-3.38,1.91a16.86,16.86,0,0,1-3.23,1.63c-2,.79-6.76,2.67-7.07,3.07a40.56,40.56,0,0,1-4.33,2.28l.07,2.68s3.24-.88,4.89-1.51,2.83-1.29,4.24-1.75,5.5-2,6.45-2.49,2.24-2.33,3.36-2.9a40.63,40.63,0,0,0,3.71-1.9c1.1-.7,3.54-1.88,4.56-2.51s1.26-1.29,2.28-2,2.28-1.6,2.83-2S130.89,84.39,130.89,84.39Z"/><path class="cls-8" d="M95.52,102.71s-.47-.07,3.38-1.25,6.69-2.75,9.83-3.93a39.84,39.84,0,0,0,8.41-4.26c1.34-1.09,4.33-4.16,6.06-4.47s7.74-5.5,7.74-5.5l.71-14.23L95.21,88.54Z"/><path class="cls-11" d="M95.56,102.48a1.88,1.88,0,0,0,0,.41c.07.33,0,.12,1.09-.2s1.79-.46,3.09-.9,1.66-.5,2.87-1a17.17,17.17,0,0,0,2.43-1.12,15.39,15.39,0,0,1,2.62-1.2c1-.36,2.42-.89,2.75-1s2.32-1.42,2.85-1.57.78-1,2.12-1.45a18.61,18.61,0,0,0,4-2.44,19.77,19.77,0,0,1,2.3-1.41,6.89,6.89,0,0,0,1.62-1.12,12.19,12.19,0,0,1,2.45-1.74A18.56,18.56,0,0,0,128,86c.5-.38,2.67-1.92,2.67-2s.35-.45.35-.45l.07-1.4a7.23,7.23,0,0,0-.73,1,1.17,1.17,0,0,1-.65.68c-.41.2-.62.76-1,1.06a4.55,4.55,0,0,1-1.51.5c-.09,0-.44-.38-.44-.38s-.15.56-.26,1,.32.23-.36.79-1.56.77-1.83,1.14-.85.52-2,1a4.57,4.57,0,0,0-1.92,1.12c-.5.5-.56.5-1,.91a3.3,3.3,0,0,1-1.24.92,9.91,9.91,0,0,1-1.38.44,2.21,2.21,0,0,0-1.34.93,5.42,5.42,0,0,1-.84.87c-.18.08-1.27.62-1.66.76a4.27,4.27,0,0,1-1.53-.12s.19-.13,0,.38a2,2,0,0,1-.73.84,8.94,8.94,0,0,1-2.07,1.44c-.74.26-1.83.47-2.56.76a8.12,8.12,0,0,0-2.13,1.18c-.64.53-1.62.59-2.09.86a19.83,19.83,0,0,1-2.15.71c-.33.11-3,.67-3.07.76a6.69,6.69,0,0,1-1,.36Z"/><path class="cls-12" d="M95.63,105.73c2-.66,4.39-1.48,6.22-2a29.39,29.39,0,0,0,4.31-1.71c2.35-1,4-1.71,5.6-2.36s.94-.71,2.77-2.18,1.12-1.42,3.3-2.24,3.07-1,4.25-2a26.57,26.57,0,0,1,4-2.77c1.18-.58,5-5.16,5-4.61a13.5,13.5,0,0,1-.32,2.08c-.05.49-1.47.89-1.82,1.83a5.09,5.09,0,0,1-1.42,2.54c-.94.82-1.47.59-2.12,1.41s0,1.71-2.13,2.66-.88,0-3.41,1.06-2.07.65-3.48,2.18a6.79,6.79,0,0,1-3.78,2.36c-1.41.35-3,.21-4.54,1s-2.06,1.67-3.24,2.32-2.59.47-3.6.88a11.29,11.29,0,0,0-3.53,2c-1,.94-2.72,1.24-2.83,1A25.71,25.71,0,0,1,95.63,105.73Z"/><path class="cls-12" d="M95.13,112.85a18.52,18.52,0,0,0,2.59-2.77c.89-1.12.89-1.47,3-1.76s4-.18,5.78-.83,1.12-1.24,3.48-1.95a20.82,20.82,0,0,0,5.44-2.06,30.36,30.36,0,0,0,4.52-3A33.74,33.74,0,0,0,123.31,98c1.12-1,3.13-2.83,2.72-1.77s-2.07,2-2.89,3a8.33,8.33,0,0,1-2.48,2.39,49.67,49.67,0,0,1-4.42,2.57c-1.3.74-3.07,1.74-4.19,2.5s-3.06,1.3-4.07,2-1.45,1.36-2.55,1.53-3.34-.7-4.29.18-1.82,3.18-3.71,4.07S95.13,112.85,95.13,112.85Z"/><path class="cls-12" d="M98.55,116.43c.83-.68,1.65-3.12,2.89-3.58a44.07,44.07,0,0,0,4.72-1.53A30.9,30.9,0,0,0,110.6,109c2.34-1.35,3.16-1.35,5.25-2.71a30.56,30.56,0,0,0,4-2.77c1.06-.94.53-1.18,2.53-2.36a11.06,11.06,0,0,0,3.24-2.47,26.54,26.54,0,0,0,2.13-2.36c.64-.89,1.13-2.86,1.94-3.41s1.36-.8,1.42-.23.19,2.39-.44,2.92a44.68,44.68,0,0,0-3.28,3.14c-.88,1-.76.76-3,2.53s-2.95,2.45-3.9,3.14-1.82.87-3.71,2.17-2,1.45-3.83,2.79a32.74,32.74,0,0,1-4.19,3c-1.53.83-4.48,1.42-5.31,1.89s-1.77.79-2,1.28S98.55,116.43,98.55,116.43Z"/><path class="cls-12" d="M93.65,92.33c1-.88,2.85-2.47,4.56-3.82a16.73,16.73,0,0,1,5.6-3c2.64-1,4.09-1.06,7.57-2.36s3.52-1.12,5.64-2.6A31.86,31.86,0,0,0,122.26,76c1.56-1.66,5.26-2.9,5.81-3.21s3.43-.87,3.58-.58a8.38,8.38,0,0,1-.2,2.36c-.09.36-1.77,1.42-3.13,2.65A17.38,17.38,0,0,1,122.43,80a19.76,19.76,0,0,0-4.19,1.54c-1.18.65-.29.29-2.39,1.59s-2.32,1.89-4.39,2.42-3.59.65-5.19,1.06a9.9,9.9,0,0,0-4,1.65c-1.23.94-1.75.92-3.52,2.23a22.17,22.17,0,0,1-5.15,2.38Z"/><path class="cls-12" d="M95.13,98c.3-.11,3.72-.77,5-1.63s4.39-2.34,5.35-3.72.9-2,3.08-3.26,2.76-1.12,4.92-2.24a20.88,20.88,0,0,0,5-3.3,8.49,8.49,0,0,1,4.36-2.18c1.83-.48,5.43-1.71,6.19-2.36s2.73-3,2.73-3a6.65,6.65,0,0,1,0,2.53c-.31.71-1.25.71-3.73,2.19a81.46,81.46,0,0,1-7.43,3.65c-1.18.53-1.53.24-3.06,1.48s-2.82,2.65-4.54,3.3-2.07.17-3.25,1.47a41.47,41.47,0,0,1-4.26,4,13.85,13.85,0,0,1-3.28,2.36A19.85,19.85,0,0,1,98,98.71c-1.25.35-3.2,1-3.2,1Z"/><path class="cls-12" d="M110.6,92.34c.45-.3,2.55-1.42,4.77-2.48s2.7-1.43,3.58-2.4.12-1,3.72-2.43a43.46,43.46,0,0,0,6.42-3.09c.89-.51,2.56-1.67,2.56-1.67s.32.75,0,.92l-1.91,1.13c-.59.35-2,1.53-3,2.12s-2.77.79-4.6,1.87-2.59,1.37-3.18,2.08A8.66,8.66,0,0,1,115.85,91,22.11,22.11,0,0,1,110.6,92.34Z"/><polygon class="cls-9" points="67.06 41.71 67.77 79.78 15.88 65.67 7.95 48.95 28.97 39.98 67.06 41.71"/><polygon class="cls-1" points="67.77 33.85 67.06 41.71 20 53.45 12.04 49.73 13.14 45.01 65.99 33.2 67.77 33.85"/><path class="cls-13" d="M12.22,87.92c16.41,11.7,41.31,22,67.58,32l5.74-19.83L83.53,82,5.43,52v17.2Z"/><path class="cls-13" d="M82.16,100.36A354,354,0,0,1,6,69.23L12.5,87.92c17.12,11.65,40.55,22.13,67.44,32Z"/><polygon class="cls-14" points="5.43 67.61 83.3 99.89 80.72 102.72 52.93 92.69 18.09 77.64 5.43 71.74 5.43 67.61"/><path class="cls-13" d="M5.75,52.79l0,15.33s2,1,2.58,1.42,2.08,1.22,2.83,1.65a29.32,29.32,0,0,0,2.63,1.61,19.72,19.72,0,0,0,2.28.91,5.68,5.68,0,0,1,2.13,1.37c.59.43,6.4,2.87,6.8,3L34.36,82s5.94,2.18,6.06,2.33,3.35,2,3.35,2,3.21,1,3.37,1.09l4.91,2.55,4.48,1.49,4.52,1.18L68,94.81l10.57,4.25,4.21,1.69A50,50,0,0,1,83,94.26c.36-2,.44-12.39.44-12.39Z"/><path class="cls-11" d="M6,67.61S9.76,70.17,11.29,71a30.52,30.52,0,0,0,4.55,2.36c1,.24,2.55-.58,2.77-.49s-.94,1.08,0,1.91,3.76,1.77,5.41,2.59,2.72,1,5.31,2,2.24.7,6,2.35,4.41,1.36,6,2.57,3.34,2.48,4.4,1.67.52-1.64,1.44-.7.92,2.13,2.45,3.07a32.3,32.3,0,0,0,8.49,3.18,83.2,83.2,0,0,1,9,2.48c3.42,1.18,7,3.06,9.78,4s6,2.38,6,2.38l2-.73L84,101a20,20,0,0,1-2.69-.24c-.57-.18-6.12-2.56-7.38-3.12s-4.71-1.72-6.36-2.51-4.72-1.34-6.69-2-5.18-1.41-6.6-1.88a47.12,47.12,0,0,1-5.74-2.44c-.71-.47-2.85-1.65-2.85-1.65s-4.18-1.89-5.72-2.54-6.48-2.47-8.37-3.24-4.66-1.71-6-2.48S20.31,76.77,19.13,76s-1.3-1.07-2.65-1.83-3.84-1.36-4.31-1.65-4.36-2.66-4.71-2.89-1.87-.94-1.87-.94Z"/><path class="cls-15" d="M8.34,76s1.3.07,8.84,3.14S28,83.35,32.28,86a72.42,72.42,0,0,0,11.79,5.32c1.06.35,7.55,3.28,7.55,3.28s-.59.14,2.71,2,7.43,2.13,9.2,3,15.15,5.83,16.62,5.66,3.58,1.3,3.31,2.25-.84,2.39-2.37,2.31-4.47-1.14-7.77-2.67-6.61-2.6-10.62-4.37-11.55-2.59-13.56-4.48-6.25-5.77-9.31-7S31.22,88.3,26,86s-6.84-3.88-8.37-4.59a14.56,14.56,0,0,0-5-1.3c-2.12-.23-3.81-2.5-3.81-2.5Z"/><path class="cls-15" d="M10.18,81.27c1.93-.13,2.76-.37,6.3,1.28s5.78,2.81,6,3.41-.59.05-2.83-.8a45.75,45.75,0,0,0-6.72-1.47,17.41,17.41,0,0,0-2.06,0Z"/><path class="cls-15" d="M76.73,110.26c-2.12-1.18-4.83-.94-7.42-1.65s-3.31-1.41-6.25-3.07-3.66-2.12-7.08-2.83-5.31-.58-7.78-1.17-2.12-2.24-3-3.31a17.57,17.57,0,0,0-5-3.67c-1.65-.73-5.43-2.81-8.49-4.34s-3.42-.83-7.31-1.42-3.78-1.3-6.13-2.59-6.49-.4-6.57-.25l.82,2s5.27,1,6,1.82a19.14,19.14,0,0,0,4.05,2.72A58.29,58.29,0,0,1,28,96.11a15,15,0,0,0,6.37,2.12,13.93,13.93,0,0,1,7.08,2.67,9.68,9.68,0,0,0,4.43,2.64c2.19.71,4.17.83,7.83,1.89a55.74,55.74,0,0,1,9.55,3.77,44.38,44.38,0,0,1,6.25,3.66c1.65,1.18,10.81,3.42,10.81,3.42l1.33-2.65A48.65,48.65,0,0,0,76.73,110.26ZM36.29,95.52c-1.18.47-3.89,1.18-5.31,0s-4.24-4.24-4.24-4.24c.35,0,2.94,1.06,4.48,1.59S37.47,95.05,36.29,95.52Z"/><path class="cls-15" d="M5.79,65.33s6,3.42,8.15,4.48,6.55,1.54,7.14,2-1,1.05,1.45,2.76S30.86,76.89,33.46,78s3.06,1.42,6,2.48,6.49.47,9.67,2.12,5.19,4.72,5.66,5,0-3.42-2-4.83-4.72-1.77-8.2-3A57.74,57.74,0,0,1,35.11,76c-2.83-1.58-4.84-2-7.55-3.46s-3.3-2.13-5.66-3.3-6.26-.71-8-2.13-8.35-4.6-8.35-4.6Z"/><path class="cls-15" d="M84.87,97.53c-2.05-1.16-.59-2.66-8.37-3.81s-12.74-2.8-14.74-4.33-4.48-2.31-5.19-3.87S55.51,82,52,80.66s-9.79-2.47-11.91-3.89-5.54-3.06-7.43-4.6-10.1-4.83-10.1-4.83,7.34,1.65,9.08,2.71,2.56,1.42,7.15,2.83,8.61,3.66,12,5,6,.24,8.37,3.89,3.78,5.9,6.49,7.08,6.25,1.42,10.61,2.48,8.14,1.59,8.14,1.59Z"/><path class="cls-15" d="M6,58.49c.95.24,10.85,4,13.8,5.31s5.31,2.12,12.85,4.36,9.2,2.36,14.62,5,8.26,2.47,11.44,4.24,1.54,1.77,6.37,5.07,6.49,6.37,11.09,7a68.69,68.69,0,0,0,7.9.59s-3-3.56-3.19-4S72.37,83.69,69,81.18,61.76,77,56,74.24s-14.74-5.6-17.69-6.9-4.83-1.89-13.44-4.25-10.91-4.4-10.91-4.4L7.55,57.32Z"/><path class="cls-16" d="M11.45,65.22,26.13,71.9l4.63,4.28L34,79.13l11.22,4.56,4.52-1.49s10.5,3.19,11.92,4,16.16,6.25,19.11,6.66,7.17-7.35,7.17-7.35S24.16,60.21,22.23,59.88s-10.78-1.6-10.78-1.6Z"/><path class="cls-11" d="M14.42,89.27c-.88.31,20.35,12.25,26,14.33,4.74,1.75,12.79,6,16.47,7.57s23.06,8.72,23.06,8.72.78-1.15.14-1.26S59.52,112,56.81,110.1s-12.39-5-16.16-7.39A67.69,67.69,0,0,0,30,97.53a123,123,0,0,1-12.44-6.84c-1.06-.9-3.16-2.37-3.16-2.37Z"/><path class="cls-16" d="M15,66.16l1.34,23.35-1.94-.24S12,83.14,12,82.43s-.16-17.21-.16-17.21Z"/><polygon class="cls-2" points="96 120.8 90.81 125.04 89.55 87.46 95.2 88.54 96 120.8"/><polygon class="cls-17" points="95.8 112.85 100.08 114.82 90.64 120.01 90.49 115.52 95.8 112.85"/><polygon class="cls-5" points="105.43 124.41 100.08 114.82 90.64 120.01 90.83 134 105.43 124.41"/><polygon class="cls-18" points="3.86 55.78 6.69 86.05 12.04 89.98 10.62 58.86 3.86 55.78"/><polygon class="cls-4" points="12.98 60.97 14.42 89.27 11.88 90.22 10.62 58.86 12.98 60.97"/><polygon class="cls-19" points="3.07 78.89 5.97 78.34 11.64 81.25 7.95 82.2 3.07 78.89"/><polygon class="cls-5" points="13.45 92.65 11.64 81.25 7.95 82.2 10.62 93.28 13.45 92.65"/><polygon class="cls-17" points="3.07 78.89 2.44 88.33 10.62 93.28 7.95 82.2 3.07 78.89"/><path class="cls-20" d="M64.55,32.67.32,45.88c21.36,12.06,52,22.89,88,33l55-25-9.43-.71C121,59.73,105.74,65.63,89.23,72.29a14.79,14.79,0,0,1-8.49-.47A494.16,494.16,0,0,1,15.42,48.71c-1.45-.58-1.22-1.27,1.18-2.13,9.7-3,30.87-7.94,51.17-12.73Z"/><polygon class="cls-5" points="142.22 63.41 143.24 53.9 88.29 78.89 87.5 92.65 142.22 63.41"/><path class="cls-21" d="M.42,46.11V57.43c20,12.19,52,23.79,87.13,35.22l.81-13.76C53.46,69.26,24.48,58.37.42,46.11Z"/><polygon class="cls-22" points="51.25 62.73 48.24 59.76 39.82 63.52 40.37 78.89 44.87 81.25 48.52 79.35 43.52 77.62 43.52 64.98 51.25 62.73"/><polygon class="cls-23" points="31.77 54.21 48.4 59.76 39.9 63.52 24.79 57.62 31.77 54.21"/><polygon class="cls-9" points="40.41 78.89 26.42 73.47 30.9 76.18 44.89 81.25 40.41 78.89"/><polygon class="cls-24" points="24.79 57.62 26.42 73.47 40.41 78.89 39.9 63.52 24.79 57.62"/><path class="cls-22" d="M30.47,73.16l3,1.18V71.11c2-.35,2.56-3.23,2-4.28-.9-2.56-3.21-4.34-5.38-3.32-2.05,1.31-1.32,4.11.43,5.87Z"/><path class="cls-9" d="M33.62,67.77l-2.95,1.61-.2,3.78,3-1.62v-.43c2-.23,2.83-2.33,2-4.28Z"/><polygon class="cls-9" points="24.39 52.39 67.58 41.71 67.58 43.28 25.45 52.8 24.39 52.39"/><polygon class="cls-25" points="80.83 90.5 87.49 92.67 89.64 91.56 89.64 95.17 82.98 92.65 80.83 90.5"/><polygon class="cls-26" points="89.59 95.23 95.23 91.78 96.75 90.04 131.06 71.08 133.57 71.08 138.45 68.26 138.64 65.31 89.71 91.55 89.59 95.23"/><path class="cls-27" d="M26.11,40.57.32,45.88l-.23.23s-.36.14.37.59a22,22,0,0,0,2.75,1.22c1.2.51,1.77,1,2.69,1.36s7.63,4.52,10,5.26,4.36,2.3,5.54,2.48a23,23,0,0,1,3.36,1l.62-.71a15.26,15.26,0,0,0-2.27-1.07c-1.17-.41-4.89-2.49-6-2.8s-4.83-2.86-5.89-3.27-2.54-1-3.72-1.48-4.19-1.07-4.42-1.45A7.54,7.54,0,0,0,1.8,46.11s2.41-.17,2.71-.29S7,45.17,9.11,44.7,26.11,40.57,26.11,40.57Z"/><path class="cls-27" d="M45.93,64.33l4,1.56s-.76-.61,4.54,1.71,6.84,2.17,8.73,2.9a48.27,48.27,0,0,0,6,2c1.65.36,5.54.48,6.37,1.13s7,2.3,8.49,3.12,3.86,1,4.6,1.3,10.84-4.72,12.14-5.43,10.36-5.27,13.74-6.25a121.82,121.82,0,0,0,11.89-4.84L134.16,58l-9.63,5.22c-.86.47-6.72,2.52-10,4.48s-7,3.07-9.34,4.17-6.44,3.36-7.78,3.68-7.94,3.63-8.25,3.71-.24,1.73-.4,3a40.48,40.48,0,0,0-.65,4.37c.1.72-.2,5.48-.2,5.48h-1s.86-5.95.63-7.44a45,45,0,0,1-.32-5c0-.57.71-.59-1.41-1.51s-4.91-1.36-7.9-2.25S70,74,68.79,73.64,62.11,72,59.93,71.05s-8.73-2.36-9.55-2.8a20,20,0,0,1-3.3-1.8A15.05,15.05,0,0,0,44,65Z"/><path class="cls-28" d="M89.66,92.88a20.88,20.88,0,0,0-.31,2.29c-.08,1.14.2,1.45.16,3.3s0,2.79,0,5.19a30.86,30.86,0,0,0,.21,5.11,33.62,33.62,0,0,1,.35,5.62c-.16.71-.06,1.1,0,1s0,.16.15.18,1.25-.37,1.22-.73c-.07-.61.11-3.06-.16-5.89s-.28-4.05-.51-6.8-.63-5.15-.55-6.06a22.37,22.37,0,0,0-.08-2.75Z"/><path class="cls-27" d="M90.09,119.46c.24-.44.55-.65.32-1.21a9.91,9.91,0,0,1,.08-2.73s.2,2.08.34,2.85a3.58,3.58,0,0,1-.19,1.64Z"/><path class="cls-27" d="M89.75,120a19.75,19.75,0,0,1,.34,2.55c0,1.14-.13,1.42,0,3.23s.19,2.55.32,3.58.42,4.44.42,4.44.37-4.76.29-5.7-.31-2.13-.31-3.07.45-3.14.32-3.58-.13-1.4-.26-1.58-.78-.22-.78-.22Z"/><path class="cls-27" d="M77.6,115.37a2.38,2.38,0,0,0-.39,1.06c-.12.71-.08,1.5-.19,2.13s-.91,3-1,3.61a18.19,18.19,0,0,0-.43,2c-.08.74-.55,2.63,0,2.47s.74-.74.74-1.92a10.09,10.09,0,0,1,.59-3.23,19.18,19.18,0,0,0,.62-3c.13-.79.64-2.52.68-2.64S77.6,115.37,77.6,115.37Z"/><path class="cls-29" d="M31.77,54.21S25.22,57,25,57.32a1.36,1.36,0,0,0-.22.71s1.08,10.08,1.07,10-.22-6-.22-7.07-.67-2.09.11-2.07.51.75,2.28.9a9.94,9.94,0,0,1,3.42.9,34,34,0,0,1,3.82,1.49c1,.51,3.81,1.45,4,1.57s1,12.38,1,12.27-.41-11.56,0-12a19.51,19.51,0,0,1,2.82-1.46c1-.59,5.27-2.74,5.27-2.74S41.71,62.35,41,62.5s-.67.48-2,0-7.59-2.83-8.29-3.14-3-1-3.42-1.33-.95-.44-.87-.71S31.77,54.21,31.77,54.21Z"/><path class="cls-29" d="M33.58,74.34s-.27-3.26,0-3.23,1.52-.32,1.65-.61a5.32,5.32,0,0,0,.52-1,6.4,6.4,0,0,0,.15-1.26,5.05,5.05,0,0,0-.48-1.72A11.88,11.88,0,0,0,34.53,65c-.22-.26-.84-.75-.73-.77a1.46,1.46,0,0,1,.88.54,4,4,0,0,1,1,1.27,7.46,7.46,0,0,1,.51,1.6,10.45,10.45,0,0,1,0,1.94c0,.53,0,1.2-.51,1.5a6.79,6.79,0,0,1-1.67.77c-.09-.06,0,.82-.12,1.24S33.58,74.34,33.58,74.34Z"/><path class="cls-18" d="M56.3,36.56s-3.39.43-5.59.67A67.81,67.81,0,0,0,43.25,39c-2,.47-5.09.87-7,1.53S31.94,42,30.28,42.34s-5.35,1.65-7.75,2.2S18,46,17.07,46.11a8.26,8.26,0,0,0-2.65,1.14.87.87,0,0,0,0,.91c.17.31,1.33.69,1.33.69s-.69-.77-.49-1.13.59-.59,2-1.21a43.91,43.91,0,0,1,4.6-1.26c1.5-.47,5.15-1.46,5.94-1.61A37.77,37.77,0,0,0,32,42.71c.95-.37,3.57-1.18,4.64-1.43s6.57-1,7.35-1.29,2.95-.91,4-1.19,3.46-1,3.85-1.14S56.3,36.56,56.3,36.56Z"/><path class="cls-19" d="M10.18,63s.91,2.57.52,3.51a5.62,5.62,0,0,0-.21,2.72,21.88,21.88,0,0,0,.13,2.5c.12.6,0,1.21.08,2.34s.23,2.66.31,3.29,0,3.57,0,3.57l.63.32s.32.12.24-.7a12.05,12.05,0,0,1-.2-2.52,11.07,11.07,0,0,0,.2-2.45c0-.93-.51-3-.59-3.92a33.13,33.13,0,0,1-.25-4c.09-.63-.46-1.88-.12-2.39a3.52,3.52,0,0,0,.18-1.73Z"/><polygon class="cls-16" points="4.12 59.77 11.18 63.48 13.45 64.49 13.45 65.5 11 65.22 4.48 61.79 4.12 59.77"/><path class="cls-27" d="M2.44,88.33s0-2.54,0-3,.4-2.92.43-3.42-.39-1.35-.22-2.09.3-1,.62-1.12A26.86,26.86,0,0,1,6,78.18l-.26-2.86s.5,2.54.59,2.72a4.4,4.4,0,0,0,1.91,1.18,19.85,19.85,0,0,1,3.12,1.86S9,80,8.34,79.78a19.48,19.48,0,0,1-2-.89c-.27-.08-.77,0-1.27,0A2.85,2.85,0,0,0,4,79s1.59,1.21,2.06,1.54S8,82.2,8,82.2s.86,3.07,1.13,4,.2,1.38.47,2.12A20.25,20.25,0,0,1,10.07,91c0-.11-.93-2.77-1.23-3.71s-.36-3-.5-3.16a5.79,5.79,0,0,1-.65-1.35c0-.18,1,.38-.53-.56s-1.83-1.3-2.5-1.77a3.78,3.78,0,0,0-1.24-.65c-.18,0-.27.56-.09,1a4.22,4.22,0,0,1-.12,2.07,23.24,23.24,0,0,0-.35,3.23A17.11,17.11,0,0,1,2.44,88.33Z"/><path class="cls-12" d="M94.42,95.17c.83-.53,3.54-1.32,4.43-2.52a7.51,7.51,0,0,1,3.36-3.2c2.12-1.06,8.39-2,8.39-2s-5.62,1.73-6.45,3a23.5,23.5,0,0,1-4.48,4.2c-.65.41-4,1.59-4.15,1.65a2.61,2.61,0,0,1-.69,0Z"/><path class="cls-19" d="M12,82.43c15.2,10.44,39.6,21.31,68.19,32.39l1.34-2c-27.32-9.91-50.81-20.23-67.45-31.27Z"/><path class="cls-30" d="M13.45,92.65,12,82.43c19.28,12,43.06,21.87,67.72,32.21l-2.16,8.83C52.24,113.92,29.36,103.92,13.45,92.65Z"/><polygon class="cls-18" points="80.83 90.5 81.84 121.27 90.81 125.04 89.06 91.75 80.83 90.5"/><polygon class="cls-19" points="81.57 112.85 77.6 115.37 90.64 120.01 90.49 115.52 81.57 112.85"/><polygon class="cls-17" points="77.6 115.37 75.56 126.61 90.83 134 90.64 120.01 77.6 115.37"/><path class="cls-27" d="M78.22,115s1.07.35,2.11.71a5.86,5.86,0,0,1,1.83.74,4.64,4.64,0,0,0,2,.71c1.07.28.83.24,2.28.71a23.21,23.21,0,0,1,4,1.49,1.37,1.37,0,0,1,.21.67s-.07.27-.89,0S88,119.34,86.64,119s-1.44-.47-3.16-.91a29.74,29.74,0,0,1-4.11-1.29,8.92,8.92,0,0,1-1.86-.89l.09-.49Z"/><path class="cls-5" d="M131.06,100.83l1.73-11.69L98,113.88l3.41,6.88C113.9,114.45,123.51,107.77,131.06,100.83Z"/><path class="cls-31" d="M95.13,112.85c15.68-8.42,28.13-16.4,35.52-23.71l2.36-.3c-7.93,8.62-19.32,17-35,25Z"/><path class="cls-1" d="M111.84,26.53s6.64-2.93,7.62-2.73,7.81,3.43,10.74,8.16,6.64,17.42,6.64,17.42L92.51,66.26s1.8-15.09,5.1-22.62S111.84,26.53,111.84,26.53Z"/><path class="cls-13" d="M42.58.69S113,17.48,116.13,17.38,87.91,63.22,87.91,63.22c-33.13-3.71-61-13-84.84-26.66C10,16.77,21.26,2.47,42.58.69Z"/><path class="cls-32" d="M.4,44C23.33,57,54.89,67.57,89.06,76.36L87.91,63.22C55.2,56.51,26.07,46.89.32,34.54Z"/><path class="cls-5" d="M112.35,18.35C93.27,25.59,88,63.22,88,63.22l1.24,13.14,52.55-22.29V43.13S131.43,11.1,112.35,18.35Zm1.08,11.11c13.35-8.59,19.9,16.74,19.9,16.74L97.61,59.59C99.22,51.69,103.58,35.8,113.43,29.46Z"/><path class="cls-33" d="M120,17.34l-14-2.92C85.81,21.63,78.76,39.8,75.91,61.49l9.38,7.61,2.62-5.88C91.68,38.78,101.61,19.63,120,17.34Z"/><path class="cls-34" d="M42.17,0C25.12-.12,11.32,12,.32,34.67l3.22,5.92,4.53-2.3C17,17.09,31,2.71,48.7.69Z"/><path class="cls-35" d="M8,39h4.69A488.52,488.52,0,0,0,76.69,58.61L75.91,61C50.68,55.3,28.29,48,8,39Z"/><path class="cls-36" d="M49.3,2.56C32.12,5,20.49,18,12.64,39H8C18.51,13.94,32.46,3.22,48.7,1.11Z"/><polygon class="cls-36" points="133.33 46.2 127.27 45.57 98.33 56.38 97.61 59.59 133.33 46.2"/><path class="cls-27" d="M8,38.44C26.22,47.65,48.7,55.2,76.69,62.17A69,69,0,0,1,92.51,22.36c-9.4,8.25-14.19,21.86-16.6,38.23C50.2,53.88,27.24,46.57,8,38.44Z"/><path class="cls-14" d="M19.07,24.77a16.13,16.13,0,0,0,3.73,2,61.37,61.37,0,0,0,6.9,2.47c3.12,1,5.72,1.48,7.55,2.76s4.86,2.32,7.44,3.23,5.31,2,9.74,3.25,11.85,3.35,14.19,3.83S79.4,44.55,79.4,44.55l.44-1.36s-2.93-2.63-3.93-2.52A17.62,17.62,0,0,1,69,39.52c-2.54-1.08-15.72-4.63-17.28-4.86s-4.64-1.77-7-2.7-4.36-1.62-7.66-2.6a37.08,37.08,0,0,1-6.69-3c-.71-.3-7.74-1.66-8.23-2.05S20.06,23,20.06,23Z"/><path class="cls-11" d="M19.66,23.79s1.62.72,4.85,2,3.88.61,7.14,1.86,1,.87,4.16,2.17S38,31.25,40.5,32c2.75.77,2.15-.11,5.53,1.46s1.6,2,6.94,2.68,2.8-.23,7.61,1.86a54.07,54.07,0,0,0,9.6,3.22,60.45,60.45,0,0,0,7.16,1.09l2.35,1.37.45-1.37s-2.08-1.78-3.45-1.68a8.69,8.69,0,0,1-4.24-.53c-1.08-.59-4.94-1.52-6.5-2.1a51.87,51.87,0,0,0-6.64-2.25c-1.66-.29-4.78-.88-6.54-1.17a22,22,0,0,1-5.27-1.76A27.31,27.31,0,0,0,42.32,31c-1.46-.29-1-.29-3-1.46a27.86,27.86,0,0,0-5.86-2C31.68,26.92,29.63,26,29.63,26l-8-2.73-1.07-.95Z"/><path class="cls-14" d="M33.23,8.61s.5.54,3.23.93a76,76,0,0,1,8.23,2.05c3,.78,1.05-.58,6.23,1.47s8.49,4,10.93,4.22,13.38,2.81,15.43,3.78,9,3.71,9,3.71l3.1.75L91,23.79A6.38,6.38,0,0,1,88.7,23a36.36,36.36,0,0,0-5.17-2c-2-.58-5.76-2-7.62-2.63s-8.4-1.86-9.86-2.05a25.34,25.34,0,0,1-7.52-2,32.65,32.65,0,0,0-6.74-2.73c-2.44-.68-5.46-1.46-6.64-1.95a61.76,61.76,0,0,0-6.73-1.56c-.59-.1-3.72-.55-3.72-.55Z"/><path class="cls-11" d="M35.23,7.3a1.48,1.48,0,0,1-.53.33c-.25.06-.51.12-.42.16l3.49.74c1.62.36,4.88.78,5.89,1.21s2.44.84,3,1,4.62,1.17,5.17,1.4,3.49,1.17,4.46,1.63a27.42,27.42,0,0,0,4,1.56c1.44.39,4.17.84,4.66,1s2.44.39,2.67.55S72.88,18,73.18,18.2s3.22.85,4.62,1.43,2.93,1,4.56,1.63,5.72,2.15,5.72,2.15l2.51.82.88-.89a11,11,0,0,1-2.18-.78c-1-.49-4.62-1.53-6.35-2.15s-3.32-1.53-4.82-1.92-3.12-1.08-3.9-1.21a22.6,22.6,0,0,1-3.87-.71,32.1,32.1,0,0,0-5.08-1.17,13.74,13.74,0,0,1-4.69-1c-1.8-.83-3.51-1.46-4.49-1.8s-3.22-.93-4.25-1.27-4.05-1.17-4.34-1.27S43.35,9,42.86,8.71a36.75,36.75,0,0,0-5-1.08C37.2,7.59,35.23,7.3,35.23,7.3Z"/><path class="cls-37" d="M127.27,45.57l6.06.63Q126.6,26.3,118.19,27.68C122.56,28.39,125.65,34.13,127.27,45.57Z"/><path class="cls-27" d="M111.1,20c-12.86,4.82-20.75,19.5-23.8,43.8l1.76,12.53L88.54,63.7C91.48,42,98.31,26.34,111.1,20Z"/></g></g></svg>