<svg version="1.1" id="Layer_1" xmlns="http://www.w3.org/2000/svg" xmlns:xlink="http://www.w3.org/1999/xlink" x="0px" y="0px"
	 width="100%" viewBox="0 0 791 520" enable-background="new 0 0 791 520" xml:space="preserve">
<path fill="#FFFFFF" opacity="1.000000" stroke="none" 
	d="
M494.000000,521.000000 
	C330.833344,521.000000 168.166656,520.984985 5.500063,521.093933 
	C1.750660,521.096436 0.903810,520.249329 0.906191,516.499939 
	C1.014371,346.166656 1.014371,175.833313 0.906191,5.500060 
	C0.903810,1.750682 1.750839,0.905214 5.500037,0.906692 
	C266.166656,1.009408 526.833313,1.009408 787.499939,0.906692 
	C791.249146,0.905214 792.096191,1.750682 792.093811,5.500060 
	C791.985596,175.833313 791.985657,346.166656 792.093811,516.499939 
	C792.096191,520.249329 791.249695,521.099426 787.499878,521.094849 
	C689.833374,520.975037 592.166687,521.000000 494.000000,521.000000 
z"/>
<path fill="#C9DDE6" opacity="1.000000" stroke="none" 
	d="
M353.907288,283.364624 
	C353.220428,275.078156 349.738464,267.993835 347.244537,260.637573 
	C340.257172,240.027527 333.052063,219.491302 325.895996,198.545303 
	C330.736572,193.417130 336.941406,190.820450 343.001556,188.233856 
	C364.606842,179.012222 387.205597,174.179214 410.718781,175.786636 
	C430.880402,177.164917 450.012054,182.859924 467.837555,192.594803 
	C472.502655,195.142532 476.844818,198.345169 482.501526,199.783783 
	C492.970764,206.780396 500.474182,216.117828 506.894501,226.254395 
	C518.550354,244.656967 526.275146,264.675323 527.995178,286.479309 
	C530.996155,324.520691 521.887085,358.985626 496.850250,388.712891 
	C475.977509,413.495972 449.771637,428.910370 418.225128,435.565796 
	C416.269287,435.978424 414.420532,436.792450 412.035645,437.073914 
	C410.634003,435.806000 409.624115,434.511475 408.336304,433.071411 
	C404.697021,428.780914 403.908630,423.517761 402.192108,418.722778 
	C390.742798,386.740143 379.382172,354.726044 367.722595,322.818573 
	C362.981018,309.842804 357.876068,296.994019 353.907288,283.364624 
z"/>
<path fill="#B5D8F3" opacity="1.000000" stroke="none" 
	d="
M204.370148,443.037537 
	C197.966461,440.289124 196.553345,434.247620 195.116547,428.910461 
	C189.261597,407.161591 185.671082,384.900299 181.092834,362.862457 
	C174.021835,328.825500 167.509430,294.672668 160.712860,260.578430 
	C153.562912,224.711441 146.206757,188.884384 139.324509,152.966339 
	C138.177689,146.981216 137.403412,140.141098 144.640472,136.029297 
	C152.824951,139.320282 161.342529,139.439758 169.559509,140.869308 
	C195.591385,145.398178 221.697205,149.503693 247.782242,153.724609 
	C259.032562,155.545074 270.288940,157.338547 281.570129,158.951584 
	C285.354736,159.492737 287.860535,160.989563 289.409180,164.684814 
	C291.963379,170.779282 295.389526,176.503815 297.200073,183.307526 
	C296.667419,186.543533 294.347534,188.119049 292.441254,189.888168 
	C280.034149,201.402588 269.157745,214.124420 261.183594,229.147980 
	C250.427124,249.413406 244.545425,270.870270 243.133636,293.927246 
	C241.398529,322.264648 250.063919,348.074829 259.875671,374.216553 
	C260.794098,379.196838 263.755127,383.069214 264.293884,388.061646 
	C264.360657,391.783478 262.287842,394.333984 260.922943,397.095306 
	C257.202576,404.621887 253.325012,412.070709 249.238861,419.754791 
	C246.850998,421.849548 244.316193,423.132996 241.825073,424.349792 
	C230.702087,429.782684 219.964447,435.951721 208.870499,441.434143 
	C207.545258,442.089050 206.262909,442.876831 204.370148,443.037537 
z"/>
<path fill="#51A2CB" opacity="1.000000" stroke="none" 
	d="
M586.638550,239.776443 
	C591.243958,255.554962 593.849365,271.442383 597.048584,287.201263 
	C600.915894,306.250732 604.669128,325.324219 608.700989,344.338715 
	C609.458618,347.911560 608.955750,350.250702 605.897705,352.431000 
	C599.539429,356.964386 593.403564,361.809723 586.912842,366.755310 
	C584.267700,370.377594 580.410583,370.870972 576.912292,371.092285 
	C566.003540,371.782257 555.064026,371.980957 543.736938,370.799072 
	C541.320190,368.841064 541.918762,366.656647 542.521545,364.593719 
	C546.042297,352.543579 547.429565,340.149933 548.439392,327.708313 
	C549.090332,319.687195 547.885193,311.741364 546.462952,303.897949 
	C544.419861,292.630676 542.921387,281.183258 537.659180,270.327942 
	C533.603943,258.642151 530.213684,247.155869 525.004822,236.306900 
	C515.644104,216.810471 502.644470,200.226974 486.068634,186.374756 
	C470.257324,173.161438 452.182159,164.235855 432.715851,157.886719 
	C427.149078,156.071060 421.321320,155.539825 415.633636,154.322800 
	C413.381012,153.840759 410.974152,153.667816 409.183197,151.274445 
	C407.956879,145.500458 407.951996,139.960800 407.829773,134.558212 
	C407.571014,123.118942 406.193481,111.722466 406.626770,99.849533 
	C407.091217,96.519463 408.982849,94.776085 411.407867,93.443352 
	C425.196869,85.865227 438.865112,78.071678 452.588470,70.376419 
	C454.304016,69.414444 456.017548,68.312492 458.484802,68.494385 
	C459.245178,68.909454 459.720245,69.293518 459.727631,69.759453 
	C459.911499,81.382225 467.430817,89.260262 473.991638,97.580482 
	C508.489319,141.329315 542.747986,185.264786 576.930908,229.259445 
	C579.805359,232.959015 583.582703,235.780884 586.638550,239.776443 
z"/>
<path fill="#DCF1FC" opacity="1.000000" stroke="none" 
	d="
M353.562317,282.977875 
	C357.193024,286.770660 357.813110,291.733521 359.426208,296.175415 
	C375.632812,340.802399 391.581543,385.523071 407.590607,430.221710 
	C407.811646,430.838806 407.874817,431.512512 408.035034,432.542847 
	C406.197968,432.972992 404.469269,433.229736 403.932831,435.853058 
	C399.673737,438.357727 395.006256,437.737091 390.670898,437.766815 
	C367.599091,437.924957 345.933014,432.135193 325.597931,421.228241 
	C316.008636,416.084961 307.316681,409.700348 299.029388,402.712006 
	C297.889740,401.750946 296.605103,400.922150 296.033936,399.005371 
	C295.948914,385.968384 299.042145,373.701904 300.475220,361.236359 
	C301.379242,353.372101 302.798340,345.567322 303.972260,337.733734 
	C304.376190,335.037903 303.326874,333.145203 300.663483,332.408325 
	C297.033142,331.403900 293.526794,331.571716 291.509613,335.265320 
	C289.124207,339.633240 287.096130,344.197937 284.954590,348.697052 
	C281.744110,355.442047 278.725159,362.283447 274.507874,368.850800 
	C274.012329,368.888702 273.787231,368.728302 273.352356,368.210693 
	C272.030609,360.068481 269.270264,352.716736 267.033478,345.241547 
	C264.573486,337.020264 263.901978,328.696777 263.493530,320.155884 
	C262.645447,302.420990 264.890594,285.155884 271.005951,268.652802 
	C278.650085,248.024048 289.737061,229.314056 305.743164,213.858765 
	C307.052612,212.594376 308.272064,211.176102 310.596313,210.902649 
	C314.017548,217.046402 316.980103,223.123276 320.079132,229.129730 
	C328.505585,245.461472 335.756714,262.420807 345.931366,277.819366 
	C347.647186,280.416168 349.356354,283.250366 353.562317,282.977875 
z"/>
<path fill="#72BBE2" opacity="1.000000" stroke="none" 
	d="
M586.952026,239.635437 
	C582.389221,238.446869 579.660889,234.627487 576.980164,231.218491 
	C557.710510,206.714325 538.784119,181.940720 519.595947,157.371933 
	C501.938049,134.762497 484.114624,112.282043 466.307709,89.789413 
	C461.619934,83.868073 458.582550,77.436150 459.023865,69.247513 
	C458.901550,66.154808 461.171875,65.682381 462.818207,64.748909 
	C481.796570,53.988064 501.075012,43.757523 519.735535,32.433540 
	C523.291077,30.275866 526.974792,28.271042 531.650696,27.954533 
	C541.483032,27.687864 544.895996,30.391977 547.015991,40.568699 
	C552.770691,68.194031 558.424316,95.840668 564.033142,123.496078 
	C570.565735,155.706558 577.023132,187.932343 583.477051,220.158722 
	C584.746216,226.496216 585.851257,232.866592 586.952026,239.635437 
z"/>
<path fill="#60C0EB" opacity="1.000000" stroke="none" 
	d="
M542.154724,369.829926 
	C554.952393,369.781891 567.414490,371.065857 579.795105,369.009796 
	C581.895081,368.661041 583.901978,367.751923 586.300659,367.042725 
	C596.156067,369.720581 605.673950,372.419159 615.166687,375.203522 
	C628.199585,379.026276 641.563660,381.761353 654.490723,387.186096 
	C659.977722,392.562195 664.487671,398.489471 671.319214,402.418396 
	C678.182373,410.341400 683.102173,419.111420 687.807190,428.014465 
	C688.423401,429.180664 688.896667,430.441681 688.092407,432.088013 
	C683.161194,432.657318 679.182922,430.305054 675.070923,428.756165 
	C648.790527,418.856995 622.510864,408.953278 596.348938,398.742279 
	C592.929932,397.407867 589.445129,396.341492 585.384277,395.999359 
	C578.243774,399.757751 573.494568,405.892395 567.701233,410.793518 
	C549.704712,426.018494 531.971069,441.551178 513.869934,456.661011 
	C500.350220,467.946472 487.485535,480.016510 473.970001,491.307220 
	C464.505585,499.213715 454.260651,506.059753 442.651886,510.686798 
	C439.131805,512.089844 437.917816,511.370453 436.741821,507.875519 
	C432.607513,495.588867 428.116608,483.422180 423.730103,470.835754 
	C424.175354,468.715363 425.712158,468.940094 426.951172,468.833313 
	C443.408478,467.415161 458.190369,461.137451 472.391449,453.194366 
	C502.285583,436.473663 523.252075,411.837158 536.848328,380.612335 
	C538.412842,377.019287 538.461243,372.694702 542.154724,369.829926 
z"/>
<path fill="#99DBF9" opacity="1.000000" stroke="none" 
	d="
M531.699707,27.662197 
	C507.208954,40.304028 483.671173,54.972996 459.188721,68.518944 
	C447.439758,73.908836 436.834656,80.826294 425.784637,86.914230 
	C419.843994,90.187172 413.571991,92.966080 408.026245,97.537811 
	C404.479797,100.337822 401.242432,103.089546 396.480774,103.287041 
	C393.826172,100.103432 390.684509,98.977837 386.983429,98.981331 
	C380.990479,98.986984 374.997467,98.910255 368.544678,98.813126 
	C364.629242,94.177711 365.291779,88.597260 364.737518,83.444672 
	C362.909485,66.450226 361.018280,49.465771 358.923340,32.501976 
	C358.398163,28.249208 357.790497,23.924055 359.725952,19.364540 
	C379.280487,18.342524 398.419159,20.505737 417.605255,21.815224 
	C424.881256,22.311823 432.186157,22.487328 439.474335,22.829124 
	C461.661713,23.869661 483.813110,25.401890 505.975464,26.813255 
	C514.422302,27.351179 522.911560,27.222937 531.699707,27.662197 
z"/>
<path fill="#B5E4FB" opacity="1.000000" stroke="none" 
	d="
M359.552917,18.984268 
	C359.538422,32.492920 362.310455,45.677425 363.802704,58.986202 
	C364.945190,69.175758 365.923462,79.383644 367.000610,89.580643 
	C367.295685,92.374008 367.683777,95.157555 368.057037,98.351768 
	C332.305450,97.198830 296.485687,98.936180 260.725342,97.675354 
	C245.115875,97.125008 229.499573,97.757004 213.404419,96.746170 
	C215.763672,93.174088 219.315674,91.674011 222.448715,89.832077 
	C257.412262,69.276619 292.383423,48.732899 327.470734,28.389837 
	C337.181213,22.759850 347.606842,18.900084 359.552917,18.984268 
z"/>
<path fill="#E0A13C" opacity="1.000000" stroke="none" 
	d="
M409.604797,151.402832 
	C420.561157,154.383789 431.438110,155.778870 441.807526,159.752167 
	C486.333771,176.813385 516.739136,207.550507 532.874573,252.401718 
	C534.733337,257.568451 536.395264,262.806000 538.172607,268.388153 
	C547.488098,317.472260 537.267029,361.213501 505.052948,399.405304 
	C485.060486,423.107635 459.730255,438.202362 429.945801,446.073395 
	C425.482391,447.252960 421.324005,449.699127 416.159546,449.296753 
	C413.852386,445.580841 412.604309,441.803558 411.703796,437.489929 
	C413.284424,434.753296 416.005829,434.763885 418.357727,434.298645 
	C473.936615,423.304108 517.735107,378.277466 525.850281,322.383606 
	C531.735657,281.848022 522.177856,245.036331 495.740112,213.206604 
	C492.140045,208.872269 487.741547,205.201096 483.410126,201.086319 
	C474.938019,195.544922 467.762756,188.782028 459.173676,183.915039 
	C443.191010,174.858429 426.295471,169.102982 407.920197,167.136032 
	C392.544312,165.490143 377.317749,166.490723 362.247192,168.771103 
	C352.627106,170.226761 343.471680,174.295471 334.474670,178.247055 
	C330.227173,180.112595 326.118134,182.367172 321.034454,183.057571 
	C318.275421,179.448105 317.468079,175.251404 316.100708,170.909012 
	C316.367737,168.730591 318.033051,168.455902 319.294800,167.779190 
	C339.255920,157.073212 360.741516,151.831223 383.138153,149.444778 
	C392.041412,148.496109 400.671783,148.641434 409.604797,151.402832 
z"/>
<path fill="#52A3CB" opacity="1.000000" stroke="none" 
	d="
M120.022919,514.593262 
	C119.668167,514.830383 119.332954,514.957153 119.182564,515.054565 
	C114.804237,514.792053 113.017700,511.276855 110.933037,508.469849 
	C100.733276,494.735901 90.416382,481.083160 80.590408,466.633789 
	C79.349396,464.464569 78.536125,462.476532 77.289490,460.304138 
	C74.531113,452.878326 70.543114,446.426666 67.439651,439.155151 
	C67.707344,435.058258 69.770210,431.948547 71.336662,428.721893 
	C76.333168,418.429810 81.397873,408.174774 85.845291,397.627594 
	C86.491936,396.093994 87.259590,394.620819 88.903473,393.326447 
	C94.907845,392.706451 98.939873,395.885071 102.640610,399.548035 
	C110.998100,407.820160 119.260056,416.188782 127.784866,424.761963 
	C133.641281,428.611725 136.093887,433.931885 135.122208,440.355835 
	C131.961227,461.253540 128.689178,482.136536 125.118546,502.969482 
	C124.413635,507.082275 123.215759,511.085358 120.022919,514.593262 
z"/>
<path fill="#A1752E" opacity="1.000000" stroke="none" 
	d="
M415.845886,449.482513 
	C430.599731,444.215515 446.004181,440.989441 459.853058,433.539337 
	C501.138733,411.329437 526.901611,377.346832 537.173706,331.522675 
	C541.419617,312.581573 540.405762,293.668915 538.185791,274.671600 
	C537.993835,273.029327 538.114746,271.350494 538.143555,269.227112 
	C544.500610,279.686920 545.762512,292.055603 548.005493,304.072723 
	C552.122375,326.129822 548.932800,347.711609 542.612427,369.366486 
	C538.361572,378.618286 535.103638,387.882782 530.273621,396.472748 
	C508.466492,435.255707 475.805817,459.452423 432.580414,469.520874 
	C430.014954,470.118439 427.296204,470.057648 424.174011,470.382385 
	C420.324585,463.887115 418.363464,456.776154 415.845886,449.482513 
z"/>
<path fill="#E1F0F9" opacity="1.000000" stroke="none" 
	d="
M411.623077,472.680573 
	C414.187134,484.092651 416.396484,495.278290 418.691895,506.446259 
	C419.842651,512.045288 419.854431,512.105652 414.584442,511.087097 
	C398.274078,507.934784 382.641052,502.313904 366.760132,497.653137 
	C341.972504,490.378357 317.465149,482.161072 292.560486,475.244293 
	C284.965546,473.134949 284.919128,472.788269 286.001862,464.858917 
	C287.654572,452.755676 289.519348,440.681427 291.533417,428.305481 
	C294.024017,427.084320 295.162720,428.891327 296.377106,430.077362 
	C316.536255,449.766846 340.605530,462.338989 367.926208,468.467743 
	C380.844757,471.365753 394.054260,473.107452 407.421906,471.911133 
	C408.758759,471.791473 410.081085,471.751831 411.623077,472.680573 
z"/>
<path fill="#E7E7E7" opacity="1.000000" stroke="none" 
	d="
M120.055450,514.858643 
	C126.911026,496.623291 126.969261,476.989319 130.895294,458.122406 
	C131.835754,453.602966 131.889954,448.873596 133.085510,444.438568 
	C135.065262,437.094604 133.013092,431.091248 128.109039,425.331848 
	C135.916183,425.104736 141.860962,420.605377 148.067810,416.590912 
	C158.911133,409.577728 168.787186,410.508423 173.370453,418.788605 
	C175.058105,421.837555 176.759293,424.878998 178.446198,427.928345 
	C181.900360,434.172241 185.425491,440.378510 188.776260,446.677460 
	C191.551254,451.894043 192.718857,459.620087 186.460022,465.260132 
	C174.636581,475.914581 161.952057,485.516052 150.008820,496.005463 
	C141.113861,503.817566 131.744476,510.857422 120.055450,514.858643 
z"/>
<path fill="#52A3CC" opacity="1.000000" stroke="none" 
	d="
M688.085266,432.270538 
	C684.013428,421.582123 677.433960,412.738892 671.166870,403.320160 
	C666.967957,397.497162 664.957764,391.242126 664.467407,384.101532 
	C666.580322,377.551147 671.065369,372.412567 671.954224,365.416016 
	C674.220154,355.730682 678.598022,347.212708 682.014526,338.335571 
	C683.130920,335.434814 684.179321,332.463379 686.047729,329.471375 
	C686.472595,329.000397 686.667603,328.834686 687.228760,328.551697 
	C687.850464,328.454224 688.105957,328.473999 688.705322,328.665833 
	C689.049194,328.837891 689.074707,328.919647 689.113403,328.937988 
	C689.624390,329.446533 690.168030,329.870392 690.620300,330.784271 
	C690.698425,331.116760 690.750977,331.221649 690.801636,331.251282 
	C691.065430,331.354797 691.278687,331.428650 691.553467,331.835266 
	C691.615112,332.168091 691.678711,332.298462 691.740723,332.336060 
	C692.044434,332.433411 692.286133,332.493164 692.454956,332.919189 
	C692.548218,333.664246 692.714294,334.043030 693.022095,334.698303 
	C693.612183,335.572937 694.394653,335.894684 694.534180,336.980652 
	C699.296509,347.131012 704.160583,356.980255 708.915405,366.881897 
	C710.990417,371.202759 711.400818,375.639587 710.377380,380.478119 
	C706.659485,398.055054 703.253174,415.697968 699.747925,433.319702 
	C699.213196,436.007965 698.427246,438.500183 695.381531,439.894775 
	C692.448242,437.781799 690.032104,435.437378 688.085266,432.270538 
z"/>
<path fill="#60C0E9" opacity="1.000000" stroke="none" 
	d="
M409.967529,151.188263 
	C401.887909,151.316193 393.957062,149.769104 385.722412,150.582840 
	C363.025696,152.825668 341.181641,157.726135 320.932281,168.595276 
	C319.619263,169.300064 318.202576,169.811707 316.455536,170.485748 
	C315.980743,170.422562 315.857483,170.298660 315.792145,170.149399 
	C309.364716,155.460953 309.282745,155.310349 323.160858,147.725372 
	C344.020447,136.324722 365.060333,125.248871 385.528839,113.149475 
	C389.580902,110.754211 394.413574,109.009789 396.095215,103.435883 
	C400.279053,102.342415 403.002167,98.645744 407.481934,97.871124 
	C408.549133,115.464340 409.260437,133.107391 409.967529,151.188263 
z"/>
<path fill="#9ADBF9" opacity="1.000000" stroke="none" 
	d="
M687.665466,431.913269 
	C690.578735,434.168610 693.252319,436.278442 695.010437,439.621277 
	C692.355347,443.666534 688.160217,443.917328 684.313110,443.944489 
	C659.492493,444.119629 634.669617,444.115845 609.848328,444.000885 
	C602.131287,443.965149 598.313599,440.239166 595.917175,432.854340 
	C592.545410,422.464203 591.322021,411.561188 587.874512,401.219116 
	C587.329224,399.583160 587.370178,397.506104 585.185791,396.302032 
	C587.689148,393.667084 590.428894,395.240875 592.925842,396.183380 
	C614.626709,404.374786 636.269958,412.718414 657.951477,420.961273 
	C667.707214,424.670258 677.511047,428.253113 687.665466,431.913269 
z"/>
<path fill="#F6B342" opacity="1.000000" stroke="none" 
	d="
M273.742523,367.919861 
	C273.895782,368.281189 273.956665,368.713074 274.097046,368.881104 
	C272.980560,374.361969 269.770721,378.787781 267.331360,383.914185 
	C263.756897,381.964996 262.750092,377.797699 259.373352,375.219238 
	C251.920486,355.634216 243.916443,336.481049 242.339874,315.594421 
	C239.235489,274.466736 249.688202,237.297195 276.025085,205.207184 
	C282.231689,197.644775 289.798767,191.198959 296.983704,183.960815 
	C301.001984,186.619659 301.644958,191.343933 303.865021,195.551117 
	C303.127197,199.018387 300.576843,200.808075 298.462616,202.870468 
	C283.591248,217.377213 271.934296,234.005127 264.941711,253.681488 
	C260.293823,266.760132 257.937866,280.170685 257.040497,294.136963 
	C255.682587,315.271698 259.726471,335.103363 267.400238,354.517975 
	C269.178436,359.016846 272.429382,362.786987 273.742523,367.919861 
z"/>
<path fill="#5FC0EC" opacity="1.000000" stroke="none" 
	d="
M77.833054,460.018311 
	C79.090530,461.715851 80.024269,463.513519 80.986397,465.656586 
	C82.042458,467.515289 81.909691,469.153961 81.513893,470.810486 
	C78.333061,484.122742 77.221245,497.748230 75.367950,511.261871 
	C75.007812,513.887939 74.836327,516.576233 73.120323,519.227905 
	C61.761574,519.934814 50.748676,520.091736 39.317921,519.211609 
	C37.944134,517.888000 37.521137,516.454224 37.536346,514.923462 
	C37.638889,504.602905 36.824730,494.263245 38.081814,483.966766 
	C38.809116,478.009644 38.010246,471.966492 39.090302,465.586151 
	C39.757076,459.562592 39.458721,453.956360 39.566074,448.364807 
	C39.635986,444.723297 41.067623,442.806641 45.025833,443.330231 
	C47.955933,443.717834 50.964958,443.439850 54.225250,444.432861 
	C61.934830,446.679413 67.171860,451.735992 72.282669,457.035217 
	C73.681023,458.485107 74.770439,460.802094 77.833054,460.018311 
z"/>
<path fill="#CF9531" opacity="1.000000" stroke="none" 
	d="
M411.890106,472.522827 
	C368.522552,475.875854 330.736938,462.517334 298.303192,433.671051 
	C296.313934,431.901794 294.378906,430.071625 292.095703,428.142944 
	C291.747681,423.898285 291.872070,419.793610 292.974945,415.370483 
	C296.012604,413.619751 297.772736,415.969177 299.706085,417.242798 
	C311.207520,424.819641 322.411621,432.851440 335.471527,437.754425 
	C354.473969,444.888306 374.074677,448.525726 394.367584,448.700073 
	C398.298065,448.733826 402.187805,446.622650 406.423340,448.783600 
	C408.422485,456.753510 410.130219,464.442444 411.890106,472.522827 
z"/>
<path fill="#CDE9F7" opacity="1.000000" stroke="none" 
	d="
M273.928772,367.831238 
	C264.989929,356.983673 260.884491,343.510315 258.147858,329.874084 
	C252.213272,300.302856 254.897751,271.379883 267.463257,243.666992 
	C275.856628,225.155670 288.401093,209.788223 303.648010,196.076233 
	C306.259308,200.692062 308.590240,205.486465 310.956970,210.641266 
	C299.502167,220.999283 290.506073,232.934601 282.877716,246.085587 
	C273.932465,261.506866 268.920990,278.243256 265.434723,295.512604 
	C264.626617,299.515533 265.304321,303.795135 264.965240,307.920074 
	C263.469391,326.115173 266.967773,343.524963 273.034302,360.542145 
	C273.834473,362.786682 274.151550,365.033813 273.928772,367.831238 
z"/>
<path fill="#A5C2CD" opacity="1.000000" stroke="none" 
	d="
M320.708618,183.448883 
	C330.239929,178.130814 340.108856,173.747879 350.460785,170.726425 
	C380.097076,162.076355 409.675934,162.422272 438.825348,172.814072 
	C455.422668,178.731033 470.392761,187.579041 482.954163,200.650208 
	C477.077759,200.836777 472.683228,196.893143 467.842285,194.182022 
	C452.452576,185.563217 435.941345,180.445587 418.582825,178.017120 
	C392.597687,174.381790 367.838470,179.602966 343.852753,189.259476 
	C337.893463,191.658691 332.340729,195.067795 326.230133,198.088684 
	C323.351410,193.680832 321.988953,188.791138 320.708618,183.448883 
z"/>
<path fill="#E0F1FD" opacity="1.000000" stroke="none" 
	d="
M56.391476,445.913635 
	C51.917255,445.519806 47.757706,445.529541 43.784618,444.673676 
	C41.119141,444.099487 41.124435,445.128876 41.035656,447.003876 
	C40.764202,452.736969 41.652100,458.525909 40.179253,464.617493 
	C39.871140,465.117615 39.610878,465.203735 38.971619,465.131592 
	C34.589214,460.013397 34.768154,453.821320 33.773125,448.024109 
	C33.185696,444.601685 32.548889,441.172729 32.105232,437.729370 
	C31.700172,434.585571 30.153217,432.562744 27.115940,431.032135 
	C31.898275,423.006287 39.261578,417.911896 46.785378,413.245544 
	C55.476200,407.855408 64.636749,403.225769 73.555832,398.199341 
	C78.198769,395.582825 83.067368,393.713409 88.798737,393.111816 
	C82.800751,408.441101 75.373260,423.298950 68.203056,438.644318 
	C66.137131,445.162720 64.114510,446.400238 56.391476,445.913635 
z"/>
<path fill="#9ADBF9" opacity="1.000000" stroke="none" 
	d="
M26.588503,430.805969 
	C30.766117,430.612335 32.371674,432.148438 33.260536,436.300934 
	C35.248367,445.587677 34.924187,455.355530 38.968945,464.594116 
	C36.070934,481.142914 36.313038,497.468109 36.711182,513.799072 
	C36.747227,515.277527 37.137405,516.761169 36.254181,518.583618 
	C28.919027,518.339111 25.029095,513.852905 23.061718,507.614563 
	C20.174604,498.459900 17.625904,489.196747 15.030747,479.952362 
	C13.112861,473.120514 11.278221,466.276245 9.725984,459.333435 
	C8.504535,453.870148 9.415911,449.488037 12.811886,445.463531 
	C17.069223,440.418304 20.781757,434.849884 26.588503,430.805969 
z"/>
<path fill="#F9B240" opacity="1.000000" stroke="none" 
	d="
M406.735352,448.668823 
	C402.680878,448.386292 398.848114,450.044373 394.841888,450.022736 
	C360.659027,449.837921 329.339294,440.823364 301.708618,420.191711 
	C299.193542,418.313690 296.432434,416.765106 293.441711,415.020081 
	C293.372955,409.638031 294.128754,404.369110 295.680481,398.889893 
	C316.508972,416.954315 339.861206,429.725159 367.183502,434.713562 
	C379.056580,436.881287 391.002808,436.721008 403.423920,436.202301 
	C404.833649,440.241699 405.794800,444.257355 406.735352,448.668823 
z"/>
<path fill="#B7E4FA" opacity="1.000000" stroke="none" 
	d="
M687.740112,328.578308 
	C682.390930,340.541290 677.473816,352.611115 672.240417,364.855560 
	C665.888672,362.576477 661.351746,357.780609 655.657654,354.725037 
	C647.028870,350.094666 638.699951,344.908539 630.178162,340.074127 
	C627.128601,338.344055 626.412537,336.812164 629.341614,334.155182 
	C634.807007,329.197449 640.688049,325.764801 648.445190,325.980621 
	C658.258179,326.253601 668.084534,326.051361 677.905090,326.048126 
	C681.687012,326.046906 685.352905,326.647186 688.953979,328.472229 
	C688.756836,328.786987 688.464478,328.736084 687.740112,328.578308 
z"/>
<path fill="#9ADBF8" opacity="1.000000" stroke="none" 
	d="
M73.248917,519.630676 
	C75.483437,501.927643 76.440346,484.084991 81.011124,466.404114 
	C89.171310,477.046936 97.336128,488.085846 105.480843,499.139526 
	C109.508575,504.605804 113.143478,510.393066 118.730873,514.985352 
	C115.163857,519.235107 109.863289,519.585449 104.903366,519.763123 
	C94.522774,520.135071 84.117043,519.805725 73.248917,519.630676 
z"/>
<path fill="#E0F2FC" opacity="1.000000" stroke="none" 
	d="
M204.152588,443.354858 
	C214.030319,437.690430 223.974533,432.161377 234.124878,427.040894 
	C238.815109,424.674866 243.107162,421.487274 248.596375,419.968018 
	C244.056808,431.558289 238.611450,442.906250 232.901169,454.129486 
	C232.226517,455.455444 231.187271,456.210480 229.662674,455.748871 
	C220.598831,453.004547 211.896271,449.491394 204.152588,443.354858 
z"/>
<path fill="#9ADBF8" opacity="1.000000" stroke="none" 
	d="
M36.361122,519.003052 
	C34.442558,506.491058 34.453442,494.024139 35.849033,481.530914 
	C36.214012,478.263672 36.027458,474.927185 35.980560,471.624084 
	C35.945820,469.177246 36.419407,467.028900 38.804001,465.269348 
	C39.204529,464.980865 39.389534,464.992035 39.852974,465.017334 
	C40.068718,470.536957 40.516369,476.105957 39.839668,481.534882 
	C38.318027,493.742432 39.418301,505.965302 38.930416,518.649170 
	C38.170185,519.100830 37.446178,519.072327 36.361122,519.003052 
z"/>
<path fill="#9ADBF8" opacity="1.000000" stroke="none" 
	d="
M664.264526,383.840576 
	C666.694641,389.904846 668.801331,396.090973 670.957886,402.650024 
	C663.982300,399.791718 659.016418,394.353485 654.867188,387.664734 
	C658.290466,387.360138 661.533936,386.792358 664.264526,383.840576 
z"/>
<path fill="#C9AA6A" opacity="1.000000" stroke="none" 
	d="
M259.124634,375.346985 
	C263.813629,375.902313 264.772675,380.170319 266.930969,383.817200 
	C266.749298,385.737183 266.252411,387.227631 264.455566,388.286194 
	C262.459198,384.184662 260.783752,379.954803 259.124634,375.346985 
z"/>
<path fill="#B7E4FA" opacity="1.000000" stroke="none" 
	d="
M690.750671,330.802856 
	C690.204590,330.581940 689.710693,330.047150 689.184448,329.234344 
	C690.072876,329.068146 690.752197,329.440002 690.750671,330.802856 
z"/>
<path fill="#B7E4FA" opacity="1.000000" stroke="none" 
	d="
M694.600281,336.952271 
	C694.045471,336.681854 693.614075,336.103241 693.173218,335.249695 
	C694.127563,335.116486 694.813904,335.517456 694.600281,336.952271 
z"/>
<path fill="#B7E4FA" opacity="1.000000" stroke="none" 
	d="
M691.632935,331.927795 
	C691.330994,332.095093 691.118469,331.930023 690.914795,331.476868 
	C691.224426,331.208405 691.490601,331.343933 691.632935,331.927795 
z"/>
<path fill="#B5D8F3" opacity="1.000000" stroke="none" 
	d="
M145.008606,136.012436 
	C145.092911,135.973022 145.168259,135.922180 145.109924,135.927612 
	C144.976242,135.983871 144.999634,136.001022 145.008606,136.012436 
z"/>
<path fill="#B7E4FA" opacity="1.000000" stroke="none" 
	d="
M692.479370,333.052979 
	C692.172180,333.142548 692.011475,332.957001 691.851379,332.551270 
	C692.060669,332.522614 692.318665,332.671509 692.479370,333.052979 
z"/>
<path fill="#515456" opacity="1.000000" stroke="none" 
	d="
M430.600220,247.580765 
	C436.858612,240.414536 442.922272,233.546997 448.930786,226.631546 
	C453.302460,221.600052 455.580566,227.339340 458.312500,228.758621 
	C461.628204,230.481171 458.106812,232.029953 457.105530,233.179199 
	C440.256439,252.517517 423.515656,271.957611 406.273010,290.941162 
	C401.019562,296.725067 402.607666,303.615295 406.807037,311.052856 
	C412.703918,321.496765 418.930878,331.754547 425.037537,342.079559 
	C428.380615,347.731873 428.399933,347.720398 422.708191,351.269318 
	C414.152008,356.604279 414.035400,356.675537 408.695740,347.930054 
	C404.096191,340.396667 399.668152,332.750366 395.417572,325.014771 
	C392.100922,318.978821 388.405609,313.344513 383.169922,308.747101 
	C379.607330,305.618835 378.181244,301.484955 380.200897,297.010223 
	C382.126160,292.744690 384.514313,288.572754 390.374115,289.162506 
	C393.089569,289.435791 395.018646,288.294617 396.820343,286.213654 
	C407.940155,273.370422 419.181152,260.632111 430.600220,247.580765 
z"/>
<path fill="#545E60" opacity="1.000000" stroke="none" 
	d="
M430.657654,210.216278 
	C430.792206,204.516876 433.797882,200.080719 436.128906,195.376099 
	C437.513428,192.581650 439.556641,194.198730 441.277374,194.708069 
	C443.674133,195.417496 442.940277,197.149689 442.220093,198.731354 
	C440.980804,201.453049 439.489685,204.086685 438.528778,206.902161 
	C437.164001,210.900894 435.146881,212.844910 430.657654,210.216278 
z"/>
<path fill="#4E5C65" opacity="1.000000" stroke="none" 
	d="
M489.553711,349.301880 
	C486.843811,347.970032 484.422455,346.889618 482.118958,345.598846 
	C480.927155,344.931061 478.581512,344.843658 479.007629,343.055847 
	C479.412323,341.358002 481.464996,340.023621 483.192169,340.123810 
	C488.262543,340.417969 492.730316,342.845001 496.867737,345.505219 
	C498.891785,346.806610 497.030121,349.224518 496.345428,350.918823 
	C495.561859,352.857849 494.115753,351.364502 493.016205,350.968811 
	C491.934326,350.579529 490.929657,349.975800 489.553711,349.301880 
z"/>
<path fill="#545E60" opacity="1.000000" stroke="none" 
	d="
M340.405487,404.333771 
	C341.345245,399.435638 343.946564,395.547028 345.889771,391.360992 
	C347.153961,388.637695 349.281342,389.000031 351.337280,389.716248 
	C353.945038,390.624725 352.314148,392.443024 351.803864,393.810211 
	C350.705353,396.753418 349.249420,399.569916 348.255066,402.543701 
	C346.675629,407.267242 344.254944,408.115753 340.405487,404.333771 
z"/>
<path fill="#545E60" opacity="1.000000" stroke="none" 
	d="
M295.217499,252.001465 
	C297.361420,252.986374 299.138428,253.866211 300.959747,254.641953 
	C302.785522,255.419601 304.269897,256.129089 302.796448,258.572876 
	C301.596649,260.562836 300.706024,262.202209 297.888153,260.741425 
	C294.377411,258.921417 290.659698,257.504120 287.060699,255.849121 
	C285.801117,255.269897 283.833893,254.926346 284.885376,252.811142 
	C285.732025,251.107910 286.494293,248.967392 289.246552,249.982346 
	C291.098846,250.665390 292.994019,251.232010 295.217499,252.001465 
z"/>
<path fill="#96D9F5" opacity="1.000000" stroke="none" 
	d="
M56.200027,446.165100 
	C60.539066,444.923035 65.514420,444.737488 67.860840,439.175842 
	C71.963066,445.471191 75.292061,452.182922 78.071625,459.560730 
	C77.921097,461.914154 77.728279,464.062042 75.129219,461.525604 
	C72.049973,458.520569 69.020638,455.464417 65.965782,452.434326 
	C63.229427,449.720123 60.025608,447.750183 56.200027,446.165100 
z"/>
<path fill="#FFFFFF" opacity="1.000000" stroke="none" 
	d="
M687.333496,328.462494 
	C687.308044,328.471436 687.373230,328.437042 687.350159,328.421021 
	C687.327087,328.404999 687.358948,328.453552 687.333496,328.462494 
z"/>
</svg>