<svg xmlns="http://www.w3.org/2000/svg" xmlns:xlink="http://www.w3.org/1999/xlink" viewBox="0 0 37.91 32.2"><defs><style>.cls-1{fill:none;}.cls-2{isolation:isolate;}.cls-3{clip-path:url(#clip-path);}.cls-4{fill:#1e232b;}.cls-5{fill:#15161c;}.cls-6{fill:#222931;}.cls-7{fill:#232931;}.cls-8{fill:#181c22;}.cls-9{fill:#272e37;}.cls-10{fill:#d5c197;}.cls-11{fill:#81765d;}.cls-12{fill:#3f4a59;}</style><clipPath id="clip-path"><path class="cls-1" d="M29.27,6l0,14.18c0,1.51-1,3-3,4.19a16,16,0,0,1-14.56,0c-2-1.18-3-2.71-3-4.25l0-14.18c0,1.54,1,3.08,3,4.25a16,16,0,0,0,14.56,0C28.27,9,29.27,7.52,29.27,6Z"/></clipPath></defs><g id="Layer_2" data-name="Layer 2"><g id="Layer_1-2" data-name="Layer 1"><g class="cls-2"><g class="cls-2"><g class="cls-3"><g class="cls-2"><path class="cls-4" d="M29.27,6l0,14.18c0,1.51-1,3-3,4.19a16,16,0,0,1-14.56,0c-2-1.18-3-2.71-3-4.25l0-14.18c0,1.54,1,3.08,3,4.25a16,16,0,0,0,14.56,0c2-1.16,3-2.67,3-4.19Z"/></g><g class="cls-2"><path class="cls-5" d="M29.27,2.21l0,14.18c0,1.52-1,3-3,4.19a16,16,0,0,1-14.56,0c-2-1.17-3-2.71-3-4.25l0-14.17c0,1.53,1,3.07,3,4.24a16,16,0,0,0,14.56,0c2-1.16,3-2.67,3-4.19Z"/></g></g></g><path class="cls-6" d="M26.23,5.1c4,2.32,4.06,6.1.05,8.43a16,16,0,0,1-14.56,0c-4-2.33-4.06-6.11-.05-8.43A16,16,0,0,1,26.23,5.1Z"/></g><g class="cls-2"><polygon class="cls-7" points="37.91 10.98 37.91 11.61 19.02 22.59 19.02 21.96 37.91 10.98"/><polygon class="cls-8" points="19.02 21.96 19.02 22.59 0 11.61 0 10.98 19.02 21.96"/><polygon class="cls-9" points="37.91 10.98 19.02 21.96 0 10.98 18.89 0 37.91 10.98"/></g><path class="cls-10" d="M9.46,26.58a1.13,1.13,0,0,0-.07-.2l-.1-.19A1.09,1.09,0,0,0,9.14,26a.84.84,0,0,1-.08.33,2.71,2.71,0,0,1-.13.3,1.23,1.23,0,0,0,0,.18,1,1,0,0,0,.15.31A3.38,3.38,0,0,0,9.46,26.58Z"/><path class="cls-11" d="M9.56,26.84a2,2,0,0,0-.1-.26,3.38,3.38,0,0,1-.34.55l.06.24A3.39,3.39,0,0,0,9.56,26.84Z"/><path class="cls-10" d="M9.71,27.43a1.25,1.25,0,0,0,0-.2,2,2,0,0,0-.13-.39,3.39,3.39,0,0,1-.38.53s0,.09,0,.19a.74.74,0,0,0,.08.35A5.12,5.12,0,0,0,9.71,27.43Z"/><path class="cls-11" d="M9.75,27.71a2.36,2.36,0,0,0,0-.28,5.12,5.12,0,0,1-.44.48c0,.08,0,.17,0,.25C9.45,28,9.6,27.87,9.75,27.71Z"/><path class="cls-10" d="M9.8,28.3v-.05a.66.66,0,0,0,0-.15,1.32,1.32,0,0,0-.06-.39c-.15.16-.3.31-.46.45a1.38,1.38,0,0,0,0,.2,1,1,0,0,0,0,.37C9.47,28.59,9.64,28.45,9.8,28.3Z"/><path class="cls-11" d="M9.81,28.57V28.3c-.16.15-.33.29-.5.43V29Z"/><path class="cls-10" d="M9.82,29.15a2.22,2.22,0,0,0,0-.58l-.5.42a1.11,1.11,0,0,0,0,.57Z"/><polygon class="cls-11" points="9.82 29.41 9.82 29.15 9.31 29.56 9.31 29.82 9.82 29.41"/><path class="cls-10" d="M9.82,30a2,2,0,0,0,0-.58l-.51.41a1.11,1.11,0,0,0,0,.57Z"/><polygon class="cls-11" points="9.82 30.25 9.82 29.99 9.31 30.39 9.3 30.65 9.82 30.25"/><path class="cls-10" d="M9.81,30.83a2.28,2.28,0,0,0,0-.58l-.52.4a1.19,1.19,0,0,0,0,.57Z"/><path class="cls-10" d="M9,26.78l.09-.15.08-.15a.61.61,0,0,0,.07-.14,1.1,1.1,0,0,0-.31,0l-.32.07a1.74,1.74,0,0,0-.12.19.73.73,0,0,0-.1.39A3,3,0,0,1,9,26.78Z"/><path class="cls-11" d="M8.92,27A2.09,2.09,0,0,1,9,26.78a3,3,0,0,0-.61.22,2.68,2.68,0,0,0-.07.27A3.89,3.89,0,0,1,8.92,27Z"/><path class="cls-10" d="M8.78,27.53a1.51,1.51,0,0,0,.06-.18A3.38,3.38,0,0,0,8.92,27a3.89,3.89,0,0,0-.6.26,1.07,1.07,0,0,0-.07.2.65.65,0,0,0,0,.39A5.33,5.33,0,0,1,8.78,27.53Z"/><path class="cls-11" d="M8.75,27.77l0-.24a5.33,5.33,0,0,0-.55.33,2.4,2.4,0,0,0,0,.28A4.81,4.81,0,0,1,8.75,27.77Z"/><path class="cls-10" d="M8.7,28.32v-.05l0-.14a2.06,2.06,0,0,0,0-.36,4.81,4.81,0,0,0-.55.37s0,.08,0,.2a1,1,0,0,0,0,.38Z"/><path class="cls-11" d="M8.7,28.58v-.26l-.52.4V29Z"/><path class="cls-10" d="M8.69,29.15a2.19,2.19,0,0,0,0-.57l-.52.4a1.15,1.15,0,0,0,0,.58Z"/><polygon class="cls-11" points="8.68 29.41 8.69 29.15 8.18 29.56 8.18 29.82 8.68 29.41"/><path class="cls-10" d="M8.68,30a1.94,1.94,0,0,0,0-.57l-.5.41a1.16,1.16,0,0,0,0,.58Z"/><polygon class="cls-11" points="8.69 30.25 8.69 29.98 8.18 30.4 8.19 30.66 8.69 30.25"/><path class="cls-10" d="M8.7,30.82a2.14,2.14,0,0,0,0-.57l-.5.41a1.08,1.08,0,0,0,0,.58Z"/><path class="cls-10" d="M9.21,26.87a2.71,2.71,0,0,0,.09-.66l-.57.41a1.57,1.57,0,0,0-.07.67Z"/><polygon class="cls-11" points="9.18 27.18 9.21 26.87 8.66 27.29 8.62 27.6 9.18 27.18"/><path class="cls-10" d="M9.11,27.84a3.36,3.36,0,0,0,.07-.66l-.56.42a1.63,1.63,0,0,0-.06.67Z"/><path class="cls-11" d="M9.08,28.14l0-.3-.55.43,0,.31Z"/><path class="cls-10" d="M9,28.8a2.75,2.75,0,0,0,0-.66l-.54.44a1.54,1.54,0,0,0,0,.68C8.68,29.1,8.86,29,9,28.8Z"/><path class="cls-11" d="M9,29.11l0-.31c-.18.15-.36.3-.53.46v.31Z"/><path class="cls-10" d="M9,29.77a3.41,3.41,0,0,0,0-.66l-.52.46a1.55,1.55,0,0,0,0,.67Z"/><path class="cls-11" d="M9,30.07v-.3l-.52.47v.31Z"/><path class="cls-10" d="M9,30.74a2.69,2.69,0,0,0,0-.67l-.51.48a1.44,1.44,0,0,0,0,.67Z"/><polygon class="cls-11" points="8.99 31.05 8.99 30.74 8.49 31.22 8.49 31.53 8.99 31.05"/><path class="cls-10" d="M9,31.71A2.94,2.94,0,0,0,9,31l-.5.49a1.5,1.5,0,0,0,0,.67Z"/><path class="cls-10" d="M18,10.66a1.22,1.22,0,0,1,.46-.26l0,.84a.64.64,0,0,1-.46.26Z"/><polygon class="cls-11" points="17.83 10.78 18.04 10.66 18.08 11.5 17.87 11.62 17.83 10.78"/><path class="cls-10" d="M17.36,11a1.3,1.3,0,0,1,.47-.26l0,.84a.71.71,0,0,1-.46.27Z"/><polygon class="cls-11" points="17.15 11.16 17.36 11.04 17.41 11.89 17.19 12.01 17.15 11.16"/><path class="cls-10" d="M16.69,11.43a1.33,1.33,0,0,1,.46-.27l0,.85a.67.67,0,0,1-.46.26Z"/><polygon class="cls-11" points="16.48 11.55 16.69 11.43 16.73 12.27 16.52 12.39 16.48 11.55"/><path class="cls-10" d="M16,11.81a1.2,1.2,0,0,1,.47-.26l0,.84a.68.68,0,0,1-.47.26Z"/><polygon class="cls-11" points="15.8 11.93 16.01 11.81 16.05 12.65 15.84 12.77 15.8 11.93"/><path class="cls-10" d="M15.34,12.2a1.18,1.18,0,0,1,.46-.27l0,.84a.67.67,0,0,1-.46.27Z"/><polygon class="cls-11" points="15.13 12.32 15.34 12.2 15.38 13.04 15.17 13.16 15.13 12.32"/><path class="cls-10" d="M14.66,12.58a1.2,1.2,0,0,1,.47-.26l0,.84a.68.68,0,0,1-.47.26Z"/><polygon class="cls-11" points="14.45 12.7 14.66 12.58 14.7 13.42 14.49 13.54 14.45 12.7"/><path class="cls-10" d="M14,13a1.22,1.22,0,0,1,.46-.26l0,.84a.71.71,0,0,1-.46.27Z"/><polygon class="cls-11" points="13.77 13.09 13.99 12.96 14.03 13.81 13.81 13.93 13.77 13.09"/><path class="cls-10" d="M13.31,13.35a1.33,1.33,0,0,1,.46-.27l0,.85a.64.64,0,0,1-.46.26Z"/><polygon class="cls-11" points="13.1 13.47 13.31 13.35 13.35 14.19 13.14 14.31 13.1 13.47"/><path class="cls-10" d="M12.63,13.73a1.3,1.3,0,0,1,.47-.26l0,.84a.67.67,0,0,1-.46.26Z"/><polygon class="cls-11" points="12.42 13.85 12.63 13.73 12.68 14.57 12.46 14.7 12.42 13.85"/><path class="cls-10" d="M12,14.12a1.18,1.18,0,0,1,.46-.27l0,.85A.67.67,0,0,1,12,15Z"/><polygon class="cls-11" points="11.75 14.24 11.96 14.12 12 14.96 11.79 15.08 11.75 14.24"/><path class="cls-10" d="M11.28,14.5a1.2,1.2,0,0,1,.47-.26l0,.84a.68.68,0,0,1-.47.26Z"/><polygon class="cls-11" points="11.07 14.62 11.28 14.5 11.32 15.34 11.11 15.46 11.07 14.62"/><path class="cls-10" d="M10.61,14.89a1.18,1.18,0,0,1,.46-.27l0,.84a.71.71,0,0,1-.46.27Z"/><polygon class="cls-11" points="10.4 15.01 10.61 14.88 10.65 15.73 10.44 15.85 10.4 15.01"/><path class="cls-10" d="M9.93,15.27A1.2,1.2,0,0,1,10.4,15l0,.84a.68.68,0,0,1-.47.26Z"/><polygon class="cls-11" points="9.72 15.39 9.93 15.27 9.97 16.11 9.76 16.23 9.72 15.39"/><path class="cls-10" d="M9.26,15.65a1.22,1.22,0,0,1,.46-.26l0,.84a.76.76,0,0,1-.14.14c-.06.05-.25.16-.25.08a.52.52,0,0,1-.09-.38Z"/><path class="cls-11" d="M9,15.77l.22-.12,0,.42a.52.52,0,0,0,.09.38h0v0a.92.92,0,0,1-.19-.13C9,16.22,9,16,9,15.77Z"/><path class="cls-10" d="M8.6,16.5a3.84,3.84,0,0,1,0-.49A3.51,3.51,0,0,1,9,15.77c0,.23,0,.45.12.58a.92.92,0,0,0,.19.13s0,0,.05.05a.48.48,0,0,1-.05.35Z"/><polygon class="cls-11" points="8.6 16.75 8.6 16.5 9.35 16.88 9.35 17.13 8.6 16.75"/><path class="cls-10" d="M8.6,17.28a1.22,1.22,0,0,1,0-.53l.75.38a.68.68,0,0,1,0,.53Z"/><polygon class="cls-11" points="8.6 17.52 8.6 17.28 9.35 17.66 9.35 17.9 8.6 17.52"/><path class="cls-10" d="M8.6,18.06a1.26,1.26,0,0,1,0-.54l.75.38a.71.71,0,0,1,0,.54Z"/><polygon class="cls-11" points="8.6 18.3 8.6 18.06 9.35 18.44 9.35 18.68 8.6 18.3"/><path class="cls-10" d="M8.6,18.83a1.21,1.21,0,0,1,0-.53l.75.38a.69.69,0,0,1,0,.53Z"/><polygon class="cls-11" points="8.6 19.08 8.6 18.83 9.35 19.21 9.35 19.46 8.6 19.08"/><path class="cls-10" d="M8.6,19.61a1.21,1.21,0,0,1,0-.53l.75.38a.68.68,0,0,1,0,.53Z"/><polygon class="cls-11" points="8.6 19.86 8.6 19.61 9.35 19.99 9.35 20.24 8.6 19.86"/><path class="cls-10" d="M8.6,20.39a1.26,1.26,0,0,1,0-.54l.75.39a.68.68,0,0,1,0,.53Z"/><polygon class="cls-11" points="8.6 20.63 8.6 20.39 9.35 20.77 9.35 21.01 8.6 20.63"/><path class="cls-10" d="M8.6,21.17a1.26,1.26,0,0,1,0-.54l.75.38a.71.71,0,0,1,0,.54Z"/><polygon class="cls-11" points="8.6 21.41 8.6 21.16 9.35 21.55 9.35 21.79 8.6 21.41"/><path class="cls-10" d="M8.6,21.94a1.21,1.21,0,0,1,0-.53l.75.38a.69.69,0,0,1,0,.53Z"/><polygon class="cls-11" points="8.6 22.19 8.6 21.94 9.35 22.32 9.35 22.57 8.6 22.19"/><path class="cls-10" d="M8.6,22.72a1.21,1.21,0,0,1,0-.53l.75.38a.68.68,0,0,1,0,.53Z"/><polygon class="cls-11" points="8.6 22.96 8.6 22.72 9.35 23.1 9.35 23.34 8.6 22.96"/><path class="cls-10" d="M8.6,23.5a1.26,1.26,0,0,1,0-.54l.75.38a.71.71,0,0,1,0,.54Z"/><polygon class="cls-11" points="8.6 23.74 8.6 23.5 9.35 23.88 9.35 24.12 8.6 23.74"/><path class="cls-10" d="M8.6,24.27a1.21,1.21,0,0,1,0-.53l.75.38a.71.71,0,0,1,0,.54Z"/><polygon class="cls-11" points="8.6 24.52 8.6 24.27 9.35 24.66 9.35 24.9 8.6 24.52"/><path class="cls-10" d="M8.6,25.05a1.21,1.21,0,0,1,0-.53l.75.38a.68.68,0,0,1,0,.53Z"/><polygon class="cls-11" points="8.6 25.3 8.6 25.05 9.35 25.43 9.35 25.68 8.6 25.3"/><path class="cls-10" d="M8.6,25.83a1.22,1.22,0,0,1,0-.53l.75.38a.68.68,0,0,1,0,.53Z"/><polygon class="cls-11" points="8.6 26.07 8.6 25.83 9.35 26.21 9.35 26.45 8.6 26.07"/><path class="cls-12" d="M20.34,11.51a3.05,3.05,0,0,1-2.76,0c-.77-.45-.77-1.16,0-1.6a3.07,3.07,0,0,1,2.77,0C21.1,10.36,21.11,11.07,20.34,11.51Z"/></g></g></svg>