<svg width="21" height="21" viewBox="0 0 21 21" fill="none" xmlns="http://www.w3.org/2000/svg">
<path d="M18.3542 0.229492L20.7709 2.64616L2.64591 20.7712L0.229248 18.3545L18.3542 0.229492ZM4.45841 0.833659C6.46425 0.833659 8.08341 2.45283 8.08341 4.45866C8.08341 6.46449 6.46425 8.08366 4.45841 8.08366C2.45258 8.08366 0.833415 6.46449 0.833415 4.45866C0.833415 2.45283 2.45258 0.833659 4.45841 0.833659ZM16.5417 12.917C18.5476 12.917 20.1667 14.5362 20.1667 16.542C20.1667 18.5478 18.5476 20.167 16.5417 20.167C14.5359 20.167 12.9167 18.5478 12.9167 16.542C12.9167 14.5362 14.5359 12.917 16.5417 12.917ZM4.45841 3.25033C3.79383 3.25033 3.25008 3.79408 3.25008 4.45866C3.25008 5.12324 3.79383 5.66699 4.45841 5.66699C5.123 5.66699 5.66675 5.12324 5.66675 4.45866C5.66675 3.79408 5.123 3.25033 4.45841 3.25033ZM16.5417 15.3337C15.8772 15.3337 15.3334 15.8774 15.3334 16.542C15.3334 17.2066 15.8772 17.7503 16.5417 17.7503C17.2063 17.7503 17.7501 17.2066 17.7501 16.542C17.7501 15.8774 17.2063 15.3337 16.5417 15.3337Z" fill="white"/>
</svg>
