<svg width="290" height="283" viewBox="0 0 290 283" fill="none" xmlns="http://www.w3.org/2000/svg">
<path d="M103.645 57C102.712 57 101.78 57.7459 101.22 58.6783L83.6909 92.4318C83.3179 93.3642 82.3855 94.1101 81.2666 94.1101H54.9725C39.4944 94.1101 27 106.605 27 122.083V204.322C27 205.254 27.7459 206 28.6783 206H174.322C175.254 206 176 205.254 176 204.322V95.975C176 94.8561 175.254 94.2966 174.322 94.2966H159.217C158.284 94.2966 157.352 93.5507 156.792 92.6183L139.263 58.8648C138.703 57.9324 137.957 57.1865 136.839 57.1865H103.085L103.645 57ZM55.3454 112.945C60.567 112.945 64.6696 117.048 64.6696 122.269C64.6696 127.491 60.567 131.593 55.3454 131.593C50.1239 131.593 46.0213 127.491 46.0213 122.269C46.0213 117.048 50.1239 112.945 55.3454 112.945ZM120.615 112.945C141.128 112.945 157.911 129.728 157.911 150.242C157.911 170.755 141.128 187.538 120.615 187.538C100.101 187.538 83.3179 170.755 83.3179 150.242C83.3179 129.728 100.101 112.945 120.615 112.945ZM120.615 131.593C110.358 131.593 101.966 139.985 101.966 150.242C101.966 160.498 110.358 168.89 120.615 168.89C130.871 168.89 139.263 160.498 139.263 150.242C139.263 139.985 130.871 131.593 120.615 131.593Z" fill="white"/>
<path d="M257.869 61.6812L177.869 94.2393C176.739 94.6992 176 95.7978 176 97.018V203.644C176 205.027 176.945 206.231 178.288 206.559L258.288 226.094C260.178 226.555 262 225.124 262 223.179V64.4599C262 62.3298 259.842 60.8782 257.869 61.6812Z" stroke="white" stroke-width="2"/>
</svg>
