<svg xmlns="http://www.w3.org/2000/svg" viewBox="0 0 289.06 414.57"><defs><style>.cls-1{isolation:isolate;}.cls-2{opacity:0.5;}.cls-2,.cls-8{mix-blend-mode:soft-light;}.cls-3,.cls-9{fill:none;stroke-linecap:round;stroke-linejoin:round;stroke-width:10px;}.cls-3{stroke:#000;}.cls-4{fill:#fff;}.cls-5{fill:#fed235;}.cls-6{fill:#4d8699;}.cls-7{fill:#1f414c;}.cls-9{stroke:#fff;}</style></defs><g class="cls-1"><g id="Layer_2" data-name="Layer 2"><g id="OBJECTS"><g class="cls-2"><path d="M249.84,44.76C227.86,21.13,195.06,8.08,157.49,8h-.06C119.82,7.94,87,20.88,64.89,44.44c-20.53,21.92-30.2,51.11-28,84.42A133.41,133.41,0,0,0,51.2,181c3.35,6.57,7.79,12.85,12.48,19.51C74.61,216,87,233.55,89.36,260.21a31.91,31.91,0,0,0,6.47,16.55,26.1,26.1,0,0,0-4.65,34.38V312a26.09,26.09,0,0,0,1.51,31.33,31,31,0,0,0,26.82,21.17,43.11,43.11,0,0,0,74.45.15A31,31,0,0,0,219.52,347a26.09,26.09,0,0,0,4.7-35.13,26.09,26.09,0,0,0-5.4-35.82,31.76,31.76,0,0,0,5.83-15.6c2.45-26.65,14.9-44.19,25.88-59.66,4.72-6.64,9.17-12.91,12.55-19.47a133.57,133.57,0,0,0,14.44-52C279.86,96,270.29,66.75,249.84,44.76Z"/><path d="M66.66,173.07c10.13,19.84,36.17,42.38,40,85.61a15.24,15.24,0,0,0,15,13.58l35.38.06,35.38.06a15.23,15.23,0,0,0,15-13.54c4-43.22,30.08-65.67,40.28-85.48A116.64,116.64,0,0,0,260.21,128C264.68,64.49,218.8,25.46,157.4,25.36S50,64.14,54.25,127.7A116.56,116.56,0,0,0,66.66,173.07Z"/><circle cx="156.78" cy="342.81" r="25.8"/><rect x="122.98" y="265.18" width="67.72" height="96.61" rx="13.57" transform="translate(-156.96 469.69) rotate(-89.88)"/><path d="M202.88,305.54l-90-.19a8.79,8.79,0,0,1-8.77-8.8h0a8.79,8.79,0,0,1,8.81-8.78l90,.19a8.79,8.79,0,0,1,8.77,8.8h0A8.79,8.79,0,0,1,202.88,305.54Z"/><path d="M202.82,335.66l-90-.18a8.79,8.79,0,0,1-8.77-8.81h0a8.79,8.79,0,0,1,8.81-8.77l90,.18a8.8,8.8,0,0,1,8.77,8.81h0A8.79,8.79,0,0,1,202.82,335.66Z"/><path d="M160.63,25.44C100.77,26.62,56.35,65.26,60.55,127.77A116.51,116.51,0,0,0,73,173.13c10.13,19.84,36.17,42.38,40,85.61a15.24,15.24,0,0,0,14.83,13.59h-6.21a15.24,15.24,0,0,1-15-13.59c-3.83-43.23-29.87-65.77-40-85.61a116.73,116.73,0,0,1-12.4-45.37C49.94,64.19,96,25.3,157.35,25.4Z"/><path d="M159.86,368.46a25.33,25.33,0,0,1-3.17.2,25.8,25.8,0,0,1-25.35-21.31h6.34A25.79,25.79,0,0,0,159.86,368.46Z"/><path d="M128.48,279.62a13.57,13.57,0,0,0-12.77,8.94,8.78,8.78,0,0,0-.85,15.72l0,14.81a8.8,8.8,0,0,0,0,15.34,13.56,13.56,0,0,0,13.51,12.91H122a13.58,13.58,0,0,1-13.52-12.92,8.65,8.65,0,0,1-1.93-1.47,8.79,8.79,0,0,1,1.93-13.87l0-14.8a8.79,8.79,0,0,1,.86-15.73,13.56,13.56,0,0,1,12.77-8.93Z"/><path d="M260.23,128.05a116.86,116.86,0,0,1-12.57,45.33c-10.19,19.81-36.3,42.26-40.27,85.48a15.24,15.24,0,0,1-15,13.53l-9.35,0a15.23,15.23,0,0,0,15-13.53c4-43.22,30.08-65.67,40.27-85.48A116.69,116.69,0,0,0,250.88,128c4.36-61.91-39.08-100.55-98.09-102.58,1.53-.06,3.07-.08,4.62-.08C218.82,25.47,264.7,64.5,260.23,128.05Z"/><path d="M182.18,347.41a25.81,25.81,0,0,1-22.43,21l.13,0a23.67,23.67,0,0,1-3.17.2,25.18,25.18,0,0,1-4.79-.46,25.85,25.85,0,0,0,20.92-20.81Z"/><path d="M211.71,296.78a8.78,8.78,0,0,1-6.53,8.46l0,13.17a8.78,8.78,0,0,1-.12,17,13.57,13.57,0,0,1-13.51,12l-9.34,0a13.56,13.56,0,0,0,13.5-12,8.78,8.78,0,0,0,.12-17l0-13.17a8.77,8.77,0,0,0-1-17.17,13.59,13.59,0,0,0-12.48-8.35l9.32,0a13.58,13.58,0,0,1,12.51,8.35A8.8,8.8,0,0,1,211.71,296.78Z"/><path class="cls-3" d="M63.06,326.59a50.17,50.17,0,0,1,2.36-15.06,49.61,49.61,0,0,1-2.29-15.07"/><path class="cls-3" d="M201.23,392.59a66.26,66.26,0,0,1-44.59,17"/><path class="cls-3" d="M250.29,311.91a49.73,49.73,0,0,1-11.8,49.64A54.77,54.77,0,0,1,222.08,379"/><path class="cls-3" d="M251.58,246.39a70.14,70.14,0,0,0-3.42,16.2,55.67,55.67,0,0,1-1.82,9.85"/><path class="cls-3" d="M284.06,192.11c-4.14,8-9.29,15.31-14.28,22.33-1.77,2.5-3.53,5-5.23,7.47"/><path class="cls-3" d="M24.73,179.83a157.75,157.75,0,0,1-11.36-49.39c-2.68-40,9.18-75.32,34.29-102.14"/><path class="cls-3" d="M44.38,214.07c-2.48-3.52-5-7.1-7.42-10.8"/></g><path class="cls-4" d="M241.84,36.76C219.86,13.13,187.06.08,149.49,0h-.06C111.82-.06,79,12.88,56.89,36.44c-20.53,21.92-30.2,51.11-28,84.42A133.41,133.41,0,0,0,43.2,173c3.35,6.57,7.79,12.85,12.48,19.51C66.61,208,79,225.55,81.36,252.21a31.91,31.91,0,0,0,6.47,16.55,26.1,26.1,0,0,0-4.65,34.38V304a26.09,26.09,0,0,0,1.51,31.33,31,31,0,0,0,26.82,21.17,43.11,43.11,0,0,0,74.45.15A31,31,0,0,0,211.52,339a26.09,26.09,0,0,0,4.7-35.13,26.09,26.09,0,0,0-5.4-35.82,31.76,31.76,0,0,0,5.83-15.6c2.45-26.65,14.9-44.19,25.88-59.66,4.72-6.64,9.17-12.91,12.55-19.47a133.57,133.57,0,0,0,14.44-52C271.86,88,262.29,58.75,241.84,36.76Z"/><path class="cls-5" d="M58.66,165.07c10.13,19.84,36.17,42.38,40,85.61a15.24,15.24,0,0,0,15,13.58l35.38.06,35.38.06a15.23,15.23,0,0,0,15-13.54c4-43.22,30.08-65.67,40.28-85.48A116.64,116.64,0,0,0,252.21,120C256.68,56.49,210.8,17.46,149.4,17.36S42,56.14,46.25,119.7A116.56,116.56,0,0,0,58.66,165.07Z"/><circle class="cls-6" cx="148.78" cy="334.81" r="25.8"/><rect class="cls-7" x="114.98" y="257.18" width="67.72" height="96.61" rx="13.57" transform="translate(-156.95 453.71) rotate(-89.88)"/><path class="cls-6" d="M194.88,297.54l-90-.19a8.79,8.79,0,0,1-8.77-8.8h0a8.79,8.79,0,0,1,8.81-8.78l90,.19a8.79,8.79,0,0,1,8.77,8.8h0A8.79,8.79,0,0,1,194.88,297.54Z"/><path class="cls-6" d="M194.82,327.66l-90-.18A8.79,8.79,0,0,1,96,318.67h0a8.79,8.79,0,0,1,8.81-8.77l90,.18a8.8,8.8,0,0,1,8.77,8.81h0A8.79,8.79,0,0,1,194.82,327.66Z"/><g class="cls-8"><path class="cls-4" d="M152.63,17.44C92.77,18.62,48.35,57.26,52.55,119.77A116.51,116.51,0,0,0,65,165.13c10.13,19.84,36.17,42.38,40,85.61a15.24,15.24,0,0,0,14.83,13.59h-6.21a15.24,15.24,0,0,1-15-13.59c-3.83-43.23-29.87-65.77-40-85.61a116.73,116.73,0,0,1-12.4-45.37C41.94,56.19,88,17.3,149.35,17.4Z"/><path class="cls-4" d="M151.86,360.46a25.33,25.33,0,0,1-3.17.2,25.8,25.8,0,0,1-25.35-21.31h6.34A25.79,25.79,0,0,0,151.86,360.46Z"/><path class="cls-4" d="M120.48,271.62a13.57,13.57,0,0,0-12.77,8.94,8.78,8.78,0,0,0-.85,15.72l0,14.81a8.8,8.8,0,0,0,0,15.34,13.56,13.56,0,0,0,13.51,12.91H114a13.58,13.58,0,0,1-13.52-12.92,8.65,8.65,0,0,1-1.93-1.47,8.79,8.79,0,0,1,1.93-13.87l0-14.8a8.79,8.79,0,0,1,.86-15.73,13.56,13.56,0,0,1,12.77-8.93Z"/></g><g class="cls-8"><path d="M252.23,120.05a116.86,116.86,0,0,1-12.57,45.33c-10.19,19.81-36.3,42.26-40.27,85.48a15.24,15.24,0,0,1-15,13.53l-9.35,0a15.23,15.23,0,0,0,15-13.53c4-43.22,30.08-65.67,40.27-85.48A116.69,116.69,0,0,0,242.88,120c4.36-61.91-39.08-100.55-98.09-102.58,1.53-.06,3.07-.08,4.62-.08C210.82,17.47,256.7,56.5,252.23,120.05Z"/><path d="M174.18,339.41a25.81,25.81,0,0,1-22.43,21l.13,0a23.67,23.67,0,0,1-3.17.2,25.18,25.18,0,0,1-4.79-.46,25.85,25.85,0,0,0,20.92-20.81Z"/><path d="M203.71,288.78a8.78,8.78,0,0,1-6.53,8.46l0,13.17a8.78,8.78,0,0,1-.12,17,13.57,13.57,0,0,1-13.51,12l-9.34,0a13.56,13.56,0,0,0,13.5-12,8.78,8.78,0,0,0,.12-17l0-13.17a8.77,8.77,0,0,0-1-17.17,13.59,13.59,0,0,0-12.48-8.35l9.32,0a13.58,13.58,0,0,1,12.51,8.35A8.8,8.8,0,0,1,203.71,288.78Z"/></g><path class="cls-9" d="M55.06,318.59a50.17,50.17,0,0,1,2.36-15.06,49.61,49.61,0,0,1-2.29-15.07"/><path class="cls-9" d="M193.23,384.59a66.26,66.26,0,0,1-44.59,17"/><path class="cls-9" d="M242.29,303.91a49.73,49.73,0,0,1-11.8,49.64A54.77,54.77,0,0,1,214.08,371"/><path class="cls-9" d="M243.58,238.39a70.14,70.14,0,0,0-3.42,16.2,55.67,55.67,0,0,1-1.82,9.85"/><path class="cls-9" d="M276.06,184.11c-4.14,8-9.29,15.31-14.28,22.33-1.77,2.5-3.53,5-5.23,7.47"/><path class="cls-9" d="M16.73,171.83A157.75,157.75,0,0,1,5.37,122.44c-2.68-40,9.18-75.32,34.29-102.14"/><path class="cls-9" d="M36.38,206.07c-2.48-3.52-5-7.1-7.42-10.8"/></g></g></g></svg>