<svg xmlns="http://www.w3.org/2000/svg" xmlns:xlink="http://www.w3.org/1999/xlink" viewBox="0 0 87.98 102.76"><defs><style>.cls-1{mask:url(#mask);filter:url(#luminosity-noclip-12);}.cls-10,.cls-12,.cls-14,.cls-16,.cls-18,.cls-2,.cls-20,.cls-22,.cls-4,.cls-6,.cls-8{mix-blend-mode:multiply;}.cls-2{fill:url(#linear-gradient);}.cls-21,.cls-3{mask:url(#mask-2);}.cls-3{filter:url(#luminosity-noclip-17);}.cls-4{fill:url(#linear-gradient-2);}.cls-5{mask:url(#mask-3);filter:url(#luminosity-noclip-18);}.cls-6{fill:url(#linear-gradient-3);}.cls-7{mask:url(#mask-4);filter:url(#luminosity-noclip-19);}.cls-8{fill:url(#linear-gradient-4);}.cls-9{mask:url(#mask-5);filter:url(#luminosity-noclip-20);}.cls-10{fill:url(#linear-gradient-5);}.cls-11,.cls-13{mask:url(#mask-6);}.cls-11{filter:url(#luminosity-noclip-21);}.cls-12{fill:url(#linear-gradient-6);}.cls-13{filter:url(#luminosity-noclip-13);}.cls-14{fill:url(#linear-gradient-7);}.cls-15,.cls-19{mask:url(#mask-8);}.cls-15{filter:url(#luminosity-noclip-22);}.cls-16{fill:url(#linear-gradient-8);}.cls-17{mask:url(#mask-9);filter:url(#luminosity-noclip-14);}.cls-18{fill:url(#linear-gradient-9);}.cls-19{filter:url(#luminosity-noclip-15);}.cls-20{fill:url(#linear-gradient-10);}.cls-21{filter:url(#luminosity-noclip-16);}.cls-22{fill:url(#linear-gradient-11);}.cls-23{fill:#ff1f41;}.cls-24{isolation:isolate;}.cls-25{fill:#ff405d;}.cls-26{fill:#ff5f76;}.cls-27{clip-path:url(#clip-path);}.cls-28{clip-path:url(#clip-path-2);}.cls-29{fill:#fcfcfc;}.cls-30{clip-path:url(#clip-path-3);}.cls-31{clip-path:url(#clip-path-4);}.cls-32{fill:#75a5ff;}.cls-33{fill:#2e3442;}.cls-34{fill:#eef1f5;}.cls-35{fill:#40485c;}.cls-36{fill:#4d5c85;}.cls-37{fill:#516a87;}.cls-38{fill:#5e7a9c;}.cls-39{fill:#ffa698;}.cls-40{fill:#5e8fff;}.cls-41{fill:#202459;}.cls-42{fill:#007aa6;}.cls-43{mask:url(#mask-12);}.cls-44{fill:url(#linear-gradient-12);}.cls-45{mask:url(#mask-13);}.cls-46{fill:url(#linear-gradient-13);}.cls-47{mask:url(#mask-14);}.cls-48{fill:url(#linear-gradient-14);}.cls-49{mask:url(#mask-15);}.cls-50{fill:url(#linear-gradient-15);}.cls-51{mask:url(#mask-16);}.cls-52{fill:url(#linear-gradient-16);}.cls-53{mask:url(#mask-17);}.cls-54{fill:url(#linear-gradient-17);}.cls-55{mask:url(#mask-18);}.cls-56{fill:url(#linear-gradient-18);}.cls-57{mask:url(#mask-19);}.cls-58{fill:url(#linear-gradient-19);}.cls-59{mask:url(#mask-20);}.cls-60{fill:url(#linear-gradient-20);}.cls-61{mask:url(#mask-21);}.cls-62{fill:url(#linear-gradient-21);}.cls-63{fill:#8473ff;}.cls-64{fill:#44cafa;}.cls-65{fill:#21b7ed;}.cls-66{fill:#73d8ff;}.cls-67{fill:#fff;}.cls-68{fill:#cfd0e0;}.cls-69{fill:url(#linear-gradient-22);}.cls-70{fill:url(#linear-gradient-23);}.cls-71{fill:#c0baca;}.cls-72{fill:url(#linear-gradient-24);}.cls-73{fill:#d4d5e6;}.cls-74{fill:url(#linear-gradient-25);}.cls-75{fill:url(#linear-gradient-26);}.cls-76{fill:url(#linear-gradient-27);}.cls-77{fill:#003447;}.cls-78{fill:#0bf;}.cls-79{fill:url(#linear-gradient-28);}.cls-80{fill:url(#linear-gradient-29);}.cls-81{fill:url(#linear-gradient-30);}.cls-82{fill:url(#linear-gradient-31);}.cls-83{fill:url(#linear-gradient-32);}.cls-84{fill:url(#linear-gradient-33);}.cls-85{fill:url(#linear-gradient-34);}.cls-86{fill:url(#linear-gradient-35);}.cls-87{fill:url(#linear-gradient-36);}.cls-88{fill:url(#linear-gradient-37);}.cls-89{fill:url(#linear-gradient-38);}.cls-90{mask:url(#mask-22);}.cls-91{fill:url(#linear-gradient-39);}.cls-92{filter:url(#luminosity-noclip-9);}.cls-93{filter:url(#luminosity-noclip-8);}.cls-94{filter:url(#luminosity-noclip-6);}.cls-95{filter:url(#luminosity-noclip-5);}.cls-96{filter:url(#luminosity-noclip-4);}.cls-97{filter:url(#luminosity-noclip-3);}.cls-98{filter:url(#luminosity-noclip-2);}.cls-99{filter:url(#luminosity-noclip);}</style><filter id="luminosity-noclip" x="14.99" y="-8290.69" width="32.79" height="32766" filterUnits="userSpaceOnUse" color-interpolation-filters="sRGB"><feFlood flood-color="#fff" result="bg"/><feBlend in="SourceGraphic" in2="bg"/></filter><mask id="mask" x="14.99" y="-8290.69" width="32.79" height="32766" maskUnits="userSpaceOnUse"><g class="cls-99"/></mask><linearGradient id="linear-gradient" x1="31.38" y1="80.64" x2="31.38" y2="35.11" gradientUnits="userSpaceOnUse"><stop offset="0" stop-color="#cfcfcf"/><stop offset="0.19" stop-color="#959595"/><stop offset="0.4" stop-color="#606060"/><stop offset="0.58" stop-color="#363636"/><stop offset="0.75" stop-color="#191919"/><stop offset="0.9" stop-color="#060606"/><stop offset="1"/></linearGradient><filter id="luminosity-noclip-2" x="22.45" y="-8290.69" width="1.54" height="32766" filterUnits="userSpaceOnUse" color-interpolation-filters="sRGB"><feFlood flood-color="#fff" result="bg"/><feBlend in="SourceGraphic" in2="bg"/></filter><mask id="mask-2" x="22.45" y="-8290.69" width="1.54" height="32766" maskUnits="userSpaceOnUse"><g class="cls-98"/></mask><linearGradient id="linear-gradient-2" x1="23.22" y1="76.33" x2="23.22" y2="70.06" gradientUnits="userSpaceOnUse"><stop offset="0" stop-color="#5f5f5f"/><stop offset="1" stop-color="#393939"/></linearGradient><filter id="luminosity-noclip-3" x="40.76" y="-8290.69" width="1.54" height="32766" filterUnits="userSpaceOnUse" color-interpolation-filters="sRGB"><feFlood flood-color="#fff" result="bg"/><feBlend in="SourceGraphic" in2="bg"/></filter><mask id="mask-3" x="40.76" y="-8290.69" width="1.54" height="32766" maskUnits="userSpaceOnUse"><g class="cls-97"/></mask><linearGradient id="linear-gradient-3" x1="41.53" y1="67.08" x2="41.53" y2="62.48" gradientUnits="userSpaceOnUse"><stop offset="0" stop-color="#cfcfcf"/><stop offset="0.15" stop-color="#c5c5c5"/><stop offset="0.4" stop-color="#a9a9a9"/><stop offset="0.73" stop-color="#7c7c7c"/><stop offset="1" stop-color="#525252"/></linearGradient><filter id="luminosity-noclip-4" x="45.57" y="-8290.69" width="1.54" height="32766" filterUnits="userSpaceOnUse" color-interpolation-filters="sRGB"><feFlood flood-color="#fff" result="bg"/><feBlend in="SourceGraphic" in2="bg"/></filter><mask id="mask-4" x="45.57" y="-8290.69" width="1.54" height="32766" maskUnits="userSpaceOnUse"><g class="cls-96"/></mask><linearGradient id="linear-gradient-4" x1="46.34" y1="46.73" x2="46.34" y2="45.02" xlink:href="#linear-gradient-3"/><filter id="luminosity-noclip-5" x="45.52" y="-8290.69" width="1.64" height="32766" filterUnits="userSpaceOnUse" color-interpolation-filters="sRGB"><feFlood flood-color="#fff" result="bg"/><feBlend in="SourceGraphic" in2="bg"/></filter><mask id="mask-5" x="45.52" y="-8290.69" width="1.64" height="32766" maskUnits="userSpaceOnUse"><g class="cls-95"/></mask><linearGradient id="linear-gradient-5" x1="-4903.47" y1="132.2" x2="-4903.47" y2="129.13" gradientTransform="matrix(-1, -0.07, 0.07, -1, -4854.4, -166.48)" xlink:href="#linear-gradient-3"/><filter id="luminosity-noclip-6" x="16.23" y="-8290.69" width="1.54" height="32766" filterUnits="userSpaceOnUse" color-interpolation-filters="sRGB"><feFlood flood-color="#fff" result="bg"/><feBlend in="SourceGraphic" in2="bg"/></filter><mask id="mask-6" x="16.23" y="-8290.69" width="1.54" height="32766" maskUnits="userSpaceOnUse"><g class="cls-94"/></mask><linearGradient id="linear-gradient-6" x1="17" y1="75.11" x2="17" y2="72.04" xlink:href="#linear-gradient-3"/><linearGradient id="linear-gradient-7" x1="17" y1="69.73" x2="17" y2="59.66" gradientUnits="userSpaceOnUse"><stop offset="0" stop-color="#cfcfcf"/><stop offset="0.1" stop-color="#c5c5c5"/><stop offset="0.27" stop-color="#a9a9a9"/><stop offset="0.5" stop-color="#7b7b7b"/><stop offset="0.77" stop-color="#3d3d3d"/><stop offset="1"/></linearGradient><filter id="luminosity-noclip-8" x="36.23" y="-8290.69" width="1.54" height="32766" filterUnits="userSpaceOnUse" color-interpolation-filters="sRGB"><feFlood flood-color="#fff" result="bg"/><feBlend in="SourceGraphic" in2="bg"/></filter><mask id="mask-8" x="36.23" y="-8290.69" width="1.54" height="32766" maskUnits="userSpaceOnUse"><g class="cls-93"/></mask><linearGradient id="linear-gradient-8" x1="36.99" y1="73.95" x2="36.99" y2="69.35" gradientUnits="userSpaceOnUse"><stop offset="0" stop-color="#cfcfcf"/><stop offset="0.17" stop-color="#c5c5c5"/><stop offset="0.47" stop-color="#a9a9a9"/><stop offset="0.86" stop-color="#7c7c7c"/><stop offset="1" stop-color="#696969"/></linearGradient><filter id="luminosity-noclip-9" x="44.8" y="-8290.69" width="1.54" height="32766" filterUnits="userSpaceOnUse" color-interpolation-filters="sRGB"><feFlood flood-color="#fff" result="bg"/><feBlend in="SourceGraphic" in2="bg"/></filter><mask id="mask-9" x="44.8" y="-8290.69" width="1.54" height="32766" maskUnits="userSpaceOnUse"><g class="cls-92"/></mask><linearGradient id="linear-gradient-9" x1="45.57" y1="75.1" x2="45.57" y2="68.64" xlink:href="#linear-gradient-7"/><linearGradient id="linear-gradient-10" x1="36.99" y1="84.52" x2="36.99" y2="77.77" xlink:href="#linear-gradient-8"/><linearGradient id="linear-gradient-11" x1="23.22" y1="86.6" x2="23.22" y2="79.29" xlink:href="#linear-gradient-8"/><clipPath id="clip-path"><path class="cls-23" d="M81.06,27.6l.73.42a.86.86,0,0,0-.84.11l-.72-.42A.82.82,0,0,1,81.06,27.6Z"/></clipPath><clipPath id="clip-path-2"><path class="cls-23" d="M80.14,30.83l-.72-.42a.83.83,0,0,1-.32-.76,2.33,2.33,0,0,1,1.13-1.94l.72.42a2.32,2.32,0,0,0-1.12,1.94A.83.83,0,0,0,80.14,30.83Z"/></clipPath><clipPath id="clip-path-3"><path class="cls-23" d="M80.59,22.61l.72.42c.1.06.16.21.16.44,0,1.2-1.39,2.17-1.39,4.27l-.72-.43c0-2.09,1.38-3.06,1.38-4.26C80.74,22.81,80.69,22.67,80.59,22.61Z"/></clipPath><clipPath id="clip-path-4"><path class="cls-23" d="M82.43,20l.72.43c-.46-.27-1.19-.13-2.14.41a5.71,5.71,0,0,0-2.86,5l-.72-.42a5.68,5.68,0,0,1,2.86-5C81.23,19.85,82,19.71,82.43,20Z"/></clipPath><filter id="luminosity-noclip-12" x="14.99" y="34.61" width="32.79" height="58.09" filterUnits="userSpaceOnUse" color-interpolation-filters="sRGB"><feFlood flood-color="#fff" result="bg"/><feBlend in="SourceGraphic" in2="bg"/></filter><mask id="mask-12" x="14.99" y="34.61" width="32.79" height="58.09" maskUnits="userSpaceOnUse"><g class="cls-1"><path class="cls-2" d="M47.77,34.61H15V83.24h0c0,2.41,1.64,4.82,4.83,6.67,6.43,3.7,16.81,3.72,23.19,0,3.2-1.85,4.79-4.28,4.76-6.71h0Z"/></g></mask><linearGradient id="linear-gradient-12" x1="31.38" y1="80.64" x2="31.38" y2="35.11" gradientUnits="userSpaceOnUse"><stop offset="0" stop-color="#57d8ff"/><stop offset="0.56" stop-color="#46d7ff"/><stop offset="1" stop-color="#40d6ff"/></linearGradient><filter id="luminosity-noclip-13" x="16.23" y="59.66" width="1.54" height="10.07" filterUnits="userSpaceOnUse" color-interpolation-filters="sRGB"><feFlood flood-color="#fff" result="bg"/><feBlend in="SourceGraphic" in2="bg"/></filter><mask id="mask-13" x="16.23" y="59.66" width="1.54" height="10.07" maskUnits="userSpaceOnUse"><g class="cls-13"><path class="cls-14" d="M17,69.73h0a.76.76,0,0,1-.77-.77V60.43a.77.77,0,0,1,.77-.77h0a.77.77,0,0,1,.76.77V69A.76.76,0,0,1,17,69.73Z"/></g></mask><linearGradient id="linear-gradient-13" x1="17" y1="69.73" x2="17" y2="59.66" gradientUnits="userSpaceOnUse"><stop offset="0" stop-color="#57d8ff"/><stop offset="0.54" stop-color="#4dd7ff"/><stop offset="1" stop-color="#40d6ff"/></linearGradient><filter id="luminosity-noclip-14" x="44.8" y="68.64" width="1.54" height="6.46" filterUnits="userSpaceOnUse" color-interpolation-filters="sRGB"><feFlood flood-color="#fff" result="bg"/><feBlend in="SourceGraphic" in2="bg"/></filter><mask id="mask-14" x="44.8" y="68.64" width="1.54" height="6.46" maskUnits="userSpaceOnUse"><g class="cls-17"><path class="cls-18" d="M45.57,75.1h0a.77.77,0,0,1-.77-.76V69.41a.78.78,0,0,1,.77-.77h0a.78.78,0,0,1,.77.77v4.93A.77.77,0,0,1,45.57,75.1Z"/></g></mask><linearGradient id="linear-gradient-14" x1="45.57" y1="75.1" x2="45.57" y2="68.64" xlink:href="#linear-gradient-13"/><filter id="luminosity-noclip-15" x="36.23" y="77.77" width="1.54" height="6.75" filterUnits="userSpaceOnUse" color-interpolation-filters="sRGB"><feFlood flood-color="#fff" result="bg"/><feBlend in="SourceGraphic" in2="bg"/></filter><mask id="mask-15" x="36.23" y="77.77" width="1.54" height="6.75" maskUnits="userSpaceOnUse"><g class="cls-19"><path class="cls-20" d="M37,84.52h0a.77.77,0,0,1-.76-.77V78.54a.76.76,0,0,1,.76-.77h0a.76.76,0,0,1,.77.77v5.21A.77.77,0,0,1,37,84.52Z"/></g></mask><linearGradient id="linear-gradient-15" x1="36.99" y1="84.52" x2="36.99" y2="77.77" gradientUnits="userSpaceOnUse"><stop offset="0" stop-color="#57d8ff"/><stop offset="0.96" stop-color="#4dd7ff"/><stop offset="1" stop-color="#4cd7ff"/></linearGradient><filter id="luminosity-noclip-16" x="22.45" y="79.29" width="1.54" height="7.31" filterUnits="userSpaceOnUse" color-interpolation-filters="sRGB"><feFlood flood-color="#fff" result="bg"/><feBlend in="SourceGraphic" in2="bg"/></filter><mask id="mask-16" x="22.45" y="79.29" width="1.54" height="7.31" maskUnits="userSpaceOnUse"><g class="cls-21"><path class="cls-22" d="M23.22,86.6h0a.78.78,0,0,1-.77-.77V80.05a.77.77,0,0,1,.77-.76h0a.77.77,0,0,1,.77.76v5.78A.78.78,0,0,1,23.22,86.6Z"/></g></mask><linearGradient id="linear-gradient-16" x1="23.22" y1="86.6" x2="23.22" y2="79.29" xlink:href="#linear-gradient-15"/><filter id="luminosity-noclip-17" x="22.45" y="70.06" width="1.54" height="6.27" filterUnits="userSpaceOnUse" color-interpolation-filters="sRGB"><feFlood flood-color="#fff" result="bg"/><feBlend in="SourceGraphic" in2="bg"/></filter><mask id="mask-17" x="22.45" y="70.06" width="1.54" height="6.27" maskUnits="userSpaceOnUse"><g class="cls-3"><path class="cls-4" d="M23.22,76.33h0a.78.78,0,0,1-.77-.77V70.83a.77.77,0,0,1,.77-.77h0a.77.77,0,0,1,.77.77v4.73A.78.78,0,0,1,23.22,76.33Z"/></g></mask><linearGradient id="linear-gradient-17" x1="23.22" y1="76.33" x2="23.22" y2="70.06" gradientUnits="userSpaceOnUse"><stop offset="0" stop-color="#4bd8ff"/><stop offset="1" stop-color="#46d7ff"/></linearGradient><filter id="luminosity-noclip-18" x="40.76" y="62.48" width="1.54" height="4.6" filterUnits="userSpaceOnUse" color-interpolation-filters="sRGB"><feFlood flood-color="#fff" result="bg"/><feBlend in="SourceGraphic" in2="bg"/></filter><mask id="mask-18" x="40.76" y="62.48" width="1.54" height="4.6" maskUnits="userSpaceOnUse"><g class="cls-5"><rect class="cls-6" x="40.76" y="62.48" width="1.54" height="4.6" rx="0.77"/></g></mask><linearGradient id="linear-gradient-18" x1="41.53" y1="67.08" x2="41.53" y2="62.48" gradientUnits="userSpaceOnUse"><stop offset="0" stop-color="#57d8ff"/><stop offset="0.79" stop-color="#4dd7ff"/><stop offset="1" stop-color="#49d7ff"/></linearGradient><filter id="luminosity-noclip-19" x="45.57" y="45.02" width="1.54" height="1.71" filterUnits="userSpaceOnUse" color-interpolation-filters="sRGB"><feFlood flood-color="#fff" result="bg"/><feBlend in="SourceGraphic" in2="bg"/></filter><mask id="mask-19" x="45.57" y="45.02" width="1.54" height="1.71" maskUnits="userSpaceOnUse"><g class="cls-7"><path class="cls-8" d="M46.34,46.73h0a.77.77,0,0,1-.77-.77v-.17a.77.77,0,0,1,.77-.77h0a.77.77,0,0,1,.76.77V46A.77.77,0,0,1,46.34,46.73Z"/></g></mask><linearGradient id="linear-gradient-19" x1="46.34" y1="46.73" x2="46.34" y2="45.02" xlink:href="#linear-gradient-18"/><filter id="luminosity-noclip-20" x="45.52" y="40.48" width="1.64" height="3.07" filterUnits="userSpaceOnUse" color-interpolation-filters="sRGB"><feFlood flood-color="#fff" result="bg"/><feBlend in="SourceGraphic" in2="bg"/></filter><mask id="mask-20" x="45.52" y="40.48" width="1.64" height="3.07" maskUnits="userSpaceOnUse"><g class="cls-9"><path class="cls-10" d="M46.44,40.48h0a.78.78,0,0,1,.72.82l-.11,1.53a.77.77,0,0,1-.82.71h0a.77.77,0,0,1-.71-.82l.1-1.53A.77.77,0,0,1,46.44,40.48Z"/></g></mask><linearGradient id="linear-gradient-20" x1="-4903.47" y1="132.2" x2="-4903.47" y2="129.13" gradientTransform="matrix(-1, -0.07, 0.07, -1, -4854.4, -166.48)" xlink:href="#linear-gradient-18"/><filter id="luminosity-noclip-21" x="16.23" y="72.04" width="1.54" height="3.07" filterUnits="userSpaceOnUse" color-interpolation-filters="sRGB"><feFlood flood-color="#fff" result="bg"/><feBlend in="SourceGraphic" in2="bg"/></filter><mask id="mask-21" x="16.23" y="72.04" width="1.54" height="3.07" maskUnits="userSpaceOnUse"><g class="cls-11"><path class="cls-12" d="M17,75.11h0a.76.76,0,0,1-.77-.77V72.81A.77.77,0,0,1,17,72h0a.77.77,0,0,1,.76.77v1.53A.76.76,0,0,1,17,75.11Z"/></g></mask><linearGradient id="linear-gradient-21" x1="17" y1="75.11" x2="17" y2="72.04" xlink:href="#linear-gradient-18"/><linearGradient id="linear-gradient-22" x1="42.07" y1="63.43" x2="42.07" y2="48.76" gradientUnits="userSpaceOnUse"><stop offset="0.12" stop-color="#d2d3e5"/><stop offset="0.28" stop-color="#eae9f2"/></linearGradient><linearGradient id="linear-gradient-23" x1="18.96" y1="62.62" x2="40.06" y2="62.62" gradientUnits="userSpaceOnUse"><stop offset="0.37" stop-color="#caccde"/><stop offset="0.97" stop-color="#eae9f2"/></linearGradient><linearGradient id="linear-gradient-24" x1="25.71" y1="61.32" x2="33.72" y2="47.45" gradientUnits="userSpaceOnUse"><stop offset="0" stop-color="#caccde"/><stop offset="0.56" stop-color="#eae9f2"/></linearGradient><linearGradient id="linear-gradient-25" x1="27.89" y1="51.95" x2="44.2" y2="51.95" gradientUnits="userSpaceOnUse"><stop offset="0.24" stop-color="#a8a4b5"/><stop offset="1" stop-color="#dbd3e2"/></linearGradient><linearGradient id="linear-gradient-26" x1="19.6" y1="65.71" x2="36.48" y2="27.56" xlink:href="#linear-gradient-23"/><linearGradient id="linear-gradient-27" x1="25.36" y1="47.63" x2="34.08" y2="32.52" xlink:href="#linear-gradient-24"/><linearGradient id="linear-gradient-28" x1="17.92" y1="62.38" x2="22.99" y2="54.48" gradientUnits="userSpaceOnUse"><stop offset="0" stop-color="#caccde"/><stop offset="1" stop-color="#dfdeee"/></linearGradient><linearGradient id="linear-gradient-29" x1="15.54" y1="60.85" x2="20.61" y2="52.96" xlink:href="#linear-gradient-28"/><linearGradient id="linear-gradient-30" x1="15.82" y1="61.02" x2="20.89" y2="53.13" xlink:href="#linear-gradient-28"/><linearGradient id="linear-gradient-31" x1="22.08" y1="65.04" x2="27.14" y2="57.15" xlink:href="#linear-gradient-28"/><linearGradient id="linear-gradient-32" x1="19.01" y1="63.07" x2="24.08" y2="55.18" xlink:href="#linear-gradient-28"/><linearGradient id="linear-gradient-33" x1="27.37" y1="68.45" x2="32.44" y2="60.55" xlink:href="#linear-gradient-28"/><linearGradient id="linear-gradient-34" x1="30.06" y1="70.17" x2="35.13" y2="62.28" xlink:href="#linear-gradient-28"/><linearGradient id="linear-gradient-35" x1="25.52" y1="67.25" x2="30.59" y2="59.36" xlink:href="#linear-gradient-28"/><linearGradient id="linear-gradient-36" x1="22.47" y1="65.3" x2="27.54" y2="57.4" xlink:href="#linear-gradient-28"/><linearGradient id="linear-gradient-37" x1="26" y1="68.54" x2="27" y2="54.17" gradientUnits="userSpaceOnUse"><stop offset="0.12" stop-color="#d2d3e5"/><stop offset="0.3" stop-color="#eae9f2"/></linearGradient><linearGradient id="linear-gradient-38" x1="30.1" y1="70.2" x2="35.17" y2="62.31" xlink:href="#linear-gradient-28"/><filter id="luminosity-noclip-22" x="36.23" y="69.35" width="1.54" height="4.6" filterUnits="userSpaceOnUse" color-interpolation-filters="sRGB"><feFlood flood-color="#fff" result="bg"/><feBlend in="SourceGraphic" in2="bg"/></filter><mask id="mask-22" x="36.23" y="69.35" width="1.54" height="4.6" maskUnits="userSpaceOnUse"><g class="cls-15"><path class="cls-16" d="M37,74h0a.77.77,0,0,1-.76-.77V70.11a.76.76,0,0,1,.76-.76h0a.76.76,0,0,1,.77.76v3.07A.77.77,0,0,1,37,74Z"/></g></mask><linearGradient id="linear-gradient-39" x1="36.99" y1="73.95" x2="36.99" y2="69.35" xlink:href="#linear-gradient-15"/></defs><g id="Layer_2" data-name="Layer 2"><g id="Layer_1-2" data-name="Layer 1"><g class="cls-24"><path class="cls-25" d="M85.35,29.83l-.2.18a6.3,6.3,0,0,1-1,.73l.31-.25A6.09,6.09,0,0,0,85.35,29.83Z"/><path class="cls-25" d="M87.84,25.37l0,.27a5.76,5.76,0,0,0,.12-1.15l.07-.4A5.64,5.64,0,0,1,87.84,25.37Z"/><polygon class="cls-25" points="84.45 30.49 84.14 30.74 79.66 33.33 79.79 33.18 84.45 30.49"/><polygon class="cls-25" points="87.89 17.9 87.96 17.51 87.98 24.09 87.91 24.49 87.89 17.9"/><polygon class="cls-23" points="76.19 40.06 74.86 39.29 75.04 34.43 76.37 35.2 76.19 40.06"/><polygon class="cls-25" points="76.92 38.75 76.19 40.06 76.37 35.2 77.06 34.77 76.92 38.75"/><path class="cls-23" d="M85.51,14.27l1.33.77a2.7,2.7,0,0,0-2.74.27l-1.33-.78A2.72,2.72,0,0,1,85.51,14.27Z"/><path class="cls-25" d="M84.41,15.91l-.31-.6c2.13-1.23,3.86-.25,3.86,2.2l-.07.39C87.89,15.7,86.32,14.81,84.41,15.91Z"/><path class="cls-25" d="M77.06,34.77l-.69.43c-1.93.87-3.43-.14-3.43-2.42l.68,0C73.62,34.79,75,35.71,77.06,34.77Z"/><path class="cls-23" d="M74.06,35.25l-1.33-.77A2.69,2.69,0,0,1,71.61,32l1.33.77A2.69,2.69,0,0,0,74.06,35.25Z"/><polygon class="cls-23" points="72.94 32.78 71.61 32.01 71.59 25.42 72.92 26.19 72.94 32.78"/><polygon class="cls-25" points="73.62 32.74 72.94 32.78 72.92 26.19 73.6 26.15 73.62 32.74"/><polygon class="cls-23" points="76.76 19.55 75.43 18.77 82.77 14.53 84.1 15.31 76.76 19.55"/><polygon class="cls-25" points="77.06 20.15 76.76 19.55 84.1 15.31 84.41 15.91 77.06 20.15"/><path class="cls-25" d="M71.73,24.14l0-.14,0-.13a8,8,0,0,1,2.43-4.18h0l.2-.18A9,9,0,0,0,71.73,24.14Z"/><path class="cls-26" d="M84.41,15.91c1.91-1.1,3.48-.21,3.48,2l0,6.59a7.63,7.63,0,0,1-3.46,6l-4.66,2.69-2.87,5.57.14-4c-2.08.94-3.44,0-3.44-2l0-6.59a7.63,7.63,0,0,1,3.46-6Z"/><path class="cls-25" d="M73.6,26.15l-.68,0a8.46,8.46,0,0,1,3.84-6.65l.3.61A7.63,7.63,0,0,0,73.6,26.15Z"/><path class="cls-23" d="M72.92,26.19l-1.33-.77a8.46,8.46,0,0,1,3.84-6.65l1.33.77A8.46,8.46,0,0,0,72.92,26.19Z"/></g><g class="cls-24"><path class="cls-23" d="M81.06,27.6l.73.42a.86.86,0,0,0-.84.11l-.72-.42A.82.82,0,0,1,81.06,27.6Z"/><g class="cls-27"><g class="cls-24"><path class="cls-23" d="M81,28.13l-.72-.42a.82.82,0,0,1,.83-.11l.73.42a.86.86,0,0,0-.84.11Z"/></g></g><path class="cls-23" d="M80.14,30.83l-.72-.42a.83.83,0,0,1-.32-.76,2.33,2.33,0,0,1,1.13-1.94l.72.42a2.32,2.32,0,0,0-1.12,1.94A.83.83,0,0,0,80.14,30.83Z"/><g class="cls-28"><g class="cls-24"><path class="cls-23" d="M80.14,30.83l-.72-.42a.83.83,0,0,1-.32-.76,2.33,2.33,0,0,1,1.13-1.94l.72.42a2.32,2.32,0,0,0-1.12,1.94.83.83,0,0,0,.31.76Z"/></g></g><path class="cls-29" d="M81,28.13c.67-.38,1.14-.13,1.15.63a2.39,2.39,0,0,1-1.14,2c-.66.38-1.13.11-1.13-.66A2.32,2.32,0,0,1,81,28.13Z"/></g><g class="cls-24"><path class="cls-23" d="M80.59,22.61l.72.42c.1.06.16.21.16.44,0,1.2-1.39,2.17-1.39,4.27l-.72-.43c0-2.09,1.38-3.06,1.38-4.26C80.74,22.81,80.69,22.67,80.59,22.61Z"/><g class="cls-30"><g class="cls-24"><path class="cls-23" d="M80.08,27.74l-.72-.43c0-2.09,1.38-3.06,1.38-4.26,0-.24,0-.38-.15-.44l.72.42c.1.06.16.21.16.44,0,1.2-1.39,2.17-1.39,4.27Z"/></g></g><path class="cls-23" d="M82.43,20l.72.43c-.46-.27-1.19-.13-2.14.41a5.71,5.71,0,0,0-2.86,5l-.72-.42a5.68,5.68,0,0,1,2.86-5C81.23,19.85,82,19.71,82.43,20Z"/><g class="cls-31"><g class="cls-24"><path class="cls-23" d="M78.15,25.82l-.72-.42a5.68,5.68,0,0,1,2.86-5c.94-.54,1.68-.68,2.14-.42l.72.43c-.46-.27-1.19-.13-2.14.41a5.71,5.71,0,0,0-2.86,5Z"/></g></g><path class="cls-29" d="M80.79,23.14A1.68,1.68,0,0,0,80,24.75l-1.87,1.07a5.71,5.71,0,0,1,2.86-5c1.67-1,2.68-.66,2.69.91,0,2.05-1.81,3.42-1.8,5l-1.82,1c0-2.1,1.39-3.07,1.39-4.27C81.47,23,81.23,22.89,80.79,23.14Z"/></g><path class="cls-32" d="M69.62,44.07c1,0,2.59,2.62,2.71,5.51s.77,8.82.52,9.82-3,.85-3.59-1.08S69.62,44.07,69.62,44.07Z"/><path class="cls-32" d="M72.17,56.41a6.9,6.9,0,0,1,.68,3c-.12,1.18-2.35,7.46-3.36,8.09s-3-1-2.39-3.5a61.37,61.37,0,0,1,3.11-7.58Z"/><path class="cls-33" d="M61.23,100c.17,0,.72,1,.72,1l-.09,1.08a2,2,0,0,1-2.06.56,2.9,2.9,0,0,1-1.94-1.33l-.11-.31a4.36,4.36,0,0,0-1.62-.59,3.71,3.71,0,0,1-2.48-1.39,2.4,2.4,0,0,1-.5-1.74,1,1,0,0,1,.5-.9C54.13,96.22,61.23,100,61.23,100Z"/><path class="cls-34" d="M67.76,101.32a12.78,12.78,0,0,1-11.57,0c-3.21-1.85-3.22-4.84,0-6.68a12.78,12.78,0,0,1,11.57,0C70.93,96.49,70.94,99.48,67.76,101.32Z"/><path class="cls-33" d="M68.77,96.35c.09.17.62.63.66,1a8.42,8.42,0,0,1-.05,1.19,2.34,2.34,0,0,1-2,.43c-1.38-.18-1.87-2.07-2.19-2.27s-.87-.89-1.34-1-1.39-1.34-1.69-1.73A1.1,1.1,0,0,1,62,92.78c.16-.27.09-.47.75-.62S68.77,96.35,68.77,96.35Z"/><path class="cls-35" d="M58.18,96.71a37.07,37.07,0,0,0-4.08-.57,1.22,1.22,0,0,0-.66,1.19,1.76,1.76,0,0,0,.48,1.38,4.65,4.65,0,0,0,2.16,1.21c.92.16,3.29,1.73,3.94,1.77a1.4,1.4,0,0,0,1.55-.8,8.49,8.49,0,0,0,0-2.41C61.58,98.37,58.18,96.71,58.18,96.71Z"/><path class="cls-35" d="M68.79,93.14a15.15,15.15,0,0,0,.3,2.71,3.77,3.77,0,0,1,.13,1.6,1.77,1.77,0,0,1-2.34.2c-1.39-.76-1.28-1.77-2.28-2.35a6,6,0,0,1-2.31-2.16.75.75,0,0,1,.33-1,9,9,0,0,1,2,.14c.21.15.89.51.89.51l1.81-.61Z"/><path class="cls-36" d="M69,61.34c.06,1.13.7,2.6.89,5.73a19.67,19.67,0,0,1-.58,6.42c-.33,1.33-.25,6.68-.53,7.92s-4.23.92-4.7,0-2-11.16-2.16-12.51,1-8.72,1-8.72Z"/><path class="cls-36" d="M67.81,78.84a8.18,8.18,0,0,1,.94,2.57,18.38,18.38,0,0,1,.89,4.3,49.39,49.39,0,0,1-.72,9.74c-.33,1.17-3.63.81-3.88-.88s-1.27-14.14-1.27-14.14Z"/><path class="cls-37" d="M66.54,62.25c0,.86.77,7.26.3,8.78s-2.32,2.49-2.57,3.07a51.19,51.19,0,0,0-1.94,11.22c-4.27,1.11-5.15,1.19-5.54-1.75a71.2,71.2,0,0,1-.36-12.15c.31-3,.11-8.7.53-9.31S66.54,62.25,66.54,62.25Z"/><path class="cls-37" d="M62,79.42a18,18,0,0,1,.33,3.46c.06,1.11.37,4.82.31,6.46s-.77,9.42-1,10-3.22.9-3.8,0a6,6,0,0,1-.47-2.81s-.67-13.41-.69-13.65S62,79.42,62,79.42Z"/><path class="cls-38" d="M58.69,99.82l.26,0c0-.09-.43-9.34-.73-14.67S58.94,67,59,66.84l-.26,0c0,.13-1,13-.74,18.33S58.68,99.72,58.69,99.82Z"/><path class="cls-38" d="M63.21,74.39a8.58,8.58,0,0,1-2.3-.89c-.24-.3-.08-3,0-3.8v-.11l5.15-.3,0,.16s-.29,2.61-.32,3.15-2,1.59-2.39,1.78l-.05,0Zm-2.07-4.55a17.57,17.57,0,0,0,0,3.5,8.07,8.07,0,0,0,2.12.78c1.07-.53,2.18-1.25,2.19-1.54,0-.47.25-2.43.31-3Z"/><path class="cls-38" d="M68.92,72.56,67.1,72v-.17c0-1.14.11-3.36.1-3.58V68.1l.15,0a7.88,7.88,0,0,0,2.31-1.55l.36-.35v.5a25.57,25.57,0,0,1-.16,4.21A4.55,4.55,0,0,1,69,72.45Zm-1.64-.68,1.58.48,0,0a4.25,4.25,0,0,0,.81-1.53,23.88,23.88,0,0,0,.15-4.15v-.1l-.07.07a7.92,7.92,0,0,1-2.36,1.58h0v0c0,.28-.09,3.46-.1,3.6Zm1.56.38-1.47-.44v-.07c0-.29.1-2.84.1-3.41v-.06l0,0a7.85,7.85,0,0,0,2.09-1.37l.15-.13V67a22.5,22.5,0,0,1-.15,3.84,4.23,4.23,0,0,1-.74,1.42Zm-1.29-.57,1.22.37a4.27,4.27,0,0,0,.67-1.32,22.65,22.65,0,0,0,.15-3.59,8.35,8.35,0,0,1-2,1.25C67.64,69,67.57,71.21,67.55,71.69Z"/><path class="cls-33" d="M69.51,62.33a14.82,14.82,0,0,1,.1,2.46c-.11.37-2,2.58-5.81,3.09s-7-1-7.16-1.38.81-2.52.81-2.52Z"/><path class="cls-36" d="M68.36,66.37h.79s-.13-3.44-.21-3.81l-.77.17C68.22,63,68.35,66.11,68.36,66.37Z"/><rect class="cls-37" x="65.85" y="64.82" width="0.79" height="3.28" transform="translate(-4.22 4.5) rotate(-3.77)"/><rect class="cls-37" x="60.72" y="65.44" width="0.79" height="3.27"/><path class="cls-39" d="M55.45,73c0,.29.08,1.45.08,1.45s.23.16.08.31-.53,0-.53,0l-.22-.36-.19.62a3.87,3.87,0,0,1,.91.44c.1.16,0,.25,0,.25l.31.14s.16.34-.07.48a1.72,1.72,0,0,1-.92.13c-.16,0-.92-.2-1.07-.42a7.67,7.67,0,0,1-.73-1.66A9.71,9.71,0,0,1,53.73,72Z"/><path class="cls-40" d="M65.55,65.81c1.46-.55,3.57-2,3.76-2.61s1.26-6,2-8.87a19.36,19.36,0,0,0-.15-8.45,2.58,2.58,0,0,0-2.38-2c-.25,0-3,.81-3.53.9a26.58,26.58,0,0,0-4.51,2.38c-1.08.75-4.21,2.11-4.35,2.83s.26,13.53.36,14.36S60.22,67.71,65.55,65.81Z"/><path class="cls-32" d="M57.42,49.92a7.2,7.2,0,0,1,2.35,5c.09,1.76-.57,9.89-1.18,10.67s-2.91-.31-3.24-1.39-.26-8.13-.06-9.83.39-3.9,1-4.43C56.69,49.54,57.42,49.92,57.42,49.92Z"/><path class="cls-32" d="M57.76,62.53c.8,1.19,1.21,1.84,1,2.67s-2.49,7.6-3,8-2.52.5-2.44-1.36,1.92-9.5,1.92-9.5Z"/><path class="cls-39" d="M65.88,42a4.1,4.1,0,0,0,.21,3.24,16.17,16.17,0,0,1-5.29,1.36,8.55,8.55,0,0,0,0-2c-.15-.3-1.09-.24-1.56-.95s-.39-4.52-.36-5.16,0-2.25.66-2.66S65.88,42,65.88,42Z"/><path class="cls-41" d="M64.93,43.7c-1.22.24-2.31.55-2.93-.6s-1.08-2.65-1.67-2.85-.5,1.25-.51,1.3-.5-.23-.53-.38,0-1.45-.09-1.9a9.6,9.6,0,0,1-.31-1.18,10.64,10.64,0,0,1,.18-2.26,4.54,4.54,0,0,1,4.38-1.92c2.52.31,3.15,1.57,3.15,1.57s1.33.38,1.39,2.39a6.53,6.53,0,0,1-1.4,4c-.32.36-.77,1.35-.94,1.51A2,2,0,0,1,64.93,43.7Z"/><path class="cls-39" d="M59.76,40.31c.25-.12.56.28.57.81a3.6,3.6,0,0,1-.21,1.61c-.19.18-.36-.28-.39-.63S59.19,40.68,59.76,40.31Z"/><path class="cls-32" d="M64,44.74a7.15,7.15,0,0,0,1.76-.81c.12,0,.84,1.3.84,1.3a5.63,5.63,0,0,1-2,1c-1.35.41-2.63.8-3.1.92a4.83,4.83,0,0,0-1,.45c.05,0-.09-1.43.13-1.74A8.07,8.07,0,0,1,64,44.74Z"/><ellipse class="cls-42" cx="31.38" cy="83.23" rx="9.46" ry="16.39" transform="translate(-52.02 114.16) rotate(-89.69)"/><g class="cls-43"><path class="cls-44" d="M47.77,34.61H15V83.24h0c0,2.41,1.64,4.82,4.83,6.67,6.43,3.7,16.81,3.72,23.19,0,3.2-1.85,4.79-4.28,4.76-6.71h0Z"/></g><g class="cls-45"><path class="cls-46" d="M17,69.73h0a.76.76,0,0,1-.77-.77V60.43a.77.77,0,0,1,.77-.77h0a.77.77,0,0,1,.76.77V69A.76.76,0,0,1,17,69.73Z"/></g><g class="cls-47"><path class="cls-48" d="M45.57,75.1h0a.77.77,0,0,1-.77-.76V69.41a.78.78,0,0,1,.77-.77h0a.78.78,0,0,1,.77.77v4.93A.77.77,0,0,1,45.57,75.1Z"/></g><g class="cls-49"><path class="cls-50" d="M37,84.52h0a.77.77,0,0,1-.76-.77V78.54a.76.76,0,0,1,.76-.77h0a.76.76,0,0,1,.77.77v5.21A.77.77,0,0,1,37,84.52Z"/></g><g class="cls-51"><path class="cls-52" d="M23.22,86.6h0a.78.78,0,0,1-.77-.77V80.05a.77.77,0,0,1,.77-.76h0a.77.77,0,0,1,.77.76v5.78A.78.78,0,0,1,23.22,86.6Z"/></g><g class="cls-53"><path class="cls-54" d="M23.22,76.33h0a.78.78,0,0,1-.77-.77V70.83a.77.77,0,0,1,.77-.77h0a.77.77,0,0,1,.77.77v4.73A.78.78,0,0,1,23.22,76.33Z"/></g><g class="cls-55"><rect class="cls-56" x="40.76" y="62.48" width="1.54" height="4.6" rx="0.77"/></g><g class="cls-57"><path class="cls-58" d="M46.34,46.73h0a.77.77,0,0,1-.77-.77v-.17a.77.77,0,0,1,.77-.77h0a.77.77,0,0,1,.76.77V46A.77.77,0,0,1,46.34,46.73Z"/></g><g class="cls-59"><path class="cls-60" d="M46.44,40.48h0a.78.78,0,0,1,.72.82l-.11,1.53a.77.77,0,0,1-.82.71h0a.77.77,0,0,1-.71-.82l.1-1.53A.77.77,0,0,1,46.44,40.48Z"/></g><g class="cls-61"><path class="cls-62" d="M17,75.11h0a.76.76,0,0,1-.77-.77V72.81A.77.77,0,0,1,17,72h0a.77.77,0,0,1,.76.77v1.53A.76.76,0,0,1,17,75.11Z"/></g><g class="cls-24"><path class="cls-63" d="M28.63,19.78l-.07.09L28.5,20a9.32,9.32,0,0,1-2.57,2.28l.43-.43A8.26,8.26,0,0,0,28.63,19.78Z"/><path class="cls-64" d="M30.3,16.85l-.08.19a8.34,8.34,0,0,0,.63-3l.16-.59A9.48,9.48,0,0,1,30.3,16.85Z"/><polygon class="cls-64" points="30.82 5.31 30.99 4.71 31.01 13.43 30.85 14.02 30.82 5.31"/><polygon class="cls-64" points="26.36 21.8 25.93 22.23 15.24 28.4 15.09 28.3 26.36 21.8"/><polygon class="cls-64" points="15.09 28.3 15.24 28.4 15.11 35.8 14.99 34.35 15.09 28.3"/><polygon class="cls-65" points="15.11 35.8 13.23 34.7 8.52 30.09 10.41 31.19 15.11 35.8"/><polygon class="cls-64" points="14.99 34.35 15.11 35.8 10.41 31.19 11.14 30.59 14.99 34.35"/><path class="cls-65" d="M27.61.34l1.89,1.1a3.6,3.6,0,0,0-3.63.36L24,.7A3.62,3.62,0,0,1,27.61.34Z"/><path class="cls-64" d="M26.31,2.73l-.44-.93C28.69.17,31,1.48,31,4.71l-.16.6C30.82,2.45,28.79,1.29,26.31,2.73Z"/><polygon class="cls-64" points="11.14 30.59 10.41 31.19 7.03 33.14 7.46 32.71 11.14 30.59"/><path class="cls-65" d="M3.4,33.5,1.51,32.4A3.59,3.59,0,0,1,0,29.13l1.89,1.1A3.57,3.57,0,0,0,3.4,33.5Z"/><path class="cls-64" d="M7.46,32.71,7,33.14c-2.82,1.63-5.11.32-5.12-2.91l1-.09C3,33,5,34.15,7.46,32.71Z"/><polygon class="cls-64" points="2.94 30.14 1.91 30.23 1.89 21.51 2.91 21.42 2.94 30.14"/><polygon class="cls-65" points="1.91 30.23 0.03 29.13 0 20.41 1.89 21.51 1.91 30.23"/><polygon class="cls-65" points="6.97 12.71 5.08 11.61 23.98 0.7 25.87 1.8 6.97 12.71"/><polygon class="cls-64" points="7.4 13.64 6.97 12.71 25.87 1.8 26.31 2.73 7.4 13.64"/><path class="cls-63" d="M.71,17v0h0v0h0v0h0v0h0v0h0a11,11,0,0,1,1.59-2.74h0l0,0v0h0l0,0v0h0v0h0v0h0A12.25,12.25,0,0,0,.71,17Z"/><path class="cls-66" d="M26.31,2.73c2.48-1.44,4.51-.28,4.52,2.58l0,8.71a9.89,9.89,0,0,1-4.49,7.78L15.09,28.3,15,34.35l-3.85-3.76L7.46,32.71C5,34.15,3,33,2.94,30.14l0-8.72A10,10,0,0,1,7.4,13.64Z"/><path class="cls-64" d="M2.91,21.42l-1,.09A11.2,11.2,0,0,1,7,12.71l.43.93A10,10,0,0,0,2.91,21.42Z"/><path class="cls-65" d="M1.89,21.51,0,20.41a11.22,11.22,0,0,1,5.08-8.8L7,12.71A11.2,11.2,0,0,0,1.89,21.51Z"/></g><g class="cls-24"><path class="cls-65" d="M13.37,21.81l1.08.63a.45.45,0,0,0-.44,0l-1.08-.62A.43.43,0,0,1,13.37,21.81Z"/><path class="cls-65" d="M13.55,24.1l-1.08-.63a.49.49,0,0,1-.19-.45,1.37,1.37,0,0,1,.65-1.15l1.08.62a1.4,1.4,0,0,0-.65,1.16A.49.49,0,0,0,13.55,24.1Z"/><path class="cls-67" d="M14,22.49c.37-.21.62,0,.63.42A1.34,1.34,0,0,1,14,24.05c-.38.21-.64,0-.64-.4A1.4,1.4,0,0,1,14,22.49Z"/></g><g class="cls-24"><path class="cls-65" d="M13.54,19.73l-1.08-.62a.5.5,0,0,1-.19-.46,1.41,1.41,0,0,1,.64-1.15.45.45,0,0,1,.44-.05l1.09.63a.45.45,0,0,0-.45.05,1.39,1.39,0,0,0-.64,1.15A.48.48,0,0,0,13.54,19.73Z"/><path class="cls-67" d="M14,19.68c-.38.22-.64,0-.64-.4A1.39,1.39,0,0,1,14,18.13c.38-.22.63,0,.64.41A1.35,1.35,0,0,1,14,19.68Z"/></g><g class="cls-24"><polygon class="cls-65" points="11.56 25.32 10.48 24.69 9.7 22.52 10.78 23.15 11.56 25.32"/><polygon class="cls-65" points="8.39 23.68 7.31 23.05 9.5 21.79 10.58 22.42 8.39 23.68"/><polygon class="cls-65" points="10.58 22.42 9.5 21.79 8.78 19.8 9.86 20.43 10.58 22.42"/><path class="cls-65" d="M9.86,20.43,8.78,19.8c-.16-.45-.27-.88-.38-1.3l1.08.63C9.59,19.55,9.7,20,9.86,20.43Z"/><polygon class="cls-65" points="8.93 18.49 7.85 17.86 8.98 17.21 10.06 17.84 8.93 18.49"/><polygon class="cls-65" points="6.49 28.25 5.41 27.62 7.85 17.86 8.93 18.49 6.49 28.25"/><path class="cls-67" d="M10.06,17.84l2.5,6.9-1,.58-.78-2.17L8.2,24.63l-.74,3.06-1,.56,2.44-9.76ZM8.4,23.68l2.18-1.26-.72-2c-.16-.45-.27-.88-.38-1.3h0c-.11.55-.22,1.13-.36,1.72l-.7,2.82Z"/></g><g class="cls-24"><path class="cls-65" d="M25.71,15.1l.7.41a.48.48,0,0,0-.5,0l-.71-.4A.48.48,0,0,1,25.71,15.1Z"/><path class="cls-65" d="M17.65,22.73l-.7-.41a.49.49,0,0,1-.2-.45l.7.41A.5.5,0,0,0,17.65,22.73Z"/><polygon class="cls-65" points="17.45 22.28 16.75 21.87 16.74 20.84 17.45 21.25 17.45 22.28"/><polygon class="cls-65" points="18.15 20.03 17.45 19.63 25.2 15.15 25.91 15.55 18.15 20.03"/><path class="cls-65" d="M17.45,21.25l-.71-.41a1.53,1.53,0,0,1,.71-1.21l.7.4A1.53,1.53,0,0,0,17.45,21.25Z"/><path class="cls-67" d="M25.91,15.55c.38-.22.7,0,.7.41v1a1.5,1.5,0,0,1-.7,1.21l-7.75,4.48c-.39.23-.71.05-.71-.4v-1a1.53,1.53,0,0,1,.7-1.22Z"/></g><g class="cls-24"><path class="cls-65" d="M27.75,8.36l.7.41a.51.51,0,0,0-.5.05l-.7-.41A.51.51,0,0,1,27.75,8.36Z"/><path class="cls-65" d="M17.64,17.19l-.7-.41a.49.49,0,0,1-.21-.45l.7.4A.5.5,0,0,0,17.64,17.19Z"/><polygon class="cls-65" points="17.43 16.73 16.73 16.33 16.73 15.29 17.43 15.7 17.43 16.73"/><polygon class="cls-65" points="18.13 14.49 17.43 14.08 27.25 8.41 27.95 8.82 18.13 14.49"/><path class="cls-65" d="M17.43,15.7l-.7-.41a1.54,1.54,0,0,1,.7-1.21l.7.41A1.54,1.54,0,0,0,17.43,15.7Z"/><path class="cls-67" d="M28,8.82c.39-.22.7,0,.7.4v1A1.55,1.55,0,0,1,28,11.47l-9.81,5.67c-.39.22-.71,0-.71-.41v-1a1.54,1.54,0,0,1,.7-1.21Z"/></g><path class="cls-68" d="M43.92,62.12a.32.32,0,0,1-.37-.11l-2.42-2.39a47.6,47.6,0,0,1-3.47-3.87l-1-1.27A4.24,4.24,0,0,1,36,52.07c0-.88.24-1.5.57-1.64a.42.42,0,0,1,.41.06l.19.12a10.42,10.42,0,0,1,2.36,2.24,14,14,0,0,1,1,1.32l3.45,5.21a3.29,3.29,0,0,1,.36,2C44.23,61.79,44.1,62.05,43.92,62.12Z"/><path class="cls-69" d="M46.46,58,43,52.79c-.33-.5-.67-1-1-1.39A11.21,11.21,0,0,0,39.49,49l-.19-.13a.8.8,0,0,0-.49-.14L36.94,49a.68.68,0,0,1,.49.14l.19.12a11.44,11.44,0,0,1,2.51,2.37c.34.43.68.89,1,1.39l3.45,5.22A6.16,6.16,0,0,1,45.28,62c-.11.77-.38,1.26-.7,1.4l1.86-.21c.33-.14.6-.63.71-1.4A6.23,6.23,0,0,0,46.46,58Z"/><path class="cls-68" d="M44.59,58.22,41.14,53c-.33-.5-.67-1-1-1.39a11.44,11.44,0,0,0-2.51-2.37l-.19-.12a.68.68,0,0,0-.66-.1c-.54.23-.92,1.24-.93,2.68a6.79,6.79,0,0,0,1.06,3.92l1,1.27a47.51,47.51,0,0,0,3.54,3.93l2.41,2.4a.66.66,0,0,0,.72.21c.32-.14.59-.63.7-1.4A6.16,6.16,0,0,0,44.59,58.22Zm-1,3.79-2.42-2.39a47.6,47.6,0,0,1-3.47-3.87l-1-1.27A4.24,4.24,0,0,1,36,52.07c0-.88.24-1.5.57-1.64a.42.42,0,0,1,.41.06l.19.12a10.42,10.42,0,0,1,2.36,2.24,14,14,0,0,1,1,1.32l3.45,5.21a3.29,3.29,0,0,1,.36,2c-.06.4-.19.66-.37.73A.32.32,0,0,1,43.55,62Z"/><path class="cls-70" d="M40.06,54.92c0,1.25-1.06,15.4-10.49,15.4S19,55.43,19,54.92Z"/><path class="cls-71" d="M32.47,52.41a6.58,6.58,0,0,1-6-.06c-1.63-1-1.59-2.52.08-3.46a6.58,6.58,0,0,1,6,.07C34.17,49.93,34.14,51.47,32.47,52.41Z"/><path class="cls-72" d="M40,54.08a8.28,8.28,0,0,0-.24-.81c-.09-.25-.23-.58-.34-.83a8.68,8.68,0,0,0-.83-1.36,9.58,9.58,0,0,0-1.2-1.31,9.73,9.73,0,0,0-1.5-1.09c-.21-.13-.49-.28-.71-.39L34.57,48a11.8,11.8,0,0,0-1.25-.46,11.24,11.24,0,0,0-1.24-.31c-.46-.09-.95-.15-1.23-.18s-.42,0-.6,0l-.62,0H29c-.38,0-.85.06-1.23.1a12.49,12.49,0,0,0-1.24.22l-.67.17-.6.19c-.22.07-.51.18-.72.27s-.41.18-.58.26-.53.27-.75.4-.73.47-1,.7a7.84,7.84,0,0,0-.92.81,8.42,8.42,0,0,0-.69.77l-.35.47c-.14.23-.33.54-.46.78a5.28,5.28,0,0,0-.36.76c-.12.33-.26.77-.35,1.1-.44,1.81.51,3.71,2.88,5.13,4.06,2.42,10.74,2.49,14.91.15C39.37,57.89,40.41,55.94,40,54.08Zm-7.49-1.67a6.58,6.58,0,0,1-6-.06c-1.63-1-1.59-2.52.08-3.46a6.58,6.58,0,0,1,6,.07C34.17,49.93,34.14,51.47,32.47,52.41Z"/><path class="cls-73" d="M34.9,54.17a12,12,0,0,1-10.82,0c-3-1.73-3-4.53,0-6.25a12,12,0,0,1,10.83,0C37.87,49.65,37.88,52.45,34.9,54.17Z"/><path class="cls-74" d="M22.71,51.82a9.27,9.27,0,0,0,.82.44,12,12,0,0,0,1.28.55c.2.07.46.16.67.21s.86.23,1.23.31l.66.11.65.08.64,0,.65,0H30c.2,0,.47,0,.67,0,.38,0,.89-.1,1.28-.16.21,0,.48-.09.69-.14l.62-.15.74-.23c.26-.08.59-.22.85-.33s.77-.36,1.09-.53.63-.38.89-.56.41-.29.58-.43.55-.48.78-.69a7.82,7.82,0,0,1-1.71,1.26c-4,2.23-10.37,2.17-14.21-.14a8.16,8.16,0,0,1-1.41-1.08c.19.18.45.41.65.58l.32.25C22.05,51.4,22.43,51.64,22.71,51.82Z"/><path class="cls-75" d="M30.63,53.54c5.3,0,10.81-5.26,10.81-8.85a19.42,19.42,0,0,0-.72-5.51c-1.13-3.8-22.24-1.92-22.66.79-.1.66-.12,1.13-.15,1.28-.14.81-1,5.34,2.27,8.49S26.61,53.54,30.63,53.54Z"/><path class="cls-76" d="M40.88,39.74c-.07-.26-.17-.62-.26-.88s-.25-.63-.38-.9a9.52,9.52,0,0,0-.9-1.49A11.29,11.29,0,0,0,38,35.05a10.45,10.45,0,0,0-1.64-1.19c-.22-.14-.53-.3-.76-.42s-.44-.21-.63-.29a11.75,11.75,0,0,0-1.36-.5,12.93,12.93,0,0,0-1.35-.33c-.5-.1-1-.17-1.33-.2l-.67,0-.66,0H29a11.91,11.91,0,0,0-1.34.11,12.71,12.71,0,0,0-1.35.23l-.73.19c-.2,0-.45.14-.65.2s-.56.2-.79.3l-.63.28a7.89,7.89,0,0,0-.81.44c-.35.21-.81.51-1.13.75a10.59,10.59,0,0,0-1,.89,8.49,8.49,0,0,0-.75.84c-.11.15-.27.35-.38.52s-.36.58-.5.84a6.28,6.28,0,0,0-.39.83c-.14.35-.29.84-.39,1.2-.48,2,.56,4,3.14,5.58C25.68,47.91,33,48,37.5,45.43,40.23,43.9,41.36,41.77,40.88,39.74Z"/><path class="cls-77" d="M41.31,43.59a5.28,5.28,0,0,1-.13,1.61A6.71,6.71,0,0,1,37.74,49,18.65,18.65,0,0,1,26,50.6c-1.25-.28-1.72-.39-2.33-5.72-.08-1.51.44-1.61.89-1.54a16.64,16.64,0,0,0,12.17-1c2.18-1.22,3.26-2.85,3.21-4.47v-.11a.36.36,0,0,1,.18.14A14.9,14.9,0,0,1,41.31,43.59Z"/><path class="cls-78" d="M31.18,45.73A2.09,2.09,0,0,0,29.5,48a2.81,2.81,0,0,0,.06.59,5.42,5.42,0,0,1,1.62-.33,5.18,5.18,0,0,1,1.61.17,2.91,2.91,0,0,0,.06-.6C32.85,46.61,32.1,45.69,31.18,45.73Z"/><path class="cls-78" d="M37.76,43.44a3.14,3.14,0,0,0-.71,2.84,3,3,0,0,0,.15.5,5.79,5.79,0,0,1,1-1.07,3.46,3.46,0,0,1,1.12-.63,3.7,3.7,0,0,0-.07-.57C39.05,43.43,38.37,43,37.76,43.44Z"/><polygon class="cls-79" points="20 60.83 19.82 61.9 18.01 60.55 18.19 59.48 20 60.83"/><path class="cls-80" d="M18.19,59.49,18,60.55a4.37,4.37,0,0,1-1.6-4,2.7,2.7,0,0,1,2.1-2.52,2.34,2.34,0,0,1,1.26.16l-.5,1.37a1.41,1.41,0,0,0-.77-.1,1.66,1.66,0,0,0-1.29,1.55A2.69,2.69,0,0,0,18.19,59.49Z"/><polygon class="cls-81" points="19.27 55.6 19.77 54.23 20.12 54.37 19.62 55.74 19.27 55.6"/><path class="cls-82" d="M26.24,65l-.07,1.14a75.14,75.14,0,0,1-6.35-4.22L20,60.83A72.6,72.6,0,0,0,26.24,65Z"/><path class="cls-83" d="M19.62,55.74l.5-1.37A21.43,21.43,0,0,1,24.68,57c.61.46,1.21.95,1.79,1.48l-.85,1.14c-.55-.5-1.12-1-1.7-1.39A19.27,19.27,0,0,0,19.62,55.74Z"/><polygon class="cls-84" points="30.63 67.58 30.55 68.72 26.17 66.12 26.24 64.98 30.63 67.58"/><path class="cls-85" d="M31.33,67.73,31.9,69a2.05,2.05,0,0,1-1.35-.29l.08-1.14A1,1,0,0,0,31.33,67.73Z"/><polygon class="cls-86" points="25.61 59.57 26.47 58.43 32.51 63.9 31.66 65.05 25.61 59.57"/><path class="cls-87" d="M31.33,67.73a1,1,0,0,1-.7-.15L26.24,65A72.6,72.6,0,0,1,20,60.83l-1.81-1.34a2.69,2.69,0,0,1-1-2.44A1.66,1.66,0,0,1,18.5,55.5a1.41,1.41,0,0,1,.77.1l.35.14a19.27,19.27,0,0,1,4.3,2.44c.58.43,1.15.89,1.7,1.39l6,5.48a1.87,1.87,0,0,1,.47,2A1,1,0,0,1,31.33,67.73Z"/><path class="cls-88" d="M33.77,63.56l-6-5.48c-.59-.52-1.18-1-1.8-1.47A20.32,20.32,0,0,0,21.38,54L21,53.88a2.46,2.46,0,0,0-1.27-.16l-.23.05-1.25.35.23,0a2.34,2.34,0,0,1,1.26.16l.35.14A21.43,21.43,0,0,1,24.68,57c.61.46,1.21.95,1.79,1.48l6,5.47a3.55,3.55,0,0,1,.9,3.8A2.07,2.07,0,0,1,32.09,69l1.25-.35a2,2,0,0,0,1.33-1.26A3.58,3.58,0,0,0,33.77,63.56Z"/><path class="cls-89" d="M31.66,65.05l.85-1.15a3.55,3.55,0,0,1,.9,3.8A2,2,0,0,1,31.9,69l-.57-1.28a1,1,0,0,0,.8-.68A1.87,1.87,0,0,0,31.66,65.05Z"/><g class="cls-90"><path class="cls-91" d="M37,74h0a.77.77,0,0,1-.76-.77V70.11a.76.76,0,0,1,.76-.76h0a.76.76,0,0,1,.77.76v3.07A.77.77,0,0,1,37,74Z"/></g></g></g></svg>