<svg xmlns="http://www.w3.org/2000/svg" xmlns:xlink="http://www.w3.org/1999/xlink" viewBox="0 0 49.83 63.27"><defs><style>.cls-1{isolation:isolate;}.cls-2{fill:#cfd0e0;}.cls-3{fill:url(#linear-gradient);}.cls-4{fill:url(#linear-gradient-2);}.cls-5{fill:#c0baca;}.cls-6{fill:url(#linear-gradient-3);}.cls-7{fill:#ebebeb;mix-blend-mode:multiply;}.cls-8{fill:#d4d5e6;}.cls-9{fill:url(#linear-gradient-4);}.cls-10{fill:url(#linear-gradient-5);}.cls-11{fill:url(#linear-gradient-6);}.cls-12{fill:url(#linear-gradient-7);}.cls-13{fill:url(#linear-gradient-8);}.cls-14{fill:url(#linear-gradient-9);}.cls-15{fill:#0bf;}.cls-16{fill:#003447;}</style><linearGradient id="linear-gradient" x1="45.2" y1="27.65" x2="38.47" y2="18.03" gradientUnits="userSpaceOnUse"><stop offset="0.6" stop-color="#eae9f2"/><stop offset="0.83" stop-color="#d3d4e3"/></linearGradient><linearGradient id="linear-gradient-2" x1="6.92" y1="45.25" x2="38.15" y2="45.25" gradientUnits="userSpaceOnUse"><stop offset="0.37" stop-color="#caccde"/><stop offset="0.97" stop-color="#eae9f2"/></linearGradient><linearGradient id="linear-gradient-3" x1="16.91" y1="43.34" x2="28.77" y2="22.8" gradientUnits="userSpaceOnUse"><stop offset="0" stop-color="#caccde"/><stop offset="0.56" stop-color="#eae9f2"/></linearGradient><linearGradient id="linear-gradient-4" x1="20.13" y1="29.46" x2="44.28" y2="29.46" gradientUnits="userSpaceOnUse"><stop offset="0.24" stop-color="#a8a4b5"/><stop offset="1" stop-color="#dbd3e2"/></linearGradient><linearGradient id="linear-gradient-5" x1="7.86" y1="49.83" x2="32.85" y2="-6.65" xlink:href="#linear-gradient-2"/><linearGradient id="linear-gradient-6" x1="16.39" y1="23.07" x2="29.3" y2="0.7" xlink:href="#linear-gradient-3"/><linearGradient id="linear-gradient-7" x1="8.48" y1="66.84" x2="2.04" y2="30.58" gradientUnits="userSpaceOnUse"><stop offset="0" stop-color="#caccde"/><stop offset="1" stop-color="#dfdeee"/></linearGradient><linearGradient id="linear-gradient-8" x1="6.69" y1="64.19" x2="4.39" y2="29.48" xlink:href="#linear-gradient-7"/><linearGradient id="linear-gradient-9" x1="14.06" y1="58.28" x2="0.49" y2="34.77" gradientUnits="userSpaceOnUse"><stop offset="0.68" stop-color="#d2d3e5"/><stop offset="0.81" stop-color="#eae9f2"/></linearGradient></defs><g class="cls-1"><g id="Layer_2" data-name="Layer 2"><g id="Layer_1-2" data-name="Layer 1"><path class="cls-2" d="M43.71,21.71A4.91,4.91,0,0,1,45,22.85c.72.9,1,1.82.62,2.12l-2.75,2.24A21.32,21.32,0,0,1,38.42,30L37,30.63a1.7,1.7,0,0,1-1.45-.3c-.38-.22-1.08-.94-1.21-.94-1.31-1.28-2.06-2.92-1.65-3.59l.15-.24a6,6,0,0,1,2.59-2.3,6.87,6.87,0,0,1,1.49-.5l5.89-1.3A1.44,1.44,0,0,1,43.71,21.71Z"/><path class="cls-2" d="M46.25,22.06a9,9,0,0,0-2.44-2.17,2.63,2.63,0,0,0-1.72-.47l-5.89,1.3a7.72,7.72,0,0,0-1.58.53,6.28,6.28,0,0,0-2.74,2.44l-.15.23c-.67,1.1.55,3.75,2.69,5.84a10.31,10.31,0,0,0,2,1.54,2.81,2.81,0,0,0,2.35.5l1.44-.67a22,22,0,0,0,4.5-2.81l2.76-2.24C48.15,25.51,47.63,23.77,46.25,22.06Zm-3.39,5.15A21.32,21.32,0,0,1,38.42,30L37,30.63a1.7,1.7,0,0,1-1.45-.3c-.38-.22-1.08-.94-1.21-.94-1.31-1.28-2.06-2.92-1.65-3.59l.15-.24a6,6,0,0,1,2.59-2.3,6.87,6.87,0,0,1,1.49-.5l5.89-1.3a1.44,1.44,0,0,1,.91.25A4.91,4.91,0,0,1,45,22.85c.72.9,1,1.82.62,2.12Z"/><path class="cls-3" d="M48.33,20.21A9,9,0,0,0,45.89,18a2.64,2.64,0,0,0-1.72-.47l-5.89,1.3a7,7,0,0,0-1.58.53,6.37,6.37,0,0,0-1.55,1l-2.08,1.85a6.37,6.37,0,0,1,1.55-1,7.72,7.72,0,0,1,1.58-.53l5.89-1.3a2.63,2.63,0,0,1,1.72.47,9,9,0,0,1,2.44,2.17c1.37,1.69,1.88,3.41,1.22,4l2.08-1.85C50.21,23.62,49.7,21.9,48.33,20.21Z"/><path class="cls-4" d="M38.15,33.85c0,1.86-1.58,22.81-15.53,22.81s-15.7-22-15.7-22.8Z"/><path class="cls-5" d="M26.91,30.14a9.73,9.73,0,0,1-8.84-.09c-2.4-1.43-2.35-3.73.13-5.11A9.71,9.71,0,0,1,27,25C29.44,26.46,29.38,28.75,26.91,30.14Z"/><path class="cls-6" d="M38,32.61c-.09-.36-.22-.84-.35-1.19a13.26,13.26,0,0,0-.51-1.23,12,12,0,0,0-1.23-2,12.85,12.85,0,0,0-1.78-1.93,15.31,15.31,0,0,0-2.22-1.63c-.3-.18-.73-.41-1-.57L30,23.65A17.5,17.5,0,0,0,28.17,23c-.08,0-.78-.24-1.83-.45-.69-.13-1.41-.23-1.82-.26s-.63-.07-.9-.07l-.9,0c-.28,0-.64,0-.91,0-.57,0-1.26.08-1.82.14,0,0-.9.11-1.84.32-.3.07-.7.17-1,.26s-.62.19-.89.27-.75.28-1.07.41-.6.27-.86.38a11.72,11.72,0,0,0-1.1.6,17.68,17.68,0,0,0-1.53,1,15.68,15.68,0,0,0-1.37,1.2,13.5,13.5,0,0,0-1,1.14c-.16.22-.37.49-.52.71s-.49.8-.68,1.14A8.4,8.4,0,0,0,7.6,30.9c-.18.48-.39,1.13-.53,1.63-.65,2.67.76,5.49,4.27,7.58,6,3.6,15.89,3.7,22.08.23C37.12,38.26,38.66,35.37,38,32.61ZM26.91,30.14a9.73,9.73,0,0,1-8.84-.09c-2.4-1.43-2.35-3.73.13-5.11A9.71,9.71,0,0,1,27,25C29.44,26.46,29.38,28.75,26.91,30.14Z"/><path class="cls-7" d="M26.15,56.16a12.34,12.34,0,0,1-3.53.5C12.06,56.66,8.49,44,7.38,37.55,9.44,36,8.79,33.08,10,32.37l.82-.47a17.26,17.26,0,0,1,2.83,2.26C16,37.1,15.07,46.71,16.59,51.27,17.9,55.2,21.77,56.43,26.15,56.16Z"/><path class="cls-8" d="M30.52,32.74c-4.42,2.55-11.59,2.54-16,0S10,26,14.43,23.46s11.59-2.54,16,0S34.93,30.19,30.52,32.74Z"/><path class="cls-9" d="M12.47,29.26a12.88,12.88,0,0,0,1.21.67,20,20,0,0,0,1.9.8c.29.11.68.24,1,.32.54.15,1.27.33,1.83.45.29.06.68.13,1,.16l.95.12c.29,0,.67.06,1,.07s.67,0,.95,0,.68,0,1,0,.7,0,1-.05c.57-.06,1.33-.16,1.9-.24.31,0,.72-.13,1-.2l.92-.24,1.09-.33c.39-.13.89-.33,1.26-.49s1.15-.53,1.63-.79.92-.56,1.31-.82a10.65,10.65,0,0,0,.86-.64c.36-.29.82-.71,1.16-1a11.85,11.85,0,0,1-2.55,1.87c-5.92,3.31-15.34,3.21-21-.21a11.36,11.36,0,0,1-2.08-1.59c.28.27.66.6.95.85l.47.38A15.75,15.75,0,0,0,12.47,29.26Z"/><path class="cls-10" d="M24.18,31.82c7.85,0,16-7.8,16-13.11a28.9,28.9,0,0,0-1.06-8.15C37.45,4.93,6.21,7.72,5.58,11.72c-.15,1-.18,1.67-.22,1.9-.21,1.19-1.48,7.91,3.36,12.56S18.23,31.82,24.18,31.82Z"/><path class="cls-11" d="M39.36,11.39c-.1-.4-.25-.92-.39-1.31s-.37-.94-.55-1.33a14.21,14.21,0,0,0-1.34-2.2,14.35,14.35,0,0,0-1.94-2.1,14.93,14.93,0,0,0-2.42-1.77c-.33-.21-.79-.45-1.13-.63l-.93-.42a18.46,18.46,0,0,0-2-.74,17.18,17.18,0,0,0-2-.49c-.75-.15-1.53-.25-2-.29-.29,0-.68-.07-1-.08l-1,0h-1c-.62,0-1.37.09-2,.16a19.25,19.25,0,0,0-2,.35c-.32.07-.75.18-1.08.27l-1,.3c-.36.12-.82.3-1.17.45s-.65.29-.93.42-.86.43-1.21.64c-.51.32-1.18.75-1.66,1.12A15.35,15.35,0,0,0,9.23,5a13,13,0,0,0-1.1,1.24C8,6.5,7.72,6.8,7.57,7S7,7.91,6.82,8.29a10.64,10.64,0,0,0-.58,1.23c-.2.52-.42,1.24-.57,1.78-.71,2.91.83,6,4.64,8.26,6.55,3.91,17.32,4,24.06.24C38.4,17.54,40.07,14.39,39.36,11.39Z"/><path class="cls-12" d="M7.47,34a4.08,4.08,0,0,1,1.78,3.5v.64A40.71,40.71,0,0,1,8.43,46c-.22,1.07-.48,2.11-.79,3.13L4.25,60.29a1.3,1.3,0,0,1-2,.89A2.91,2.91,0,0,1,1,58.43l1-8.06q.71-5.86,1.86-11.5l.69-3.34c.27-1.29,1.18-2,2.23-1.83C6.86,33.86,7.25,33.83,7.47,34Z"/><path class="cls-13" d="M8.32,32a3.6,3.6,0,0,0-1.11-.43c-1.72-.32-3.2.89-3.64,3L2.89,37.9C2.1,41.71,1.47,45.62,1,49.59L0,57.66a5.5,5.5,0,0,0,2.33,5.22c1.57.91,3.2.18,3.76-1.7L9.52,50c.33-1.07.6-2.18.84-3.31a43.91,43.91,0,0,0,.87-8.38V37.7A6.66,6.66,0,0,0,8.32,32Zm.11,14c-.22,1.07-.48,2.11-.79,3.13L4.25,60.29a1.3,1.3,0,0,1-2,.89A2.91,2.91,0,0,1,1,58.43l1-8.06q.71-5.86,1.86-11.5l.69-3.34c.27-1.29,1.18-2,2.23-1.83.08.16.47.13.69.26a4.08,4.08,0,0,1,1.78,3.5v.64A40.71,40.71,0,0,1,8.43,46Z"/><path class="cls-14" d="M10.4,31.43A3.63,3.63,0,0,0,9.28,31a2.9,2.9,0,0,0-1.25,0L6,31.62a2.8,2.8,0,0,1,1.26-.05A3.6,3.6,0,0,1,8.32,32a6.66,6.66,0,0,1,2.91,5.7v.64a43.91,43.91,0,0,1-.87,8.38C10.12,47.85,9.85,49,9.52,50L6.13,61.18a2.74,2.74,0,0,1-1.83,2l2.07-.56a2.77,2.77,0,0,0,1.84-2L11.6,49.47c.32-1.08.6-2.18.83-3.31a42.44,42.44,0,0,0,.87-8.38v-.64A6.7,6.7,0,0,0,10.4,31.43Z"/><path class="cls-15" d="M29.77,25.24l-.2-.73a18.39,18.39,0,0,0,3-1l.38.65A19.38,19.38,0,0,1,29.77,25.24Z"/><path class="cls-16" d="M40,16.76a7.9,7.9,0,0,1-.18,2.39c-.62,2.06-2.27,4-5.08,5.53C30,27.34,23.31,28.14,17.41,27.1c-1.84-.41-2.53-.57-3.43-8.44-.12-2.21.64-2.37,1.31-2.26,5.73,1.75,13,1.28,17.94-1.48,3.23-1.79,4.81-4.2,4.75-6.6V8.16a.66.66,0,0,1,.26.21A21.82,21.82,0,0,1,40,16.76Z"/><path class="cls-15" d="M25.09,19.93c-1.37.06-2.47,1.54-2.47,3.3a4.14,4.14,0,0,0,.09.87,8,8,0,0,1,2.38-.49,7.54,7.54,0,0,1,2.38.25,4.24,4.24,0,0,0,.09-.88C27.56,21.22,26.46,19.86,25.09,19.93Z"/><path class="cls-15" d="M34.8,16.55c-.91.72-1.38,2.59-1,4.18a4.43,4.43,0,0,0,.23.75,8.13,8.13,0,0,1,1.51-1.59A5.32,5.32,0,0,1,37.14,19a4.81,4.81,0,0,0-.1-.85C36.71,16.53,35.71,15.83,34.8,16.55Z"/></g></g></g></svg>