<svg xmlns="http://www.w3.org/2000/svg" xmlns:xlink="http://www.w3.org/1999/xlink" viewBox="0 0 68.5 100.82"><defs><style>.cls-1{mask:url(#mask);filter:url(#luminosity-noclip-3);}.cls-2,.cls-23,.cls-4{mix-blend-mode:multiply;}.cls-2{fill:url(#linear-gradient);}.cls-3{mask:url(#mask-2);filter:url(#luminosity-noclip-4);}.cls-4{fill:url(#linear-gradient-2);}.cls-5{isolation:isolate;}.cls-6{mask:url(#mask-3);}.cls-7{fill:url(#linear-gradient-3);}.cls-8{fill:#efc9ff;}.cls-9{fill:#9640ff;}.cls-10{fill:#7d1cf2;}.cls-11{fill:#ff0c9b;}.cls-12{fill:#b06dff;}.cls-13{fill:#fff;}.cls-14{fill:#ffbe12;}.cls-15{fill:#ffae00;}.cls-16{fill:#ffd10f;}.cls-17{fill:#eef1f5;}.cls-18{fill:#cfd0e0;}.cls-19{fill:url(#linear-gradient-4);}.cls-20{fill:url(#linear-gradient-5);}.cls-21{fill:#c0baca;}.cls-22{fill:url(#linear-gradient-6);}.cls-23{fill:#ebebeb;}.cls-24{fill:#d4d5e6;}.cls-25{fill:url(#linear-gradient-7);}.cls-26{fill:url(#linear-gradient-8);}.cls-27{fill:url(#linear-gradient-9);}.cls-28{fill:#003447;}.cls-29{fill:#0bf;}.cls-30{fill:url(#linear-gradient-10);}.cls-31{fill:url(#linear-gradient-11);}.cls-32{fill:url(#linear-gradient-12);}.cls-33{fill:#ffa012;}.cls-34{fill:#ff8c00;}.cls-35{fill:#ffb30f;}.cls-36{mask:url(#mask-4);}.cls-37{fill:url(#linear-gradient-13);}.cls-38{filter:url(#luminosity-noclip-2);}.cls-39{filter:url(#luminosity-noclip);}</style><filter id="luminosity-noclip" x="0.96" y="-8066.45" width="21.35" height="32766" filterUnits="userSpaceOnUse" color-interpolation-filters="sRGB"><feFlood flood-color="#fff" result="bg"/><feBlend in="SourceGraphic" in2="bg"/></filter><mask id="mask" x="0.96" y="-8066.45" width="21.35" height="32766" maskUnits="userSpaceOnUse"><g class="cls-39"/></mask><linearGradient id="linear-gradient" x1="6.3" y1="55.6" x2="16.97" y2="37.11" gradientTransform="translate(54.07 24.38) rotate(76.72)" gradientUnits="userSpaceOnUse"><stop offset="0" stop-color="#aeaeae"/><stop offset="0.32" stop-color="#949494"/><stop offset="1" stop-color="#525252"/></linearGradient><filter id="luminosity-noclip-2" x="3.67" y="-8066.45" width="6.85" height="32766" filterUnits="userSpaceOnUse" color-interpolation-filters="sRGB"><feFlood flood-color="#fff" result="bg"/><feBlend in="SourceGraphic" in2="bg"/></filter><mask id="mask-2" x="3.67" y="-8066.45" width="6.85" height="32766" maskUnits="userSpaceOnUse"><g class="cls-38"/></mask><linearGradient id="linear-gradient-2" x1="7.25" y1="34.94" x2="6.99" y2="46.14" gradientTransform="matrix(1, 0, 0, 1, 0, 0)" xlink:href="#linear-gradient"/><filter id="luminosity-noclip-3" x="0.96" y="35.68" width="21.35" height="21.35" filterUnits="userSpaceOnUse" color-interpolation-filters="sRGB"><feFlood flood-color="#fff" result="bg"/><feBlend in="SourceGraphic" in2="bg"/></filter><mask id="mask-3" x="0.96" y="35.68" width="21.35" height="21.35" maskUnits="userSpaceOnUse"><g class="cls-1"><circle class="cls-2" cx="11.63" cy="46.35" r="10.67" transform="translate(-36.15 47.03) rotate(-76.72)"/></g></mask><linearGradient id="linear-gradient-3" x1="6.3" y1="55.6" x2="16.97" y2="37.11" gradientTransform="translate(54.07 24.38) rotate(76.72)" gradientUnits="userSpaceOnUse"><stop offset="0" stop-color="#8a0dff"/><stop offset="0.62" stop-color="#a41bff"/><stop offset="1" stop-color="#b624ff"/></linearGradient><linearGradient id="linear-gradient-4" x1="69.78" y1="84.25" x2="56.83" y2="61.82" gradientUnits="userSpaceOnUse"><stop offset="0.73" stop-color="#d7d8e8"/><stop offset="0.93" stop-color="#eae9f2"/></linearGradient><linearGradient id="linear-gradient-5" x1="32.91" y1="82.18" x2="62.66" y2="82.18" gradientUnits="userSpaceOnUse"><stop offset="0.37" stop-color="#caccde"/><stop offset="0.97" stop-color="#eae9f2"/></linearGradient><linearGradient id="linear-gradient-6" x1="42.43" y1="80.36" x2="53.72" y2="60.79" gradientUnits="userSpaceOnUse"><stop offset="0" stop-color="#caccde"/><stop offset="0.56" stop-color="#eae9f2"/></linearGradient><linearGradient id="linear-gradient-7" x1="45.49" y1="67.14" x2="68.49" y2="67.14" gradientUnits="userSpaceOnUse"><stop offset="0.24" stop-color="#a8a4b5"/><stop offset="1" stop-color="#dbd3e2"/></linearGradient><linearGradient id="linear-gradient-8" x1="33.81" y1="86.55" x2="57.61" y2="32.74" xlink:href="#linear-gradient-5"/><linearGradient id="linear-gradient-9" x1="41.93" y1="61.05" x2="54.23" y2="39.74" xlink:href="#linear-gradient-6"/><linearGradient id="linear-gradient-10" x1="25.04" y1="75.5" x2="27.53" y2="61.93" gradientUnits="userSpaceOnUse"><stop offset="0" stop-color="#d2d3e3"/><stop offset="0.08" stop-color="#d8d9e7"/><stop offset="0.3" stop-color="#e6e5ef"/><stop offset="0.5" stop-color="#eae9f2"/></linearGradient><linearGradient id="linear-gradient-11" x1="24.71" y1="75.44" x2="27.2" y2="61.87" xlink:href="#linear-gradient-10"/><linearGradient id="linear-gradient-12" x1="14.12" y1="63.94" x2="36.14" y2="78.43" gradientUnits="userSpaceOnUse"><stop offset="0.08" stop-color="#d0d2e2"/><stop offset="0.09" stop-color="#d7d8e6"/><stop offset="0.15" stop-color="#e5e5ef"/><stop offset="0.19" stop-color="#eae9f2"/></linearGradient><filter id="luminosity-noclip-4" x="3.67" y="38.41" width="6.85" height="6.69" filterUnits="userSpaceOnUse" color-interpolation-filters="sRGB"><feFlood flood-color="#fff" result="bg"/><feBlend in="SourceGraphic" in2="bg"/></filter><mask id="mask-4" x="3.67" y="38.41" width="6.85" height="6.69" maskUnits="userSpaceOnUse"><g class="cls-3"><path class="cls-4" d="M9.92,39.15c1.07,1.15.66,3.26-.9,4.7s-3.69,1.67-4.76.52-.66-3.26.9-4.7S8.86,38,9.92,39.15Z"/></g></mask><linearGradient id="linear-gradient-13" x1="7.25" y1="34.94" x2="6.99" y2="46.14" gradientUnits="userSpaceOnUse"><stop offset="0" stop-color="#debdff"/><stop offset="1" stop-color="#d6a9ff"/></linearGradient></defs><g class="cls-5"><g id="Layer_2" data-name="Layer 2"><g id="Layer_1-2" data-name="Layer 1"><g class="cls-6"><circle class="cls-7" cx="11.63" cy="46.35" r="10.67" transform="translate(-36.15 47.03) rotate(-76.72)"/></g><path class="cls-8" d="M11.63,34.72A11.64,11.64,0,1,0,23.27,46.35,11.63,11.63,0,0,0,11.63,34.72Zm0,22.31A10.68,10.68,0,1,1,22.31,46.35,10.68,10.68,0,0,1,11.63,57Z"/><g class="cls-5"><path class="cls-9" d="M59.57,22.38l-.27.24a8.83,8.83,0,0,1-1.43,1l.4-.33A8.13,8.13,0,0,0,59.57,22.38Z"/><path class="cls-9" d="M63.13,16l0,.19,0,.06v.1a7.93,7.93,0,0,0,.18-1.65l.09-.51A8.07,8.07,0,0,1,63.13,16Z"/><polygon class="cls-9" points="63.21 5.38 63.3 4.87 63.32 14.22 63.23 14.73 63.21 5.38"/><path class="cls-9" d="M58.21,2.53l-.4-.78c3-1.75,5.48-.35,5.49,3.12l-.09.51C63.2,2.22,61,.94,58.21,2.53Z"/><path class="cls-10" d="M60,.37l1.71,1a3.84,3.84,0,0,0-3.89.38L56.1.75A3.84,3.84,0,0,1,60,.37Z"/><polygon class="cls-9" points="58.27 23.33 57.88 23.66 34.25 37.29 34.65 36.97 58.27 23.33"/><path class="cls-10" d="M30.36,37.67l-1.71-1a3.85,3.85,0,0,1-1.6-3.51l1.72,1A3.81,3.81,0,0,0,30.36,37.67Z"/><path class="cls-9" d="M34.65,37l-.4.32c-3,1.75-5.47.35-5.48-3.12l.88-.05C29.66,37.28,31.89,38.55,34.65,37Z"/><polygon class="cls-9" points="29.65 34.12 28.77 34.17 28.74 24.82 29.62 24.77 29.65 34.12"/><polygon class="cls-10" points="28.77 34.17 27.05 33.17 27.03 23.82 28.74 24.82 28.77 34.17"/><polygon class="cls-10" points="34.19 15.38 32.48 14.39 56.1 0.75 57.81 1.75 34.19 15.38"/><polygon class="cls-9" points="34.59 16.17 34.19 15.38 57.81 1.75 58.21 2.53 34.59 16.17"/><path class="cls-11" d="M27.23,22c0-.12,0-.23.07-.35a11.67,11.67,0,0,1,3.48-6h0l0,0h0l0,0h0l0,0h0l0,0,0,0h0l0,0,0,0h0A12.74,12.74,0,0,0,27.23,22Z"/><path class="cls-12" d="M58.21,2.53c2.75-1.59,5-.31,5,2.85l0,9.35a10.94,10.94,0,0,1-5,8.6L34.65,37c-2.76,1.58-5,.31-5-2.85l0-9.35a10.93,10.93,0,0,1,5-8.6Z"/><polygon class="cls-9" points="36.94 19.07 37.9 17.05 38.52 22.8 42.85 20.59 40.97 27.43 40.62 29.86 36.96 29.28 35.2 32.58 32.71 33.92 33.81 28.41 31.05 27.4 32.01 25.38 35.37 24.62 36.94 19.07"/><polygon class="cls-9" points="51.46 10.69 52.42 8.67 53.05 14.41 57.37 12.21 55.49 19.04 55.14 21.48 51.49 20.9 49.72 24.19 47.24 25.54 48.33 20.03 45.57 19.02 46.54 17 49.9 16.23 51.46 10.69"/><path class="cls-9" d="M29.62,24.77l-.88.05a12,12,0,0,1,5.45-9.44l.4.79A10.93,10.93,0,0,0,29.62,24.77Z"/><path class="cls-10" d="M28.74,24.82l-1.71-1a12,12,0,0,1,5.45-9.43l1.71,1A12,12,0,0,0,28.74,24.82Z"/></g><g class="cls-5"><polygon class="cls-10" points="41.01 21.66 39.49 20.77 43.81 18.57 45.34 19.46 41.01 21.66"/><polygon class="cls-10" points="35.81 32.94 34.29 32.05 35.37 26.6 36.9 27.49 35.81 32.94"/><polygon class="cls-10" points="37.86 23.48 36.34 22.59 37.9 17.05 39.42 17.94 37.86 23.48"/><polygon class="cls-10" points="33.54 26.27 32.01 25.38 36.34 22.59 37.86 23.48 33.54 26.27"/><polygon class="cls-13" points="39.42 17.94 41.01 21.66 45.34 19.46 42 24.54 43.1 28.73 39.45 28.15 35.81 32.94 36.9 27.49 33.54 26.27 37.86 23.48 39.42 17.94"/></g><g class="cls-5"><polygon class="cls-14" points="55.54 13.28 54.01 12.39 58.34 10.19 59.86 11.07 55.54 13.28"/><polygon class="cls-15" points="50.34 24.55 48.81 23.66 49.9 18.22 51.42 19.1 50.34 24.55"/><polygon class="cls-15" points="52.38 15.1 50.86 14.21 52.42 8.67 53.95 9.55 52.38 15.1"/><polygon class="cls-14" points="48.06 17.88 46.54 17 50.86 14.21 52.38 15.1 48.06 17.88"/><polygon class="cls-16" points="53.95 9.55 55.54 13.28 59.86 11.07 56.52 16.16 57.63 20.34 53.98 19.76 50.34 24.55 51.42 19.1 48.06 17.88 52.38 15.1 53.95 9.55"/></g><path class="cls-17" d="M55.86,99a16.48,16.48,0,0,1-15,0c-4.14-2.39-4.16-6.25,0-8.63a16.53,16.53,0,0,1,15,0C60,92.8,60,96.66,55.86,99Z"/><path class="cls-18" d="M57.89,65.27a6.9,6.9,0,0,1,2.56,2.83l.22.48a36.81,36.81,0,0,1,2.13,5.85,22.87,22.87,0,0,1,.49,2.25l1.33,8c.12.7-.39.89-1.17.44a4.68,4.68,0,0,1-1.88-2.21L59.48,77Q58,72.63,56.89,68.53l-.64-2.42c-.25-.94.17-1.39,1-1.12C57.4,65.12,57.68,65.15,57.89,65.27Z"/><path class="cls-18" d="M66.49,85.18l-1.33-8c-.13-.77-.3-1.57-.52-2.39a38.91,38.91,0,0,0-2.26-6.19l-.22-.48A11.26,11.26,0,0,0,58,63.53a5.21,5.21,0,0,0-1-.44c-1.41-.45-2.1.29-1.69,1.82L56,67.33c.73,2.77,1.61,5.63,2.64,8.55l2.08,6A8.93,8.93,0,0,0,64.25,86C65.75,86.89,66.71,86.52,66.49,85.18Zm-3-.08a4.68,4.68,0,0,1-1.88-2.21L59.48,77Q58,72.63,56.89,68.53l-.64-2.42c-.25-.94.17-1.39,1-1.12.11.13.39.16.6.28a6.9,6.9,0,0,1,2.56,2.83l.22.48a36.81,36.81,0,0,1,2.13,5.85,22.87,22.87,0,0,1,.49,2.25l1.33,8C64.74,85.36,64.23,85.55,63.45,85.1Z"/><path class="cls-19" d="M68.47,83.42l-1.33-8c-.13-.76-.3-1.56-.52-2.38a38.91,38.91,0,0,0-2.26-6.19l-.22-.48A11.14,11.14,0,0,0,60,61.77a4.48,4.48,0,0,0-1-.45,1.49,1.49,0,0,0-1.47.12l-2,1.76A1.5,1.5,0,0,1,57,63.09a5.21,5.21,0,0,1,1,.44,11.26,11.26,0,0,1,4.17,4.62l.22.48a38.91,38.91,0,0,1,2.26,6.19c.22.82.39,1.62.52,2.39l1.33,8a1.18,1.18,0,0,1-.24,1.11l2-1.76A1.18,1.18,0,0,0,68.47,83.42Z"/><path class="cls-20" d="M62.66,71.32c0,1.77-1.5,21.73-14.79,21.73s-15-21-15-21.72Z"/><path class="cls-21" d="M52,67.79a9.29,9.29,0,0,1-8.42-.09c-2.29-1.37-2.23-3.55.12-4.87a9.32,9.32,0,0,1,8.42.08C54.36,64.28,54.31,66.47,52,67.79Z"/><path class="cls-22" d="M62.52,70.14c-.09-.34-.22-.8-.34-1.14s-.32-.82-.49-1.17a11.6,11.6,0,0,0-1.17-1.92,12.62,12.62,0,0,0-1.69-1.84,13.67,13.67,0,0,0-2.12-1.55c-.29-.17-.69-.39-1-.54l-.81-.38A17,17,0,0,0,53.15,61c-.07,0-.75-.23-1.74-.43a17,17,0,0,0-1.73-.25c-.26,0-.6-.06-.86-.07l-.86,0h-.87c-.54,0-1.2.08-1.73.14a17.41,17.41,0,0,0-1.75.31c-.29.06-.67.16-1,.24l-.84.26c-.31.1-.72.26-1,.39l-.82.36a10.65,10.65,0,0,0-1,.57c-.45.27-1,.66-1.46,1a12.78,12.78,0,0,0-1.3,1.14,11,11,0,0,0-1,1.09c-.15.2-.36.46-.49.67s-.47.76-.66,1.09a7.05,7.05,0,0,0-.5,1.08c-.18.46-.37,1.08-.5,1.55-.63,2.55.72,5.23,4.06,7.23,5.72,3.42,15.14,3.52,21,.21C61.68,75.52,63.14,72.77,62.52,70.14ZM52,67.79a9.29,9.29,0,0,1-8.42-.09c-2.29-1.37-2.23-3.55.12-4.87a9.32,9.32,0,0,1,8.42.08C54.36,64.28,54.31,66.47,52,67.79Z"/><path class="cls-23" d="M51.23,92.57a11.61,11.61,0,0,1-3.36.48c-10.06,0-13.46-12-14.52-18.2,2-1.49,1.34-4.26,2.49-4.94l.78-.44a16.26,16.26,0,0,1,2.7,2.14c2.23,2.81,1.35,12,2.8,16.3C43.37,91.66,47.06,92.83,51.23,92.57Z"/><path class="cls-24" d="M55.39,70.26a16.87,16.87,0,0,1-15.27,0c-4.23-2.44-4.25-6.39,0-8.82s11-2.41,15.27,0S59.59,67.84,55.39,70.26Z"/><path class="cls-25" d="M38.19,67a13,13,0,0,0,1.16.63,15.37,15.37,0,0,0,1.81.77c.27.1.65.23.93.3.52.15,1.22.31,1.74.43.28.06.65.12.94.16l.9.11.91.07.92,0h.91c.29,0,.66,0,.94-.06.55,0,1.27-.14,1.81-.22.29,0,.68-.13,1-.2s.62-.14.88-.22l1-.32c.37-.12.84-.31,1.2-.46s1.09-.51,1.55-.76.88-.53,1.25-.77.58-.42.81-.61.79-.68,1.11-1a11.16,11.16,0,0,1-2.42,1.78c-5.65,3.14-14.62,3-20-.21a10.51,10.51,0,0,1-2-1.51c.26.25.63.58.91.81s.31.25.45.36A14.12,14.12,0,0,0,38.19,67Z"/><path class="cls-26" d="M49.35,69.38c7.48,0,15.26-7.42,15.26-12.48a27.41,27.41,0,0,0-1-7.76c-1.6-5.37-31.36-2.71-31.95,1.1-.15.93-.18,1.59-.22,1.81-.19,1.14-1.41,7.54,3.2,12S43.69,69.38,49.35,69.38Z"/><path class="cls-27" d="M63.81,49.93c-.1-.38-.24-.88-.37-1.25s-.35-.9-.53-1.27a12.81,12.81,0,0,0-1.27-2.09,13.68,13.68,0,0,0-1.85-2,15,15,0,0,0-2.3-1.68c-.32-.2-.76-.43-1.09-.6s-.61-.29-.87-.4a16.92,16.92,0,0,0-1.93-.71c-.08,0-.81-.25-1.89-.46a18.49,18.49,0,0,0-1.89-.28c-.28,0-.65-.06-.93-.07l-.94,0c-.28,0-.66,0-.94,0-.59,0-1.31.09-1.89.15,0,0-.93.11-1.91.33l-1,.26-.91.29c-.34.11-.79.29-1.12.42s-.62.28-.89.4a11.68,11.68,0,0,0-1.15.62,18.15,18.15,0,0,0-1.58,1.06,15.29,15.29,0,0,0-1.42,1.25,14.74,14.74,0,0,0-1,1.18c-.16.22-.38.51-.53.73s-.51.83-.72,1.19a8.39,8.39,0,0,0-.54,1.18c-.19.49-.4,1.17-.55,1.69-.68,2.77.79,5.7,4.42,7.87,6.24,3.73,16.5,3.83,22.91.23C62.9,55.78,64.49,52.78,63.81,49.93Z"/><path class="cls-28" d="M64.41,55.35a7.24,7.24,0,0,1-.17,2.28c-.59,2-2.17,3.78-4.86,5.28-4.56,2.55-11,3.31-16.59,2.32-1.76-.4-2.42-.54-3.28-8.07-.12-2.11.61-2.27,1.25-2.16,5.48,1.68,12.43,1.22,17.15-1.41,3.08-1.72,4.6-4,4.54-6.31v-.16a.62.62,0,0,1,.25.2A20.76,20.76,0,0,1,64.41,55.35Z"/><path class="cls-29" d="M50.13,58.37c-1.31.07-2.37,1.48-2.37,3.15a3.72,3.72,0,0,0,.1.84,7.32,7.32,0,0,1,2.27-.46,6.9,6.9,0,0,1,2.27.23,3.86,3.86,0,0,0,.09-.84C52.49,59.61,51.44,58.31,50.13,58.37Z"/><path class="cls-29" d="M59.41,55.14a4.43,4.43,0,0,0-1,4,4.24,4.24,0,0,0,.22.71,7.93,7.93,0,0,1,1.44-1.51,5.12,5.12,0,0,1,1.58-.89,4.27,4.27,0,0,0-.1-.8C61.24,55.13,60.28,54.45,59.41,55.14Z"/><path class="cls-30" d="M27.44,70.74l-.32-.14-9.81-4.27a3.49,3.49,0,0,1-1.87-2.22c-.19-.88.3-1.41,1.12-1.21l6.17,1.45c3,.7,6,1.58,9.09,2.61l2.73.93s.15,0,.22.08a5.09,5.09,0,0,1,2.45,2.46c.68,1.48.2,2.64-1,2.53l-.44,0a25.34,25.34,0,0,1-6-1.29C29,71.37,28.22,71.07,27.44,70.74Z"/><path class="cls-31" d="M38.15,70.84a8.27,8.27,0,0,0-4-4l-.36-.13-2.73-.93c-3.12-1-6.21-1.94-9.24-2.66l-6.16-1.45c-1.58-.37-2.5.62-2.14,2.31a6.66,6.66,0,0,0,3.54,4.22l9.82,4.27.34.15c.83.35,1.65.66,2.46.94A27,27,0,0,0,36,74.92l.45,0C38.48,75.12,39.25,73.25,38.15,70.84Zm-2,2.12-.44,0a25.34,25.34,0,0,1-6-1.29c-.77-.26-1.55-.56-2.33-.89l-.32-.14-9.81-4.27a3.49,3.49,0,0,1-1.87-2.22c-.19-.88.3-1.41,1.12-1.21l6.17,1.45c3,.7,6,1.58,9.09,2.61l2.73.93s.15,0,.22.08a5.09,5.09,0,0,1,2.45,2.46C37.9,71.91,37.42,73.07,36.18,73Z"/><path class="cls-32" d="M36.46,75l-.45,0a27,27,0,0,1-6.32-1.37c-.81-.28-1.63-.59-2.46-.94l-.34-.15-9.82-4.27A6.66,6.66,0,0,1,13.53,64,2,2,0,0,1,14,62l-1.79,1.59a2,2,0,0,0-.44,2,6.6,6.6,0,0,0,3.54,4.22l9.81,4.28.34.14c.83.35,1.65.67,2.47.94a26.93,26.93,0,0,0,6.32,1.37l.44,0a2.05,2.05,0,0,0,1.57-.44L38,74.52A2,2,0,0,1,36.46,75Z"/><g class="cls-5"><polygon class="cls-33" points="13.97 43.3 12.44 42.42 16.77 40.21 18.29 41.1 13.97 43.3"/><polygon class="cls-34" points="8.77 54.58 7.24 53.69 8.32 48.25 9.85 49.13 8.77 54.58"/><polygon class="cls-34" points="10.81 45.12 9.29 44.24 10.85 38.69 12.38 39.58 10.81 45.12"/><polygon class="cls-33" points="6.49 47.91 4.97 47.02 9.29 44.24 10.81 45.12 6.49 47.91"/><polygon class="cls-35" points="12.38 39.58 13.97 43.3 18.29 41.1 14.95 46.19 16.06 50.37 12.41 49.79 8.77 54.58 9.85 49.13 6.49 47.91 10.81 45.12 12.38 39.58"/></g><g class="cls-36"><path class="cls-37" d="M9.92,39.15c1.07,1.15.66,3.26-.9,4.7s-3.69,1.67-4.76.52-.66-3.26.9-4.7S8.86,38,9.92,39.15Z"/></g></g></g></g></svg>