<svg xmlns="http://www.w3.org/2000/svg" xmlns:xlink="http://www.w3.org/1999/xlink" viewBox="0 0 84.11 104.89"><defs><style>.cls-1{fill:none;}.cls-2{isolation:isolate;}.cls-3{fill:#8484b8;}.cls-4{fill:#9191c9;}.cls-5{fill:#9c9cd8;}.cls-6{fill:#787a80;}.cls-7{fill:#fff;}.cls-8{fill:#c1c1e8;}.cls-9{fill:#acacdf;}.cls-10{fill:#e6e6fa;}.cls-11{fill:#aeaed1;}.cls-12{fill:#2462e0;}.cls-13{fill:#a0a0bf;}.cls-14{fill:#b2b2d6;}.cls-15{fill:#cfd0e0;}.cls-16{fill:url(#linear-gradient);}.cls-17{fill:url(#linear-gradient-2);}.cls-18{fill:#c0baca;}.cls-19{fill:url(#linear-gradient-3);}.cls-20{fill:#ebebeb;mix-blend-mode:multiply;}.cls-21{fill:#d4d5e6;}.cls-22{fill:url(#linear-gradient-4);}.cls-23{fill:url(#linear-gradient-5);}.cls-24{fill:url(#linear-gradient-6);}.cls-25{fill:#003447;}.cls-26{fill:#0bf;}.cls-27{fill:url(#linear-gradient-7);}.cls-28{fill:url(#linear-gradient-8);}.cls-29{fill:url(#linear-gradient-9);}.cls-30{clip-path:url(#clip-path);}.cls-31{fill:#1e232b;}.cls-32{fill:#15161c;}.cls-33{fill:#222931;}.cls-34{fill:#232931;}.cls-35{fill:#181c22;}.cls-36{fill:#272e37;}.cls-37{fill:#d5c197;}.cls-38{fill:#81765d;}.cls-39{fill:#3f4a59;}</style><linearGradient id="linear-gradient" x1="47.21" y1="53.75" x2="36.25" y2="34.76" gradientUnits="userSpaceOnUse"><stop offset="0.73" stop-color="#d7d8e8"/><stop offset="0.93" stop-color="#eae9f2"/></linearGradient><linearGradient id="linear-gradient-2" x1="16" y1="52" x2="41.18" y2="52" gradientUnits="userSpaceOnUse"><stop offset="0.37" stop-color="#caccde"/><stop offset="0.97" stop-color="#eae9f2"/></linearGradient><linearGradient id="linear-gradient-3" x1="24.06" y1="50.45" x2="33.62" y2="33.89" gradientUnits="userSpaceOnUse"><stop offset="0" stop-color="#caccde"/><stop offset="0.56" stop-color="#eae9f2"/></linearGradient><linearGradient id="linear-gradient-4" x1="26.65" y1="39.27" x2="46.12" y2="39.27" gradientUnits="userSpaceOnUse"><stop offset="0.24" stop-color="#a8a4b5"/><stop offset="1" stop-color="#dbd3e2"/></linearGradient><linearGradient id="linear-gradient-5" x1="16.77" y1="55.69" x2="36.91" y2="10.15" xlink:href="#linear-gradient-2"/><linearGradient id="linear-gradient-6" x1="23.64" y1="34.11" x2="34.05" y2="16.08" xlink:href="#linear-gradient-3"/><linearGradient id="linear-gradient-7" x1="18.64" y1="69.61" x2="13.45" y2="40.38" gradientUnits="userSpaceOnUse"><stop offset="0" stop-color="#caccde"/><stop offset="1" stop-color="#dfdeee"/></linearGradient><linearGradient id="linear-gradient-8" x1="17.2" y1="67.48" x2="15.34" y2="39.5" xlink:href="#linear-gradient-7"/><linearGradient id="linear-gradient-9" x1="23.14" y1="62.71" x2="12.2" y2="43.76" gradientUnits="userSpaceOnUse"><stop offset="0.68" stop-color="#dbdbea"/><stop offset="0.81" stop-color="#eae9f2"/></linearGradient><clipPath id="clip-path"><path class="cls-1" d="M38.68,6l0,14.18c0,1.51-1,3-3,4.19a16,16,0,0,1-14.56,0c-2-1.18-3.05-2.71-3-4.25l0-14.18c0,1.54,1,3.08,3,4.25a16,16,0,0,0,14.56,0C37.68,9,38.68,7.52,38.68,6Z"/></clipPath></defs><g class="cls-2"><g id="Layer_2" data-name="Layer 2"><g id="Layer_1-2" data-name="Layer 1"><polygon class="cls-3" points="12.68 85.11 10.81 82.73 11.04 80.2 11.89 80.53 12.91 82.58 12.68 85.11"/><polygon class="cls-4" points="4.68 42.97 12.2 82.17 11.15 83.53 7.92 85.39 7.24 66.13 3.23 42.54 4.68 42.97"/><polygon class="cls-5" points="1.45 44.83 8.97 84.03 7.92 85.39 7.19 84.58 0 44.41 1.45 44.83"/><polygon class="cls-4" points="43.43 20.59 50.95 59.79 49.91 61.15 46.68 63.02 45.99 43.75 41.98 20.17 43.43 20.59"/><polygon class="cls-6" points="40.2 22.46 47.72 61.66 46.68 63.02 45.95 62.2 42.77 45.62 38.75 22.03 40.2 22.46"/><polygon class="cls-5" points="45.62 58.98 47.42 60.02 11.89 80.53 10.09 79.5 45.62 58.98"/><polygon class="cls-5" points="42.13 103.18 9.68 84.45 8.64 85.81 8.64 86.2 23.17 94.59 42.13 104.89 42.13 103.18"/><polygon class="cls-7" points="45.36 101.31 12.91 82.58 11.87 83.94 11.87 84.33 26.4 92.72 45.36 103.03 45.36 101.31"/><polygon class="cls-7" points="84.11 78.94 51.67 60.21 50.63 61.57 50.63 61.96 65.15 70.35 84.11 80.65 84.11 78.94"/><polygon class="cls-7" points="80.88 80.8 48.44 62.07 47.4 63.43 47.4 63.82 61.92 72.21 80.88 82.52 80.88 80.8"/><polygon class="cls-8" points="40.2 22.46 43.43 20.59 50.95 59.79 47.72 61.66 40.2 22.46"/><polygon class="cls-8" points="40.2 22.46 4.68 42.97 11.74 79.8 47.27 59.29 40.2 22.46"/><polygon class="cls-8" points="43.43 20.59 1.45 44.83 8.51 81.66 50.49 57.42 43.43 20.59"/><polygon class="cls-9" points="48.44 62.07 47.42 60.02 11.89 80.53 12.91 82.58 48.44 62.07"/><polygon class="cls-8" points="1.45 44.83 4.68 42.97 12.2 82.17 8.97 84.03 1.45 44.83"/><polygon class="cls-8" points="42.13 103.18 84.11 78.94 51.67 60.21 9.68 84.45 42.13 103.18"/><polygon class="cls-9" points="42.13 103.18 84.11 78.94 84.11 80.65 42.13 104.89 42.13 103.18"/><polygon class="cls-10" points="1.45 44.83 43.43 20.59 41.98 20.17 0 44.41 1.45 44.83"/><path class="cls-11" d="M69.2,84.45a.56.56,0,0,1,0,1.06l-15.44,9a2,2,0,0,1-1.83,0l-8.71-5a.56.56,0,0,1,0-1.06l15.44-9a2,2,0,0,1,1.83,0Z"/><polygon class="cls-12" points="2.73 45.42 42.61 22.39 49.21 56.84 9.34 79.86 2.73 45.42"/><path class="cls-13" d="M51.26,66h0a.19.19,0,0,0,.12.17l.43.25a.62.62,0,0,0,.59,0l1.6-.93c.09,0,.13-.11.12-.17h0v-.23l-.16,0-.39-.23a.68.68,0,0,0-.59,0l-1.33.78-.39.09V66Z"/><path class="cls-13" d="M48.86,67.63l.44.25a.66.66,0,0,0,.58,0l1.61-.94a.19.19,0,0,0,.12-.17h0v-.23l-.17,0-.39-.23a.66.66,0,0,0-.58,0l-1.34.78-.39.09v.24h0A.21.21,0,0,0,48.86,67.63Z"/><path class="cls-13" d="M46.35,69.09l.43.25a.68.68,0,0,0,.59,0l1.6-.93a.21.21,0,0,0,.12-.17h0V68l-.16,0-.39-.22a.62.62,0,0,0-.59,0l-1.34.77-.39.09v.24h0C46.22,69,46.27,69,46.35,69.09Z"/><path class="cls-13" d="M26.22,80.78l.44.26a.66.66,0,0,0,.58,0l1.61-.94a.2.2,0,0,0,.12-.17h0V79.7l-.17,0-.39-.23a.68.68,0,0,0-.59,0l-1.33.78-.39.09v.23h0A.19.19,0,0,0,26.22,80.78Z"/><path class="cls-13" d="M28.79,80.52l-1.5.87h-.23v.23h0a.21.21,0,0,0,.12.17l1.62.93a.6.6,0,0,0,.58,0L31,81.79a.21.21,0,0,0,.12-.17h0v-.23h-.23l-1.51-.87A.66.66,0,0,0,28.79,80.52Z"/><path class="cls-13" d="M23.7,82.25l.44.25a.66.66,0,0,0,.58,0l1.61-.94a.19.19,0,0,0,.12-.16h0v-.24l-.16,0-.4-.23a.66.66,0,0,0-.58,0L24,81.75l-.39.09v.24h0A.21.21,0,0,0,23.7,82.25Z"/><path class="cls-13" d="M24.67,83.25l1.61.94a.68.68,0,0,0,.59,0l1.6-.94a.19.19,0,0,0,.12-.17h0v-.23h-.23L26.86,82a.68.68,0,0,0-.59,0l-1.49.87h-.24v.23h0A.24.24,0,0,0,24.67,83.25Z"/><path class="cls-13" d="M21.19,83.71l.43.25a.68.68,0,0,0,.59,0l1.6-.93a.21.21,0,0,0,.12-.17h0v-.24l-.16,0-.39-.22a.62.62,0,0,0-.59,0l-1.33.77-.39.09v.24h0A.21.21,0,0,0,21.19,83.71Z"/><path class="cls-13" d="M22.15,84.71l1.62.94a.66.66,0,0,0,.58,0L26,84.71a.19.19,0,0,0,.12-.16h0v-.24h-.24l-1.5-.87a.68.68,0,0,0-.59,0l-1.49.87H22v.24h0A.19.19,0,0,0,22.15,84.71Z"/><path class="cls-13" d="M21.42,84.32h0v-.23l-.16,0-.4-.23a.6.6,0,0,0-.58,0l-1.68,1-.44.12v.24h0a.21.21,0,0,0,.12.17l.44.25a.66.66,0,0,0,.58,0l2-1.16A.21.21,0,0,0,21.42,84.32Z"/><path class="cls-13" d="M23.56,86h0v-.23h-.23l-1.51-.87a.6.6,0,0,0-.58,0l-1.5.86h-.23V86h0c0,.06,0,.12.13.17l1.61.93a.68.68,0,0,0,.59,0l1.6-.93A.21.21,0,0,0,23.56,86Z"/><path class="cls-13" d="M45.32,73.84l-1.49.87h-.24V75h0c0,.06,0,.12.13.17l1.61.93a.68.68,0,0,0,.59,0l1.6-.93a.21.21,0,0,0,.12-.17h0v-.23h-.23l-1.51-.88A.66.66,0,0,0,45.32,73.84Z"/><path class="cls-13" d="M42.8,75.31l-1.49.87h-.23v.23a.21.21,0,0,0,.12.17l1.62.93a.66.66,0,0,0,.58,0L45,76.58a.21.21,0,0,0,.12-.17h0v-.23H44.9l-1.51-.87A.62.62,0,0,0,42.8,75.31Z"/><path class="cls-13" d="M38.68,78,40.3,79a.62.62,0,0,0,.59,0l1.6-.93a.21.21,0,0,0,.12-.17h0v-.23h-.23l-1.51-.87a.6.6,0,0,0-.58,0l-1.5.87h-.23v.23h0A.21.21,0,0,0,38.68,78Z"/><path class="cls-13" d="M36.17,79.5l1.61.93a.62.62,0,0,0,.59,0L40,79.5a.17.17,0,0,0,.12-.17h0V79.1h-.23l-1.5-.87a.68.68,0,0,0-.59,0l-1.49.87h-.23v.23h0A.2.2,0,0,0,36.17,79.5Z"/><path class="cls-13" d="M33.65,81l1.62.94a.66.66,0,0,0,.58,0L37.46,81a.19.19,0,0,0,.12-.17h0v-.23h-.23l-1.51-.87a.66.66,0,0,0-.58,0l-1.5.87h-.23v.23h0A.19.19,0,0,0,33.65,81Z"/><path class="cls-13" d="M32.74,81.15,31.25,82H31v.24h0a.26.26,0,0,0,.13.17l1.61.93a.68.68,0,0,0,.59,0l1.6-.93a.21.21,0,0,0,.12-.17h0V82h-.23l-1.5-.87A.68.68,0,0,0,32.74,81.15Z"/><path class="cls-13" d="M28.62,83.89l1.62.93a.63.63,0,0,0,.58,0l1.61-.93a.21.21,0,0,0,.12-.17h0v-.23h-.23l-1.51-.87a.62.62,0,0,0-.59,0l-1.49.87H28.5v.23h0A.21.21,0,0,0,28.62,83.89Z"/><path class="cls-13" d="M54.77,73.88l1.61-.94a.2.2,0,0,0,.12-.17h0v-.23h-.24l-1.5-.87a.66.66,0,0,0-.58,0l-1.5.87h-.23v.23h0a.2.2,0,0,0,.12.17l1.62.94A.66.66,0,0,0,54.77,73.88Z"/><path class="cls-13" d="M52.26,75.34l1.6-.94a.19.19,0,0,0,.12-.16h0V74h-.23l-1.51-.87a.66.66,0,0,0-.58,0L50.17,74h-.24v.23h0a.2.2,0,0,0,.13.17l1.61.94A.68.68,0,0,0,52.26,75.34Z"/><path class="cls-13" d="M47.23,78.26l1.6-.93a.21.21,0,0,0,.12-.17h0v-.23h-.23l-1.51-.87a.6.6,0,0,0-.58,0l-1.5.87H44.9v.23h0a.21.21,0,0,0,.12.17l1.62.93A.62.62,0,0,0,47.23,78.26Z"/><path class="cls-13" d="M59.86,73.89l1.6-.93a.2.2,0,0,0,.12-.17h0v-.23h-.23l-1.51-.87a.66.66,0,0,0-.58,0l-1.5.87h-.23v.23h0a.21.21,0,0,0,.12.17l1.62.93A.62.62,0,0,0,59.86,73.89Z"/><path class="cls-13" d="M44.71,79.72l1.6-.93c.09-.05.13-.11.12-.17h0v-.23H46.2l-1.5-.87a.68.68,0,0,0-.59,0l-1.49.87h-.23v.23h0a.21.21,0,0,0,.12.17l1.61.93A.62.62,0,0,0,44.71,79.72Z"/><path class="cls-13" d="M42.19,81.19l1.61-.94a.2.2,0,0,0,.12-.17h0v-.23h-.23L42.18,79a.66.66,0,0,0-.58,0l-1.5.87h-.23v.23h0a.2.2,0,0,0,.12.17l1.62.94A.66.66,0,0,0,42.19,81.19Z"/><path class="cls-13" d="M39.68,82.65l1.6-.93a.21.21,0,0,0,.12-.17h0v-.24h-.23l-1.5-.87a.68.68,0,0,0-.59,0l-1.5.87h-.23v.23h0a.23.23,0,0,0,.13.18l1.61.93A.68.68,0,0,0,39.68,82.65Z"/><path class="cls-13" d="M37.16,84.11l1.61-.93a.21.21,0,0,0,.12-.17h0v-.24h-.24l-1.5-.86a.62.62,0,0,0-.59,0l-1.49.86h-.23V83h0a.21.21,0,0,0,.12.17l1.62.93A.66.66,0,0,0,37.16,84.11Z"/><path class="cls-13" d="M63.72,73.74a.62.62,0,0,0-.59,0l-1.33.77-.39.09v.24h0a.21.21,0,0,0,.12.17l.44.25a.63.63,0,0,0,.58,0l1.61-.93a.21.21,0,0,0,.12-.17h0v-.23l-.17,0Z"/><path class="cls-13" d="M57.51,76a.68.68,0,0,0-.59,0l-1.49.87H55.2v.23h0a.2.2,0,0,0,.12.17l1.61.94a.68.68,0,0,0,.59,0l1.6-.94a.17.17,0,0,0,.12-.17h0v-.23H59Z"/><path class="cls-13" d="M55,77.44a.66.66,0,0,0-.58,0L40.75,85.38l-1,.43V86h0a.21.21,0,0,0,.13.18l1.61.93a.68.68,0,0,0,.59,0l14.51-8.44a.19.19,0,0,0,.12-.16h0v-.24l-.13.06Z"/><path class="cls-13" d="M32.44,84.64l1.62.93a.62.62,0,0,0,.59,0l1.6-.93a.21.21,0,0,0,.12-.17h0v-.23h-.23l-1.51-.87a.6.6,0,0,0-.58,0l-1.5.87h-.23v.23h0A.21.21,0,0,0,32.44,84.64Z"/><path class="cls-13" d="M41.31,87.51v-.23h-.23l-1.51-.87a.62.62,0,0,0-.59,0l-1.49.87h-.23v.23a.21.21,0,0,0,.12.17l1.62.93a.66.66,0,0,0,.58,0l1.61-.93a.21.21,0,0,0,.12-.17Z"/><path class="cls-13" d="M26.11,85.35l1.61.93a.62.62,0,0,0,.59,0l1.6-.93a.21.21,0,0,0,.12-.17h0V85H29.8l-1.51-.87a.66.66,0,0,0-.58,0l-1.5.87H26v.23h0C26,85.24,26,85.3,26.11,85.35Z"/><path class="cls-13" d="M32.5,87.58l1.61.94a.68.68,0,0,0,.59,0l1.6-.94a.2.2,0,0,0,.12-.17v-.23h-.23l-1.51-.87a.66.66,0,0,0-.58,0l-1.5.87h-.23v.23h0A.2.2,0,0,0,32.5,87.58Z"/><path class="cls-13" d="M38.79,89v-.23h-.23l-1.51-.87a.6.6,0,0,0-.58,0l-1.5.87h-.23V89h0a.21.21,0,0,0,.12.17l1.62.93a.6.6,0,0,0,.58,0l1.61-.93a.21.21,0,0,0,.12-.17Z"/><path class="cls-13" d="M27.53,86.65h0v-.23l-.18,0-1.56-.9a.66.66,0,0,0-.58,0L22.37,87.2l-.31,0v.23h0a.21.21,0,0,0,.12.17l1.62.93a.68.68,0,0,0,.59,0l3-1.76A.2.2,0,0,0,27.53,86.65Z"/><path class="cls-13" d="M31.34,87.39h0v-.23l-.17,0-1.57-.91a.66.66,0,0,0-.58,0l-4,2.34-.38.09V89h0a.21.21,0,0,0,.12.17l1.62.93a.6.6,0,0,0,.58,0l4.29-2.49A.2.2,0,0,0,31.34,87.39Z"/><path class="cls-13" d="M33.91,88.88h0v-.24l-.17,0-1.57-.91a.68.68,0,0,0-.59,0l-4,2.34-.38.09v.23h0a.2.2,0,0,0,.12.17l1.62.93a.6.6,0,0,0,.58,0L33.79,89A.19.19,0,0,0,33.91,88.88Z"/><path class="cls-13" d="M32,90.79a.66.66,0,0,0-.58,0l-1.5.87h-.23v.23a.19.19,0,0,0,.12.17l1.62.94A.66.66,0,0,0,32,93l1.61-.94a.19.19,0,0,0,.12-.17h0v-.23h-.23Z"/><path class="cls-13" d="M36.27,90.43V90.2H36l-1.5-.87a.68.68,0,0,0-.59,0l-1.49.87h-.23v.23h0a.2.2,0,0,0,.12.17l1.61.93a.62.62,0,0,0,.59,0l1.6-.93a.2.2,0,0,0,.12-.17Z"/><path class="cls-13" d="M61.76,75.39h-.23L60,74.52a.66.66,0,0,0-.58,0l-1.5.87h-.23v.23a.21.21,0,0,0,.12.17l1.62.93a.62.62,0,0,0,.59,0l1.6-.93a.21.21,0,0,0,.12-.17Z"/><path class="cls-13" d="M62.93,73.28l-.39-.22a.62.62,0,0,0-.59,0l-1.33.77-.39.1v.23h0a.21.21,0,0,0,.12.17l.44.25a.66.66,0,0,0,.58,0L63,73.65a.21.21,0,0,0,.12-.17h0v-.24Z"/><path class="cls-13" d="M66.85,72.43h-.23l-1.5-.87a.68.68,0,0,0-.59,0L63,72.43h-.23v.23h0a.21.21,0,0,0,.12.17l1.61.93a.62.62,0,0,0,.59,0l1.6-.93a.21.21,0,0,0,.12-.17h0Z"/><path class="cls-13" d="M60.05,71.1v.23h0a.21.21,0,0,0,.12.17l1.62.93a.6.6,0,0,0,.58,0l1.83-1.06a.21.21,0,0,0,.12-.17h0V71H64.1l-1.52-.87a.6.6,0,0,0-.58,0l-1.71,1Z"/><path class="cls-13" d="M55,71.08v.23h0a.21.21,0,0,0,.12.17l1.61.93a.62.62,0,0,0,.59,0l4.35-2.52a.21.21,0,0,0,.12-.17h0v-.23l-.17,0L60,68.62a.62.62,0,0,0-.59,0L55.35,71Z"/><path class="cls-13" d="M51.47,75.46h-.24l-1.5-.86a.62.62,0,0,0-.59,0l-1.49.86h-.23v.24h0a.21.21,0,0,0,.12.17l1.62.93a.66.66,0,0,0,.58,0l1.61-.93a.21.21,0,0,0,.12-.17h0Z"/><path class="cls-13" d="M29.81,85.93a.21.21,0,0,0,.12.17l1.61.93a.62.62,0,0,0,.59,0l1.61-.93a.24.24,0,0,0,.12-.17h0V85.7h-.24l-1.5-.87a.68.68,0,0,0-.59,0L30,85.7h-.23v.23Z"/><path class="cls-13" d="M37.21,87.05l1.61-.93a.21.21,0,0,0,.12-.17v-.23h-.23l-1.51-.87a.68.68,0,0,0-.59,0l-1.49.87h-.23V86h0a.21.21,0,0,0,.12.17l1.62.93A.6.6,0,0,0,37.21,87.05Z"/><path class="cls-13" d="M39.73,85.59l1.6-.93a.21.21,0,0,0,.12-.17v-.23h-.23l-1.5-.87a.62.62,0,0,0-.59,0l-1.5.87H37.4v.23h0a.26.26,0,0,0,.13.17l1.61.93A.65.65,0,0,0,39.73,85.59Z"/><path class="cls-13" d="M42.24,84.13l1.61-.93A.21.21,0,0,0,44,83v-.24h-.23l-1.51-.87a.66.66,0,0,0-.58,0l-1.5.87h-.23V83h0a.21.21,0,0,0,.12.17l1.62.93A.66.66,0,0,0,42.24,84.13Z"/><path class="cls-13" d="M44.76,82.67l1.6-.94c.09,0,.13-.1.12-.17v-.23h-.23l-1.5-.87a.68.68,0,0,0-.59,0l-1.49.87h-.23v.23h0a.19.19,0,0,0,.12.17l1.61.94A.68.68,0,0,0,44.76,82.67Z"/><path class="cls-13" d="M49,79.87h-.23L47.26,79a.66.66,0,0,0-.58,0l-1.5.87H45v.23h0a.2.2,0,0,0,.12.17l1.62.94a.68.68,0,0,0,.59,0l1.6-.94A.2.2,0,0,0,49,80.1h0Z"/><path class="cls-13" d="M51.52,78.41h-.23l-1.51-.87a.62.62,0,0,0-.59,0l-1.49.87h-.23v.23h0a.21.21,0,0,0,.12.17l1.62.93a.6.6,0,0,0,.58,0l1.61-.93a.21.21,0,0,0,.12-.17h0Z"/><path class="cls-13" d="M54,77H53.8l-1.5-.87a.62.62,0,0,0-.59,0l-1.5.87H50v.23h0c0,.06.05.12.13.17l1.61.93a.68.68,0,0,0,.59,0l1.6-.93a.21.21,0,0,0,.12-.17h0Z"/><path class="cls-13" d="M56.55,75.48h-.23l-1.51-.87a.66.66,0,0,0-.58,0l-1.5.87H52.5v.24h0a.21.21,0,0,0,.12.17l1.62.93a.66.66,0,0,0,.58,0l1.61-.93a.21.21,0,0,0,.12-.17h0Z"/><path class="cls-13" d="M59.06,74h-.23l-1.5-.87a.68.68,0,0,0-.59,0L55.25,74H55v.23h0a.19.19,0,0,0,.12.17l1.61.94a.68.68,0,0,0,.59,0l1.6-.94a.19.19,0,0,0,.12-.17h0Z"/><path class="cls-13" d="M47.84,72.38l-1.5.87h-.23v.23h0a.19.19,0,0,0,.12.17l1.62.94a.66.66,0,0,0,.58,0L50,73.65a.19.19,0,0,0,.12-.17h0v-.23h-.23l-1.51-.87A.66.66,0,0,0,47.84,72.38Z"/><path class="cls-13" d="M48.75,72.19l1.61.93a.62.62,0,0,0,.59,0l1.6-.93a.2.2,0,0,0,.12-.17h0v-.23h-.22l-1.51-.87a.68.68,0,0,0-.59,0l-1.49.87h-.23V72h0A.2.2,0,0,0,48.75,72.19Z"/><path class="cls-13" d="M55.19,70.56h0v-.23H55l-1.51-.87a.6.6,0,0,0-.58,0l-1.5.87h-.23v.23h0a.21.21,0,0,0,.12.17l1.62.93a.62.62,0,0,0,.59,0l1.6-.93A.21.21,0,0,0,55.19,70.56Z"/><path class="cls-13" d="M53.75,68.46h0v-.23h-.23L52,67.36a.66.66,0,0,0-.58,0l-1.49.87H49.7v.23h0a.2.2,0,0,0,.13.17l1.61.93a.62.62,0,0,0,.59,0l1.6-.93A.2.2,0,0,0,53.75,68.46Z"/><path class="cls-13" d="M48.91,68.82l-1.49.87h-.23v.23h0a.19.19,0,0,0,.12.17l1.62.94a.66.66,0,0,0,.58,0l1.61-.94a.19.19,0,0,0,.12-.17h0v-.23H51l-1.51-.87A.68.68,0,0,0,48.91,68.82Z"/><path class="cls-13" d="M46.4,70.28l-1.5.87h-.23v.24h0a.21.21,0,0,0,.12.17l1.62.93a.66.66,0,0,0,.58,0l1.61-.93a.21.21,0,0,0,.12-.17h0v-.23h-.23L47,70.28A.66.66,0,0,0,46.4,70.28Z"/><path class="cls-13" d="M43.88,71.75l-1.49.86h-.23v.24h0a.21.21,0,0,0,.12.17l1.61.93a.68.68,0,0,0,.59,0l1.6-.93a.21.21,0,0,0,.12-.17h0v-.23H46l-1.51-.87A.62.62,0,0,0,43.88,71.75Z"/><path class="cls-13" d="M41.37,73.21l-1.5.87h-.23v.23h0a.21.21,0,0,0,.12.17l1.62.93a.6.6,0,0,0,.58,0l1.61-.93a.21.21,0,0,0,.12-.17h0v-.23h-.23L42,73.21A.6.6,0,0,0,41.37,73.21Z"/><path class="cls-13" d="M37.25,75.94l1.61.94a.68.68,0,0,0,.59,0l1.6-.94a.2.2,0,0,0,.12-.17h0v-.23h-.23l-1.51-.87a.66.66,0,0,0-.58,0l-1.49.87h-.24v.23h0A.21.21,0,0,0,37.25,75.94Z"/><path class="cls-13" d="M34.73,77.4l1.62.94a.66.66,0,0,0,.58,0l1.61-.94a.19.19,0,0,0,.12-.17h0V77h-.23l-1.51-.87a.68.68,0,0,0-.59,0L34.84,77h-.23v.23h0A.19.19,0,0,0,34.73,77.4Z"/><path class="cls-13" d="M33.82,77.59l-1.5.87h-.23v.24h0a.21.21,0,0,0,.12.17l1.62.93a.68.68,0,0,0,.59,0l1.6-.93a.21.21,0,0,0,.12-.17h0v-.23h-.23l-1.51-.88A.66.66,0,0,0,33.82,77.59Z"/><path class="cls-13" d="M31.3,79.06l-1.49.86h-.23v.24h0a.21.21,0,0,0,.12.17l1.61.93a.65.65,0,0,0,.59,0l1.6-.93c.09,0,.13-.11.12-.17h0v-.23H33.4l-1.51-.87A.62.62,0,0,0,31.3,79.06Z"/><path class="cls-13" d="M52.22,66.77V67h0a.21.21,0,0,0,.12.17L54,68.1a.6.6,0,0,0,.58,0l2-1.16a.19.19,0,0,0,.12-.17h0v-.23h-.22l-1.52-.88a.68.68,0,0,0-.59,0l-1.86,1.08Z"/><path class="cls-13" d="M53.67,68.87v.24h0a.26.26,0,0,0,.13.17l1.61.93a.68.68,0,0,0,.59,0l3.09-1.79a.21.21,0,0,0,.12-.17h0V68L59,68l-1.55-.9a.68.68,0,0,0-.59,0L54,68.82Z"/><path class="cls-13" d="M43.83,70.55l.44.25a.66.66,0,0,0,.58,0l1.61-.93a.24.24,0,0,0,.12-.17h0v-.23l-.17,0L46,69.28a.62.62,0,0,0-.59,0l-1.33.77-.39.1v.23h0A.21.21,0,0,0,43.83,70.55Z"/><path class="cls-13" d="M41.31,72l.44.25a.62.62,0,0,0,.59,0l1.6-.93a.21.21,0,0,0,.12-.17h0v-.23l-.16,0-.4-.23a.66.66,0,0,0-.58,0l-1.34.78-.39.09v.23h0A.21.21,0,0,0,41.31,72Z"/><path class="cls-13" d="M38.8,73.47l.43.25a.62.62,0,0,0,.59,0l1.6-.93a.19.19,0,0,0,.12-.16h0v-.24l-.17,0L41,72.2a.68.68,0,0,0-.59,0L39.07,73l-.39.09v.23h0A.2.2,0,0,0,38.8,73.47Z"/><path class="cls-13" d="M36.28,74.94l.44.25a.66.66,0,0,0,.58,0l1.61-.94a.19.19,0,0,0,.12-.16h0v-.24l-.16,0-.4-.23a.66.66,0,0,0-.58,0l-1.34.78-.39.09v.24h0A.21.21,0,0,0,36.28,74.94Z"/><path class="cls-13" d="M33.77,76.4l.43.25a.68.68,0,0,0,.59,0l1.6-.93a.21.21,0,0,0,.12-.17h0v-.24l-.16,0L36,75.13a.62.62,0,0,0-.59,0L34,75.9l-.39.09v.24h0A.21.21,0,0,0,33.77,76.4Z"/><path class="cls-13" d="M31.25,77.86l.44.25a.66.66,0,0,0,.58,0l1.61-.93A.21.21,0,0,0,34,77h0v-.23l-.17,0-.39-.23a.62.62,0,0,0-.59,0l-1.33.77-.39.1v.23h0A.21.21,0,0,0,31.25,77.86Z"/><path class="cls-13" d="M28.74,79.32l.43.25a.62.62,0,0,0,.59,0l1.6-.93c.08,0,.12-.1.12-.16h0v-.23l-.16,0-.4-.23a.66.66,0,0,0-.58,0L29,78.83l-.39.09v.23h0C28.61,79.21,28.65,79.27,28.74,79.32Z"/><path class="cls-14" d="M54,64.91c.16.09.17.24,0,.34l-1.6.93a.68.68,0,0,1-.59,0l-.43-.25a.18.18,0,0,1,0-.34l1.6-.93a.62.62,0,0,1,.59,0Z"/><path class="cls-14" d="M56.53,66.37c.17.1.17.25,0,.34l-2,1.16a.66.66,0,0,1-.58,0l-1.62-.93c-.16-.1-.16-.25,0-.34l2-1.16a.68.68,0,0,1,.59,0Z"/><path class="cls-14" d="M51.49,66.37c.16.1.16.25,0,.34l-1.61.93a.6.6,0,0,1-.58,0l-.44-.25c-.16-.09-.16-.24,0-.34l1.61-.93a.66.66,0,0,1,.58,0Z"/><path class="cls-14" d="M53.63,68.06a.18.18,0,0,1,0,.34l-1.6.93a.68.68,0,0,1-.59,0l-1.61-.93c-.17-.09-.17-.25,0-.34l1.61-.93a.6.6,0,0,1,.58,0Z"/><path class="cls-14" d="M49,67.83c.16.1.16.25,0,.34l-1.6.94a.68.68,0,0,1-.59,0l-.43-.26c-.17-.09-.17-.24,0-.34l1.6-.93a.68.68,0,0,1,.59,0Z"/><path class="cls-14" d="M51.11,69.52c.17.1.17.25,0,.34l-1.61.93a.6.6,0,0,1-.58,0l-1.62-.93c-.16-.09-.16-.24,0-.34l1.6-.93a.68.68,0,0,1,.59,0Z"/><path class="cls-14" d="M46.45,69.3c.17.09.17.24,0,.33l-1.61.94a.66.66,0,0,1-.58,0l-.44-.25c-.16-.1-.16-.25,0-.34l1.6-.94A.68.68,0,0,1,46,69Z"/><path class="cls-14" d="M48.6,71c.16.1.16.25,0,.34L47,72.26a.66.66,0,0,1-.58,0l-1.62-.94c-.16-.09-.16-.24,0-.34l1.61-.93a.66.66,0,0,1,.58,0Z"/><path class="cls-14" d="M43.94,70.76c.16.09.16.24,0,.34l-1.6.93a.68.68,0,0,1-.59,0l-.44-.25c-.16-.1-.16-.25,0-.34l1.61-.93a.6.6,0,0,1,.58,0Z"/><path class="cls-14" d="M46.08,72.45c.16.09.17.24,0,.33l-1.6.94a.68.68,0,0,1-.59,0l-1.61-.94a.17.17,0,0,1,0-.33l1.6-.94a.68.68,0,0,1,.59,0Z"/><path class="cls-14" d="M41.42,72.22a.18.18,0,0,1,0,.34l-1.6.93a.62.62,0,0,1-.59,0l-.43-.25a.18.18,0,0,1,0-.34L40.4,72A.65.65,0,0,1,41,72Z"/><path class="cls-14" d="M43.57,73.91c.16.09.16.24,0,.34L42,75.18a.66.66,0,0,1-.58,0l-1.62-.93c-.16-.1-.16-.25,0-.34L41.37,73A.6.6,0,0,1,42,73Z"/><path class="cls-14" d="M38.91,73.68c.16.1.16.25,0,.34L37.3,75a.6.6,0,0,1-.58,0l-.44-.25c-.16-.09-.16-.24,0-.34l1.61-.93a.66.66,0,0,1,.58,0Z"/><path class="cls-14" d="M41.05,75.37a.18.18,0,0,1,0,.34l-1.6.93a.62.62,0,0,1-.59,0l-1.61-.93c-.17-.09-.17-.25,0-.34l1.61-.93a.6.6,0,0,1,.58,0Z"/><path class="cls-14" d="M36.39,75.14c.16.1.16.25,0,.34l-1.6.94a.68.68,0,0,1-.59,0l-.43-.26c-.16-.09-.17-.24,0-.33l1.6-.94a.68.68,0,0,1,.59,0Z"/><path class="cls-14" d="M38.53,76.83c.17.1.17.25,0,.34l-1.61.93a.6.6,0,0,1-.58,0l-1.62-.93c-.16-.09-.16-.24,0-.34l1.6-.93a.68.68,0,0,1,.59,0Z"/><path class="cls-14" d="M33.88,76.61c.16.09.16.24,0,.34l-1.61.93a.66.66,0,0,1-.58,0l-.44-.25c-.16-.1-.16-.25,0-.34l1.6-.94a.68.68,0,0,1,.59,0Z"/><path class="cls-14" d="M36,78.29c.16.1.16.25,0,.34l-1.6.94a.68.68,0,0,1-.59,0l-1.62-.94c-.16-.09-.16-.24,0-.34l1.61-.93a.66.66,0,0,1,.58,0Z"/><path class="cls-14" d="M31.36,78.07c.16.09.16.24,0,.34l-1.6.93a.68.68,0,0,1-.59,0l-.43-.25c-.17-.1-.17-.25,0-.34l1.61-.93a.6.6,0,0,1,.58,0Z"/><path class="cls-14" d="M33.5,79.76c.16.09.17.24,0,.34L31.9,81a.68.68,0,0,1-.59,0L29.7,80.1c-.16-.1-.16-.25,0-.34l1.6-.94a.68.68,0,0,1,.59,0Z"/><path class="cls-14" d="M28.84,79.53c.17.09.17.25,0,.34l-1.61.93a.6.6,0,0,1-.58,0l-.44-.25c-.16-.09-.16-.24,0-.34l1.6-.93a.68.68,0,0,1,.59,0Z"/><path class="cls-14" d="M31,81.22c.16.09.16.24,0,.34l-1.61.93a.66.66,0,0,1-.58,0l-1.62-.93c-.16-.1-.16-.25,0-.34l1.61-.93a.6.6,0,0,1,.58,0Z"/><path class="cls-14" d="M26.33,81c.16.1.16.25,0,.34l-1.61.93a.6.6,0,0,1-.58,0L23.7,82c-.16-.09-.16-.24,0-.34l1.61-.93a.66.66,0,0,1,.58,0Z"/><path class="cls-14" d="M28.47,82.68a.18.18,0,0,1,0,.34l-1.6.93a.62.62,0,0,1-.59,0L24.67,83a.18.18,0,0,1,0-.34l1.6-.93a.62.62,0,0,1,.59,0Z"/><path class="cls-14" d="M23.81,82.45c.16.1.16.25,0,.34l-1.6.94a.68.68,0,0,1-.59,0l-.43-.26c-.16-.09-.17-.24,0-.33l1.6-.94a.68.68,0,0,1,.59,0Z"/><path class="cls-14" d="M26,84.14c.16.1.16.25,0,.34l-1.61.93a.6.6,0,0,1-.58,0l-1.62-.93c-.16-.09-.16-.24,0-.34l1.6-.93a.68.68,0,0,1,.59,0Z"/><path class="cls-14" d="M21.3,83.92c.16.09.16.24,0,.34l-2,1.15a.6.6,0,0,1-.58,0l-.44-.25c-.16-.09-.16-.24,0-.34l2-1.15a.6.6,0,0,1,.58,0Z"/><path class="cls-14" d="M23.44,85.6c.16.1.16.25,0,.34l-1.6.94a.68.68,0,0,1-.59,0l-1.61-.94c-.17-.09-.17-.24,0-.34l1.61-.93a.66.66,0,0,1,.58,0Z"/><path class="cls-14" d="M59.08,67.84c.17.1.17.25,0,.34L56,70a.68.68,0,0,1-.59,0L53.8,69c-.17-.09-.17-.24,0-.33l3.08-1.8a.68.68,0,0,1,.59,0Z"/><path class="cls-14" d="M55.07,70.16c.16.09.16.24,0,.34l-1.6.93a.68.68,0,0,1-.59,0l-1.62-.93c-.16-.1-.16-.25,0-.34l1.61-.94a.66.66,0,0,1,.58,0Z"/><path class="cls-14" d="M52.55,71.62c.16.09.17.24,0,.34l-1.6.93a.62.62,0,0,1-.59,0L48.75,72a.18.18,0,0,1,0-.34l1.6-.93a.62.62,0,0,1,.59,0Z"/><path class="cls-14" d="M50,73.08c.16.1.16.25,0,.34l-1.61.93a.6.6,0,0,1-.58,0l-1.62-.93c-.16-.09-.16-.24,0-.34l1.61-.93a.66.66,0,0,1,.58,0Z"/><path class="cls-14" d="M47.52,74.54c.16.1.16.25,0,.34l-1.6.94a.68.68,0,0,1-.59,0l-1.61-.94c-.17-.09-.17-.24,0-.34l1.61-.93a.66.66,0,0,1,.58,0Z"/><path class="cls-14" d="M45,76c.17.09.17.24,0,.33l-1.61.94a.66.66,0,0,1-.58,0l-1.62-.94a.17.17,0,0,1,0-.33l1.6-.94a.68.68,0,0,1,.59,0Z"/><path class="cls-14" d="M42.49,77.47c.16.09.16.24,0,.34l-1.6.93a.68.68,0,0,1-.59,0l-1.62-.93c-.16-.1-.16-.25,0-.34l1.61-.93a.6.6,0,0,1,.58,0Z"/><path class="cls-14" d="M40,78.93c.16.09.17.25,0,.34l-1.6.93a.62.62,0,0,1-.59,0l-1.61-.93a.18.18,0,0,1,0-.34l1.6-.93a.62.62,0,0,1,.59,0Z"/><path class="cls-14" d="M37.46,80.39c.16.1.16.25,0,.34l-1.61.93a.6.6,0,0,1-.58,0l-1.62-.93c-.16-.09-.16-.24,0-.34l1.61-.93a.66.66,0,0,1,.58,0Z"/><path class="cls-14" d="M34.94,81.85c.16.1.16.25,0,.34l-1.6.94a.68.68,0,0,1-.59,0l-1.61-.94c-.16-.09-.17-.24,0-.34l1.6-.93a.68.68,0,0,1,.59,0Z"/><path class="cls-14" d="M32.43,83.32c.16.09.16.24,0,.34l-1.61.93a.66.66,0,0,1-.58,0l-1.62-.93c-.16-.1-.16-.25,0-.34l1.6-.94a.68.68,0,0,1,.59,0Z"/><path class="cls-14" d="M61.63,69.32c.17.09.17.24,0,.33l-4.35,2.53a.68.68,0,0,1-.59,0l-1.61-.93c-.16-.1-.16-.25,0-.34l4.34-2.53a.68.68,0,0,1,.59,0Z"/><path class="cls-14" d="M56.38,72.37a.18.18,0,0,1,0,.34l-1.61.93a.6.6,0,0,1-.58,0l-1.62-.93a.18.18,0,0,1,0-.34l1.61-.93a.6.6,0,0,1,.58,0Z"/><path class="cls-14" d="M53.86,73.83c.16.1.16.25,0,.34l-1.6.93a.62.62,0,0,1-.59,0l-1.61-.93c-.17-.09-.17-.24,0-.34l1.61-.93a.66.66,0,0,1,.58,0Z"/><path class="cls-14" d="M51.34,75.29c.17.1.17.25,0,.34l-1.61.94a.66.66,0,0,1-.58,0l-1.62-.94c-.16-.09-.16-.24,0-.34l1.6-.93a.68.68,0,0,1,.59,0Z"/><path class="cls-14" d="M48.83,76.76c.16.09.16.24,0,.34l-1.6.93a.68.68,0,0,1-.59,0L45,77.1c-.16-.1-.16-.25,0-.34l1.61-.94a.66.66,0,0,1,.58,0Z"/><path class="cls-14" d="M64.2,70.8c.16.09.16.24,0,.34L62.37,72.2a.66.66,0,0,1-.58,0l-1.62-.93c-.16-.1-.16-.25,0-.34L62,69.86a.66.66,0,0,1,.58,0Z"/><path class="cls-14" d="M61.46,72.39c.16.09.16.24,0,.34l-1.6.93a.62.62,0,0,1-.59,0l-1.62-.93c-.16-.1-.16-.25,0-.34l1.61-.93a.6.6,0,0,1,.58,0Z"/><path class="cls-14" d="M58.94,73.85c.16.1.17.25,0,.34l-1.6.93a.62.62,0,0,1-.59,0l-1.61-.93c-.16-.09-.16-.24,0-.34l1.6-.93a.68.68,0,0,1,.59,0Z"/><path class="cls-14" d="M56.43,75.31c.16.1.16.25,0,.34l-1.61.94a.66.66,0,0,1-.58,0l-1.62-.94c-.16-.09-.16-.24,0-.34l1.61-.93a.66.66,0,0,1,.58,0Z"/><path class="cls-14" d="M53.91,76.78a.17.17,0,0,1,0,.33l-1.6.94a.68.68,0,0,1-.59,0l-1.61-.94c-.17-.09-.17-.24,0-.33l1.61-.94a.66.66,0,0,1,.58,0Z"/><path class="cls-14" d="M51.39,78.24c.17.09.17.24,0,.34l-1.61.93a.66.66,0,0,1-.58,0l-1.62-.93c-.16-.1-.16-.25,0-.34l1.6-.93a.62.62,0,0,1,.59,0Z"/><path class="cls-14" d="M46.31,78.22c.16.09.17.24,0,.34l-1.6.93a.68.68,0,0,1-.59,0l-1.61-.93c-.16-.1-.16-.25,0-.34l1.6-.93a.62.62,0,0,1,.59,0Z"/><path class="cls-14" d="M43.8,79.68a.18.18,0,0,1,0,.34L42.19,81a.6.6,0,0,1-.58,0L40,80a.18.18,0,0,1,0-.34l1.61-.93a.6.6,0,0,1,.58,0Z"/><path class="cls-14" d="M48.88,79.7a.18.18,0,0,1,0,.34l-1.6.93a.62.62,0,0,1-.59,0L45.07,80a.18.18,0,0,1,0-.34l1.61-.93a.6.6,0,0,1,.58,0Z"/><path class="cls-14" d="M46.36,81.16c.16.1.17.25,0,.34l-1.6.93a.62.62,0,0,1-.59,0l-1.61-.93c-.16-.09-.16-.24,0-.34l1.6-.93a.68.68,0,0,1,.59,0Z"/><path class="cls-14" d="M41.28,81.14c.16.1.16.25,0,.34l-1.6.93a.62.62,0,0,1-.59,0l-1.61-.93c-.17-.09-.17-.24,0-.34l1.61-.93a.68.68,0,0,1,.59,0Z"/><path class="cls-14" d="M38.76,82.6c.17.1.17.25,0,.34l-1.61.94a.66.66,0,0,1-.58,0L35,82.94c-.16-.09-.16-.24,0-.34l1.6-.93a.68.68,0,0,1,.59,0Z"/><path class="cls-14" d="M43.85,82.62c.16.1.16.25,0,.34l-1.61.94a.66.66,0,0,1-.58,0L40,83c-.16-.09-.16-.24,0-.34l1.61-.93a.66.66,0,0,1,.58,0Z"/><path class="cls-14" d="M41.33,84.09c.16.09.16.24,0,.34l-1.6.93a.68.68,0,0,1-.59,0l-1.61-.93c-.17-.1-.17-.25,0-.34l1.61-.94a.68.68,0,0,1,.59,0Z"/><path class="cls-14" d="M66.73,72.26c.16.09.16.24,0,.34l-1.6.93a.68.68,0,0,1-.59,0l-1.61-.93c-.16-.1-.17-.25,0-.34l1.6-.93a.62.62,0,0,1,.59,0Z"/><path class="cls-14" d="M63,73.08c.17.09.17.24,0,.33l-1.61.94a.66.66,0,0,1-.58,0l-.44-.25c-.16-.1-.16-.25,0-.34l1.6-.94a.68.68,0,0,1,.59,0Z"/><path class="cls-14" d="M64.15,73.76c.17.09.17.24,0,.34L62.55,75A.66.66,0,0,1,62,75l-.44-.25c-.16-.1-.16-.25,0-.34l1.6-.93a.62.62,0,0,1,.59,0Z"/><path class="cls-14" d="M61.64,75.22c.16.09.16.24,0,.34l-1.6.93a.68.68,0,0,1-.59,0l-1.62-.93c-.16-.1-.16-.25,0-.34l1.61-.93a.6.6,0,0,1,.58,0Z"/><path class="cls-14" d="M59.12,76.68c.16.09.17.25,0,.34l-1.6.93a.62.62,0,0,1-.59,0L55.32,77a.18.18,0,0,1,0-.34l1.6-.93a.62.62,0,0,1,.59,0Z"/><path class="cls-14" d="M56.61,78.14c.16.1.16.25,0,.34L42.1,86.92a.68.68,0,0,1-.59,0L39.9,86c-.17-.09-.17-.24,0-.34l14.52-8.43a.66.66,0,0,1,.58,0Z"/><path class="cls-14" d="M36.25,84.07c.16.09.16.24,0,.34l-1.6.93a.68.68,0,0,1-.59,0l-1.62-.93c-.16-.1-.16-.25,0-.34l1.61-.94a.66.66,0,0,1,.58,0Z"/><path class="cls-14" d="M38.81,85.55c.17.09.17.24,0,.34l-1.61.93a.66.66,0,0,1-.58,0L35,85.89c-.16-.1-.16-.25,0-.34l1.6-.93a.62.62,0,0,1,.59,0Z"/><path class="cls-14" d="M41.18,87.11c.17.09.17.24,0,.33l-1.61.94a.66.66,0,0,1-.58,0l-1.62-.94a.17.17,0,0,1,0-.33l1.6-.94a.68.68,0,0,1,.59,0Z"/><path class="cls-14" d="M29.91,84.78c.16.09.16.24,0,.34l-1.6.93a.68.68,0,0,1-.59,0l-1.61-.93c-.17-.1-.17-.25,0-.34l1.61-.93a.6.6,0,0,1,.58,0Z"/><path class="cls-14" d="M33.73,85.53c.17.09.17.24,0,.34l-1.61.93a.68.68,0,0,1-.59,0l-1.61-.93c-.16-.1-.16-.25,0-.34l1.6-.93a.62.62,0,0,1,.59,0Z"/><path class="cls-14" d="M36.3,87a.18.18,0,0,1,0,.34l-1.6.93a.62.62,0,0,1-.59,0l-1.61-.93c-.17-.09-.17-.25,0-.34l1.61-.93a.6.6,0,0,1,.58,0Z"/><path class="cls-14" d="M38.67,88.57c.16.09.16.24,0,.34l-1.61.93a.66.66,0,0,1-.58,0l-1.62-.93c-.16-.1-.16-.25,0-.34l1.61-.94a.63.63,0,0,1,.58,0Z"/><path class="cls-14" d="M27.41,86.25a.18.18,0,0,1,0,.34l-3,1.76a.68.68,0,0,1-.59,0l-1.62-.93c-.16-.1-.16-.25,0-.34l3-1.76a.6.6,0,0,1,.58,0Z"/><path class="cls-14" d="M31.22,87a.18.18,0,0,1,0,.34l-4.29,2.49a.66.66,0,0,1-.58,0l-1.62-.93c-.16-.1-.16-.25,0-.34L29,86.06a.6.6,0,0,1,.58,0Z"/><path class="cls-14" d="M33.78,88.47c.17.1.17.25,0,.34L29.5,91.3a.6.6,0,0,1-.58,0l-1.62-.93a.18.18,0,0,1,0-.34l4.28-2.49a.68.68,0,0,1,.59,0Z"/><path class="cls-14" d="M36.15,90c.16.09.16.24,0,.34l-1.6.93a.62.62,0,0,1-.59,0l-1.61-.93c-.16-.09-.17-.25,0-.34L34,89.1a.62.62,0,0,1,.59,0Z"/><path class="cls-14" d="M33.64,91.49c.16.1.16.25,0,.34L32,92.76a.6.6,0,0,1-.58,0l-1.62-.93c-.16-.09-.16-.24,0-.34l1.61-.93a.66.66,0,0,1,.58,0Z"/><path class="cls-15" d="M37.15,37.68a5.86,5.86,0,0,1,2.16,2.4l.19.41a32.31,32.31,0,0,1,1.81,4.94c.17.66.31,1.3.41,1.91l1.12,6.75c.11.59-.33.76-1,.37a3.91,3.91,0,0,1-1.59-1.86l-1.77-5c-.85-2.43-1.58-4.81-2.19-7.12l-.55-2c-.21-.79.15-1.17.88-.94C36.73,37.56,37,37.58,37.15,37.68Z"/><path class="cls-15" d="M44.42,54.54,43.3,47.79c-.11-.65-.26-1.33-.44-2A33,33,0,0,0,41,40.53l-.19-.41a9.57,9.57,0,0,0-3.53-3.91,4.68,4.68,0,0,0-.83-.38c-1.19-.37-1.77.25-1.43,1.55l.54,2c.62,2.34,1.37,4.76,2.23,7.24l1.77,5a7.54,7.54,0,0,0,3,3.54C43.8,56,44.61,55.67,44.42,54.54Zm-2.57-.08a3.91,3.91,0,0,1-1.59-1.86l-1.77-5c-.85-2.43-1.58-4.81-2.19-7.12l-.55-2c-.21-.79.15-1.17.88-.94.1.11.34.13.52.23a5.86,5.86,0,0,1,2.16,2.4l.19.41a32.31,32.31,0,0,1,1.81,4.94c.17.66.31,1.3.41,1.91l1.12,6.75C43,54.68,42.51,54.85,41.85,54.46Z"/><path class="cls-16" d="M46.1,53,45,46.29a20.16,20.16,0,0,0-.43-2A33.1,33.1,0,0,0,42.62,39l-.18-.41a9.5,9.5,0,0,0-3.53-3.91,5.43,5.43,0,0,0-.83-.38,1.29,1.29,0,0,0-1.25.1l-1.67,1.49a1.27,1.27,0,0,1,1.24-.1,4.68,4.68,0,0,1,.83.38,9.57,9.57,0,0,1,3.53,3.91l.19.41a33,33,0,0,1,1.91,5.24c.18.69.33,1.37.44,2l1.12,6.75a1,1,0,0,1-.2.93L45.9,54A1,1,0,0,0,46.1,53Z"/><path class="cls-17" d="M41.18,42.8c0,1.5-1.27,18.39-12.51,18.39S16,43.42,16,42.81Z"/><path class="cls-18" d="M32.12,39.81A7.84,7.84,0,0,1,25,39.74c-1.94-1.16-1.9-3,.1-4.12a7.84,7.84,0,0,1,7.12.07C34.16,36.85,34.11,38.7,32.12,39.81Z"/><path class="cls-19" d="M41.06,41.81c-.07-.3-.18-.68-.28-1s-.28-.7-.41-1a10.65,10.65,0,0,0-1-1.63,10.4,10.4,0,0,0-1.43-1.55,11.9,11.9,0,0,0-1.79-1.31c-.24-.15-.58-.33-.84-.46l-.68-.32a12.75,12.75,0,0,0-1.5-.54,14.44,14.44,0,0,0-1.47-.37c-.56-.11-1.14-.18-1.46-.21l-.73-.06-.73,0H28a14.32,14.32,0,0,0-1.47.11s-.72.09-1.48.26l-.8.21-.71.22a9.14,9.14,0,0,0-.87.33c-.21.08-.48.21-.69.31a9.42,9.42,0,0,0-.89.47c-.38.24-.88.56-1.23.83a11.38,11.38,0,0,0-1.1,1A9,9,0,0,0,18,38c-.13.17-.3.39-.42.57s-.39.64-.55.92a7.56,7.56,0,0,0-.43.91c-.14.39-.31.92-.42,1.32-.53,2.15.61,4.43,3.44,6.11,4.84,2.9,12.81,3,17.8.18C40.35,46.36,41.59,44,41.06,41.81Zm-8.94-2A7.84,7.84,0,0,1,25,39.74c-1.94-1.16-1.9-3,.1-4.12a7.84,7.84,0,0,1,7.12.07C34.16,36.85,34.11,38.7,32.12,39.81Z"/><path class="cls-20" d="M31.51,60.79a9.89,9.89,0,0,1-2.84.4c-8.52,0-11.4-10.19-12.29-15.4,1.66-1.26,1.13-3.61,2.11-4.18.41-.24.66-.37.66-.37a13.65,13.65,0,0,1,2.28,1.81c1.89,2.38,1.15,10.12,2.37,13.8C24.86,60,28,61,31.51,60.79Z"/><path class="cls-21" d="M35,41.91a14.33,14.33,0,0,1-12.93,0c-3.57-2.07-3.59-5.41,0-7.46a14.27,14.27,0,0,1,12.93,0C38.57,36.52,38.58,39.86,35,41.91Z"/><path class="cls-22" d="M20.48,39.11c.28.17.67.39,1,.53a16,16,0,0,0,1.53.65c.24.09.56.19.8.26.44.12,1,.26,1.47.36.23.05.55.1.79.13l.77.1.77,0c.23,0,.54,0,.77,0h.78a7.13,7.13,0,0,0,.79-.05c.46,0,1.07-.12,1.53-.19.25,0,.58-.1.82-.16l.75-.19.88-.27c.31-.1.71-.26,1-.39s.93-.43,1.31-.64.75-.45,1.06-.66.49-.35.69-.51.66-.58.94-.83a9.53,9.53,0,0,1-2,1.5c-4.78,2.67-12.37,2.59-17-.17a9.5,9.5,0,0,1-1.68-1.28l.77.69.38.3C19.69,38.6,20.14,38.9,20.48,39.11Z"/><path class="cls-23" d="M29.92,41.16c6.33,0,12.91-6.28,12.91-10.56A23.27,23.27,0,0,0,42,24c-1.35-4.54-26.54-2.29-27,.94-.12.78-.15,1.34-.18,1.53-.17,1-1.19,6.37,2.71,10.12S25.13,41.16,29.92,41.16Z"/><path class="cls-24" d="M42.15,24.7c-.08-.32-.2-.74-.31-1.05s-.3-.76-.44-1.08a11.47,11.47,0,0,0-1.08-1.77,11.21,11.21,0,0,0-1.57-1.7,13.61,13.61,0,0,0-1.94-1.43c-.27-.16-.64-.35-.92-.5l-.74-.34a17.17,17.17,0,0,0-1.63-.6c-.07,0-.69-.21-1.61-.39-.6-.12-1.23-.2-1.59-.24l-.79-.06-.8,0h-.79c-.5,0-1.11.07-1.6.12,0,0-.79.1-1.62.29-.26.06-.61.14-.87.22s-.54.17-.77.24-.67.24-.95.36l-.75.33a9.12,9.12,0,0,0-1,.53,14.93,14.93,0,0,0-1.34.9,13.26,13.26,0,0,0-1.2,1.05,12,12,0,0,0-.89,1c-.14.19-.33.43-.45.62s-.43.7-.61,1a8.13,8.13,0,0,0-.46,1c-.16.42-.34,1-.46,1.43-.58,2.35.67,4.82,3.74,6.66,5.28,3.16,14,3.25,19.39.2C41.38,29.65,42.73,27.12,42.15,24.7Z"/><path class="cls-25" d="M42.67,29.28a6.28,6.28,0,0,1-.15,1.93,8,8,0,0,1-4.11,4.48c-3.86,2.15-9.27,2.8-14,2-1.49-.34-2-.46-2.77-6.83-.1-1.79.51-1.92,1.06-1.83,4.64,1.42,10.52,1,14.52-1.19,2.6-1.46,3.89-3.41,3.84-5.34v-.13a.51.51,0,0,1,.2.16A17.56,17.56,0,0,1,42.67,29.28Z"/><path class="cls-26" d="M30.58,31.84a2.49,2.49,0,0,0-2,2.67,3.23,3.23,0,0,0,.07.71,6.19,6.19,0,0,1,1.93-.39,5.91,5.91,0,0,1,1.92.2,3.38,3.38,0,0,0,.08-.72C32.58,32.89,31.68,31.79,30.58,31.84Z"/><path class="cls-26" d="M38.43,29.11a3.76,3.76,0,0,0-.84,3.39,3.25,3.25,0,0,0,.18.6A6.45,6.45,0,0,1,39,31.82a4.26,4.26,0,0,1,1.34-.75,5.4,5.4,0,0,0-.08-.69C40,29.1,39.17,28.53,38.43,29.11Z"/><path class="cls-27" d="M17.82,43.1a3.29,3.29,0,0,1,1.44,2.83v.51a33.09,33.09,0,0,1-.66,6.38c-.18.86-.39,1.7-.64,2.52l-2.73,9a1,1,0,0,1-1.59.72,2.31,2.31,0,0,1-1-2.21l.77-6.51q.55-4.72,1.5-9.27l.55-2.69c.22-1,1-1.64,1.8-1.48C17.33,43,17.65,43,17.82,43.1Z"/><path class="cls-28" d="M18.51,41.52a2.89,2.89,0,0,0-.9-.34c-1.38-.26-2.57.72-2.92,2.41l-.56,2.69c-.64,3.08-1.14,6.22-1.52,9.43l-.78,6.5a4.47,4.47,0,0,0,1.88,4.21,2,2,0,0,0,3-1.37l2.73-9a27.41,27.41,0,0,0,.67-2.67,34.47,34.47,0,0,0,.7-6.75v-.52A5.41,5.41,0,0,0,18.51,41.52Zm.09,11.3c-.18.86-.39,1.7-.64,2.52l-2.73,9a1,1,0,0,1-1.59.72,2.31,2.31,0,0,1-1-2.21l.77-6.51q.55-4.72,1.5-9.27l.55-2.69c.22-1,1-1.64,1.8-1.48.06.14.38.11.55.21a3.29,3.29,0,0,1,1.44,2.83v.51A33.09,33.09,0,0,1,18.6,52.82Z"/><path class="cls-29" d="M20.19,41.07a2.83,2.83,0,0,0-.9-.34,2.32,2.32,0,0,0-1,0l-1.67.46a2.28,2.28,0,0,1,1,0,2.89,2.89,0,0,1,.9.34,5.41,5.41,0,0,1,2.35,4.6v.52a34.47,34.47,0,0,1-.7,6.75,27.41,27.41,0,0,1-.67,2.67l-2.73,9a2.26,2.26,0,0,1-1.48,1.62l1.67-.45a2.24,2.24,0,0,0,1.48-1.62l2.73-9c.26-.87.49-1.76.68-2.67a35.45,35.45,0,0,0,.7-6.76v-.51A5.38,5.38,0,0,0,20.19,41.07Z"/><g class="cls-2"><g class="cls-2"><g class="cls-30"><g class="cls-2"><path class="cls-31" d="M38.68,6l0,14.18c0,1.51-1,3-3,4.19a16,16,0,0,1-14.56,0c-2-1.18-3.05-2.71-3-4.25l0-14.18c0,1.54,1,3.08,3,4.25a16,16,0,0,0,14.56,0c2-1.16,3-2.67,3-4.19Z"/></g><g class="cls-2"><path class="cls-32" d="M38.68,2.21l0,14.18c0,1.52-1,3-3,4.19a16,16,0,0,1-14.56,0c-2-1.17-3.05-2.71-3-4.25l0-14.17c0,1.53,1,3.07,3,4.24a16,16,0,0,0,14.56,0c2-1.16,3-2.67,3-4.19Z"/></g></g></g><path class="cls-33" d="M35.64,5.1c4,2.32,4.06,6.1,0,8.43a16,16,0,0,1-14.56,0c-4-2.33-4.06-6.11-.05-8.43A16,16,0,0,1,35.64,5.1Z"/></g><g class="cls-2"><polygon class="cls-34" points="47.32 10.98 47.32 11.61 28.43 22.59 28.43 21.96 47.32 10.98"/><polygon class="cls-35" points="28.43 21.96 28.43 22.59 9.41 11.61 9.41 10.98 28.43 21.96"/><polygon class="cls-36" points="47.32 10.98 28.43 21.96 9.41 10.98 28.3 0 47.32 10.98"/></g><path class="cls-37" d="M18.87,26.58a1.13,1.13,0,0,0-.07-.2l-.1-.19a1.09,1.09,0,0,0-.15-.18.84.84,0,0,1-.08.33,2.71,2.71,0,0,1-.13.3,1.23,1.23,0,0,0,0,.18.81.81,0,0,0,.15.31A3.38,3.38,0,0,0,18.87,26.58Z"/><path class="cls-38" d="M19,26.84a2,2,0,0,0-.1-.26,3.38,3.38,0,0,1-.34.55l.06.24A4.21,4.21,0,0,0,19,26.84Z"/><path class="cls-37" d="M19.12,27.43a1.25,1.25,0,0,0,0-.2,2,2,0,0,0-.13-.39,4.21,4.21,0,0,1-.38.53,1,1,0,0,0,0,.19.91.91,0,0,0,.09.35A5.12,5.12,0,0,0,19.12,27.43Z"/><path class="cls-38" d="M19.16,27.71a2.36,2.36,0,0,0,0-.28,5.12,5.12,0,0,1-.44.48,2.09,2.09,0,0,1,0,.25A5,5,0,0,0,19.16,27.71Z"/><path class="cls-37" d="M19.21,28.3v-.05a.66.66,0,0,0,0-.15,1.32,1.32,0,0,0-.06-.39,5,5,0,0,1-.47.45s0,.08,0,.2a1,1,0,0,0,0,.37C18.88,28.59,19.05,28.45,19.21,28.3Z"/><path class="cls-38" d="M19.22,28.57V28.3c-.16.15-.33.29-.5.43V29Z"/><path class="cls-37" d="M19.23,29.15a2.22,2.22,0,0,0,0-.58l-.5.42a1.11,1.11,0,0,0,0,.57Z"/><polygon class="cls-38" points="19.23 29.41 19.23 29.15 18.72 29.56 18.72 29.82 19.23 29.41"/><path class="cls-37" d="M19.23,30a2,2,0,0,0,0-.58l-.51.41a1.11,1.11,0,0,0,0,.57Z"/><polygon class="cls-38" points="19.23 30.25 19.23 29.99 18.72 30.39 18.71 30.65 19.23 30.25"/><path class="cls-37" d="M19.22,30.83a2.28,2.28,0,0,0,0-.58l-.52.4a1.19,1.19,0,0,0,0,.57Z"/><path class="cls-37" d="M18.41,26.78l.09-.15.08-.15a.61.61,0,0,0,.07-.14,1.1,1.1,0,0,0-.31,0l-.32.07a1.74,1.74,0,0,0-.12.19.73.73,0,0,0-.1.39A3,3,0,0,1,18.41,26.78Z"/><path class="cls-38" d="M18.33,27a2.09,2.09,0,0,1,.08-.23,3,3,0,0,0-.61.22,2.68,2.68,0,0,0-.07.27A3.89,3.89,0,0,1,18.33,27Z"/><path class="cls-37" d="M18.19,27.53a1.51,1.51,0,0,0,.06-.18,3.38,3.38,0,0,0,.08-.34,3.89,3.89,0,0,0-.6.26,1.68,1.68,0,0,0-.08.2.85.85,0,0,0,0,.39A5.45,5.45,0,0,1,18.19,27.53Z"/><path class="cls-38" d="M18.15,27.77a2,2,0,0,0,0-.24,5.45,5.45,0,0,0-.56.33c0,.09,0,.18,0,.28A5.77,5.77,0,0,1,18.15,27.77Z"/><path class="cls-37" d="M18.11,28.32v-.05l0-.14a2.1,2.1,0,0,0,0-.36,5.77,5.77,0,0,0-.54.37s0,.08,0,.2a1,1,0,0,0,0,.38Z"/><path class="cls-38" d="M18.1,28.58v-.26l-.52.4V29Z"/><path class="cls-37" d="M18.09,29.15a1.79,1.79,0,0,0,0-.57l-.51.4a1.1,1.1,0,0,0,0,.58Z"/><polygon class="cls-38" points="18.09 29.41 18.09 29.15 17.58 29.56 17.59 29.82 18.09 29.41"/><path class="cls-37" d="M18.09,30a1.94,1.94,0,0,0,0-.57l-.51.41a1.21,1.21,0,0,0,0,.58Z"/><polygon class="cls-38" points="18.1 30.25 18.09 29.98 17.59 30.4 17.59 30.66 18.1 30.25"/><path class="cls-37" d="M18.11,30.82a2.14,2.14,0,0,0,0-.57l-.5.41a1.08,1.08,0,0,0,0,.58Z"/><path class="cls-37" d="M18.62,26.87a3.39,3.39,0,0,0,.09-.66l-.57.41a1.51,1.51,0,0,0-.08.67Z"/><polygon class="cls-38" points="18.59 27.18 18.62 26.87 18.07 27.29 18.03 27.6 18.59 27.18"/><path class="cls-37" d="M18.52,27.84a3.36,3.36,0,0,0,.07-.66L18,27.6a1.47,1.47,0,0,0-.06.67Z"/><path class="cls-38" d="M18.49,28.14l0-.3-.55.43,0,.31Z"/><path class="cls-37" d="M18.45,28.8a2.75,2.75,0,0,0,0-.66l-.54.44a1.48,1.48,0,0,0,0,.68Z"/><path class="cls-38" d="M18.43,29.11l0-.31-.54.46v.31Z"/><path class="cls-37" d="M18.41,29.77a3.41,3.41,0,0,0,0-.66l-.53.46a1.62,1.62,0,0,0,0,.67Z"/><path class="cls-38" d="M18.4,30.07v-.3l-.52.47v.31Z"/><path class="cls-37" d="M18.4,30.74a2.69,2.69,0,0,0,0-.67l-.51.48a1.44,1.44,0,0,0,0,.67Z"/><polygon class="cls-38" points="18.4 31.05 18.4 30.74 17.9 31.22 17.9 31.53 18.4 31.05"/><path class="cls-37" d="M18.41,31.71a2.94,2.94,0,0,0,0-.67l-.5.49a1.5,1.5,0,0,0,0,.67Z"/><path class="cls-37" d="M27.45,10.66a1.22,1.22,0,0,1,.46-.26l0,.84a.67.67,0,0,1-.46.26Z"/><polygon class="cls-38" points="27.24 10.78 27.45 10.66 27.49 11.5 27.28 11.62 27.24 10.78"/><path class="cls-37" d="M26.77,11a1.2,1.2,0,0,1,.47-.26l0,.84a.71.71,0,0,1-.47.27Z"/><polygon class="cls-38" points="26.56 11.16 26.77 11.04 26.82 11.89 26.6 12.01 26.56 11.16"/><path class="cls-37" d="M26.1,11.43a1.33,1.33,0,0,1,.46-.27l0,.85a.67.67,0,0,1-.46.26Z"/><polygon class="cls-38" points="25.89 11.55 26.1 11.43 26.14 12.27 25.93 12.39 25.89 11.55"/><path class="cls-37" d="M25.42,11.81a1.2,1.2,0,0,1,.47-.26l0,.84a.68.68,0,0,1-.47.26Z"/><polygon class="cls-38" points="25.21 11.93 25.42 11.81 25.46 12.65 25.25 12.77 25.21 11.93"/><path class="cls-37" d="M24.75,12.2a1.18,1.18,0,0,1,.46-.27l0,.84a.67.67,0,0,1-.46.27Z"/><polygon class="cls-38" points="24.54 12.32 24.75 12.2 24.79 13.04 24.57 13.16 24.54 12.32"/><path class="cls-37" d="M24.07,12.58a1.22,1.22,0,0,1,.46-.26l0,.84a.68.68,0,0,1-.47.26Z"/><polygon class="cls-38" points="23.86 12.7 24.07 12.58 24.11 13.42 23.9 13.54 23.86 12.7"/><path class="cls-37" d="M23.4,13a1.22,1.22,0,0,1,.46-.26l0,.84a.71.71,0,0,1-.46.27Z"/><polygon class="cls-38" points="23.18 13.09 23.39 12.96 23.44 13.81 23.22 13.93 23.18 13.09"/><path class="cls-37" d="M22.72,13.35a1.33,1.33,0,0,1,.46-.27l0,.85a.67.67,0,0,1-.46.26Z"/><polygon class="cls-38" points="22.51 13.47 22.72 13.35 22.76 14.19 22.55 14.31 22.51 13.47"/><path class="cls-37" d="M22,13.73a1.2,1.2,0,0,1,.47-.26l0,.84a.68.68,0,0,1-.47.26Z"/><polygon class="cls-38" points="21.83 13.85 22.04 13.73 22.08 14.57 21.87 14.7 21.83 13.85"/><path class="cls-37" d="M21.37,14.12a1.18,1.18,0,0,1,.46-.27l0,.85a.67.67,0,0,1-.46.26Z"/><polygon class="cls-38" points="21.16 14.24 21.37 14.12 21.41 14.96 21.2 15.08 21.16 14.24"/><path class="cls-37" d="M20.69,14.5a1.2,1.2,0,0,1,.47-.26l0,.84a.68.68,0,0,1-.47.26Z"/><polygon class="cls-38" points="20.48 14.62 20.69 14.5 20.73 15.34 20.52 15.46 20.48 14.62"/><path class="cls-37" d="M20,14.89a1.18,1.18,0,0,1,.46-.27l0,.84a.71.71,0,0,1-.46.27Z"/><polygon class="cls-38" points="19.8 15.01 20.02 14.88 20.06 15.73 19.84 15.85 19.8 15.01"/><path class="cls-37" d="M19.34,15.27A1.22,1.22,0,0,1,19.8,15l.05.84a.68.68,0,0,1-.47.26Z"/><polygon class="cls-38" points="19.13 15.39 19.34 15.27 19.38 16.11 19.17 16.23 19.13 15.39"/><path class="cls-37" d="M18.67,15.65a1.22,1.22,0,0,1,.46-.26l0,.84a.76.76,0,0,1-.14.14c-.06.05-.25.16-.25.08a.52.52,0,0,1-.09-.38Z"/><path class="cls-38" d="M18.45,15.77l.22-.12,0,.42a.52.52,0,0,0,.09.38h0v0a.72.72,0,0,1-.19-.13C18.42,16.22,18.44,16,18.45,15.77Z"/><path class="cls-37" d="M18,16.5A3.84,3.84,0,0,1,18,16a3.51,3.51,0,0,1,.47-.24c0,.23,0,.45.12.58a.72.72,0,0,0,.19.13s0,0,0,.05a.48.48,0,0,1,0,.35Z"/><polygon class="cls-38" points="18.01 16.75 18.01 16.5 18.76 16.88 18.76 17.13 18.01 16.75"/><path class="cls-37" d="M18,17.28a1.22,1.22,0,0,1,0-.53l.75.38a.68.68,0,0,1,0,.53Z"/><polygon class="cls-38" points="18.01 17.52 18.01 17.28 18.76 17.66 18.76 17.9 18.01 17.52"/><path class="cls-37" d="M18,18.06a1.26,1.26,0,0,1,0-.54l.75.38a.71.71,0,0,1,0,.54Z"/><polygon class="cls-38" points="18.01 18.3 18.01 18.06 18.76 18.44 18.76 18.68 18.01 18.3"/><path class="cls-37" d="M18,18.83a1.21,1.21,0,0,1,0-.53l.75.38a.69.69,0,0,1,0,.53Z"/><polygon class="cls-38" points="18.01 19.08 18.01 18.83 18.76 19.21 18.76 19.46 18.01 19.08"/><path class="cls-37" d="M18,19.61a1.21,1.21,0,0,1,0-.53l.75.38a.68.68,0,0,1,0,.53Z"/><polygon class="cls-38" points="18.01 19.86 18.01 19.61 18.76 19.99 18.76 20.24 18.01 19.86"/><path class="cls-37" d="M18,20.39a1.26,1.26,0,0,1,0-.54l.75.39a.68.68,0,0,1,0,.53Z"/><polygon class="cls-38" points="18.01 20.63 18.01 20.39 18.76 20.77 18.76 21.01 18.01 20.63"/><path class="cls-37" d="M18,21.17a1.26,1.26,0,0,1,0-.54l.75.38a.71.71,0,0,1,0,.54Z"/><polygon class="cls-38" points="18.01 21.41 18.01 21.16 18.76 21.55 18.76 21.79 18.01 21.41"/><path class="cls-37" d="M18,21.94a1.21,1.21,0,0,1,0-.53l.75.38a.69.69,0,0,1,0,.53Z"/><polygon class="cls-38" points="18.01 22.19 18.01 21.94 18.76 22.32 18.76 22.57 18.01 22.19"/><path class="cls-37" d="M18,22.72a1.21,1.21,0,0,1,0-.53l.75.38a.68.68,0,0,1,0,.53Z"/><polygon class="cls-38" points="18.01 22.96 18.01 22.72 18.76 23.1 18.76 23.34 18.01 22.96"/><path class="cls-37" d="M18,23.5A1.26,1.26,0,0,1,18,23l.75.38a.71.71,0,0,1,0,.54Z"/><polygon class="cls-38" points="18.01 23.74 18.01 23.5 18.76 23.88 18.76 24.12 18.01 23.74"/><path class="cls-37" d="M18,24.27a1.21,1.21,0,0,1,0-.53l.75.38a.71.71,0,0,1,0,.54Z"/><polygon class="cls-38" points="18.01 24.52 18.01 24.27 18.76 24.66 18.76 24.9 18.01 24.52"/><path class="cls-37" d="M18,25.05a1.21,1.21,0,0,1,0-.53l.75.38a.68.68,0,0,1,0,.53Z"/><polygon class="cls-38" points="18.01 25.3 18.01 25.05 18.76 25.43 18.76 25.68 18.01 25.3"/><path class="cls-37" d="M18,25.83a1.22,1.22,0,0,1,0-.53l.75.38a.68.68,0,0,1,0,.53Z"/><polygon class="cls-38" points="18.01 26.07 18.01 25.83 18.76 26.21 18.76 26.45 18.01 26.07"/><path class="cls-39" d="M29.75,11.51a3.07,3.07,0,0,1-2.77,0c-.76-.45-.77-1.16,0-1.6a3.05,3.05,0,0,1,2.76,0C30.51,10.36,30.52,11.07,29.75,11.51Z"/></g></g></g></svg>