<svg xmlns="http://www.w3.org/2000/svg" xmlns:xlink="http://www.w3.org/1999/xlink" viewBox="0 0 89.91 70.11"><defs><style>.cls-1{isolation:isolate;}.cls-2{fill:#eef1f5;}.cls-24,.cls-3{opacity:0.56;}.cls-3{fill:url(#linear-gradient);}.cls-4{fill:#2197ff;}.cls-5{fill:#a2ffff;}.cls-6{fill:#cfd0e0;}.cls-7{fill:url(#linear-gradient-2);}.cls-8{fill:url(#linear-gradient-3);}.cls-9{fill:#c0baca;}.cls-10{fill:url(#linear-gradient-4);}.cls-11{fill:#ebebeb;mix-blend-mode:multiply;}.cls-12{fill:#d4d5e6;}.cls-13{fill:url(#linear-gradient-5);}.cls-14{fill:url(#linear-gradient-6);}.cls-15{fill:url(#linear-gradient-7);}.cls-16{fill:#003447;}.cls-17{fill:#0bf;}.cls-18{fill:url(#linear-gradient-8);}.cls-19{fill:url(#linear-gradient-9);}.cls-20{fill:url(#linear-gradient-10);}.cls-21{fill:#33eaff;}.cls-22{opacity:0.57;fill:url(#linear-gradient-11);}.cls-23{fill:#4ff4ff;}.cls-24{fill:url(#linear-gradient-12);}.cls-25{fill:#ffb947;}.cls-26{fill:#ffa719;}.cls-27{fill:#ff9000;}.cls-28{fill:#fff;}</style><linearGradient id="linear-gradient" x1="5298.86" y1="19.49" x2="5310.45" y2="19.49" gradientTransform="matrix(-1, 0, 0, 1, 5388.55, 0)" gradientUnits="userSpaceOnUse"><stop offset="0" stop-color="#4272ff"/><stop offset="0.44" stop-color="#48a5ff"/><stop offset="0.92" stop-color="#4fe2ff"/></linearGradient><linearGradient id="linear-gradient-2" x1="72.46" y1="34.48" x2="65.72" y2="24.87" gradientUnits="userSpaceOnUse"><stop offset="0.6" stop-color="#eae9f2"/><stop offset="0.83" stop-color="#d3d4e3"/></linearGradient><linearGradient id="linear-gradient-3" x1="34.17" y1="52.09" x2="65.4" y2="52.09" gradientUnits="userSpaceOnUse"><stop offset="0.37" stop-color="#caccde"/><stop offset="0.97" stop-color="#eae9f2"/></linearGradient><linearGradient id="linear-gradient-4" x1="44.16" y1="50.17" x2="56.02" y2="29.63" gradientUnits="userSpaceOnUse"><stop offset="0" stop-color="#caccde"/><stop offset="0.56" stop-color="#eae9f2"/></linearGradient><linearGradient id="linear-gradient-5" x1="47.38" y1="36.3" x2="71.53" y2="36.3" gradientUnits="userSpaceOnUse"><stop offset="0.24" stop-color="#a8a4b5"/><stop offset="1" stop-color="#dbd3e2"/></linearGradient><linearGradient id="linear-gradient-6" x1="35.11" y1="56.67" x2="60.1" y2="0.18" xlink:href="#linear-gradient-3"/><linearGradient id="linear-gradient-7" x1="43.64" y1="29.9" x2="56.55" y2="7.53" xlink:href="#linear-gradient-4"/><linearGradient id="linear-gradient-8" x1="35.73" y1="73.68" x2="29.29" y2="37.41" gradientUnits="userSpaceOnUse"><stop offset="0" stop-color="#caccde"/><stop offset="1" stop-color="#dfdeee"/></linearGradient><linearGradient id="linear-gradient-9" x1="33.95" y1="71.03" x2="31.64" y2="36.32" xlink:href="#linear-gradient-8"/><linearGradient id="linear-gradient-10" x1="41.31" y1="65.11" x2="27.74" y2="41.6" gradientUnits="userSpaceOnUse"><stop offset="0.68" stop-color="#d2d3e5"/><stop offset="0.81" stop-color="#eae9f2"/></linearGradient><linearGradient id="linear-gradient-11" x1="5339.5" y1="48.81" x2="5369.28" y2="48.81" gradientTransform="matrix(-1, 0, 0, 1, 5388.55, 0)" gradientUnits="userSpaceOnUse"><stop offset="0.1" stop-color="#4996ff"/><stop offset="0.13" stop-color="#4998ff"/><stop offset="0.66" stop-color="#4dadff"/><stop offset="1" stop-color="#4fb5ff"/></linearGradient><linearGradient id="linear-gradient-12" x1="5301.16" y1="44.24" x2="5319.75" y2="44.24" gradientTransform="matrix(-1, 0, 0, 1, 5388.55, 0)" gradientUnits="userSpaceOnUse"><stop offset="0" stop-color="#4272ff"/><stop offset="0.07" stop-color="#447fff"/><stop offset="0.34" stop-color="#48aaff"/><stop offset="0.58" stop-color="#4cc9ff"/><stop offset="0.78" stop-color="#4edbff"/><stop offset="0.92" stop-color="#4fe2ff"/></linearGradient></defs><g class="cls-1"><g id="Layer_2" data-name="Layer 2"><g id="Layer_1-2" data-name="Layer 1"><ellipse class="cls-2" cx="49.88" cy="63.02" rx="6.41" ry="11.1" transform="translate(-13.41 112.55) rotate(-89.69)"/><g class="cls-1"><path class="cls-3" d="M81.31,2.58l.25.15c5,2.9,7.85,6.74,8.07,10.83L89.69,38c-.22-4.09-3.08-7.93-8.06-10.83L81.37,27a27.47,27.47,0,0,0-3.21-1.61L78.09,1A28.4,28.4,0,0,1,81.31,2.58Z"/><polygon class="cls-4" points="89.63 13.56 89.69 37.99 89.91 37.99 89.85 13.55 89.63 13.56"/><path class="cls-5" d="M78.23.87,78.09,1a28.4,28.4,0,0,1,3.22,1.6l.25.15c5,2.9,7.85,6.74,8.07,10.83h.22c-.22-4.13-3.11-8-8.13-10.92l-.25-.15A29.66,29.66,0,0,0,78.23.87Z"/></g><path class="cls-6" d="M71,28.54a4.81,4.81,0,0,1,1.28,1.15c.73.89,1,1.81.63,2.11L70.11,34a21.13,21.13,0,0,1-4.43,2.76l-1.44.67a1.73,1.73,0,0,1-1.44-.31c-.39-.22-1.09-.93-1.21-.94-1.31-1.28-2.07-2.92-1.65-3.59l.14-.23a5.91,5.91,0,0,1,2.59-2.31,7,7,0,0,1,1.49-.49l5.89-1.3A1.4,1.4,0,0,1,71,28.54Z"/><path class="cls-6" d="M73.51,28.89a9.44,9.44,0,0,0-2.44-2.17,2.65,2.65,0,0,0-1.73-.46l-5.89,1.3a7.91,7.91,0,0,0-1.58.52,6.35,6.35,0,0,0-2.74,2.44l-.14.24c-.68,1.09.54,3.75,2.68,5.84a9.85,9.85,0,0,0,2,1.53,2.78,2.78,0,0,0,2.35.5L67.43,38a22,22,0,0,0,4.5-2.8l2.76-2.24C75.4,32.35,74.89,30.61,73.51,28.89ZM70.11,34a21.13,21.13,0,0,1-4.43,2.76l-1.44.67a1.73,1.73,0,0,1-1.44-.31c-.39-.22-1.09-.93-1.21-.94-1.31-1.28-2.07-2.92-1.65-3.59l.14-.23a5.91,5.91,0,0,1,2.59-2.31,7,7,0,0,1,1.49-.49l5.89-1.3a1.4,1.4,0,0,1,.91.24,4.81,4.81,0,0,1,1.28,1.15c.73.89,1,1.81.63,2.11Z"/><path class="cls-7" d="M75.59,27a9.44,9.44,0,0,0-2.44-2.17,2.65,2.65,0,0,0-1.73-.46l-5.89,1.3a7.91,7.91,0,0,0-1.58.52,6.31,6.31,0,0,0-1.55,1L60.32,29.1a6.5,6.5,0,0,1,1.55-1,7.91,7.91,0,0,1,1.58-.52l5.89-1.3a2.65,2.65,0,0,1,1.73.46,9.44,9.44,0,0,1,2.44,2.17c1.36,1.7,1.88,3.41,1.21,4L76.8,31C77.46,30.45,77,28.74,75.59,27Z"/><path class="cls-8" d="M65.4,40.69c0,1.86-1.57,22.8-15.52,22.8s-15.71-22-15.71-22.8Z"/><path class="cls-9" d="M54.16,37a9.71,9.71,0,0,1-8.83-.09c-2.41-1.44-2.35-3.73.12-5.12a9.73,9.73,0,0,1,8.84.09C56.69,33.3,56.63,35.59,54.16,37Z"/><path class="cls-10" d="M65.26,39.45c-.1-.36-.23-.85-.36-1.2A13.26,13.26,0,0,0,64.39,37a12.83,12.83,0,0,0-1.23-2,13.93,13.93,0,0,0-1.78-1.93,14.53,14.53,0,0,0-2.22-1.62c-.3-.19-.72-.41-1-.57s-.59-.28-.85-.4a17.24,17.24,0,0,0-1.85-.67,15.09,15.09,0,0,0-1.83-.45c-.69-.14-1.41-.23-1.82-.27s-.63-.06-.9-.07L50,29h-.91c-.57,0-1.26.09-1.82.15a17.77,17.77,0,0,0-1.84.32l-1,.25-.88.28c-.33.1-.76.27-1.08.4l-.85.39a9.06,9.06,0,0,0-1.11.59c-.47.29-1.09.69-1.53,1a14.06,14.06,0,0,0-1.36,1.2,11.06,11.06,0,0,0-1,1.14c-.15.21-.37.49-.51.71s-.49.79-.69,1.14a7.76,7.76,0,0,0-.53,1.13c-.18.48-.38,1.14-.52,1.63-.66,2.68.76,5.49,4.26,7.59,6,3.59,15.9,3.69,22.08.22C64.38,45.09,65.91,42.2,65.26,39.45ZM54.16,37a9.71,9.71,0,0,1-8.83-.09c-2.41-1.44-2.35-3.73.12-5.12a9.73,9.73,0,0,1,8.84.09C56.69,33.3,56.63,35.59,54.16,37Z"/><path class="cls-11" d="M53.4,63a12.27,12.27,0,0,1-3.52.49c-10.56,0-14.14-12.64-15.25-19.11,2.07-1.56,1.41-4.47,2.62-5.17l.82-.47A17.07,17.07,0,0,1,40.9,41c2.34,2.95,1.42,12.55,2.94,17.11C45.15,62,49,63.27,53.4,63Z"/><path class="cls-12" d="M57.77,39.58c-4.41,2.54-11.59,2.53-16,0s-4.46-6.71-.05-9.26,11.59-2.53,16,0S62.18,37,57.77,39.58Z"/><path class="cls-13" d="M39.72,36.1c.35.21.84.48,1.21.66a15.89,15.89,0,0,0,1.9.8c.29.11.68.24,1,.32.55.15,1.28.33,1.83.45.29.07.68.13,1,.17l1,.12,1,.07,1,0h1c.29,0,.69,0,1-.06.58,0,1.34-.15,1.9-.24.31,0,.72-.13,1-.2s.65-.15.92-.23.77-.23,1.1-.34.88-.32,1.25-.48,1.15-.54,1.63-.8.92-.56,1.31-.81.61-.44.86-.64.82-.71,1.16-1A12,12,0,0,1,60,35.75c-5.93,3.3-15.35,3.21-21-.22A11.43,11.43,0,0,1,36.92,34l.95.85c.14.12.33.26.48.37A15.71,15.71,0,0,0,39.72,36.1Z"/><path class="cls-14" d="M51.43,38.65c7.85,0,16-7.79,16-13.11a29,29,0,0,0-1.07-8.15c-1.67-5.62-32.92-2.84-33.55,1.17-.15,1-.18,1.67-.22,1.9C32.41,21.65,31.13,28.37,36,33S45.49,38.65,51.43,38.65Z"/><path class="cls-15" d="M66.61,18.22c-.1-.39-.25-.92-.38-1.3s-.38-.94-.56-1.34a13.91,13.91,0,0,0-1.34-2.2,14.35,14.35,0,0,0-1.94-2.1A15.79,15.79,0,0,0,60,9.51c-.33-.2-.79-.44-1.13-.62s-.64-.31-.92-.43a20.1,20.1,0,0,0-2-.74c-.09,0-.85-.26-2-.49-.75-.15-1.54-.25-2-.29s-.69-.06-1-.07l-1,0c-.3,0-.69,0-1,0-.61,0-1.37.09-2,.15,0,0-1,.12-2,.35l-1.08.28c-.29.08-.68.21-1,.3s-.83.3-1.18.44l-.93.42a11.62,11.62,0,0,0-1.2.65A18.7,18.7,0,0,0,38,10.56a16.71,16.71,0,0,0-1.49,1.3,14.46,14.46,0,0,0-1.1,1.25c-.17.23-.4.53-.56.77s-.53.86-.75,1.24a9.27,9.27,0,0,0-.57,1.24c-.2.52-.42,1.23-.58,1.77-.71,2.91.83,6,4.65,8.26,6.54,3.92,17.31,4,24,.25C65.65,24.37,67.33,21.23,66.61,18.22Z"/><path class="cls-16" d="M67.25,23.91a7.89,7.89,0,0,1-.19,2.4c-.62,2.07-2.28,4-5.1,5.55-4.79,2.67-11.49,3.47-17.42,2.43-1.85-.41-2.54-.57-3.44-8.47-.12-2.22.64-2.38,1.32-2.27,5.75,1.76,13,1.28,18-1.48,3.24-1.81,4.83-4.22,4.77-6.63v-.16a.66.66,0,0,1,.26.21A21.82,21.82,0,0,1,67.25,23.91Z"/><path class="cls-17" d="M52,31.09a1.73,1.73,0,0,1-1.25-.43,1.78,1.78,0,0,1-.47-1.31v-.66a2.1,2.1,0,0,1,1.9-2.14h.22a1.92,1.92,0,0,1,1.39.5,2.24,2.24,0,0,1,.68,1.54l0,.68a1.56,1.56,0,0,1-1.66,1.81h0l-.7,0Zm.5-3.5h0l-.22,0a1,1,0,0,0-.9,1.09v.65a.81.81,0,0,0,.15.55.93.93,0,0,0,.58.14l.69,0c.6-.05.69-.16.68-.73l0-.68a1.12,1.12,0,0,0-.35-.79A.83.83,0,0,0,52.53,27.59Z"/><path class="cls-17" d="M62.45,27.54a1.11,1.11,0,0,1-.52-.12,1.47,1.47,0,0,1-.75-1.17l-.12-.66A2.51,2.51,0,0,1,61.91,23l.15-.09a1.2,1.2,0,0,1,1.13-.09,1.92,1.92,0,0,1,1,1.41l.14.67a2,2,0,0,1-1,2.39h0l-.15.08A1.58,1.58,0,0,1,62.45,27.54Zm.26-3.79-.1,0-.15.09a1.62,1.62,0,0,0-.36,1.53l.12.65c.05.29.14.4.18.42a.41.41,0,0,0,.3-.07l.16-.08c.42-.21.56-.63.44-1.23l-.15-.67a1,1,0,0,0-.38-.66Z"/><path class="cls-18" d="M34.72,40.79a4.11,4.11,0,0,1,1.79,3.5v.64a40.12,40.12,0,0,1-.82,7.92c-.22,1.07-.48,2.11-.79,3.12L31.51,67.12a1.31,1.31,0,0,1-2,.9,2.9,2.9,0,0,1-1.23-2.75l.95-8.07q.7-5.87,1.87-11.5l.68-3.33c.27-1.29,1.18-2,2.24-1.84C34.11,40.69,34.51,40.66,34.72,40.79Z"/><path class="cls-19" d="M35.58,38.83a3.63,3.63,0,0,0-1.12-.42c-1.72-.33-3.2.89-3.63,3l-.69,3.33Q29,50.46,28.25,56.43l-1,8.07a5.52,5.52,0,0,0,2.33,5.22c1.57.9,3.2.17,3.77-1.7l3.38-11.16q.49-1.61.84-3.3a43.23,43.23,0,0,0,.87-8.39v-.63A6.68,6.68,0,0,0,35.58,38.83Zm.1,14c-.22,1.07-.48,2.11-.79,3.12L31.51,67.12a1.31,1.31,0,0,1-2,.9,2.9,2.9,0,0,1-1.23-2.75l.95-8.07q.7-5.87,1.87-11.5l.68-3.33c.27-1.29,1.18-2,2.24-1.84.07.16.47.13.68.26a4.11,4.11,0,0,1,1.79,3.5v.64A40.12,40.12,0,0,1,35.68,52.85Z"/><path class="cls-20" d="M37.65,38.27a3.34,3.34,0,0,0-1.11-.42,2.67,2.67,0,0,0-1.26,0l-2.08.56a2.81,2.81,0,0,1,1.26,0,3.63,3.63,0,0,1,1.12.42,6.68,6.68,0,0,1,2.9,5.71v.63a43.23,43.23,0,0,1-.87,8.39q-.34,1.69-.84,3.3L33.39,68a2.81,2.81,0,0,1-1.84,2l2.08-.57a2.76,2.76,0,0,0,1.83-2L38.85,56.3c.32-1.07.6-2.18.84-3.31a43.13,43.13,0,0,0,.86-8.38V44A6.68,6.68,0,0,0,37.65,38.27Z"/><g class="cls-1"><polygon class="cls-21" points="48.99 41.73 49.05 66.16 49.08 66.29 49.01 41.86 48.99 41.73"/><path class="cls-22" d="M19.48,31.35A18.32,18.32,0,0,0,25.76,37l.26.15c6.05,3.52,14.42,5.2,23,4.6l.06,24.43c-8.54.6-16.92-1.08-23-4.6l-.26-.14a18.34,18.34,0,0,1-6.28-5.64h0l-.21,0-.06-24.43Z"/><path class="cls-23" d="M19.27,31.39l.21,0A18.32,18.32,0,0,0,25.76,37l.26.15c6.05,3.52,14.42,5.2,23,4.6l0,.13a49.49,49.49,0,0,1-6.21,0,46.48,46.48,0,0,1-6.09-.76A38.13,38.13,0,0,1,31,39.57a30.87,30.87,0,0,1-5.12-2.35l-.26-.15A18.33,18.33,0,0,1,19.27,31.39Z"/></g><g class="cls-1"><path class="cls-24" d="M76.18,34.92l4.33-2.5a22.38,22.38,0,0,0,4.1-3,14.61,14.61,0,0,0,2.71-3.35l.07,24.43a14.93,14.93,0,0,1-2.71,3.36,22.78,22.78,0,0,1-4.11,3l-4.32,2.5a33.3,33.3,0,0,1-7.38,3.07L68.8,38A32.89,32.89,0,0,0,76.18,34.92Z"/><polygon class="cls-21" points="68.7 37.87 68.77 62.3 68.87 62.42 68.8 37.98 68.7 37.87"/><path class="cls-23" d="M87.11,26a17.88,17.88,0,0,1-6.76,6.3L76,34.82a32.65,32.65,0,0,1-7.33,3l.1.11a32.89,32.89,0,0,0,7.38-3.06l4.33-2.5a22.38,22.38,0,0,0,4.1-3,14.61,14.61,0,0,0,2.71-3.35Z"/></g><path class="cls-17" d="M57,32.07l-.2-.72a18.63,18.63,0,0,0,3-1l.39.65A19.43,19.43,0,0,1,57,32.07Z"/><g class="cls-1"><path class="cls-25" d="M31.53,11.79l-.09.11a6.18,6.18,0,0,1-1.72,1.53l.29-.29A5.5,5.5,0,0,0,31.53,11.79Z"/><path class="cls-26" d="M32.65,9.82l0,.13a5.39,5.39,0,0,0,.42-2l.11-.4A6.24,6.24,0,0,1,32.65,9.82Z"/><polygon class="cls-26" points="28.13 14.23 28.23 14.29 28.14 19.26 28.06 18.29 28.13 14.23"/><polygon class="cls-25" points="30.01 13.14 29.72 13.43 28.23 14.29 28.13 14.23 30.01 13.14"/><polygon class="cls-26" points="33.01 3.56 33.12 3.16 33.13 7.52 33.02 7.92 33.01 3.56"/><polygon class="cls-27" points="28.14 19.26 26.88 18.52 23.72 15.43 24.99 16.16 28.14 19.26"/><polygon class="cls-26" points="28.06 18.29 28.14 19.26 24.99 16.16 25.48 15.76 28.06 18.29"/><path class="cls-27" d="M30.85.23,32.12,1a2.43,2.43,0,0,0-2.44.24L28.42.47A2.41,2.41,0,0,1,30.85.23Z"/><path class="cls-26" d="M30,1.83l-.3-.62c1.9-1.1,3.43-.22,3.44,2l-.11.4C33,1.64,31.65.87,30,1.83Z"/><polygon class="cls-26" points="25.48 15.76 24.99 16.16 4.71 27.87 5 27.58 25.48 15.76"/><path class="cls-27" d="M2.28,28.11,1,27.37a2.43,2.43,0,0,1-1-2.2l1.27.74A2.39,2.39,0,0,0,2.28,28.11Z"/><path class="cls-26" d="M5,27.58l-.29.29c-1.89,1.09-3.42.21-3.43-2L2,25.85C2,27.77,3.33,28.54,5,27.58Z"/><polygon class="cls-26" points="1.97 25.85 1.28 25.91 1.27 21.55 1.96 21.49 1.97 25.85"/><polygon class="cls-27" points="1.28 25.91 0.01 25.17 0 20.82 1.27 21.55 1.28 25.91"/><polygon class="cls-27" points="4.68 15.64 3.41 14.91 28.42 0.47 29.68 1.21 4.68 15.64"/><polygon class="cls-26" points="4.97 16.27 4.68 15.64 29.68 1.21 29.98 1.83 4.97 16.27"/><path class="cls-25" d="M.48,18.52h0v0h0v0h0A7.2,7.2,0,0,1,1.6,16.55h0v0h0l.05-.06A8,8,0,0,0,.48,18.52Z"/><path class="cls-25" d="M30,1.83c1.67-1,3-.19,3,1.73V7.92a6.62,6.62,0,0,1-3,5.22l-1.88,1.09-.07,4.06-2.58-2.53L5,27.58c-1.67,1-3,.19-3-1.73V21.49a6.62,6.62,0,0,1,3-5.22Z"/><path class="cls-26" d="M2,21.49l-.69.06a7.51,7.51,0,0,1,3.41-5.91l.29.63A6.62,6.62,0,0,0,2,21.49Z"/><path class="cls-27" d="M1.27,21.55,0,20.82a7.5,7.5,0,0,1,3.41-5.91l1.27.73A7.51,7.51,0,0,0,1.27,21.55Z"/></g><g class="cls-1"><path class="cls-27" d="M6.68,23.23,6.24,23s-.06-.07-.06-.14l.44.26A.13.13,0,0,0,6.68,23.23Z"/><polygon class="cls-27" points="6.59 22.54 6.15 22.29 6.15 22.17 6.59 22.43 6.59 22.54"/><polygon class="cls-27" points="6.09 23.13 5.65 22.88 6.15 22.29 6.59 22.54 6.09 23.13"/><path class="cls-27" d="M6.08,21.92l.44.25c.05,0,.07.11.07.26l-.44-.26C6.15,22,6.13,21.94,6.08,21.92Z"/><polygon class="cls-27" points="5.58 23.42 5.14 23.17 5.65 22.88 6.09 23.13 5.58 23.42"/><polygon class="cls-27" points="6.56 21.54 6.12 21.29 6.12 21.17 6.56 21.42 6.56 21.54"/><path class="cls-27" d="M5.33,23.48l-.44-.26c.06,0,.18,0,.25,0l.44.25A.3.3,0,0,1,5.33,23.48Z"/><path class="cls-27" d="M6,20.84l.44.26c.06,0,.08.13.08.32l-.44-.25C6.12,21,6.1,20.87,6,20.84Z"/><path class="cls-27" d="M5,24l-.44-.26c-.14-.08-.18-.23-.18-.47l.44.25C4.83,23.79,4.87,24,5,24Z"/><polygon class="cls-27" points="5.58 22.11 5.14 21.85 6.12 21.29 6.56 21.54 5.58 22.11"/><polygon class="cls-27" points="4.83 23.55 4.39 23.3 4.39 23.07 4.83 23.32 4.83 23.55"/><path class="cls-27" d="M6.37,20.28l.44.26h0c-.18-.11-.35,0-.58.1l-.44-.25c.23-.14.4-.21.59-.11Z"/><path class="cls-27" d="M4.83,23.32l-.44-.25a1.2,1.2,0,0,1,.22-.71,1.59,1.59,0,0,1,.53-.51l.44.26a1.39,1.39,0,0,0-.53.5A1.2,1.2,0,0,0,4.83,23.32Z"/><polygon class="cls-27" points="5.59 21 5.15 20.75 5.78 20.39 6.22 20.64 5.59 21"/><path class="cls-27" d="M5.33,21.59l-.44-.26s0-.06,0-.14a.51.51,0,0,1,.31-.44l.44.25a.53.53,0,0,0-.31.44C5.28,21.52,5.3,21.57,5.33,21.59Z"/><path class="cls-28" d="M7.06,22.79a.48.48,0,0,1-.21.43c-.12.06-.24,0-.23-.13l-.32.36a.67.67,0,0,1-.27.24l-.44.25c-.21.12-.35.18-.52.12s-.24-.24-.24-.51v-.23a1.2,1.2,0,0,1,.22-.71,1.39,1.39,0,0,1,.53-.5l1-.57v-.12c0-.39-.08-.41-.4-.22l-.57.32c-.13.08-.31.15-.31-.08A.53.53,0,0,1,5.59,21l.63-.36c.23-.14.4-.21.58-.1s.21.24.21.5Zm-.47-.25v-.11c0-.29-.08-.34-.33-.19l-.67.39a.53.53,0,0,0-.3.4v.35c0,.18.18.11.29,0l.51-.29.5-.59Z"/></g><g class="cls-1"><path class="cls-27" d="M10.1,21.27,9.67,21a.3.3,0,0,1-.08-.25L10,21C10,21.14,10.05,21.24,10.1,21.27Z"/><polygon class="cls-27" points="10.03 21.03 9.59 20.77 9.53 19.19 9.97 19.44 10.03 21.03"/><path class="cls-27" d="M8.32,22.3l-.44-.25c-.06,0-.07-.14-.07-.26l.44.26C8.25,22.16,8.26,22.27,8.32,22.3Z"/><path class="cls-27" d="M9.46,18.86l.44.25c.06,0,.07.15.07.33l-.44-.25C9.53,19,9.52,18.89,9.46,18.86Z"/><path class="cls-27" d="M9.82,18.28l.44.26,0,0a.41.41,0,0,0-.42.05l-.44-.25a.41.41,0,0,1,.42-.05Z"/><polygon class="cls-27" points="9.46 18.77 9.02 18.51 9.36 18.32 9.8 18.57 9.46 18.77"/><path class="cls-27" d="M9.07,19.17l-.44-.26a1.65,1.65,0,0,1,.39-.4l.44.26A1.25,1.25,0,0,0,9.07,19.17Z"/><polygon class="cls-27" points="8.7 19.66 8.26 19.41 8.63 18.91 9.07 19.17 8.7 19.66"/><polygon class="cls-27" points="8.25 22.05 7.81 21.79 7.8 19.6 8.24 19.86 8.25 22.05"/><path class="cls-28" d="M9.8,18.57a.41.41,0,0,1,.42-.05c.2.08.19.31.2.59l.06,1.62a.54.54,0,0,1-.23.52c-.18.11-.22-.05-.22-.22L10,19.44c0-.31,0-.43-.31-.27l-.15.09a.79.79,0,0,0-.14.13l-.67.88v1.52a.52.52,0,0,1-.22.49c-.2.11-.23-.05-.23-.23V19.86a.53.53,0,0,1,.23-.52c.2-.12.23.06.23.25v.06h0l.37-.49a1.25,1.25,0,0,1,.39-.4Z"/><path class="cls-27" d="M8.18,19.06l.44.25s-.08,0-.15,0a.53.53,0,0,0-.23.52L7.8,19.6A.54.54,0,0,1,8,19.08C8.1,19,8.15,19,8.18,19.06Z"/></g><g class="cls-1"><path class="cls-27" d="M13.51,19.29,13.07,19a.13.13,0,0,1-.06-.14l.44.26A.14.14,0,0,0,13.51,19.29Z"/><polygon class="cls-27" points="13.41 18.6 12.98 18.35 12.97 18.23 13.41 18.49 13.41 18.6"/><polygon class="cls-27" points="12.91 19.19 12.47 18.94 12.98 18.35 13.41 18.6 12.91 19.19"/><path class="cls-27" d="M12.91,18l.44.26c.05,0,.06.11.06.26L13,18.23C13,18.09,13,18,12.91,18Z"/><polygon class="cls-27" points="12.41 19.48 11.97 19.23 12.47 18.94 12.91 19.19 12.41 19.48"/><polygon class="cls-27" points="13.39 17.6 12.95 17.35 12.95 17.23 13.39 17.48 13.39 17.6"/><path class="cls-27" d="M12.16,19.54l-.44-.26c.06,0,.18,0,.25-.05l.44.25A.31.31,0,0,1,12.16,19.54Z"/><path class="cls-27" d="M12.87,16.9l.44.25c.06,0,.08.14.08.33L13,17.23C13,17,12.93,16.93,12.87,16.9Z"/><path class="cls-27" d="M11.84,20.09l-.44-.26c-.14-.08-.18-.24-.18-.48l.44.26C11.66,19.85,11.7,20,11.84,20.09Z"/><polygon class="cls-27" points="12.41 18.17 11.97 17.91 12.95 17.35 13.39 17.6 12.41 18.17"/><polygon class="cls-27" points="11.66 19.61 11.22 19.35 11.22 19.12 11.66 19.38 11.66 19.61"/><path class="cls-27" d="M13.2,16.34l.44.26h0c-.18-.1-.35,0-.59.11l-.44-.26c.24-.13.41-.21.59-.1Z"/><path class="cls-27" d="M11.66,19.38l-.44-.26a1.22,1.22,0,0,1,.22-.71,1.47,1.47,0,0,1,.53-.5l.44.26a1.39,1.39,0,0,0-.53.5A1.2,1.2,0,0,0,11.66,19.38Z"/><polygon class="cls-27" points="12.42 17.06 11.98 16.8 12.6 16.44 13.04 16.7 12.42 17.06"/><path class="cls-27" d="M12.16,17.64l-.44-.25s-.05-.06-.05-.14A.53.53,0,0,1,12,16.8l.44.26a.51.51,0,0,0-.31.44C12.11,17.58,12.13,17.62,12.16,17.64Z"/><path class="cls-28" d="M13.89,18.85a.45.45,0,0,1-.21.42c-.12.07-.24,0-.23-.12l-.32.36a.7.7,0,0,1-.28.24l-.43.25c-.21.12-.35.18-.52.11s-.24-.23-.24-.5v-.23a1.2,1.2,0,0,1,.22-.71,1.39,1.39,0,0,1,.53-.5l1-.57v-.12c0-.39-.08-.41-.41-.22l-.56.32c-.13.08-.31.15-.31-.08a.51.51,0,0,1,.31-.44L13,16.7c.24-.14.41-.21.59-.11s.2.25.21.51Zm-.47-.25v-.11c0-.29-.07-.34-.32-.19l-.67.39a.52.52,0,0,0-.31.4v.35c0,.17.18.1.29,0l.5-.29.51-.59Z"/></g><g class="cls-1"><path class="cls-27" d="M16.59,16.65l.44.25c-.06,0-.16,0-.26.07l-.44-.26C16.43,16.65,16.53,16.61,16.59,16.65Z"/><polygon class="cls-27" points="16.43 17.16 15.99 16.91 16.33 16.71 16.77 16.97 16.43 17.16"/><polygon class="cls-27" points="15.61 17.63 15.17 17.38 15.53 17.17 15.97 17.43 15.61 17.63"/><path class="cls-27" d="M15.35,18.22,14.92,18s-.06-.06-.06-.14a.53.53,0,0,1,.31-.44l.44.25a.53.53,0,0,0-.31.45A.17.17,0,0,0,15.35,18.22Z"/><polygon class="cls-27" points="15.97 17.43 15.53 17.17 15.52 14.2 15.96 14.46 15.97 17.43"/><path class="cls-27" d="M15.91,13.53l.44.25c-.05,0-.13,0-.27.08l-.44-.25C15.78,13.53,15.86,13.5,15.91,13.53Z"/><polygon class="cls-27" points="15.6 14.14 15.16 13.89 15.64 13.61 16.08 13.87 15.6 14.14"/><path class="cls-27" d="M15.34,14.72l-.43-.25s-.06-.06-.06-.14a.5.5,0,0,1,.31-.44l.44.25a.53.53,0,0,0-.31.44C15.29,14.66,15.31,14.71,15.34,14.72Z"/><path class="cls-28" d="M16.08,13.86c.26-.15.34-.14.34.17v3.13l.34-.19c.15-.09.31-.15.31.08a.55.55,0,0,1-.31.44l-1.16.67c-.13.07-.31.14-.31-.08a.53.53,0,0,1,.31-.45l.36-.2v-3l-.36.2c-.13.08-.31.15-.31-.08a.53.53,0,0,1,.31-.44Z"/></g><g class="cls-1"><polygon class="cls-27" points="18.8 16.9 18.37 16.65 18.68 16.47 19.12 16.72 18.8 16.9"/><polygon class="cls-27" points="19.12 16.72 18.68 16.47 19.01 15.47 19.45 15.73 19.12 16.72"/><path class="cls-27" d="M18.55,17.49l-.44-.26a.15.15,0,0,1-.06-.14.51.51,0,0,1,.32-.44l.44.25a.52.52,0,0,0-.32.44Q18.49,17.46,18.55,17.49Z"/><polygon class="cls-27" points="19.55 15.14 19.12 14.89 19.22 14.83 19.66 15.09 19.55 15.14"/><path class="cls-27" d="M19.26,15.78l-.44-.26s-.06-.08-.1-.16l.44.26A.55.55,0,0,0,19.26,15.78Z"/><polygon class="cls-27" points="19.66 15.09 19.22 14.83 19.82 12.94 20.26 13.19 19.66 15.09"/><polygon class="cls-27" points="20.26 13.19 19.82 12.94 19.82 12.64 20.26 12.89 20.26 13.19"/><path class="cls-27" d="M20.2,12.12l.44.26s-.08,0-.16,0L20,12.15C20.12,12.11,20.17,12.1,20.2,12.12Z"/><path class="cls-27" d="M20.26,12.89l-.44-.25a.51.51,0,0,1,.22-.49l.44.25A.52.52,0,0,0,20.26,12.89Z"/><polygon class="cls-27" points="19.16 15.62 18.72 15.36 18.16 14.26 18.59 14.52 19.16 15.62"/><path class="cls-27" d="M18.59,14.52l-.44-.26A.84.84,0,0,1,18,13.9l.44.25A.76.76,0,0,0,18.59,14.52Z"/><polygon class="cls-27" points="18.48 14.15 18.05 13.9 18.04 13.66 18.48 13.92 18.48 14.15"/><path class="cls-28" d="M20.48,12.4c.2-.11.23,0,.23.23v.21a1.22,1.22,0,0,1-.05.37l-1.14,3.53c-.1.31-.15.36-.36.48l-.35.21c-.14.07-.32.14-.32-.09a.52.52,0,0,1,.32-.44l.31-.18.33-1h0c-.19.11-.2,0-.27-.12l-.57-1.1a.76.76,0,0,1-.11-.37v-.23a.52.52,0,0,1,.23-.49c.19-.12.23.05.23.23V14l.62,1.19.1-.05.6-1.9v-.3A.52.52,0,0,1,20.48,12.4Z"/><path class="cls-27" d="M18.43,13.15l.44.25s-.09,0-.16,0a.52.52,0,0,0-.23.49L18,13.66a.52.52,0,0,1,.23-.49A.16.16,0,0,1,18.43,13.15Z"/></g><g class="cls-1"><path class="cls-27" d="M23.18,12.33l.44.26a.12.12,0,0,1,.06.1.54.54,0,0,1-.33.48l-.05,0-.44-.26.05,0a.53.53,0,0,0,.33-.48A.1.1,0,0,0,23.18,12.33Z"/><path class="cls-27" d="M23.52,11.77,24,12a.56.56,0,0,0-.28,0l-.44-.25A.47.47,0,0,1,23.52,11.77Z"/><polygon class="cls-27" points="22.68 13.55 22.24 13.3 22.86 12.94 23.3 13.2 22.68 13.55"/><path class="cls-27" d="M22.32,13.65l-.44-.25c.09,0,.22,0,.36-.1l.44.25C22.54,13.63,22.41,13.7,22.32,13.65Z"/><path class="cls-27" d="M23.66,11.21,23.22,11h0l.44.26h0Z"/><path class="cls-27" d="M22,14.19l-.44-.25a.17.17,0,0,1-.08-.14.52.52,0,0,1,.24-.4.15.15,0,0,1,.17,0l.44.25s-.1,0-.17,0a.5.5,0,0,0-.24.4A.17.17,0,0,0,22,14.19Z"/><path class="cls-27" d="M23.56,10.4l.44.26-.11-.05c-.17-.06-.27,0-.52.13l-.44-.26c.25-.14.35-.19.52-.12Z"/><polygon class="cls-27" points="22.54 12.04 22.1 11.78 23.24 11.72 23.68 11.97 22.54 12.04"/><path class="cls-27" d="M22.45,12,22,11.77s.06,0,.09,0l.44.26Z"/><polygon class="cls-27" points="22.59 11.19 22.15 10.93 22.93 10.48 23.37 10.74 22.59 11.19"/><path class="cls-27" d="M22.11,12.58l-.44-.26c-.09-.05-.14-.16-.14-.36a1.24,1.24,0,0,1,.62-1l.44.26a1.26,1.26,0,0,0-.63,1C22,12.41,22,12.52,22.11,12.58Z"/><path class="cls-28" d="M23.37,10.74c.25-.15.35-.19.52-.13s.18.05.18.19a.47.47,0,0,1-.23.4.15.15,0,0,1-.19,0c-.08,0-.16,0-.28.06l-.69.4-.07,0a.3.3,0,0,0-.19.26c0,.08.06.08.12.08L23.68,12c.3,0,.45.11.45.49a1.39,1.39,0,0,1-.75,1.21l-.7.41c-.23.13-.4.21-.57.16s-.21-.05-.21-.18a.5.5,0,0,1,.24-.4.15.15,0,0,1,.18,0c.08.06.22,0,.36-.1l.62-.35.05,0a.54.54,0,0,0,.33-.48c0-.13-.14-.13-.24-.13l-1.08.06c-.25,0-.39-.07-.4-.41a1.26,1.26,0,0,1,.63-1Z"/></g><g class="cls-1"><path class="cls-27" d="M26.83,10.73l.44.26c-.06,0-.16,0-.26.06l-.44-.25C26.67,10.74,26.77,10.7,26.83,10.73Z"/><polygon class="cls-27" points="26.67 11.25 26.23 10.99 26.57 10.8 27.01 11.05 26.67 11.25"/><polygon class="cls-27" points="25.85 11.72 25.41 11.46 25.77 11.26 26.21 11.51 25.85 11.72"/><path class="cls-27" d="M25.6,12.3l-.44-.25s-.06-.06-.06-.14a.5.5,0,0,1,.31-.44l.44.25a.53.53,0,0,0-.31.44C25.54,12.24,25.56,12.28,25.6,12.3Z"/><polygon class="cls-27" points="26.21 11.51 25.77 11.26 25.77 9.37 26.21 9.62 26.21 11.51"/><path class="cls-27" d="M26.16,8.69,26.6,9c-.05,0-.14,0-.27.08l-.44-.26C26,8.7,26.11,8.66,26.16,8.69Z"/><polygon class="cls-27" points="25.85 9.31 25.41 9.05 25.89 8.78 26.32 9.03 25.85 9.31"/><path class="cls-27" d="M25.59,9.89l-.44-.25a.21.21,0,0,1-.06-.15.52.52,0,0,1,.32-.44l.44.26a.51.51,0,0,0-.32.44A.15.15,0,0,0,25.59,9.89Z"/><path class="cls-28" d="M27,11.05c.15-.09.31-.14.31.08a.55.55,0,0,1-.31.45l-1.16.66c-.13.08-.31.15-.31-.08a.53.53,0,0,1,.31-.44l.36-.21V9.62l-.36.21c-.13.08-.32.15-.32-.08a.51.51,0,0,1,.32-.44L26.33,9c.26-.15.33-.14.33.17v2.05Z"/></g><g class="cls-1"><path class="cls-27" d="M26.17,7.37l.44.26s-.1,0-.16,0L26,7.4A.17.17,0,0,1,26.17,7.37Z"/><path class="cls-27" d="M26,8.58l-.44-.26s-.06-.06-.06-.15l.44.26Q26,8.55,26,8.58Z"/><polygon class="cls-27" points="25.97 8.43 25.53 8.17 25.53 7.92 25.97 8.18 25.97 8.43"/><polygon class="cls-27" points="26.18 7.81 25.74 7.55 26.01 7.4 26.45 7.66 26.18 7.81"/><path class="cls-27" d="M26,8.18l-.44-.26a.41.41,0,0,1,.21-.37l.44.26A.4.4,0,0,0,26,8.18Z"/><path class="cls-28" d="M26.19,8.55c-.13.07-.22.06-.22-.12V8.18a.4.4,0,0,1,.21-.37l.27-.15c.12-.07.21-.07.21.12V8a.41.41,0,0,1-.21.37Z"/></g><g class="cls-1"><path class="cls-27" d="M30,8.39l.44.26a.11.11,0,0,1,.05.1.51.51,0,0,1-.33.48l0,0L29.69,9l0,0a.5.5,0,0,0,.33-.48A.11.11,0,0,0,30,8.39Z"/><path class="cls-27" d="M30.35,7.83l.44.25A.59.59,0,0,0,30.51,8l-.44-.25A.42.42,0,0,1,30.35,7.83Z"/><polygon class="cls-27" points="29.51 9.61 29.07 9.36 29.69 9 30.13 9.25 29.51 9.61"/><path class="cls-27" d="M29.15,9.71l-.44-.25c.08,0,.22,0,.36-.11l.44.26C29.37,9.69,29.23,9.76,29.15,9.71Z"/><path class="cls-27" d="M30.49,7.27,30.05,7h0l.44.26h0Z"/><path class="cls-27" d="M28.81,10.25,28.37,10a.14.14,0,0,1-.08-.13.5.5,0,0,1,.24-.4.18.18,0,0,1,.17,0l.43.26a.14.14,0,0,0-.16,0,.5.5,0,0,0-.24.39A.17.17,0,0,0,28.81,10.25Z"/><path class="cls-27" d="M30.39,6.46l.44.25-.11,0c-.17-.06-.27,0-.53.13l-.43-.26c.25-.14.35-.19.52-.12Z"/><polygon class="cls-27" points="29.37 8.1 28.93 7.84 30.07 7.78 30.51 8.03 29.37 8.1"/><path class="cls-27" d="M29.28,8.09l-.44-.26h.09l.44.26Z"/><polygon class="cls-27" points="29.42 7.25 28.98 6.99 29.75 6.54 30.2 6.8 29.42 7.25"/><path class="cls-27" d="M28.94,8.64l-.44-.26c-.09-.05-.15-.16-.15-.36A1.28,1.28,0,0,1,29,7l.44.26a1.26,1.26,0,0,0-.63,1A.41.41,0,0,0,28.94,8.64Z"/><path class="cls-28" d="M30.19,6.8c.26-.15.36-.19.53-.13s.18,0,.18.19a.52.52,0,0,1-.23.4.15.15,0,0,1-.19,0c-.08,0-.16,0-.28.06l-.7.4-.06,0a.3.3,0,0,0-.19.25c0,.09.06.09.12.09L30.51,8c.3,0,.45.11.45.49a1.41,1.41,0,0,1-.75,1.21l-.7.4c-.24.14-.4.22-.57.17s-.21-.06-.21-.19A.5.5,0,0,1,29,9.72c.07-.05.12-.05.17,0s.23,0,.37-.1l.62-.36,0,0a.51.51,0,0,0,.33-.48c0-.13-.13-.13-.23-.13l-1.08.06c-.25,0-.4-.07-.4-.41a1.26,1.26,0,0,1,.63-1Z"/></g></g></g></g></svg>