<svg xmlns="http://www.w3.org/2000/svg" xmlns:xlink="http://www.w3.org/1999/xlink" viewBox="0 0 37.61 56.12"><defs><style>.cls-1{isolation:isolate;}.cls-2{fill:#cfd0e0;}.cls-3{fill:url(#linear-gradient);}.cls-4{fill:url(#linear-gradient-2);}.cls-5{fill:url(#linear-gradient-3);}.cls-6{fill:#ebebeb;mix-blend-mode:multiply;}.cls-7{fill:#d4d5e6;}.cls-8{fill:url(#linear-gradient-4);}.cls-9{fill:url(#linear-gradient-5);}.cls-10{fill:url(#linear-gradient-6);}.cls-11{fill:#003447;}.cls-12{fill:#0bf;}.cls-13{fill:url(#linear-gradient-7);}.cls-14{fill:url(#linear-gradient-8);}.cls-15{fill:url(#linear-gradient-9);}</style><linearGradient id="linear-gradient" x1="38.8" y1="41.89" x2="26.79" y2="21.08" gradientUnits="userSpaceOnUse"><stop offset="0.73" stop-color="#dedeeb"/><stop offset="0.93" stop-color="#eae9f2"/></linearGradient><linearGradient id="linear-gradient-2" x1="4.6" y1="39.97" x2="32.19" y2="39.97" gradientUnits="userSpaceOnUse"><stop offset="0.37" stop-color="#caccde"/><stop offset="0.97" stop-color="#eae9f2"/></linearGradient><linearGradient id="linear-gradient-3" x1="13.43" y1="38.28" x2="23.9" y2="20.14" gradientUnits="userSpaceOnUse"><stop offset="0" stop-color="#caccde"/><stop offset="0.56" stop-color="#eae9f2"/></linearGradient><linearGradient id="linear-gradient-4" x1="16.27" y1="26.02" x2="37.6" y2="26.02" gradientUnits="userSpaceOnUse"><stop offset="0.24" stop-color="#a8a4b5"/><stop offset="1" stop-color="#dbd3e2"/></linearGradient><linearGradient id="linear-gradient-5" x1="5.44" y1="44.02" x2="27.51" y2="-5.88" xlink:href="#linear-gradient-2"/><linearGradient id="linear-gradient-6" x1="12.97" y1="20.37" x2="24.37" y2="0.62" xlink:href="#linear-gradient-3"/><linearGradient id="linear-gradient-7" x1="7.49" y1="59.27" x2="1.8" y2="27.24" gradientUnits="userSpaceOnUse"><stop offset="0" stop-color="#caccde"/><stop offset="1" stop-color="#dfdeee"/></linearGradient><linearGradient id="linear-gradient-8" x1="5.91" y1="56.93" x2="3.88" y2="26.28" xlink:href="#linear-gradient-7"/><linearGradient id="linear-gradient-9" x1="12.42" y1="51.71" x2="0.43" y2="30.94" gradientUnits="userSpaceOnUse"><stop offset="0.68" stop-color="#dedeeb"/><stop offset="0.81" stop-color="#eae9f2"/></linearGradient></defs><g class="cls-1"><g id="Layer_2" data-name="Layer 2"><g id="Layer_1-2" data-name="Layer 1"><path class="cls-2" d="M27.77,24.28a6.4,6.4,0,0,1,2.37,2.64l.21.44a35,35,0,0,1,2,5.42,19.79,19.79,0,0,1,.46,2.09L34,42.26c.11.66-.36.83-1.09.41a4.34,4.34,0,0,1-1.74-2l-1.93-5.51c-.94-2.68-1.75-5.28-2.41-7.81l-.6-2.24c-.23-.87.17-1.29,1-1C27.31,24.15,27.58,24.17,27.77,24.28Z"/><path class="cls-2" d="M35.74,42.75l-1.23-7.39c-.12-.71-.28-1.45-.48-2.21a36.15,36.15,0,0,0-2.1-5.74l-.2-.45a10.37,10.37,0,0,0-3.87-4.28,5.22,5.22,0,0,0-.91-.42c-1.3-.41-1.94.28-1.57,1.69L26,26.2q1,3.86,2.45,7.93l1.94,5.51a8.25,8.25,0,0,0,3.31,3.89C35.05,44.33,36,44,35.74,42.75Zm-2.82-.08a4.34,4.34,0,0,1-1.74-2l-1.93-5.51c-.94-2.68-1.75-5.28-2.41-7.81l-.6-2.24c-.23-.87.17-1.29,1-1,.1.12.37.14.56.25a6.4,6.4,0,0,1,2.37,2.64l.21.44a35,35,0,0,1,2,5.42,19.79,19.79,0,0,1,.46,2.09L34,42.26C34.12,42.92,33.65,43.09,32.92,42.67Z"/><path class="cls-3" d="M37.58,41.12l-1.23-7.4c-.12-.71-.28-1.45-.48-2.21a37.54,37.54,0,0,0-2.1-5.74l-.2-.44A10.47,10.47,0,0,0,29.7,21a4.5,4.5,0,0,0-.91-.41,1.37,1.37,0,0,0-1.36.1l-1.84,1.64A1.39,1.39,0,0,1,27,22.26a5.22,5.22,0,0,1,.91.42A10.37,10.37,0,0,1,31.73,27l.2.45A36.15,36.15,0,0,1,34,33.15c.2.76.36,1.5.48,2.21l1.23,7.39a1.08,1.08,0,0,1-.22,1l1.83-1.63A1.1,1.1,0,0,0,37.58,41.12Z"/><path class="cls-4" d="M32.19,29.9C32.19,31.54,30.8,50,18.48,50S4.6,30.57,4.6,29.9Z"/><path class="cls-5" d="M32.06,28.81c-.08-.32-.2-.75-.31-1.06s-.3-.77-.45-1.09a12.13,12.13,0,0,0-1.09-1.78,11.21,11.21,0,0,0-1.57-1.7,13,13,0,0,0-2-1.44c-.27-.16-.64-.36-.92-.5s-.52-.25-.75-.35a16.32,16.32,0,0,0-1.64-.6,15.67,15.67,0,0,0-1.61-.4,16.18,16.18,0,0,0-1.61-.23c-.24,0-.56-.06-.8-.06l-.79,0h-.8c-.51,0-1.12.07-1.61.13,0,0-.79.09-1.63.28l-.87.22-.78.25c-.29.09-.67.24-.95.36s-.53.23-.76.34-.69.35-1,.52a15,15,0,0,0-1.34.91,11.06,11.06,0,0,0-1.21,1.06,9.55,9.55,0,0,0-.9,1c-.13.18-.33.43-.45.62s-.43.7-.61,1a9.11,9.11,0,0,0-.47,1c-.16.42-.34,1-.46,1.44-.58,2.36.67,4.85,3.77,6.7,5.31,3.18,14,3.26,19.5.2C31.28,33.79,32.64,31.24,32.06,28.81Zm-9.8-2.19a8.58,8.58,0,0,1-7.8-.08c-2.13-1.27-2.08-3.29.11-4.51a8.58,8.58,0,0,1,7.8.07C24.49,23.37,24.44,25.4,22.26,26.62Z"/><path class="cls-6" d="M21.53,49.61a10.55,10.55,0,0,1-3.05.43C9.32,50,6.22,39.09,5.26,33.48a52.4,52.4,0,0,1,4.88-3.2l.71-.41a1.87,1.87,0,0,1,.38.41c1.93,2.63.7,11.14,2,15.09C14.38,48.78,17.74,49.85,21.53,49.61Z"/><path class="cls-7" d="M25.45,28.92a15.63,15.63,0,0,1-14.16,0c-3.93-2.26-3.95-5.92,0-8.17a15.67,15.67,0,0,1,14.16,0C29.32,23,29.34,26.67,25.45,28.92Z"/><path class="cls-8" d="M9.5,25.85c.32.19.74.43,1.07.58a15.36,15.36,0,0,0,1.68.71c.26.1.6.21.87.29.48.13,1.13.28,1.61.39a8.79,8.79,0,0,0,.87.15l.84.1.84.07.85,0c.26,0,.59,0,.85,0a8.46,8.46,0,0,0,.87,0c.51-.05,1.18-.13,1.68-.21.27,0,.63-.11.9-.18s.57-.13.81-.2l1-.3c.34-.11.78-.29,1.11-.43s1-.47,1.43-.7.82-.49,1.16-.72.54-.38.76-.56.73-.63,1-.91a10.4,10.4,0,0,1-2.25,1.65c-5.24,2.92-13.55,2.83-18.58-.19A10.68,10.68,0,0,1,7,24l.84.75.42.33C8.64,25.3,9.13,25.62,9.5,25.85Z"/><path class="cls-9" d="M19.85,28.1C26.78,28.1,34,21.22,34,16.52a25.24,25.24,0,0,0-1-7.19c-1.48-5-29.07-2.51-29.63,1-.13.85-.16,1.47-.2,1.67-.18,1.05-1.3,7,3,11.09S14.6,28.1,19.85,28.1Z"/><path class="cls-10" d="M33.26,10.06c-.09-.35-.22-.81-.34-1.15a12.27,12.27,0,0,0-.5-1.18,11.43,11.43,0,0,0-1.18-1.94,12.43,12.43,0,0,0-1.71-1.86,13.4,13.4,0,0,0-2.14-1.57c-.29-.18-.69-.39-1-.55s-.57-.27-.81-.37A15.48,15.48,0,0,0,23.79.79,14.71,14.71,0,0,0,22,.35,16.77,16.77,0,0,0,20.29.1C20,.07,19.68,0,19.42,0l-.87,0h-.87c-.55,0-1.22.08-1.75.14a17.27,17.27,0,0,0-1.77.31c-.29.06-.67.16-1,.24L12.35,1c-.31.1-.72.26-1,.39s-.58.26-.82.37a11,11,0,0,0-1.07.57C9,2.58,8.38,3,8,3.29A14.37,14.37,0,0,0,6.65,4.44a14.53,14.53,0,0,0-1,1.1c-.15.2-.36.47-.49.68S4.7,7,4.51,7.32A9.82,9.82,0,0,0,4,8.41C3.83,8.87,3.64,9.5,3.5,10c-.63,2.57.73,5.28,4.1,7.3,5.79,3.45,15.3,3.55,21.25.21C32.41,15.49,33.89,12.71,33.26,10.06Z"/><path class="cls-11" d="M33.82,15.09a7.15,7.15,0,0,1-.16,2.11c-.56,1.83-2,3.51-4.51,4.9C24.92,24.46,19,25.17,13.76,24.25c-1.63-.37-2.24-.5-3-7.48-.11-2,.57-2.1,1.17-2,5.07,1.56,11.52,1.14,15.9-1.31C30.65,11.86,32.06,9.73,32,7.6V7.46a.66.66,0,0,1,.23.18A19.41,19.41,0,0,1,33.82,15.09Z"/><path class="cls-12" d="M21.07,20.94l-.61,0c-.72,0-1.14-.3-1.14-1.07v-.58a1.39,1.39,0,0,1,1.24-1.43h.19a1.32,1.32,0,0,1,1.33,1.35l0,.6C22.14,20.63,21.81,20.88,21.07,20.94Z"/><path class="cls-12" d="M30.16,17.63,30,17.7c-.5.25-1,.14-1.11-.64l-.1-.57a1.82,1.82,0,0,1,.54-1.84l.13-.08c.48-.29,1,.09,1.18.86l.12.6A1.33,1.33,0,0,1,30.16,17.63Z"/><path class="cls-12" d="M24.79,22.29l-.18-.64a16.34,16.34,0,0,0,2.62-.92l.34.58A16.7,16.7,0,0,1,24.79,22.29Z"/><path class="cls-13" d="M6.6,30.23a3.61,3.61,0,0,1,1.57,3.09v.56a36.27,36.27,0,0,1-.72,7c-.2.94-.43,1.86-.7,2.75l-3,9.85a1.16,1.16,0,0,1-1.75.8A2.59,2.59,0,0,1,.92,51.85l.85-7.13q.62-5.17,1.64-10.16L4,31.62c.23-1.14,1-1.8,2-1.62C6.06,30.14,6.41,30.12,6.6,30.23Z"/><path class="cls-14" d="M7.35,28.5a3.27,3.27,0,0,0-1-.38c-1.52-.29-2.83.79-3.21,2.64l-.61,2.95C1.85,37.08,1.29,40.53.88,44L0,51.16a4.91,4.91,0,0,0,2.06,4.62,2.2,2.2,0,0,0,3.33-1.51l3-9.85c.29-.94.53-1.92.74-2.92a38.75,38.75,0,0,0,.77-7.4v-.57A5.86,5.86,0,0,0,7.35,28.5Zm.1,12.38c-.2.94-.43,1.86-.7,2.75l-3,9.85a1.16,1.16,0,0,1-1.75.8A2.59,2.59,0,0,1,.92,51.85l.85-7.13q.62-5.17,1.64-10.16L4,31.62c.23-1.14,1-1.8,2-1.62.07.14.42.12.61.23a3.61,3.61,0,0,1,1.57,3.09v.56A36.27,36.27,0,0,1,7.45,40.88Z"/><path class="cls-15" d="M9.18,28a3,3,0,0,0-1-.37,2.43,2.43,0,0,0-1.11,0l-1.83.5a2.43,2.43,0,0,1,1.11,0,3.27,3.27,0,0,1,1,.38,5.86,5.86,0,0,1,2.57,5v.57a38.75,38.75,0,0,1-.77,7.4c-.21,1-.45,2-.74,2.92l-3,9.85A2.47,2.47,0,0,1,3.8,56.05l1.83-.5a2.43,2.43,0,0,0,1.62-1.77l3-9.85c.29-1,.54-1.93.74-2.93a38,38,0,0,0,.77-7.4V33A5.89,5.89,0,0,0,9.18,28Z"/><path class="cls-11" d="M33.68,15.11a6.84,6.84,0,0,1-.15,2.06C33,19,31.56,20.6,29.13,22c-4.13,2.3-9.91,3-15,2.1-1.6-.36-2.19-.5-3-7.31-.11-1.91.55-2.05,1.13-2,5,1.52,11.26,1.11,15.53-1.27C30.59,12,32,9.88,31.91,7.8V7.66a.65.65,0,0,1,.22.18A18.88,18.88,0,0,1,33.68,15.11Z"/><path class="cls-12" d="M25.45,22a5.27,5.27,0,0,1-.53,0l.11-.65a2.55,2.55,0,0,0,2.32-.79l.53.37A2.91,2.91,0,0,1,25.45,22Z"/><path class="cls-12" d="M21,21.64h-.19a1.61,1.61,0,0,1-1.16-.49,1.94,1.94,0,0,1-.55-1.36v-.56a1.81,1.81,0,0,1,1.64-1.85h.19a1.57,1.57,0,0,1,1.19.44,1.9,1.9,0,0,1,.6,1.32v.59a1.89,1.89,0,0,1-.53,1.4A1.64,1.64,0,0,1,21,21.64Zm0-3.36h-.23a.92.92,0,0,0-.78.94v.57a1,1,0,0,0,.28.71.76.76,0,0,0,.52.22H21a.79.79,0,0,0,.55-.24,1,1,0,0,0,.27-.75l0-.58a.91.91,0,0,0-.29-.68A.73.73,0,0,0,21,18.28Z"/><path class="cls-12" d="M29.7,18.53a1.12,1.12,0,0,1-.47-.11,1.7,1.7,0,0,1-.83-1.27l-.11-.57a2.26,2.26,0,0,1,.8-2.29l.12-.08a1.07,1.07,0,0,1,1-.07,1.65,1.65,0,0,1,.86,1.22l.12.58a2.22,2.22,0,0,1-.85,2.4l-.14.07A1,1,0,0,1,29.7,18.53ZM29.77,15a.13.13,0,0,0-.09,0l-.12.07a1.45,1.45,0,0,0-.37,1.35l.1.56a.89.89,0,0,0,.34.62.14.14,0,0,0,.14,0l.13-.07a1.42,1.42,0,0,0,.38-1.41l-.13-.58a.77.77,0,0,0-.32-.56Z"/></g></g></g></svg>