<svg xmlns="http://www.w3.org/2000/svg" xmlns:xlink="http://www.w3.org/1999/xlink" viewBox="0 0 71.52 103.96"><defs><style>.cls-1{isolation:isolate;}.cls-2{fill:#e1e1f5;}.cls-3{fill:#9e9eb8;}.cls-4{fill:#c1c1e8;}.cls-5{fill:#acacc7;}.cls-6{fill:url(#linear-gradient);}.cls-7{fill:#0950e0;}.cls-8{fill:#2462e0;}.cls-9{fill:url(#radial-gradient);}.cls-10{fill:#5fb8ff;}.cls-11{fill:url(#radial-gradient-2);}.cls-12{fill:url(#linear-gradient-2);}.cls-13{fill:url(#linear-gradient-3);}.cls-14{fill:url(#linear-gradient-4);}.cls-15{fill:url(#linear-gradient-5);}.cls-16{fill:url(#linear-gradient-6);}.cls-17{fill:#c0baca;}.cls-18{fill:url(#linear-gradient-7);}.cls-19{fill:#ebebeb;mix-blend-mode:multiply;}.cls-20{fill:#d4d5e6;}.cls-21{fill:url(#linear-gradient-8);}.cls-22{fill:url(#linear-gradient-9);}.cls-23{fill:url(#linear-gradient-10);}.cls-24{fill:#003447;}.cls-25{fill:#0bf;}.cls-26{fill:url(#linear-gradient-11);}.cls-27{fill:#cbcddf;}.cls-28{fill:url(#linear-gradient-12);}.cls-29{fill:url(#linear-gradient-13);}.cls-30{fill:#36d954;}.cls-31{fill:#16b333;}.cls-32{fill:#5bf06d;}.cls-33{fill:#fff;}</style><linearGradient id="linear-gradient" x1="1.16" y1="38.91" x2="1.78" y2="35.43" gradientUnits="userSpaceOnUse"><stop offset="0.09" stop-color="#9e9eb8"/><stop offset="0.28" stop-color="#aeaecf"/><stop offset="0.49" stop-color="#bcbce1"/><stop offset="0.63" stop-color="#c1c1e8"/><stop offset="0.97" stop-color="#acacc7"/></linearGradient><radialGradient id="radial-gradient" cx="-425.47" cy="1117.12" r="18.54" gradientTransform="matrix(0.76, -0.39, 0.31, 0.97, 9.57, -1176.45)" gradientUnits="userSpaceOnUse"><stop offset="0.58" stop-color="#5fb8ff"/><stop offset="1" stop-color="#2462e0"/></radialGradient><radialGradient id="radial-gradient-2" cx="-425.47" cy="1117.12" r="11.7" gradientTransform="matrix(0.76, -0.39, 0.31, 0.97, 9.58, -1176.45)" gradientUnits="userSpaceOnUse"><stop offset="0.2" stop-color="#173f8f"/><stop offset="0.4" stop-color="#184195"/><stop offset="0.67" stop-color="#1a48a5"/><stop offset="0.94" stop-color="#1e53bd"/></radialGradient><linearGradient id="linear-gradient-2" x1="46.35" y1="67.93" x2="49.6" y2="62.3" gradientUnits="userSpaceOnUse"><stop offset="0.26" stop-color="#caccde"/><stop offset="0.6" stop-color="#cdcfe0"/><stop offset="0.87" stop-color="#d7d7e8"/><stop offset="1" stop-color="#dfdeee"/></linearGradient><linearGradient id="linear-gradient-3" x1="53.38" y1="71.16" x2="43.17" y2="53.47" gradientUnits="userSpaceOnUse"><stop offset="0.15" stop-color="#eae9f2"/><stop offset="0.52" stop-color="#e7e7f0"/><stop offset="0.75" stop-color="#dfdfeb"/><stop offset="0.94" stop-color="#d1d2e2"/><stop offset="1" stop-color="#caccde"/></linearGradient><linearGradient id="linear-gradient-4" x1="60.22" y1="73.4" x2="57.5" y2="68.69" gradientUnits="userSpaceOnUse"><stop offset="0.26" stop-color="#caccde"/><stop offset="0.85" stop-color="#eae9f2"/></linearGradient><linearGradient id="linear-gradient-5" x1="46.01" y1="68.9" x2="50.01" y2="61.98" xlink:href="#linear-gradient-2"/><linearGradient id="linear-gradient-6" x1="17.2" y1="73.27" x2="43.89" y2="73.27" gradientUnits="userSpaceOnUse"><stop offset="0.37" stop-color="#caccde"/><stop offset="0.97" stop-color="#eae9f2"/></linearGradient><linearGradient id="linear-gradient-7" x1="25.74" y1="71.63" x2="35.88" y2="54.08" gradientUnits="userSpaceOnUse"><stop offset="0" stop-color="#caccde"/><stop offset="0.56" stop-color="#eae9f2"/></linearGradient><linearGradient id="linear-gradient-8" x1="28.49" y1="59.78" x2="49.13" y2="59.78" gradientUnits="userSpaceOnUse"><stop offset="0.24" stop-color="#a8a4b5"/><stop offset="1" stop-color="#dbd3e2"/></linearGradient><linearGradient id="linear-gradient-9" x1="18.01" y1="77.18" x2="39.36" y2="28.91" xlink:href="#linear-gradient-6"/><linearGradient id="linear-gradient-10" x1="25.3" y1="54.31" x2="36.33" y2="35.2" xlink:href="#linear-gradient-7"/><linearGradient id="linear-gradient-11" x1="13.35" y1="63.43" x2="19.15" y2="46.81" gradientUnits="userSpaceOnUse"><stop offset="0" stop-color="#caccde"/><stop offset="1" stop-color="#dfdeee"/></linearGradient><linearGradient id="linear-gradient-12" x1="15.26" y1="53.48" x2="12.06" y2="47.93" gradientUnits="userSpaceOnUse"><stop offset="0.14" stop-color="#cbcddf"/><stop offset="0.27" stop-color="#d7d7e6"/><stop offset="0.5" stop-color="#e5e4ef"/><stop offset="0.69" stop-color="#eae9f2"/></linearGradient><linearGradient id="linear-gradient-13" x1="13.59" y1="63.51" x2="19.38" y2="46.89" xlink:href="#linear-gradient-11"/></defs><g class="cls-1"><g id="Layer_2" data-name="Layer 2"><g id="Layer_1-2" data-name="Layer 1"><path class="cls-2" d="M30.85,20.29c.88-.52,1.84,0,2.13,1.12L49.23,84.83a2.8,2.8,0,0,1-1.08,3L20.9,103.54c-.88.51-1.84,0-2.13-1.12L2.52,39A2.79,2.79,0,0,1,3.6,36Z"/><path class="cls-3" d="M19.51,103.93l-1.8-.33a1.85,1.85,0,0,1-1.37-1.47l1.81.33A1.83,1.83,0,0,0,19.51,103.93Z"/><path class="cls-4" d="M20.9,103.54l-.35.19c-1,.58-2.08,0-2.4-1.27l.62,0C19.06,103.54,20,104.05,20.9,103.54Z"/><path class="cls-5" d="M29.62,19.41l1.8.33a1.55,1.55,0,0,0-1.05.2l-1.8-.33A1.55,1.55,0,0,1,29.62,19.41Z"/><polygon class="cls-5" points="3.12 35.67 1.32 35.34 28.57 19.61 30.37 19.94 3.12 35.67"/><path class="cls-4" d="M32.32,20.29l0,0h0l0,0v0l0,0h0l0,0,0,0v0l0,0,0,0v0h0a1.3,1.3,0,0,0-1.73-.3l-.48-.35A1.47,1.47,0,0,1,32.32,20.29Z"/><polygon class="cls-4" points="3.6 36.02 3.12 35.67 30.37 19.94 30.85 20.29 3.6 36.02"/><polygon class="cls-3" points="18.14 102.47 16.34 102.14 0.09 38.71 1.89 39.04 18.14 102.47"/><polygon class="cls-4" points="18.77 102.42 18.14 102.47 1.89 39.04 2.52 38.99 18.77 102.42"/><path class="cls-6" d="M1.89,39l-1.8-.33a3.16,3.16,0,0,1,1.23-3.36l1.8.32A3.18,3.18,0,0,0,1.89,39Z"/><path class="cls-4" d="M2.52,39l-.63,0a3.18,3.18,0,0,1,1.23-3.37L3.6,36A2.79,2.79,0,0,0,2.52,39Z"/><path class="cls-7" d="M21,102.25l-.34.19c-.53.31-1.11,0-1.29-.68l.62-.05C20.15,102.25,20.61,102.49,21,102.25Z"/><path class="cls-7" d="M31.92,21.22l0,0v0l0,0h0l0,0,0,0,0,0,0,.05,0,0,0,0h0l0,0a.62.62,0,0,0-.82-.15L30.88,21A.79.79,0,0,1,31.92,21.22Z"/><polygon class="cls-7" points="28.34 23.13 27.85 22.78 30.88 21.04 31.36 21.38 28.34 23.13"/><path class="cls-7" d="M27.58,24,27,23.74a2.31,2.31,0,0,1,.86-1l.49.35A2,2,0,0,0,27.58,24Z"/><polygon class="cls-7" points="26.31 26.47 25.72 26.25 26.99 23.74 27.58 23.96 26.31 26.47"/><path class="cls-7" d="M25.34,27.55l-.48-.34a2.31,2.31,0,0,0,.86-1l.59.22A2.57,2.57,0,0,1,25.34,27.55Z"/><polygon class="cls-7" points="11.53 35.52 11.05 35.18 24.86 27.21 25.34 27.55 11.53 35.52"/><path class="cls-7" d="M10.32,35.7,10,35.34a1.41,1.41,0,0,0,1.07-.16l.48.34A1.54,1.54,0,0,1,10.32,35.7Z"/><polygon class="cls-7" points="8.26 35.12 7.92 34.76 9.98 35.34 10.32 35.7 8.26 35.12"/><path class="cls-7" d="M7.33,35.25l-.48-.34a1.41,1.41,0,0,1,1.07-.16l.34.37A1.19,1.19,0,0,0,7.33,35.25Z"/><polygon class="cls-7" points="4.31 37 3.83 36.66 6.85 34.91 7.33 35.26 4.31 37"/><path class="cls-7" d="M3.79,38.41l-.62.05a1.68,1.68,0,0,1,.66-1.8l.48.34A1.34,1.34,0,0,0,3.79,38.41Z"/><path class="cls-8" d="M31.36,21.38c.42-.24.87,0,1,.53L48.59,85.22a1.33,1.33,0,0,1-.51,1.41L21,102.25c-.41.24-.87,0-1-.54L3.79,38.41A1.34,1.34,0,0,1,4.31,37l3-1.75a1.19,1.19,0,0,1,.93-.13l2.06.58a1.54,1.54,0,0,0,1.21-.18l13.81-8a2.57,2.57,0,0,0,1-1.08L27.58,24a2,2,0,0,1,.76-.83Z"/><polygon class="cls-7" points="20.01 101.71 19.39 101.76 3.17 38.46 3.79 38.41 20.01 101.71"/><ellipse class="cls-9" cx="29.17" cy="73.58" rx="15.2" ry="19.39" transform="translate(-1.74 0.72) rotate(-1.37)"/><path class="cls-10" d="M39.11,68.16c2.41,7-.08,15.16-5.57,18.15S21.65,86,19.23,79s.08-15.16,5.57-18.16S36.69,61.12,39.11,68.16Z"/><path class="cls-8" d="M38.69,68.38c2.32,6.74-.07,14.53-5.33,17.4s-11.4-.26-13.71-7S19.72,64.24,25,61.37,36.38,61.64,38.69,68.38Z"/><ellipse class="cls-11" cx="29.17" cy="73.58" rx="9.59" ry="12.23" transform="translate(-1.75 0.72) rotate(-1.37)"/><path class="cls-12" d="M57.41,71.22a2.08,2.08,0,0,1,.11,1.38,1.17,1.17,0,0,1-1.82.57L49.8,69.9q-4.27-2.37-8.45-5.19L38.88,63a3.68,3.68,0,0,1-1.31-1.61c-.18-.43-.13-1.17-.27-1.32a1.66,1.66,0,0,1,2.4-1.63l.46.18a30.12,30.12,0,0,1,5.77,3.08c.79.53,1.57,1.1,2.33,1.72l8.39,6.75A2.78,2.78,0,0,1,57.41,71.22Z"/><path class="cls-13" d="M50.69,61c-.8-.65-1.63-1.26-2.46-1.83a32.55,32.55,0,0,0-6.11-3.26l-.46-.18a2.9,2.9,0,0,0-2.67.13l-1.52,1a2.9,2.9,0,0,1,2.67-.13l.46.18a32.87,32.87,0,0,1,6.11,3.26c.83.57,1.66,1.18,2.46,1.82l8.39,6.76,1.52-1Z"/><path class="cls-14" d="M60.52,69.7a4.83,4.83,0,0,0-1.44-1.92l-1.52,1A4.83,4.83,0,0,1,59,70.67a3.77,3.77,0,0,1,.22,2.62,2.16,2.16,0,0,1-.87,1.19l1.52-1a2.11,2.11,0,0,0,.87-1.19A3.77,3.77,0,0,0,60.52,69.7Z"/><path class="cls-15" d="M59,70.67a4.83,4.83,0,0,0-1.44-1.92L49.17,62c-.8-.64-1.63-1.25-2.46-1.82a32.87,32.87,0,0,0-6.11-3.26l-.46-.18a2.7,2.7,0,0,0-3.91,2.67,5.06,5.06,0,0,0,.44,2.13,6,6,0,0,0,2.13,2.63l2.47,1.67q4.23,2.86,8.59,5.28l5.9,3.27c1.5.83,3,.36,3.46-1.09A3.77,3.77,0,0,0,59,70.67ZM57.52,72.6a1.17,1.17,0,0,1-1.82.57L49.8,69.9q-4.27-2.37-8.45-5.19L38.88,63a3.68,3.68,0,0,1-1.31-1.61c-.18-.43-.13-1.17-.27-1.32a1.66,1.66,0,0,1,2.4-1.63l.46.18a30.12,30.12,0,0,1,5.77,3.08c.79.53,1.57,1.1,2.33,1.72l8.39,6.75a2.78,2.78,0,0,1,.76,1A2.08,2.08,0,0,1,57.52,72.6Z"/><path class="cls-16" d="M43.89,63.52C43.89,65.11,42.55,83,30.63,83S17.2,64.18,17.2,63.53Z"/><path class="cls-17" d="M34.29,60.36a8.33,8.33,0,0,1-7.55-.08c-2.06-1.23-2-3.19.1-4.37a8.3,8.3,0,0,1,7.55.07C36.45,57.21,36.4,59.17,34.29,60.36Z"/><path class="cls-18" d="M43.77,62.47c-.08-.31-.2-.73-.3-1s-.3-.74-.44-1A10.93,10.93,0,0,0,42,58.67,11,11,0,0,0,40.46,57a12.46,12.46,0,0,0-1.9-1.39c-.26-.16-.62-.35-.89-.49s-.5-.24-.72-.33a13.94,13.94,0,0,0-1.59-.58,15.82,15.82,0,0,0-1.56-.39c-.59-.11-1.2-.19-1.55-.22a6.65,6.65,0,0,0-.77-.06l-.78,0h-.77c-.49,0-1.08.07-1.56.12,0,0-.76.09-1.57.28l-.85.21-.75.24c-.28.09-.65.24-.92.35l-.73.33c-.29.13-.67.34-.95.5s-.93.59-1.3.88a12.68,12.68,0,0,0-1.17,1,11.25,11.25,0,0,0-.86,1c-.14.18-.32.42-.44.61s-.42.67-.59,1a7.1,7.1,0,0,0-.45,1c-.16.41-.33,1-.45,1.39-.56,2.29.65,4.7,3.64,6.49C26.12,72,34.57,72,39.85,69.07,43,67.29,44.33,64.82,43.77,62.47Zm-9.48-2.11a8.33,8.33,0,0,1-7.55-.08c-2.06-1.23-2-3.19.1-4.37a8.3,8.3,0,0,1,7.55.07C36.45,57.21,36.4,59.17,34.29,60.36Z"/><path class="cls-19" d="M33.64,82.59a10.63,10.63,0,0,1-3,.42c-9,0-12.08-10.8-13-16.32,1.76-1.34-.08-.82,1-1.42.44-.25,1.82.36,1.82.36,1.05-.18,1.66,1.1,1.76,2.12a29.87,29.87,0,0,0,3.33,10.66C27.19,81.5,29.9,82.82,33.64,82.59Z"/><path class="cls-20" d="M37.37,62.58a15.17,15.17,0,0,1-13.7,0c-3.79-2.19-3.81-5.73,0-7.91a15.17,15.17,0,0,1,13.7,0C41.12,56.86,41.14,60.4,37.37,62.58Z"/><path class="cls-21" d="M22,59.6a10.35,10.35,0,0,0,1,.57,14.32,14.32,0,0,0,1.62.69c.25.09.59.2.84.27.47.13,1.09.28,1.56.38.25.06.59.11.84.15l.82.1.81.06.82,0c.25,0,.58,0,.82,0s.59,0,.85,0c.49,0,1.13-.13,1.62-.21.26,0,.61-.11.87-.17l.79-.2.93-.29a10.87,10.87,0,0,0,1.08-.41c.42-.18,1-.46,1.38-.68s.8-.48,1.13-.7.52-.37.73-.54.7-.61,1-.88a9.91,9.91,0,0,1-2.17,1.59c-5.07,2.83-13.11,2.75-18-.18a9.54,9.54,0,0,1-1.78-1.35c.23.22.56.51.81.72s.28.23.4.32A13.47,13.47,0,0,0,22,59.6Z"/><path class="cls-22" d="M32,61.79c6.7,0,13.68-6.66,13.68-11.21a24.83,24.83,0,0,0-.91-7c-1.43-4.81-28.13-2.43-28.67,1-.13.83-.15,1.42-.19,1.62-.17,1-1.26,6.76,2.87,10.73S26.87,61.79,32,61.79Z"/><path class="cls-23" d="M44.93,44.33c-.09-.34-.22-.79-.33-1.11s-.32-.81-.48-1.15A12,12,0,0,0,43,40.2a11.33,11.33,0,0,0-1.66-1.8,12.68,12.68,0,0,0-2.07-1.51c-.28-.18-.67-.39-1-.54L37.5,36a16.49,16.49,0,0,0-1.73-.63,17,17,0,0,0-1.7-.42c-.64-.13-1.31-.21-1.69-.25s-.59-.06-.84-.06l-.84,0h-.85c-.52,0-1.17.08-1.69.13,0,0-.83.1-1.71.3l-.93.24-.82.25c-.3.1-.7.26-1,.38l-.79.36c-.32.15-.74.37-1,.55s-1,.65-1.42,1a14.84,14.84,0,0,0-1.27,1.11A11.8,11.8,0,0,0,18.24,40c-.15.19-.35.45-.48.65s-.46.74-.64,1.07a8.33,8.33,0,0,0-.49,1c-.17.45-.36,1.06-.49,1.52-.61,2.49.71,5.11,4,7.06,5.59,3.35,14.79,3.44,20.55.21C44.11,49.58,45.54,46.9,44.93,44.33Z"/><path class="cls-24" d="M45.47,49.19a6.73,6.73,0,0,1-.16,2.05c-.53,1.77-2,3.4-4.36,4.74-4.09,2.28-9.82,3-14.88,2.08-1.58-.35-2.18-.49-2.95-7.24-.1-1.9.55-2,1.13-1.94,4.91,1.51,11.15,1.1,15.39-1.27C42.4,46.07,43.76,44,43.71,42v-.13a.6.6,0,0,1,.22.17A18.64,18.64,0,0,1,45.47,49.19Z"/><path class="cls-25" d="M32.65,51.91a2.63,2.63,0,0,0-2.12,2.83,3.67,3.67,0,0,0,.08.75,6.61,6.61,0,0,1,2-.42,6.34,6.34,0,0,1,2,.21,3.1,3.1,0,0,0,.09-.76C34.78,53,33.83,51.85,32.65,51.91Z"/><path class="cls-25" d="M41,49a4,4,0,0,0-.9,3.59,3.7,3.7,0,0,0,.2.64,6.72,6.72,0,0,1,1.3-1.36,4.44,4.44,0,0,1,1.41-.8,4.43,4.43,0,0,0-.09-.72C42.62,49,41.76,48.39,41,49Z"/><path class="cls-26" d="M13.22,52.36a3,3,0,0,1,.48.9l1.67,5.55c.81,2.68,1.49,5.31,2,7.87L17.87,69c.19.88-.26,1.35-1.09,1.16a4.65,4.65,0,0,1-2.33-1.73,4.34,4.34,0,0,1-.58-1L13.69,67A30.09,30.09,0,0,1,12,61.51c-.15-.73-.27-1.44-.34-2.12l-.81-7.56c-.07-.67.44-.9,1.19-.53A3.8,3.8,0,0,1,13.22,52.36Z"/><path class="cls-27" d="M21.26,67.71l-.48-2.28c-.55-2.61-1.23-5.28-2.06-8l-1.67-5.54-1.69,1.55L17,59c.83,2.73,1.51,5.4,2.06,8l.48,2.27a1.72,1.72,0,0,1-.33,1.66l1.69-1.55A1.7,1.7,0,0,0,21.26,67.71Z"/><path class="cls-28" d="M16.13,50.16a6.89,6.89,0,0,0-2.32-2c-.86-.43-1.56-.44-1.94-.09l-1.69,1.55c.38-.35,1.08-.34,1.94.09a6.89,6.89,0,0,1,2.32,2,5.55,5.55,0,0,1,.92,1.72l1.69-1.55A5.67,5.67,0,0,0,16.13,50.16Z"/><path class="cls-29" d="M19.57,69.25,19.09,67c-.55-2.61-1.23-5.28-2.06-8l-1.67-5.54a5.55,5.55,0,0,0-.92-1.72,6.89,6.89,0,0,0-2.32-2c-1.41-.71-2.38-.28-2.25,1l.81,7.56q.12,1.08.36,2.25a32.55,32.55,0,0,0,1.83,5.76l.18.44A7.76,7.76,0,0,0,14,68.34a7.52,7.52,0,0,0,3.79,2.81C19.14,71.46,19.87,70.69,19.57,69.25Zm-2.79.87a4.59,4.59,0,0,1-2.33-1.73,4.34,4.34,0,0,1-.58-1L13.69,67A30.09,30.09,0,0,1,12,61.51c-.15-.73-.27-1.44-.34-2.12l-.81-7.56c-.07-.67.44-.9,1.19-.53a3.8,3.8,0,0,1,1.22,1.06,3,3,0,0,1,.48.9l1.67,5.55c.81,2.68,1.49,5.31,2,7.87L17.87,69C18.06,69.84,17.61,70.31,16.78,70.12Z"/><g class="cls-1"><path class="cls-30" d="M67.2,26l-.34.3a10.24,10.24,0,0,1-1.65,1.21l.5-.42A9.93,9.93,0,0,0,67.2,26Z"/><path class="cls-30" d="M71.29,18.69l-.09.44a9,9,0,0,0,.21-1.9l.11-.65A10.32,10.32,0,0,1,71.29,18.69Z"/><polygon class="cls-30" points="65.71 27.1 65.21 27.52 57.62 31.9 57.83 31.64 65.71 27.1"/><polygon class="cls-30" points="71.38 6.4 71.49 5.76 71.52 16.59 71.41 17.23 71.38 6.4"/><polygon class="cls-31" points="51.91 42.96 49.73 41.69 50.02 33.71 52.2 34.98 51.91 42.96"/><polygon class="cls-30" points="53.1 40.81 51.91 42.96 52.2 34.98 53.34 34.27 53.1 40.81"/><path class="cls-31" d="M67.46.43,69.64,1.7c-1.15-.67-2.74-.58-4.5.44L63,.87C64.71-.15,66.31-.24,67.46.43Z"/><path class="cls-30" d="M65.64,3.14l-.5-1c3.49-2,6.34-.4,6.35,3.62l-.12.64C71.36,2.78,68.8,1.31,65.64,3.14Z"/><path class="cls-30" d="M53.34,34.27,52.2,35c-3.16,1.42-5.63-.24-5.64-4l1.12-.06C47.69,34.31,49.92,35.81,53.34,34.27Z"/><path class="cls-31" d="M48.41,35.06l-2.18-1.27c-1.14-.66-1.84-2.07-1.85-4.06L46.56,31C46.57,33,47.27,34.39,48.41,35.06Z"/><polygon class="cls-31" points="46.56 30.99 44.38 29.73 44.35 18.9 46.53 20.17 46.56 30.99"/><polygon class="cls-30" points="47.68 30.93 46.56 30.99 46.53 20.17 47.65 20.1 47.68 30.93"/><polygon class="cls-31" points="52.84 9.23 50.66 7.97 62.95 0.87 65.14 2.14 52.84 9.23"/><polygon class="cls-30" points="53.35 10.23 52.84 9.23 65.14 2.14 65.64 3.14 53.35 10.23"/><path class="cls-30" d="M44.58,16.79l.05-.24,0-.2a13.36,13.36,0,0,1,4-6.88h0l.34-.3A14.76,14.76,0,0,0,44.58,16.79Z"/><path class="cls-32" d="M65.64,3.14c3.16-1.83,5.72-.36,5.73,3.26l0,10.83a12.57,12.57,0,0,1-5.7,9.87l-7.88,4.55L53.1,40.81l.24-6.54c-3.42,1.54-5.65,0-5.66-3.34l0-10.83a12.58,12.58,0,0,1,5.7-9.87Z"/><path class="cls-30" d="M47.65,20.1l-1.12.07A13.94,13.94,0,0,1,52.84,9.23l.51,1A12.58,12.58,0,0,0,47.65,20.1Z"/><path class="cls-31" d="M46.53,20.17,44.35,18.9A13.9,13.9,0,0,1,50.66,8l2.18,1.26A13.94,13.94,0,0,0,46.53,20.17Z"/></g><g class="cls-1"><path class="cls-31" d="M58.28,26.26l-1.2-.69c-.1-.06-.14-.21-.14-.43l1.19.69C58.13,26.05,58.18,26.2,58.28,26.26Z"/><polygon class="cls-31" points="58.13 25.83 56.94 25.14 56.93 21.19 58.12 21.88 58.13 25.83"/><path class="cls-31" d="M53.59,29l-1.19-.7c-.1-.06-.15-.2-.15-.43l1.2.7C53.45,28.76,53.49,28.91,53.59,29Z"/><polygon class="cls-31" points="58.12 20.51 56.92 19.82 56.91 15.87 58.11 16.56 58.12 20.51"/><path class="cls-31" d="M58,14.75l1.19.7c-.1-.06-.24,0-.45.09l-1.2-.7C57.71,14.72,57.86,14.7,58,14.75Z"/><polygon class="cls-31" points="54.62 22.53 53.43 21.84 56.92 19.82 58.12 20.51 54.62 22.53"/><path class="cls-31" d="M58.11,16.56l-1.2-.69a1.11,1.11,0,0,1,.59-1l1.2.7A1.07,1.07,0,0,0,58.11,16.56Z"/><polygon class="cls-31" points="53.45 28.54 52.25 27.84 52.23 18.58 53.42 19.27 53.45 28.54"/><path class="cls-31" d="M53.27,17.46l1.19.69c-.09,0-.24,0-.45.09a1.09,1.09,0,0,0-.59,1l-1.19-.69a1.07,1.07,0,0,1,.59-1C53,17.43,53.17,17.4,53.27,17.46Z"/><path class="cls-33" d="M58.7,15.54c.43-.25.59-.1.6.34l0,9.26a1.09,1.09,0,0,1-.59,1c-.43.25-.6.1-.6-.34V21.88l-3.5,2,0,4a1.1,1.1,0,0,1-.6,1c-.43.24-.59.09-.59-.34l0-9.27a1.09,1.09,0,0,1,.59-1c.43-.24.6-.09.6.34v4l3.5-2v-4A1.07,1.07,0,0,1,58.7,15.54Z"/></g><g class="cls-1"><path class="cls-31" d="M65.85,19.58l1.19.69c-.15-.09-.4,0-.64.16l-1.2-.69C65.45,19.59,65.7,19.49,65.85,19.58Z"/><polygon class="cls-31" points="65.54 20.92 64.35 20.23 65.2 19.73 66.4 20.43 65.54 20.92"/><polygon class="cls-31" points="63.49 22.11 62.3 21.41 63.2 20.89 64.4 21.58 63.49 22.11"/><path class="cls-31" d="M62.85,23.57l-1.19-.69c-.09-.05-.14-.16-.14-.36a1.31,1.31,0,0,1,.78-1.11l1.19.7a1.28,1.28,0,0,0-.78,1.1A.39.39,0,0,0,62.85,23.57Z"/><polygon class="cls-31" points="64.4 21.58 63.2 20.89 63.19 16.15 64.39 16.84 64.4 21.58"/><path class="cls-31" d="M64.17,14.45l1.2.7c-.13-.08-.35,0-.69.21l-1.2-.7C63.83,14.46,64,14.38,64.17,14.45Z"/><polygon class="cls-31" points="63.48 16.05 62.28 15.36 63.48 14.66 64.68 15.36 63.48 16.05"/><path class="cls-31" d="M62.83,17.52l-1.19-.7c-.09-.05-.14-.16-.14-.35a1.31,1.31,0,0,1,.78-1.11l1.2.69a1.31,1.31,0,0,0-.79,1.11A.39.39,0,0,0,62.83,17.52Z"/><path class="cls-33" d="M66.4,20.43c.38-.22.78-.36.78.2a1.33,1.33,0,0,1-.78,1.11l-2.9,1.68c-.34.19-.79.37-.79-.21a1.28,1.28,0,0,1,.78-1.1l.91-.53,0-4.74-.9.52c-.33.19-.78.37-.79-.2a1.31,1.31,0,0,1,.79-1.11l1.2-.69c.65-.38.84-.35.85.43v5.13Z"/></g><g class="cls-1"><path class="cls-31" d="M64.19,11.14l1.19.69a.46.46,0,0,0-.4.08l-1.2-.69C64,11.12,64.09,11.08,64.19,11.14Z"/><path class="cls-31" d="M63.93,14.23l-1.2-.7c-.08,0-.13-.17-.13-.38l1.19.69C63.79,14.06,63.84,14.18,63.93,14.23Z"/><polygon class="cls-31" points="63.79 13.84 62.6 13.15 62.6 12.52 63.79 13.21 63.79 13.84"/><polygon class="cls-31" points="64.33 12.29 63.13 11.6 63.78 11.22 64.98 11.91 64.33 12.29"/><path class="cls-31" d="M63.79,13.21l-1.19-.69a1,1,0,0,1,.53-.92l1.19.69A1,1,0,0,0,63.79,13.21Z"/><path class="cls-33" d="M64.33,14.15c-.31.18-.54.16-.54-.31v-.63a1,1,0,0,1,.53-.92l.66-.38c.31-.18.53-.16.54.31v.63a1,1,0,0,1-.54.92Z"/></g></g></g></g></svg>