<svg xmlns="http://www.w3.org/2000/svg" xmlns:xlink="http://www.w3.org/1999/xlink" viewBox="0 0 77.09 70.11"><defs><style>.cls-1{isolation:isolate;}.cls-2{fill:#eef1f5;}.cls-3{fill:#cfd0e0;}.cls-4{fill:url(#linear-gradient);}.cls-5{fill:url(#linear-gradient-2);}.cls-6{fill:#c0baca;}.cls-7{fill:url(#linear-gradient-3);}.cls-8{fill:#ebebeb;mix-blend-mode:multiply;}.cls-9{fill:#d4d5e6;}.cls-10{fill:url(#linear-gradient-4);}.cls-11{fill:url(#linear-gradient-5);}.cls-12{fill:url(#linear-gradient-6);}.cls-13{fill:#003447;}.cls-14{fill:#0bf;}.cls-15{fill:url(#linear-gradient-7);}.cls-16{fill:url(#linear-gradient-8);}.cls-17{fill:url(#linear-gradient-9);}.cls-18{fill:#ffb947;}.cls-19{fill:#ffa719;}.cls-20{fill:#ff9000;}</style><linearGradient id="linear-gradient" x1="72.46" y1="34.48" x2="65.72" y2="24.87" gradientUnits="userSpaceOnUse"><stop offset="0.6" stop-color="#eae9f2"/><stop offset="0.83" stop-color="#d3d4e3"/></linearGradient><linearGradient id="linear-gradient-2" x1="34.17" y1="52.09" x2="65.4" y2="52.09" gradientUnits="userSpaceOnUse"><stop offset="0.37" stop-color="#caccde"/><stop offset="0.97" stop-color="#eae9f2"/></linearGradient><linearGradient id="linear-gradient-3" x1="44.16" y1="50.17" x2="56.02" y2="29.63" gradientUnits="userSpaceOnUse"><stop offset="0" stop-color="#caccde"/><stop offset="0.56" stop-color="#eae9f2"/></linearGradient><linearGradient id="linear-gradient-4" x1="47.38" y1="36.3" x2="71.53" y2="36.3" gradientUnits="userSpaceOnUse"><stop offset="0.24" stop-color="#a8a4b5"/><stop offset="1" stop-color="#dbd3e2"/></linearGradient><linearGradient id="linear-gradient-5" x1="35.11" y1="56.67" x2="60.1" y2="0.18" xlink:href="#linear-gradient-2"/><linearGradient id="linear-gradient-6" x1="43.64" y1="29.9" x2="56.55" y2="7.53" xlink:href="#linear-gradient-3"/><linearGradient id="linear-gradient-7" x1="35.73" y1="73.68" x2="29.29" y2="37.41" gradientUnits="userSpaceOnUse"><stop offset="0" stop-color="#caccde"/><stop offset="1" stop-color="#dfdeee"/></linearGradient><linearGradient id="linear-gradient-8" x1="33.95" y1="71.03" x2="31.64" y2="36.32" xlink:href="#linear-gradient-7"/><linearGradient id="linear-gradient-9" x1="41.31" y1="65.11" x2="27.74" y2="41.6" gradientUnits="userSpaceOnUse"><stop offset="0.68" stop-color="#d2d3e5"/><stop offset="0.81" stop-color="#eae9f2"/></linearGradient></defs><g class="cls-1"><g id="Layer_2" data-name="Layer 2"><g id="Layer_1-2" data-name="Layer 1"><ellipse class="cls-2" cx="49.88" cy="63.02" rx="6.41" ry="11.1" transform="translate(-13.41 112.55) rotate(-89.69)"/><path class="cls-3" d="M71,28.54a4.81,4.81,0,0,1,1.28,1.15c.73.89,1,1.81.63,2.11L70.11,34a21.13,21.13,0,0,1-4.43,2.76l-1.44.67a1.73,1.73,0,0,1-1.44-.31c-.39-.22-1.09-.93-1.21-.94-1.31-1.28-2.07-2.92-1.65-3.59l.14-.23a5.91,5.91,0,0,1,2.59-2.31,7,7,0,0,1,1.49-.49l5.89-1.3A1.4,1.4,0,0,1,71,28.54Z"/><path class="cls-3" d="M73.51,28.89a9.44,9.44,0,0,0-2.44-2.17,2.65,2.65,0,0,0-1.73-.46l-5.89,1.3a7.91,7.91,0,0,0-1.58.52,6.35,6.35,0,0,0-2.74,2.44l-.14.24c-.68,1.09.54,3.75,2.68,5.84a9.85,9.85,0,0,0,2,1.53,2.78,2.78,0,0,0,2.35.5L67.43,38a22,22,0,0,0,4.5-2.8l2.76-2.24C75.4,32.35,74.89,30.61,73.51,28.89ZM70.11,34a21.13,21.13,0,0,1-4.43,2.76l-1.44.67a1.73,1.73,0,0,1-1.44-.31c-.39-.22-1.09-.93-1.21-.94-1.31-1.28-2.07-2.92-1.65-3.59l.14-.23a5.91,5.91,0,0,1,2.59-2.31,7,7,0,0,1,1.49-.49l5.89-1.3a1.4,1.4,0,0,1,.91.24,4.81,4.81,0,0,1,1.28,1.15c.73.89,1,1.81.63,2.11Z"/><path class="cls-4" d="M75.59,27a9.44,9.44,0,0,0-2.44-2.17,2.65,2.65,0,0,0-1.73-.46l-5.89,1.3a7.91,7.91,0,0,0-1.58.52,6.31,6.31,0,0,0-1.55,1L60.32,29.1a6.5,6.5,0,0,1,1.55-1,7.91,7.91,0,0,1,1.58-.52l5.89-1.3a2.65,2.65,0,0,1,1.73.46,9.44,9.44,0,0,1,2.44,2.17c1.36,1.7,1.88,3.41,1.21,4L76.8,31C77.46,30.45,77,28.74,75.59,27Z"/><path class="cls-5" d="M65.4,40.69c0,1.86-1.57,22.8-15.52,22.8s-15.71-22-15.71-22.8Z"/><path class="cls-6" d="M54.16,37a9.71,9.71,0,0,1-8.83-.09c-2.41-1.44-2.35-3.73.12-5.12a9.73,9.73,0,0,1,8.84.09C56.69,33.3,56.63,35.59,54.16,37Z"/><path class="cls-7" d="M65.26,39.45c-.1-.36-.23-.85-.36-1.2A13.26,13.26,0,0,0,64.39,37a12.83,12.83,0,0,0-1.23-2,13.93,13.93,0,0,0-1.78-1.93,14.53,14.53,0,0,0-2.22-1.62c-.3-.19-.72-.41-1-.57s-.59-.28-.85-.4a17.24,17.24,0,0,0-1.85-.67,15.09,15.09,0,0,0-1.83-.45c-.69-.14-1.41-.23-1.82-.27s-.63-.06-.9-.07L50,29h-.91c-.57,0-1.26.09-1.82.15a17.77,17.77,0,0,0-1.84.32l-1,.25-.88.28c-.33.1-.76.27-1.08.4l-.85.39a9.06,9.06,0,0,0-1.11.59c-.47.29-1.09.69-1.53,1a14.06,14.06,0,0,0-1.36,1.2,11.06,11.06,0,0,0-1,1.14c-.15.21-.37.49-.51.71s-.49.79-.69,1.14a7.76,7.76,0,0,0-.53,1.13c-.18.48-.38,1.14-.52,1.63-.66,2.68.76,5.49,4.26,7.59,6,3.59,15.9,3.69,22.08.22C64.38,45.09,65.91,42.2,65.26,39.45ZM54.16,37a9.71,9.71,0,0,1-8.83-.09c-2.41-1.44-2.35-3.73.12-5.12a9.73,9.73,0,0,1,8.84.09C56.69,33.3,56.63,35.59,54.16,37Z"/><path class="cls-8" d="M53.4,63a12.27,12.27,0,0,1-3.52.49c-10.56,0-14.14-12.64-15.25-19.11,2.07-1.56,1.41-4.47,2.62-5.17l.82-.47A17.07,17.07,0,0,1,40.9,41c2.34,2.95,1.42,12.55,2.94,17.11C45.15,62,49,63.27,53.4,63Z"/><path class="cls-9" d="M57.77,39.58c-4.41,2.54-11.59,2.53-16,0s-4.46-6.71-.05-9.26,11.59-2.53,16,0S62.18,37,57.77,39.58Z"/><path class="cls-10" d="M39.72,36.1c.35.21.84.48,1.21.66a15.89,15.89,0,0,0,1.9.8c.29.11.68.24,1,.32.55.15,1.28.33,1.83.45.29.07.68.13,1,.17l1,.12,1,.07,1,0h1c.29,0,.69,0,1-.06.58,0,1.34-.15,1.9-.24.31,0,.72-.13,1-.2s.65-.15.92-.23.77-.23,1.1-.34.88-.32,1.25-.48,1.15-.54,1.63-.8.92-.56,1.31-.81.61-.44.86-.64.82-.71,1.16-1A12,12,0,0,1,60,35.75c-5.93,3.3-15.35,3.21-21-.22A11.43,11.43,0,0,1,36.92,34l.95.85c.14.12.33.26.48.37A15.71,15.71,0,0,0,39.72,36.1Z"/><path class="cls-11" d="M51.43,38.65c7.85,0,16-7.79,16-13.11a29,29,0,0,0-1.07-8.15c-1.67-5.62-32.92-2.84-33.55,1.17-.15,1-.18,1.67-.22,1.9C32.41,21.65,31.13,28.37,36,33S45.49,38.65,51.43,38.65Z"/><path class="cls-12" d="M66.61,18.22c-.1-.39-.25-.92-.38-1.3s-.38-.94-.56-1.34a13.91,13.91,0,0,0-1.34-2.2,14.35,14.35,0,0,0-1.94-2.1A15.79,15.79,0,0,0,60,9.51c-.33-.2-.79-.44-1.13-.62s-.64-.31-.92-.43a20.1,20.1,0,0,0-2-.74c-.09,0-.85-.26-2-.49-.75-.15-1.54-.25-2-.29s-.69-.06-1-.07l-1,0c-.3,0-.69,0-1,0-.61,0-1.37.09-2,.15,0,0-1,.12-2,.35l-1.08.28c-.29.08-.68.21-1,.3s-.83.3-1.18.44l-.93.42a11.62,11.62,0,0,0-1.2.65A18.7,18.7,0,0,0,38,10.56a16.71,16.71,0,0,0-1.49,1.3,14.46,14.46,0,0,0-1.1,1.25c-.17.23-.4.53-.56.77s-.53.86-.75,1.24a9.27,9.27,0,0,0-.57,1.24c-.2.52-.42,1.23-.58,1.77-.71,2.91.83,6,4.65,8.26,6.54,3.92,17.31,4,24,.25C65.65,24.37,67.33,21.23,66.61,18.22Z"/><path class="cls-13" d="M67.25,23.91a7.89,7.89,0,0,1-.19,2.4c-.62,2.07-2.28,4-5.1,5.55-4.79,2.67-11.49,3.47-17.42,2.43-1.85-.41-2.54-.57-3.44-8.47-.12-2.22.64-2.38,1.32-2.27,5.75,1.76,13,1.28,18-1.48,3.24-1.81,4.83-4.22,4.77-6.63v-.16a.66.66,0,0,1,.26.21A21.82,21.82,0,0,1,67.25,23.91Z"/><path class="cls-14" d="M52,31.09a1.73,1.73,0,0,1-1.25-.43,1.78,1.78,0,0,1-.47-1.31v-.66a2.1,2.1,0,0,1,1.9-2.14h.22a1.92,1.92,0,0,1,1.39.5,2.24,2.24,0,0,1,.68,1.54l0,.68a1.56,1.56,0,0,1-1.66,1.81h0l-.7,0Zm.5-3.5h0l-.22,0a1,1,0,0,0-.9,1.09v.65a.81.81,0,0,0,.15.55.93.93,0,0,0,.58.14l.69,0c.6-.05.69-.16.68-.73l0-.68a1.12,1.12,0,0,0-.35-.79A.83.83,0,0,0,52.53,27.59Z"/><path class="cls-14" d="M62.45,27.54a1.11,1.11,0,0,1-.52-.12,1.47,1.47,0,0,1-.75-1.17l-.12-.66A2.51,2.51,0,0,1,61.91,23l.15-.09a1.2,1.2,0,0,1,1.13-.09,1.92,1.92,0,0,1,1,1.41l.14.67a2,2,0,0,1-1,2.39h0l-.15.08A1.58,1.58,0,0,1,62.45,27.54Zm.26-3.79-.1,0-.15.09a1.62,1.62,0,0,0-.36,1.53l.12.65c.05.29.14.4.18.42a.41.41,0,0,0,.3-.07l.16-.08c.42-.21.56-.63.44-1.23l-.15-.67a1,1,0,0,0-.38-.66Z"/><path class="cls-15" d="M34.72,40.79a4.11,4.11,0,0,1,1.79,3.5v.64a40.12,40.12,0,0,1-.82,7.92c-.22,1.07-.48,2.11-.79,3.12L31.51,67.12a1.31,1.31,0,0,1-2,.9,2.9,2.9,0,0,1-1.23-2.75l.95-8.07q.7-5.87,1.87-11.5l.68-3.33c.27-1.29,1.18-2,2.24-1.84C34.11,40.69,34.51,40.66,34.72,40.79Z"/><path class="cls-16" d="M35.58,38.83a3.63,3.63,0,0,0-1.12-.42c-1.72-.33-3.2.89-3.63,3l-.69,3.33Q29,50.46,28.25,56.43l-1,8.07a5.52,5.52,0,0,0,2.33,5.22c1.57.9,3.2.17,3.77-1.7l3.38-11.16q.49-1.61.84-3.3a43.23,43.23,0,0,0,.87-8.39v-.63A6.68,6.68,0,0,0,35.58,38.83Zm.1,14c-.22,1.07-.48,2.11-.79,3.12L31.51,67.12a1.31,1.31,0,0,1-2,.9,2.9,2.9,0,0,1-1.23-2.75l.95-8.07q.7-5.87,1.87-11.5l.68-3.33c.27-1.29,1.18-2,2.24-1.84.07.16.47.13.68.26a4.11,4.11,0,0,1,1.79,3.5v.64A40.12,40.12,0,0,1,35.68,52.85Z"/><path class="cls-17" d="M37.65,38.27a3.34,3.34,0,0,0-1.11-.42,2.67,2.67,0,0,0-1.26,0l-2.08.56a2.81,2.81,0,0,1,1.26,0,3.63,3.63,0,0,1,1.12.42,6.68,6.68,0,0,1,2.9,5.71v.63a43.23,43.23,0,0,1-.87,8.39q-.34,1.69-.84,3.3L33.39,68a2.81,2.81,0,0,1-1.84,2l2.08-.57a2.76,2.76,0,0,0,1.83-2L38.85,56.3c.32-1.07.6-2.18.84-3.31a43.13,43.13,0,0,0,.86-8.38V44A6.68,6.68,0,0,0,37.65,38.27Z"/><path class="cls-14" d="M57,32.07l-.2-.72a18.63,18.63,0,0,0,3-1l.39.65A19.43,19.43,0,0,1,57,32.07Z"/><g class="cls-1"><path class="cls-18" d="M31.53,11.79l-.09.11a6.18,6.18,0,0,1-1.72,1.53l.29-.29A5.5,5.5,0,0,0,31.53,11.79Z"/><path class="cls-19" d="M32.65,9.82l0,.13a5.39,5.39,0,0,0,.42-2l.11-.4A6.24,6.24,0,0,1,32.65,9.82Z"/><polygon class="cls-19" points="28.13 14.23 28.23 14.29 28.14 19.26 28.06 18.29 28.13 14.23"/><polygon class="cls-18" points="30.01 13.14 29.72 13.43 28.23 14.29 28.13 14.23 30.01 13.14"/><polygon class="cls-19" points="33.01 3.56 33.12 3.16 33.13 7.52 33.02 7.92 33.01 3.56"/><polygon class="cls-20" points="28.14 19.26 26.88 18.52 23.72 15.43 24.99 16.16 28.14 19.26"/><polygon class="cls-19" points="28.06 18.29 28.14 19.26 24.99 16.16 25.48 15.76 28.06 18.29"/><path class="cls-20" d="M30.85.23,32.12,1a2.43,2.43,0,0,0-2.44.24L28.42.47A2.41,2.41,0,0,1,30.85.23Z"/><path class="cls-19" d="M30,1.83l-.3-.62c1.9-1.1,3.43-.22,3.44,2l-.11.4C33,1.64,31.65.87,30,1.83Z"/><polygon class="cls-19" points="25.48 15.76 24.99 16.16 4.71 27.87 5 27.58 25.48 15.76"/><path class="cls-20" d="M2.28,28.11,1,27.37a2.43,2.43,0,0,1-1-2.2l1.27.74A2.39,2.39,0,0,0,2.28,28.11Z"/><path class="cls-19" d="M5,27.58l-.29.29c-1.89,1.09-3.42.21-3.43-2L2,25.85C2,27.77,3.33,28.54,5,27.58Z"/><polygon class="cls-19" points="1.97 25.85 1.28 25.91 1.27 21.55 1.96 21.49 1.97 25.85"/><polygon class="cls-20" points="1.28 25.91 0.01 25.17 0 20.82 1.27 21.55 1.28 25.91"/><polygon class="cls-20" points="4.68 15.64 3.41 14.91 28.42 0.47 29.68 1.21 4.68 15.64"/><polygon class="cls-19" points="4.97 16.27 4.68 15.64 29.68 1.21 29.98 1.83 4.97 16.27"/><path class="cls-18" d="M.48,18.52h0v0h0v0h0A7.2,7.2,0,0,1,1.6,16.55h0v0h0l.05-.06A8,8,0,0,0,.48,18.52Z"/><path class="cls-18" d="M30,1.83c1.67-1,3-.19,3,1.73V7.92a6.62,6.62,0,0,1-3,5.22l-1.88,1.09-.07,4.06-2.58-2.53L5,27.58c-1.67,1-3,.19-3-1.73V21.49a6.62,6.62,0,0,1,3-5.22Z"/><path class="cls-19" d="M2,21.49l-.69.06a7.51,7.51,0,0,1,3.41-5.91l.29.63A6.62,6.62,0,0,0,2,21.49Z"/><path class="cls-20" d="M1.27,21.55,0,20.82a7.5,7.5,0,0,1,3.41-5.91l1.27.73A7.51,7.51,0,0,0,1.27,21.55Z"/></g></g></g></g></svg>