<svg xmlns="http://www.w3.org/2000/svg" xmlns:xlink="http://www.w3.org/1999/xlink" viewBox="0 0 75.02 119.08"><defs><style>.cls-1{mask:url(#mask);filter:url(#luminosity-noclip-12);}.cls-10,.cls-12,.cls-14,.cls-16,.cls-18,.cls-2,.cls-20,.cls-22,.cls-4,.cls-6,.cls-8{mix-blend-mode:multiply;}.cls-2{fill:url(#linear-gradient);}.cls-3{mask:url(#mask-2);filter:url(#luminosity-noclip-17);}.cls-4{fill:url(#linear-gradient-2);}.cls-21,.cls-5{mask:url(#mask-3);}.cls-5{filter:url(#luminosity-noclip-18);}.cls-6{fill:url(#linear-gradient-3);}.cls-7{mask:url(#mask-4);filter:url(#luminosity-noclip-19);}.cls-8{fill:url(#linear-gradient-4);}.cls-9{mask:url(#mask-5);filter:url(#luminosity-noclip-20);}.cls-10{fill:url(#linear-gradient-5);}.cls-11{mask:url(#mask-6);filter:url(#luminosity-noclip-21);}.cls-12{fill:url(#linear-gradient-6);}.cls-13{mask:url(#mask-7);filter:url(#luminosity-noclip-13);}.cls-14{fill:url(#linear-gradient-7);}.cls-15,.cls-19{mask:url(#mask-8);}.cls-15{filter:url(#luminosity-noclip-22);}.cls-16{fill:url(#linear-gradient-8);}.cls-17{mask:url(#mask-9);filter:url(#luminosity-noclip-14);}.cls-18{fill:url(#linear-gradient-9);}.cls-19{filter:url(#luminosity-noclip-15);}.cls-20{fill:url(#linear-gradient-10);}.cls-21{filter:url(#luminosity-noclip-16);}.cls-22{fill:url(#linear-gradient-11);}.cls-23{fill:none;}.cls-24{fill:#21b7ed;}.cls-25{fill:#e6e6fa;}.cls-26{fill:#a1a1bf;}.cls-27{fill:#c1c1e8;}.cls-28{fill:#b3b3c7;}.cls-29{fill:url(#linear-gradient-12);}.cls-30{fill:#0950e0;}.cls-31{fill:url(#linear-gradient-13);}.cls-32{fill:url(#linear-gradient-14);}.cls-33{fill:url(#linear-gradient-15);}.cls-34{fill:#cfd0e0;}.cls-35{fill:url(#linear-gradient-16);}.cls-36{fill:url(#linear-gradient-17);}.cls-37{fill:#c0baca;}.cls-38{fill:url(#linear-gradient-18);}.cls-39{fill:#d4d5e6;}.cls-40{fill:url(#linear-gradient-19);}.cls-41{fill:url(#linear-gradient-20);}.cls-42{fill:url(#linear-gradient-21);}.cls-43{fill:#003447;}.cls-44{fill:url(#linear-gradient-22);}.cls-45{fill:url(#linear-gradient-23);}.cls-46{fill:url(#linear-gradient-24);}.cls-47{isolation:isolate;}.cls-48{fill:#ff405d;}.cls-49{fill:#ff1f41;}.cls-50{fill:#ff5f76;}.cls-51{fill:#fff;}.cls-52{fill:url(#linear-gradient-25);}.cls-53{fill:#44cafa;}.cls-54{fill:url(#linear-gradient-26);}.cls-55{fill:url(#linear-gradient-27);}.cls-56{fill:url(#linear-gradient-28);}.cls-57{clip-path:url(#clip-path);}.cls-58{clip-path:url(#clip-path-2);}.cls-59{fill:#feffff;}.cls-60{clip-path:url(#clip-path-3);}.cls-61{clip-path:url(#clip-path-4);}.cls-62{clip-path:url(#clip-path-5);}.cls-63{clip-path:url(#clip-path-6);}.cls-64{mask:url(#mask-12);}.cls-65{fill:url(#linear-gradient-29);}.cls-66{mask:url(#mask-13);}.cls-67{fill:url(#linear-gradient-30);}.cls-68{mask:url(#mask-14);}.cls-69{fill:url(#linear-gradient-31);}.cls-70{mask:url(#mask-15);}.cls-71{fill:url(#linear-gradient-32);}.cls-72{mask:url(#mask-16);}.cls-73{fill:url(#linear-gradient-33);}.cls-74{mask:url(#mask-17);}.cls-75{fill:url(#linear-gradient-34);}.cls-76{mask:url(#mask-18);}.cls-77{fill:url(#linear-gradient-35);}.cls-78{mask:url(#mask-19);}.cls-79{fill:url(#linear-gradient-36);}.cls-80{mask:url(#mask-20);}.cls-81{fill:url(#linear-gradient-37);}.cls-82{mask:url(#mask-21);}.cls-83{fill:url(#linear-gradient-38);}.cls-84{mask:url(#mask-22);}.cls-85{fill:url(#linear-gradient-39);}.cls-86{fill:#0bf;}.cls-87{fill:#9b9bb8;}.cls-88{filter:url(#luminosity-noclip-9);}.cls-89{filter:url(#luminosity-noclip-8);}.cls-90{filter:url(#luminosity-noclip-7);}.cls-91{filter:url(#luminosity-noclip-6);}.cls-92{filter:url(#luminosity-noclip-5);}.cls-93{filter:url(#luminosity-noclip-4);}.cls-94{filter:url(#luminosity-noclip-3);}.cls-95{filter:url(#luminosity-noclip-2);}.cls-96{filter:url(#luminosity-noclip);}</style><filter id="luminosity-noclip" x="41.61" y="-8300.71" width="21.27" height="32766" filterUnits="userSpaceOnUse" color-interpolation-filters="sRGB"><feFlood flood-color="#fff" result="bg"/><feBlend in="SourceGraphic" in2="bg"/></filter><mask id="mask" x="41.61" y="-8300.71" width="21.27" height="32766" maskUnits="userSpaceOnUse"><g class="cls-96"/></mask><linearGradient id="linear-gradient" x1="58.72" y1="106.8" x2="45.96" y2="84.7" gradientUnits="userSpaceOnUse"><stop offset="0" stop-color="#fff"/><stop offset="0.09" stop-color="#d7d7d7"/><stop offset="0.23" stop-color="#9f9f9f"/><stop offset="0.36" stop-color="#6e6e6e"/><stop offset="0.5" stop-color="#474747"/><stop offset="0.63" stop-color="#282828"/><stop offset="0.76" stop-color="#121212"/><stop offset="0.89" stop-color="#040404"/><stop offset="1"/></linearGradient><filter id="luminosity-noclip-2" x="44.28" y="-8300.71" width="1.48" height="32766" filterUnits="userSpaceOnUse" color-interpolation-filters="sRGB"><feFlood flood-color="#fff" result="bg"/><feBlend in="SourceGraphic" in2="bg"/></filter><mask id="mask-2" x="44.28" y="-8300.71" width="1.48" height="32766" maskUnits="userSpaceOnUse"><g class="cls-95"/></mask><linearGradient id="linear-gradient-2" x1="45.02" y1="110.98" x2="45.02" y2="106.56" gradientUnits="userSpaceOnUse"><stop offset="0" stop-color="#cfcfcf"/><stop offset="0.17" stop-color="#c5c5c5"/><stop offset="0.47" stop-color="#a9a9a9"/><stop offset="0.86" stop-color="#7c7c7c"/><stop offset="1" stop-color="#696969"/></linearGradient><filter id="luminosity-noclip-3" x="5.79" y="-8300.71" width="1.48" height="32766" filterUnits="userSpaceOnUse" color-interpolation-filters="sRGB"><feFlood flood-color="#fff" result="bg"/><feBlend in="SourceGraphic" in2="bg"/></filter><mask id="mask-3" x="5.79" y="-8300.71" width="1.48" height="32766" maskUnits="userSpaceOnUse"><g class="cls-94"/></mask><linearGradient id="linear-gradient-3" x1="6.53" y1="85.14" x2="6.53" y2="80.72" xlink:href="#linear-gradient-2"/><filter id="luminosity-noclip-4" x="44.36" y="-8300.71" width="1.48" height="32766" filterUnits="userSpaceOnUse" color-interpolation-filters="sRGB"><feFlood flood-color="#fff" result="bg"/><feBlend in="SourceGraphic" in2="bg"/></filter><mask id="mask-4" x="44.36" y="-8300.71" width="1.48" height="32766" maskUnits="userSpaceOnUse"><g class="cls-93"/></mask><linearGradient id="linear-gradient-4" x1="45.1" y1="104.43" x2="45.1" y2="98.41" gradientUnits="userSpaceOnUse"><stop offset="0" stop-color="#5f5f5f"/><stop offset="1" stop-color="#393939"/></linearGradient><filter id="luminosity-noclip-5" x="16.61" y="-8300.71" width="1.48" height="32766" filterUnits="userSpaceOnUse" color-interpolation-filters="sRGB"><feFlood flood-color="#fff" result="bg"/><feBlend in="SourceGraphic" in2="bg"/></filter><mask id="mask-5" x="16.61" y="-8300.71" width="1.48" height="32766" maskUnits="userSpaceOnUse"><g class="cls-92"/></mask><linearGradient id="linear-gradient-5" x1="17.35" y1="95.51" x2="17.35" y2="89.49" xlink:href="#linear-gradient-4"/><filter id="luminosity-noclip-6" x="11.63" y="-8300.71" width="1.48" height="32766" filterUnits="userSpaceOnUse" color-interpolation-filters="sRGB"><feFlood flood-color="#fff" result="bg"/><feBlend in="SourceGraphic" in2="bg"/></filter><mask id="mask-6" x="11.63" y="-8300.71" width="1.48" height="32766" maskUnits="userSpaceOnUse"><g class="cls-91"/></mask><linearGradient id="linear-gradient-6" x1="12.37" y1="78.12" x2="12.37" y2="76.48" gradientUnits="userSpaceOnUse"><stop offset="0" stop-color="#cfcfcf"/><stop offset="0.15" stop-color="#c5c5c5"/><stop offset="0.4" stop-color="#a9a9a9"/><stop offset="0.73" stop-color="#7c7c7c"/><stop offset="1" stop-color="#525252"/></linearGradient><filter id="luminosity-noclip-7" x="1.04" y="-8300.71" width="39.05" height="32766" filterUnits="userSpaceOnUse" color-interpolation-filters="sRGB"><feFlood flood-color="#fff" result="bg"/><feBlend in="SourceGraphic" in2="bg"/></filter><mask id="mask-7" x="1.04" y="-8300.71" width="39.05" height="32766" maskUnits="userSpaceOnUse"><g class="cls-90"/></mask><linearGradient id="linear-gradient-7" x1="14.31" y1="101.32" x2="26.83" y2="79.64" xlink:href="#linear-gradient"/><filter id="luminosity-noclip-8" x="49.73" y="-8300.71" width="1.48" height="32766" filterUnits="userSpaceOnUse" color-interpolation-filters="sRGB"><feFlood flood-color="#fff" result="bg"/><feBlend in="SourceGraphic" in2="bg"/></filter><mask id="mask-8" x="49.73" y="-8300.71" width="1.48" height="32766" maskUnits="userSpaceOnUse"><g class="cls-89"/></mask><linearGradient id="linear-gradient-8" x1="50.47" y1="89.77" x2="50.47" y2="86.82" xlink:href="#linear-gradient-6"/><filter id="luminosity-noclip-9" x="40.09" y="-8300.71" width="1.51" height="32766" filterUnits="userSpaceOnUse" color-interpolation-filters="sRGB"><feFlood flood-color="#fff" result="bg"/><feBlend in="SourceGraphic" in2="bg"/></filter><mask id="mask-9" x="40.09" y="-8300.71" width="1.51" height="32766" maskUnits="userSpaceOnUse"><g class="cls-88"/></mask><linearGradient id="linear-gradient-9" x1="40.85" y1="116.39" x2="40.85" y2="87.55" xlink:href="#linear-gradient"/><linearGradient id="linear-gradient-10" x1="50.47" y1="97.85" x2="50.47" y2="91.36" xlink:href="#linear-gradient-2"/><linearGradient id="linear-gradient-11" x1="6.53" y1="93.48" x2="6.53" y2="86.99" xlink:href="#linear-gradient-2"/><linearGradient id="linear-gradient-12" x1="39.4" y1="118.05" x2="42.23" y2="118.05" gradientUnits="userSpaceOnUse"><stop offset="0.09" stop-color="#a1a1bf"/><stop offset="0.16" stop-color="#aeaeca"/><stop offset="0.35" stop-color="#cdcde4"/><stop offset="0.52" stop-color="#dfdff4"/><stop offset="0.63" stop-color="#e6e6fa"/><stop offset="0.97" stop-color="#b3b3c7"/></linearGradient><linearGradient id="linear-gradient-13" x1="1.28" y1="98.1" x2="62.65" y2="98.1" gradientUnits="userSpaceOnUse"><stop offset="0.13" stop-color="#1f55c2"/><stop offset="0.76" stop-color="#2462e0"/></linearGradient><linearGradient id="linear-gradient-14" x1="3.98" y1="105.32" x2="62.65" y2="105.32" gradientUnits="userSpaceOnUse"><stop offset="0.13" stop-color="#225dd5"/><stop offset="0.76" stop-color="#276af3"/></linearGradient><linearGradient id="linear-gradient-15" x1="58.75" y1="86.21" x2="58.8" y2="86.21" gradientUnits="userSpaceOnUse"><stop offset="0.26" stop-color="#a8a4b5"/><stop offset="0.85" stop-color="#dbd3e2"/></linearGradient><linearGradient id="linear-gradient-16" x1="57.51" y1="91.2" x2="42.65" y2="65.46" gradientUnits="userSpaceOnUse"><stop offset="0.03" stop-color="#ced0e1"/><stop offset="0.13" stop-color="#eae9f2"/></linearGradient><linearGradient id="linear-gradient-17" x1="18.6" y1="88.72" x2="46.31" y2="88.72" gradientUnits="userSpaceOnUse"><stop offset="0.37" stop-color="#caccde"/><stop offset="0.97" stop-color="#eae9f2"/></linearGradient><linearGradient id="linear-gradient-18" x1="27.47" y1="87.02" x2="37.99" y2="68.8" gradientUnits="userSpaceOnUse"><stop offset="0" stop-color="#caccde"/><stop offset="0.56" stop-color="#eae9f2"/></linearGradient><linearGradient id="linear-gradient-19" x1="30.33" y1="74.71" x2="51.75" y2="74.71" gradientUnits="userSpaceOnUse"><stop offset="0.24" stop-color="#a8a4b5"/><stop offset="1" stop-color="#dbd3e2"/></linearGradient><linearGradient id="linear-gradient-20" x1="19.44" y1="92.79" x2="41.61" y2="42.67" xlink:href="#linear-gradient-17"/><linearGradient id="linear-gradient-21" x1="27" y1="69.04" x2="38.46" y2="49.19" xlink:href="#linear-gradient-18"/><linearGradient id="linear-gradient-22" x1="22.32" y1="93.15" x2="30.12" y2="82.01" gradientUnits="userSpaceOnUse"><stop offset="0" stop-color="#caccde"/><stop offset="1" stop-color="#dfdeee"/></linearGradient><linearGradient id="linear-gradient-23" x1="22.55" y1="93.31" x2="30.35" y2="82.17" xlink:href="#linear-gradient-22"/><linearGradient id="linear-gradient-24" x1="32.1" y1="99.14" x2="25.02" y2="73.3" gradientUnits="userSpaceOnUse"><stop offset="0.08" stop-color="#d2d3e5"/><stop offset="0.2" stop-color="#eae9f2"/></linearGradient><linearGradient id="linear-gradient-25" x1="51.65" y1="27.46" x2="55.52" y2="27.46" gradientUnits="userSpaceOnUse"><stop offset="0" stop-color="#44cafa"/><stop offset="0.12" stop-color="#53bfee"/><stop offset="0.35" stop-color="#79a3cd"/><stop offset="0.67" stop-color="#b77599"/><stop offset="1" stop-color="#ff405d"/></linearGradient><linearGradient id="linear-gradient-26" x1="49.18" y1="29.27" x2="51.29" y2="25.62" gradientUnits="userSpaceOnUse"><stop offset="0" stop-color="#ff1f41"/><stop offset="0.08" stop-color="#e92e52"/><stop offset="0.42" stop-color="#946894"/><stop offset="0.69" stop-color="#5693c4"/><stop offset="0.9" stop-color="#30ade2"/><stop offset="1" stop-color="#21b7ed"/></linearGradient><linearGradient id="linear-gradient-27" x1="51.89" y1="32.06" x2="51.89" y2="23.91" gradientUnits="userSpaceOnUse"><stop offset="0" stop-color="#ff405d"/><stop offset="0.33" stop-color="#b77599"/><stop offset="0.65" stop-color="#79a3cd"/><stop offset="0.88" stop-color="#53bfee"/><stop offset="1" stop-color="#44cafa"/></linearGradient><linearGradient id="linear-gradient-28" x1="55.81" y1="31.89" x2="42.07" y2="8.11" gradientUnits="userSpaceOnUse"><stop offset="0" stop-color="#ff5f76"/><stop offset="0.05" stop-color="#e47791"/><stop offset="0.15" stop-color="#b3a0c0"/><stop offset="0.23" stop-color="#90bfe2"/><stop offset="0.3" stop-color="#7bd1f7"/><stop offset="0.35" stop-color="#73d8ff"/></linearGradient><clipPath id="clip-path"><path class="cls-23" d="M42.18,17.39l.57.33a1.15,1.15,0,0,0-1.17.11L41,17.5A1.18,1.18,0,0,1,42.18,17.39Z"/></clipPath><clipPath id="clip-path-2"><path class="cls-23" d="M40.42,21.73l-.57-.33a1.17,1.17,0,0,1-.48-1.06A3.63,3.63,0,0,1,41,17.5l.57.33a3.61,3.61,0,0,0-1.64,2.84A1.16,1.16,0,0,0,40.42,21.73Z"/></clipPath><clipPath id="clip-path-3"><path class="cls-24" d="M47.35,14.41l.56.33a1.15,1.15,0,0,0-1.17.11l-.56-.33A1.15,1.15,0,0,1,47.35,14.41Z"/></clipPath><clipPath id="clip-path-4"><path class="cls-23" d="M45.58,18.74,45,18.42a1.16,1.16,0,0,1-.48-1.06,3.63,3.63,0,0,1,1.64-2.84l.56.33a3.62,3.62,0,0,0-1.64,2.84A1.15,1.15,0,0,0,45.58,18.74Z"/></clipPath><clipPath id="clip-path-5"><path class="cls-23" d="M52.51,11.42l.57.33a1.16,1.16,0,0,0-1.17.12l-.57-.33A1.18,1.18,0,0,1,52.51,11.42Z"/></clipPath><clipPath id="clip-path-6"><path class="cls-23" d="M50.75,15.76l-.57-.33a1.17,1.17,0,0,1-.48-1,3.6,3.6,0,0,1,1.64-2.84l.57.33a3.6,3.6,0,0,0-1.64,2.84A1.14,1.14,0,0,0,50.75,15.76Z"/></clipPath><filter id="luminosity-noclip-12" x="41.61" y="74.93" width="21.27" height="41.27" filterUnits="userSpaceOnUse" color-interpolation-filters="sRGB"><feFlood flood-color="#fff" result="bg"/><feBlend in="SourceGraphic" in2="bg"/></filter><mask id="mask-12" x="41.61" y="74.93" width="21.27" height="41.27" maskUnits="userSpaceOnUse"><g class="cls-1"><path class="cls-2" d="M62.87,74.94a.53.53,0,0,1-.3.43l-21,12.18v28.66l21-12.18a.53.53,0,0,0,.3-.44h0V74.93Z"/></g></mask><linearGradient id="linear-gradient-29" x1="58.72" y1="106.8" x2="45.96" y2="84.7" gradientUnits="userSpaceOnUse"><stop offset="0" stop-color="#5cd8ff"/><stop offset="0.22" stop-color="#52d7ff"/><stop offset="0.63" stop-color="#44d6ff"/><stop offset="1" stop-color="#40d6ff"/></linearGradient><filter id="luminosity-noclip-13" x="1.04" y="64.75" width="39.05" height="51.46" filterUnits="userSpaceOnUse" color-interpolation-filters="sRGB"><feFlood flood-color="#fff" result="bg"/><feBlend in="SourceGraphic" in2="bg"/></filter><mask id="mask-13" x="1.04" y="64.75" width="39.05" height="51.46" maskUnits="userSpaceOnUse"><g class="cls-13"><path class="cls-14" d="M1.36,65.18A.55.55,0,0,1,1,64.75H1V93.4H1a.54.54,0,0,0,.32.44l38.73,22.37V87.55Z"/></g></mask><linearGradient id="linear-gradient-30" x1="14.31" y1="101.32" x2="26.83" y2="79.64" xlink:href="#linear-gradient-29"/><filter id="luminosity-noclip-14" x="40.09" y="87.55" width="1.51" height="28.84" filterUnits="userSpaceOnUse" color-interpolation-filters="sRGB"><feFlood flood-color="#fff" result="bg"/><feBlend in="SourceGraphic" in2="bg"/></filter><mask id="mask-14" x="40.09" y="87.55" width="1.51" height="28.84" maskUnits="userSpaceOnUse"><g class="cls-17"><path class="cls-18" d="M40.09,87.55v28.66a1.69,1.69,0,0,0,1.52,0V87.55A1.69,1.69,0,0,1,40.09,87.55Z"/></g></mask><linearGradient id="linear-gradient-31" x1="40.85" y1="116.39" x2="40.85" y2="87.55" xlink:href="#linear-gradient-29"/><filter id="luminosity-noclip-15" x="49.73" y="91.36" width="1.48" height="6.48" filterUnits="userSpaceOnUse" color-interpolation-filters="sRGB"><feFlood flood-color="#fff" result="bg"/><feBlend in="SourceGraphic" in2="bg"/></filter><mask id="mask-15" x="49.73" y="91.36" width="1.48" height="6.48" maskUnits="userSpaceOnUse"><g class="cls-19"><path class="cls-20" d="M50.47,97.85h0a.74.74,0,0,1-.74-.74v-5a.74.74,0,0,1,.74-.74h0a.74.74,0,0,1,.74.74v5A.74.74,0,0,1,50.47,97.85Z"/></g></mask><linearGradient id="linear-gradient-32" x1="50.47" y1="97.85" x2="50.47" y2="91.36" gradientUnits="userSpaceOnUse"><stop offset="0" stop-color="#57d8ff"/><stop offset="0.96" stop-color="#4dd7ff"/><stop offset="1" stop-color="#4cd7ff"/></linearGradient><filter id="luminosity-noclip-16" x="5.79" y="86.99" width="1.48" height="6.48" filterUnits="userSpaceOnUse" color-interpolation-filters="sRGB"><feFlood flood-color="#fff" result="bg"/><feBlend in="SourceGraphic" in2="bg"/></filter><mask id="mask-16" x="5.79" y="86.99" width="1.48" height="6.48" maskUnits="userSpaceOnUse"><g class="cls-21"><path class="cls-22" d="M6.53,93.48h0a.74.74,0,0,1-.74-.74v-5A.74.74,0,0,1,6.53,87h0a.74.74,0,0,1,.73.74v5A.74.74,0,0,1,6.53,93.48Z"/></g></mask><linearGradient id="linear-gradient-33" x1="6.53" y1="93.48" x2="6.53" y2="86.99" xlink:href="#linear-gradient-32"/><filter id="luminosity-noclip-17" x="44.28" y="106.56" width="1.48" height="4.42" filterUnits="userSpaceOnUse" color-interpolation-filters="sRGB"><feFlood flood-color="#fff" result="bg"/><feBlend in="SourceGraphic" in2="bg"/></filter><mask id="mask-17" x="44.28" y="106.56" width="1.48" height="4.42" maskUnits="userSpaceOnUse"><g class="cls-3"><path class="cls-4" d="M45,111h0a.74.74,0,0,1-.74-.73v-3a.75.75,0,0,1,.74-.74h0a.74.74,0,0,1,.74.74v3A.74.74,0,0,1,45,111Z"/></g></mask><linearGradient id="linear-gradient-34" x1="45.02" y1="110.98" x2="45.02" y2="106.56" xlink:href="#linear-gradient-32"/><filter id="luminosity-noclip-18" x="5.79" y="80.72" width="1.48" height="4.42" filterUnits="userSpaceOnUse" color-interpolation-filters="sRGB"><feFlood flood-color="#fff" result="bg"/><feBlend in="SourceGraphic" in2="bg"/></filter><mask id="mask-18" x="5.79" y="80.72" width="1.48" height="4.42" maskUnits="userSpaceOnUse"><g class="cls-5"><path class="cls-6" d="M6.53,85.14h0a.74.74,0,0,1-.74-.74V81.46a.74.74,0,0,1,.74-.74h0a.74.74,0,0,1,.73.74V84.4A.74.74,0,0,1,6.53,85.14Z"/></g></mask><linearGradient id="linear-gradient-35" x1="6.53" y1="85.14" x2="6.53" y2="80.72" xlink:href="#linear-gradient-32"/><filter id="luminosity-noclip-19" x="44.36" y="98.41" width="1.48" height="6.02" filterUnits="userSpaceOnUse" color-interpolation-filters="sRGB"><feFlood flood-color="#fff" result="bg"/><feBlend in="SourceGraphic" in2="bg"/></filter><mask id="mask-19" x="44.36" y="98.41" width="1.48" height="6.02" maskUnits="userSpaceOnUse"><g class="cls-7"><path class="cls-8" d="M45.1,104.43h0a.74.74,0,0,1-.74-.74V99.15a.74.74,0,0,1,.74-.74h0a.74.74,0,0,1,.74.74v4.54A.74.74,0,0,1,45.1,104.43Z"/></g></mask><linearGradient id="linear-gradient-36" x1="45.1" y1="104.43" x2="45.1" y2="98.41" gradientUnits="userSpaceOnUse"><stop offset="0" stop-color="#4bd8ff"/><stop offset="1" stop-color="#46d7ff"/></linearGradient><filter id="luminosity-noclip-20" x="16.61" y="89.49" width="1.48" height="6.02" filterUnits="userSpaceOnUse" color-interpolation-filters="sRGB"><feFlood flood-color="#fff" result="bg"/><feBlend in="SourceGraphic" in2="bg"/></filter><mask id="mask-20" x="16.61" y="89.49" width="1.48" height="6.02" maskUnits="userSpaceOnUse"><g class="cls-9"><path class="cls-10" d="M17.35,95.51h0a.74.74,0,0,1-.74-.73V90.23a.74.74,0,0,1,.74-.74h0a.74.74,0,0,1,.73.74v4.55A.73.73,0,0,1,17.35,95.51Z"/></g></mask><linearGradient id="linear-gradient-37" x1="17.35" y1="95.51" x2="17.35" y2="89.49" xlink:href="#linear-gradient-36"/><filter id="luminosity-noclip-21" x="11.63" y="76.48" width="1.48" height="1.64" filterUnits="userSpaceOnUse" color-interpolation-filters="sRGB"><feFlood flood-color="#fff" result="bg"/><feBlend in="SourceGraphic" in2="bg"/></filter><mask id="mask-21" x="11.63" y="76.48" width="1.48" height="1.64" maskUnits="userSpaceOnUse"><g class="cls-11"><path class="cls-12" d="M12.37,78.12h0a.74.74,0,0,1-.74-.74v-.16a.74.74,0,0,1,.74-.74h0a.74.74,0,0,1,.73.74v.16A.74.74,0,0,1,12.37,78.12Z"/></g></mask><linearGradient id="linear-gradient-38" x1="12.37" y1="78.12" x2="12.37" y2="76.48" gradientUnits="userSpaceOnUse"><stop offset="0" stop-color="#57d8ff"/><stop offset="0.79" stop-color="#4dd7ff"/><stop offset="1" stop-color="#49d7ff"/></linearGradient><filter id="luminosity-noclip-22" x="49.73" y="86.82" width="1.48" height="2.95" filterUnits="userSpaceOnUse" color-interpolation-filters="sRGB"><feFlood flood-color="#fff" result="bg"/><feBlend in="SourceGraphic" in2="bg"/></filter><mask id="mask-22" x="49.73" y="86.82" width="1.48" height="2.95" maskUnits="userSpaceOnUse"><g class="cls-15"><path class="cls-16" d="M50.47,89.77h0a.74.74,0,0,1-.74-.74V87.56a.74.74,0,0,1,.74-.74h0a.74.74,0,0,1,.74.74V89A.74.74,0,0,1,50.47,89.77Z"/></g></mask><linearGradient id="linear-gradient-39" x1="50.47" y1="89.77" x2="50.47" y2="86.82" xlink:href="#linear-gradient-38"/></defs><g id="Layer_2" data-name="Layer 2"><g id="Layer_1-2" data-name="Layer 1"><path class="cls-25" d="M63.17,102.81,24.36,80.39a2.75,2.75,0,0,0-2.5,0L.75,92.67a.76.76,0,0,0,0,1.44l38.81,22.42a2.73,2.73,0,0,0,2.49,0l21.12-12.27A.77.77,0,0,0,63.17,102.81Z"/><path class="cls-26" d="M0,95.5V93.78a1,1,0,0,0,.59.82v1.72A1,1,0,0,1,0,95.5Z"/><path class="cls-27" d="M.12,93.38.34,93c-.22.36-.09.78.42,1.07l-.17.49C0,94.28-.13,93.8.12,93.38Z"/><path class="cls-28" d="M63.92,103.93v1.72a1,1,0,0,1-.58.82v-1.72A1,1,0,0,0,63.92,103.93Z"/><path class="cls-27" d="M63.58,103.19l.22.35c.25.41.1.88-.46,1.21l-.16-.49C63.67,104,63.81,103.55,63.58,103.19Z"/><polygon class="cls-28" points="63.34 104.75 63.34 106.47 42.22 118.74 42.23 117.02 63.34 104.75"/><polygon class="cls-26" points="39.4 117.02 39.4 118.74 0.59 96.32 0.59 94.6 39.4 117.02"/><polygon class="cls-27" points="63.18 104.26 63.34 104.75 42.23 117.02 42.06 116.53 63.18 104.26"/><polygon class="cls-27" points="39.57 116.53 39.4 117.02 0.59 94.6 0.76 94.11 39.57 116.53"/><path class="cls-29" d="M42.23,117v1.72a3.11,3.11,0,0,1-2.82,0V117A3.14,3.14,0,0,0,42.23,117Z"/><path class="cls-27" d="M42.06,116.53l.17.49a3.14,3.14,0,0,1-2.83,0l.17-.49A2.73,2.73,0,0,0,42.06,116.53Z"/><path class="cls-30" d="M62.81,103.38,62.6,103c.1.18,0,.37-.2.51l-21,12.19a1.36,1.36,0,0,1-1.18,0L1.52,93.35c-.23-.14-.3-.34-.19-.51l-.22.35c-.14.22-.05.48.25.65L40.1,116.22a1.67,1.67,0,0,0,1.51,0l21-12.19C62.87,103.86,63,103.6,62.81,103.38Z"/><path class="cls-31" d="M62.4,102.85a.36.36,0,0,1,0,.69l-21,12.19a1.36,1.36,0,0,1-1.18,0L1.52,93.35a.36.36,0,0,1,0-.68L3.86,91.3a2.28,2.28,0,0,1,.87-.25L7,90.84a2.77,2.77,0,0,0,1.13-.33l10.69-6.22a1.1,1.1,0,0,0,.57-.65l.35-1.29a.85.85,0,0,1,.44-.51l2.34-1.36a1.29,1.29,0,0,1,1.18,0Z"/><path class="cls-32" d="M40.26,115.73a1.36,1.36,0,0,0,1.18,0l21-12.19a.36.36,0,0,0,0-.69l-5.59-3.23L4,94.77Z"/><path class="cls-30" d="M40.26,103.36c-4.28,2.47-11.25,2.46-15.56,0s-4.33-6.51,0-9,11.24-2.46,15.55,0S44.54,100.88,40.26,103.36Z"/><path class="cls-33" d="M58.75,86.25a.73.73,0,0,0,0-.09h0Z"/><path class="cls-34" d="M40.35,70.57c.19.11.53.45.6.42l.43.34a69,69,0,0,1,5.41,4.85c.75.74,1.49,1.5,2.2,2.28L56.92,87c.7.75,1.08,1.64.87,2s-.56.25-1.06,0c-.2-.11-.62-.56-.62-.46l-5.54-5q-4-3.66-8-7.57l-2.33-2.31a4.78,4.78,0,0,1-1.53-2.73C38.75,70.16,39.43,70,40.35,70.57Z"/><path class="cls-35" d="M59.69,84.46l-7.93-8.57c-.76-.83-1.54-1.63-2.33-2.42a71.36,71.36,0,0,0-5.74-5.13L43.27,68a7.28,7.28,0,0,0-1-.68c-1-.59-1.86-.69-2.29-.31l-1.84,1.64c.43-.38,1.27-.28,2.28.31a8.34,8.34,0,0,1,1,.68l.43.34a75.18,75.18,0,0,1,5.74,5.13c.79.79,1.57,1.6,2.33,2.42l7.93,8.58c1.33,1.44,2,3.1,1.64,3.85a.9.9,0,0,1-.15.19l1.85-1.65a.86.86,0,0,0,.14-.18C61.73,87.57,61,85.91,59.69,84.46Z"/><path class="cls-34" d="M57.85,86.11l-7.93-8.58c-.76-.82-1.54-1.63-2.33-2.42A75.18,75.18,0,0,0,41.85,70l-.43-.34a8.34,8.34,0,0,0-1-.68c-1.49-.86-2.61-.68-2.59.57s1,3,2.48,4.43l2.33,2.31q4,4,8.09,7.7l5.54,5a7.1,7.1,0,0,0,1.19.88c.94.54,1.72.6,2,.07C59.89,89.21,59.18,87.55,57.85,86.11Zm-.06,3c-.15.28-.56.25-1.06,0-.2-.11-.62-.56-.62-.46l-5.54-5q-4-3.66-8-7.57l-2.33-2.31a4.78,4.78,0,0,1-1.53-2.73c0-.76.68-.88,1.6-.35.19.11.53.45.6.42l.43.34a69,69,0,0,1,5.41,4.85c.75.74,1.49,1.5,2.2,2.28L56.92,87C57.62,87.79,58,88.68,57.79,89.07Z"/><path class="cls-36" d="M46.31,78.61c0,1.65-1.4,20.23-13.77,20.23S18.6,79.28,18.6,78.61Z"/><path class="cls-37" d="M36.34,75.32a8.66,8.66,0,0,1-7.84-.08c-2.13-1.28-2.08-3.31.11-4.54a8.63,8.63,0,0,1,7.84.08C38.58,72.05,38.53,74.08,36.34,75.32Z"/><path class="cls-38" d="M46.18,77.51c-.08-.32-.2-.75-.31-1.06s-.3-.77-.45-1.09a10.62,10.62,0,0,0-1.1-1.79,11.53,11.53,0,0,0-1.57-1.72,13.49,13.49,0,0,0-2-1.44c-.27-.16-.65-.36-.93-.51s-.52-.25-.75-.34a14.88,14.88,0,0,0-1.64-.6,14.64,14.64,0,0,0-1.63-.41,16.18,16.18,0,0,0-1.61-.23c-.24,0-.56-.06-.8-.06l-.8,0h-.8c-.51,0-1.12.07-1.62.13a16.1,16.1,0,0,0-1.63.28c-.27.06-.62.15-.88.23s-.55.17-.79.24-.67.25-.95.36l-.76.35a10.26,10.26,0,0,0-1,.52c-.42.26-1,.61-1.36.91a13.61,13.61,0,0,0-1.21,1.07,12.46,12.46,0,0,0-.9,1c-.13.19-.33.43-.45.63s-.44.7-.61,1a7.14,7.14,0,0,0-.47,1,14.24,14.24,0,0,0-.47,1.44c-.58,2.37.68,4.88,3.78,6.73,5.34,3.19,14.11,3.28,19.6.2C45.4,82.52,46.77,80,46.18,77.51Zm-9.84-2.19a8.66,8.66,0,0,1-7.84-.08c-2.13-1.28-2.08-3.31.11-4.54a8.63,8.63,0,0,1,7.84.08C38.58,72.05,38.53,74.08,36.34,75.32Z"/><path class="cls-39" d="M39.54,77.62a15.73,15.73,0,0,1-14.22,0c-3.94-2.28-4-5.95-.05-8.21a15.72,15.72,0,0,1,14.23,0C43.43,71.69,43.45,75.36,39.54,77.62Z"/><path class="cls-40" d="M23.53,74.54a11.06,11.06,0,0,0,1.07.58,17.68,17.68,0,0,0,1.68.72c.26.09.61.21.88.28.48.13,1.13.29,1.62.4l.87.15.84.1.85.06c.26,0,.6,0,.85,0H33a8.49,8.49,0,0,0,.88,0c.51,0,1.18-.13,1.68-.21.28,0,.64-.12.91-.18l.82-.21,1-.29c.35-.11.79-.29,1.12-.43s1-.48,1.44-.71.82-.5,1.17-.72.54-.39.76-.57.73-.63,1-.91a10.48,10.48,0,0,1-2.26,1.65c-5.26,2.94-13.61,2.85-18.66-.19A9.85,9.85,0,0,1,21,72.63l.85.75a4.35,4.35,0,0,0,.42.33A14.54,14.54,0,0,0,23.53,74.54Z"/><path class="cls-41" d="M33.92,76.8c7,0,14.21-6.91,14.21-11.63a25.53,25.53,0,0,0-1-7.23C45.69,53,18,55.42,17.42,59c-.14.87-.17,1.48-.2,1.69-.18,1.06-1.31,7,3,11.14S28.64,76.8,33.92,76.8Z"/><path class="cls-42" d="M47.38,58.68c-.09-.35-.22-.82-.34-1.16s-.33-.84-.49-1.18a12.35,12.35,0,0,0-1.19-2,12.62,12.62,0,0,0-1.72-1.86A13.87,13.87,0,0,0,41.5,51c-.3-.18-.7-.4-1-.55a8.67,8.67,0,0,0-.82-.38,17.88,17.88,0,0,0-1.79-.66c-.07,0-.76-.23-1.77-.43a17.37,17.37,0,0,0-1.75-.26c-.26,0-.61-.06-.87-.07l-.88,0h-.87c-.55,0-1.22.08-1.76.14,0,0-.87.11-1.78.31l-1,.25-.85.26c-.32.11-.73.27-1,.4s-.58.26-.83.37a11,11,0,0,0-1.07.57c-.45.28-1.05.67-1.47,1A14.5,14.5,0,0,0,20.66,53a11.44,11.44,0,0,0-1,1.11c-.15.2-.36.47-.5.68s-.47.77-.67,1.1A11,11,0,0,0,18,57c-.17.46-.37,1.1-.5,1.57-.64,2.59.73,5.31,4.12,7.34C27.43,69.4,37,69.5,43,66.14,46.54,64.13,48,61.34,47.38,58.68Z"/><path class="cls-43" d="M48,63.73a7.19,7.19,0,0,1-.16,2.12c-.56,1.84-2,3.53-4.53,4.92C39,73.14,33.06,73.86,27.8,72.93c-1.64-.37-2.25-.5-3.05-7.51-.11-2,.57-2.12,1.17-2C31,65,37.5,64.54,41.9,62.09c2.86-1.6,4.28-3.75,4.22-5.88v-.14a.5.5,0,0,1,.23.18A19.41,19.41,0,0,1,48,63.73Z"/><path class="cls-44" d="M20.73,80.13A25.76,25.76,0,0,1,25,83.24c.7.61,1.38,1.27,2,2l7.25,7.72a2.65,2.65,0,0,1,.54,2.65,1.13,1.13,0,0,1-1.69.63s-.13-.14-.15-.1l-5.28-3.82a95.56,95.56,0,0,1-7.53-6L18,84.34a3.89,3.89,0,0,1-1.16-3.26c.21-1.52,1.37-2.28,2.54-1.66l.42.21C20.11,79.8,20.43,80,20.73,80.13Z"/><path class="cls-45" d="M35.44,91.5l-7.25-7.72q-1.05-1.11-2.16-2.1a27.78,27.78,0,0,0-4.54-3.29c-.32-.18-.63-.36-.95-.52l-.42-.22c-1.92-1-3.8.24-4.14,2.72a6.27,6.27,0,0,0,1.88,5.29L20,87.59q3.74,3.3,7.65,6.13L33,97.54l.27.17a2.15,2.15,0,0,0,3.23-1.19A5,5,0,0,0,35.44,91.5Zm-.59,4.08a1.13,1.13,0,0,1-1.69.63s-.13-.14-.15-.1l-5.28-3.82a95.56,95.56,0,0,1-7.53-6L18,84.34a3.9,3.9,0,0,1-1.16-3.26c.21-1.52,1.37-2.28,2.54-1.66l.42.21c.28.17.6.33.9.5A25.76,25.76,0,0,1,25,83.24c.7.61,1.38,1.27,2,2l7.25,7.72A2.65,2.65,0,0,1,34.85,95.58Z"/><path class="cls-46" d="M37.29,91,30,83.28c-.7-.74-1.42-1.44-2.15-2.1a28.28,28.28,0,0,0-4.55-3.29c-.31-.18-.63-.36-.95-.52L22,77.15a2.62,2.62,0,0,0-2-.26l-1.84.49a2.67,2.67,0,0,1,2,.27l.42.22c.32.16.63.34.95.52A27.78,27.78,0,0,1,26,81.68q1.11,1,2.16,2.1l7.25,7.72a5,5,0,0,1,1,5A2.39,2.39,0,0,1,35,98l1.84-.5A2.37,2.37,0,0,0,38.31,96,5,5,0,0,0,37.29,91Z"/><g class="cls-47"><path class="cls-48" d="M70.54,46.86l-.35.31a10.43,10.43,0,0,1-1.72,1.25L69,48A10,10,0,0,0,70.54,46.86Z"/><path class="cls-48" d="M74.79,39.26l-.1.45a8.92,8.92,0,0,0,.21-2l.12-.67A10.46,10.46,0,0,1,74.79,39.26Z"/><polygon class="cls-48" points="68.99 47.99 68.47 48.42 60.82 52.84 61.05 52.58 68.99 47.99"/><polygon class="cls-48" points="74.87 26.5 74.99 25.83 75.02 37.07 74.9 37.74 74.87 26.5"/><polygon class="cls-49" points="54.89 64.33 52.63 63.01 52.93 54.72 55.2 56.04 54.89 64.33"/><polygon class="cls-48" points="56.13 62.09 54.89 64.33 55.2 56.04 56.38 55.3 56.13 62.09"/><path class="cls-49" d="M70.81,20.3l2.26,1.31c-1.19-.69-2.85-.59-4.67.46l-2.27-1.31C68,19.7,69.61,19.6,70.81,20.3Z"/><path class="cls-48" d="M68.92,23.11l-.52-1C72,20,75,21.66,75,25.83l-.12.67C74.86,22.74,72.19,21.22,68.92,23.11Z"/><path class="cls-48" d="M56.38,55.3,55.2,56c-3.29,1.47-5.85-.26-5.86-4.14l1.16-.07C50.51,55.34,52.82,56.9,56.38,55.3Z"/><path class="cls-49" d="M51.26,56.12,49,54.8c-1.18-.69-1.91-2.14-1.91-4.22l2.26,1.32C49.35,54,50.08,55.43,51.26,56.12Z"/><polygon class="cls-49" points="49.34 51.9 47.08 50.58 47.04 39.34 49.31 40.66 49.34 51.9"/><polygon class="cls-48" points="50.5 51.83 49.34 51.9 49.31 40.66 50.47 40.59 50.5 51.83"/><polygon class="cls-49" points="55.86 29.31 53.6 27.99 66.13 20.76 68.39 22.07 55.86 29.31"/><polygon class="cls-48" points="56.38 30.35 55.86 29.31 68.39 22.07 68.92 23.11 56.38 30.35"/><path class="cls-48" d="M47.28,37.16l0-.25.05-.21a13.84,13.84,0,0,1,4.15-7.15h0l.35-.31A15.35,15.35,0,0,0,47.28,37.16Z"/><path class="cls-50" d="M68.92,23.11c3.27-1.89,5.94-.37,6,3.39l0,11.24A13.05,13.05,0,0,1,69,48L61,52.58l-4.91,9.51.25-6.79c-3.56,1.6-5.87,0-5.88-3.47l0-11.24a13,13,0,0,1,5.92-10.24Z"/><path class="cls-48" d="M50.47,40.59l-1.16.07a14.44,14.44,0,0,1,6.55-11.35l.53,1A13,13,0,0,0,50.47,40.59Z"/><path class="cls-49" d="M49.31,40.66,47,39.34A14.47,14.47,0,0,1,53.6,28l2.26,1.32A14.44,14.44,0,0,0,49.31,40.66Z"/></g><g class="cls-47"><path class="cls-49" d="M67,39.79l1,.59a.69.69,0,0,0-.72.07l-1-.59A.69.69,0,0,1,67,39.79Z"/><path class="cls-49" d="M55.37,50.86l-1-.59a.74.74,0,0,1-.3-.66l1,.59A.7.7,0,0,0,55.37,50.86Z"/><polygon class="cls-49" points="55.07 50.2 54.05 49.61 54.05 48.12 55.07 48.71 55.07 50.2"/><polygon class="cls-49" points="56.08 46.94 55.07 46.35 66.32 39.86 67.34 40.45 56.08 46.94"/><path class="cls-49" d="M55.07,48.71l-1-.59a2.25,2.25,0,0,1,1-1.77l1,.59A2.24,2.24,0,0,0,55.07,48.71Z"/><path class="cls-51" d="M67.34,40.45c.56-.33,1-.07,1,.58v1.5a2.21,2.21,0,0,1-1,1.76l-11.26,6.5c-.56.32-1,.06-1-.59V48.71a2.24,2.24,0,0,1,1-1.77Z"/></g><g class="cls-47"><path class="cls-49" d="M70,30.46l1,.59a.71.71,0,0,0-.72.07l-1-.59A.71.71,0,0,1,70,30.46Z"/><path class="cls-49" d="M55.35,43.25l-1-.59A.71.71,0,0,1,54,42l1,.59A.69.69,0,0,0,55.35,43.25Z"/><polygon class="cls-49" points="55.05 42.6 54.03 42.01 54.03 40.51 55.04 41.1 55.05 42.6"/><polygon class="cls-49" points="56.06 39.34 55.05 38.75 69.28 30.53 70.3 31.12 56.06 39.34"/><path class="cls-49" d="M55,41.1l-1-.59a2.23,2.23,0,0,1,1-1.76l1,.59A2.24,2.24,0,0,0,55,41.1Z"/><path class="cls-51" d="M70.3,31.12c.56-.33,1-.06,1,.58v1.5a2.24,2.24,0,0,1-1,1.76L56.07,43.18c-.56.33-1,.07-1-.58V41.1a2.24,2.24,0,0,1,1-1.76Z"/></g><g class="cls-47"><polygon class="cls-52" points="51.65 22.89 51.77 22.86 55.52 32.06 53.99 31.02 51.65 22.89"/><path class="cls-53" d="M54.13,20.5l0,0a10.51,10.51,0,0,1-2.4,2.4l-.12,0A11.49,11.49,0,0,0,54.13,20.5Z"/><path class="cls-53" d="M56.3,15.86l0,.18,0,.14a7.08,7.08,0,0,0,.19-1.62L56.5,14A8.51,8.51,0,0,1,56.3,15.86Z"/><polygon class="cls-54" points="53.14 31.56 51.3 30.48 47.33 23.33 49.17 24.4 53.14 31.56"/><polygon class="cls-55" points="54.6 32.06 53.14 31.56 49.17 24.4 49.84 23.91 54.6 32.06"/><polygon class="cls-53" points="56.38 5.41 56.48 4.86 56.5 14.01 56.41 14.56 56.38 5.41"/><polygon class="cls-53" points="49.84 23.91 49.17 24.4 40.97 29.14 41.4 28.78 49.84 23.91"/><path class="cls-24" d="M53.07.36l1.85,1.07a3.79,3.79,0,0,0-3.81.38L49.27.73A3.79,3.79,0,0,1,53.07.36Z"/><path class="cls-53" d="M51.54,2.65l-.43-.84c3-1.71,5.36-.34,5.37,3.05l-.1.55C56.37,2.35,54.2,1.11,51.54,2.65Z"/><path class="cls-53" d="M41.4,28.78l-.43.36c-2.95,1.7-5.35.33-5.36-3.06l.94-.06C36.56,29.09,38.73,30.32,41.4,28.78Z"/><path class="cls-24" d="M37.17,29.51l-1.85-1.07A3.77,3.77,0,0,1,33.76,25l1.85,1.08A3.74,3.74,0,0,0,37.17,29.51Z"/><polygon class="cls-53" points="36.55 26.02 35.61 26.08 35.58 16.93 36.52 16.87 36.55 26.02"/><polygon class="cls-24" points="35.61 26.08 33.76 25 33.74 15.86 35.58 16.93 35.61 26.08"/><polygon class="cls-24" points="40.91 7.69 39.07 6.62 49.27 0.73 51.11 1.81 40.91 7.69"/><polygon class="cls-53" points="41.34 8.54 40.91 7.69 51.11 1.81 51.54 2.65 41.34 8.54"/><path class="cls-24" d="M33.93,14.08c0-.12,0-.25.08-.37a11.27,11.27,0,0,1,3.38-5.82h0l0,0v0l0,0h0l0,0h0l0,0,0,0,0,0,0,0v0l0,0A12.49,12.49,0,0,0,33.93,14.08Z"/><path class="cls-56" d="M51.54,2.65c2.66-1.54,4.83-.3,4.84,2.76l0,9.15a11,11,0,0,1-4.76,8.33l3.87,9.17H54.6l-4.76-8.15L41.4,28.78c-2.67,1.54-4.84.31-4.85-2.76l0-9.15a10.63,10.63,0,0,1,4.82-8.33Z"/><path class="cls-53" d="M36.52,16.87l-.94.06a11.77,11.77,0,0,1,5.33-9.24l.43.85A10.63,10.63,0,0,0,36.52,16.87Z"/><path class="cls-24" d="M35.58,16.93l-1.84-1.07a11.74,11.74,0,0,1,5.33-9.24l1.84,1.07A11.77,11.77,0,0,0,35.58,16.93Z"/></g><g class="cls-47"><g class="cls-47"><g class="cls-57"><path class="cls-24" d="M41.58,17.83,41,17.5a1.18,1.18,0,0,1,1.17-.11l.57.33a1.15,1.15,0,0,0-1.17.11Z"/></g></g><g class="cls-47"><g class="cls-58"><path class="cls-24" d="M40.42,21.73l-.57-.33a1.17,1.17,0,0,1-.48-1.06A3.63,3.63,0,0,1,41,17.5l.57.33a3.61,3.61,0,0,0-1.64,2.84,1.16,1.16,0,0,0,.48,1.06Z"/></g></g><path class="cls-59" d="M41.58,17.83c.9-.52,1.64-.1,1.65.94a3.63,3.63,0,0,1-1.64,2.84c-.91.53-1.65.1-1.65-.94A3.61,3.61,0,0,1,41.58,17.83Z"/></g><g class="cls-47"><g class="cls-47"><path class="cls-24" d="M47.35,14.41l.56.33a1.15,1.15,0,0,0-1.17.11l-.56-.33A1.15,1.15,0,0,1,47.35,14.41Z"/><g class="cls-60"><path class="cls-24" d="M46.74,14.85l-.56-.33a1.15,1.15,0,0,1,1.17-.11l.56.33a1.15,1.15,0,0,0-1.17.11Z"/></g></g><g class="cls-47"><g class="cls-61"><path class="cls-24" d="M45.58,18.74,45,18.42a1.16,1.16,0,0,1-.48-1.06,3.63,3.63,0,0,1,1.64-2.84l.56.33a3.62,3.62,0,0,0-1.64,2.84,1.15,1.15,0,0,0,.48,1Z"/></g></g><path class="cls-59" d="M46.74,14.85c.91-.52,1.65-.11,1.65.94a3.59,3.59,0,0,1-1.64,2.84c-.91.52-1.64.1-1.65-.94A3.62,3.62,0,0,1,46.74,14.85Z"/></g><g class="cls-47"><g class="cls-47"><g class="cls-62"><path class="cls-24" d="M51.91,11.87l-.57-.33a1.18,1.18,0,0,1,1.17-.12l.57.33a1.16,1.16,0,0,0-1.17.12Z"/></g></g><g class="cls-47"><g class="cls-63"><path class="cls-24" d="M50.75,15.76l-.57-.33a1.17,1.17,0,0,1-.48-1,3.6,3.6,0,0,1,1.64-2.84l.57.33a3.6,3.6,0,0,0-1.64,2.84,1.14,1.14,0,0,0,.48,1Z"/></g></g><path class="cls-59" d="M51.91,11.87c.91-.53,1.65-.11,1.65.94a3.63,3.63,0,0,1-1.64,2.84c-.91.52-1.65.1-1.65-.94A3.6,3.6,0,0,1,51.91,11.87Z"/></g><g class="cls-64"><path class="cls-65" d="M62.87,74.94a.53.53,0,0,1-.3.43l-21,12.18v28.66l21-12.18a.53.53,0,0,0,.3-.44h0V74.93Z"/></g><g class="cls-66"><path class="cls-67" d="M1.36,65.18A.55.55,0,0,1,1,64.75H1V93.4H1a.54.54,0,0,0,.32.44l38.73,22.37V87.55Z"/></g><g class="cls-68"><path class="cls-69" d="M40.09,87.55v28.66a1.69,1.69,0,0,0,1.52,0V87.55A1.69,1.69,0,0,1,40.09,87.55Z"/></g><g class="cls-70"><path class="cls-71" d="M50.47,97.85h0a.74.74,0,0,1-.74-.74v-5a.74.74,0,0,1,.74-.74h0a.74.74,0,0,1,.74.74v5A.74.74,0,0,1,50.47,97.85Z"/></g><g class="cls-72"><path class="cls-73" d="M6.53,93.48h0a.74.74,0,0,1-.74-.74v-5A.74.74,0,0,1,6.53,87h0a.74.74,0,0,1,.73.74v5A.74.74,0,0,1,6.53,93.48Z"/></g><g class="cls-74"><path class="cls-75" d="M45,111h0a.74.74,0,0,1-.74-.73v-3a.75.75,0,0,1,.74-.74h0a.74.74,0,0,1,.74.74v3A.74.74,0,0,1,45,111Z"/></g><g class="cls-76"><path class="cls-77" d="M6.53,85.14h0a.74.74,0,0,1-.74-.74V81.46a.74.74,0,0,1,.74-.74h0a.74.74,0,0,1,.73.74V84.4A.74.74,0,0,1,6.53,85.14Z"/></g><g class="cls-78"><path class="cls-79" d="M45.1,104.43h0a.74.74,0,0,1-.74-.74V99.15a.74.74,0,0,1,.74-.74h0a.74.74,0,0,1,.74.74v4.54A.74.74,0,0,1,45.1,104.43Z"/></g><g class="cls-80"><path class="cls-81" d="M17.35,95.51h0a.74.74,0,0,1-.74-.73V90.23a.74.74,0,0,1,.74-.74h0a.74.74,0,0,1,.73.74v4.55A.73.73,0,0,1,17.35,95.51Z"/></g><g class="cls-82"><path class="cls-83" d="M12.37,78.12h0a.74.74,0,0,1-.74-.74v-.16a.74.74,0,0,1,.74-.74h0a.74.74,0,0,1,.73.74v.16A.74.74,0,0,1,12.37,78.12Z"/></g><g class="cls-84"><path class="cls-85" d="M50.47,89.77h0a.74.74,0,0,1-.74-.74V87.56a.74.74,0,0,1,.74-.74h0a.74.74,0,0,1,.74.74V89A.74.74,0,0,1,50.47,89.77Z"/></g><path class="cls-86" d="M36.59,70.72c-.41,0-.74-.44-1.13-1a2.83,2.83,0,0,0-.57-.63s-.07.12-.12.19a1,1,0,0,1-.66.44,35.53,35.53,0,0,1-5.9-.24l.08-.66a36.36,36.36,0,0,0,5.79.23l.18-.2c.17-.21.41-.49.77-.42s.63.45,1,.89c.19.24.49.64.63.68s.24-.45.36-.66a2.24,2.24,0,0,1,.57-.79.8.8,0,0,1,.65-.09h.07a10,10,0,0,0,.09-1.08c.07-1.11.1-1.62.5-1.7s.6.34,1.22,1.68c.1.21.21.46.29.61,0-.07.06-.16.08-.22a2.24,2.24,0,0,1,.22-.49.52.52,0,0,1,.43-.25c.34,0,.57.3.87.68s.67.85,1,.75a7.1,7.1,0,0,0,.33-.92c.24-.73.41-1.27.83-1.3a.54.54,0,0,0,.41-.29,3.75,3.75,0,0,0,.12-.87c.07-.73.12-1.19.34-1.42a.47.47,0,0,1,.32-.13c.27,0,.5.22.76.49l.15.14a4.3,4.3,0,0,0,.51-1,3.56,3.56,0,0,0,.19-1.43l.67-.05a4.19,4.19,0,0,1-.23,1.7,5,5,0,0,1-.74,1.38l-.09.13-.21,0c-.25,0-.46-.18-.72-.44l-.18-.18c0,.23-.08.59-.1.83a4,4,0,0,1-.18,1.09,1.25,1.25,0,0,1-.89.67,6,6,0,0,0-.32.85c-.24.75-.41,1.22-.75,1.34-.76.28-1.3-.45-1.71-1a3.1,3.1,0,0,0-.27-.34,1.31,1.31,0,0,1-.08.21c-.12.35-.25.72-.58.79a.56.56,0,0,1-.53-.18,3.59,3.59,0,0,1-.5-.94c-.1-.23-.26-.56-.4-.84,0,.21,0,.44,0,.62-.06,1.1-.09,1.61-.48,1.7a1,1,0,0,1-.48,0c-.12,0-.12,0-.15,0a3.53,3.53,0,0,0-.35.56c-.29.5-.54.94-.9,1Z"/><g class="cls-47"><path class="cls-27" d="M5.49,98.17l.17-.1a.36.36,0,0,1,.37,0l-.17.1A.36.36,0,0,0,5.49,98.17Z"/><polygon class="cls-27" points="5.86 98.2 6.03 98.1 9.3 99.99 9.13 100.09 5.86 98.2"/><path class="cls-27" d="M9.67,101.23l-.17.1a.37.37,0,0,0,.15-.33,1.17,1.17,0,0,0-.52-.91l.18-.1a1.2,1.2,0,0,1,.52.91A.36.36,0,0,1,9.67,101.23Z"/><path class="cls-87" d="M9.13,100.09a1.17,1.17,0,0,1,.52.91c0,.33-.23.46-.52.29L5.85,99.4a1.16,1.16,0,0,1-.52-.9c0-.33.24-.46.53-.3Z"/></g><g class="cls-47"><path class="cls-27" d="M10.53,101.13l.18-.1a.37.37,0,0,1,.37,0l-.18.1A.36.36,0,0,0,10.53,101.13Z"/><polygon class="cls-27" points="10.9 101.17 11.08 101.07 14.35 102.96 14.18 103.06 10.9 101.17"/><path class="cls-27" d="M14.72,104.19l-.17.1a.36.36,0,0,0,.15-.33,1.13,1.13,0,0,0-.52-.9l.17-.1a1.11,1.11,0,0,1,.52.9A.34.34,0,0,1,14.72,104.19Z"/><path class="cls-87" d="M14.18,103.06a1.13,1.13,0,0,1,.52.9c0,.33-.24.46-.52.3l-3.28-1.89a1.15,1.15,0,0,1-.52-.9c0-.33.24-.47.52-.3Z"/></g></g></g></svg>