<svg xmlns="http://www.w3.org/2000/svg" xmlns:xlink="http://www.w3.org/1999/xlink" viewBox="0 0 78.02 112.09"><defs><style>.cls-1{mask:url(#mask);filter:url(#luminosity-noclip-4);}.cls-2,.cls-31,.cls-4,.cls-6,.cls-8{mix-blend-mode:multiply;}.cls-2{fill:url(#linear-gradient);}.cls-3{mask:url(#mask-2);filter:url(#luminosity-noclip-5);}.cls-4{fill:url(#linear-gradient-2);}.cls-5{mask:url(#mask-3);filter:url(#luminosity-noclip-6);}.cls-6{fill:url(#linear-gradient-3);}.cls-7{isolation:isolate;}.cls-8{fill:#d5defb;}.cls-9{fill:#222c3d;}.cls-10{fill:url(#linear-gradient-4);}.cls-11{fill:#263245;}.cls-12{fill:#388ca6;}.cls-13{fill:#6a9dae;}.cls-14{fill:#81c0d4;}.cls-15{fill:#2c6e82;}.cls-16{fill:#009fd1;}.cls-17{fill:#8e8f91;}.cls-18{fill:#a4a5a8;}.cls-19{fill:#d8d9dd;}.cls-20{fill:#7f8082;}.cls-21{mask:url(#mask-4);}.cls-22{fill:url(#linear-gradient-5);}.cls-23{mask:url(#mask-5);}.cls-24{fill:url(#linear-gradient-6);}.cls-25{mask:url(#mask-6);}.cls-26{fill:url(#linear-gradient-7);}.cls-27{fill:#cfd0e0;}.cls-28{fill:url(#linear-gradient-8);}.cls-29{fill:url(#linear-gradient-9);}.cls-30{fill:url(#linear-gradient-10);}.cls-31{fill:#ebebeb;}.cls-32{fill:#d4d5e6;}.cls-33{fill:url(#linear-gradient-11);}.cls-34{fill:url(#linear-gradient-12);}.cls-35{fill:url(#linear-gradient-13);}.cls-36{fill:#003447;}.cls-37{fill:#0bf;}.cls-38{fill:url(#linear-gradient-14);}.cls-39{fill:url(#linear-gradient-15);}.cls-40{fill:url(#linear-gradient-16);}.cls-41{fill:#44cafa;}.cls-42{fill:#21b7ed;}.cls-43{fill:#73d8ff;}.cls-44{fill:#fff;}.cls-45{filter:url(#luminosity-noclip-3);}.cls-46{filter:url(#luminosity-noclip-2);}.cls-47{filter:url(#luminosity-noclip);}</style><filter id="luminosity-noclip" x="13.62" y="-8416.09" width="18.86" height="32766" filterUnits="userSpaceOnUse" color-interpolation-filters="sRGB"><feFlood flood-color="#fff" result="bg"/><feBlend in="SourceGraphic" in2="bg"/></filter><mask id="mask" x="13.62" y="-8416.09" width="18.86" height="32766" maskUnits="userSpaceOnUse"><g class="cls-47"/></mask><linearGradient id="linear-gradient" x1="9.13" y1="88.58" x2="36.97" y2="40.35" gradientUnits="userSpaceOnUse"><stop offset="0" stop-color="#fff"/><stop offset="0.13" stop-color="#cfcfcf"/><stop offset="0.31" stop-color="#919191"/><stop offset="0.48" stop-color="#5d5d5d"/><stop offset="0.64" stop-color="#353535"/><stop offset="0.78" stop-color="#181818"/><stop offset="0.91" stop-color="#060606"/><stop offset="1"/></linearGradient><filter id="luminosity-noclip-2" x="32.48" y="-8416.09" width="4.09" height="32766" filterUnits="userSpaceOnUse" color-interpolation-filters="sRGB"><feFlood flood-color="#fff" result="bg"/><feBlend in="SourceGraphic" in2="bg"/></filter><mask id="mask-2" x="32.48" y="-8416.09" width="4.09" height="32766" maskUnits="userSpaceOnUse"><g class="cls-46"/></mask><linearGradient id="linear-gradient-2" x1="34.53" y1="102.07" x2="34.53" y2="37.76" xlink:href="#linear-gradient"/><filter id="luminosity-noclip-3" x="36.58" y="-8416.09" width="18.82" height="32766" filterUnits="userSpaceOnUse" color-interpolation-filters="sRGB"><feFlood flood-color="#fff" result="bg"/><feBlend in="SourceGraphic" in2="bg"/></filter><mask id="mask-3" x="36.58" y="-8416.09" width="18.82" height="32766" maskUnits="userSpaceOnUse"><g class="cls-45"/></mask><linearGradient id="linear-gradient-3" x1="59.91" y1="88.6" x2="32.07" y2="40.37" xlink:href="#linear-gradient"/><linearGradient id="linear-gradient-4" x1="26.25" y1="103.95" x2="42.02" y2="76.63" gradientUnits="userSpaceOnUse"><stop offset="0" stop-color="#485d80"/><stop offset="0.81" stop-color="#4a689b"/><stop offset="1" stop-color="#4b6ba2"/></linearGradient><filter id="luminosity-noclip-4" x="13.62" y="26.87" width="18.86" height="75.19" filterUnits="userSpaceOnUse" color-interpolation-filters="sRGB"><feFlood flood-color="#fff" result="bg"/><feBlend in="SourceGraphic" in2="bg"/></filter><mask id="mask-4" x="13.62" y="26.87" width="18.86" height="75.19" maskUnits="userSpaceOnUse"><g class="cls-1"><polygon class="cls-2" points="13.62 91.17 13.62 26.87 32.48 37.76 32.48 102.06 13.62 91.17"/></g></mask><linearGradient id="linear-gradient-5" x1="9.13" y1="88.58" x2="36.97" y2="40.35" gradientUnits="userSpaceOnUse"><stop offset="0" stop-color="#5cd8ff"/><stop offset="0.1" stop-color="#58d8ff"/><stop offset="0.62" stop-color="#46d6ff"/><stop offset="1" stop-color="#40d6ff"/></linearGradient><filter id="luminosity-noclip-5" x="32.48" y="37.76" width="4.09" height="64.31" filterUnits="userSpaceOnUse" color-interpolation-filters="sRGB"><feFlood flood-color="#fff" result="bg"/><feBlend in="SourceGraphic" in2="bg"/></filter><mask id="mask-5" x="32.48" y="37.76" width="4.09" height="64.31" maskUnits="userSpaceOnUse"><g class="cls-3"><polygon class="cls-4" points="36.58 102.07 36.58 37.77 32.48 37.76 32.48 102.06 36.58 102.07"/></g></mask><linearGradient id="linear-gradient-6" x1="34.53" y1="102.07" x2="34.53" y2="37.76" xlink:href="#linear-gradient-5"/><filter id="luminosity-noclip-6" x="36.58" y="26.9" width="18.82" height="75.17" filterUnits="userSpaceOnUse" color-interpolation-filters="sRGB"><feFlood flood-color="#fff" result="bg"/><feBlend in="SourceGraphic" in2="bg"/></filter><mask id="mask-6" x="36.58" y="26.9" width="18.82" height="75.17" maskUnits="userSpaceOnUse"><g class="cls-5"><polygon class="cls-6" points="36.58 102.07 36.58 37.77 55.4 26.9 55.4 91.2 36.58 102.07"/></g></mask><linearGradient id="linear-gradient-7" x1="59.91" y1="88.6" x2="32.07" y2="40.37" xlink:href="#linear-gradient-5"/><linearGradient id="linear-gradient-8" x1="54.69" y1="67.73" x2="42.68" y2="46.93" gradientUnits="userSpaceOnUse"><stop offset="0.73" stop-color="#dedeeb"/><stop offset="0.93" stop-color="#eae9f2"/></linearGradient><linearGradient id="linear-gradient-9" x1="20.5" y1="65.82" x2="48.09" y2="65.82" gradientUnits="userSpaceOnUse"><stop offset="0.37" stop-color="#caccde"/><stop offset="0.97" stop-color="#eae9f2"/></linearGradient><linearGradient id="linear-gradient-10" x1="29.33" y1="64.12" x2="39.8" y2="45.98" gradientUnits="userSpaceOnUse"><stop offset="0" stop-color="#caccde"/><stop offset="0.56" stop-color="#eae9f2"/></linearGradient><linearGradient id="linear-gradient-11" x1="32.17" y1="51.87" x2="53.5" y2="51.87" gradientUnits="userSpaceOnUse"><stop offset="0.24" stop-color="#a8a4b5"/><stop offset="1" stop-color="#dbd3e2"/></linearGradient><linearGradient id="linear-gradient-12" x1="21.34" y1="69.86" x2="43.41" y2="19.97" xlink:href="#linear-gradient-9"/><linearGradient id="linear-gradient-13" x1="28.86" y1="46.22" x2="40.27" y2="26.46" xlink:href="#linear-gradient-10"/><linearGradient id="linear-gradient-14" x1="23.39" y1="85.12" x2="17.7" y2="53.09" gradientUnits="userSpaceOnUse"><stop offset="0" stop-color="#caccde"/><stop offset="1" stop-color="#dfdeee"/></linearGradient><linearGradient id="linear-gradient-15" x1="21.81" y1="82.78" x2="19.78" y2="52.12" xlink:href="#linear-gradient-14"/><linearGradient id="linear-gradient-16" x1="28.32" y1="77.55" x2="16.33" y2="56.79" gradientUnits="userSpaceOnUse"><stop offset="0.68" stop-color="#dedeeb"/><stop offset="0.81" stop-color="#eae9f2"/></linearGradient></defs><g class="cls-7"><g id="Layer_2" data-name="Layer 2"><g id="Layer_1-2" data-name="Layer 1"><polygon class="cls-8" points="0 92.54 34.41 72.67 68.27 92.23 33.87 112.09 0 92.54"/><polygon class="cls-9" points="33.87 110.54 33.87 108.34 65.41 90.13 65.41 92.33 33.87 110.54"/><polygon class="cls-10" points="33.87 108.34 2.86 90.44 34.41 72.23 65.41 90.13 33.87 108.34"/><polygon class="cls-11" points="2.86 90.44 2.86 92.64 33.87 110.54 33.87 108.34 2.86 90.44"/><polygon class="cls-12" points="41.36 104.94 42.3 104.4 43.88 108.89 42.93 109.44 41.36 104.94"/><polygon class="cls-12" points="41.36 104.94 42.3 104.4 39.23 102.63 38.29 102.69 38.29 103.17 41.36 104.94"/><polygon class="cls-12" points="44.67 110.44 45.61 109.89 45.61 109.42 43.88 108.89 42.93 109.44 44.67 110.44"/><polygon class="cls-13" points="41.72 104.68 42.67 104.13 44.24 108.63 43.3 109.17 41.72 104.68"/><polygon class="cls-14" points="41.72 104.68 42.67 104.13 39.23 102.15 38.29 102.69 41.72 104.68"/><polygon class="cls-14" points="44.67 109.96 45.61 109.42 44.24 108.63 43.3 109.17 44.67 109.96"/><polygon class="cls-12" points="43.43 103.74 44.37 103.2 45.95 107.69 45 108.23 43.43 103.74"/><polygon class="cls-12" points="43.43 103.74 44.37 103.2 41.3 101.42 40.36 101.49 40.36 101.97 43.43 103.74"/><polygon class="cls-12" points="46.74 109.24 47.68 108.69 47.68 108.22 45.95 107.69 45 108.23 46.74 109.24"/><polygon class="cls-13" points="43.79 103.47 44.74 102.93 46.31 107.42 45.37 107.97 43.79 103.47"/><polygon class="cls-14" points="43.79 103.47 44.74 102.93 41.3 100.95 40.36 101.49 43.79 103.47"/><polygon class="cls-14" points="46.74 108.76 47.68 108.22 46.31 107.42 45.37 107.97 46.74 108.76"/><polygon class="cls-12" points="45.5 102.54 46.44 102 48.01 106.49 47.07 107.03 45.5 102.54"/><polygon class="cls-12" points="45.5 102.54 46.44 102 43.37 100.22 42.43 100.29 42.43 100.77 45.5 102.54"/><polygon class="cls-12" points="48.81 108.04 49.75 107.49 49.75 107.02 48.01 106.49 47.07 107.03 48.81 108.04"/><polygon class="cls-13" points="45.86 102.27 46.81 101.73 48.38 106.22 47.44 106.77 45.86 102.27"/><polygon class="cls-14" points="45.86 102.27 46.81 101.73 43.37 99.75 42.43 100.29 45.86 102.27"/><polygon class="cls-14" points="48.81 107.56 49.75 107.02 48.38 106.22 47.43 106.77 48.81 107.56"/><polygon class="cls-12" points="47.57 101.34 48.51 100.79 50.08 105.29 49.14 105.83 47.57 101.34"/><polygon class="cls-12" points="47.57 101.34 48.51 100.79 45.44 99.02 44.5 99.09 44.5 99.56 47.57 101.34"/><polygon class="cls-12" points="50.88 106.83 51.82 106.29 51.82 105.81 50.08 105.29 49.14 105.83 50.88 106.83"/><polygon class="cls-13" points="47.93 101.07 48.88 100.53 50.45 105.02 49.5 105.56 47.93 101.07"/><polygon class="cls-14" points="47.93 101.07 48.88 100.53 45.44 98.54 44.5 99.09 47.93 101.07"/><polygon class="cls-14" points="50.88 106.36 51.82 105.81 50.45 105.02 49.5 105.56 50.88 106.36"/><polygon class="cls-12" points="49.64 100.14 50.58 99.59 52.15 104.08 51.21 104.63 49.64 100.14"/><polygon class="cls-12" points="49.64 100.14 50.58 99.59 47.51 97.82 46.57 97.89 46.57 98.36 49.64 100.14"/><polygon class="cls-12" points="52.95 105.63 53.89 105.09 53.89 104.61 52.15 104.08 51.21 104.63 52.95 105.63"/><polygon class="cls-13" points="50 99.87 50.95 99.32 52.52 103.82 51.57 104.36 50 99.87"/><polygon class="cls-14" points="50 99.87 50.95 99.32 47.51 97.34 46.57 97.89 50 99.87"/><polygon class="cls-14" points="52.95 105.16 53.89 104.61 52.52 103.82 51.57 104.36 52.95 105.16"/><polygon class="cls-12" points="51.71 98.93 52.65 98.39 54.22 102.88 53.28 103.43 51.71 98.93"/><polygon class="cls-12" points="51.71 98.93 52.65 98.39 49.58 96.62 48.64 96.68 48.64 97.16 51.71 98.93"/><polygon class="cls-12" points="55.02 104.43 55.96 103.89 55.96 103.41 54.22 102.88 53.28 103.43 55.02 104.43"/><polygon class="cls-13" points="52.07 98.67 53.02 98.12 54.59 102.62 53.64 103.16 52.07 98.67"/><polygon class="cls-14" points="52.07 98.67 53.02 98.12 49.58 96.14 48.64 96.68 52.07 98.67"/><polygon class="cls-14" points="55.02 103.95 55.96 103.41 54.59 102.62 53.64 103.16 55.02 103.95"/><polygon class="cls-12" points="53.78 97.73 54.72 97.19 56.29 101.68 55.35 102.23 53.78 97.73"/><polygon class="cls-12" points="53.78 97.73 54.72 97.19 51.65 95.41 50.71 95.48 50.71 95.96 53.78 97.73"/><polygon class="cls-12" points="57.09 103.23 58.03 102.68 58.03 102.21 56.29 101.68 55.35 102.23 57.09 103.23"/><polygon class="cls-13" points="54.14 97.47 55.09 96.92 56.66 101.42 55.71 101.96 54.14 97.47"/><polygon class="cls-14" points="54.14 97.47 55.09 96.92 51.65 94.94 50.71 95.48 54.14 97.47"/><polygon class="cls-14" points="57.09 102.75 58.03 102.21 56.66 101.42 55.71 101.96 57.09 102.75"/><polygon class="cls-12" points="55.85 96.53 56.79 95.99 58.36 100.48 57.42 101.02 55.85 96.53"/><polygon class="cls-12" points="55.85 96.53 56.79 95.99 53.72 94.21 52.78 94.28 52.78 94.76 55.85 96.53"/><polygon class="cls-12" points="59.16 102.03 60.1 101.48 60.1 101.01 58.36 100.48 57.42 101.02 59.16 102.03"/><polygon class="cls-13" points="56.21 96.26 57.16 95.72 58.73 100.21 57.78 100.76 56.21 96.26"/><polygon class="cls-14" points="56.21 96.26 57.16 95.72 53.72 93.74 52.78 94.28 56.21 96.26"/><polygon class="cls-14" points="59.16 101.55 60.1 101.01 58.73 100.21 57.78 100.76 59.16 101.55"/><polygon class="cls-12" points="57.92 95.33 58.86 94.78 60.43 99.28 59.49 99.82 57.92 95.33"/><polygon class="cls-12" points="57.92 95.33 58.86 94.78 55.79 93.01 54.85 93.08 54.85 93.56 57.92 95.33"/><polygon class="cls-12" points="61.23 100.83 62.17 100.28 62.17 99.8 60.43 99.28 59.49 99.82 61.23 100.83"/><polygon class="cls-13" points="58.28 95.06 59.23 94.52 60.8 99.01 59.85 99.56 58.28 95.06"/><polygon class="cls-14" points="58.28 95.06 59.23 94.52 55.79 92.53 54.85 93.08 58.28 95.06"/><polygon class="cls-14" points="61.23 100.35 62.17 99.8 60.8 99.01 59.85 99.56 61.23 100.35"/><polygon class="cls-12" points="59.99 94.13 60.93 93.58 62.5 98.08 61.56 98.62 59.99 94.13"/><polygon class="cls-12" points="59.99 94.13 60.93 93.58 57.86 91.81 56.92 91.88 56.92 92.35 59.99 94.13"/><polygon class="cls-12" points="63.3 99.62 64.24 99.08 64.24 98.6 62.5 98.08 61.56 98.62 63.3 99.62"/><polygon class="cls-13" points="60.35 93.86 61.3 93.31 62.87 97.81 61.92 98.35 60.35 93.86"/><polygon class="cls-14" points="60.35 93.86 61.3 93.31 57.86 91.33 56.92 91.88 60.35 93.86"/><polygon class="cls-14" points="63.3 99.15 64.24 98.6 62.87 97.81 61.92 98.35 63.3 99.15"/><polygon class="cls-12" points="28.05 105.01 27.11 104.47 25.54 108.96 26.48 109.5 28.05 105.01"/><polygon class="cls-12" points="28.05 105.01 27.11 104.47 30.18 102.69 31.12 102.76 31.12 103.24 28.05 105.01"/><polygon class="cls-12" points="24.75 110.51 23.8 109.96 23.8 109.49 25.54 108.96 26.48 109.5 24.75 110.51"/><polygon class="cls-13" points="27.69 104.74 26.75 104.2 25.18 108.69 26.12 109.24 27.69 104.74"/><polygon class="cls-14" points="27.69 104.74 26.75 104.2 30.18 102.22 31.12 102.76 27.69 104.74"/><polygon class="cls-14" points="24.75 110.03 23.8 109.49 25.18 108.69 26.12 109.24 24.75 110.03"/><polygon class="cls-12" points="25.98 103.81 25.04 103.26 23.47 107.76 24.41 108.3 25.98 103.81"/><polygon class="cls-12" points="25.98 103.81 25.04 103.26 28.11 101.49 29.05 101.56 29.05 102.03 25.98 103.81"/><polygon class="cls-12" points="22.68 109.31 21.73 108.76 21.73 108.28 23.47 107.76 24.41 108.3 22.68 109.31"/><polygon class="cls-13" points="25.62 103.54 24.68 103 23.11 107.49 24.05 108.03 25.62 103.54"/><polygon class="cls-14" points="25.62 103.54 24.68 103 28.11 101.01 29.05 101.56 25.62 103.54"/><polygon class="cls-14" points="22.68 108.83 21.73 108.28 23.11 107.49 24.05 108.03 22.68 108.83"/><polygon class="cls-12" points="23.91 102.61 22.97 102.06 21.4 106.56 22.34 107.1 23.91 102.61"/><polygon class="cls-12" points="23.91 102.61 22.97 102.06 26.04 100.29 26.98 100.36 26.98 100.83 23.91 102.61"/><polygon class="cls-12" points="20.61 108.1 19.66 107.56 19.66 107.08 21.4 106.56 22.34 107.1 20.61 108.1"/><polygon class="cls-13" points="23.55 102.34 22.61 101.8 21.04 106.29 21.98 106.83 23.55 102.34"/><polygon class="cls-14" points="23.55 102.34 22.61 101.8 26.04 99.81 26.98 100.36 23.55 102.34"/><polygon class="cls-14" points="20.61 107.63 19.66 107.08 21.04 106.29 21.98 106.83 20.61 107.63"/><polygon class="cls-12" points="21.84 101.4 20.9 100.86 19.33 105.35 20.27 105.9 21.84 101.4"/><polygon class="cls-12" points="21.84 101.4 20.9 100.86 23.97 99.09 24.91 99.16 24.91 99.63 21.84 101.4"/><polygon class="cls-12" points="18.54 106.9 17.59 106.36 17.59 105.88 19.33 105.35 20.27 105.9 18.54 106.9"/><polygon class="cls-13" points="21.48 101.14 20.54 100.59 18.97 105.09 19.91 105.63 21.48 101.14"/><polygon class="cls-14" points="21.48 101.14 20.54 100.59 23.97 98.61 24.91 99.16 21.48 101.14"/><polygon class="cls-14" points="18.54 106.42 17.59 105.88 18.97 105.09 19.91 105.63 18.54 106.42"/><polygon class="cls-12" points="19.77 100.2 18.83 99.66 17.26 104.15 18.2 104.7 19.77 100.2"/><polygon class="cls-12" points="19.77 100.2 18.83 99.66 21.9 97.89 22.84 97.95 22.84 98.43 19.77 100.2"/><polygon class="cls-12" points="16.46 105.7 15.52 105.16 15.52 104.68 17.26 104.15 18.2 104.7 16.46 105.7"/><polygon class="cls-13" points="19.41 99.94 18.47 99.39 16.9 103.89 17.84 104.43 19.41 99.94"/><polygon class="cls-14" points="19.41 99.94 18.47 99.39 21.9 97.41 22.84 97.95 19.41 99.94"/><polygon class="cls-14" points="16.46 105.22 15.52 104.68 16.9 103.89 17.84 104.43 16.46 105.22"/><polygon class="cls-12" points="17.7 99 16.76 98.46 15.19 102.95 16.13 103.5 17.7 99"/><polygon class="cls-12" points="17.7 99 16.76 98.46 19.83 96.68 20.77 96.75 20.77 97.23 17.7 99"/><polygon class="cls-12" points="14.4 104.5 13.45 103.95 13.45 103.48 15.19 102.95 16.13 103.5 14.4 104.5"/><polygon class="cls-13" points="17.34 98.73 16.4 98.19 14.83 102.68 15.77 103.23 17.34 98.73"/><polygon class="cls-14" points="17.34 98.73 16.4 98.19 19.83 96.21 20.77 96.75 17.34 98.73"/><polygon class="cls-14" points="14.4 104.02 13.45 103.48 14.83 102.68 15.77 103.23 14.4 104.02"/><polygon class="cls-12" points="15.63 97.8 14.69 97.25 13.12 101.75 14.06 102.29 15.63 97.8"/><polygon class="cls-12" points="15.63 97.8 14.69 97.25 17.76 95.48 18.7 95.55 18.7 96.03 15.63 97.8"/><polygon class="cls-12" points="12.33 103.3 11.38 102.75 11.38 102.28 13.12 101.75 14.06 102.29 12.33 103.3"/><polygon class="cls-13" points="15.27 97.53 14.33 96.99 12.76 101.48 13.7 102.03 15.27 97.53"/><polygon class="cls-14" points="15.27 97.53 14.33 96.99 17.76 95 18.7 95.55 15.27 97.53"/><polygon class="cls-14" points="12.33 102.82 11.38 102.28 12.76 101.48 13.7 102.03 12.33 102.82"/><polygon class="cls-12" points="13.56 96.6 12.62 96.05 11.05 100.55 11.99 101.09 13.56 96.6"/><polygon class="cls-12" points="13.56 96.6 12.62 96.05 15.69 94.28 16.64 94.35 16.64 94.82 13.56 96.6"/><polygon class="cls-12" points="10.26 102.09 9.31 101.55 9.31 101.07 11.05 100.55 11.99 101.09 10.26 102.09"/><polygon class="cls-13" points="13.2 96.33 12.26 95.79 10.69 100.28 11.63 100.82 13.2 96.33"/><polygon class="cls-14" points="13.2 96.33 12.26 95.79 15.69 93.8 16.64 94.35 13.2 96.33"/><polygon class="cls-14" points="10.26 101.62 9.31 101.07 10.69 100.28 11.63 100.82 10.26 101.62"/><polygon class="cls-12" points="11.49 95.39 10.55 94.85 8.98 99.34 9.92 99.89 11.49 95.39"/><polygon class="cls-12" points="11.49 95.39 10.55 94.85 13.62 93.08 14.56 93.15 14.56 93.62 11.49 95.39"/><polygon class="cls-12" points="8.19 100.89 7.24 100.35 7.24 99.87 8.98 99.34 9.92 99.89 8.19 100.89"/><polygon class="cls-13" points="11.13 95.13 10.19 94.58 8.62 99.08 9.56 99.62 11.13 95.13"/><polygon class="cls-14" points="11.13 95.13 10.19 94.58 13.62 92.6 14.56 93.15 11.13 95.13"/><polygon class="cls-14" points="8.19 100.42 7.24 99.87 8.62 99.08 9.56 99.62 8.19 100.42"/><polygon class="cls-12" points="9.42 94.19 8.48 93.65 6.91 98.14 7.85 98.69 9.42 94.19"/><polygon class="cls-12" points="9.42 94.19 8.48 93.65 11.55 91.88 12.49 91.94 12.49 92.42 9.42 94.19"/><polygon class="cls-12" points="6.12 99.69 5.17 99.15 5.17 98.67 6.91 98.14 7.85 98.69 6.12 99.69"/><polygon class="cls-13" points="9.06 93.93 8.12 93.38 6.55 97.88 7.49 98.42 9.06 93.93"/><polygon class="cls-14" points="9.06 93.93 8.12 93.38 11.55 91.4 12.49 91.94 9.06 93.93"/><polygon class="cls-14" points="6.12 99.21 5.17 98.67 6.55 97.88 7.49 98.42 6.12 99.21"/><polygon class="cls-12" points="24.74 77.71 25.5 77.06 25.5 76.58 23.18 76.33 23.18 76.81 24.74 77.71"/><polygon class="cls-14" points="24.56 77.13 25.5 76.58 24.13 75.79 23.18 76.33 24.56 77.13"/><polygon class="cls-12" points="24.56 77.13 24.74 77.71 26.83 75.38 26.65 74.8 24.56 77.13"/><polygon class="cls-15" points="24.74 77.71 25.68 77.17 27.77 74.83 26.83 75.38 24.74 77.71"/><polygon class="cls-12" points="30.08 77.26 31.02 76.71 31.02 76.23 26.65 74.8 26.65 75.27 30.08 77.26"/><polygon class="cls-14" points="30.08 76.78 31.02 76.23 27.59 74.25 26.65 74.8 30.08 76.78"/><polygon class="cls-12" points="22.67 78.91 23.43 78.26 23.43 77.79 21.11 77.54 21.11 78.01 22.67 78.91"/><polygon class="cls-14" points="22.49 78.33 23.43 77.79 22.06 76.99 21.11 77.54 22.49 78.33"/><polygon class="cls-12" points="22.49 78.33 22.67 78.91 24.76 76.58 24.58 76 22.49 78.33"/><polygon class="cls-15" points="22.67 78.91 23.61 78.37 25.7 76.04 24.76 76.58 22.67 78.91"/><polygon class="cls-12" points="28.01 78.46 28.95 77.91 28.95 77.44 24.58 76 24.58 76.47 28.01 78.46"/><polygon class="cls-14" points="28.01 77.98 28.95 77.44 25.52 75.45 24.58 76 28.01 77.98"/><polygon class="cls-12" points="20.6 80.11 21.36 79.46 21.36 78.99 19.04 78.74 19.04 79.22 20.6 80.11"/><polygon class="cls-14" points="20.42 79.53 21.36 78.99 19.99 78.19 19.04 78.74 20.42 79.53"/><polygon class="cls-12" points="20.42 79.53 20.6 80.11 22.69 77.78 22.51 77.2 20.42 79.53"/><polygon class="cls-15" points="20.6 80.11 21.54 79.57 23.63 77.24 22.69 77.78 20.6 80.11"/><polygon class="cls-12" points="25.94 79.66 26.89 79.11 26.89 78.64 22.51 77.2 22.51 77.68 25.94 79.66"/><polygon class="cls-14" points="25.94 79.18 26.89 78.64 23.45 76.66 22.51 77.2 25.94 79.18"/><polygon class="cls-12" points="18.53 81.31 19.29 80.67 19.29 80.19 16.97 79.94 16.97 80.42 18.53 81.31"/><polygon class="cls-14" points="18.35 80.73 19.29 80.19 17.92 79.4 16.97 79.94 18.35 80.73"/><polygon class="cls-12" points="18.35 80.73 18.53 81.31 20.62 78.98 20.44 78.4 18.35 80.73"/><polygon class="cls-15" points="18.53 81.31 19.47 80.77 21.56 78.44 20.62 78.98 18.53 81.31"/><polygon class="cls-12" points="23.87 80.86 24.82 80.32 24.82 79.84 20.44 78.4 20.44 78.88 23.87 80.86"/><polygon class="cls-14" points="23.87 80.39 24.82 79.84 21.38 77.86 20.44 78.4 23.87 80.39"/><polygon class="cls-12" points="16.46 82.52 17.22 81.87 17.22 81.39 14.9 81.14 14.9 81.62 16.46 82.52"/><polygon class="cls-14" points="16.28 81.94 17.22 81.39 15.85 80.6 14.9 81.14 16.28 81.94"/><polygon class="cls-12" points="16.28 81.94 16.46 82.52 18.55 80.19 18.37 79.6 16.28 81.94"/><polygon class="cls-15" points="16.46 82.52 17.4 81.97 19.49 79.64 18.55 80.19 16.46 82.52"/><polygon class="cls-12" points="21.8 82.06 22.75 81.52 22.75 81.04 18.37 79.6 18.37 80.08 21.8 82.06"/><polygon class="cls-14" points="21.8 81.59 22.75 81.04 19.31 79.06 18.37 79.6 21.8 81.59"/><polygon class="cls-12" points="14.39 83.72 15.15 83.07 15.15 82.59 12.84 82.34 12.84 82.82 14.39 83.72"/><polygon class="cls-14" points="14.21 83.14 15.15 82.59 13.78 81.8 12.84 82.34 14.21 83.14"/><polygon class="cls-12" points="14.21 83.14 14.39 83.72 16.48 81.39 16.3 80.81 14.21 83.14"/><polygon class="cls-15" points="14.39 83.72 15.33 83.17 17.42 80.84 16.48 81.39 14.39 83.72"/><polygon class="cls-12" points="19.73 83.27 20.68 82.72 20.68 82.24 16.3 80.81 16.3 81.28 19.73 83.27"/><polygon class="cls-14" points="19.73 82.79 20.68 82.24 17.24 80.26 16.3 80.81 19.73 82.79"/><polygon class="cls-12" points="12.32 84.92 13.08 84.27 13.08 83.8 10.77 83.55 10.77 84.02 12.32 84.92"/><polygon class="cls-14" points="12.14 84.34 13.08 83.8 11.71 83 10.77 83.55 12.14 84.34"/><polygon class="cls-12" points="12.14 84.34 12.32 84.92 14.41 82.59 14.23 82.01 12.14 84.34"/><polygon class="cls-15" points="12.32 84.92 13.26 84.38 15.35 82.05 14.41 82.59 12.32 84.92"/><polygon class="cls-12" points="17.66 84.47 18.61 83.92 18.61 83.45 14.23 82.01 14.23 82.48 17.66 84.47"/><polygon class="cls-14" points="17.66 83.99 18.61 83.45 15.17 81.46 14.23 82.01 17.66 83.99"/><polygon class="cls-12" points="10.25 86.12 11.01 85.47 11.01 85 8.7 84.75 8.7 85.22 10.25 86.12"/><polygon class="cls-14" points="10.07 85.54 11.01 85 9.64 84.2 8.7 84.75 10.07 85.54"/><polygon class="cls-12" points="10.07 85.54 10.25 86.12 12.34 83.79 12.16 83.21 10.07 85.54"/><polygon class="cls-15" points="10.25 86.12 11.19 85.58 13.28 83.25 12.34 83.79 10.25 86.12"/><polygon class="cls-12" points="15.59 85.67 16.54 85.12 16.54 84.65 12.16 83.21 12.16 83.69 15.59 85.67"/><polygon class="cls-14" points="15.59 85.19 16.54 84.65 13.1 82.67 12.16 83.21 15.59 85.19"/><polygon class="cls-12" points="8.18 87.32 8.94 86.67 8.94 86.2 6.63 85.95 6.63 86.43 8.18 87.32"/><polygon class="cls-14" points="8 86.74 8.94 86.2 7.57 85.41 6.63 85.95 8 86.74"/><polygon class="cls-12" points="8 86.74 8.18 87.32 10.27 84.99 10.09 84.41 8 86.74"/><polygon class="cls-15" points="8.18 87.32 9.12 86.78 11.21 84.45 10.27 84.99 8.18 87.32"/><polygon class="cls-12" points="13.52 86.87 14.47 86.33 14.47 85.85 10.09 84.41 10.09 84.89 13.52 86.87"/><polygon class="cls-14" points="13.52 86.39 14.47 85.85 11.03 83.87 10.09 84.41 13.52 86.39"/><polygon class="cls-12" points="6.11 88.53 6.87 87.88 6.87 87.4 4.56 87.15 4.56 87.63 6.11 88.53"/><polygon class="cls-14" points="5.93 87.94 6.87 87.4 5.5 86.61 4.56 87.15 5.93 87.94"/><polygon class="cls-12" points="5.93 87.94 6.11 88.53 8.2 86.19 8.02 85.61 5.93 87.94"/><polygon class="cls-15" points="6.11 88.53 7.05 87.98 9.14 85.65 8.2 86.19 6.11 88.53"/><polygon class="cls-12" points="11.45 88.07 12.4 87.53 12.4 87.05 8.02 85.61 8.02 86.09 11.45 88.07"/><polygon class="cls-14" points="11.45 87.6 12.4 87.05 8.96 85.07 8.02 85.61 11.45 87.6"/><polygon class="cls-12" points="44.26 77.64 43.5 76.99 43.5 76.52 45.81 76.27 45.81 76.74 44.26 77.64"/><polygon class="cls-14" points="44.44 77.06 43.5 76.52 44.87 75.72 45.81 76.27 44.44 77.06"/><polygon class="cls-12" points="44.44 77.06 44.26 77.64 42.17 75.31 42.35 74.73 44.44 77.06"/><polygon class="cls-15" points="44.26 77.64 43.31 77.1 41.23 74.77 42.17 75.31 44.26 77.64"/><polygon class="cls-12" points="38.92 77.19 37.97 76.64 37.97 76.17 42.35 74.73 42.35 75.2 38.92 77.19"/><polygon class="cls-14" points="38.92 76.71 37.97 76.17 41.41 74.18 42.35 74.73 38.92 76.71"/><polygon class="cls-12" points="46.33 78.84 45.57 78.19 45.57 77.72 47.88 77.47 47.88 77.94 46.33 78.84"/><polygon class="cls-14" points="46.51 78.26 45.57 77.72 46.94 76.92 47.88 77.47 46.51 78.26"/><polygon class="cls-12" points="46.51 78.26 46.33 78.84 44.24 76.51 44.42 75.93 46.51 78.26"/><polygon class="cls-15" points="46.33 78.84 45.38 78.3 43.3 75.97 44.24 76.51 46.33 78.84"/><polygon class="cls-12" points="40.99 78.39 40.04 77.84 40.04 77.37 44.42 75.93 44.42 76.41 40.99 78.39"/><polygon class="cls-14" points="40.99 77.91 40.04 77.37 43.48 75.39 44.42 75.93 40.99 77.91"/><polygon class="cls-12" points="48.4 80.05 47.64 79.4 47.64 78.92 49.95 78.67 49.95 79.15 48.4 80.05"/><polygon class="cls-14" points="48.58 79.46 47.64 78.92 49.01 78.13 49.95 78.67 48.58 79.46"/><polygon class="cls-12" points="48.58 79.46 48.4 80.05 46.31 77.71 46.49 77.13 48.58 79.46"/><polygon class="cls-15" points="48.4 80.05 47.45 79.5 45.37 77.17 46.31 77.71 48.4 80.05"/><polygon class="cls-12" points="43.05 79.59 42.11 79.05 42.11 78.57 46.49 77.13 46.49 77.61 43.05 79.59"/><polygon class="cls-14" points="43.05 79.11 42.11 78.57 45.55 76.59 46.49 77.13 43.05 79.11"/><polygon class="cls-12" points="50.47 81.25 49.71 80.6 49.71 80.12 52.02 79.87 52.02 80.35 50.47 81.25"/><polygon class="cls-14" points="50.65 80.67 49.71 80.12 51.08 79.33 52.02 79.87 50.65 80.67"/><polygon class="cls-12" points="50.65 80.67 50.47 81.25 48.38 78.92 48.56 78.33 50.65 80.67"/><polygon class="cls-15" points="50.47 81.25 49.52 80.7 47.44 78.37 48.38 78.92 50.47 81.25"/><polygon class="cls-12" points="45.13 80.79 44.18 80.25 44.18 79.77 48.56 78.33 48.56 78.81 45.13 80.79"/><polygon class="cls-14" points="45.13 80.32 44.18 79.77 47.62 77.79 48.56 78.33 45.13 80.32"/><polygon class="cls-12" points="52.54 82.45 51.78 81.8 51.78 81.32 54.09 81.07 54.09 81.55 52.54 82.45"/><polygon class="cls-14" points="52.72 81.87 51.78 81.32 53.15 80.53 54.09 81.07 52.72 81.87"/><polygon class="cls-12" points="52.72 81.87 52.54 82.45 50.45 80.12 50.63 79.54 52.72 81.87"/><polygon class="cls-15" points="52.54 82.45 51.59 81.9 49.51 79.57 50.45 80.12 52.54 82.45"/><polygon class="cls-12" points="47.2 82 46.25 81.45 46.25 80.97 50.63 79.54 50.63 80.01 47.2 82"/><polygon class="cls-14" points="47.2 81.52 46.25 80.97 49.69 78.99 50.63 79.54 47.2 81.52"/><polygon class="cls-12" points="54.61 83.65 53.85 83 53.85 82.53 56.16 82.28 56.16 82.75 54.61 83.65"/><polygon class="cls-14" points="54.79 83.07 53.85 82.53 55.22 81.73 56.16 82.28 54.79 83.07"/><polygon class="cls-12" points="54.79 83.07 54.61 83.65 52.52 81.32 52.7 80.74 54.79 83.07"/><polygon class="cls-15" points="54.61 83.65 53.66 83.11 51.57 80.77 52.52 81.32 54.61 83.65"/><polygon class="cls-12" points="49.27 83.2 48.32 82.65 48.32 82.18 52.7 80.74 52.7 81.21 49.27 83.2"/><polygon class="cls-14" points="49.27 82.72 48.32 82.18 51.76 80.19 52.7 80.74 49.27 82.72"/><polygon class="cls-12" points="56.68 84.85 55.91 84.2 55.91 83.73 58.23 83.48 58.23 83.95 56.68 84.85"/><polygon class="cls-14" points="56.86 84.27 55.91 83.73 57.29 82.93 58.23 83.48 56.86 84.27"/><polygon class="cls-12" points="56.86 84.27 56.68 84.85 54.59 82.52 54.77 81.94 56.86 84.27"/><polygon class="cls-15" points="56.68 84.85 55.73 84.31 53.64 81.98 54.59 82.52 56.68 84.85"/><polygon class="cls-12" points="51.34 84.4 50.39 83.85 50.39 83.38 54.77 81.94 54.77 82.42 51.34 84.4"/><polygon class="cls-14" points="51.34 83.92 50.39 83.38 53.83 81.39 54.77 81.94 51.34 83.92"/><polygon class="cls-12" points="58.75 86.05 57.98 85.41 57.98 84.93 60.3 84.68 60.3 85.16 58.75 86.05"/><polygon class="cls-14" points="58.93 85.47 57.98 84.93 59.36 84.14 60.3 84.68 58.93 85.47"/><polygon class="cls-12" points="58.93 85.47 58.75 86.05 56.66 83.72 56.84 83.14 58.93 85.47"/><polygon class="cls-15" points="58.75 86.05 57.8 85.51 55.71 83.18 56.66 83.72 58.75 86.05"/><polygon class="cls-12" points="53.41 85.6 52.46 85.06 52.46 84.58 56.84 83.14 56.84 83.62 53.41 85.6"/><polygon class="cls-14" points="53.41 85.12 52.46 84.58 55.9 82.6 56.84 83.14 53.41 85.12"/><polygon class="cls-12" points="60.82 87.26 60.05 86.61 60.05 86.13 62.37 85.88 62.37 86.36 60.82 87.26"/><polygon class="cls-14" points="61 86.67 60.05 86.13 61.43 85.34 62.37 85.88 61 86.67"/><polygon class="cls-12" points="61 86.67 60.82 87.26 58.73 84.92 58.91 84.34 61 86.67"/><polygon class="cls-15" points="60.82 87.26 59.87 86.71 57.78 84.38 58.73 84.92 60.82 87.26"/><polygon class="cls-12" points="55.47 86.8 54.53 86.26 54.53 85.78 58.91 84.34 58.91 84.82 55.47 86.8"/><polygon class="cls-14" points="55.47 86.33 54.53 85.78 57.97 83.8 58.91 84.34 55.47 86.33"/><polygon class="cls-12" points="62.89 88.46 62.13 87.81 62.13 87.33 64.44 87.08 64.44 87.56 62.89 88.46"/><polygon class="cls-14" points="63.07 87.88 62.13 87.33 63.5 86.54 64.44 87.08 63.07 87.88"/><polygon class="cls-12" points="63.07 87.88 62.89 88.46 60.8 86.13 60.98 85.55 63.07 87.88"/><polygon class="cls-15" points="62.89 88.46 61.94 87.91 59.85 85.58 60.8 86.13 62.89 88.46"/><polygon class="cls-12" points="57.54 88 56.6 87.46 56.6 86.98 60.98 85.55 60.98 86.02 57.54 88"/><polygon class="cls-14" points="57.54 87.53 56.6 86.98 60.03 85 60.98 85.55 57.54 87.53"/><polygon class="cls-16" points="32.4 102.78 12.81 91.46 12.79 87.83 32.28 76.57 36.53 76.58 56.19 87.93 56.21 91.49 36.66 102.78 32.4 102.78"/><polygon class="cls-17" points="32.63 101.59 14.26 90.99 14.25 88.1 32.51 77.56 36.3 77.56 54.74 88.2 54.76 91.02 36.42 101.6 32.63 101.59"/><polygon class="cls-18" points="36.16 99.36 36.42 101.6 54.76 91.02 53.42 89.4 36.16 99.36"/><polygon class="cls-19" points="32.9 99.36 15.59 89.37 15.58 87.48 32.78 77.56 36.04 77.56 53.41 87.59 53.42 89.4 36.16 99.36 32.9 99.36"/><polygon class="cls-20" points="15.58 87.48 14.25 88.1 14.26 90.99 15.59 89.37 15.58 87.48"/><polygon class="cls-18" points="32.9 99.36 32.63 101.59 36.42 101.6 36.16 99.36 32.9 99.36"/><polygon class="cls-18" points="53.42 89.4 54.76 91.02 54.74 88.2 53.41 87.59 53.42 89.4"/><g class="cls-21"><polygon class="cls-22" points="13.62 91.17 13.62 26.87 32.48 37.76 32.48 102.06 13.62 91.17"/></g><g class="cls-23"><polygon class="cls-24" points="36.58 102.07 36.58 37.77 32.48 37.76 32.48 102.06 36.58 102.07"/></g><g class="cls-25"><polygon class="cls-26" points="36.58 102.07 36.58 37.77 55.4 26.9 55.4 91.2 36.58 102.07"/></g><path class="cls-27" d="M43.67,50.13A6.38,6.38,0,0,1,46,52.76l.2.45a33.36,33.36,0,0,1,2,5.42c.19.71.35,1.41.46,2.08l1.23,7.4c.11.65-.36.83-1.09.41a4.31,4.31,0,0,1-1.74-2L45.14,61c-.93-2.67-1.74-5.28-2.4-7.8l-.6-2.25c-.23-.87.16-1.29,1-1C43.21,50,43.48,50,43.67,50.13Z"/><path class="cls-27" d="M51.64,68.6l-1.23-7.4c-.12-.71-.28-1.45-.48-2.21a36.51,36.51,0,0,0-2.1-5.74l-.2-.44a10.47,10.47,0,0,0-3.87-4.29,4.5,4.5,0,0,0-.91-.41c-1.31-.42-1.94.27-1.57,1.69L41.87,52q1,3.85,2.45,7.94l1.94,5.51a8.29,8.29,0,0,0,3.31,3.89C51,70.18,51.85,69.84,51.64,68.6Zm-2.82-.08a4.31,4.31,0,0,1-1.74-2L45.14,61c-.93-2.67-1.74-5.28-2.4-7.8l-.6-2.25c-.23-.87.16-1.29,1-1,.1.13.37.15.56.26A6.38,6.38,0,0,1,46,52.76l.2.45a33.36,33.36,0,0,1,2,5.42c.19.71.35,1.41.46,2.08l1.23,7.4C50,68.76,49.55,68.94,48.82,68.52Z"/><path class="cls-28" d="M53.48,67l-1.24-7.39a19.58,19.58,0,0,0-.48-2.21,36.5,36.5,0,0,0-2.09-5.75l-.2-.44a10.51,10.51,0,0,0-3.87-4.28,4.57,4.57,0,0,0-.91-.42,1.41,1.41,0,0,0-1.37.11l-1.83,1.63a1.37,1.37,0,0,1,1.36-.1,4.5,4.5,0,0,1,.91.41,10.47,10.47,0,0,1,3.87,4.29l.2.44A36.51,36.51,0,0,1,49.93,59c.2.76.36,1.5.48,2.21l1.23,7.4a1.07,1.07,0,0,1-.22,1L53.25,68A1.09,1.09,0,0,0,53.48,67Z"/><path class="cls-29" d="M48.09,55.74c0,1.65-1.39,20.15-13.71,20.15S20.5,56.42,20.5,55.75Z"/><path class="cls-30" d="M48,54.65c-.08-.32-.2-.75-.31-1.06s-.31-.76-.46-1.08a10.83,10.83,0,0,0-1.08-1.78A11.63,11.63,0,0,0,44.54,49a12.1,12.1,0,0,0-2-1.43,10.45,10.45,0,0,0-.93-.51l-.74-.35a17,17,0,0,0-1.64-.59,13,13,0,0,0-1.62-.4c-.6-.12-1.24-.2-1.6-.24l-.8-.06-.8,0c-.23,0-.55,0-.79,0-.51,0-1.12.08-1.61.13,0,0-.79.1-1.63.29l-.87.22c-.24.06-.55.17-.78.24s-.67.25-.95.36l-.76.34a10.37,10.37,0,0,0-1,.53c-.41.25-1,.61-1.35.9a13.56,13.56,0,0,0-1.2,1.06,10.66,10.66,0,0,0-.9,1c-.13.19-.33.43-.45.62s-.44.71-.61,1a9.26,9.26,0,0,0-.47,1c-.16.42-.34,1-.46,1.44-.58,2.36.67,4.85,3.76,6.7,5.31,3.17,14.05,3.26,19.51.19C47.18,59.64,48.54,57.09,48,54.65Zm-9.8-2.18a8.63,8.63,0,0,1-7.81-.08c-2.12-1.27-2.07-3.29.11-4.52a8.6,8.6,0,0,1,7.81.08C40.39,49.22,40.34,51.24,38.16,52.47Z"/><path class="cls-31" d="M37.43,75.46a10.55,10.55,0,0,1-3,.43c-9.16,0-12.26-11-13.22-16.56A50.85,50.85,0,0,1,26,56.12l.71-.4a1.82,1.82,0,0,1,.38.4c1.93,2.63.7,11.14,2,15.1C30.28,74.62,33.64,75.69,37.43,75.46Z"/><path class="cls-32" d="M41.34,54.76a15.64,15.64,0,0,1-14.15,0c-3.93-2.27-4-5.93-.05-8.18a15.67,15.67,0,0,1,14.16,0C45.22,48.85,45.24,52.51,41.34,54.76Z"/><path class="cls-33" d="M25.4,51.69c.32.19.74.43,1.07.59a18,18,0,0,0,1.68.71c.26.09.6.21.87.28.48.13,1.12.29,1.61.39a8.79,8.79,0,0,0,.87.15l.84.11.84.06L34,54h.85l.87,0c.5-.05,1.18-.14,1.68-.21.27,0,.63-.12.9-.18l.81-.21,1-.29c.34-.11.78-.29,1.11-.43s1-.48,1.43-.71.82-.49,1.16-.72a8.26,8.26,0,0,0,.76-.56c.32-.26.72-.63,1-.91a10.09,10.09,0,0,1-2.24,1.65c-5.24,2.92-13.55,2.84-18.58-.19a9.76,9.76,0,0,1-1.84-1.4l.84.76.42.32C24.54,51.14,25,51.46,25.4,51.69Z"/><path class="cls-34" d="M35.75,54c6.93,0,14.14-6.89,14.14-11.58a25.56,25.56,0,0,0-.94-7.2c-1.48-5-29.08-2.51-29.63,1-.13.86-.16,1.47-.2,1.68-.18,1-1.3,7,3,11.09S30.5,54,35.75,54Z"/><path class="cls-35" d="M49.15,35.91a9.6,9.6,0,0,0-.34-1.16,10.89,10.89,0,0,0-.49-1.18,11.43,11.43,0,0,0-1.18-1.94,13,13,0,0,0-1.71-1.86,14.33,14.33,0,0,0-2.14-1.56c-.29-.18-.69-.39-1-.55l-.81-.38a15.48,15.48,0,0,0-1.79-.65,16,16,0,0,0-1.76-.43c-.66-.13-1.35-.22-1.74-.26s-.61-.06-.87-.07l-.87,0c-.26,0-.61,0-.87,0-.55,0-1.22.08-1.75.13,0,0-.87.11-1.77.31l-1,.25-.85.26c-.31.1-.73.27-1,.39l-.82.37c-.33.15-.76.39-1.07.57s-1,.67-1.47,1a12.07,12.07,0,0,0-1.31,1.16,11.22,11.22,0,0,0-1,1.09c-.15.21-.36.47-.49.68s-.48.77-.67,1.1a9.67,9.67,0,0,0-.5,1.09c-.18.47-.38,1.1-.51,1.57-.63,2.57.73,5.29,4.1,7.3,5.78,3.46,15.3,3.55,21.24.22C48.31,41.33,49.79,38.56,49.15,35.91Z"/><path class="cls-36" d="M49.72,40.93A7.09,7.09,0,0,1,49.56,43c-.56,1.84-2,3.52-4.51,4.91C40.82,50.31,34.9,51,29.66,50.1c-1.63-.37-2.24-.51-3-7.49-.11-2,.57-2.1,1.16-2,5.08,1.55,11.53,1.13,15.91-1.31,2.86-1.59,4.26-3.73,4.21-5.85V33.3a.57.57,0,0,1,.22.19A19.18,19.18,0,0,1,49.72,40.93Z"/><path class="cls-37" d="M37,46.79h-.62a1,1,0,0,1-1.13-1.07v-.58a1.38,1.38,0,0,1,1.23-1.42l.2,0A1.33,1.33,0,0,1,38,45.06l0,.6C38,46.48,37.71,46.73,37,46.79Z"/><path class="cls-37" d="M46.06,43.47l-.14.07c-.5.26-1,.14-1.11-.63l-.1-.58a1.83,1.83,0,0,1,.54-1.84l.13-.08c.48-.29,1,.09,1.18.87l.12.59A1.32,1.32,0,0,1,46.06,43.47Z"/><path class="cls-37" d="M40.69,48.14l-.18-.65a16.29,16.29,0,0,0,2.62-.91l.34.57A18,18,0,0,1,40.69,48.14Z"/><path class="cls-38" d="M22.5,56.07a3.64,3.64,0,0,1,1.57,3.1v.56a35.39,35.39,0,0,1-.73,7q-.29,1.41-.69,2.76l-3,9.85a1.16,1.16,0,0,1-1.75.79,2.58,2.58,0,0,1-1.09-2.43l.85-7.12q.61-5.19,1.64-10.16l.61-2.95c.23-1.13,1-1.8,2-1.62C22,56,22.3,56,22.5,56.07Z"/><path class="cls-39" d="M23.25,54.34a3,3,0,0,0-1-.37c-1.52-.29-2.83.78-3.21,2.64l-.61,2.94c-.7,3.37-1.26,6.82-1.67,10.33L15.93,77A4.89,4.89,0,0,0,18,81.62a2.2,2.2,0,0,0,3.33-1.5l3-9.85c.28-1,.53-1.92.74-2.92a38.07,38.07,0,0,0,.76-7.41v-.56A5.89,5.89,0,0,0,23.25,54.34Zm.09,12.38q-.29,1.41-.69,2.76l-3,9.85a1.16,1.16,0,0,1-1.75.79,2.58,2.58,0,0,1-1.09-2.43l.85-7.12q.61-5.19,1.64-10.16l.61-2.95c.23-1.13,1-1.8,2-1.62.07.15.41.12.61.23a3.64,3.64,0,0,1,1.57,3.1v.56A35.39,35.39,0,0,1,23.34,66.72Z"/><path class="cls-40" d="M25.08,53.84a3,3,0,0,0-1-.37,2.43,2.43,0,0,0-1.11,0L21.15,54a2.48,2.48,0,0,1,1.12,0,3,3,0,0,1,1,.37,5.89,5.89,0,0,1,2.57,5v.56a38.07,38.07,0,0,1-.76,7.41c-.21,1-.46,2-.74,2.92l-3,9.85A2.47,2.47,0,0,1,19.7,81.9l1.83-.5a2.45,2.45,0,0,0,1.62-1.78l3-9.85c.29-1,.53-1.92.74-2.92a38,38,0,0,0,.77-7.4v-.57A5.89,5.89,0,0,0,25.08,53.84Z"/><g class="cls-7"><path class="cls-41" d="M73.71,26l-.34.3a10.34,10.34,0,0,1-1.65,1.2l.5-.42A9.21,9.21,0,0,0,73.71,26Z"/><path class="cls-41" d="M77.79,18.64l-.09.44a8.87,8.87,0,0,0,.2-1.89l.12-.65A10.22,10.22,0,0,1,77.79,18.64Z"/><polygon class="cls-41" points="72.22 27.03 71.72 27.45 64.15 31.82 64.37 31.57 72.22 27.03"/><polygon class="cls-41" points="77.87 6.39 77.99 5.74 78.02 16.54 77.9 17.19 77.87 6.39"/><polygon class="cls-42" points="58.46 42.86 56.28 41.59 56.57 33.63 58.75 34.89 58.46 42.86"/><polygon class="cls-41" points="59.65 40.71 58.46 42.86 58.75 34.89 59.89 34.19 59.65 40.71"/><path class="cls-42" d="M74,.43l2.18,1.26c-1.15-.67-2.74-.57-4.5.44L69.47.87C71.23-.15,72.82-.24,74,.43Z"/><path class="cls-41" d="M72.15,3.13l-.5-1C75.14.12,78,1.73,78,5.74l-.12.65C77.86,2.77,75.3,1.31,72.15,3.13Z"/><path class="cls-41" d="M59.89,34.19l-1.14.7c-3.16,1.42-5.62-.24-5.63-4l1.12-.07C54.25,34.22,56.47,35.72,59.89,34.19Z"/><path class="cls-42" d="M55,35,52.79,33.7C51.65,33,51,31.64,51,29.65l2.17,1.27C53.13,32.91,53.83,34.31,55,35Z"/><polygon class="cls-42" points="53.12 30.92 50.95 29.65 50.91 18.85 53.09 20.12 53.12 30.92"/><polygon class="cls-41" points="54.24 30.85 53.12 30.92 53.09 20.12 54.21 20.05 54.24 30.85"/><polygon class="cls-42" points="59.39 9.21 57.21 7.95 69.47 0.87 71.65 2.13 59.39 9.21"/><polygon class="cls-41" points="59.89 10.21 59.39 9.21 71.65 2.13 72.15 3.13 59.89 10.21"/><path class="cls-41" d="M51.14,16.75l0-.24.05-.2a13.22,13.22,0,0,1,4-6.86h0l.33-.3A14.71,14.71,0,0,0,51.14,16.75Z"/><path class="cls-43" d="M72.15,3.13c3.15-1.82,5.71-.36,5.72,3.26l0,10.8A12.5,12.5,0,0,1,72.22,27l-7.85,4.54-4.72,9.14.24-6.52c-3.42,1.53-5.64,0-5.65-3.34l0-10.8a12.51,12.51,0,0,1,5.68-9.84Z"/><path class="cls-41" d="M54.21,20.05l-1.12.07a13.9,13.9,0,0,1,6.3-10.91l.5,1A12.51,12.51,0,0,0,54.21,20.05Z"/><path class="cls-42" d="M53.09,20.12l-2.18-1.27A13.86,13.86,0,0,1,57.21,8l2.18,1.26A13.9,13.9,0,0,0,53.09,20.12Z"/></g><g class="cls-7"><path class="cls-42" d="M64.53,26.32l-1.19-.69a.6.6,0,0,1-.24-.35l1.2.69A.52.52,0,0,0,64.53,26.32Z"/><polygon class="cls-42" points="64.3 25.97 63.1 25.28 62.66 23.9 63.85 24.59 64.3 25.97"/><path class="cls-42" d="M59.8,29l-1.19-.69a.34.34,0,0,1-.13-.39l1.19.69A.34.34,0,0,0,59.8,29Z"/><polygon class="cls-42" points="61.65 24.49 60.46 23.8 62.33 22.73 63.52 23.42 61.65 24.49"/><polygon class="cls-42" points="63.52 23.42 62.33 22.73 61.4 19.56 62.59 20.25 63.52 23.42"/><polygon class="cls-42" points="59.67 28.64 58.48 27.95 60.78 17.38 61.97 18.07 59.67 28.64"/><path class="cls-42" d="M61.77,16.28,63,17c-.1-.06-.22-.05-.4.05a1.43,1.43,0,0,0-.6,1l-1.19-.69a1.45,1.45,0,0,1,.6-1.05A.39.39,0,0,1,61.77,16.28Z"/><path class="cls-44" d="M65.51,25.27a1.19,1.19,0,0,1-.57,1c-.37.22-.56,0-.64-.31l-.45-1.38-2.52,1.46L60.88,28A1.61,1.61,0,0,1,60.24,29c-.33.19-.65,0-.57-.36L62,18.07a1.43,1.43,0,0,1,.6-1c.39-.23.54,0,.62.34Zm-3.86-.78,1.87-1.07-.93-3.17h0l-.92,4.23Z"/></g><g class="cls-7"><path class="cls-42" d="M72.73,19.23l1.19.69a.46.46,0,0,0-.44.07l-1.19-.69A.44.44,0,0,1,72.73,19.23Z"/><polygon class="cls-42" points="71.73 21 70.54 20.3 72.29 19.3 73.48 19.99 71.73 21"/><polygon class="cls-42" points="68.8 22.69 67.61 22 69.36 20.99 70.55 21.68 68.8 22.69"/><path class="cls-42" d="M68.37,24.12l-1.19-.69c-.1-.06-.16-.19-.16-.41a1.15,1.15,0,0,1,.59-1l1.19.69a1.17,1.17,0,0,0-.59,1C68.21,23.94,68.27,24.06,68.37,24.12Z"/><path class="cls-42" d="M72.7,10l1.19.69c-.11-.07-.27,0-.44.07l-1.19-.7A.46.46,0,0,1,72.7,10Z"/><polygon class="cls-42" points="70.55 21.68 69.36 20.99 69.33 13.11 70.53 13.8 70.55 21.68"/><polygon class="cls-42" points="68.78 13.45 67.58 12.75 72.26 10.05 73.45 10.75 68.78 13.45"/><path class="cls-42" d="M68.34,14.88l-1.19-.7c-.09,0-.16-.18-.16-.4a1.19,1.19,0,0,1,.6-1l1.19.69a1.16,1.16,0,0,0-.59,1A.46.46,0,0,0,68.34,14.88Z"/><path class="cls-44" d="M73.45,10.75c.31-.18.6-.16.6.33a1.19,1.19,0,0,1-.59,1l-1.75,1,0,7.88,1.75-1c.31-.18.59-.15.59.34a1.17,1.17,0,0,1-.59,1l-4.67,2.7c-.31.18-.6.15-.6-.34a1.17,1.17,0,0,1,.59-1l1.75-1,0-7.88-1.75,1c-.31.18-.59.15-.59-.34a1.16,1.16,0,0,1,.59-1Z"/></g></g></g></g></svg>