<svg xmlns="http://www.w3.org/2000/svg" xmlns:xlink="http://www.w3.org/1999/xlink" viewBox="0 0 50.81 55.82"><defs><style>.cls-1{isolation:isolate;}.cls-2{fill:url(#linear-gradient);}.cls-3{fill:url(#linear-gradient-2);}.cls-4{fill:url(#linear-gradient-3);}.cls-5{fill:url(#linear-gradient-4);}.cls-6{fill:url(#linear-gradient-5);}.cls-7{fill:#c0baca;}.cls-8{fill:url(#linear-gradient-6);}.cls-9{fill:#ebebeb;mix-blend-mode:multiply;}.cls-10{fill:#d4d5e6;}.cls-11{fill:url(#linear-gradient-7);}.cls-12{fill:url(#linear-gradient-8);}.cls-13{fill:url(#linear-gradient-9);}.cls-14{fill:#003447;}.cls-15{fill:#0bf;}.cls-16{fill:url(#linear-gradient-10);}.cls-17{fill:url(#linear-gradient-11);}.cls-18{fill:url(#linear-gradient-12);}</style><linearGradient id="linear-gradient" x1="35" y1="36.16" x2="39.59" y2="28.54" gradientUnits="userSpaceOnUse"><stop offset="0.26" stop-color="#caccde"/><stop offset="0.6" stop-color="#cdcfe0"/><stop offset="0.87" stop-color="#d7d7e8"/><stop offset="1" stop-color="#dfdeee"/></linearGradient><linearGradient id="linear-gradient-2" x1="43.09" y1="38.12" x2="32.59" y2="19.94" gradientUnits="userSpaceOnUse"><stop offset="0.15" stop-color="#eae9f2"/><stop offset="0.52" stop-color="#e7e7f0"/><stop offset="0.75" stop-color="#dfdfeb"/><stop offset="0.94" stop-color="#d1d2e2"/><stop offset="1" stop-color="#caccde"/></linearGradient><linearGradient id="linear-gradient-3" x1="47.09" y1="40.89" x2="50.26" y2="35.4" gradientUnits="userSpaceOnUse"><stop offset="0.26" stop-color="#caccde"/><stop offset="0.85" stop-color="#eae9f2"/></linearGradient><linearGradient id="linear-gradient-4" x1="35.17" y1="36.26" x2="39.75" y2="28.63" xlink:href="#linear-gradient"/><linearGradient id="linear-gradient-5" x1="4.58" y1="39.76" x2="32.02" y2="39.76" gradientUnits="userSpaceOnUse"><stop offset="0.37" stop-color="#caccde"/><stop offset="0.97" stop-color="#eae9f2"/></linearGradient><linearGradient id="linear-gradient-6" x1="13.36" y1="38.07" x2="23.78" y2="20.03" gradientUnits="userSpaceOnUse"><stop offset="0" stop-color="#caccde"/><stop offset="0.56" stop-color="#eae9f2"/></linearGradient><linearGradient id="linear-gradient-7" x1="16.19" y1="25.89" x2="37.4" y2="25.89" gradientUnits="userSpaceOnUse"><stop offset="0.24" stop-color="#a8a4b5"/><stop offset="1" stop-color="#dbd3e2"/></linearGradient><linearGradient id="linear-gradient-8" x1="5.41" y1="43.78" x2="27.36" y2="-5.85" xlink:href="#linear-gradient-5"/><linearGradient id="linear-gradient-9" x1="12.9" y1="20.27" x2="24.24" y2="0.61" xlink:href="#linear-gradient-6"/><linearGradient id="linear-gradient-10" x1="7.45" y1="58.96" x2="1.79" y2="27.1" gradientUnits="userSpaceOnUse"><stop offset="0" stop-color="#caccde"/><stop offset="1" stop-color="#dfdeee"/></linearGradient><linearGradient id="linear-gradient-11" x1="5.88" y1="56.63" x2="3.86" y2="26.14" xlink:href="#linear-gradient-10"/><linearGradient id="linear-gradient-12" x1="12.35" y1="51.43" x2="0.43" y2="30.78" gradientUnits="userSpaceOnUse"><stop offset="0.68" stop-color="#d2d3e5"/><stop offset="0.81" stop-color="#eae9f2"/></linearGradient></defs><g class="cls-1"><g id="Layer_2" data-name="Layer 2"><g id="Layer_1-2" data-name="Layer 1"><path class="cls-2" d="M47.23,38.19a2.08,2.08,0,0,1,.12,1.42,1.21,1.21,0,0,1-1.88.58l-6.06-3.36c-2.93-1.62-5.83-3.41-8.69-5.34l-2.54-1.71a3.92,3.92,0,0,1-1.35-1.66c-.18-.44-.12-1.2-.27-1.35A1.7,1.7,0,0,1,29,25.09l.47.18a31.26,31.26,0,0,1,5.93,3.17c.81.55,1.61,1.14,2.39,1.77l8.63,6.94A2.67,2.67,0,0,1,47.23,38.19Z"/><path class="cls-3" d="M40.33,27.71c-.83-.67-1.68-1.3-2.54-1.88a32.6,32.6,0,0,0-6.28-3.35L31,22.3a3,3,0,0,0-2.74.12l-1.56,1a3,3,0,0,1,2.74-.13l.47.19a33.2,33.2,0,0,1,6.28,3.35c.86.58,1.71,1.21,2.54,1.87l8.62,6.94,1.56-1Z"/><path class="cls-4" d="M50.44,36.62a5.11,5.11,0,0,0-1.49-2l-1.56,1a5,5,0,0,1,1.48,2,3.94,3.94,0,0,1,.23,2.7,2.17,2.17,0,0,1-.9,1.21l1.57-1a2.19,2.19,0,0,0,.89-1.22A4,4,0,0,0,50.44,36.62Z"/><path class="cls-5" d="M48.87,37.62a5,5,0,0,0-1.48-2L38.77,28.7c-.83-.66-1.68-1.29-2.54-1.87A33.2,33.2,0,0,0,30,23.48l-.47-.19a2.78,2.78,0,0,0-4,2.74,5.4,5.4,0,0,0,.46,2.2,6.22,6.22,0,0,0,2.19,2.7l2.54,1.71q4.35,3,8.84,5.43l6.06,3.36c1.54.86,3.08.38,3.56-1.11A3.94,3.94,0,0,0,48.87,37.62Zm-1.52,2a1.21,1.21,0,0,1-1.88.58l-6.06-3.36c-2.93-1.62-5.83-3.41-8.69-5.34l-2.54-1.71a3.92,3.92,0,0,1-1.35-1.66c-.18-.44-.12-1.2-.27-1.35A1.7,1.7,0,0,1,29,25.09l.47.18a31.26,31.26,0,0,1,5.93,3.17c.81.55,1.61,1.14,2.39,1.77l8.63,6.94a2.67,2.67,0,0,1,.78,1A2.08,2.08,0,0,1,47.35,39.61Z"/><path class="cls-6" d="M32,29.74c0,1.63-1.39,20-13.64,20s-13.8-19.37-13.8-20Z"/><path class="cls-7" d="M22.14,26.48a8.53,8.53,0,0,1-7.76-.08c-2.11-1.26-2.07-3.27.11-4.49a8.53,8.53,0,0,1,7.76.08C24.36,23.25,24.31,25.26,22.14,26.48Z"/><path class="cls-8" d="M31.89,28.65c-.08-.32-.2-.74-.31-1s-.3-.76-.45-1.08a11.18,11.18,0,0,0-1.08-1.77,11.54,11.54,0,0,0-1.56-1.7,14.14,14.14,0,0,0-1.95-1.43c-.27-.16-.64-.35-.92-.5l-.74-.34a17.17,17.17,0,0,0-1.63-.6c-.07,0-.69-.21-1.61-.39-.61-.12-1.24-.2-1.6-.24l-.79-.06-.79,0c-.24,0-.56,0-.8,0-.5,0-1.11.07-1.6.12,0,0-.79.1-1.61.28-.27.06-.62.15-.88.23s-.54.16-.77.24-.67.24-1,.36L11.1,21a9.12,9.12,0,0,0-1,.53,14.93,14.93,0,0,0-1.34.9A11.77,11.77,0,0,0,6.7,24.52c-.14.19-.33.43-.46.63s-.43.69-.6,1a7.52,7.52,0,0,0-.46,1c-.16.42-.34,1-.47,1.43-.57,2.35.67,4.82,3.75,6.66,5.28,3.16,14,3.25,19.4.2C31.12,33.61,32.47,31.07,31.89,28.65Zm-9.75-2.17a8.53,8.53,0,0,1-7.76-.08c-2.11-1.26-2.07-3.27.11-4.49a8.53,8.53,0,0,1,7.76.08C24.36,23.25,24.31,25.26,22.14,26.48Z"/><path class="cls-9" d="M21.42,49.35a10.48,10.48,0,0,1-3,.43c-9.11,0-12.19-10.9-13.15-16.48a48.52,48.52,0,0,1,4.86-3.18l.71-.41a2.11,2.11,0,0,1,.37.41c1.92,2.61.69,11.08,2,15C14.31,48.52,17.64,49.58,21.42,49.35Z"/><ellipse class="cls-10" cx="18.25" cy="24.69" rx="5.75" ry="9.96" transform="translate(-6.54 42.8) rotate(-89.69)"/><path class="cls-11" d="M9.45,25.71a11.06,11.06,0,0,0,1.07.58,15.06,15.06,0,0,0,1.66.71c.26.09.61.21.87.28.48.13,1.12.29,1.6.39a8.79,8.79,0,0,0,.87.15c.25,0,.58.08.83.1l.84.07L18,28c.26,0,.6,0,.85,0a8.46,8.46,0,0,0,.87-.05c.5-.05,1.17-.13,1.66-.21.27,0,.63-.11.9-.17l.81-.21,1-.29c.34-.11.78-.29,1.1-.43s1-.47,1.43-.7.81-.49,1.15-.72a8.26,8.26,0,0,0,.76-.56c.31-.26.72-.62,1-.9A10.3,10.3,0,0,1,27.3,25.4c-5.2,2.9-13.48,2.82-18.47-.19A9.75,9.75,0,0,1,7,23.82c.24.23.58.53.83.75l.42.33C8.59,25.16,9.08,25.48,9.45,25.71Z"/><path class="cls-12" d="M19.75,28c6.89,0,14.06-6.84,14.06-11.51a25.2,25.2,0,0,0-.93-7.16C31.41,4.33,4,6.78,3.4,10.3c-.13.85-.16,1.47-.19,1.67-.18,1-1.3,7,3,11S14.52,28,19.75,28Z"/><path class="cls-13" d="M33.08,10c-.09-.35-.22-.81-.34-1.15s-.33-.83-.49-1.17a11.43,11.43,0,0,0-1.18-1.94,11.81,11.81,0,0,0-1.7-1.84,14.43,14.43,0,0,0-2.12-1.56c-.29-.18-.7-.39-1-.54s-.56-.27-.81-.38A15.29,15.29,0,0,0,23.67.78c-.08,0-.75-.23-1.75-.43C21.26.22,20.57.13,20.18.09L19.32,0l-.87,0h-.87c-.54,0-1.2.08-1.74.14a17.34,17.34,0,0,0-1.76.31c-.28.06-.66.16-.95.24L12.29,1c-.32.1-.73.27-1,.39s-.57.26-.82.37a10.81,10.81,0,0,0-1.06.57c-.45.27-1,.66-1.46,1A15.85,15.85,0,0,0,6.61,4.42a11.11,11.11,0,0,0-1,1.09c-.15.2-.35.47-.49.68S4.68,7,4.49,7.28A7.52,7.52,0,0,0,4,8.36c-.18.46-.37,1.09-.51,1.56-.62,2.56.73,5.26,4.08,7.26,5.75,3.44,15.21,3.54,21.13.22C32.24,15.41,33.71,12.64,33.08,10Z"/><path class="cls-14" d="M33.21,15a6.8,6.8,0,0,1-.16,2.06c-.54,1.79-2,3.43-4.4,4.79-4.13,2.3-9.91,3-15,2.09-1.59-.35-2.19-.49-3-7.3-.1-1.92.56-2,1.14-2,5,1.52,11.25,1.11,15.53-1.28,2.78-1.55,4.16-3.63,4.1-5.71V7.59a.58.58,0,0,1,.23.18A18.88,18.88,0,0,1,33.21,15Z"/><path class="cls-15" d="M25,21.92a5.27,5.27,0,0,1-.53,0l.11-.65a2.57,2.57,0,0,0,2.32-.8l.53.38A2.91,2.91,0,0,1,25,21.92Z"/><path class="cls-15" d="M20.51,21.57h-.2a1.63,1.63,0,0,1-1.16-.49,1.93,1.93,0,0,1-.54-1.36v-.56a1.8,1.8,0,0,1,1.64-1.85h.19a1.58,1.58,0,0,1,1.19.44,1.85,1.85,0,0,1,.59,1.32l0,.58a1.94,1.94,0,0,1-.53,1.41A1.65,1.65,0,0,1,20.51,21.57Zm0-3.36H20.3a.9.9,0,0,0-.78.94v.56a1,1,0,0,0,.28.71.68.68,0,0,0,.51.23h.2a.77.77,0,0,0,.54-.24,1,1,0,0,0,.28-.75l0-.59a1,1,0,0,0-.3-.67A.71.71,0,0,0,20.52,18.21Z"/><path class="cls-15" d="M29.22,18.46a1.07,1.07,0,0,1-.46-.11,1.74,1.74,0,0,1-.84-1.28l-.1-.56a2.27,2.27,0,0,1,.79-2.29l.13-.08a1.06,1.06,0,0,1,1-.07,1.6,1.6,0,0,1,.85,1.21l.12.58a2.23,2.23,0,0,1-.84,2.41l-.14.07A1.07,1.07,0,0,1,29.22,18.46Zm.08-3.57-.09,0-.13.08a1.45,1.45,0,0,0-.36,1.35l.1.56a.88.88,0,0,0,.34.62.12.12,0,0,0,.13,0l.14-.07a1.43,1.43,0,0,0,.37-1.41l-.12-.58a.77.77,0,0,0-.33-.56Z"/><path class="cls-16" d="M6.56,30.06a3.62,3.62,0,0,1,1.57,3.08v.56a35.85,35.85,0,0,1-.72,7c-.2.94-.43,1.85-.7,2.74l-3,9.8A1.15,1.15,0,0,1,2,54,2.54,2.54,0,0,1,.92,51.57l.84-7.09q.62-5.15,1.63-10.1L4,31.45c.23-1.13,1-1.79,2-1.61C6,30,6.37,30,6.56,30.06Z"/><path class="cls-17" d="M7.31,28.34a3.24,3.24,0,0,0-1-.37c-1.51-.28-2.81.79-3.19,2.63l-.6,2.93C1.84,36.88,1.29,40.31.87,43.8L0,50.89a4.86,4.86,0,0,0,2.05,4.59c1.38.8,2.81.15,3.31-1.5l3-9.79c.29-.95.54-1.91.74-2.91a37.55,37.55,0,0,0,.76-7.36v-.56A5.91,5.91,0,0,0,7.31,28.34Zm.1,12.32c-.2.94-.43,1.85-.7,2.74l-3,9.8A1.15,1.15,0,0,1,2,54,2.54,2.54,0,0,1,.92,51.57l.84-7.09q.62-5.15,1.63-10.1L4,31.45c.23-1.13,1-1.79,2-1.61.07.14.41.11.6.22a3.62,3.62,0,0,1,1.57,3.08v.56A35.85,35.85,0,0,1,7.41,40.66Z"/><path class="cls-18" d="M9.14,27.85a3.09,3.09,0,0,0-1-.37,2.58,2.58,0,0,0-1.11,0L5.23,28a2.53,2.53,0,0,1,1.1,0,3.24,3.24,0,0,1,1,.37,5.91,5.91,0,0,1,2.56,5v.56a37.55,37.55,0,0,1-.76,7.36c-.2,1-.45,2-.74,2.91L5.39,54a2.42,2.42,0,0,1-1.61,1.77l1.82-.49a2.46,2.46,0,0,0,1.61-1.77l3-9.8c.28-.94.53-1.91.73-2.9a37.65,37.65,0,0,0,.77-7.37v-.56A5.87,5.87,0,0,0,9.14,27.85Z"/></g></g></g></svg>