<svg xmlns="http://www.w3.org/2000/svg" xmlns:xlink="http://www.w3.org/1999/xlink" viewBox="0 0 65.78 87.87"><defs><style>.cls-1{fill:none;}.cls-2{isolation:isolate;}.cls-3{fill:#2462e0;}.cls-4{fill:#184296;}.cls-5{clip-path:url(#clip-path);}.cls-6{fill:#ff1f41;}.cls-7{clip-path:url(#clip-path-2);}.cls-8{clip-path:url(#clip-path-3);}.cls-9{fill:#9e2a23;}.cls-10{clip-path:url(#clip-path-4);}.cls-11{fill:#ff4339;}.cls-12{clip-path:url(#clip-path-5);}.cls-13{clip-path:url(#clip-path-6);}.cls-14{clip-path:url(#clip-path-7);}.cls-15{clip-path:url(#clip-path-8);}.cls-16{fill:url(#linear-gradient);}.cls-17{fill:url(#linear-gradient-2);}.cls-18{fill:#cfd0e0;}.cls-19{fill:url(#linear-gradient-3);}.cls-20{fill:url(#linear-gradient-4);}.cls-21{fill:#c0baca;}.cls-22{fill:url(#linear-gradient-5);}.cls-23{fill:#ebebeb;mix-blend-mode:multiply;}.cls-24{fill:#d4d5e6;}.cls-25{fill:url(#linear-gradient-6);}.cls-26{fill:url(#linear-gradient-7);}.cls-27{fill:url(#linear-gradient-8);}.cls-28{fill:#003447;}.cls-29{fill:url(#linear-gradient-9);}.cls-30{fill:url(#linear-gradient-10);}.cls-31{fill:url(#linear-gradient-11);}.cls-32{clip-path:url(#clip-path-9);}.cls-33{clip-path:url(#clip-path-10);}.cls-34{clip-path:url(#clip-path-11);}.cls-35{fill:#d90425;}.cls-36{clip-path:url(#clip-path-12);}.cls-37{clip-path:url(#clip-path-13);}.cls-38{fill:url(#linear-gradient-12);}.cls-39{fill:url(#linear-gradient-13);}.cls-40{fill:#d5c197;}.cls-41{fill:#81765d;}.cls-42{fill:#0bf;}.cls-43{fill:#36d954;}.cls-44{fill:#16b333;}.cls-45{fill:#5bf06d;}.cls-46{clip-path:url(#clip-path-14);}.cls-47{clip-path:url(#clip-path-15);}.cls-48{fill:#feffff;}.cls-49{clip-path:url(#clip-path-16);}.cls-50{clip-path:url(#clip-path-17);}.cls-51{clip-path:url(#clip-path-18);}.cls-52{clip-path:url(#clip-path-19);}.cls-53{fill:url(#linear-gradient-14);}.cls-54{fill:url(#linear-gradient-15);}</style><clipPath id="clip-path"><path class="cls-1" d="M40.79,68c0-.05,0-.13,0-.18a1.8,1.8,0,0,0-.06-.22,1.65,1.65,0,0,0-.22-.42,2.43,2.43,0,0,0-.24-.32,5.78,5.78,0,0,0-.5-.49,6.58,6.58,0,0,0-1-.72c-.24-.14-.55-.31-.79-.43s-.45-.21-.64-.3a9,9,0,0,0-.86-.33l-.86-.28c-.25-.07-.6-.17-.86-.22l-.93-.19c-.28-.06-.65-.12-.94-.15s-.68-.09-1-.11l-1-.07a22.5,22.5,0,0,0-3,.07c-.56.06-1.32.15-1.89.25-.85.16-1.46.33-1.75.41a15,15,0,0,0-1.56.54,11,11,0,0,0-1.29.63c-.18.09-.41.24-.58.35s-.29.2-.41.29a6,6,0,0,0-.66.59,3.64,3.64,0,0,0-.45.61,1.79,1.79,0,0,0-.15.37.36.36,0,0,1,0,.1c0,.05,0,.11,0,.16,0-1.59,1-3.18,3.14-4.39a16.78,16.78,0,0,1,15.27,0C39.73,64.82,40.79,66.43,40.79,68Z"/></clipPath><clipPath id="clip-path-2"><path class="cls-1" d="M40.79,67v1c0-1.61-1.06-3.22-3.19-4.45a16.78,16.78,0,0,0-15.27,0c-2.09,1.21-3.14,2.8-3.14,4.39V67c0-1.59,1-3.18,3.14-4.39a16.78,16.78,0,0,1,15.27,0C39.73,63.79,40.79,65.4,40.79,67Z"/></clipPath><clipPath id="clip-path-3"><path class="cls-1" d="M54.58,68.08c0,.44,0,1-.11,1.47s-.12.69-.18,1c0,.1,0,.23-.08.33a2.52,2.52,0,0,0,.09-.67A8.51,8.51,0,0,0,54.58,68.08Z"/></clipPath><clipPath id="clip-path-4"><path class="cls-1" d="M54.58,67.05v1a8.51,8.51,0,0,1-.28,2.12v-1A8.07,8.07,0,0,0,54.58,67.05Z"/></clipPath><clipPath id="clip-path-5"><path class="cls-1" d="M21.42,69.42l.59.31.76.35c.45.18,1.06.39,1.52.53.28.09.65.19.94.25l.92.2.94.15c.29,0,.68.08,1,.1s.69.06,1,.07l1,0A23.57,23.57,0,0,0,33,71.21l.94-.15.9-.19c.27-.06.63-.15.89-.23.46-.15,1.07-.35,1.51-.53a13.35,13.35,0,0,0,1.3-.62c.18-.1.41-.25.58-.36s.29-.2.41-.29a5.44,5.44,0,0,0,.65-.59,4,4,0,0,0,.46-.61,1.35,1.35,0,0,0,.14-.37.62.62,0,0,0,0-.1s0-.11,0-.16c0-1.61-1.06-3.22-3.19-4.45a16.78,16.78,0,0,0-15.27,0c-2.09,1.21-3.13,2.8-3.14,4.39h0a.28.28,0,0,0,0,.09.52.52,0,0,0,0,.18,2,2,0,0,0,.09.26,2.92,2.92,0,0,0,.41.61l.23.25c.12.11.28.27.41.37l.4.3.65.41c-.83-.48-2.11-.35-3.56.49C11.11,66,11.07,59.7,17.78,55.8s17.61-3.9,24.37,0,6.78,10.21.07,14.11-17.6,3.9-24.36,0C19.31,69.07,20.59,68.94,21.42,69.42Z"/></clipPath><clipPath id="clip-path-6"><path class="cls-1" d="M54.21,70.87c0,.15-.1.36-.15.52s-.13.41-.2.59c-.22.59-.46,1.07-.46,1.07-.07.15-.17.35-.25.49s-.21.39-.31.55-.43.66-.62.94-.27.36-.39.51-.52.65-.8.93-.31.34-.45.47-.6.58-.88.82c-.54.47-1,.84-1,.84-.31.23-.72.52-1,.73l-.57.38c-.53.32-.83.49-1.18.68l-.61.32-.6.3-.62.28c-.37.17-.86.37-1.24.52l-.64.24-.64.23-1.29.41c-.34.09-1,.29-2,.51l-.67.14-1.34.25c-.2,0-.47.08-.68.1l-.68.1-.68.08c-.78.08-1.71.14-1.72.14-.58,0-1.14.07-2.07.08-.44,0-1.15,0-2.07,0-.49,0-1.16-.06-2.06-.15l-1-.11-1-.14s-.92-.14-2-.37c-.74-.16-.74-.16-2-.49-.78-.21-2.23-.69-2.92-1l-.92-.37L15.43,81c-.54-.26-1.23-.63-1.75-.91-.27-.15-.62-.37-.89-.54s-.55-.36-.78-.52-.58-.41-.82-.6l-.7-.56c-.23-.2-.52-.46-.74-.67s-.43-.41-.61-.6-.46-.51-.66-.73-.36-.45-.51-.64-.4-.56-.56-.8a9.35,9.35,0,0,1-.52-.86c-.11-.2-.25-.47-.35-.68s-.28-.64-.39-.92a13.19,13.19,0,0,1-.44-1.43,6.16,6.16,0,0,1-.19-1c0-.22-.07-.51-.09-.73s0-.64,0-.92c0,3.67,2.41,7.34,7.26,10.14,5.78,3.34,13.71,4.68,21.19,4a33.33,33.33,0,0,0,13.58-4c3.83-2.22,6.11-5,6.87-7.88A2.52,2.52,0,0,1,54.21,70.87Z"/></clipPath><clipPath id="clip-path-7"><path class="cls-1" d="M5.4,66.91c0-.44,0-1,.1-1.47s.12-.69.19-1,.15-.59.22-.84.12-.36.18-.52a9.89,9.89,0,0,1,.49-1.15c.07-.15.17-.35.25-.49s.21-.39.31-.55.43-.66.62-.94.27-.36.39-.51a15.8,15.8,0,0,1,2.13-2.22c.54-.47,1-.84,1-.84.31-.22.72-.52,1-.73.17-.12.4-.27.57-.37a24.39,24.39,0,0,1,3-1.59c.7-.32,1.24-.52,1.25-.53l1.26-.46.65-.21.66-.2L21.06,52c1-.24,1.72-.38,2-.43.72-.13,1.35-.22,1.36-.22l.68-.09c.78-.1,1-.12,1.36-.15.76-.06,1.22-.1,2.07-.13.62,0,1.45,0,2.07,0,.9,0,1.27,0,2.07.09s1.6.14,2.06.2c.26,0,1.06.14,2,.32s1.79.37,2,.42c.4.11,1.08.28,2,.55.57.18,1.33.46,1.9.66a30.22,30.22,0,0,1,2.78,1.26l.93.51.82.5.79.52.82.6c.22.16.49.39.7.56l.74.67c.22.2.51.49.71.71.34.37.76.87,1.07,1.26.18.23.4.56.56.8s.38.59.52.86.48,1,.65,1.38a7.92,7.92,0,0,1,.33.93c.09.28.2.67.26,1s.17,1,.21,1.46c0,.27,0,.64,0,.92a8.07,8.07,0,0,1-.28,2.12c0-2.28-2.83-4.38-6.34-4.69.84-3.21-.89-6.6-5.16-9.06s-10.12-3.46-15.66-3a24.45,24.45,0,0,0-10,3c-2.83,1.64-4.51,3.68-5.07,5.81-.84,3.21.88,6.6,5.15,9.06s10.13,3.45,15.66,3a24.61,24.61,0,0,0,10-3c2.82-1.64,4.51-3.68,5.07-5.81,3.51.31,6.35,2.41,6.34,4.69-.75,2.89-3,5.66-6.87,7.88a33.17,33.17,0,0,1-13.58,4c-7.48.68-15.4-.66-21.19-4C7.81,74.25,5.39,70.58,5.4,66.91Z"/></clipPath><clipPath id="clip-path-8"><path class="cls-1" d="M5.4,67.94v-1c0,3.67,2.41,7.34,7.26,10.14,5.79,3.34,13.71,4.68,21.19,4a33.17,33.17,0,0,0,13.58-4c3.83-2.22,6.12-5,6.87-7.88v1c-.76,2.89-3,5.66-6.87,7.88a33.33,33.33,0,0,1-13.58,4c-7.48.67-15.41-.67-21.19-4C7.81,75.28,5.39,71.61,5.4,67.94Z"/></clipPath><linearGradient id="linear-gradient" x1="38.13" y1="65.09" x2="41.55" y2="53.67" gradientUnits="userSpaceOnUse"><stop offset="0.09" stop-color="#b5b2c0"/><stop offset="0.48" stop-color="#dbd3e2"/></linearGradient><linearGradient id="linear-gradient-2" x1="19.58" y1="66.46" x2="14.01" y2="56.25" xlink:href="#linear-gradient"/><linearGradient id="linear-gradient-3" x1="49.29" y1="50.12" x2="43.53" y2="41.91" gradientUnits="userSpaceOnUse"><stop offset="0.6" stop-color="#eae9f2"/><stop offset="0.83" stop-color="#d3d4e4"/></linearGradient><linearGradient id="linear-gradient-4" x1="16.57" y1="65.17" x2="43.26" y2="65.17" gradientUnits="userSpaceOnUse"><stop offset="0.37" stop-color="#caccde"/><stop offset="0.97" stop-color="#eae9f2"/></linearGradient><linearGradient id="linear-gradient-5" x1="25.11" y1="63.53" x2="35.24" y2="45.98" gradientUnits="userSpaceOnUse"><stop offset="0" stop-color="#caccde"/><stop offset="0.56" stop-color="#eae9f2"/></linearGradient><linearGradient id="linear-gradient-6" x1="27.86" y1="51.68" x2="48.49" y2="51.68" gradientUnits="userSpaceOnUse"><stop offset="0.24" stop-color="#a8a4b5"/><stop offset="1" stop-color="#dbd3e2"/></linearGradient><linearGradient id="linear-gradient-7" x1="17.38" y1="69.08" x2="38.73" y2="20.81" xlink:href="#linear-gradient-4"/><linearGradient id="linear-gradient-8" x1="24.66" y1="46.21" x2="35.7" y2="27.1" xlink:href="#linear-gradient-5"/><linearGradient id="linear-gradient-9" x1="4.61" y1="59.64" x2="19.5" y2="40.88" gradientUnits="userSpaceOnUse"><stop offset="0.37" stop-color="#d6d6e5"/><stop offset="0.97" stop-color="#e5e5ef"/></linearGradient><linearGradient id="linear-gradient-10" x1="22.13" y1="61.18" x2="7.55" y2="35.91" gradientUnits="userSpaceOnUse"><stop offset="0.08" stop-color="#d7d8e6"/><stop offset="0.14" stop-color="#e5e5ef"/><stop offset="0.19" stop-color="#eae9f2"/></linearGradient><linearGradient id="linear-gradient-11" x1="4.81" y1="59.8" x2="19.69" y2="41.03" xlink:href="#linear-gradient-9"/><clipPath id="clip-path-9"><path class="cls-1" d="M54.58,68c0,.44,0,1-.11,1.47s-.12.69-.18,1c0,.1,0,.23-.08.33a2.52,2.52,0,0,0,.09-.67A8.51,8.51,0,0,0,54.58,68Z"/></clipPath><clipPath id="clip-path-10"><path class="cls-1" d="M54.58,67v1a8.51,8.51,0,0,1-.28,2.12v-1A8.07,8.07,0,0,0,54.58,67Z"/></clipPath><clipPath id="clip-path-11"><path class="cls-1" d="M54.21,70.82c0,.15-.1.36-.15.51a5.84,5.84,0,0,1-.2.59c-.22.59-.46,1.08-.46,1.08-.07.15-.17.35-.25.49s-.21.39-.31.55l-.62.94c-.11.16-.27.36-.39.51s-.52.65-.8.93l-.45.47c-.25.25-.6.58-.88.82-.54.47-1,.83-1,.84-.31.22-.72.52-1,.73s-.4.27-.57.37c-.53.32-.83.5-1.18.69l-.61.32c-.18.09-.41.21-.6.29l-.62.29-1.24.52-.64.24-.64.23c-.39.12-.9.29-1.29.4s-1,.3-2,.51l-.67.15-1.34.25-.68.1-.68.09-.68.08c-.78.09-1.71.15-1.72.15-.58,0-1.14.07-2.07.07-.44,0-1.15,0-2.07,0-.49,0-1.16-.06-2.06-.15l-1-.11-1-.15s-.92-.13-2-.37c-.74-.15-.74-.15-2-.48-.78-.21-2.23-.69-2.92-1l-.92-.38L15.43,81c-.54-.26-1.23-.63-1.75-.91l-.89-.54c-.24-.15-.55-.37-.78-.52s-.58-.41-.82-.6l-.7-.56c-.23-.2-.52-.46-.74-.67l-.61-.6-.66-.74c-.16-.18-.36-.44-.51-.63s-.4-.56-.56-.81a9.19,9.19,0,0,1-.52-.85c-.11-.2-.25-.48-.35-.68s-.28-.64-.39-.92a13.91,13.91,0,0,1-.44-1.43,6.16,6.16,0,0,1-.19-1c0-.22-.07-.51-.09-.73s0-.64,0-.92c0,3.67,2.41,7.34,7.26,10.14,5.78,3.34,13.71,4.67,21.19,4a33.17,33.17,0,0,0,13.58-4c3.83-2.22,6.11-5,6.87-7.88A2.52,2.52,0,0,1,54.21,70.82Z"/></clipPath><clipPath id="clip-path-12"><path class="cls-1" d="M5.4,66.86c0-.44,0-1,.1-1.47s.12-.7.19-1,.15-.59.22-.85.12-.36.18-.51a9.89,9.89,0,0,1,.49-1.15c.07-.15.17-.35.25-.49s.21-.39.31-.55.43-.66.62-.94.27-.36.39-.51a15.8,15.8,0,0,1,2.13-2.22c.54-.48,1-.84,1-.84l1-.74.57-.37a27.45,27.45,0,0,1,3-1.59c.7-.31,1.24-.52,1.25-.52l1.26-.46.65-.21.66-.2,1.31-.35c1-.24,1.72-.38,2-.43.72-.13,1.35-.22,1.36-.22l.68-.1c.78-.09,1-.12,1.36-.14.76-.07,1.22-.1,2.07-.13.62,0,1.45,0,2.07,0,.9,0,1.27,0,2.07.09s1.6.14,2.06.2c.26,0,1.06.13,2,.31s1.79.38,2,.43c.4.1,1.08.27,2,.55.57.18,1.33.45,1.9.66a30.22,30.22,0,0,1,2.78,1.26l.93.51c.25.14.58.34.82.5l.79.52c.25.17.57.42.82.6s.49.39.7.56l.74.67c.22.2.51.49.71.71s.76.87,1.07,1.26c.18.23.4.56.56.8a9.35,9.35,0,0,1,.52.86c.21.4.48,1,.65,1.38a7.32,7.32,0,0,1,.33.93,9.65,9.65,0,0,1,.26,1c.08.43.17,1,.21,1.46,0,.27,0,.64,0,.92a8.07,8.07,0,0,1-.28,2.12c0-2.28-2.83-4.38-6.34-4.7.84-3.2-.89-6.59-5.16-9.06s-10.12-3.45-15.66-3a24.6,24.6,0,0,0-10,3c-2.83,1.65-4.51,3.69-5.07,5.82-.84,3.21.88,6.59,5.15,9.06s10.13,3.45,15.66,3a24.61,24.61,0,0,0,10-3c2.82-1.64,4.51-3.69,5.07-5.82,3.51.32,6.35,2.42,6.34,4.7-.75,2.88-3,5.66-6.87,7.88a33.17,33.17,0,0,1-13.58,4c-7.48.67-15.4-.66-21.19-4C7.81,74.2,5.39,70.53,5.4,66.86Z"/></clipPath><clipPath id="clip-path-13"><path class="cls-1" d="M5.4,67.89v-1c0,3.67,2.41,7.34,7.26,10.14,5.79,3.34,13.71,4.67,21.19,4a33.17,33.17,0,0,0,13.58-4c3.83-2.22,6.12-5,6.87-7.88v1c-.76,2.88-3,5.66-6.87,7.88a33.17,33.17,0,0,1-13.58,4c-7.48.67-15.41-.66-21.19-4C7.81,75.23,5.39,71.56,5.4,67.89Z"/></clipPath><linearGradient id="linear-gradient-12" x1="49.89" y1="76.4" x2="40.86" y2="66.24" gradientUnits="userSpaceOnUse"><stop offset="0" stop-color="#908e99"/><stop offset="0.09" stop-color="#b5b2c0"/><stop offset="0.48" stop-color="#dbd3e2"/></linearGradient><linearGradient id="linear-gradient-13" x1="14.6" y1="81.78" x2="19.29" y2="68.4" gradientUnits="userSpaceOnUse"><stop offset="0.09" stop-color="#908e99"/><stop offset="0.25" stop-color="#b5b2c0"/><stop offset="0.48" stop-color="#dbd3e2"/></linearGradient><clipPath id="clip-path-14"><path class="cls-1" d="M51.9,17.83l.56.32a1.16,1.16,0,0,0-1.16.11l-.55-.32A1.14,1.14,0,0,1,51.9,17.83Z"/></clipPath><clipPath id="clip-path-15"><path class="cls-1" d="M50.16,22.1l-.56-.32a1.14,1.14,0,0,1-.47-1,3.57,3.57,0,0,1,1.62-2.8l.55.32a3.56,3.56,0,0,0-1.61,2.8A1.14,1.14,0,0,0,50.16,22.1Z"/></clipPath><clipPath id="clip-path-16"><path class="cls-1" d="M57,14.89l.56.32a1.16,1.16,0,0,0-1.16.11L55.84,15A1.14,1.14,0,0,1,57,14.89Z"/></clipPath><clipPath id="clip-path-17"><path class="cls-1" d="M55.25,19.16l-.55-.32a1.12,1.12,0,0,1-.48-1A3.57,3.57,0,0,1,55.84,15l.55.32a3.58,3.58,0,0,0-1.61,2.8A1.14,1.14,0,0,0,55.25,19.16Z"/></clipPath><clipPath id="clip-path-18"><path class="cls-1" d="M62.08,12l.56.32a1.14,1.14,0,0,0-1.15.11l-.56-.32A1.14,1.14,0,0,1,62.08,12Z"/></clipPath><clipPath id="clip-path-19"><path class="cls-1" d="M60.34,16.22l-.55-.32a1.16,1.16,0,0,1-.48-1,3.57,3.57,0,0,1,1.62-2.8l.56.32a3.57,3.57,0,0,0-1.62,2.8A1.14,1.14,0,0,0,60.34,16.22Z"/></clipPath><linearGradient id="linear-gradient-14" x1="50.86" y1="75.66" x2="50.22" y2="74.82" gradientUnits="userSpaceOnUse"><stop offset="0" stop-color="#b5b2c0"/><stop offset="0.25" stop-color="#c7c2d0"/><stop offset="0.55" stop-color="#d6cfdd"/><stop offset="0.79" stop-color="#dbd3e2"/></linearGradient><linearGradient id="linear-gradient-15" x1="14.68" y1="78.84" x2="15.01" y2="78.07" xlink:href="#linear-gradient-14"/></defs><g class="cls-2"><g id="Layer_2" data-name="Layer 2"><g id="Layer_1-2" data-name="Layer 1"><ellipse class="cls-3" cx="29.85" cy="70.63" rx="17.23" ry="29.85" transform="translate(-40.95 100.1) rotate(-89.69)"/><ellipse class="cls-4" cx="29.85" cy="70.63" rx="15.01" ry="26" transform="translate(-40.95 100.1) rotate(-89.69)"/><g class="cls-2"><g class="cls-2"><g class="cls-5"><g class="cls-2"><path class="cls-6" d="M40.79,68c0-.37-.15-.84-1-1.63A9.7,9.7,0,0,0,37.33,65a18.33,18.33,0,0,0-6.4-1.35c-4.53-.25-9.46,1.17-11.21,3.25A1.78,1.78,0,0,0,19.19,68c0-1.59,1-3.18,3.14-4.39a16.78,16.78,0,0,1,15.27,0c2.13,1.23,3.19,2.84,3.19,4.45Z"/></g></g></g><g class="cls-2"><g class="cls-7"><g class="cls-2"><path class="cls-6" d="M40.79,67v1c0-1.61-1.06-3.22-3.19-4.45a16.78,16.78,0,0,0-15.27,0c-2.09,1.21-3.14,2.8-3.14,4.39V67c0-1.59,1-3.18,3.14-4.39a16.78,16.78,0,0,1,15.27,0c2.13,1.23,3.19,2.84,3.19,4.45Z"/></g></g></g><g class="cls-2"><g class="cls-8"><g class="cls-2"><path class="cls-9" d="M54.58,68.08a11.17,11.17,0,0,1-.37,2.79,2.52,2.52,0,0,0,.09-.67,8.51,8.51,0,0,0,.28-2.12Z"/></g></g></g><g class="cls-2"><g class="cls-10"><g class="cls-2"><path class="cls-11" d="M54.58,67.05v1a8.51,8.51,0,0,1-.28,2.12v-1a8.07,8.07,0,0,0,.28-2.12Z"/></g></g></g><g class="cls-2"><g class="cls-12"><g class="cls-2"><path class="cls-6" d="M21.42,69.42a12.76,12.76,0,0,0,2.87,1.19,20.46,20.46,0,0,0,2.8.6,21.82,21.82,0,0,0,5.88,0,20,20,0,0,0,2.69-.56,13.3,13.3,0,0,0,2.85-1.16,7,7,0,0,0,1.64-1.24,2.11,2.11,0,0,0,.64-1.17c0-1.68-1.06-3.29-3.19-4.52a16.78,16.78,0,0,0-15.27,0c-2.09,1.21-3.13,2.8-3.14,4.39.07.52.12.66.77,1.39a7,7,0,0,0,1.46,1.08c-.83-.48-2.11-.35-3.56.49C11.11,66,11.07,59.7,17.78,55.8s17.61-3.9,24.37,0,6.78,10.21.07,14.11-17.6,3.9-24.36,0c1.45-.84,2.73-1,3.56-.49Z"/><path class="cls-11" d="M16.42,61.46c-1.56-4.28,10.14-8.4,13.5-6.14.88.59,0,1.29-.91,1.77,0,0-.65.34-1,.49-1.94.82-3.92,1.52-5.86,2.31-1.1.45-1.55.63-2.43,1A11.69,11.69,0,0,1,17.45,62a.73.73,0,0,1-1-.53Z"/></g></g></g><path class="cls-6" d="M48,64.48c-.56,2.13-2.25,4.17-5.07,5.81a24.61,24.61,0,0,1-10,3c-5.53.49-11.39-.49-15.66-3s-6-5.85-5.15-9.06c.56-2.13,2.24-4.17,5.07-5.81a24.45,24.45,0,0,1,10-3c5.54-.5,11.39.49,15.66,3S48.8,61.27,48,64.48Zm-30.1,5.43c6.76,3.9,17.65,3.9,24.36,0S48.9,59.7,42.15,55.8s-17.66-3.9-24.37,0S11.11,66,17.86,69.91Z"/><g class="cls-2"><g class="cls-13"><g class="cls-2"><path class="cls-9" d="M54.21,70.87a12.85,12.85,0,0,1-2.38,4.67,18.47,18.47,0,0,1-4.77,4.17,27.9,27.9,0,0,1-6.82,3A36,36,0,0,1,32.48,84a35.74,35.74,0,0,1-15.15-2.17,25.86,25.86,0,0,1-6.14-3.39A15.34,15.34,0,0,1,7,73.78a11.55,11.55,0,0,1-1.6-5.65c0,3.48,2.41,7.15,7.26,10,5.78,3.34,13.71,4.68,21.19,4a33.33,33.33,0,0,0,13.58-4c3.83-2.22,6.11-5,6.87-7.88a2.52,2.52,0,0,1-.09.67Z"/></g></g></g><g class="cls-2"><g class="cls-14"><g class="cls-2"><path class="cls-6" d="M5.4,66.91A11.64,11.64,0,0,1,6.54,62a14.74,14.74,0,0,1,3.74-4.78c2.2-1.92,6.21-4.47,12.78-5.71a38.43,38.43,0,0,1,15.7.42c6.77,1.67,10.47,4.75,12.08,6.43a13.78,13.78,0,0,1,2.6,3.71,12,12,0,0,1,.83,2.35,11.09,11.09,0,0,1,.31,2.44,8.47,8.47,0,0,1-.28,2.3c0-2.28-2.83-4.38-6.34-4.69.84-3.21-.89-6.6-5.16-9.06s-10.12-3.46-15.66-3a24.45,24.45,0,0,0-10,3c-2.83,1.64-4.51,3.68-5.07,5.81-.84,3.21.88,6.6,5.15,9.06s10.13,3.45,15.66,3a24.61,24.61,0,0,0,10-3c2.82-1.64,4.51-3.68,5.07-5.81,3.51.31,6.35,2.41,6.34,4.69-.75,2.89-3,5.66-6.87,7.88a33.17,33.17,0,0,1-13.58,4c-7.48.68-15.4-.66-21.19-4-4.85-2.8-7.27-6.47-7.26-10.14Z"/><path class="cls-11" d="M30.4,75.75A12.79,12.79,0,0,1,33,75.13a45.89,45.89,0,0,0,9.88-3,24.47,24.47,0,0,0,7.26-5.06,2.18,2.18,0,0,1,1.12-.71c1,.22.48,5.05-4.77,8.42-7.24,4.66-15.88,2.9-16.66,1.88a.49.49,0,0,1-.09-.42c.09-.24.47-.4.7-.51Z"/></g></g></g><g class="cls-2"><g class="cls-15"><g class="cls-2"><path class="cls-11" d="M54.3,69.17v1c-.76,2.89-3,5.66-6.87,7.88a33.33,33.33,0,0,1-13.58,4c-7.48.67-15.41-.67-21.19-4-4.85-2.8-7.27-6.47-7.26-10.14v-1c0,3.67,2.41,7.34,7.26,10.14,5.79,3.34,13.71,4.68,21.19,4a33.17,33.17,0,0,0,13.58-4c3.83-2.22,6.12-5,6.87-7.88Z"/></g></g></g></g><path class="cls-16" d="M49.26,56.91c-1-.55-2.81-.6-4.78.56-2.54,1.51-5,4.8-4.43,8.15.08.49-.13.65.09,1.17a4.75,4.75,0,0,0-.39-.38A9.7,9.7,0,0,0,37.33,65a16.19,16.19,0,0,0-4.71-1.2,7.15,7.15,0,0,1-.36-1.86c0-.38-.08-.81-.11-1.3a22.68,22.68,0,0,1,1.06-8.07v0c.22-.82.43-1.22.8-1.39h0a35.91,35.91,0,0,1,4.73.82A26.5,26.5,0,0,1,49.26,56.91Z"/><path class="cls-17" d="M25.16,62.4a2.91,2.91,0,0,1-1.09,2l-.09.07a9.2,9.2,0,0,0-4.26,2.41,2.33,2.33,0,0,0-.39.58c0-.06,0-.23,0-.49s0-1-.15-1.92c-.66-2.81-4.32-4-7-4.39h0c-2.27-.31-4.34-.1-5.75,1.6,0-.1.08-.18.1-.22a14.74,14.74,0,0,1,3.74-4.78,25.79,25.79,0,0,1,11.29-5.4h0a3.07,3.07,0,0,1,1.54,1.28A13.32,13.32,0,0,1,24.64,57,13.84,13.84,0,0,1,25.16,62.4Z"/><path class="cls-9" d="M5.48,69.24c-.05-.42-.07-.8-.08-1.11A8.29,8.29,0,0,0,5.48,69.24Z"/><path class="cls-9" d="M54.55,68.69a6.08,6.08,0,0,0,0-.61C54.57,68.31,54.56,68.51,54.55,68.69Z"/><path class="cls-18" d="M48,45.05a4.06,4.06,0,0,1,1.09,1c.62.76.85,1.55.54,1.81l-2.36,1.91a18.29,18.29,0,0,1-3.79,2.36l-1.22.57A1.48,1.48,0,0,1,41,52.42c-.33-.19-.92-.8-1-.81-1.12-1.09-1.77-2.49-1.41-3.06l.12-.21a5.06,5.06,0,0,1,2.21-2A5.84,5.84,0,0,1,42.2,46l5-1.11A1.24,1.24,0,0,1,48,45.05Z"/><path class="cls-18" d="M50.18,45.35A7.64,7.64,0,0,0,48.1,43.5a2.21,2.21,0,0,0-1.48-.4l-5,1.11a6,6,0,0,0-1.35.45,5.42,5.42,0,0,0-2.34,2.08l-.12.2c-.58.94.46,3.21,2.29,5a8.63,8.63,0,0,0,1.68,1.32,2.38,2.38,0,0,0,2,.42L45,53.1a18.89,18.89,0,0,0,3.85-2.4l2.36-1.91C51.8,48.3,51.36,46.82,50.18,45.35Zm-2.9,4.4a18.29,18.29,0,0,1-3.79,2.36l-1.22.57A1.48,1.48,0,0,1,41,52.42c-.33-.19-.92-.8-1-.81-1.12-1.09-1.77-2.49-1.41-3.06l.12-.21a5.06,5.06,0,0,1,2.21-2A5.84,5.84,0,0,1,42.2,46l5-1.11a1.24,1.24,0,0,1,.78.21,4.06,4.06,0,0,1,1.09,1c.62.76.85,1.55.54,1.81Z"/><path class="cls-19" d="M52,43.77a7.89,7.89,0,0,0-2.09-1.86,2.23,2.23,0,0,0-1.47-.39l-5,1.11a5.64,5.64,0,0,0-1.35.45,5.73,5.73,0,0,0-1.33.86l-1.77,1.58a5.66,5.66,0,0,1,1.32-.86,6,6,0,0,1,1.35-.45l5-1.11a2.21,2.21,0,0,1,1.48.4,7.64,7.64,0,0,1,2.08,1.85c1.17,1.45,1.61,2.91,1,3.42L53,47.19C53.57,46.68,53.12,45.22,52,43.77Z"/><path class="cls-20" d="M43.26,55.43C43.26,57,41.91,74.92,30,74.92S16.57,56.08,16.57,55.43Z"/><path class="cls-21" d="M33.65,52.26a8.34,8.34,0,0,1-7.55-.08c-2.05-1.23-2-3.18.11-4.37a8.34,8.34,0,0,1,7.55.07C35.81,49.11,35.77,51.07,33.65,52.26Z"/><path class="cls-22" d="M43.13,54.37c-.08-.31-.19-.72-.3-1a10.65,10.65,0,0,0-1.49-2.78,10.5,10.5,0,0,0-1.52-1.65,13,13,0,0,0-1.89-1.39,9.67,9.67,0,0,0-.9-.48c-.21-.11-.5-.25-.72-.34a16.19,16.19,0,0,0-4.7-1.19l-.77-.06-.77,0H29.3c-.49,0-1.08.07-1.56.13,0,0-.77.09-1.57.27l-.85.22c-.23.06-.53.16-.75.23s-.65.24-.92.35-.52.23-.73.33a7.85,7.85,0,0,0-1,.51c-.4.24-.93.59-1.31.87a12.72,12.72,0,0,0-1.16,1,9.9,9.9,0,0,0-.87,1c-.13.18-.32.42-.44.61s-.42.68-.59,1a8.53,8.53,0,0,0-.45,1c-.15.41-.33,1-.45,1.4-.56,2.28.65,4.69,3.65,6.48,5.13,3.07,13.58,3.16,18.87.19C42.38,59.19,43.69,56.72,43.13,54.37Zm-9.48-2.11a8.34,8.34,0,0,1-7.55-.08c-2.05-1.23-2-3.18.11-4.37a8.34,8.34,0,0,1,7.55.07C35.81,49.11,35.77,51.07,33.65,52.26Z"/><path class="cls-23" d="M41.34,65.12c-1.77,4.9-5.11,9.8-11.35,9.8C19.1,74.92,16.9,59.18,16.61,56h0c0-.16,0-.31,0-.46v-.09a4.78,4.78,0,0,1,.13-1.13c.12-.43.3-1,.45-1.4a8.53,8.53,0,0,1,.45-1c.17-.29.4-.69.59-1s.31-.43.44-.61a9.9,9.9,0,0,1,.87-1,11.64,11.64,0,0,1,1.17-1c.37-.28.9-.63,1.3-.88a10.72,10.72,0,0,1,1-.5c.21-.1.5-.24.73-.33s.63-.26.92-.35.52-.17.75-.23.53-.15.78-.2a12.74,12.74,0,0,1,1.43,1.41c1.53,1.74,2.14,3.4,1,3.61a10.47,10.47,0,0,0-2.88,1c-1.84.92-3.35,2.29-3.59,3.56a1.65,1.65,0,0,0,.18,1.17c1.19,2.09.52,2.35.56,5.16v0c.37,1.29-.66,4.83,3.28,6.16C30.33,69.38,38.59,67.82,41.34,65.12Z"/><ellipse class="cls-24" cx="29.86" cy="50.51" rx="5.59" ry="9.69" transform="translate(-20.81 80.1) rotate(-89.69)"/><path class="cls-25" d="M21.31,51.51c.3.18.72.41,1,.56a12.92,12.92,0,0,0,1.62.69c.25.09.58.2.84.27.46.13,1.09.28,1.56.39.25,0,.59.11.84.14l.81.1.82.06.82,0h.82l.84-.05c.49,0,1.14-.13,1.62-.21.27,0,.62-.11.88-.17s.55-.13.78-.2l.94-.28c.32-.11.75-.28,1.07-.42s1-.46,1.39-.68.79-.48,1.12-.7.52-.37.73-.54.71-.61,1-.88a10,10,0,0,1-2.18,1.59C33.61,54,25.56,54,20.7,51a9.88,9.88,0,0,1-1.78-1.35l.81.73.41.32C20.48,51,21,51.29,21.31,51.51Z"/><path class="cls-26" d="M31.32,53.69C38,53.69,45,47,45,42.49a24.85,24.85,0,0,0-.91-7c-1.44-4.81-28.14-2.42-28.67,1-.13.83-.16,1.42-.19,1.62-.18,1-1.27,6.76,2.87,10.73S26.24,53.69,31.32,53.69Z"/><path class="cls-27" d="M44.29,36.23c-.09-.33-.21-.78-.33-1.11s-.32-.81-.47-1.14a11.41,11.41,0,0,0-1.15-1.88,12.11,12.11,0,0,0-1.65-1.8,13.61,13.61,0,0,0-2.07-1.51c-.28-.18-.68-.38-1-.53s-.55-.27-.79-.37a17.26,17.26,0,0,0-1.72-.63c-.08,0-.73-.23-1.71-.42-.64-.13-1.31-.21-1.69-.25l-.84-.06-.84,0h-.84c-.53,0-1.18.08-1.69.14a16.47,16.47,0,0,0-1.72.29l-.92.24-.82.26c-.31.09-.71.25-1,.37l-.8.36c-.32.15-.73.37-1,.55s-1,.65-1.42,1a12.26,12.26,0,0,0-1.27,1.12,10.47,10.47,0,0,0-.94,1.06c-.15.2-.35.45-.49.66s-.45.74-.64,1.06A9.31,9.31,0,0,0,16,34.64c-.17.44-.36,1-.49,1.51-.6,2.49.71,5.11,4,7.06,5.6,3.35,14.8,3.44,20.55.21C43.47,41.49,44.9,38.8,44.29,36.23Z"/><path class="cls-28" d="M44.83,41.09a6.77,6.77,0,0,1-.15,2,8.51,8.51,0,0,1-4.36,4.74c-4.09,2.28-9.82,3-14.89,2.08-1.58-.35-2.17-.49-2.94-7.24-.1-1.89.55-2,1.13-1.94,4.91,1.51,11.15,1.1,15.38-1.26,2.77-1.54,4.13-3.61,4.07-5.66v-.14a.47.47,0,0,1,.22.17A18.71,18.71,0,0,1,44.83,41.09Z"/><path class="cls-29" d="M8.36,37.92a2,2,0,0,1,.7.73l3.61,6.21q2.61,4.5,4.92,9.28L19,57a3.33,3.33,0,0,1-.05,3.21,1.52,1.52,0,0,1-2.13.46,2.62,2.62,0,0,1-.8-.74l-.32-.43a37.4,37.4,0,0,1-3.58-6c-.44-.9-.85-1.83-1.22-2.77L6.76,40.3a2.06,2.06,0,0,1,.41-2.37A1.07,1.07,0,0,1,8.36,37.92Z"/><path class="cls-30" d="M22.17,55.63l-1.36-2.82q-2.34-4.86-5-9.44L12.2,37.16a3.85,3.85,0,0,0-1.34-1.4,2.14,2.14,0,0,0-1.65-.26L7.44,36a2.14,2.14,0,0,1,1.65.26,3.85,3.85,0,0,1,1.34,1.4L14,43.85c1.78,3,3.45,6.21,5,9.44l1.36,2.83a5.45,5.45,0,0,1-.08,5.23,2.5,2.5,0,0,1-1.43,1.07l1.77-.48a2.56,2.56,0,0,0,1.44-1.07A5.5,5.5,0,0,0,22.17,55.63Z"/><path class="cls-31" d="M20.4,56.12,19,53.29c-1.56-3.23-3.23-6.39-5-9.44l-3.6-6.21a3.85,3.85,0,0,0-1.34-1.4,2,2,0,0,0-2.26,0c-1.13.8-1.46,2.74-.78,4.49l4.1,10.42c.39,1,.82,2,1.28,3a39.91,39.91,0,0,0,3.8,6.33l.31.42a4.55,4.55,0,0,0,1.32,1.22,2.47,2.47,0,0,0,3.46-.75A5.45,5.45,0,0,0,20.4,56.12Zm-1.5,4.06a1.52,1.52,0,0,1-2.13.46,2.62,2.62,0,0,1-.8-.74l-.32-.43a37.4,37.4,0,0,1-3.58-6c-.44-.9-.85-1.83-1.22-2.77L6.76,40.3a2.06,2.06,0,0,1,.41-2.37,1.07,1.07,0,0,1,1.19,0,2,2,0,0,1,.7.73l3.61,6.21q2.61,4.5,4.92,9.28L19,57A3.33,3.33,0,0,1,18.9,60.18Z"/><g class="cls-2"><g class="cls-2"><g class="cls-32"><g class="cls-2"><path class="cls-9" d="M54.58,68a11.17,11.17,0,0,1-.37,2.79,2.52,2.52,0,0,0,.09-.67A8.51,8.51,0,0,0,54.58,68Z"/></g></g></g><g class="cls-2"><g class="cls-33"><g class="cls-2"><path class="cls-11" d="M54.58,67v1a8.51,8.51,0,0,1-.28,2.12v-1A8.07,8.07,0,0,0,54.58,67Z"/></g></g></g><path class="cls-6" d="M42.76,69.53l-.54.33c-6.71,3.9-17.6,3.9-24.36,0a10.56,10.56,0,0,1-4.52-4.55h-1a11,11,0,0,0,4.82,4.93c4.27,2.47,10.13,3.45,15.66,3a24.61,24.61,0,0,0,10-3l.42-.25Z"/><g class="cls-2"><g class="cls-34"><path class="cls-35" d="M54.21,70.82a12.85,12.85,0,0,1-2.38,4.67,18.24,18.24,0,0,1-4.77,4.16,27.14,27.14,0,0,1-6.82,3A35.81,35.81,0,0,1,32.48,84a35.69,35.69,0,0,1-15.15-2.18,25.35,25.35,0,0,1-6.14-3.38A15.33,15.33,0,0,1,7,73.72a11.5,11.5,0,0,1-1.6-5.65c0,3.49,2.41,7.16,7.26,10,5.78,3.34,13.71,4.67,21.19,4a33.17,33.17,0,0,0,13.58-4c3.83-2.22,6.11-5,6.87-7.88a2.52,2.52,0,0,1-.09.67Z"/></g></g><g class="cls-2"><g class="cls-36"><g class="cls-2"><path class="cls-11" d="M30.4,75.7A11.86,11.86,0,0,1,33,75.08a46.5,46.5,0,0,0,9.88-3A24.51,24.51,0,0,0,50.1,67a2.19,2.19,0,0,1,1.12-.7c1,.21.48,5-4.77,8.42-7.24,4.66-15.88,2.9-16.66,1.88a.49.49,0,0,1-.09-.42c.09-.24.47-.4.7-.51Z"/></g></g></g><g class="cls-2"><g class="cls-37"><path class="cls-6" d="M54.3,69.12v1c-.76,2.88-3,5.66-6.87,7.88a33.17,33.17,0,0,1-13.58,4c-7.48.67-15.41-.66-21.19-4-4.85-2.8-7.27-6.47-7.26-10.14v-1c0,3.67,2.41,7.34,7.26,10.14,5.79,3.34,13.71,4.67,21.19,4a33.17,33.17,0,0,0,13.58-4c3.83-2.22,6.12-5,6.87-7.88Z"/></g></g></g><path class="cls-9" d="M5.48,69.19c-.05-.43-.07-.8-.08-1.12A8.44,8.44,0,0,0,5.48,69.19Z"/><path class="cls-9" d="M54.55,68.64c0-.2,0-.41,0-.61C54.57,68.25,54.56,68.45,54.55,68.64Z"/><path class="cls-6" d="M43.31,70l-.42.25a24.61,24.61,0,0,1-10,3c-5.53.49-11.39-.49-15.66-3a11,11,0,0,1-4.82-4.93H5.52a13.31,13.31,0,0,0-.12,1.55c0,3.67,2.41,7.34,7.26,10.14,5.78,3.34,13.71,4.67,21.19,4a33.17,33.17,0,0,0,13.58-4,20.16,20.16,0,0,0,2.43-1.64Z"/><path class="cls-6" d="M40.53,67.71a2.85,2.85,0,0,1-.38.49,6.84,6.84,0,0,1-1.64,1.23,12.83,12.83,0,0,1-2.85,1.17,20,20,0,0,1-2.69.56,21.71,21.71,0,0,1-5.88,0,18.88,18.88,0,0,1-2.8-.59,12.7,12.7,0,0,1-2.87-1.2A6.28,6.28,0,0,1,20,68.28a4.89,4.89,0,0,1-.44-.52l-5.59-2.45h-.59a10.56,10.56,0,0,0,4.52,4.55c6.76,3.9,17.65,3.9,24.36,0l.54-.33Z"/><path class="cls-38" d="M54.46,69.68h0c-.05.31-.12.65-.22,1.07l0,.12a12.85,12.85,0,0,1-2.38,4.67,18.47,18.47,0,0,1-4.77,4.17,27.32,27.32,0,0,1-4.27,2.11A6.69,6.69,0,0,0,43.27,80a10.14,10.14,0,0,0-3.42-8.32,4.74,4.74,0,0,0-.62-.41,6.94,6.94,0,0,0-3.92-.55l.35-.1a13.3,13.3,0,0,0,2.85-1.16,7,7,0,0,0,1.64-1.24,2.65,2.65,0,0,0,.5-.7A8.19,8.19,0,0,1,47,64.48h1c3,.06,6,1.75,6.48,5.09C54.45,69.6,54.45,69.64,54.46,69.68Z"/><path class="cls-39" d="M26.24,71.07a4,4,0,0,0-1.58,1.26l-.08.1c-1.77,2.38-1.85,5.79-1.55,9.23,0,.61.11,1.21.18,1.81h0a31.51,31.51,0,0,1-5.88-1.64,25.86,25.86,0,0,1-6.14-3.39,18.44,18.44,0,0,1-2.47-2.29,6.19,6.19,0,0,1-.23-1.26,6.42,6.42,0,0,1,0-1c.17-2.7,1.82-6.25,6-6.71a12,12,0,0,1,5.05.69h0a5.39,5.39,0,0,0,.38.45,7,7,0,0,0,1.46,1.08,12.76,12.76,0,0,0,2.87,1.19A14.81,14.81,0,0,0,26.24,71.07Z"/><path class="cls-40" d="M53.88,63.21s-.49-.92-.92-1.59a11.81,11.81,0,0,1,1.12.89s.15.24.32.59a5.17,5.17,0,0,1,.42,1.18A9.72,9.72,0,0,0,53.88,63.21Z"/><path class="cls-41" d="M54.2,64a7.35,7.35,0,0,0-.32-.77,9.72,9.72,0,0,1,.94,1.07c.09.28.16.57.22.85A8.08,8.08,0,0,0,54.2,64Z"/><path class="cls-40" d="M54.66,65.75s-.21-1-.46-1.77A8.08,8.08,0,0,1,55,65.13s.08.28.15.66a5.28,5.28,0,0,1,.05,1.26A8.54,8.54,0,0,0,54.66,65.75Z"/><path class="cls-41" d="M54.74,66.58c0-.28,0-.56-.08-.83a8.54,8.54,0,0,1,.58,1.3c0,.29,0,.59-.05.88A8.9,8.9,0,0,0,54.74,66.58Z"/><path class="cls-40" d="M54.64,68.39l.06-.61c0-.36,0-.81,0-1.2a8.9,8.9,0,0,1,.45,1.35s0,.28-.06.66a5.12,5.12,0,0,1-.33,1.22A10.82,10.82,0,0,0,54.64,68.39Z"/><path class="cls-41" d="M54.46,69.21c.07-.27.13-.54.18-.82a10.82,10.82,0,0,1,.16,1.42c-.08.28-.21.55-.31.82A8.38,8.38,0,0,0,54.46,69.21Z"/><path class="cls-40" d="M53.83,70.92s.41-1,.63-1.71a8.38,8.38,0,0,1,0,1.42s-.09.27-.25.62a4.71,4.71,0,0,1-.65,1.07A9.53,9.53,0,0,0,53.83,70.92Z"/><path class="cls-41" d="M53.43,71.66c.14-.24.28-.48.4-.74a9.53,9.53,0,0,1-.24,1.4c-.16.25-.32.49-.5.72A9.92,9.92,0,0,0,53.43,71.66Z"/><path class="cls-40" d="M52.38,73.16s.62-.84,1-1.5A9.92,9.92,0,0,1,53.09,73a6.86,6.86,0,0,1-1.25,1.44A13.55,13.55,0,0,0,52.38,73.16Z"/><path class="cls-41" d="M51.82,73.8l.56-.64a13.55,13.55,0,0,1-.54,1.32c-.2.21-.42.41-.63.6A13.56,13.56,0,0,0,51.82,73.8Z"/><path class="cls-40" d="M50.49,75.07l.45-.43c.24-.23.44-.41.88-.84a13.56,13.56,0,0,1-.61,1.28,7.5,7.5,0,0,1-1.48,1.2C50,75.89,50.25,75.48,50.49,75.07Z"/><path class="cls-41" d="M49.83,75.6l.66-.53c-.24.41-.49.82-.76,1.21-.23.18-.47.33-.71.5C49.31,76.4,49.57,76,49.83,75.6Z"/><path class="cls-40" d="M48.31,76.66l1.52-1.06c-.26.39-.52.8-.81,1.18a8.37,8.37,0,0,1-1.62,1C47.72,77.41,48,77,48.31,76.66Z"/><path class="cls-41" d="M47.58,77.1l.73-.44c-.3.37-.59.75-.91,1.1-.25.14-.5.29-.76.41C47,77.82,47.28,77.46,47.58,77.1Z"/><path class="cls-40" d="M45.94,78s.93-.51,1.64-.87c-.3.36-.61.72-.94,1.07a9.82,9.82,0,0,1-1.72.81C45.27,78.64,45.61,78.32,45.94,78Z"/><path class="cls-41" d="M45.17,78.33c.26-.12.52-.23.77-.36-.33.35-.67.67-1,1l-.8.32C44.48,79,44.83,78.67,45.17,78.33Z"/><path class="cls-40" d="M43.45,79l1.72-.71c-.34.34-.69.65-1.05,1a9.07,9.07,0,0,1-1.78.64C42.72,79.65,43.09,79.34,43.45,79Z"/><path class="cls-41" d="M42.64,79.33l.81-.29c-.36.3-.73.61-1.11.9-.27.09-.55.18-.82.25C41.9,79.92,42.27,79.61,42.64,79.33Z"/><path class="cls-40" d="M40.87,79.88s1-.34,1.77-.55c-.37.28-.74.59-1.12.86a10.25,10.25,0,0,1-1.83.5C40.09,80.41,40.48,80.16,40.87,79.88Z"/><path class="cls-41" d="M40,80.09l.83-.21c-.39.28-.78.53-1.18.81l-.84.18C39.25,80.62,39.65,80.37,40,80.09Z"/><path class="cls-40" d="M38.22,80.51s1-.26,1.82-.42c-.39.28-.79.53-1.19.78a10,10,0,0,1-1.86.36C37.41,81,37.82,80.75,38.22,80.51Z"/><path class="cls-41" d="M37.39,80.67l.83-.16c-.4.24-.81.49-1.23.72l-.85.13Z"/><path class="cls-40" d="M35.54,80.94l.63-.09c.36-.07.82-.14,1.22-.18l-1.25.69a9.82,9.82,0,0,1-1.88.22C34.7,81.37,35.12,81.17,35.54,80.94Z"/><path class="cls-41" d="M34.69,81.05l.85-.11c-.42.23-.84.43-1.28.64l-.86.07C33.84,81.46,34.27,81.25,34.69,81.05Z"/><path class="cls-40" d="M32.83,81.2s1.07-.11,1.86-.15c-.42.2-.85.41-1.29.6a9.7,9.7,0,0,1-1.88.1C32,81.57,32.4,81.4,32.83,81.2Z"/><path class="cls-41" d="M32,81.25c.29,0,.57,0,.85,0-.43.2-.87.37-1.31.55l-.86,0C31.1,81.6,31.55,81.43,32,81.25Z"/><path class="cls-40" d="M30.12,81.29s1.06,0,1.86,0c-.43.18-.88.35-1.32.52,0,0-.28,0-.66,0a8.45,8.45,0,0,1-1.23-.06Z"/><path class="cls-41" d="M29.26,81.28h.86l-1.35.46-.86,0C28.36,81.57,28.81,81.44,29.26,81.28Z"/><path class="cls-40" d="M27.4,81.2s1.07,0,1.86.08c-.45.16-.9.29-1.35.43A10.12,10.12,0,0,1,26,81.58C26.49,81.47,27,81.32,27.4,81.2Z"/><path class="cls-41" d="M26.55,81.14l.85.06c-.45.12-.91.27-1.38.38l-.86-.09Z"/><path class="cls-40" d="M24.69,80.94s1.06.09,1.86.2l-1.39.35a9.41,9.41,0,0,1-1.87-.26Z"/><path class="cls-41" d="M23.85,80.82c.28.05.56.08.84.12l-1.4.29-.85-.15C22.91,81,23.38,80.91,23.85,80.82Z"/><path class="cls-40" d="M22,80.5s1,.16,1.84.32c-.47.09-.94.19-1.41.26a10.4,10.4,0,0,1-1.84-.39C21.07,80.63,21.54,80.58,22,80.5Z"/><path class="cls-41" d="M21.18,80.32c.27.06.55.13.83.18-.47.08-.94.13-1.41.19l-.84-.21C20.23,80.44,20.71,80.39,21.18,80.32Z"/><path class="cls-40" d="M19.37,79.87s1,.24,1.81.45c-.47.07-.95.12-1.42.16A10,10,0,0,1,17.94,80C18.42,79.94,18.9,79.9,19.37,79.87Z"/><path class="cls-41" d="M18.55,79.63l.82.24c-.47,0-.95.07-1.43.08l-.82-.28C17.6,79.67,18.08,79.65,18.55,79.63Z"/><path class="cls-40" d="M16.79,79l.59.2c.35.11.79.26,1.17.4-.47,0-.95,0-1.43,0A9.07,9.07,0,0,1,15.36,79C15.84,79,16.31,79,16.79,79Z"/><path class="cls-41" d="M16,78.73c.26.11.53.21.8.3-.48,0-.95,0-1.43,0-.27-.1-.53-.23-.79-.35C15,78.69,15.52,78.71,16,78.73Z"/><path class="cls-40" d="M14.29,78l1.7.75c-.47,0-1,0-1.42-.09a9.09,9.09,0,0,1-1.7-.84C13.34,77.88,13.82,77.92,14.29,78Z"/><path class="cls-41" d="M13.53,77.6l.76.38c-.47-.06-.95-.1-1.42-.18-.25-.14-.51-.27-.75-.43C12.59,77.47,13.06,77.53,13.53,77.6Z"/><path class="cls-40" d="M11.91,76.68s.93.51,1.62.92c-.47-.07-.94-.13-1.41-.23a8.4,8.4,0,0,1-1.59-1C11,76.46,11.45,76.59,11.91,76.68Z"/><path class="cls-41" d="M11.2,76.21c.24.16.47.33.71.47-.46-.09-.92-.22-1.38-.34l-.7-.51C10.29,76,10.74,76.11,11.2,76.21Z"/><path class="cls-40" d="M9.72,75.11l1.48,1.1c-.46-.1-.91-.25-1.37-.38a8.3,8.3,0,0,1-1.44-1.25C8.84,74.77,9.27,75,9.72,75.11Z"/><path class="cls-41" d="M9.08,74.55c.21.19.42.38.64.56-.45-.15-.88-.34-1.33-.53L7.78,74C8.22,74.17,8.64,74.38,9.08,74.55Z"/><path class="cls-40" d="M7.8,73.23s.71.77,1.28,1.32c-.44-.17-.86-.38-1.3-.6a7.16,7.16,0,0,1-1.19-1.49A13,13,0,0,0,7.8,73.23Z"/><path class="cls-41" d="M7.27,72.57a8.06,8.06,0,0,0,.53.66,13,13,0,0,1-1.21-.77c-.16-.24-.33-.48-.47-.74A10,10,0,0,0,7.27,72.57Z"/><path class="cls-40" d="M6.29,71s.53.9,1,1.55a10,10,0,0,1-1.15-.85A6,6,0,0,1,5.31,70,10.63,10.63,0,0,0,6.29,71Z"/><path class="cls-41" d="M5.93,70.26c.11.26.24.51.36.76a10.63,10.63,0,0,1-1-1c-.11-.27-.18-.56-.27-.84A11.08,11.08,0,0,0,5.93,70.26Z"/><path class="cls-40" d="M5.4,68.52a17.94,17.94,0,0,0,.53,1.74A11.08,11.08,0,0,1,5,69.15s-.08-.27-.17-.65a4.74,4.74,0,0,1-.11-1.25A8,8,0,0,0,5.4,68.52Z"/><path class="cls-41" d="M5.28,67.69c0,.28.06.56.12.83a8,8,0,0,1-.64-1.27,8.61,8.61,0,0,1,0-.88A9.06,9.06,0,0,0,5.28,67.69Z"/><path class="cls-40" d="M5.29,65.87s0,.31,0,.62,0,.81,0,1.2a9.06,9.06,0,0,1-.52-1.32,5.35,5.35,0,0,1,0-.67,4.66,4.66,0,0,1,.27-1.23A9.09,9.09,0,0,0,5.29,65.87Z"/><path class="cls-41" d="M5.42,65.05c0,.27-.1.55-.13.82a9.09,9.09,0,0,1-.23-1.4q.12-.43.27-.84A8.34,8.34,0,0,0,5.42,65.05Z"/><path class="cls-40" d="M6,63.31s-.37,1-.56,1.74a8.34,8.34,0,0,1-.09-1.42A4.64,4.64,0,0,1,5.55,63a5.14,5.14,0,0,1,.61-1.1A8.64,8.64,0,0,0,6,63.31Z"/><path class="cls-41" d="M6.35,62.56a7.45,7.45,0,0,0-.37.75,8.64,8.64,0,0,1,.18-1.41c.15-.25.31-.5.47-.74A12,12,0,0,0,6.35,62.56Z"/><path class="cls-42" d="M33.4,44.44l-.68.11a.52.52,0,0,0-.27.87c.43.58.91,1.11,1.31,1.71.06.09,0,.1-.09.11l-.73.11c-.11,0-.15,0-.16-.11s-.18-.22-.26-.14a.42.42,0,0,0,.1.57.42.42,0,0,0,.35.07l.74-.11a.5.5,0,0,0,.26-.84C32.53,45,32.54,45,32.75,45l.68-.11c.12,0,.16,0,.17.14s.21.19.28.11,0-.46-.17-.61a.37.37,0,0,0-.31-.06Z"/><path class="cls-42" d="M35.94,43.85c-.11,0-.14.11-.12.25.12.78.21,1.56.28,2.3,0,.22,0,.28-.17.33l-.54.14c-.16,0-.21,0-.23-.22-.06-.75-.15-1.53-.25-2.31,0-.31-.27-.12-.27-.12a.29.29,0,0,0,0,.19c.1.78.17,1.57.24,2.31s.42.58.58.54l.55-.14a.69.69,0,0,0,.45-.82c-.08-.74-.18-1.51-.3-2.29,0-.06,0-.2-.18-.16Z"/><path class="cls-42" d="M37.31,45.07q-.08-.59-.18-1.17l.64-.24c.17-.07.22,0,.26.21s.07.38.1.57,0,.31-.16.38l-.66.25Zm.41-1.83c-.31.12-.63.24-1,.35.18,1,.32,2,.41,3,0,.27.26.1.28.06a.22.22,0,0,0,0-.17c0-.31-.07-.64-.11-1l.65-.25c.34-.14.48-.45.4-.92,0-.19-.07-.37-.1-.56-.12-.63-.46-.57-.6-.51Z"/><path class="cls-42" d="M39.39,44.19c-.07-.38-.15-.77-.23-1.15l.58-.31c.16-.08.2,0,.26.18l.12.57c0,.23,0,.3-.14.39l-.59.32Zm.28-1.88h0q-.42.24-.87.45c.22,1,.39,2,.52,2.92,0,.28.24.07.24.07a.27.27,0,0,0,0-.21c0-.31-.09-.63-.15-.95.21-.1.4-.21.6-.32s.41-.49.32-1l-.12-.54c-.15-.62-.45-.53-.58-.46Z"/><path class="cls-42" d="M41.77,44s-.05,0-.09-.06c-.49-.8-.49-.8-.47-1.17s0-.63,0-1c0-.08.06-.12.11-.07l0,.05c.52.8.52.8.51,1.13-.07,1-.07,1-.12,1.07Zm-.61-2.66a.67.67,0,0,0-.17.52c0,1.48,0,1.48.17,1.84.42.68.42.68.49.71s.29,0,.37-.35a1,1,0,0,0,0-.2c.09-1.24.1-1.4-.13-1.77-.57-.86-.58-.88-.76-.75Z"/><path class="cls-42" d="M42.56,41.4c-.06-.2-.11-.4-.17-.6l.37-.39c.07-.08.12-.07.16.05s0,.18.08.27a.28.28,0,0,1-.07.29c-.12.13-.24.26-.37.38ZM42.65,40a7.5,7.5,0,0,1-.56.57,21.68,21.68,0,0,1,.69,2.81c0,.21.13.11.16,0a.4.4,0,0,0,0-.23c-.09-.46-.19-.94-.31-1.42l0,0a8.84,8.84,0,0,0,.81,1c.08.07.12-.09.12-.15a.34.34,0,0,0-.08-.27c-.35-.45-.39-.51-.64-.81l.15-.16a.92.92,0,0,0,.09-.83,2.76,2.76,0,0,0-.08-.27c-.14-.41-.33-.36-.42-.27Z"/><path class="cls-42" d="M43.76,38.44a7.74,7.74,0,0,1-.56.89l.18.52s.06.19.13.08a.35.35,0,0,0,0-.27l0-.13a1.74,1.74,0,0,0,.11-.18,19.62,19.62,0,0,1,.64,2.35c0,.09,0,.1,0,.12s.12,0,.06-.31a17.7,17.7,0,0,0-.63-2.34l.1-.18s0,.09.05.13,0,.12.08.13.09-.1,0-.31l-.18-.5Z"/><g class="cls-2"><path class="cls-43" d="M62.18,21.66l-.28.25a8.38,8.38,0,0,1-1.37,1l.41-.35A7,7,0,0,0,62.18,21.66Z"/><path class="cls-43" d="M65.59,15.56l-.07.37a8,8,0,0,0,.17-1.58l.09-.54A8.15,8.15,0,0,1,65.59,15.56Z"/><polygon class="cls-43" points="60.94 22.57 60.53 22.91 54.39 26.45 54.57 26.24 60.94 22.57"/><polygon class="cls-43" points="65.66 5.33 65.76 4.79 65.78 13.81 65.69 14.35 65.66 5.33"/><polygon class="cls-44" points="49.64 35.67 47.82 34.61 48.06 27.96 49.88 29.02 49.64 35.67"/><polygon class="cls-43" points="50.63 33.87 49.64 35.67 49.88 29.02 50.83 28.43 50.63 33.87"/><path class="cls-44" d="M62.4.36l1.82,1a3.7,3.7,0,0,0-3.75.37L58.65.72A3.72,3.72,0,0,1,62.4.36Z"/><path class="cls-43" d="M60.89,2.61l-.42-.83c2.91-1.68,5.28-.33,5.29,3l-.1.54C65.65,2.31,63.51,1.09,60.89,2.61Z"/><path class="cls-43" d="M50.83,28.43l-.95.59c-2.63,1.18-4.68-.2-4.69-3.32l.93-.05C46.13,28.46,48,29.71,50.83,28.43Z"/><path class="cls-44" d="M46.73,29.08l-1.82-1a3.68,3.68,0,0,1-1.54-3.39l1.82,1.06A3.67,3.67,0,0,0,46.73,29.08Z"/><polygon class="cls-44" points="45.19 25.7 43.37 24.64 43.34 15.63 45.16 16.68 45.19 25.7"/><polygon class="cls-43" points="46.12 25.65 45.19 25.7 45.16 16.68 46.09 16.63 46.12 25.65"/><polygon class="cls-44" points="50.42 7.58 48.6 6.53 58.65 0.72 60.47 1.78 50.42 7.58"/><polygon class="cls-43" points="50.84 8.41 50.42 7.58 60.47 1.78 60.89 2.61 50.84 8.41"/><path class="cls-43" d="M43.53,13.88l0-.21,0-.16a11.14,11.14,0,0,1,3.33-5.73h0l.28-.25A12.4,12.4,0,0,0,43.53,13.88Z"/><path class="cls-45" d="M60.89,2.61c2.62-1.52,4.76-.3,4.77,2.72l0,9a10.43,10.43,0,0,1-4.75,8.21l-6.37,3.68-3.94,7.63.2-5.44c-2.85,1.28-4.7,0-4.71-2.78l0-9a10.46,10.46,0,0,1,4.75-8.22Z"/><path class="cls-43" d="M46.09,16.63l-.93.05a11.57,11.57,0,0,1,5.26-9.1l.42.83A10.46,10.46,0,0,0,46.09,16.63Z"/><path class="cls-44" d="M45.16,16.68l-1.82-1a11.58,11.58,0,0,1,5.26-9.1l1.82,1A11.57,11.57,0,0,0,45.16,16.68Z"/></g><g class="cls-2"><g class="cls-2"><g class="cls-46"><path class="cls-44" d="M51.3,18.26l-.55-.32a1.14,1.14,0,0,1,1.15-.11l.56.32a1.16,1.16,0,0,0-1.16.11Z"/></g></g><g class="cls-2"><g class="cls-47"><path class="cls-44" d="M50.16,22.1l-.56-.32a1.14,1.14,0,0,1-.47-1,3.57,3.57,0,0,1,1.62-2.8l.55.32a3.56,3.56,0,0,0-1.61,2.8,1.14,1.14,0,0,0,.47,1Z"/></g></g><path class="cls-48" d="M51.3,18.26c.9-.51,1.63-.1,1.63.93A3.57,3.57,0,0,1,51.31,22c-.89.52-1.62.1-1.62-.93A3.56,3.56,0,0,1,51.3,18.26Z"/></g><g class="cls-2"><g class="cls-2"><g class="cls-49"><path class="cls-44" d="M56.39,15.32,55.84,15A1.14,1.14,0,0,1,57,14.89l.56.32a1.16,1.16,0,0,0-1.16.11Z"/></g></g><g class="cls-2"><g class="cls-50"><path class="cls-44" d="M55.25,19.16l-.55-.32a1.12,1.12,0,0,1-.48-1A3.57,3.57,0,0,1,55.84,15l.55.32a3.58,3.58,0,0,0-1.61,2.8,1.14,1.14,0,0,0,.47,1Z"/></g></g><path class="cls-48" d="M56.39,15.32c.9-.51,1.63-.1,1.63.93a3.57,3.57,0,0,1-1.62,2.8c-.89.52-1.62.1-1.62-.93A3.58,3.58,0,0,1,56.39,15.32Z"/></g><g class="cls-2"><g class="cls-2"><g class="cls-51"><path class="cls-44" d="M61.49,12.38l-.56-.32A1.14,1.14,0,0,1,62.08,12l.56.32a1.14,1.14,0,0,0-1.15.11Z"/></g></g><g class="cls-2"><g class="cls-52"><path class="cls-44" d="M60.34,16.22l-.55-.32a1.16,1.16,0,0,1-.48-1,3.57,3.57,0,0,1,1.62-2.8l.56.32a3.57,3.57,0,0,0-1.62,2.8,1.14,1.14,0,0,0,.47,1Z"/></g></g><path class="cls-48" d="M61.49,12.38c.89-.51,1.62-.1,1.62.93a3.56,3.56,0,0,1-1.61,2.8c-.9.52-1.63.1-1.63-.93A3.57,3.57,0,0,1,61.49,12.38Z"/></g><path class="cls-53" d="M48.83,76.27c.22-.17.62.21.48.48a13.53,13.53,0,0,0,2.78-2.34.44.44,0,0,0-.36-.63A29.46,29.46,0,0,1,48.83,76.27Z"/><path class="cls-54" d="M17.44,79.22c-.21.12-.25.57-.05.65a22.12,22.12,0,0,1-5.05-2.31c-.17-.31-.06-.67.14-.64A43.42,43.42,0,0,0,17.44,79.22Z"/></g></g></g></svg>