<svg xmlns="http://www.w3.org/2000/svg" xmlns:xlink="http://www.w3.org/1999/xlink" viewBox="0 0 68.5 66.1"><defs><style>.cls-1{mask:url(#mask);filter:url(#luminosity-noclip-3);}.cls-15,.cls-2,.cls-4{mix-blend-mode:multiply;}.cls-2{fill:url(#linear-gradient);}.cls-3{mask:url(#mask-2);filter:url(#luminosity-noclip-4);}.cls-4{fill:url(#linear-gradient-2);}.cls-5{isolation:isolate;}.cls-6{mask:url(#mask-3);}.cls-7{fill:url(#linear-gradient-3);}.cls-8{fill:#efc9ff;}.cls-9{fill:#eef1f5;}.cls-10{fill:#cfd0e0;}.cls-11{fill:url(#linear-gradient-4);}.cls-12{fill:url(#linear-gradient-5);}.cls-13{fill:#c0baca;}.cls-14{fill:url(#linear-gradient-6);}.cls-15{fill:#ebebeb;}.cls-16{fill:#d4d5e6;}.cls-17{fill:url(#linear-gradient-7);}.cls-18{fill:url(#linear-gradient-8);}.cls-19{fill:url(#linear-gradient-9);}.cls-20{fill:#003447;}.cls-21{fill:#0bf;}.cls-22{fill:url(#linear-gradient-10);}.cls-23{fill:url(#linear-gradient-11);}.cls-24{fill:url(#linear-gradient-12);}.cls-25{mask:url(#mask-4);}.cls-26{fill:url(#linear-gradient-13);}.cls-27{filter:url(#luminosity-noclip-2);}.cls-28{filter:url(#luminosity-noclip);}</style><filter id="luminosity-noclip" x="0.96" y="-8031.73" width="21.35" height="32766" filterUnits="userSpaceOnUse" color-interpolation-filters="sRGB"><feFlood flood-color="#fff" result="bg"/><feBlend in="SourceGraphic" in2="bg"/></filter><mask id="mask" x="0.96" y="-8031.73" width="21.35" height="32766" maskUnits="userSpaceOnUse"><g class="cls-28"/></mask><linearGradient id="linear-gradient" x1="6.3" y1="20.88" x2="16.97" y2="2.39" gradientTransform="translate(20.28 -2.36) rotate(76.72)" gradientUnits="userSpaceOnUse"><stop offset="0" stop-color="#aeaeae"/><stop offset="0.32" stop-color="#949494"/><stop offset="1" stop-color="#525252"/></linearGradient><filter id="luminosity-noclip-2" x="3.67" y="-8031.73" width="6.85" height="32766" filterUnits="userSpaceOnUse" color-interpolation-filters="sRGB"><feFlood flood-color="#fff" result="bg"/><feBlend in="SourceGraphic" in2="bg"/></filter><mask id="mask-2" x="3.67" y="-8031.73" width="6.85" height="32766" maskUnits="userSpaceOnUse"><g class="cls-27"/></mask><linearGradient id="linear-gradient-2" x1="7.25" y1="0.22" x2="6.99" y2="11.42" gradientTransform="matrix(1, 0, 0, 1, 0, 0)" xlink:href="#linear-gradient"/><filter id="luminosity-noclip-3" x="0.96" y="0.96" width="21.35" height="21.35" filterUnits="userSpaceOnUse" color-interpolation-filters="sRGB"><feFlood flood-color="#fff" result="bg"/><feBlend in="SourceGraphic" in2="bg"/></filter><mask id="mask-3" x="0.96" y="0.96" width="21.35" height="21.35" maskUnits="userSpaceOnUse"><g class="cls-1"><circle class="cls-2" cx="11.63" cy="11.63" r="10.67" transform="translate(-2.36 20.28) rotate(-76.72)"/></g></mask><linearGradient id="linear-gradient-3" x1="6.3" y1="20.88" x2="16.97" y2="2.39" gradientTransform="translate(20.28 -2.36) rotate(76.72)" gradientUnits="userSpaceOnUse"><stop offset="0" stop-color="#8a0dff"/><stop offset="0.62" stop-color="#a41bff"/><stop offset="1" stop-color="#b624ff"/></linearGradient><linearGradient id="linear-gradient-4" x1="69.78" y1="49.53" x2="56.83" y2="27.1" gradientUnits="userSpaceOnUse"><stop offset="0.73" stop-color="#d7d8e8"/><stop offset="0.93" stop-color="#eae9f2"/></linearGradient><linearGradient id="linear-gradient-5" x1="32.91" y1="47.46" x2="62.66" y2="47.46" gradientUnits="userSpaceOnUse"><stop offset="0.37" stop-color="#caccde"/><stop offset="0.97" stop-color="#eae9f2"/></linearGradient><linearGradient id="linear-gradient-6" x1="42.43" y1="45.64" x2="53.72" y2="26.07" gradientUnits="userSpaceOnUse"><stop offset="0" stop-color="#caccde"/><stop offset="0.56" stop-color="#eae9f2"/></linearGradient><linearGradient id="linear-gradient-7" x1="45.49" y1="32.42" x2="68.49" y2="32.42" gradientUnits="userSpaceOnUse"><stop offset="0.24" stop-color="#a8a4b5"/><stop offset="1" stop-color="#dbd3e2"/></linearGradient><linearGradient id="linear-gradient-8" x1="33.81" y1="51.83" x2="57.61" y2="-1.98" xlink:href="#linear-gradient-5"/><linearGradient id="linear-gradient-9" x1="41.93" y1="26.33" x2="54.23" y2="5.02" xlink:href="#linear-gradient-6"/><linearGradient id="linear-gradient-10" x1="25.04" y1="40.78" x2="27.53" y2="27.21" gradientUnits="userSpaceOnUse"><stop offset="0" stop-color="#d2d3e3"/><stop offset="0.08" stop-color="#d8d9e7"/><stop offset="0.3" stop-color="#e6e5ef"/><stop offset="0.5" stop-color="#eae9f2"/></linearGradient><linearGradient id="linear-gradient-11" x1="24.71" y1="40.72" x2="27.2" y2="27.15" xlink:href="#linear-gradient-10"/><linearGradient id="linear-gradient-12" x1="14.12" y1="29.22" x2="36.14" y2="43.71" gradientUnits="userSpaceOnUse"><stop offset="0.08" stop-color="#d0d2e2"/><stop offset="0.09" stop-color="#d7d8e6"/><stop offset="0.15" stop-color="#e5e5ef"/><stop offset="0.19" stop-color="#eae9f2"/></linearGradient><filter id="luminosity-noclip-4" x="3.67" y="3.69" width="6.85" height="6.69" filterUnits="userSpaceOnUse" color-interpolation-filters="sRGB"><feFlood flood-color="#fff" result="bg"/><feBlend in="SourceGraphic" in2="bg"/></filter><mask id="mask-4" x="3.67" y="3.69" width="6.85" height="6.69" maskUnits="userSpaceOnUse"><g class="cls-3"><path class="cls-4" d="M9.92,4.43c1.07,1.15.66,3.26-.9,4.7s-3.69,1.67-4.76.52S3.6,6.39,5.16,5,8.86,3.27,9.92,4.43Z"/></g></mask><linearGradient id="linear-gradient-13" x1="7.25" y1="0.22" x2="6.99" y2="11.42" gradientUnits="userSpaceOnUse"><stop offset="0" stop-color="#debdff"/><stop offset="1" stop-color="#d6a9ff"/></linearGradient></defs><g class="cls-5"><g id="Layer_2" data-name="Layer 2"><g id="Layer_1-2" data-name="Layer 1"><g class="cls-6"><circle class="cls-7" cx="11.63" cy="11.63" r="10.67" transform="translate(-2.36 20.28) rotate(-76.72)"/></g><path class="cls-8" d="M11.63,0A11.64,11.64,0,1,0,23.27,11.63,11.63,11.63,0,0,0,11.63,0Zm0,22.31A10.68,10.68,0,1,1,22.31,11.63,10.68,10.68,0,0,1,11.63,22.31Z"/><path class="cls-9" d="M55.86,64.32a16.48,16.48,0,0,1-15,0c-4.14-2.39-4.16-6.25,0-8.63a16.53,16.53,0,0,1,15,0C60,58.08,60,61.94,55.86,64.32Z"/><path class="cls-10" d="M57.89,30.55a6.9,6.9,0,0,1,2.56,2.83l.22.48a36.81,36.81,0,0,1,2.13,5.85A22.87,22.87,0,0,1,63.29,42l1.33,8c.12.7-.39.89-1.17.44a4.68,4.68,0,0,1-1.88-2.21l-2.09-5.94Q58,37.91,56.89,33.81l-.64-2.42c-.25-.94.17-1.39,1-1.12C57.4,30.4,57.68,30.43,57.89,30.55Z"/><path class="cls-10" d="M66.49,50.46l-1.33-8c-.13-.77-.3-1.56-.52-2.39a38.91,38.91,0,0,0-2.26-6.19l-.22-.48A11.26,11.26,0,0,0,58,28.81a5.21,5.21,0,0,0-1-.44c-1.41-.45-2.1.29-1.69,1.82L56,32.61c.73,2.77,1.61,5.63,2.64,8.55l2.08,6a8.93,8.93,0,0,0,3.57,4.19C65.75,52.17,66.71,51.8,66.49,50.46Zm-3-.08a4.68,4.68,0,0,1-1.88-2.21l-2.09-5.94Q58,37.91,56.89,33.81l-.64-2.42c-.25-.94.17-1.39,1-1.12.11.13.39.16.6.28a6.9,6.9,0,0,1,2.56,2.83l.22.48a36.81,36.81,0,0,1,2.13,5.85A22.87,22.87,0,0,1,63.29,42l1.33,8C64.74,50.64,64.23,50.83,63.45,50.38Z"/><path class="cls-11" d="M68.47,48.7l-1.33-8c-.13-.76-.3-1.56-.52-2.38a38.91,38.91,0,0,0-2.26-6.19l-.22-.48A11.14,11.14,0,0,0,60,27.05a4.48,4.48,0,0,0-1-.45,1.49,1.49,0,0,0-1.47.12l-2,1.76A1.5,1.5,0,0,1,57,28.37a5.21,5.21,0,0,1,1,.44,11.26,11.26,0,0,1,4.17,4.62l.22.48a38.91,38.91,0,0,1,2.26,6.19c.22.83.39,1.62.52,2.39l1.33,8a1.18,1.18,0,0,1-.24,1.11l2-1.76A1.18,1.18,0,0,0,68.47,48.7Z"/><path class="cls-12" d="M62.66,36.6c0,1.77-1.5,21.73-14.79,21.73s-15-21-15-21.72Z"/><path class="cls-13" d="M52,33.07A9.29,9.29,0,0,1,43.53,33c-2.29-1.37-2.23-3.55.12-4.87a9.32,9.32,0,0,1,8.42.08C54.36,29.56,54.31,31.75,52,33.07Z"/><path class="cls-14" d="M62.52,35.42c-.09-.34-.22-.8-.34-1.14s-.32-.82-.49-1.17a11.6,11.6,0,0,0-1.17-1.92,12.62,12.62,0,0,0-1.69-1.84,13.67,13.67,0,0,0-2.12-1.55c-.29-.17-.69-.39-1-.54l-.81-.38a17,17,0,0,0-1.76-.64c-.07,0-.75-.23-1.74-.43a17,17,0,0,0-1.73-.25c-.26,0-.6-.06-.86-.07l-.86,0h-.87c-.54,0-1.2.08-1.73.14a17.41,17.41,0,0,0-1.75.31c-.29.06-.67.16-1,.24l-.84.26c-.31.1-.72.26-1,.39l-.82.36a10.65,10.65,0,0,0-1,.57c-.45.27-1,.66-1.46,1a12.78,12.78,0,0,0-1.3,1.14,11,11,0,0,0-1,1.09c-.15.2-.36.46-.49.67s-.47.76-.66,1.09a7.05,7.05,0,0,0-.5,1.08c-.18.46-.37,1.08-.5,1.55-.63,2.55.72,5.23,4.06,7.23,5.72,3.42,15.14,3.52,21,.21C61.68,40.8,63.14,38.05,62.52,35.42ZM52,33.07A9.29,9.29,0,0,1,43.53,33c-2.29-1.37-2.23-3.55.12-4.87a9.32,9.32,0,0,1,8.42.08C54.36,29.56,54.31,31.75,52,33.07Z"/><path class="cls-15" d="M51.23,57.85a11.61,11.61,0,0,1-3.36.48c-10.06,0-13.46-12-14.52-18.2,2-1.49,1.34-4.26,2.49-4.94l.78-.44a16.26,16.26,0,0,1,2.7,2.14c2.23,2.81,1.35,12,2.8,16.3C43.37,56.94,47.06,58.11,51.23,57.85Z"/><path class="cls-16" d="M55.39,35.55a16.9,16.9,0,0,1-15.27,0c-4.23-2.44-4.25-6.39,0-8.82s11-2.41,15.27,0S59.59,33.12,55.39,35.55Z"/><path class="cls-17" d="M38.19,32.23a13,13,0,0,0,1.16.63,15.37,15.37,0,0,0,1.81.77c.27.1.65.23.93.3.52.15,1.22.31,1.74.43.28.06.65.12.94.16l.9.11.91.07.92,0h.91c.29,0,.66,0,.94-.06.55,0,1.27-.14,1.81-.22.29,0,.68-.13,1-.2s.62-.14.88-.22l1-.32c.37-.12.84-.31,1.2-.46s1.09-.51,1.55-.76.88-.53,1.25-.77.58-.42.81-.61.79-.68,1.11-1a11.16,11.16,0,0,1-2.42,1.78C51.9,35,42.93,35,37.51,31.69a10.51,10.51,0,0,1-2-1.51c.26.25.63.58.91.81s.31.25.45.36A14.12,14.12,0,0,0,38.19,32.23Z"/><path class="cls-18" d="M49.35,34.66c7.48,0,15.26-7.42,15.26-12.48a27.41,27.41,0,0,0-1-7.76c-1.6-5.37-31.36-2.71-31.95,1.1-.15.93-.18,1.59-.22,1.81-.19,1.14-1.41,7.54,3.2,12S43.69,34.66,49.35,34.66Z"/><path class="cls-19" d="M63.81,15.21c-.1-.38-.24-.88-.37-1.25s-.35-.9-.53-1.27a12.81,12.81,0,0,0-1.27-2.09,13.68,13.68,0,0,0-1.85-2,15,15,0,0,0-2.3-1.68c-.32-.2-.76-.43-1.09-.6s-.61-.29-.87-.4A19.07,19.07,0,0,0,53.6,5.2c-.08,0-.81-.25-1.89-.46a18.49,18.49,0,0,0-1.89-.28c-.28,0-.65-.06-.93-.07l-.94,0c-.28,0-.66,0-.94,0-.59,0-1.31.09-1.89.15,0,0-.93.11-1.91.33l-1,.26-.91.29c-.34.11-.79.29-1.12.42s-.62.28-.89.4a11.68,11.68,0,0,0-1.15.62A18.15,18.15,0,0,0,36.53,7.9a15.29,15.29,0,0,0-1.42,1.25,14.74,14.74,0,0,0-1,1.18c-.16.22-.38.51-.53.73s-.51.83-.72,1.19a8.39,8.39,0,0,0-.54,1.18c-.19.49-.4,1.17-.55,1.69-.68,2.77.79,5.7,4.42,7.87,6.24,3.73,16.5,3.83,22.91.23C62.9,21.06,64.49,18.06,63.81,15.21Z"/><path class="cls-20" d="M64.41,20.63a7.24,7.24,0,0,1-.17,2.28c-.59,2-2.17,3.78-4.86,5.28-4.56,2.55-11,3.31-16.59,2.32-1.76-.4-2.42-.54-3.28-8.07-.12-2.11.61-2.27,1.25-2.16C46.24,22,53.19,21.5,57.91,18.87c3.08-1.72,4.6-4,4.54-6.31V12.4a.62.62,0,0,1,.25.2A20.76,20.76,0,0,1,64.41,20.63Z"/><path class="cls-21" d="M50.13,23.65c-1.31.07-2.37,1.48-2.37,3.16a3.7,3.7,0,0,0,.1.83,7.32,7.32,0,0,1,2.27-.46,6.9,6.9,0,0,1,2.27.23,3.86,3.86,0,0,0,.09-.84C52.49,24.89,51.44,23.59,50.13,23.65Z"/><path class="cls-21" d="M59.41,20.42a4.43,4.43,0,0,0-1,4,4.24,4.24,0,0,0,.22.71,7.93,7.93,0,0,1,1.44-1.51,5.12,5.12,0,0,1,1.58-.89,4.27,4.27,0,0,0-.1-.8C61.24,20.41,60.28,19.73,59.41,20.42Z"/><path class="cls-22" d="M27.44,36l-.32-.14-9.81-4.27a3.49,3.49,0,0,1-1.87-2.22c-.19-.88.3-1.41,1.12-1.21l6.17,1.45c3,.7,6,1.58,9.09,2.61l2.73.93s.15,0,.22.08a5.09,5.09,0,0,1,2.45,2.46c.68,1.48.2,2.64-1,2.53l-.44,0a25.34,25.34,0,0,1-6-1.29C29,36.65,28.22,36.35,27.44,36Z"/><path class="cls-23" d="M38.15,36.12a8.27,8.27,0,0,0-4-4L33.8,32l-2.73-.93C28,30,24.86,29.11,21.83,28.39l-6.16-1.45c-1.58-.37-2.5.63-2.14,2.31a6.66,6.66,0,0,0,3.54,4.22l9.82,4.27.34.15c.83.35,1.65.66,2.46.94A27,27,0,0,0,36,40.2l.45,0C38.48,40.4,39.25,38.53,38.15,36.12Zm-2,2.12-.44,0a25.34,25.34,0,0,1-6-1.29c-.77-.26-1.55-.56-2.33-.89l-.32-.14-9.81-4.27a3.49,3.49,0,0,1-1.87-2.22c-.19-.88.3-1.41,1.12-1.21l6.17,1.45c3,.7,6,1.58,9.09,2.61l2.73.93s.15,0,.22.08a5.09,5.09,0,0,1,2.45,2.46C37.9,37.19,37.42,38.35,36.18,38.24Z"/><path class="cls-24" d="M36.46,40.23l-.45,0a27,27,0,0,1-6.32-1.37c-.81-.28-1.63-.59-2.46-.94l-.34-.15-9.82-4.27a6.66,6.66,0,0,1-3.54-4.22,2,2,0,0,1,.44-2l-1.79,1.59a2,2,0,0,0-.44,2,6.6,6.6,0,0,0,3.54,4.22l9.81,4.28.34.14c.83.35,1.65.67,2.47.94a26.93,26.93,0,0,0,6.32,1.37l.44,0a2.05,2.05,0,0,0,1.57-.44L38,39.8A2,2,0,0,1,36.46,40.23Z"/><g class="cls-25"><path class="cls-26" d="M9.92,4.43c1.07,1.15.66,3.26-.9,4.7s-3.69,1.67-4.76.52S3.6,6.39,5.16,5,8.86,3.27,9.92,4.43Z"/></g></g></g></g></svg>